G75*
G70*
%OFA0B0*%
%FSLAX24Y24*%
%IPPOS*%
%LPD*%
%AMOC8*
5,1,8,0,0,1.08239X$1,22.5*
%
%ADD10R,0.0433X0.0394*%
%ADD11C,0.0252*%
%ADD12C,0.0035*%
%ADD13R,0.0500X0.0250*%
%ADD14C,0.0396*%
%ADD15C,0.0100*%
%ADD16R,0.0396X0.0396*%
%ADD17C,0.0120*%
%ADD18C,0.0110*%
%ADD19C,0.0357*%
%ADD20C,0.0160*%
%ADD21C,0.0080*%
D10*
X004671Y003232D03*
X005340Y003232D03*
D11*
X006285Y002141D02*
X006285Y001133D01*
X005277Y001133D01*
X005277Y002141D01*
X006285Y002141D01*
X006285Y001384D02*
X005277Y001384D01*
X005277Y001635D02*
X006285Y001635D01*
X006285Y001886D02*
X005277Y001886D01*
X005277Y002137D02*
X006285Y002137D01*
D12*
X006585Y002172D02*
X006787Y002172D01*
X006787Y002088D01*
X006585Y002088D01*
X006585Y002172D01*
X006585Y002122D02*
X006787Y002122D01*
X006787Y002156D02*
X006585Y002156D01*
X006585Y002368D02*
X006787Y002368D01*
X006787Y002284D01*
X006585Y002284D01*
X006585Y002368D01*
X006585Y002318D02*
X006787Y002318D01*
X006787Y002352D02*
X006585Y002352D01*
X006428Y002442D02*
X006428Y002644D01*
X006512Y002644D01*
X006512Y002442D01*
X006428Y002442D01*
X006428Y002476D02*
X006512Y002476D01*
X006512Y002510D02*
X006428Y002510D01*
X006428Y002544D02*
X006512Y002544D01*
X006512Y002578D02*
X006428Y002578D01*
X006428Y002612D02*
X006512Y002612D01*
X006231Y002644D02*
X006231Y002442D01*
X006231Y002644D02*
X006315Y002644D01*
X006315Y002442D01*
X006231Y002442D01*
X006231Y002476D02*
X006315Y002476D01*
X006315Y002510D02*
X006231Y002510D01*
X006231Y002544D02*
X006315Y002544D01*
X006315Y002578D02*
X006231Y002578D01*
X006231Y002612D02*
X006315Y002612D01*
X006034Y002644D02*
X006034Y002442D01*
X006034Y002644D02*
X006118Y002644D01*
X006118Y002442D01*
X006034Y002442D01*
X006034Y002476D02*
X006118Y002476D01*
X006118Y002510D02*
X006034Y002510D01*
X006034Y002544D02*
X006118Y002544D01*
X006118Y002578D02*
X006034Y002578D01*
X006034Y002612D02*
X006118Y002612D01*
X005837Y002644D02*
X005837Y002442D01*
X005837Y002644D02*
X005921Y002644D01*
X005921Y002442D01*
X005837Y002442D01*
X005837Y002476D02*
X005921Y002476D01*
X005921Y002510D02*
X005837Y002510D01*
X005837Y002544D02*
X005921Y002544D01*
X005921Y002578D02*
X005837Y002578D01*
X005837Y002612D02*
X005921Y002612D01*
X005640Y002644D02*
X005640Y002442D01*
X005640Y002644D02*
X005724Y002644D01*
X005724Y002442D01*
X005640Y002442D01*
X005640Y002476D02*
X005724Y002476D01*
X005724Y002510D02*
X005640Y002510D01*
X005640Y002544D02*
X005724Y002544D01*
X005724Y002578D02*
X005640Y002578D01*
X005640Y002612D02*
X005724Y002612D01*
X005444Y002644D02*
X005444Y002442D01*
X005444Y002644D02*
X005528Y002644D01*
X005528Y002442D01*
X005444Y002442D01*
X005444Y002476D02*
X005528Y002476D01*
X005528Y002510D02*
X005444Y002510D01*
X005444Y002544D02*
X005528Y002544D01*
X005528Y002578D02*
X005444Y002578D01*
X005444Y002612D02*
X005528Y002612D01*
X005247Y002644D02*
X005247Y002442D01*
X005247Y002644D02*
X005331Y002644D01*
X005331Y002442D01*
X005247Y002442D01*
X005247Y002476D02*
X005331Y002476D01*
X005331Y002510D02*
X005247Y002510D01*
X005247Y002544D02*
X005331Y002544D01*
X005331Y002578D02*
X005247Y002578D01*
X005247Y002612D02*
X005331Y002612D01*
X005050Y002644D02*
X005050Y002442D01*
X005050Y002644D02*
X005134Y002644D01*
X005134Y002442D01*
X005050Y002442D01*
X005050Y002476D02*
X005134Y002476D01*
X005134Y002510D02*
X005050Y002510D01*
X005050Y002544D02*
X005134Y002544D01*
X005134Y002578D02*
X005050Y002578D01*
X005050Y002612D02*
X005134Y002612D01*
X004976Y002284D02*
X004774Y002284D01*
X004774Y002368D01*
X004976Y002368D01*
X004976Y002284D01*
X004976Y002318D02*
X004774Y002318D01*
X004774Y002352D02*
X004976Y002352D01*
X004976Y002088D02*
X004774Y002088D01*
X004774Y002172D01*
X004976Y002172D01*
X004976Y002088D01*
X004976Y002122D02*
X004774Y002122D01*
X004774Y002156D02*
X004976Y002156D01*
X004976Y001891D02*
X004774Y001891D01*
X004774Y001975D01*
X004976Y001975D01*
X004976Y001891D01*
X004976Y001925D02*
X004774Y001925D01*
X004774Y001959D02*
X004976Y001959D01*
X004976Y001694D02*
X004774Y001694D01*
X004774Y001778D01*
X004976Y001778D01*
X004976Y001694D01*
X004976Y001728D02*
X004774Y001728D01*
X004774Y001762D02*
X004976Y001762D01*
X004976Y001497D02*
X004774Y001497D01*
X004774Y001581D01*
X004976Y001581D01*
X004976Y001497D01*
X004976Y001531D02*
X004774Y001531D01*
X004774Y001565D02*
X004976Y001565D01*
X004976Y001300D02*
X004774Y001300D01*
X004774Y001384D01*
X004976Y001384D01*
X004976Y001300D01*
X004976Y001334D02*
X004774Y001334D01*
X004774Y001368D02*
X004976Y001368D01*
X004976Y001103D02*
X004774Y001103D01*
X004774Y001187D01*
X004976Y001187D01*
X004976Y001103D01*
X004976Y001137D02*
X004774Y001137D01*
X004774Y001171D02*
X004976Y001171D01*
X004976Y000906D02*
X004774Y000906D01*
X004774Y000990D01*
X004976Y000990D01*
X004976Y000906D01*
X004976Y000940D02*
X004774Y000940D01*
X004774Y000974D02*
X004976Y000974D01*
X005134Y000833D02*
X005134Y000631D01*
X005050Y000631D01*
X005050Y000833D01*
X005134Y000833D01*
X005134Y000665D02*
X005050Y000665D01*
X005050Y000699D02*
X005134Y000699D01*
X005134Y000733D02*
X005050Y000733D01*
X005050Y000767D02*
X005134Y000767D01*
X005134Y000801D02*
X005050Y000801D01*
X005331Y000833D02*
X005331Y000631D01*
X005247Y000631D01*
X005247Y000833D01*
X005331Y000833D01*
X005331Y000665D02*
X005247Y000665D01*
X005247Y000699D02*
X005331Y000699D01*
X005331Y000733D02*
X005247Y000733D01*
X005247Y000767D02*
X005331Y000767D01*
X005331Y000801D02*
X005247Y000801D01*
X005528Y000833D02*
X005528Y000631D01*
X005444Y000631D01*
X005444Y000833D01*
X005528Y000833D01*
X005528Y000665D02*
X005444Y000665D01*
X005444Y000699D02*
X005528Y000699D01*
X005528Y000733D02*
X005444Y000733D01*
X005444Y000767D02*
X005528Y000767D01*
X005528Y000801D02*
X005444Y000801D01*
X005724Y000833D02*
X005724Y000631D01*
X005640Y000631D01*
X005640Y000833D01*
X005724Y000833D01*
X005724Y000665D02*
X005640Y000665D01*
X005640Y000699D02*
X005724Y000699D01*
X005724Y000733D02*
X005640Y000733D01*
X005640Y000767D02*
X005724Y000767D01*
X005724Y000801D02*
X005640Y000801D01*
X005921Y000833D02*
X005921Y000631D01*
X005837Y000631D01*
X005837Y000833D01*
X005921Y000833D01*
X005921Y000665D02*
X005837Y000665D01*
X005837Y000699D02*
X005921Y000699D01*
X005921Y000733D02*
X005837Y000733D01*
X005837Y000767D02*
X005921Y000767D01*
X005921Y000801D02*
X005837Y000801D01*
X006118Y000833D02*
X006118Y000631D01*
X006034Y000631D01*
X006034Y000833D01*
X006118Y000833D01*
X006118Y000665D02*
X006034Y000665D01*
X006034Y000699D02*
X006118Y000699D01*
X006118Y000733D02*
X006034Y000733D01*
X006034Y000767D02*
X006118Y000767D01*
X006118Y000801D02*
X006034Y000801D01*
X006315Y000833D02*
X006315Y000631D01*
X006231Y000631D01*
X006231Y000833D01*
X006315Y000833D01*
X006315Y000665D02*
X006231Y000665D01*
X006231Y000699D02*
X006315Y000699D01*
X006315Y000733D02*
X006231Y000733D01*
X006231Y000767D02*
X006315Y000767D01*
X006315Y000801D02*
X006231Y000801D01*
X006512Y000833D02*
X006512Y000631D01*
X006428Y000631D01*
X006428Y000833D01*
X006512Y000833D01*
X006512Y000665D02*
X006428Y000665D01*
X006428Y000699D02*
X006512Y000699D01*
X006512Y000733D02*
X006428Y000733D01*
X006428Y000767D02*
X006512Y000767D01*
X006512Y000801D02*
X006428Y000801D01*
X006585Y000990D02*
X006787Y000990D01*
X006787Y000906D01*
X006585Y000906D01*
X006585Y000990D01*
X006585Y000940D02*
X006787Y000940D01*
X006787Y000974D02*
X006585Y000974D01*
X006585Y001187D02*
X006787Y001187D01*
X006787Y001103D01*
X006585Y001103D01*
X006585Y001187D01*
X006585Y001137D02*
X006787Y001137D01*
X006787Y001171D02*
X006585Y001171D01*
X006585Y001384D02*
X006787Y001384D01*
X006787Y001300D01*
X006585Y001300D01*
X006585Y001384D01*
X006585Y001334D02*
X006787Y001334D01*
X006787Y001368D02*
X006585Y001368D01*
X006585Y001581D02*
X006787Y001581D01*
X006787Y001497D01*
X006585Y001497D01*
X006585Y001581D01*
X006585Y001531D02*
X006787Y001531D01*
X006787Y001565D02*
X006585Y001565D01*
X006585Y001778D02*
X006787Y001778D01*
X006787Y001694D01*
X006585Y001694D01*
X006585Y001778D01*
X006585Y001728D02*
X006787Y001728D01*
X006787Y001762D02*
X006585Y001762D01*
X006585Y001975D02*
X006787Y001975D01*
X006787Y001891D01*
X006585Y001891D01*
X006585Y001975D01*
X006585Y001925D02*
X006787Y001925D01*
X006787Y001959D02*
X006585Y001959D01*
D13*
X009601Y002417D03*
X009601Y001417D03*
X009601Y000417D03*
X009601Y003417D03*
X009601Y004417D03*
X009601Y005417D03*
D14*
X008751Y005057D03*
X007136Y005287D03*
X005561Y005047D03*
X004951Y004517D03*
X003821Y003942D03*
X003861Y002977D03*
X003861Y002467D03*
X004381Y001547D03*
X006741Y003187D03*
X007061Y003747D03*
X006421Y003747D03*
X008301Y003847D03*
X009221Y002877D03*
X008851Y002017D03*
X008576Y001567D03*
X007511Y001497D03*
D15*
X007401Y001342D01*
X007401Y001167D01*
X007182Y000948D01*
X006686Y000948D01*
X006662Y000769D02*
X006844Y000769D01*
X006853Y000778D01*
X007111Y000778D01*
X007252Y000778D01*
X007471Y000997D01*
X007471Y000997D01*
X007571Y001097D01*
X007571Y001179D01*
X007574Y001179D01*
X007691Y001228D01*
X007780Y001317D01*
X007829Y001434D01*
X007829Y001561D01*
X007814Y001597D01*
X008182Y001426D01*
X008210Y001397D01*
X008243Y001397D01*
X008273Y001384D01*
X008303Y001395D01*
X008306Y001387D01*
X008396Y001298D01*
X008512Y001249D01*
X008639Y001249D01*
X008756Y001298D01*
X008845Y001387D01*
X008894Y001504D01*
X008894Y001631D01*
X008865Y001699D01*
X008914Y001699D01*
X009031Y001748D01*
X009120Y001837D01*
X009169Y001954D01*
X009169Y002081D01*
X009120Y002198D01*
X009031Y002287D01*
X008914Y002335D01*
X008787Y002335D01*
X008671Y002287D01*
X008581Y002198D01*
X008577Y002187D01*
X008182Y002187D01*
X007860Y002229D01*
X007851Y002237D01*
X007792Y002237D01*
X007733Y002245D01*
X007723Y002237D01*
X007311Y002237D01*
X007170Y002237D01*
X006924Y001991D01*
X006943Y002023D01*
X006954Y002066D01*
X006954Y002129D01*
X006687Y002129D01*
X006687Y002130D01*
X006954Y002130D01*
X006954Y002193D01*
X006943Y002236D01*
X006924Y002268D01*
X006924Y002425D01*
X006844Y002505D01*
X006679Y002505D01*
X006679Y002543D01*
X006679Y002665D01*
X006667Y002708D01*
X006645Y002746D01*
X006614Y002777D01*
X006576Y002800D01*
X006533Y002811D01*
X006470Y002811D01*
X006470Y002543D01*
X006679Y002543D01*
X006470Y002543D01*
X006470Y002543D01*
X006470Y002543D01*
X006470Y002811D01*
X006406Y002811D01*
X006364Y002800D01*
X006331Y002781D01*
X006244Y002781D01*
X006244Y002786D01*
X006241Y002789D01*
X006241Y003726D01*
X006244Y003730D01*
X006241Y003792D01*
X006241Y003854D01*
X006237Y003857D01*
X006237Y003863D01*
X006191Y003904D01*
X006147Y003947D01*
X006142Y003947D01*
X005731Y004314D01*
X005697Y004347D01*
X007560Y004347D01*
X007987Y003921D01*
X007983Y003911D01*
X007983Y003784D01*
X008031Y003667D01*
X008121Y003578D01*
X008237Y003529D01*
X008364Y003529D01*
X008481Y003578D01*
X008570Y003667D01*
X008619Y003784D01*
X008619Y003911D01*
X008570Y004028D01*
X008481Y004117D01*
X008364Y004165D01*
X008237Y004165D01*
X008227Y004161D01*
X007701Y004687D01*
X007560Y004687D01*
X005225Y004687D01*
X005220Y004698D01*
X005131Y004787D01*
X005014Y004835D01*
X004887Y004835D01*
X004771Y004787D01*
X004681Y004698D01*
X004633Y004581D01*
X004633Y004454D01*
X004673Y004357D01*
X004587Y004357D01*
X004575Y004369D01*
X004579Y004378D01*
X004579Y004497D01*
X004534Y004606D01*
X004450Y004690D01*
X004361Y004727D01*
X004361Y004847D01*
X004575Y004847D01*
X004681Y004953D01*
X004965Y005237D01*
X005301Y005237D01*
X005291Y005228D01*
X005243Y005111D01*
X005243Y004984D01*
X005291Y004867D01*
X005381Y004778D01*
X005497Y004729D01*
X005624Y004729D01*
X005741Y004778D01*
X005830Y004867D01*
X005879Y004984D01*
X005879Y005017D01*
X006604Y005017D01*
X006869Y004819D01*
X006910Y004777D01*
X006924Y004777D01*
X006935Y004769D01*
X006993Y004777D01*
X008270Y004777D01*
X008500Y004547D01*
X008641Y004547D01*
X008761Y004547D01*
X008761Y003218D01*
X008681Y003138D01*
X008681Y002997D01*
X008681Y002757D01*
X008674Y002748D01*
X008681Y002688D01*
X008681Y002627D01*
X008689Y002619D01*
X008690Y002608D01*
X008737Y002570D01*
X008780Y002527D01*
X008791Y002527D01*
X009127Y002260D01*
X009170Y002217D01*
X009181Y002217D01*
X009190Y002211D01*
X009250Y002217D01*
X009256Y002217D01*
X009301Y002172D01*
X009581Y002172D01*
X009581Y001662D01*
X009301Y001662D01*
X009231Y001592D01*
X009231Y001243D01*
X009301Y001172D01*
X009581Y001172D01*
X009581Y000662D01*
X009301Y000662D01*
X009231Y000592D01*
X009231Y000387D01*
X008079Y000387D01*
X008079Y000790D01*
X008009Y000860D01*
X007513Y000860D01*
X007443Y000790D01*
X007443Y000712D01*
X006712Y000712D01*
X006662Y000769D01*
X006678Y000751D02*
X007443Y000751D01*
X007502Y000850D02*
X007324Y000850D01*
X007422Y000948D02*
X009581Y000948D01*
X009581Y001047D02*
X007521Y001047D01*
X007571Y001146D02*
X009581Y001146D01*
X009231Y001244D02*
X007707Y001244D01*
X007791Y001343D02*
X008351Y001343D01*
X008149Y001441D02*
X007829Y001441D01*
X007829Y001540D02*
X007937Y001540D01*
X008281Y001567D02*
X008576Y001567D01*
X008868Y001441D02*
X009231Y001441D01*
X009231Y001343D02*
X008801Y001343D01*
X008894Y001540D02*
X009231Y001540D01*
X009277Y001638D02*
X008891Y001638D01*
X009005Y001737D02*
X009581Y001737D01*
X009581Y001835D02*
X009119Y001835D01*
X009160Y001934D02*
X009581Y001934D01*
X009581Y002032D02*
X009169Y002032D01*
X009148Y002131D02*
X009581Y002131D01*
X009551Y002387D02*
X009241Y002387D01*
X008851Y002697D01*
X008851Y003067D01*
X008931Y003147D01*
X008931Y004647D01*
X008861Y004717D01*
X008571Y004717D01*
X008341Y004947D01*
X006981Y004947D01*
X006661Y005187D01*
X005701Y005187D01*
X005561Y005047D01*
X005274Y005186D02*
X004914Y005186D01*
X004815Y005087D02*
X005243Y005087D01*
X005243Y004989D02*
X004717Y004989D01*
X004618Y004890D02*
X005282Y004890D01*
X005367Y004792D02*
X005120Y004792D01*
X005222Y004693D02*
X008355Y004693D01*
X008453Y004595D02*
X007794Y004595D01*
X007893Y004496D02*
X008761Y004496D01*
X008761Y004397D02*
X007991Y004397D01*
X008090Y004299D02*
X008761Y004299D01*
X008761Y004200D02*
X008188Y004200D01*
X008496Y004102D02*
X008761Y004102D01*
X008761Y004003D02*
X008581Y004003D01*
X008619Y003905D02*
X008761Y003905D01*
X008761Y003806D02*
X008619Y003806D01*
X008587Y003708D02*
X008761Y003708D01*
X008761Y003609D02*
X008512Y003609D01*
X008761Y003511D02*
X006241Y003511D01*
X006241Y003609D02*
X008089Y003609D01*
X008014Y003708D02*
X006241Y003708D01*
X006241Y003806D02*
X007983Y003806D01*
X007983Y003905D02*
X006190Y003905D01*
X006079Y004003D02*
X007904Y004003D01*
X007806Y004102D02*
X005968Y004102D01*
X005858Y004200D02*
X007707Y004200D01*
X007609Y004299D02*
X005747Y004299D01*
X005421Y003887D02*
X003866Y003887D01*
X003821Y003942D01*
X004361Y003717D02*
X005350Y003717D01*
X005489Y003579D01*
X005389Y003579D01*
X005389Y003281D01*
X005292Y003281D01*
X005292Y003579D01*
X005104Y003579D01*
X005066Y003569D01*
X005032Y003549D01*
X005004Y003521D01*
X004990Y003497D01*
X004937Y003549D01*
X004405Y003549D01*
X004361Y003505D01*
X004361Y003717D01*
X004361Y003708D02*
X005360Y003708D01*
X005459Y003609D02*
X004361Y003609D01*
X004361Y003511D02*
X004366Y003511D01*
X004976Y003511D02*
X004998Y003511D01*
X005231Y003587D02*
X005340Y003388D01*
X005340Y003232D01*
X005092Y002984D01*
X005092Y002543D01*
X005092Y002543D01*
X005092Y002811D01*
X005155Y002811D01*
X005198Y002800D01*
X005230Y002781D01*
X005316Y002781D01*
X005316Y002803D01*
X005399Y002886D01*
X005389Y002886D01*
X005389Y003184D01*
X005292Y003184D01*
X005292Y002886D01*
X005104Y002886D01*
X005066Y002896D01*
X005032Y002916D01*
X005004Y002943D01*
X004990Y002968D01*
X004961Y002939D01*
X004961Y002785D01*
X004986Y002800D01*
X005028Y002811D01*
X005092Y002811D01*
X005092Y002543D01*
X005092Y002624D02*
X005092Y002624D01*
X005092Y002722D02*
X005092Y002722D01*
X004961Y002821D02*
X005334Y002821D01*
X005486Y002732D02*
X005741Y002987D01*
X005741Y003567D01*
X005421Y003887D01*
X005389Y003511D02*
X005292Y003511D01*
X005292Y003412D02*
X005389Y003412D01*
X005389Y003314D02*
X005292Y003314D01*
X005292Y003116D02*
X005389Y003116D01*
X005389Y003018D02*
X005292Y003018D01*
X005292Y002919D02*
X005389Y002919D01*
X005486Y002732D02*
X005486Y002543D01*
X005682Y002543D02*
X005682Y002166D01*
X005879Y001969D01*
X005879Y001349D01*
X006231Y001187D01*
X005879Y001349D02*
X005879Y000732D01*
X006273Y000732D02*
X006273Y000480D01*
X006181Y000387D01*
X004901Y000387D01*
X004381Y000907D01*
X004381Y001547D01*
X004875Y001933D02*
X003726Y001933D01*
X003501Y002167D01*
X003501Y002847D01*
X003861Y002977D01*
X003861Y002467D02*
X004319Y002130D01*
X004875Y002130D01*
X005879Y001969D02*
X006040Y002130D01*
X006679Y002525D02*
X008794Y002525D01*
X008918Y002427D02*
X006923Y002427D01*
X006924Y002328D02*
X008770Y002328D01*
X008932Y002328D02*
X009042Y002328D01*
X009088Y002230D02*
X009158Y002230D01*
X008851Y002017D02*
X008171Y002017D01*
X007781Y002067D01*
X007241Y002067D01*
X006981Y001807D01*
X006981Y001427D01*
X006896Y001342D01*
X006686Y001342D01*
X006686Y001145D02*
X007054Y001145D01*
X007176Y001267D01*
X007176Y001702D01*
X007336Y001862D01*
X007646Y001862D01*
X008281Y001567D01*
X008613Y002230D02*
X007859Y002230D01*
X007163Y002230D02*
X006945Y002230D01*
X006954Y002131D02*
X007064Y002131D01*
X006965Y002032D02*
X006945Y002032D01*
X006679Y002624D02*
X008684Y002624D01*
X008677Y002722D02*
X006659Y002722D01*
X006470Y002722D02*
X006470Y002722D01*
X006470Y002624D02*
X006470Y002624D01*
X006241Y002821D02*
X008681Y002821D01*
X008681Y002919D02*
X006241Y002919D01*
X006241Y003018D02*
X008681Y003018D01*
X008681Y003116D02*
X006241Y003116D01*
X006241Y003215D02*
X008758Y003215D01*
X008761Y003314D02*
X006241Y003314D01*
X006241Y003412D02*
X008761Y003412D01*
X009141Y003027D02*
X009141Y004867D01*
X008951Y005057D01*
X008751Y005057D01*
X007631Y004517D02*
X008301Y003847D01*
X007631Y004517D02*
X004951Y004517D01*
X004656Y004397D02*
X004579Y004397D01*
X004579Y004496D02*
X004633Y004496D01*
X004638Y004595D02*
X004539Y004595D01*
X004443Y004693D02*
X004679Y004693D01*
X004782Y004792D02*
X004361Y004792D01*
X005755Y004792D02*
X006896Y004792D01*
X006774Y004890D02*
X005840Y004890D01*
X005879Y004989D02*
X006642Y004989D01*
X009141Y003027D02*
X009221Y002877D01*
X009551Y002387D02*
X009601Y002417D01*
X009581Y000850D02*
X008019Y000850D01*
X008079Y000751D02*
X009581Y000751D01*
X009292Y000653D02*
X008079Y000653D01*
X008079Y000554D02*
X009231Y000554D01*
X009231Y000456D02*
X008079Y000456D01*
X007761Y000542D02*
X006634Y000542D01*
X006470Y000732D01*
X005028Y002919D02*
X004961Y002919D01*
D16*
X003301Y004667D03*
X009061Y001107D03*
X007761Y000542D03*
X003821Y000947D03*
D17*
X003231Y001547D01*
X003231Y003267D01*
X003621Y003347D01*
X003301Y003347D01*
X002911Y003737D01*
X002911Y004937D01*
X003001Y005027D01*
X004501Y005027D01*
X004891Y005417D01*
X007006Y005417D01*
X007136Y005287D01*
X007266Y005417D01*
X009601Y005417D01*
X009601Y004417D01*
X005231Y003587D02*
X003601Y003587D01*
X003301Y003887D01*
X003301Y004667D01*
X003621Y003347D02*
X004181Y003347D01*
X004296Y003232D01*
X004671Y003232D01*
X004781Y003123D01*
X004781Y002421D01*
X004875Y002326D01*
D18*
X006040Y002130D02*
X006686Y002130D01*
D19*
X006231Y001187D03*
X004281Y004437D03*
X003841Y004427D03*
D20*
X003511Y004787D02*
X003301Y004667D01*
X003511Y004787D02*
X004531Y004787D01*
D21*
X004281Y004437D02*
X004521Y004197D01*
X005621Y004197D01*
X006081Y003787D01*
X006081Y002727D01*
X006076Y002633D01*
X006076Y002543D01*
X005879Y002543D02*
X005879Y002756D01*
X005921Y002877D01*
X005921Y003687D01*
X005531Y004047D01*
X004201Y004047D01*
X003841Y004427D01*
M02*
