G75*
G70*
%OFA0B0*%
%FSLAX24Y24*%
%IPPOS*%
%LPD*%
%AMOC8*
5,1,8,0,0,1.08239X$1,22.5*
%
%ADD10R,0.2953X0.0591*%
%ADD11R,0.2559X0.0394*%
%ADD12R,0.0315X0.0315*%
%ADD13R,0.0394X0.0433*%
%ADD14R,0.0433X0.0394*%
%ADD15R,0.1575X0.1575*%
%ADD16C,0.0118*%
%ADD17R,0.0500X0.0250*%
D10*
X002022Y001539D03*
X002022Y004295D03*
D11*
X002219Y003311D03*
X002219Y002524D03*
D12*
X004596Y002663D03*
X004676Y003062D03*
X004676Y003653D03*
X004596Y002072D03*
X006566Y001923D03*
X006566Y001332D03*
D13*
X005755Y000922D03*
X005086Y000922D03*
X005256Y001847D03*
X005925Y001847D03*
D14*
X007066Y000952D03*
X007735Y000952D03*
D15*
X006731Y003517D03*
D16*
X007774Y003419D02*
X007932Y003419D01*
X007932Y003616D02*
X007774Y003616D01*
X007774Y003813D02*
X007932Y003813D01*
X007932Y004010D02*
X007774Y004010D01*
X007774Y004206D02*
X007932Y004206D01*
X007932Y004403D02*
X007774Y004403D01*
X007617Y004560D02*
X007617Y004718D01*
X007420Y004718D02*
X007420Y004560D01*
X007223Y004560D02*
X007223Y004718D01*
X007026Y004718D02*
X007026Y004560D01*
X006829Y004560D02*
X006829Y004718D01*
X006632Y004718D02*
X006632Y004560D01*
X006436Y004560D02*
X006436Y004718D01*
X006239Y004718D02*
X006239Y004560D01*
X006042Y004560D02*
X006042Y004718D01*
X005845Y004718D02*
X005845Y004560D01*
X005688Y004403D02*
X005530Y004403D01*
X005530Y004206D02*
X005688Y004206D01*
X005688Y004010D02*
X005530Y004010D01*
X005530Y003813D02*
X005688Y003813D01*
X005688Y003616D02*
X005530Y003616D01*
X005530Y003419D02*
X005688Y003419D01*
X005688Y003222D02*
X005530Y003222D01*
X005530Y003025D02*
X005688Y003025D01*
X005688Y002828D02*
X005530Y002828D01*
X005530Y002632D02*
X005688Y002632D01*
X005845Y002474D02*
X005845Y002316D01*
X006042Y002316D02*
X006042Y002474D01*
X006239Y002474D02*
X006239Y002316D01*
X006436Y002316D02*
X006436Y002474D01*
X006632Y002474D02*
X006632Y002316D01*
X006829Y002316D02*
X006829Y002474D01*
X007026Y002474D02*
X007026Y002316D01*
X007223Y002316D02*
X007223Y002474D01*
X007420Y002474D02*
X007420Y002316D01*
X007617Y002316D02*
X007617Y002474D01*
X007774Y002632D02*
X007932Y002632D01*
X007932Y002828D02*
X007774Y002828D01*
X007774Y003025D02*
X007932Y003025D01*
X007932Y003222D02*
X007774Y003222D01*
D17*
X009601Y003417D03*
X009601Y002417D03*
X009601Y001417D03*
X009601Y000417D03*
X009601Y004417D03*
X009601Y005417D03*
M02*
