G75*
G70*
%OFA0B0*%
%FSLAX24Y24*%
%IPPOS*%
%LPD*%
%AMOC8*
5,1,8,0,0,1.08239X$1,22.5*
%
%ADD10C,0.0081*%
%ADD11C,0.0197*%
%ADD12C,0.0040*%
%ADD13C,0.0082*%
%ADD14C,0.0476*%
%ADD15R,0.0476X0.0476*%
%ADD16C,0.0437*%
D10*
X004455Y003429D02*
X004887Y003429D01*
X004887Y003035D01*
X004455Y003035D01*
X004455Y003429D01*
X004455Y003115D02*
X004887Y003115D01*
X004887Y003195D02*
X004455Y003195D01*
X004455Y003275D02*
X004887Y003275D01*
X004887Y003355D02*
X004455Y003355D01*
X005124Y003429D02*
X005556Y003429D01*
X005556Y003035D01*
X005124Y003035D01*
X005124Y003429D01*
X005124Y003115D02*
X005556Y003115D01*
X005556Y003195D02*
X005124Y003195D01*
X005124Y003275D02*
X005556Y003275D01*
X005556Y003355D02*
X005124Y003355D01*
D11*
X005259Y002159D02*
X005259Y001116D01*
X006302Y001116D01*
X006302Y002159D01*
X005259Y002159D01*
X005259Y002012D02*
X006302Y002012D01*
X006302Y001817D02*
X005259Y001817D01*
X005259Y001621D02*
X006302Y001621D01*
X006302Y001426D02*
X005259Y001426D01*
X005259Y001231D02*
X006302Y001231D01*
D12*
X006588Y001185D02*
X006588Y001106D01*
X006785Y001106D01*
X006785Y001185D01*
X006588Y001185D01*
X006588Y001171D02*
X006785Y001171D01*
X006785Y001132D02*
X006588Y001132D01*
X006588Y000988D02*
X006785Y000988D01*
X006785Y000909D01*
X006608Y000909D01*
X006588Y000929D01*
X006588Y000988D01*
X006588Y000978D02*
X006785Y000978D01*
X006785Y000939D02*
X006588Y000939D01*
X006489Y000830D02*
X006430Y000830D01*
X006430Y000633D01*
X006509Y000633D01*
X006509Y000811D01*
X006489Y000830D01*
X006496Y000824D02*
X006430Y000824D01*
X006430Y000785D02*
X006509Y000785D01*
X006509Y000747D02*
X006430Y000747D01*
X006430Y000708D02*
X006509Y000708D01*
X006509Y000670D02*
X006430Y000670D01*
X006312Y000670D02*
X006234Y000670D01*
X006234Y000633D02*
X006312Y000633D01*
X006312Y000830D01*
X006234Y000830D01*
X006234Y000633D01*
X006234Y000708D02*
X006312Y000708D01*
X006312Y000747D02*
X006234Y000747D01*
X006234Y000785D02*
X006312Y000785D01*
X006312Y000824D02*
X006234Y000824D01*
X006115Y000824D02*
X006037Y000824D01*
X006037Y000830D02*
X006037Y000633D01*
X006115Y000633D01*
X006115Y000830D01*
X006037Y000830D01*
X006037Y000785D02*
X006115Y000785D01*
X006115Y000747D02*
X006037Y000747D01*
X006037Y000708D02*
X006115Y000708D01*
X006115Y000670D02*
X006037Y000670D01*
X005919Y000670D02*
X005840Y000670D01*
X005840Y000633D02*
X005919Y000633D01*
X005919Y000830D01*
X005840Y000830D01*
X005840Y000633D01*
X005722Y000633D02*
X005643Y000633D01*
X005643Y000830D01*
X005722Y000830D01*
X005722Y000633D01*
X005722Y000670D02*
X005643Y000670D01*
X005643Y000708D02*
X005722Y000708D01*
X005722Y000747D02*
X005643Y000747D01*
X005643Y000785D02*
X005722Y000785D01*
X005722Y000824D02*
X005643Y000824D01*
X005525Y000824D02*
X005446Y000824D01*
X005446Y000830D02*
X005446Y000633D01*
X005525Y000633D01*
X005525Y000830D01*
X005446Y000830D01*
X005446Y000785D02*
X005525Y000785D01*
X005525Y000747D02*
X005446Y000747D01*
X005446Y000708D02*
X005525Y000708D01*
X005525Y000670D02*
X005446Y000670D01*
X005328Y000670D02*
X005249Y000670D01*
X005249Y000633D02*
X005328Y000633D01*
X005328Y000830D01*
X005249Y000830D01*
X005249Y000633D01*
X005131Y000633D02*
X005052Y000633D01*
X005052Y000811D01*
X005072Y000830D01*
X005131Y000830D01*
X005131Y000633D01*
X005131Y000670D02*
X005052Y000670D01*
X005052Y000708D02*
X005131Y000708D01*
X005131Y000747D02*
X005052Y000747D01*
X005052Y000785D02*
X005131Y000785D01*
X005131Y000824D02*
X005066Y000824D01*
X004974Y000929D02*
X004974Y000988D01*
X004777Y000988D01*
X004777Y000909D01*
X004954Y000909D01*
X004974Y000929D01*
X004974Y000939D02*
X004777Y000939D01*
X004777Y000978D02*
X004974Y000978D01*
X004974Y001106D02*
X004777Y001106D01*
X004777Y001185D01*
X004974Y001185D01*
X004974Y001106D01*
X004974Y001132D02*
X004777Y001132D01*
X004777Y001171D02*
X004974Y001171D01*
X004974Y001303D02*
X004777Y001303D01*
X004777Y001381D01*
X004974Y001381D01*
X004974Y001303D01*
X004974Y001325D02*
X004777Y001325D01*
X004777Y001363D02*
X004974Y001363D01*
X004974Y001500D02*
X004777Y001500D01*
X004777Y001578D01*
X004974Y001578D01*
X004974Y001500D01*
X004974Y001517D02*
X004777Y001517D01*
X004777Y001556D02*
X004974Y001556D01*
X004974Y001696D02*
X004777Y001696D01*
X004777Y001775D01*
X004974Y001775D01*
X004974Y001696D01*
X004974Y001710D02*
X004777Y001710D01*
X004777Y001749D02*
X004974Y001749D01*
X004974Y001893D02*
X004777Y001893D01*
X004777Y001972D01*
X004974Y001972D01*
X004974Y001893D01*
X004974Y001903D02*
X004777Y001903D01*
X004777Y001941D02*
X004974Y001941D01*
X004974Y002090D02*
X004777Y002090D01*
X004777Y002169D01*
X004974Y002169D01*
X004974Y002090D01*
X004974Y002096D02*
X004777Y002096D01*
X004777Y002134D02*
X004974Y002134D01*
X004974Y002287D02*
X004777Y002287D01*
X004777Y002366D01*
X004954Y002366D01*
X004974Y002346D01*
X004974Y002287D01*
X004974Y002288D02*
X004777Y002288D01*
X004777Y002327D02*
X004974Y002327D01*
X004954Y002365D02*
X004777Y002365D01*
X005052Y002464D02*
X005072Y002444D01*
X005131Y002444D01*
X005131Y002641D01*
X005052Y002641D01*
X005052Y002464D01*
X005052Y002481D02*
X005131Y002481D01*
X005131Y002520D02*
X005052Y002520D01*
X005052Y002558D02*
X005131Y002558D01*
X005131Y002597D02*
X005052Y002597D01*
X005052Y002635D02*
X005131Y002635D01*
X005249Y002635D02*
X005328Y002635D01*
X005328Y002641D02*
X005249Y002641D01*
X005249Y002444D01*
X005328Y002444D01*
X005328Y002641D01*
X005328Y002597D02*
X005249Y002597D01*
X005249Y002558D02*
X005328Y002558D01*
X005328Y002520D02*
X005249Y002520D01*
X005249Y002481D02*
X005328Y002481D01*
X005446Y002481D02*
X005525Y002481D01*
X005525Y002444D02*
X005446Y002444D01*
X005446Y002641D01*
X005525Y002641D01*
X005525Y002444D01*
X005525Y002520D02*
X005446Y002520D01*
X005446Y002558D02*
X005525Y002558D01*
X005525Y002597D02*
X005446Y002597D01*
X005446Y002635D02*
X005525Y002635D01*
X005643Y002635D02*
X005722Y002635D01*
X005722Y002641D02*
X005643Y002641D01*
X005643Y002444D01*
X005722Y002444D01*
X005722Y002641D01*
X005722Y002597D02*
X005643Y002597D01*
X005643Y002558D02*
X005722Y002558D01*
X005722Y002520D02*
X005643Y002520D01*
X005643Y002481D02*
X005722Y002481D01*
X005840Y002481D02*
X005919Y002481D01*
X005919Y002444D02*
X005919Y002641D01*
X005840Y002641D01*
X005840Y002444D01*
X005919Y002444D01*
X005919Y002520D02*
X005840Y002520D01*
X005840Y002558D02*
X005919Y002558D01*
X005919Y002597D02*
X005840Y002597D01*
X005840Y002635D02*
X005919Y002635D01*
X006037Y002635D02*
X006115Y002635D01*
X006115Y002641D02*
X006037Y002641D01*
X006037Y002444D01*
X006115Y002444D01*
X006115Y002641D01*
X006115Y002597D02*
X006037Y002597D01*
X006037Y002558D02*
X006115Y002558D01*
X006115Y002520D02*
X006037Y002520D01*
X006037Y002481D02*
X006115Y002481D01*
X006234Y002481D02*
X006312Y002481D01*
X006312Y002444D02*
X006312Y002641D01*
X006234Y002641D01*
X006234Y002444D01*
X006312Y002444D01*
X006312Y002520D02*
X006234Y002520D01*
X006234Y002558D02*
X006312Y002558D01*
X006312Y002597D02*
X006234Y002597D01*
X006234Y002635D02*
X006312Y002635D01*
X006430Y002635D02*
X006509Y002635D01*
X006509Y002641D02*
X006430Y002641D01*
X006430Y002444D01*
X006489Y002444D01*
X006509Y002464D01*
X006509Y002641D01*
X006509Y002597D02*
X006430Y002597D01*
X006430Y002558D02*
X006509Y002558D01*
X006509Y002520D02*
X006430Y002520D01*
X006430Y002481D02*
X006509Y002481D01*
X006608Y002366D02*
X006588Y002346D01*
X006588Y002287D01*
X006785Y002287D01*
X006785Y002366D01*
X006608Y002366D01*
X006607Y002365D02*
X006785Y002365D01*
X006785Y002327D02*
X006588Y002327D01*
X006588Y002288D02*
X006785Y002288D01*
X006785Y002169D02*
X006588Y002169D01*
X006588Y002090D01*
X006785Y002090D01*
X006785Y002169D01*
X006785Y002134D02*
X006588Y002134D01*
X006588Y002096D02*
X006785Y002096D01*
X006785Y001972D02*
X006588Y001972D01*
X006588Y001893D01*
X006785Y001893D01*
X006785Y001972D01*
X006785Y001941D02*
X006588Y001941D01*
X006588Y001903D02*
X006785Y001903D01*
X006785Y001775D02*
X006588Y001775D01*
X006588Y001696D01*
X006785Y001696D01*
X006785Y001775D01*
X006785Y001749D02*
X006588Y001749D01*
X006588Y001710D02*
X006785Y001710D01*
X006785Y001578D02*
X006588Y001578D01*
X006588Y001500D01*
X006785Y001500D01*
X006785Y001578D01*
X006785Y001556D02*
X006588Y001556D01*
X006588Y001517D02*
X006785Y001517D01*
X006785Y001381D02*
X006588Y001381D01*
X006588Y001303D01*
X006785Y001303D01*
X006785Y001381D01*
X006785Y001363D02*
X006588Y001363D01*
X006588Y001325D02*
X006785Y001325D01*
X005919Y000824D02*
X005840Y000824D01*
X005840Y000785D02*
X005919Y000785D01*
X005919Y000747D02*
X005840Y000747D01*
X005840Y000708D02*
X005919Y000708D01*
X005328Y000708D02*
X005249Y000708D01*
X005249Y000747D02*
X005328Y000747D01*
X005328Y000785D02*
X005249Y000785D01*
X005249Y000824D02*
X005328Y000824D01*
D13*
X009352Y000293D02*
X009850Y000293D01*
X009352Y000293D02*
X009352Y000541D01*
X009850Y000541D01*
X009850Y000293D01*
X009850Y000374D02*
X009352Y000374D01*
X009352Y000455D02*
X009850Y000455D01*
X009850Y000536D02*
X009352Y000536D01*
X009352Y001293D02*
X009850Y001293D01*
X009352Y001293D02*
X009352Y001541D01*
X009850Y001541D01*
X009850Y001293D01*
X009850Y001374D02*
X009352Y001374D01*
X009352Y001455D02*
X009850Y001455D01*
X009850Y001536D02*
X009352Y001536D01*
X009352Y002293D02*
X009850Y002293D01*
X009352Y002293D02*
X009352Y002541D01*
X009850Y002541D01*
X009850Y002293D01*
X009850Y002374D02*
X009352Y002374D01*
X009352Y002455D02*
X009850Y002455D01*
X009850Y002536D02*
X009352Y002536D01*
X009352Y003293D02*
X009850Y003293D01*
X009352Y003293D02*
X009352Y003541D01*
X009850Y003541D01*
X009850Y003293D01*
X009850Y003374D02*
X009352Y003374D01*
X009352Y003455D02*
X009850Y003455D01*
X009850Y003536D02*
X009352Y003536D01*
X009352Y004293D02*
X009850Y004293D01*
X009352Y004293D02*
X009352Y004541D01*
X009850Y004541D01*
X009850Y004293D01*
X009850Y004374D02*
X009352Y004374D01*
X009352Y004455D02*
X009850Y004455D01*
X009850Y004536D02*
X009352Y004536D01*
X009352Y005293D02*
X009850Y005293D01*
X009352Y005293D02*
X009352Y005541D01*
X009850Y005541D01*
X009850Y005293D01*
X009850Y005374D02*
X009352Y005374D01*
X009352Y005455D02*
X009850Y005455D01*
X009850Y005536D02*
X009352Y005536D01*
D14*
X008751Y005057D03*
X007136Y005287D03*
X005561Y005047D03*
X004951Y004517D03*
X003821Y003942D03*
X003861Y002977D03*
X003861Y002467D03*
X004381Y001547D03*
X006741Y003187D03*
X007061Y003747D03*
X006421Y003747D03*
X008301Y003847D03*
X009221Y002877D03*
X008851Y002017D03*
X008576Y001567D03*
X007511Y001497D03*
D15*
X003821Y000947D03*
X007761Y000542D03*
X009061Y001107D03*
X003301Y004667D03*
D16*
X003841Y004427D03*
X004281Y004437D03*
X006231Y001187D03*
M02*
