G75*
G70*
%OFA0B0*%
%FSLAX24Y24*%
%IPPOS*%
%LPD*%
%AMOC8*
5,1,8,0,0,1.08239X$1,22.5*
%
%ADD10C,0.0000*%
%ADD11R,0.2953X0.0591*%
%ADD12R,0.2559X0.0394*%
%ADD13R,0.0315X0.0315*%
%ADD14R,0.0394X0.0433*%
%ADD15R,0.0433X0.0394*%
%ADD16R,0.1575X0.1575*%
%ADD17C,0.0118*%
%ADD18R,0.0500X0.0250*%
%ADD19C,0.0100*%
%ADD20C,0.0396*%
%ADD21C,0.0120*%
%ADD22R,0.0396X0.0396*%
%ADD23C,0.0160*%
%ADD24C,0.0080*%
%ADD25C,0.0357*%
D10*
X000101Y000542D02*
X000101Y005292D01*
X004351Y005292D01*
X004351Y005667D01*
X010101Y005667D01*
X010101Y000167D01*
X004351Y000167D01*
X004351Y000542D01*
X000101Y000542D01*
D11*
X002022Y001539D03*
X002022Y004295D03*
D12*
X002219Y003311D03*
X002219Y002524D03*
D13*
X004596Y002663D03*
X004676Y003062D03*
X004676Y003653D03*
X004596Y002072D03*
X006566Y001923D03*
X006566Y001332D03*
D14*
X005755Y000922D03*
X005086Y000922D03*
X005256Y001847D03*
X005925Y001847D03*
D15*
X007066Y000952D03*
X007735Y000952D03*
D16*
X006731Y003517D03*
D17*
X007774Y003419D02*
X007932Y003419D01*
X007932Y003616D02*
X007774Y003616D01*
X007774Y003813D02*
X007932Y003813D01*
X007932Y004010D02*
X007774Y004010D01*
X007774Y004206D02*
X007932Y004206D01*
X007932Y004403D02*
X007774Y004403D01*
X007617Y004560D02*
X007617Y004718D01*
X007420Y004718D02*
X007420Y004560D01*
X007223Y004560D02*
X007223Y004718D01*
X007026Y004718D02*
X007026Y004560D01*
X006829Y004560D02*
X006829Y004718D01*
X006632Y004718D02*
X006632Y004560D01*
X006436Y004560D02*
X006436Y004718D01*
X006239Y004718D02*
X006239Y004560D01*
X006042Y004560D02*
X006042Y004718D01*
X005845Y004718D02*
X005845Y004560D01*
X005688Y004403D02*
X005530Y004403D01*
X005530Y004206D02*
X005688Y004206D01*
X005688Y004010D02*
X005530Y004010D01*
X005530Y003813D02*
X005688Y003813D01*
X005688Y003616D02*
X005530Y003616D01*
X005530Y003419D02*
X005688Y003419D01*
X005688Y003222D02*
X005530Y003222D01*
X005530Y003025D02*
X005688Y003025D01*
X005688Y002828D02*
X005530Y002828D01*
X005530Y002632D02*
X005688Y002632D01*
X005845Y002474D02*
X005845Y002316D01*
X006042Y002316D02*
X006042Y002474D01*
X006239Y002474D02*
X006239Y002316D01*
X006436Y002316D02*
X006436Y002474D01*
X006632Y002474D02*
X006632Y002316D01*
X006829Y002316D02*
X006829Y002474D01*
X007026Y002474D02*
X007026Y002316D01*
X007223Y002316D02*
X007223Y002474D01*
X007420Y002474D02*
X007420Y002316D01*
X007617Y002316D02*
X007617Y002474D01*
X007774Y002632D02*
X007932Y002632D01*
X007932Y002828D02*
X007774Y002828D01*
X007774Y003025D02*
X007932Y003025D01*
X007932Y003222D02*
X007774Y003222D01*
D18*
X009601Y003417D03*
X009601Y002417D03*
X009601Y001417D03*
X009601Y000417D03*
X009601Y004417D03*
X009601Y005417D03*
D19*
X009601Y005327D01*
X008913Y004639D01*
X007617Y004639D01*
X007420Y004639D02*
X007420Y004856D01*
X007621Y005057D01*
X008751Y005057D01*
X009591Y005427D02*
X009601Y005417D01*
X009591Y005427D02*
X009701Y005427D01*
X009535Y004483D02*
X009601Y004417D01*
X009587Y004403D01*
X007853Y004403D01*
X007853Y004206D02*
X008812Y004206D01*
X009601Y003417D01*
X009591Y003427D01*
X008661Y003197D02*
X008301Y003557D01*
X008301Y003847D01*
X008139Y004010D01*
X007853Y004010D01*
X007223Y004010D02*
X006731Y003517D01*
X007026Y003222D01*
X007451Y003222D01*
X007853Y003222D01*
X007853Y003025D02*
X008023Y003025D01*
X008181Y002867D01*
X008181Y001347D01*
X009061Y000467D01*
X009551Y000467D01*
X009601Y000417D01*
X008576Y001567D02*
X008421Y001802D01*
X008421Y003107D01*
X008109Y003419D01*
X007853Y003419D01*
X008661Y003197D02*
X008661Y002287D01*
X008851Y002017D01*
X009591Y002417D02*
X009601Y002417D01*
X009601Y002487D01*
X009221Y002877D01*
X007420Y002395D02*
X007223Y002395D01*
X007026Y002395D02*
X007026Y002177D01*
X007511Y001497D01*
X006566Y001923D02*
X006001Y001923D01*
X005925Y001847D01*
X005591Y001517D02*
X005461Y001387D01*
X004931Y001387D01*
X004931Y002167D01*
X005131Y002387D01*
X005131Y003457D01*
X004921Y004067D01*
X004811Y004147D01*
X004611Y004347D01*
X004611Y004717D01*
X004761Y004867D01*
X005141Y004867D01*
X005321Y004707D01*
X005321Y004147D01*
X005399Y004010D01*
X005609Y004010D01*
X005276Y003813D02*
X005221Y003907D01*
X005111Y004117D01*
X005111Y004357D01*
X004951Y004517D01*
X004941Y004507D01*
X005561Y005047D02*
X005721Y004967D01*
X006711Y004967D01*
X006829Y004859D01*
X006829Y004639D01*
X007223Y004639D02*
X007223Y004010D01*
X005609Y003813D02*
X005276Y003813D01*
X004211Y003227D02*
X003821Y003942D01*
X003621Y003267D02*
X002263Y003267D01*
X002219Y003311D01*
X002265Y002477D02*
X003531Y002477D01*
X003861Y002467D01*
X004211Y002267D02*
X004211Y003227D01*
X003861Y003027D02*
X003861Y002977D01*
X003861Y003027D02*
X003621Y003267D01*
X004211Y002267D02*
X003493Y001539D01*
X002022Y001539D01*
X004381Y001547D02*
X004541Y001387D01*
X004931Y001387D01*
X005591Y001517D02*
X005591Y002614D01*
X005609Y002632D01*
X005382Y002828D02*
X005331Y002777D01*
X005331Y001922D01*
X005256Y001847D01*
X005755Y000922D02*
X005755Y000602D01*
X005701Y000547D01*
X005609Y002828D02*
X005382Y002828D01*
D20*
X006741Y003187D03*
X007061Y003747D03*
X006421Y003747D03*
X004951Y004517D03*
X005561Y005047D03*
X007136Y005287D03*
X008751Y005057D03*
X008301Y003847D03*
X009221Y002877D03*
X008851Y002017D03*
X008576Y001567D03*
X007511Y001497D03*
X004381Y001547D03*
X003861Y002467D03*
X003861Y002977D03*
X003821Y003942D03*
D21*
X007026Y004639D02*
X007026Y005017D01*
X007136Y005287D01*
X007223Y002395D02*
X007381Y002237D01*
X007420Y002158D02*
X007881Y001687D01*
X007881Y001078D01*
X007735Y000952D01*
X007761Y000927D01*
X007761Y000542D01*
X007756Y000547D01*
X005701Y000547D01*
X004801Y000547D01*
X004491Y000947D01*
X003821Y000947D01*
X007420Y002158D02*
X007420Y002395D01*
D22*
X009061Y001107D03*
X007761Y000542D03*
X003821Y000947D03*
X003301Y004667D03*
D23*
X002114Y004387D01*
X002022Y004295D01*
X002219Y003311D02*
X002223Y003307D01*
X002219Y002524D02*
X002265Y002477D01*
X002225Y002517D02*
X002219Y002524D01*
X006231Y001187D02*
X006566Y001332D01*
X006946Y000952D01*
X007066Y000952D01*
X009061Y001107D02*
X009371Y001417D01*
X009601Y001417D01*
D24*
X007853Y002632D02*
X007697Y002632D01*
X007451Y002877D01*
X007451Y003222D01*
X007026Y003222D02*
X006776Y003222D01*
X006741Y003187D01*
X007061Y003747D02*
X007223Y003910D01*
X007223Y004010D01*
X004881Y002927D02*
X004881Y002427D01*
X004596Y002072D01*
X004381Y002067D01*
X004061Y001727D01*
X004061Y001377D01*
X004221Y001187D01*
X004821Y001187D01*
X005086Y000922D01*
X004596Y002663D02*
X004396Y002823D01*
X004391Y002857D01*
X004391Y003866D01*
X003841Y004427D01*
X004281Y004437D02*
X004676Y003827D01*
X004676Y003653D01*
X004676Y003062D02*
X004726Y003062D01*
X004881Y002927D01*
D25*
X004281Y004437D03*
X003841Y004427D03*
X006231Y001187D03*
M02*
