G75*
G70*
%OFA0B0*%
%FSLAX24Y24*%
%IPPOS*%
%LPD*%
%AMOC8*
5,1,8,0,0,1.08239X$1,22.5*
%
%ADD10C,0.0000*%
%ADD11C,0.0020*%
%ADD12C,0.0010*%
%ADD13C,0.0080*%
%ADD14R,0.0059X0.0118*%
%ADD15R,0.0118X0.0118*%
%ADD16C,0.0050*%
%ADD17C,0.0030*%
%ADD18C,0.0030*%
D10*
X000101Y000542D02*
X000101Y005292D01*
X004351Y005292D01*
X004351Y005667D01*
X010101Y005667D01*
X010101Y000167D01*
X004351Y000167D01*
X004351Y000542D01*
X000101Y000542D01*
X002101Y002517D02*
X002101Y003317D01*
X001701Y002917D02*
X002501Y002917D01*
X004461Y002367D02*
X004730Y002367D01*
X004596Y002233D02*
X004596Y002502D01*
X005591Y002116D02*
X005591Y001579D01*
X005322Y001847D02*
X005860Y001847D01*
X006431Y001627D02*
X006700Y001627D01*
X006566Y001493D02*
X006566Y001762D01*
X007401Y001221D02*
X007401Y000684D01*
X007132Y000952D02*
X007670Y000952D01*
X005690Y000922D02*
X005152Y000922D01*
X005421Y000654D02*
X005421Y001191D01*
X006731Y003117D02*
X006731Y003917D01*
X006331Y003517D02*
X007131Y003517D01*
X008701Y002917D02*
X009501Y002917D01*
X009101Y002517D02*
X009101Y003317D01*
X004810Y003357D02*
X004541Y003357D01*
X004676Y003223D02*
X004676Y003492D01*
D11*
X008054Y002283D02*
X008091Y002283D01*
X008164Y002283D02*
X008311Y002283D01*
X008311Y002247D02*
X008311Y002320D01*
X008311Y002394D02*
X008164Y002394D01*
X008164Y002504D01*
X008201Y002541D01*
X008311Y002541D01*
X008274Y002615D02*
X008201Y002615D01*
X008164Y002652D01*
X008164Y002762D01*
X008347Y002762D01*
X008384Y002725D01*
X008384Y002688D01*
X008311Y002652D02*
X008274Y002615D01*
X008311Y002652D02*
X008311Y002762D01*
X008311Y002836D02*
X008311Y002946D01*
X008274Y002983D01*
X008237Y002946D01*
X008237Y002873D01*
X008201Y002836D01*
X008164Y002873D01*
X008164Y002983D01*
X008164Y003057D02*
X008164Y003130D01*
X008127Y003094D02*
X008274Y003094D01*
X008311Y003130D01*
X008274Y003204D02*
X008201Y003204D01*
X008164Y003241D01*
X008164Y003314D01*
X008201Y003351D01*
X008274Y003351D01*
X008311Y003314D01*
X008311Y003241D01*
X008274Y003204D01*
X008634Y003198D02*
X008671Y003161D01*
X008744Y003161D01*
X008781Y003198D01*
X008781Y003271D01*
X008744Y003308D01*
X008671Y003308D01*
X008634Y003271D01*
X008634Y003198D01*
X008671Y003087D02*
X008634Y003050D01*
X008634Y002977D01*
X008671Y002940D01*
X008744Y002940D01*
X008781Y002977D01*
X008781Y003050D01*
X008744Y003087D01*
X008671Y003087D01*
X008671Y002866D02*
X008671Y002793D01*
X008671Y002866D02*
X008744Y002866D01*
X008781Y002829D01*
X008781Y002756D01*
X008744Y002719D01*
X008597Y002719D01*
X008561Y002756D01*
X008561Y002829D01*
X008597Y002866D01*
X008707Y002424D02*
X008781Y002351D01*
X008781Y002314D01*
X008744Y002277D01*
X008707Y002277D01*
X008634Y002351D01*
X008597Y002351D01*
X008561Y002314D01*
X008597Y002277D01*
X008634Y002277D01*
X008781Y002424D01*
X008311Y002099D02*
X008164Y002172D01*
X008164Y002247D02*
X008164Y002283D01*
X008311Y002099D02*
X008164Y002026D01*
X008164Y001915D02*
X008311Y001915D01*
X008311Y001878D02*
X008311Y001952D01*
X008164Y001915D02*
X008164Y001878D01*
X008091Y001915D02*
X008054Y001915D01*
X008311Y001804D02*
X008311Y001657D01*
X008091Y001657D01*
X008671Y003382D02*
X008634Y003419D01*
X008634Y003529D01*
X008561Y003529D02*
X008781Y003529D01*
X008781Y003419D01*
X008744Y003382D01*
X008671Y003382D01*
X008311Y003425D02*
X008164Y003425D01*
X008164Y003535D01*
X008201Y003572D01*
X008311Y003572D01*
X008634Y003640D02*
X008634Y003750D01*
X008634Y003824D02*
X008634Y003934D01*
X008671Y003971D01*
X008744Y003971D01*
X008781Y003934D01*
X008781Y003824D01*
X008854Y003824D02*
X008634Y003824D01*
X008744Y003750D02*
X008707Y003713D01*
X008707Y003640D01*
X008671Y003603D01*
X008634Y003640D01*
X008781Y003603D02*
X008781Y003713D01*
X008744Y003750D01*
X008744Y004045D02*
X008671Y004045D01*
X008634Y004082D01*
X008634Y004155D01*
X008671Y004192D01*
X008707Y004192D01*
X008707Y004045D01*
X008744Y004045D02*
X008781Y004082D01*
X008781Y004155D01*
X008744Y004266D02*
X008671Y004266D01*
X008634Y004303D01*
X008634Y004376D01*
X008671Y004413D01*
X008707Y004413D01*
X008707Y004266D01*
X008744Y004266D02*
X008781Y004303D01*
X008781Y004376D01*
X008744Y004487D02*
X008671Y004487D01*
X008634Y004524D01*
X008634Y004634D01*
X008561Y004634D02*
X008781Y004634D01*
X008781Y004524D01*
X008744Y004487D01*
X002940Y001028D02*
X002940Y000807D01*
X003086Y000807D01*
X002865Y000807D02*
X002719Y000807D01*
X002792Y000807D02*
X002792Y001028D01*
X002719Y000954D01*
X002644Y000954D02*
X002608Y000917D01*
X002644Y000881D01*
X002644Y000844D01*
X002608Y000807D01*
X002534Y000807D01*
X002498Y000844D01*
X002571Y000917D02*
X002608Y000917D01*
X002644Y000954D02*
X002644Y000991D01*
X002608Y001028D01*
X002534Y001028D01*
X002498Y000991D01*
X002423Y001028D02*
X002277Y001028D01*
X002350Y001028D02*
X002350Y000807D01*
X002202Y000807D02*
X002056Y000807D01*
X002056Y001028D01*
X002202Y001028D01*
X002129Y000917D02*
X002056Y000917D01*
X001981Y001028D02*
X001835Y001028D01*
X001835Y000807D01*
X001761Y000807D02*
X001650Y000807D01*
X001614Y000844D01*
X001614Y000917D01*
X001650Y000954D01*
X001761Y000954D01*
X001761Y001028D02*
X001761Y000807D01*
X001835Y000917D02*
X001908Y000917D01*
X001540Y000917D02*
X001540Y000844D01*
X001503Y000807D01*
X001429Y000807D01*
X001393Y000844D01*
X001393Y000917D01*
X001429Y000954D01*
X001503Y000954D01*
X001540Y000917D01*
X001319Y000917D02*
X001319Y000844D01*
X001282Y000807D01*
X001208Y000807D01*
X001172Y000844D01*
X001172Y000917D01*
X001208Y000954D01*
X001282Y000954D01*
X001319Y000917D01*
X001098Y000917D02*
X001098Y000844D01*
X001061Y000807D01*
X000987Y000807D01*
X000951Y000844D01*
X000951Y000991D01*
X000987Y001028D01*
X001061Y001028D01*
X001098Y000991D01*
X001098Y000917D02*
X001024Y000917D01*
D12*
X005016Y001257D02*
X005016Y001408D01*
X005091Y001408D01*
X005116Y001382D01*
X005116Y001332D01*
X005091Y001307D01*
X005016Y001307D01*
X005066Y001307D02*
X005116Y001257D01*
X005163Y001257D02*
X005263Y001357D01*
X005263Y001382D01*
X005238Y001408D01*
X005188Y001408D01*
X005163Y001382D01*
X005163Y001257D02*
X005263Y001257D01*
X005711Y001362D02*
X005711Y001513D01*
X005786Y001513D01*
X005811Y001487D01*
X005811Y001437D01*
X005786Y001412D01*
X005711Y001412D01*
X005761Y001412D02*
X005811Y001362D01*
X005858Y001362D02*
X005959Y001362D01*
X005909Y001362D02*
X005909Y001513D01*
X005858Y001462D01*
X006916Y000612D02*
X006916Y000512D01*
X006941Y000487D01*
X006991Y000487D01*
X007016Y000512D01*
X007063Y000487D02*
X007163Y000487D01*
X007113Y000487D02*
X007113Y000638D01*
X007063Y000587D01*
X007016Y000612D02*
X006991Y000638D01*
X006941Y000638D01*
X006916Y000612D01*
X002669Y004834D02*
X002651Y004816D01*
X002632Y004816D01*
X002614Y004852D02*
X002669Y004852D01*
X002669Y004834D02*
X002669Y004926D01*
X002596Y004926D02*
X002596Y004871D01*
X002614Y004852D01*
X002559Y004852D02*
X002522Y004852D01*
X002540Y004852D02*
X002540Y004962D01*
X002522Y004962D01*
X002485Y004926D02*
X002467Y004926D01*
X002430Y004889D01*
X002430Y004852D02*
X002430Y004926D01*
X002393Y004907D02*
X002374Y004926D01*
X002338Y004926D01*
X002319Y004907D01*
X002319Y004871D01*
X002338Y004852D01*
X002374Y004852D01*
X002393Y004871D01*
X002393Y004907D01*
X002282Y004907D02*
X002282Y004871D01*
X002264Y004852D01*
X002209Y004852D01*
X002209Y004962D01*
X002209Y004926D02*
X002264Y004926D01*
X002282Y004907D01*
X002172Y004907D02*
X002172Y004852D01*
X002172Y004907D02*
X002154Y004926D01*
X002117Y004926D01*
X002098Y004907D01*
X002061Y004926D02*
X002006Y004926D01*
X001988Y004907D01*
X001988Y004871D01*
X002006Y004852D01*
X002061Y004852D01*
X002061Y004834D02*
X002061Y004926D01*
X002098Y004962D02*
X002098Y004852D01*
X002061Y004834D02*
X002043Y004816D01*
X002025Y004816D01*
X001951Y004852D02*
X001914Y004852D01*
X001933Y004852D02*
X001933Y004926D01*
X001914Y004926D01*
X001933Y004962D02*
X001933Y004981D01*
X001877Y004907D02*
X001877Y004889D01*
X001804Y004889D01*
X001804Y004871D02*
X001804Y004907D01*
X001822Y004926D01*
X001859Y004926D01*
X001877Y004907D01*
X001859Y004852D02*
X001822Y004852D01*
X001804Y004871D01*
X001767Y004852D02*
X001767Y004907D01*
X001748Y004926D01*
X001693Y004926D01*
X001693Y004852D01*
X001546Y004852D02*
X001546Y004907D01*
X001527Y004926D01*
X001491Y004926D01*
X001491Y004889D02*
X001546Y004889D01*
X001546Y004852D02*
X001491Y004852D01*
X001472Y004871D01*
X001491Y004889D01*
X001435Y004926D02*
X001417Y004926D01*
X001380Y004889D01*
X001380Y004852D02*
X001380Y004926D01*
X001343Y004926D02*
X001307Y004926D01*
X001325Y004944D02*
X001325Y004871D01*
X001343Y004852D01*
X001270Y004852D02*
X001196Y004926D01*
X001159Y004907D02*
X001159Y004889D01*
X001086Y004889D01*
X001086Y004871D02*
X001086Y004907D01*
X001104Y004926D01*
X001141Y004926D01*
X001159Y004907D01*
X001141Y004852D02*
X001104Y004852D01*
X001086Y004871D01*
X001196Y004852D02*
X001270Y004926D01*
X005507Y004899D02*
X005507Y005049D01*
X005607Y005049D01*
X005654Y005024D02*
X005679Y005049D01*
X005730Y005049D01*
X005755Y005024D01*
X005755Y004999D01*
X005654Y004899D01*
X005755Y004899D01*
X005802Y004899D02*
X005902Y004999D01*
X005902Y005024D01*
X005877Y005049D01*
X005827Y005049D01*
X005802Y005024D01*
X005802Y004899D02*
X005902Y004899D01*
X005949Y004899D02*
X006049Y005049D01*
X006096Y004974D02*
X006197Y004974D01*
X006244Y004974D02*
X006344Y004974D01*
X006391Y004974D02*
X006491Y004974D01*
X006538Y004974D02*
X006639Y004974D01*
X006686Y004949D02*
X006761Y004949D01*
X006786Y004974D01*
X006786Y005024D01*
X006761Y005049D01*
X006686Y005049D01*
X006686Y004899D01*
X006736Y004949D02*
X006786Y004899D01*
X006833Y004899D02*
X006833Y005049D01*
X006833Y004974D02*
X006933Y004974D01*
X006980Y004974D02*
X007080Y004974D01*
X007080Y004999D02*
X007080Y004899D01*
X007128Y004974D02*
X007228Y004974D01*
X007275Y004924D02*
X007375Y005024D01*
X007375Y004924D01*
X007350Y004899D01*
X007300Y004899D01*
X007275Y004924D01*
X007275Y005024D01*
X007300Y005049D01*
X007350Y005049D01*
X007375Y005024D01*
X007203Y005049D02*
X007203Y004899D01*
X007128Y004974D02*
X007203Y005049D01*
X007080Y004999D02*
X007030Y005049D01*
X006980Y004999D01*
X006980Y004899D01*
X006933Y004899D02*
X006933Y005049D01*
X006171Y005049D02*
X006171Y004899D01*
X006096Y004974D02*
X006171Y005049D01*
X006049Y004899D02*
X005949Y005049D01*
X005557Y004974D02*
X005507Y004974D01*
D13*
X005061Y003587D02*
X005191Y003397D01*
X005061Y003587D02*
X004931Y003397D01*
X005061Y003587D02*
X005061Y003067D01*
X004991Y002607D02*
X005121Y002417D01*
X004991Y002607D02*
X004861Y002417D01*
X004991Y002607D02*
X004991Y002087D01*
X006831Y001577D02*
X006961Y001387D01*
X007091Y001577D01*
X006961Y001387D02*
X006961Y001907D01*
D14*
X006713Y001568D03*
X006418Y001568D03*
X004743Y002426D03*
X004448Y002426D03*
X004528Y003416D03*
X004823Y003416D03*
D15*
X004676Y003416D03*
X004596Y002426D03*
X006566Y001568D03*
D16*
X005569Y002356D02*
X005569Y004679D01*
X007892Y004679D01*
X007892Y002356D01*
X005569Y002356D01*
X009101Y001917D02*
X009101Y000917D01*
X009601Y000917D01*
X009101Y000917D02*
X009101Y000167D01*
X009601Y000167D01*
X009601Y001917D02*
X009101Y001917D01*
X009101Y002917D01*
X009601Y002917D01*
X009101Y002917D02*
X009101Y003917D01*
X009601Y003917D01*
X009101Y003917D02*
X009101Y004917D01*
X009601Y004917D01*
X009101Y004917D02*
X009101Y005667D01*
X009601Y005667D01*
D17*
X007532Y002663D02*
X007534Y002680D01*
X007540Y002696D01*
X007549Y002710D01*
X007561Y002722D01*
X007576Y002730D01*
X007592Y002735D01*
X007609Y002736D01*
X007626Y002733D01*
X007641Y002726D01*
X007655Y002716D01*
X007666Y002703D01*
X007674Y002688D01*
X007678Y002671D01*
X007678Y002655D01*
X007674Y002638D01*
X007666Y002623D01*
X007655Y002610D01*
X007642Y002600D01*
X007626Y002593D01*
X007609Y002590D01*
X007592Y002591D01*
X007576Y002596D01*
X007561Y002604D01*
X007549Y002616D01*
X007540Y002630D01*
X007534Y002646D01*
X007532Y002663D01*
D18*
X008392Y005382D02*
X008296Y005479D01*
X008586Y005479D01*
X008586Y005382D02*
X008586Y005576D01*
M02*
