G75*
G70*
%OFA0B0*%
%FSLAX24Y24*%
%IPPOS*%
%LPD*%
%AMOC8*
5,1,8,0,0,1.08239X$1,22.5*
%
%ADD10C,0.0080*%
%ADD11C,0.0081*%
%ADD12C,0.0083*%
%ADD13C,0.0083*%
%ADD14C,0.0198*%
%ADD15C,0.0082*%
%ADD16C,0.0476*%
%ADD17R,0.0476X0.0476*%
%ADD18C,0.0437*%
D10*
X000546Y001244D02*
X003498Y001244D01*
X000546Y001244D02*
X000546Y001834D01*
X003498Y001834D01*
X003498Y001244D01*
X003498Y001323D02*
X000546Y001323D01*
X000546Y001402D02*
X003498Y001402D01*
X003498Y001481D02*
X000546Y001481D01*
X000546Y001560D02*
X003498Y001560D01*
X003498Y001639D02*
X000546Y001639D01*
X000546Y001718D02*
X003498Y001718D01*
X003498Y001797D02*
X000546Y001797D01*
X000546Y004000D02*
X003498Y004000D01*
X000546Y004000D02*
X000546Y004590D01*
X003498Y004590D01*
X003498Y004000D01*
X003498Y004079D02*
X000546Y004079D01*
X000546Y004158D02*
X003498Y004158D01*
X003498Y004237D02*
X000546Y004237D01*
X000546Y004316D02*
X003498Y004316D01*
X003498Y004395D02*
X000546Y004395D01*
X000546Y004474D02*
X003498Y004474D01*
X003498Y004553D02*
X000546Y004553D01*
D11*
X000940Y003114D02*
X003498Y003114D01*
X000940Y003114D02*
X000940Y003508D01*
X003498Y003508D01*
X003498Y003114D01*
X003498Y003194D02*
X000940Y003194D01*
X000940Y003274D02*
X003498Y003274D01*
X003498Y003354D02*
X000940Y003354D01*
X000940Y003434D02*
X003498Y003434D01*
X003498Y002327D02*
X000940Y002327D01*
X000940Y002721D01*
X003498Y002721D01*
X003498Y002327D01*
X003498Y002407D02*
X000940Y002407D01*
X000940Y002487D02*
X003498Y002487D01*
X003498Y002567D02*
X000940Y002567D01*
X000940Y002647D02*
X003498Y002647D01*
X005059Y002063D02*
X005453Y002063D01*
X005453Y001631D01*
X005059Y001631D01*
X005059Y002063D01*
X005059Y001711D02*
X005453Y001711D01*
X005453Y001791D02*
X005059Y001791D01*
X005059Y001871D02*
X005453Y001871D01*
X005453Y001951D02*
X005059Y001951D01*
X005059Y002031D02*
X005453Y002031D01*
X005728Y002063D02*
X006122Y002063D01*
X006122Y001631D01*
X005728Y001631D01*
X005728Y002063D01*
X005728Y001711D02*
X006122Y001711D01*
X006122Y001791D02*
X005728Y001791D01*
X005728Y001871D02*
X006122Y001871D01*
X006122Y001951D02*
X005728Y001951D01*
X005728Y002031D02*
X006122Y002031D01*
X006850Y000755D02*
X007282Y000755D01*
X006850Y000755D02*
X006850Y001149D01*
X007282Y001149D01*
X007282Y000755D01*
X007282Y000835D02*
X006850Y000835D01*
X006850Y000915D02*
X007282Y000915D01*
X007282Y000995D02*
X006850Y000995D01*
X006850Y001075D02*
X007282Y001075D01*
X007519Y000755D02*
X007951Y000755D01*
X007519Y000755D02*
X007519Y001149D01*
X007951Y001149D01*
X007951Y000755D01*
X007951Y000835D02*
X007519Y000835D01*
X007519Y000915D02*
X007951Y000915D01*
X007951Y000995D02*
X007519Y000995D01*
X007519Y001075D02*
X007951Y001075D01*
X005952Y000706D02*
X005558Y000706D01*
X005558Y001138D01*
X005952Y001138D01*
X005952Y000706D01*
X005952Y000786D02*
X005558Y000786D01*
X005558Y000866D02*
X005952Y000866D01*
X005952Y000946D02*
X005558Y000946D01*
X005558Y001026D02*
X005952Y001026D01*
X005952Y001106D02*
X005558Y001106D01*
X005283Y000706D02*
X004889Y000706D01*
X004889Y001138D01*
X005283Y001138D01*
X005283Y000706D01*
X005283Y000786D02*
X004889Y000786D01*
X004889Y000866D02*
X005283Y000866D01*
X005283Y000946D02*
X004889Y000946D01*
X004889Y001026D02*
X005283Y001026D01*
X005283Y001106D02*
X004889Y001106D01*
D12*
X004752Y001916D02*
X004440Y001916D01*
X004440Y002228D01*
X004752Y002228D01*
X004752Y001916D01*
X004752Y001998D02*
X004440Y001998D01*
X004440Y002080D02*
X004752Y002080D01*
X004752Y002162D02*
X004440Y002162D01*
X004440Y002507D02*
X004752Y002507D01*
X004440Y002507D02*
X004440Y002819D01*
X004752Y002819D01*
X004752Y002507D01*
X004752Y002589D02*
X004440Y002589D01*
X004440Y002671D02*
X004752Y002671D01*
X004752Y002753D02*
X004440Y002753D01*
X004520Y002906D02*
X004832Y002906D01*
X004520Y002906D02*
X004520Y003218D01*
X004832Y003218D01*
X004832Y002906D01*
X004832Y002988D02*
X004520Y002988D01*
X004520Y003070D02*
X004832Y003070D01*
X004832Y003152D02*
X004520Y003152D01*
X004520Y003497D02*
X004832Y003497D01*
X004520Y003497D02*
X004520Y003809D01*
X004832Y003809D01*
X004832Y003497D01*
X004832Y003579D02*
X004520Y003579D01*
X004520Y003661D02*
X004832Y003661D01*
X004832Y003743D02*
X004520Y003743D01*
X006410Y002079D02*
X006722Y002079D01*
X006722Y001767D01*
X006410Y001767D01*
X006410Y002079D01*
X006410Y001849D02*
X006722Y001849D01*
X006722Y001931D02*
X006410Y001931D01*
X006410Y002013D02*
X006722Y002013D01*
X006722Y001488D02*
X006410Y001488D01*
X006722Y001488D02*
X006722Y001176D01*
X006410Y001176D01*
X006410Y001488D01*
X006410Y001258D02*
X006722Y001258D01*
X006722Y001340D02*
X006410Y001340D01*
X006410Y001422D02*
X006722Y001422D01*
D13*
X005945Y004303D02*
X007517Y004303D01*
X007517Y002731D01*
X005945Y002731D01*
X005945Y004303D01*
X005945Y002813D02*
X007517Y002813D01*
X007517Y002895D02*
X005945Y002895D01*
X005945Y002977D02*
X007517Y002977D01*
X007517Y003059D02*
X005945Y003059D01*
X005945Y003141D02*
X007517Y003141D01*
X007517Y003223D02*
X005945Y003223D01*
X005945Y003305D02*
X007517Y003305D01*
X007517Y003387D02*
X005945Y003387D01*
X005945Y003469D02*
X007517Y003469D01*
X007517Y003551D02*
X005945Y003551D01*
X005945Y003633D02*
X007517Y003633D01*
X007517Y003715D02*
X005945Y003715D01*
X005945Y003797D02*
X007517Y003797D01*
X007517Y003879D02*
X005945Y003879D01*
X005945Y003961D02*
X007517Y003961D01*
X007517Y004043D02*
X005945Y004043D01*
X005945Y004125D02*
X007517Y004125D01*
X007517Y004207D02*
X005945Y004207D01*
X005945Y004289D02*
X007517Y004289D01*
D14*
X007774Y004206D02*
X007932Y004206D01*
X007932Y004010D02*
X007774Y004010D01*
X007774Y003813D02*
X007932Y003813D01*
X007932Y003616D02*
X007774Y003616D01*
X007774Y003419D02*
X007932Y003419D01*
X007932Y003222D02*
X007774Y003222D01*
X007774Y003025D02*
X007932Y003025D01*
X007932Y002828D02*
X007774Y002828D01*
X007774Y002632D02*
X007932Y002632D01*
X007617Y002474D02*
X007617Y002316D01*
X007420Y002316D02*
X007420Y002474D01*
X007223Y002474D02*
X007223Y002316D01*
X007026Y002316D02*
X007026Y002474D01*
X006829Y002474D02*
X006829Y002316D01*
X006632Y002316D02*
X006632Y002474D01*
X006436Y002474D02*
X006436Y002316D01*
X006239Y002316D02*
X006239Y002474D01*
X006042Y002474D02*
X006042Y002316D01*
X005845Y002316D02*
X005845Y002474D01*
X005688Y002632D02*
X005530Y002632D01*
X005530Y002828D02*
X005688Y002828D01*
X005688Y003025D02*
X005530Y003025D01*
X005530Y003222D02*
X005688Y003222D01*
X005688Y003419D02*
X005530Y003419D01*
X005530Y003616D02*
X005688Y003616D01*
X005688Y003813D02*
X005530Y003813D01*
X005530Y004010D02*
X005688Y004010D01*
X005688Y004206D02*
X005530Y004206D01*
X005530Y004403D02*
X005688Y004403D01*
X005845Y004560D02*
X005845Y004718D01*
X006042Y004718D02*
X006042Y004560D01*
X006239Y004560D02*
X006239Y004718D01*
X006436Y004718D02*
X006436Y004560D01*
X006632Y004560D02*
X006632Y004718D01*
X006829Y004718D02*
X006829Y004560D01*
X007026Y004560D02*
X007026Y004718D01*
X007223Y004718D02*
X007223Y004560D01*
X007420Y004560D02*
X007420Y004718D01*
X007617Y004718D02*
X007617Y004560D01*
X007774Y004403D02*
X007932Y004403D01*
D15*
X009352Y004293D02*
X009850Y004293D01*
X009352Y004293D02*
X009352Y004541D01*
X009850Y004541D01*
X009850Y004293D01*
X009850Y004374D02*
X009352Y004374D01*
X009352Y004455D02*
X009850Y004455D01*
X009850Y004536D02*
X009352Y004536D01*
X009352Y005293D02*
X009850Y005293D01*
X009352Y005293D02*
X009352Y005541D01*
X009850Y005541D01*
X009850Y005293D01*
X009850Y005374D02*
X009352Y005374D01*
X009352Y005455D02*
X009850Y005455D01*
X009850Y005536D02*
X009352Y005536D01*
X009352Y003293D02*
X009850Y003293D01*
X009352Y003293D02*
X009352Y003541D01*
X009850Y003541D01*
X009850Y003293D01*
X009850Y003374D02*
X009352Y003374D01*
X009352Y003455D02*
X009850Y003455D01*
X009850Y003536D02*
X009352Y003536D01*
X009352Y002293D02*
X009850Y002293D01*
X009352Y002293D02*
X009352Y002541D01*
X009850Y002541D01*
X009850Y002293D01*
X009850Y002374D02*
X009352Y002374D01*
X009352Y002455D02*
X009850Y002455D01*
X009850Y002536D02*
X009352Y002536D01*
X009352Y001293D02*
X009850Y001293D01*
X009352Y001293D02*
X009352Y001541D01*
X009850Y001541D01*
X009850Y001293D01*
X009850Y001374D02*
X009352Y001374D01*
X009352Y001455D02*
X009850Y001455D01*
X009850Y001536D02*
X009352Y001536D01*
X009352Y000293D02*
X009850Y000293D01*
X009352Y000293D02*
X009352Y000541D01*
X009850Y000541D01*
X009850Y000293D01*
X009850Y000374D02*
X009352Y000374D01*
X009352Y000455D02*
X009850Y000455D01*
X009850Y000536D02*
X009352Y000536D01*
D16*
X008576Y001567D03*
X008851Y002017D03*
X007511Y001497D03*
X009221Y002877D03*
X008301Y003847D03*
X007061Y003747D03*
X006421Y003747D03*
X006741Y003187D03*
X004951Y004517D03*
X005561Y005047D03*
X007136Y005287D03*
X008751Y005057D03*
X003821Y003942D03*
X003861Y002977D03*
X003861Y002467D03*
X004381Y001547D03*
D17*
X003821Y000947D03*
X007761Y000542D03*
X009061Y001107D03*
X003301Y004667D03*
D18*
X003841Y004427D03*
X004281Y004437D03*
X006231Y001187D03*
M02*
