G75*
G70*
%OFA0B0*%
%FSLAX24Y24*%
%IPPOS*%
%LPD*%
%AMOC8*
5,1,8,0,0,1.08239X$1,22.5*
%
%ADD10C,0.0000*%
D10*
X000131Y000181D02*
X000131Y007927D01*
X018626Y007927D01*
X018626Y000181D01*
X000131Y000181D01*
X000513Y000681D02*
X000515Y000702D01*
X000521Y000722D01*
X000530Y000742D01*
X000542Y000759D01*
X000557Y000773D01*
X000575Y000785D01*
X000595Y000793D01*
X000615Y000798D01*
X000636Y000799D01*
X000657Y000796D01*
X000677Y000790D01*
X000696Y000779D01*
X000713Y000766D01*
X000726Y000750D01*
X000737Y000732D01*
X000745Y000712D01*
X000749Y000692D01*
X000749Y000670D01*
X000745Y000650D01*
X000737Y000630D01*
X000726Y000612D01*
X000713Y000596D01*
X000696Y000583D01*
X000677Y000572D01*
X000657Y000566D01*
X000636Y000563D01*
X000615Y000564D01*
X000595Y000569D01*
X000575Y000577D01*
X000557Y000589D01*
X000542Y000603D01*
X000530Y000620D01*
X000521Y000640D01*
X000515Y000660D01*
X000513Y000681D01*
X002454Y003367D02*
X002456Y003393D01*
X002462Y003419D01*
X002472Y003444D01*
X002485Y003467D01*
X002501Y003487D01*
X002521Y003505D01*
X002543Y003520D01*
X002566Y003532D01*
X002592Y003540D01*
X002618Y003544D01*
X002644Y003544D01*
X002670Y003540D01*
X002696Y003532D01*
X002720Y003520D01*
X002741Y003505D01*
X002761Y003487D01*
X002777Y003467D01*
X002790Y003444D01*
X002800Y003419D01*
X002806Y003393D01*
X002808Y003367D01*
X002806Y003341D01*
X002800Y003315D01*
X002790Y003290D01*
X002777Y003267D01*
X002761Y003247D01*
X002741Y003229D01*
X002719Y003214D01*
X002696Y003202D01*
X002670Y003194D01*
X002644Y003190D01*
X002618Y003190D01*
X002592Y003194D01*
X002566Y003202D01*
X002542Y003214D01*
X002521Y003229D01*
X002501Y003247D01*
X002485Y003267D01*
X002472Y003290D01*
X002462Y003315D01*
X002456Y003341D01*
X002454Y003367D01*
X002454Y004745D02*
X002456Y004771D01*
X002462Y004797D01*
X002472Y004822D01*
X002485Y004845D01*
X002501Y004865D01*
X002521Y004883D01*
X002543Y004898D01*
X002566Y004910D01*
X002592Y004918D01*
X002618Y004922D01*
X002644Y004922D01*
X002670Y004918D01*
X002696Y004910D01*
X002720Y004898D01*
X002741Y004883D01*
X002761Y004865D01*
X002777Y004845D01*
X002790Y004822D01*
X002800Y004797D01*
X002806Y004771D01*
X002808Y004745D01*
X002806Y004719D01*
X002800Y004693D01*
X002790Y004668D01*
X002777Y004645D01*
X002761Y004625D01*
X002741Y004607D01*
X002719Y004592D01*
X002696Y004580D01*
X002670Y004572D01*
X002644Y004568D01*
X002618Y004568D01*
X002592Y004572D01*
X002566Y004580D01*
X002542Y004592D01*
X002521Y004607D01*
X002501Y004625D01*
X002485Y004645D01*
X002472Y004668D01*
X002462Y004693D01*
X002456Y004719D01*
X002454Y004745D01*
X000513Y007181D02*
X000515Y007202D01*
X000521Y007222D01*
X000530Y007242D01*
X000542Y007259D01*
X000557Y007273D01*
X000575Y007285D01*
X000595Y007293D01*
X000615Y007298D01*
X000636Y007299D01*
X000657Y007296D01*
X000677Y007290D01*
X000696Y007279D01*
X000713Y007266D01*
X000726Y007250D01*
X000737Y007232D01*
X000745Y007212D01*
X000749Y007192D01*
X000749Y007170D01*
X000745Y007150D01*
X000737Y007130D01*
X000726Y007112D01*
X000713Y007096D01*
X000696Y007083D01*
X000677Y007072D01*
X000657Y007066D01*
X000636Y007063D01*
X000615Y007064D01*
X000595Y007069D01*
X000575Y007077D01*
X000557Y007089D01*
X000542Y007103D01*
X000530Y007120D01*
X000521Y007140D01*
X000515Y007160D01*
X000513Y007181D01*
X015513Y007181D02*
X015515Y007202D01*
X015521Y007222D01*
X015530Y007242D01*
X015542Y007259D01*
X015557Y007273D01*
X015575Y007285D01*
X015595Y007293D01*
X015615Y007298D01*
X015636Y007299D01*
X015657Y007296D01*
X015677Y007290D01*
X015696Y007279D01*
X015713Y007266D01*
X015726Y007250D01*
X015737Y007232D01*
X015745Y007212D01*
X015749Y007192D01*
X015749Y007170D01*
X015745Y007150D01*
X015737Y007130D01*
X015726Y007112D01*
X015713Y007096D01*
X015696Y007083D01*
X015677Y007072D01*
X015657Y007066D01*
X015636Y007063D01*
X015615Y007064D01*
X015595Y007069D01*
X015575Y007077D01*
X015557Y007089D01*
X015542Y007103D01*
X015530Y007120D01*
X015521Y007140D01*
X015515Y007160D01*
X015513Y007181D01*
X015513Y000681D02*
X015515Y000702D01*
X015521Y000722D01*
X015530Y000742D01*
X015542Y000759D01*
X015557Y000773D01*
X015575Y000785D01*
X015595Y000793D01*
X015615Y000798D01*
X015636Y000799D01*
X015657Y000796D01*
X015677Y000790D01*
X015696Y000779D01*
X015713Y000766D01*
X015726Y000750D01*
X015737Y000732D01*
X015745Y000712D01*
X015749Y000692D01*
X015749Y000670D01*
X015745Y000650D01*
X015737Y000630D01*
X015726Y000612D01*
X015713Y000596D01*
X015696Y000583D01*
X015677Y000572D01*
X015657Y000566D01*
X015636Y000563D01*
X015615Y000564D01*
X015595Y000569D01*
X015575Y000577D01*
X015557Y000589D01*
X015542Y000603D01*
X015530Y000620D01*
X015521Y000640D01*
X015515Y000660D01*
X015513Y000681D01*
M02*
