G75*
G70*
%OFA0B0*%
%FSLAX24Y24*%
%IPPOS*%
%LPD*%
%AMOC8*
5,1,8,0,0,1.08239X$1,22.5*
%
%ADD10C,0.0316*%
%ADD11C,0.0081*%
%ADD12C,0.0083*%
%ADD13C,0.0080*%
%ADD14OC8,0.0680*%
%ADD15C,0.0081*%
%ADD16C,0.0085*%
%ADD17C,0.0434*%
%ADD18R,0.0476X0.0476*%
D10*
X000631Y000681D03*
X015631Y000681D03*
X015631Y007181D03*
X000631Y007181D03*
D11*
X009453Y004482D02*
X009453Y004050D01*
X009059Y004050D01*
X009059Y004482D01*
X009453Y004482D01*
X009453Y004130D02*
X009059Y004130D01*
X009059Y004210D02*
X009453Y004210D01*
X009453Y004290D02*
X009059Y004290D01*
X009059Y004370D02*
X009453Y004370D01*
X009453Y004450D02*
X009059Y004450D01*
X009453Y003813D02*
X009453Y003381D01*
X009059Y003381D01*
X009059Y003813D01*
X009453Y003813D01*
X009453Y003461D02*
X009059Y003461D01*
X009059Y003541D02*
X009453Y003541D01*
X009453Y003621D02*
X009059Y003621D01*
X009059Y003701D02*
X009453Y003701D01*
X009453Y003781D02*
X009059Y003781D01*
X009347Y002463D02*
X009347Y002069D01*
X008915Y002069D01*
X008915Y002463D01*
X009347Y002463D01*
X009347Y002149D02*
X008915Y002149D01*
X008915Y002229D02*
X009347Y002229D01*
X009347Y002309D02*
X008915Y002309D01*
X008915Y002389D02*
X009347Y002389D01*
X009347Y001794D02*
X009347Y001400D01*
X008915Y001400D01*
X008915Y001794D01*
X009347Y001794D01*
X009347Y001480D02*
X008915Y001480D01*
X008915Y001560D02*
X009347Y001560D01*
X009347Y001640D02*
X008915Y001640D01*
X008915Y001720D02*
X009347Y001720D01*
X005847Y001694D02*
X005847Y002088D01*
X005847Y001694D02*
X005415Y001694D01*
X005415Y002088D01*
X005847Y002088D01*
X005847Y001774D02*
X005415Y001774D01*
X005415Y001854D02*
X005847Y001854D01*
X005847Y001934D02*
X005415Y001934D01*
X005415Y002014D02*
X005847Y002014D01*
X005847Y001419D02*
X005847Y001025D01*
X005415Y001025D01*
X005415Y001419D01*
X005847Y001419D01*
X005847Y001105D02*
X005415Y001105D01*
X005415Y001185D02*
X005847Y001185D01*
X005847Y001265D02*
X005415Y001265D01*
X005415Y001345D02*
X005847Y001345D01*
X010955Y006878D02*
X011387Y006878D01*
X011387Y006484D01*
X010955Y006484D01*
X010955Y006878D01*
X010955Y006564D02*
X011387Y006564D01*
X011387Y006644D02*
X010955Y006644D01*
X010955Y006724D02*
X011387Y006724D01*
X011387Y006804D02*
X010955Y006804D01*
X011625Y006878D02*
X012057Y006878D01*
X012057Y006484D01*
X011625Y006484D01*
X011625Y006878D01*
X011625Y006564D02*
X012057Y006564D01*
X012057Y006644D02*
X011625Y006644D01*
X011625Y006724D02*
X012057Y006724D01*
X012057Y006804D02*
X011625Y006804D01*
D12*
X007912Y001696D02*
X007600Y001696D01*
X007600Y002008D01*
X007912Y002008D01*
X007912Y001696D01*
X007912Y001778D02*
X007600Y001778D01*
X007600Y001860D02*
X007912Y001860D01*
X007912Y001942D02*
X007600Y001942D01*
X007287Y001696D02*
X006975Y001696D01*
X006975Y002008D01*
X007287Y002008D01*
X007287Y001696D01*
X007287Y001778D02*
X006975Y001778D01*
X006975Y001860D02*
X007287Y001860D01*
X007287Y001942D02*
X006975Y001942D01*
X006662Y001696D02*
X006350Y001696D01*
X006350Y002008D01*
X006662Y002008D01*
X006662Y001696D01*
X006662Y001778D02*
X006350Y001778D01*
X006350Y001860D02*
X006662Y001860D01*
X006662Y001942D02*
X006350Y001942D01*
X006350Y001105D02*
X006662Y001105D01*
X006350Y001105D02*
X006350Y001417D01*
X006662Y001417D01*
X006662Y001105D01*
X006662Y001187D02*
X006350Y001187D01*
X006350Y001269D02*
X006662Y001269D01*
X006662Y001351D02*
X006350Y001351D01*
X006975Y001105D02*
X007287Y001105D01*
X006975Y001105D02*
X006975Y001417D01*
X007287Y001417D01*
X007287Y001105D01*
X007287Y001187D02*
X006975Y001187D01*
X006975Y001269D02*
X007287Y001269D01*
X007287Y001351D02*
X006975Y001351D01*
X007600Y001105D02*
X007912Y001105D01*
X007600Y001105D02*
X007600Y001417D01*
X007912Y001417D01*
X007912Y001105D01*
X007912Y001187D02*
X007600Y001187D01*
X007600Y001269D02*
X007912Y001269D01*
X007912Y001351D02*
X007600Y001351D01*
D13*
X007595Y002892D02*
X007459Y002892D01*
X007595Y002892D02*
X007595Y002342D01*
X007459Y002342D01*
X007459Y002892D01*
X007459Y002421D02*
X007595Y002421D01*
X007595Y002500D02*
X007459Y002500D01*
X007459Y002579D02*
X007595Y002579D01*
X007595Y002658D02*
X007459Y002658D01*
X007459Y002737D02*
X007595Y002737D01*
X007595Y002816D02*
X007459Y002816D01*
X007339Y002892D02*
X007203Y002892D01*
X007339Y002892D02*
X007339Y002342D01*
X007203Y002342D01*
X007203Y002892D01*
X007203Y002421D02*
X007339Y002421D01*
X007339Y002500D02*
X007203Y002500D01*
X007203Y002579D02*
X007339Y002579D01*
X007339Y002658D02*
X007203Y002658D01*
X007203Y002737D02*
X007339Y002737D01*
X007339Y002816D02*
X007203Y002816D01*
X007083Y002892D02*
X006947Y002892D01*
X007083Y002892D02*
X007083Y002342D01*
X006947Y002342D01*
X006947Y002892D01*
X006947Y002421D02*
X007083Y002421D01*
X007083Y002500D02*
X006947Y002500D01*
X006947Y002579D02*
X007083Y002579D01*
X007083Y002658D02*
X006947Y002658D01*
X006947Y002737D02*
X007083Y002737D01*
X007083Y002816D02*
X006947Y002816D01*
X006827Y002892D02*
X006691Y002892D01*
X006827Y002892D02*
X006827Y002342D01*
X006691Y002342D01*
X006691Y002892D01*
X006691Y002421D02*
X006827Y002421D01*
X006827Y002500D02*
X006691Y002500D01*
X006691Y002579D02*
X006827Y002579D01*
X006827Y002658D02*
X006691Y002658D01*
X006691Y002737D02*
X006827Y002737D01*
X006827Y002816D02*
X006691Y002816D01*
X006571Y002892D02*
X006435Y002892D01*
X006571Y002892D02*
X006571Y002342D01*
X006435Y002342D01*
X006435Y002892D01*
X006435Y002421D02*
X006571Y002421D01*
X006571Y002500D02*
X006435Y002500D01*
X006435Y002579D02*
X006571Y002579D01*
X006571Y002658D02*
X006435Y002658D01*
X006435Y002737D02*
X006571Y002737D01*
X006571Y002816D02*
X006435Y002816D01*
X006315Y002892D02*
X006179Y002892D01*
X006315Y002892D02*
X006315Y002342D01*
X006179Y002342D01*
X006179Y002892D01*
X006179Y002421D02*
X006315Y002421D01*
X006315Y002500D02*
X006179Y002500D01*
X006179Y002579D02*
X006315Y002579D01*
X006315Y002658D02*
X006179Y002658D01*
X006179Y002737D02*
X006315Y002737D01*
X006315Y002816D02*
X006179Y002816D01*
X006059Y002892D02*
X005923Y002892D01*
X006059Y002892D02*
X006059Y002342D01*
X005923Y002342D01*
X005923Y002892D01*
X005923Y002421D02*
X006059Y002421D01*
X006059Y002500D02*
X005923Y002500D01*
X005923Y002579D02*
X006059Y002579D01*
X006059Y002658D02*
X005923Y002658D01*
X005923Y002737D02*
X006059Y002737D01*
X006059Y002816D02*
X005923Y002816D01*
X005803Y002892D02*
X005667Y002892D01*
X005803Y002892D02*
X005803Y002342D01*
X005667Y002342D01*
X005667Y002892D01*
X005667Y002421D02*
X005803Y002421D01*
X005803Y002500D02*
X005667Y002500D01*
X005667Y002579D02*
X005803Y002579D01*
X005803Y002658D02*
X005667Y002658D01*
X005667Y002737D02*
X005803Y002737D01*
X005803Y002816D02*
X005667Y002816D01*
X005547Y002892D02*
X005411Y002892D01*
X005547Y002892D02*
X005547Y002342D01*
X005411Y002342D01*
X005411Y002892D01*
X005411Y002421D02*
X005547Y002421D01*
X005547Y002500D02*
X005411Y002500D01*
X005411Y002579D02*
X005547Y002579D01*
X005547Y002658D02*
X005411Y002658D01*
X005411Y002737D02*
X005547Y002737D01*
X005547Y002816D02*
X005411Y002816D01*
X005292Y002892D02*
X005156Y002892D01*
X005292Y002892D02*
X005292Y002342D01*
X005156Y002342D01*
X005156Y002892D01*
X005156Y002421D02*
X005292Y002421D01*
X005292Y002500D02*
X005156Y002500D01*
X005156Y002579D02*
X005292Y002579D01*
X005292Y002658D02*
X005156Y002658D01*
X005156Y002737D02*
X005292Y002737D01*
X005292Y002816D02*
X005156Y002816D01*
X005036Y002892D02*
X004900Y002892D01*
X005036Y002892D02*
X005036Y002342D01*
X004900Y002342D01*
X004900Y002892D01*
X004900Y002421D02*
X005036Y002421D01*
X005036Y002500D02*
X004900Y002500D01*
X004900Y002579D02*
X005036Y002579D01*
X005036Y002658D02*
X004900Y002658D01*
X004900Y002737D02*
X005036Y002737D01*
X005036Y002816D02*
X004900Y002816D01*
X003910Y003328D02*
X003124Y003328D01*
X003124Y003524D01*
X003910Y003524D01*
X003910Y003328D01*
X003910Y003407D02*
X003124Y003407D01*
X003124Y003486D02*
X003910Y003486D01*
X003910Y003643D02*
X003124Y003643D01*
X003124Y003839D01*
X003910Y003839D01*
X003910Y003643D01*
X003910Y003722D02*
X003124Y003722D01*
X003124Y003801D02*
X003910Y003801D01*
X003910Y003958D02*
X003124Y003958D01*
X003124Y004154D01*
X003910Y004154D01*
X003910Y003958D01*
X003910Y004037D02*
X003124Y004037D01*
X003124Y004116D02*
X003910Y004116D01*
X003910Y004273D02*
X003124Y004273D01*
X003124Y004469D01*
X003910Y004469D01*
X003910Y004273D01*
X003910Y004352D02*
X003124Y004352D01*
X003124Y004431D02*
X003910Y004431D01*
X003910Y004588D02*
X003124Y004588D01*
X003124Y004784D01*
X003910Y004784D01*
X003910Y004588D01*
X003910Y004667D02*
X003124Y004667D01*
X003124Y004746D02*
X003910Y004746D01*
X004900Y005771D02*
X005036Y005771D01*
X005036Y005221D01*
X004900Y005221D01*
X004900Y005771D01*
X004900Y005300D02*
X005036Y005300D01*
X005036Y005379D02*
X004900Y005379D01*
X004900Y005458D02*
X005036Y005458D01*
X005036Y005537D02*
X004900Y005537D01*
X004900Y005616D02*
X005036Y005616D01*
X005036Y005695D02*
X004900Y005695D01*
X005156Y005771D02*
X005292Y005771D01*
X005292Y005221D01*
X005156Y005221D01*
X005156Y005771D01*
X005156Y005300D02*
X005292Y005300D01*
X005292Y005379D02*
X005156Y005379D01*
X005156Y005458D02*
X005292Y005458D01*
X005292Y005537D02*
X005156Y005537D01*
X005156Y005616D02*
X005292Y005616D01*
X005292Y005695D02*
X005156Y005695D01*
X005411Y005771D02*
X005547Y005771D01*
X005547Y005221D01*
X005411Y005221D01*
X005411Y005771D01*
X005411Y005300D02*
X005547Y005300D01*
X005547Y005379D02*
X005411Y005379D01*
X005411Y005458D02*
X005547Y005458D01*
X005547Y005537D02*
X005411Y005537D01*
X005411Y005616D02*
X005547Y005616D01*
X005547Y005695D02*
X005411Y005695D01*
X005667Y005771D02*
X005803Y005771D01*
X005803Y005221D01*
X005667Y005221D01*
X005667Y005771D01*
X005667Y005300D02*
X005803Y005300D01*
X005803Y005379D02*
X005667Y005379D01*
X005667Y005458D02*
X005803Y005458D01*
X005803Y005537D02*
X005667Y005537D01*
X005667Y005616D02*
X005803Y005616D01*
X005803Y005695D02*
X005667Y005695D01*
X005923Y005771D02*
X006059Y005771D01*
X006059Y005221D01*
X005923Y005221D01*
X005923Y005771D01*
X005923Y005300D02*
X006059Y005300D01*
X006059Y005379D02*
X005923Y005379D01*
X005923Y005458D02*
X006059Y005458D01*
X006059Y005537D02*
X005923Y005537D01*
X005923Y005616D02*
X006059Y005616D01*
X006059Y005695D02*
X005923Y005695D01*
X006179Y005771D02*
X006315Y005771D01*
X006315Y005221D01*
X006179Y005221D01*
X006179Y005771D01*
X006179Y005300D02*
X006315Y005300D01*
X006315Y005379D02*
X006179Y005379D01*
X006179Y005458D02*
X006315Y005458D01*
X006315Y005537D02*
X006179Y005537D01*
X006179Y005616D02*
X006315Y005616D01*
X006315Y005695D02*
X006179Y005695D01*
X006435Y005771D02*
X006571Y005771D01*
X006571Y005221D01*
X006435Y005221D01*
X006435Y005771D01*
X006435Y005300D02*
X006571Y005300D01*
X006571Y005379D02*
X006435Y005379D01*
X006435Y005458D02*
X006571Y005458D01*
X006571Y005537D02*
X006435Y005537D01*
X006435Y005616D02*
X006571Y005616D01*
X006571Y005695D02*
X006435Y005695D01*
X006691Y005771D02*
X006827Y005771D01*
X006827Y005221D01*
X006691Y005221D01*
X006691Y005771D01*
X006691Y005300D02*
X006827Y005300D01*
X006827Y005379D02*
X006691Y005379D01*
X006691Y005458D02*
X006827Y005458D01*
X006827Y005537D02*
X006691Y005537D01*
X006691Y005616D02*
X006827Y005616D01*
X006827Y005695D02*
X006691Y005695D01*
X006947Y005771D02*
X007083Y005771D01*
X007083Y005221D01*
X006947Y005221D01*
X006947Y005771D01*
X006947Y005300D02*
X007083Y005300D01*
X007083Y005379D02*
X006947Y005379D01*
X006947Y005458D02*
X007083Y005458D01*
X007083Y005537D02*
X006947Y005537D01*
X006947Y005616D02*
X007083Y005616D01*
X007083Y005695D02*
X006947Y005695D01*
X007203Y005771D02*
X007339Y005771D01*
X007339Y005221D01*
X007203Y005221D01*
X007203Y005771D01*
X007203Y005300D02*
X007339Y005300D01*
X007339Y005379D02*
X007203Y005379D01*
X007203Y005458D02*
X007339Y005458D01*
X007339Y005537D02*
X007203Y005537D01*
X007203Y005616D02*
X007339Y005616D01*
X007339Y005695D02*
X007203Y005695D01*
X007459Y005771D02*
X007595Y005771D01*
X007595Y005221D01*
X007459Y005221D01*
X007459Y005771D01*
X007459Y005300D02*
X007595Y005300D01*
X007595Y005379D02*
X007459Y005379D01*
X007459Y005458D02*
X007595Y005458D01*
X007595Y005537D02*
X007459Y005537D01*
X007459Y005616D02*
X007595Y005616D01*
X007595Y005695D02*
X007459Y005695D01*
X007715Y005771D02*
X007851Y005771D01*
X007851Y005221D01*
X007715Y005221D01*
X007715Y005771D01*
X007715Y005300D02*
X007851Y005300D01*
X007851Y005379D02*
X007715Y005379D01*
X007715Y005458D02*
X007851Y005458D01*
X007851Y005537D02*
X007715Y005537D01*
X007715Y005616D02*
X007851Y005616D01*
X007851Y005695D02*
X007715Y005695D01*
X007971Y005771D02*
X008107Y005771D01*
X008107Y005221D01*
X007971Y005221D01*
X007971Y005771D01*
X007971Y005300D02*
X008107Y005300D01*
X008107Y005379D02*
X007971Y005379D01*
X007971Y005458D02*
X008107Y005458D01*
X008107Y005537D02*
X007971Y005537D01*
X007971Y005616D02*
X008107Y005616D01*
X008107Y005695D02*
X007971Y005695D01*
X008226Y005771D02*
X008362Y005771D01*
X008362Y005221D01*
X008226Y005221D01*
X008226Y005771D01*
X008226Y005300D02*
X008362Y005300D01*
X008362Y005379D02*
X008226Y005379D01*
X008226Y005458D02*
X008362Y005458D01*
X008362Y005537D02*
X008226Y005537D01*
X008226Y005616D02*
X008362Y005616D01*
X008362Y005695D02*
X008226Y005695D01*
X008226Y002892D02*
X008362Y002892D01*
X008362Y002342D01*
X008226Y002342D01*
X008226Y002892D01*
X008226Y002421D02*
X008362Y002421D01*
X008362Y002500D02*
X008226Y002500D01*
X008226Y002579D02*
X008362Y002579D01*
X008362Y002658D02*
X008226Y002658D01*
X008226Y002737D02*
X008362Y002737D01*
X008362Y002816D02*
X008226Y002816D01*
X008107Y002892D02*
X007971Y002892D01*
X008107Y002892D02*
X008107Y002342D01*
X007971Y002342D01*
X007971Y002892D01*
X007971Y002421D02*
X008107Y002421D01*
X008107Y002500D02*
X007971Y002500D01*
X007971Y002579D02*
X008107Y002579D01*
X008107Y002658D02*
X007971Y002658D01*
X007971Y002737D02*
X008107Y002737D01*
X008107Y002816D02*
X007971Y002816D01*
X007851Y002892D02*
X007715Y002892D01*
X007851Y002892D02*
X007851Y002342D01*
X007715Y002342D01*
X007715Y002892D01*
X007715Y002421D02*
X007851Y002421D01*
X007851Y002500D02*
X007715Y002500D01*
X007715Y002579D02*
X007851Y002579D01*
X007851Y002658D02*
X007715Y002658D01*
X007715Y002737D02*
X007851Y002737D01*
X007851Y002816D02*
X007715Y002816D01*
D14*
X016756Y002931D03*
X017756Y002931D03*
X017756Y001931D03*
X016756Y001931D03*
X016756Y000931D03*
X017756Y000931D03*
X017756Y003931D03*
X016756Y003931D03*
X016756Y004931D03*
X017756Y004931D03*
X017756Y005931D03*
X016756Y005931D03*
X016756Y006931D03*
X017756Y006931D03*
D15*
X014291Y005565D02*
X014173Y005565D01*
X014173Y006115D01*
X014291Y006115D01*
X014291Y005565D01*
X014291Y005645D02*
X014173Y005645D01*
X014173Y005725D02*
X014291Y005725D01*
X014291Y005805D02*
X014173Y005805D01*
X014173Y005885D02*
X014291Y005885D01*
X014291Y005965D02*
X014173Y005965D01*
X014173Y006045D02*
X014291Y006045D01*
X014095Y005565D02*
X013977Y005565D01*
X013977Y006115D01*
X014095Y006115D01*
X014095Y005565D01*
X014095Y005645D02*
X013977Y005645D01*
X013977Y005725D02*
X014095Y005725D01*
X014095Y005805D02*
X013977Y005805D01*
X013977Y005885D02*
X014095Y005885D01*
X014095Y005965D02*
X013977Y005965D01*
X013977Y006045D02*
X014095Y006045D01*
X013898Y005565D02*
X013780Y005565D01*
X013780Y006115D01*
X013898Y006115D01*
X013898Y005565D01*
X013898Y005645D02*
X013780Y005645D01*
X013780Y005725D02*
X013898Y005725D01*
X013898Y005805D02*
X013780Y005805D01*
X013780Y005885D02*
X013898Y005885D01*
X013898Y005965D02*
X013780Y005965D01*
X013780Y006045D02*
X013898Y006045D01*
X013701Y005565D02*
X013583Y005565D01*
X013583Y006115D01*
X013701Y006115D01*
X013701Y005565D01*
X013701Y005645D02*
X013583Y005645D01*
X013583Y005725D02*
X013701Y005725D01*
X013701Y005805D02*
X013583Y005805D01*
X013583Y005885D02*
X013701Y005885D01*
X013701Y005965D02*
X013583Y005965D01*
X013583Y006045D02*
X013701Y006045D01*
X013504Y005565D02*
X013386Y005565D01*
X013386Y006115D01*
X013504Y006115D01*
X013504Y005565D01*
X013504Y005645D02*
X013386Y005645D01*
X013386Y005725D02*
X013504Y005725D01*
X013504Y005805D02*
X013386Y005805D01*
X013386Y005885D02*
X013504Y005885D01*
X013504Y005965D02*
X013386Y005965D01*
X013386Y006045D02*
X013504Y006045D01*
X013307Y005565D02*
X013189Y005565D01*
X013189Y006115D01*
X013307Y006115D01*
X013307Y005565D01*
X013307Y005645D02*
X013189Y005645D01*
X013189Y005725D02*
X013307Y005725D01*
X013307Y005805D02*
X013189Y005805D01*
X013189Y005885D02*
X013307Y005885D01*
X013307Y005965D02*
X013189Y005965D01*
X013189Y006045D02*
X013307Y006045D01*
X013110Y005565D02*
X012992Y005565D01*
X012992Y006115D01*
X013110Y006115D01*
X013110Y005565D01*
X013110Y005645D02*
X012992Y005645D01*
X012992Y005725D02*
X013110Y005725D01*
X013110Y005805D02*
X012992Y005805D01*
X012992Y005885D02*
X013110Y005885D01*
X013110Y005965D02*
X012992Y005965D01*
X012992Y006045D02*
X013110Y006045D01*
X012913Y005565D02*
X012795Y005565D01*
X012795Y006115D01*
X012913Y006115D01*
X012913Y005565D01*
X012913Y005645D02*
X012795Y005645D01*
X012795Y005725D02*
X012913Y005725D01*
X012913Y005805D02*
X012795Y005805D01*
X012795Y005885D02*
X012913Y005885D01*
X012913Y005965D02*
X012795Y005965D01*
X012795Y006045D02*
X012913Y006045D01*
X012717Y005565D02*
X012599Y005565D01*
X012599Y006115D01*
X012717Y006115D01*
X012717Y005565D01*
X012717Y005645D02*
X012599Y005645D01*
X012599Y005725D02*
X012717Y005725D01*
X012717Y005805D02*
X012599Y005805D01*
X012599Y005885D02*
X012717Y005885D01*
X012717Y005965D02*
X012599Y005965D01*
X012599Y006045D02*
X012717Y006045D01*
X012520Y005565D02*
X012402Y005565D01*
X012402Y006115D01*
X012520Y006115D01*
X012520Y005565D01*
X012520Y005645D02*
X012402Y005645D01*
X012402Y005725D02*
X012520Y005725D01*
X012520Y005805D02*
X012402Y005805D01*
X012402Y005885D02*
X012520Y005885D01*
X012520Y005965D02*
X012402Y005965D01*
X012402Y006045D02*
X012520Y006045D01*
X012323Y005565D02*
X012205Y005565D01*
X012205Y006115D01*
X012323Y006115D01*
X012323Y005565D01*
X012323Y005645D02*
X012205Y005645D01*
X012205Y005725D02*
X012323Y005725D01*
X012323Y005805D02*
X012205Y005805D01*
X012205Y005885D02*
X012323Y005885D01*
X012323Y005965D02*
X012205Y005965D01*
X012205Y006045D02*
X012323Y006045D01*
X012126Y005565D02*
X012008Y005565D01*
X012008Y006115D01*
X012126Y006115D01*
X012126Y005565D01*
X012126Y005645D02*
X012008Y005645D01*
X012008Y005725D02*
X012126Y005725D01*
X012126Y005805D02*
X012008Y005805D01*
X012008Y005885D02*
X012126Y005885D01*
X012126Y005965D02*
X012008Y005965D01*
X012008Y006045D02*
X012126Y006045D01*
X011929Y005565D02*
X011811Y005565D01*
X011811Y006115D01*
X011929Y006115D01*
X011929Y005565D01*
X011929Y005645D02*
X011811Y005645D01*
X011811Y005725D02*
X011929Y005725D01*
X011929Y005805D02*
X011811Y005805D01*
X011811Y005885D02*
X011929Y005885D01*
X011929Y005965D02*
X011811Y005965D01*
X011811Y006045D02*
X011929Y006045D01*
X011732Y005565D02*
X011614Y005565D01*
X011614Y006115D01*
X011732Y006115D01*
X011732Y005565D01*
X011732Y005645D02*
X011614Y005645D01*
X011614Y005725D02*
X011732Y005725D01*
X011732Y005805D02*
X011614Y005805D01*
X011614Y005885D02*
X011732Y005885D01*
X011732Y005965D02*
X011614Y005965D01*
X011614Y006045D02*
X011732Y006045D01*
X011535Y005565D02*
X011417Y005565D01*
X011417Y006115D01*
X011535Y006115D01*
X011535Y005565D01*
X011535Y005645D02*
X011417Y005645D01*
X011417Y005725D02*
X011535Y005725D01*
X011535Y005805D02*
X011417Y005805D01*
X011417Y005885D02*
X011535Y005885D01*
X011535Y005965D02*
X011417Y005965D01*
X011417Y006045D02*
X011535Y006045D01*
X011339Y005565D02*
X011221Y005565D01*
X011221Y006115D01*
X011339Y006115D01*
X011339Y005565D01*
X011339Y005645D02*
X011221Y005645D01*
X011221Y005725D02*
X011339Y005725D01*
X011339Y005805D02*
X011221Y005805D01*
X011221Y005885D02*
X011339Y005885D01*
X011339Y005965D02*
X011221Y005965D01*
X011221Y006045D02*
X011339Y006045D01*
X010748Y005092D02*
X010748Y004974D01*
X010198Y004974D01*
X010198Y005092D01*
X010748Y005092D01*
X010748Y005054D02*
X010198Y005054D01*
X010748Y004895D02*
X010748Y004777D01*
X010198Y004777D01*
X010198Y004895D01*
X010748Y004895D01*
X010748Y004857D02*
X010198Y004857D01*
X010748Y004698D02*
X010748Y004580D01*
X010198Y004580D01*
X010198Y004698D01*
X010748Y004698D01*
X010748Y004660D02*
X010198Y004660D01*
X010748Y004501D02*
X010748Y004383D01*
X010198Y004383D01*
X010198Y004501D01*
X010748Y004501D01*
X010748Y004463D02*
X010198Y004463D01*
X010748Y004304D02*
X010748Y004186D01*
X010198Y004186D01*
X010198Y004304D01*
X010748Y004304D01*
X010748Y004266D02*
X010198Y004266D01*
X010748Y004108D02*
X010748Y003990D01*
X010198Y003990D01*
X010198Y004108D01*
X010748Y004108D01*
X010748Y004070D02*
X010198Y004070D01*
X010748Y003911D02*
X010748Y003793D01*
X010198Y003793D01*
X010198Y003911D01*
X010748Y003911D01*
X010748Y003873D02*
X010198Y003873D01*
X010748Y003714D02*
X010748Y003596D01*
X010198Y003596D01*
X010198Y003714D01*
X010748Y003714D01*
X010748Y003676D02*
X010198Y003676D01*
X010748Y003517D02*
X010748Y003399D01*
X010198Y003399D01*
X010198Y003517D01*
X010748Y003517D01*
X010748Y003479D02*
X010198Y003479D01*
X010748Y003320D02*
X010748Y003202D01*
X010198Y003202D01*
X010198Y003320D01*
X010748Y003320D01*
X010748Y003282D02*
X010198Y003282D01*
X010748Y003123D02*
X010748Y003005D01*
X010198Y003005D01*
X010198Y003123D01*
X010748Y003123D01*
X010748Y003085D02*
X010198Y003085D01*
X010748Y002926D02*
X010748Y002808D01*
X010198Y002808D01*
X010198Y002926D01*
X010748Y002926D01*
X010748Y002888D02*
X010198Y002888D01*
X010748Y002730D02*
X010748Y002612D01*
X010198Y002612D01*
X010198Y002730D01*
X010748Y002730D01*
X010748Y002692D02*
X010198Y002692D01*
X010748Y002533D02*
X010748Y002415D01*
X010198Y002415D01*
X010198Y002533D01*
X010748Y002533D01*
X010748Y002495D02*
X010198Y002495D01*
X010748Y002336D02*
X010748Y002218D01*
X010198Y002218D01*
X010198Y002336D01*
X010748Y002336D01*
X010748Y002298D02*
X010198Y002298D01*
X010748Y002139D02*
X010748Y002021D01*
X010198Y002021D01*
X010198Y002139D01*
X010748Y002139D01*
X010748Y002101D02*
X010198Y002101D01*
X011221Y000998D02*
X011339Y000998D01*
X011221Y000998D02*
X011221Y001548D01*
X011339Y001548D01*
X011339Y000998D01*
X011339Y001078D02*
X011221Y001078D01*
X011221Y001158D02*
X011339Y001158D01*
X011339Y001238D02*
X011221Y001238D01*
X011221Y001318D02*
X011339Y001318D01*
X011339Y001398D02*
X011221Y001398D01*
X011221Y001478D02*
X011339Y001478D01*
X011417Y000998D02*
X011535Y000998D01*
X011417Y000998D02*
X011417Y001548D01*
X011535Y001548D01*
X011535Y000998D01*
X011535Y001078D02*
X011417Y001078D01*
X011417Y001158D02*
X011535Y001158D01*
X011535Y001238D02*
X011417Y001238D01*
X011417Y001318D02*
X011535Y001318D01*
X011535Y001398D02*
X011417Y001398D01*
X011417Y001478D02*
X011535Y001478D01*
X011614Y000998D02*
X011732Y000998D01*
X011614Y000998D02*
X011614Y001548D01*
X011732Y001548D01*
X011732Y000998D01*
X011732Y001078D02*
X011614Y001078D01*
X011614Y001158D02*
X011732Y001158D01*
X011732Y001238D02*
X011614Y001238D01*
X011614Y001318D02*
X011732Y001318D01*
X011732Y001398D02*
X011614Y001398D01*
X011614Y001478D02*
X011732Y001478D01*
X011811Y000998D02*
X011929Y000998D01*
X011811Y000998D02*
X011811Y001548D01*
X011929Y001548D01*
X011929Y000998D01*
X011929Y001078D02*
X011811Y001078D01*
X011811Y001158D02*
X011929Y001158D01*
X011929Y001238D02*
X011811Y001238D01*
X011811Y001318D02*
X011929Y001318D01*
X011929Y001398D02*
X011811Y001398D01*
X011811Y001478D02*
X011929Y001478D01*
X012008Y000998D02*
X012126Y000998D01*
X012008Y000998D02*
X012008Y001548D01*
X012126Y001548D01*
X012126Y000998D01*
X012126Y001078D02*
X012008Y001078D01*
X012008Y001158D02*
X012126Y001158D01*
X012126Y001238D02*
X012008Y001238D01*
X012008Y001318D02*
X012126Y001318D01*
X012126Y001398D02*
X012008Y001398D01*
X012008Y001478D02*
X012126Y001478D01*
X012205Y000998D02*
X012323Y000998D01*
X012205Y000998D02*
X012205Y001548D01*
X012323Y001548D01*
X012323Y000998D01*
X012323Y001078D02*
X012205Y001078D01*
X012205Y001158D02*
X012323Y001158D01*
X012323Y001238D02*
X012205Y001238D01*
X012205Y001318D02*
X012323Y001318D01*
X012323Y001398D02*
X012205Y001398D01*
X012205Y001478D02*
X012323Y001478D01*
X012402Y000998D02*
X012520Y000998D01*
X012402Y000998D02*
X012402Y001548D01*
X012520Y001548D01*
X012520Y000998D01*
X012520Y001078D02*
X012402Y001078D01*
X012402Y001158D02*
X012520Y001158D01*
X012520Y001238D02*
X012402Y001238D01*
X012402Y001318D02*
X012520Y001318D01*
X012520Y001398D02*
X012402Y001398D01*
X012402Y001478D02*
X012520Y001478D01*
X012599Y000998D02*
X012717Y000998D01*
X012599Y000998D02*
X012599Y001548D01*
X012717Y001548D01*
X012717Y000998D01*
X012717Y001078D02*
X012599Y001078D01*
X012599Y001158D02*
X012717Y001158D01*
X012717Y001238D02*
X012599Y001238D01*
X012599Y001318D02*
X012717Y001318D01*
X012717Y001398D02*
X012599Y001398D01*
X012599Y001478D02*
X012717Y001478D01*
X012795Y000998D02*
X012913Y000998D01*
X012795Y000998D02*
X012795Y001548D01*
X012913Y001548D01*
X012913Y000998D01*
X012913Y001078D02*
X012795Y001078D01*
X012795Y001158D02*
X012913Y001158D01*
X012913Y001238D02*
X012795Y001238D01*
X012795Y001318D02*
X012913Y001318D01*
X012913Y001398D02*
X012795Y001398D01*
X012795Y001478D02*
X012913Y001478D01*
X012992Y000998D02*
X013110Y000998D01*
X012992Y000998D02*
X012992Y001548D01*
X013110Y001548D01*
X013110Y000998D01*
X013110Y001078D02*
X012992Y001078D01*
X012992Y001158D02*
X013110Y001158D01*
X013110Y001238D02*
X012992Y001238D01*
X012992Y001318D02*
X013110Y001318D01*
X013110Y001398D02*
X012992Y001398D01*
X012992Y001478D02*
X013110Y001478D01*
X013189Y000998D02*
X013307Y000998D01*
X013189Y000998D02*
X013189Y001548D01*
X013307Y001548D01*
X013307Y000998D01*
X013307Y001078D02*
X013189Y001078D01*
X013189Y001158D02*
X013307Y001158D01*
X013307Y001238D02*
X013189Y001238D01*
X013189Y001318D02*
X013307Y001318D01*
X013307Y001398D02*
X013189Y001398D01*
X013189Y001478D02*
X013307Y001478D01*
X013386Y000998D02*
X013504Y000998D01*
X013386Y000998D02*
X013386Y001548D01*
X013504Y001548D01*
X013504Y000998D01*
X013504Y001078D02*
X013386Y001078D01*
X013386Y001158D02*
X013504Y001158D01*
X013504Y001238D02*
X013386Y001238D01*
X013386Y001318D02*
X013504Y001318D01*
X013504Y001398D02*
X013386Y001398D01*
X013386Y001478D02*
X013504Y001478D01*
X013583Y000998D02*
X013701Y000998D01*
X013583Y000998D02*
X013583Y001548D01*
X013701Y001548D01*
X013701Y000998D01*
X013701Y001078D02*
X013583Y001078D01*
X013583Y001158D02*
X013701Y001158D01*
X013701Y001238D02*
X013583Y001238D01*
X013583Y001318D02*
X013701Y001318D01*
X013701Y001398D02*
X013583Y001398D01*
X013583Y001478D02*
X013701Y001478D01*
X013780Y000998D02*
X013898Y000998D01*
X013780Y000998D02*
X013780Y001548D01*
X013898Y001548D01*
X013898Y000998D01*
X013898Y001078D02*
X013780Y001078D01*
X013780Y001158D02*
X013898Y001158D01*
X013898Y001238D02*
X013780Y001238D01*
X013780Y001318D02*
X013898Y001318D01*
X013898Y001398D02*
X013780Y001398D01*
X013780Y001478D02*
X013898Y001478D01*
X013977Y000998D02*
X014095Y000998D01*
X013977Y000998D02*
X013977Y001548D01*
X014095Y001548D01*
X014095Y000998D01*
X014095Y001078D02*
X013977Y001078D01*
X013977Y001158D02*
X014095Y001158D01*
X014095Y001238D02*
X013977Y001238D01*
X013977Y001318D02*
X014095Y001318D01*
X014095Y001398D02*
X013977Y001398D01*
X013977Y001478D02*
X014095Y001478D01*
X014173Y000998D02*
X014291Y000998D01*
X014173Y000998D02*
X014173Y001548D01*
X014291Y001548D01*
X014291Y000998D01*
X014291Y001078D02*
X014173Y001078D01*
X014173Y001158D02*
X014291Y001158D01*
X014291Y001238D02*
X014173Y001238D01*
X014173Y001318D02*
X014291Y001318D01*
X014291Y001398D02*
X014173Y001398D01*
X014173Y001478D02*
X014291Y001478D01*
X015314Y002021D02*
X015314Y002139D01*
X015314Y002021D02*
X014764Y002021D01*
X014764Y002139D01*
X015314Y002139D01*
X015314Y002101D02*
X014764Y002101D01*
X015314Y002218D02*
X015314Y002336D01*
X015314Y002218D02*
X014764Y002218D01*
X014764Y002336D01*
X015314Y002336D01*
X015314Y002298D02*
X014764Y002298D01*
X015314Y002415D02*
X015314Y002533D01*
X015314Y002415D02*
X014764Y002415D01*
X014764Y002533D01*
X015314Y002533D01*
X015314Y002495D02*
X014764Y002495D01*
X015314Y002612D02*
X015314Y002730D01*
X015314Y002612D02*
X014764Y002612D01*
X014764Y002730D01*
X015314Y002730D01*
X015314Y002692D02*
X014764Y002692D01*
X015314Y002808D02*
X015314Y002926D01*
X015314Y002808D02*
X014764Y002808D01*
X014764Y002926D01*
X015314Y002926D01*
X015314Y002888D02*
X014764Y002888D01*
X015314Y003005D02*
X015314Y003123D01*
X015314Y003005D02*
X014764Y003005D01*
X014764Y003123D01*
X015314Y003123D01*
X015314Y003085D02*
X014764Y003085D01*
X015314Y003202D02*
X015314Y003320D01*
X015314Y003202D02*
X014764Y003202D01*
X014764Y003320D01*
X015314Y003320D01*
X015314Y003282D02*
X014764Y003282D01*
X015314Y003399D02*
X015314Y003517D01*
X015314Y003399D02*
X014764Y003399D01*
X014764Y003517D01*
X015314Y003517D01*
X015314Y003479D02*
X014764Y003479D01*
X015314Y003596D02*
X015314Y003714D01*
X015314Y003596D02*
X014764Y003596D01*
X014764Y003714D01*
X015314Y003714D01*
X015314Y003676D02*
X014764Y003676D01*
X015314Y003793D02*
X015314Y003911D01*
X015314Y003793D02*
X014764Y003793D01*
X014764Y003911D01*
X015314Y003911D01*
X015314Y003873D02*
X014764Y003873D01*
X015314Y003990D02*
X015314Y004108D01*
X015314Y003990D02*
X014764Y003990D01*
X014764Y004108D01*
X015314Y004108D01*
X015314Y004070D02*
X014764Y004070D01*
X015314Y004186D02*
X015314Y004304D01*
X015314Y004186D02*
X014764Y004186D01*
X014764Y004304D01*
X015314Y004304D01*
X015314Y004266D02*
X014764Y004266D01*
X015314Y004383D02*
X015314Y004501D01*
X015314Y004383D02*
X014764Y004383D01*
X014764Y004501D01*
X015314Y004501D01*
X015314Y004463D02*
X014764Y004463D01*
X015314Y004580D02*
X015314Y004698D01*
X015314Y004580D02*
X014764Y004580D01*
X014764Y004698D01*
X015314Y004698D01*
X015314Y004660D02*
X014764Y004660D01*
X015314Y004777D02*
X015314Y004895D01*
X015314Y004777D02*
X014764Y004777D01*
X014764Y004895D01*
X015314Y004895D01*
X015314Y004857D02*
X014764Y004857D01*
X015314Y004974D02*
X015314Y005092D01*
X015314Y004974D02*
X014764Y004974D01*
X014764Y005092D01*
X015314Y005092D01*
X015314Y005054D02*
X014764Y005054D01*
D16*
X003849Y005220D02*
X002987Y005220D01*
X002987Y006200D01*
X003849Y006200D01*
X003849Y005220D01*
X003849Y005304D02*
X002987Y005304D01*
X002987Y005388D02*
X003849Y005388D01*
X003849Y005472D02*
X002987Y005472D01*
X002987Y005556D02*
X003849Y005556D01*
X003849Y005640D02*
X002987Y005640D01*
X002987Y005724D02*
X003849Y005724D01*
X003849Y005808D02*
X002987Y005808D01*
X002987Y005892D02*
X003849Y005892D01*
X003849Y005976D02*
X002987Y005976D01*
X002987Y006060D02*
X003849Y006060D01*
X003849Y006144D02*
X002987Y006144D01*
X001763Y005220D02*
X000901Y005220D01*
X000901Y006200D01*
X001763Y006200D01*
X001763Y005220D01*
X001763Y005304D02*
X000901Y005304D01*
X000901Y005388D02*
X001763Y005388D01*
X001763Y005472D02*
X000901Y005472D01*
X000901Y005556D02*
X001763Y005556D01*
X001763Y005640D02*
X000901Y005640D01*
X000901Y005724D02*
X001763Y005724D01*
X001763Y005808D02*
X000901Y005808D01*
X000901Y005892D02*
X001763Y005892D01*
X001763Y005976D02*
X000901Y005976D01*
X000901Y006060D02*
X001763Y006060D01*
X001763Y006144D02*
X000901Y006144D01*
X000901Y001913D02*
X001763Y001913D01*
X000901Y001913D02*
X000901Y002893D01*
X001763Y002893D01*
X001763Y001913D01*
X001763Y001997D02*
X000901Y001997D01*
X000901Y002081D02*
X001763Y002081D01*
X001763Y002165D02*
X000901Y002165D01*
X000901Y002249D02*
X001763Y002249D01*
X001763Y002333D02*
X000901Y002333D01*
X000901Y002417D02*
X001763Y002417D01*
X001763Y002501D02*
X000901Y002501D01*
X000901Y002585D02*
X001763Y002585D01*
X001763Y002669D02*
X000901Y002669D01*
X000901Y002753D02*
X001763Y002753D01*
X001763Y002837D02*
X000901Y002837D01*
X002987Y001913D02*
X003849Y001913D01*
X002987Y001913D02*
X002987Y002893D01*
X003849Y002893D01*
X003849Y001913D01*
X003849Y001997D02*
X002987Y001997D01*
X002987Y002081D02*
X003849Y002081D01*
X003849Y002165D02*
X002987Y002165D01*
X002987Y002249D02*
X003849Y002249D01*
X003849Y002333D02*
X002987Y002333D01*
X002987Y002417D02*
X003849Y002417D01*
X003849Y002501D02*
X002987Y002501D01*
X002987Y002585D02*
X003849Y002585D01*
X003849Y002669D02*
X002987Y002669D01*
X002987Y002753D02*
X003849Y002753D01*
X003849Y002837D02*
X002987Y002837D01*
D17*
X002631Y003367D03*
X002631Y004745D03*
D18*
X005756Y004056D03*
X005881Y003431D03*
X007006Y003431D03*
X007881Y003556D03*
X007881Y004306D03*
X006756Y004806D03*
X009256Y005056D03*
X011506Y004806D03*
X011756Y003431D03*
X011131Y002181D03*
X014881Y001431D03*
X013051Y000636D03*
X004381Y003306D03*
X010131Y006431D03*
M02*
