%
M48
M72
T01C0.0236
T02C0.0354
T03C0.0400
%
T01
X631Y681
X4381Y3306
X5881Y3431
X7006Y3431
X7881Y3556
X7881Y4306
X6756Y4806
X5756Y4056
X9256Y5056
X11506Y4806
X11756Y3431
X11131Y2181
X14881Y1431
X15631Y681
X13051Y636
X10131Y6431
X15631Y7181
X631Y7181
T02
X2631Y4745
X2631Y3367
T03
X16756Y2931
X17756Y2931
X17756Y1931
X16756Y1931
X16756Y931
X17756Y931
X17756Y3931
X16756Y3931
X16756Y4931
X17756Y4931
X17756Y5931
X16756Y5931
X16756Y6931
X17756Y6931
M30
