G75*
G70*
%OFA0B0*%
%FSLAX24Y24*%
%IPPOS*%
%LPD*%
%AMOC8*
5,1,8,0,0,1.08239X$1,22.5*
%
%ADD10R,0.0433X0.0394*%
%ADD11R,0.0315X0.0315*%
%ADD12R,0.0137X0.0550*%
%ADD13R,0.0394X0.0433*%
%ADD14R,0.0118X0.0551*%
%ADD15R,0.0551X0.0118*%
%ADD16R,0.0866X0.0984*%
%ADD17R,0.0787X0.0197*%
D10*
X005631Y001222D03*
X005631Y001891D03*
X009131Y001597D03*
X009131Y002266D03*
X011171Y006681D03*
X011841Y006681D03*
D11*
X007756Y001852D03*
X007131Y001852D03*
X006506Y001852D03*
X006506Y001261D03*
X007131Y001261D03*
X007756Y001261D03*
D12*
X007783Y002617D03*
X008039Y002617D03*
X008294Y002617D03*
X007527Y002617D03*
X007271Y002617D03*
X007015Y002617D03*
X006759Y002617D03*
X006503Y002617D03*
X006247Y002617D03*
X005991Y002617D03*
X005735Y002617D03*
X005479Y002617D03*
X005224Y002617D03*
X004968Y002617D03*
X004968Y005496D03*
X005224Y005496D03*
X005479Y005496D03*
X005735Y005496D03*
X005991Y005496D03*
X006247Y005496D03*
X006503Y005496D03*
X006759Y005496D03*
X007015Y005496D03*
X007271Y005496D03*
X007527Y005496D03*
X007783Y005496D03*
X008039Y005496D03*
X008294Y005496D03*
D13*
X009256Y004266D03*
X009256Y003597D03*
D14*
X011280Y005840D03*
X011476Y005840D03*
X011673Y005840D03*
X011870Y005840D03*
X012067Y005840D03*
X012264Y005840D03*
X012461Y005840D03*
X012658Y005840D03*
X012854Y005840D03*
X013051Y005840D03*
X013248Y005840D03*
X013445Y005840D03*
X013642Y005840D03*
X013839Y005840D03*
X014036Y005840D03*
X014232Y005840D03*
X014232Y001273D03*
X014036Y001273D03*
X013839Y001273D03*
X013642Y001273D03*
X013445Y001273D03*
X013248Y001273D03*
X013051Y001273D03*
X012854Y001273D03*
X012658Y001273D03*
X012461Y001273D03*
X012264Y001273D03*
X012067Y001273D03*
X011870Y001273D03*
X011673Y001273D03*
X011476Y001273D03*
X011280Y001273D03*
D15*
X010473Y002080D03*
X010473Y002277D03*
X010473Y002474D03*
X010473Y002671D03*
X010473Y002867D03*
X010473Y003064D03*
X010473Y003261D03*
X010473Y003458D03*
X010473Y003655D03*
X010473Y003852D03*
X010473Y004049D03*
X010473Y004245D03*
X010473Y004442D03*
X010473Y004639D03*
X010473Y004836D03*
X010473Y005033D03*
X015039Y005033D03*
X015039Y004836D03*
X015039Y004639D03*
X015039Y004442D03*
X015039Y004245D03*
X015039Y004049D03*
X015039Y003852D03*
X015039Y003655D03*
X015039Y003458D03*
X015039Y003261D03*
X015039Y003064D03*
X015039Y002867D03*
X015039Y002671D03*
X015039Y002474D03*
X015039Y002277D03*
X015039Y002080D03*
D16*
X001332Y002403D03*
X003418Y002403D03*
X003418Y005710D03*
X001332Y005710D03*
D17*
X003517Y004686D03*
X003517Y004371D03*
X003517Y004056D03*
X003517Y003741D03*
X003517Y003426D03*
M02*
