%
M48
M72
T01C0.0236
T02C0.0394
T03C0.0910
%
T01
X4253Y2979
X5878Y3479
X5753Y4104
X6753Y4854
X7878Y4354
X7878Y3604
X7003Y3479
X9253Y5104
X11503Y4854
X11753Y3479
X11128Y2229
X14878Y1479
X15876Y623
X16506Y3143
X18946Y3694
X20206Y4166
X21387Y3772
X21309Y3221
X23671Y3851
X24537Y4639
X25797Y4245
X28317Y7473
X20915Y5741
X18946Y5741
X18710Y6292
X18238Y6686
X15876Y5741
X17765Y8733
X25167Y623
X4380Y6607
T02
X2396Y4970
X2396Y3238
X31607Y3238
X31607Y4970
T03
X29734Y6830
X29734Y1660
M30
