G75*
G70*
%OFA0B0*%
%FSLAX24Y24*%
%IPPOS*%
%LPD*%
%AMOC8*
5,1,8,0,0,1.08239X$1,22.5*
%
%ADD10C,0.0050*%
%ADD11C,0.0040*%
%ADD12C,0.0000*%
D10*
X028279Y001660D02*
X033784Y001660D01*
X033784Y001695D02*
X033784Y006795D01*
X033784Y006830D02*
X028279Y006830D01*
X028274Y006805D02*
X028274Y001685D01*
X030734Y002245D02*
X033234Y002495D01*
X033234Y003745D01*
X030734Y003995D01*
X030734Y004495D02*
X033234Y004745D01*
X033234Y005995D01*
X030734Y006245D01*
D11*
X027504Y005995D02*
X027504Y005842D01*
X027581Y005765D01*
X027888Y005765D01*
X027964Y005842D01*
X027964Y005995D01*
X027888Y006072D01*
X027964Y006225D02*
X027504Y006225D01*
X027581Y006072D02*
X027504Y005995D01*
X027964Y006225D02*
X027504Y006532D01*
X027964Y006532D01*
X027888Y006686D02*
X027964Y006762D01*
X027964Y006916D01*
X027888Y006993D01*
X027811Y006993D01*
X027734Y006916D01*
X027657Y006993D01*
X027581Y006993D01*
X027504Y006916D01*
X027504Y006762D01*
X027581Y006686D01*
X027734Y006839D02*
X027734Y006916D01*
D12*
X029734Y004645D02*
X029734Y003845D01*
X029334Y004245D02*
X030134Y004245D01*
M02*
