G75*
G70*
%OFA0B0*%
%FSLAX24Y24*%
%IPPOS*%
%LPD*%
%AMOC8*
5,1,8,0,0,1.08239X$1,22.5*
%
%ADD10C,0.0000*%
D10*
X000128Y000229D02*
X000128Y021481D01*
X033828Y021481D01*
X033828Y000229D01*
X000128Y000229D01*
X002199Y003238D02*
X002201Y003265D01*
X002207Y003292D01*
X002216Y003318D01*
X002229Y003342D01*
X002245Y003365D01*
X002264Y003384D01*
X002286Y003401D01*
X002310Y003415D01*
X002335Y003425D01*
X002362Y003432D01*
X002389Y003435D01*
X002417Y003434D01*
X002444Y003429D01*
X002470Y003421D01*
X002494Y003409D01*
X002517Y003393D01*
X002538Y003375D01*
X002555Y003354D01*
X002570Y003330D01*
X002581Y003305D01*
X002589Y003279D01*
X002593Y003252D01*
X002593Y003224D01*
X002589Y003197D01*
X002581Y003171D01*
X002570Y003146D01*
X002555Y003122D01*
X002538Y003101D01*
X002517Y003083D01*
X002495Y003067D01*
X002470Y003055D01*
X002444Y003047D01*
X002417Y003042D01*
X002389Y003041D01*
X002362Y003044D01*
X002335Y003051D01*
X002310Y003061D01*
X002286Y003075D01*
X002264Y003092D01*
X002245Y003111D01*
X002229Y003134D01*
X002216Y003158D01*
X002207Y003184D01*
X002201Y003211D01*
X002199Y003238D01*
X002199Y004970D02*
X002201Y004997D01*
X002207Y005024D01*
X002216Y005050D01*
X002229Y005074D01*
X002245Y005097D01*
X002264Y005116D01*
X002286Y005133D01*
X002310Y005147D01*
X002335Y005157D01*
X002362Y005164D01*
X002389Y005167D01*
X002417Y005166D01*
X002444Y005161D01*
X002470Y005153D01*
X002494Y005141D01*
X002517Y005125D01*
X002538Y005107D01*
X002555Y005086D01*
X002570Y005062D01*
X002581Y005037D01*
X002589Y005011D01*
X002593Y004984D01*
X002593Y004956D01*
X002589Y004929D01*
X002581Y004903D01*
X002570Y004878D01*
X002555Y004854D01*
X002538Y004833D01*
X002517Y004815D01*
X002495Y004799D01*
X002470Y004787D01*
X002444Y004779D01*
X002417Y004774D01*
X002389Y004773D01*
X002362Y004776D01*
X002335Y004783D01*
X002310Y004793D01*
X002286Y004807D01*
X002264Y004824D01*
X002245Y004843D01*
X002229Y004866D01*
X002216Y004890D01*
X002207Y004916D01*
X002201Y004943D01*
X002199Y004970D01*
X031410Y004970D02*
X031412Y004997D01*
X031418Y005024D01*
X031427Y005050D01*
X031440Y005074D01*
X031456Y005097D01*
X031475Y005116D01*
X031497Y005133D01*
X031521Y005147D01*
X031546Y005157D01*
X031573Y005164D01*
X031600Y005167D01*
X031628Y005166D01*
X031655Y005161D01*
X031681Y005153D01*
X031705Y005141D01*
X031728Y005125D01*
X031749Y005107D01*
X031766Y005086D01*
X031781Y005062D01*
X031792Y005037D01*
X031800Y005011D01*
X031804Y004984D01*
X031804Y004956D01*
X031800Y004929D01*
X031792Y004903D01*
X031781Y004878D01*
X031766Y004854D01*
X031749Y004833D01*
X031728Y004815D01*
X031706Y004799D01*
X031681Y004787D01*
X031655Y004779D01*
X031628Y004774D01*
X031600Y004773D01*
X031573Y004776D01*
X031546Y004783D01*
X031521Y004793D01*
X031497Y004807D01*
X031475Y004824D01*
X031456Y004843D01*
X031440Y004866D01*
X031427Y004890D01*
X031418Y004916D01*
X031412Y004943D01*
X031410Y004970D01*
X031410Y003238D02*
X031412Y003265D01*
X031418Y003292D01*
X031427Y003318D01*
X031440Y003342D01*
X031456Y003365D01*
X031475Y003384D01*
X031497Y003401D01*
X031521Y003415D01*
X031546Y003425D01*
X031573Y003432D01*
X031600Y003435D01*
X031628Y003434D01*
X031655Y003429D01*
X031681Y003421D01*
X031705Y003409D01*
X031728Y003393D01*
X031749Y003375D01*
X031766Y003354D01*
X031781Y003330D01*
X031792Y003305D01*
X031800Y003279D01*
X031804Y003252D01*
X031804Y003224D01*
X031800Y003197D01*
X031792Y003171D01*
X031781Y003146D01*
X031766Y003122D01*
X031749Y003101D01*
X031728Y003083D01*
X031706Y003067D01*
X031681Y003055D01*
X031655Y003047D01*
X031628Y003042D01*
X031600Y003041D01*
X031573Y003044D01*
X031546Y003051D01*
X031521Y003061D01*
X031497Y003075D01*
X031475Y003092D01*
X031456Y003111D01*
X031440Y003134D01*
X031427Y003158D01*
X031418Y003184D01*
X031412Y003211D01*
X031410Y003238D01*
M02*
