G75*
G70*
%OFA0B0*%
%FSLAX24Y24*%
%IPPOS*%
%LPD*%
%AMOC8*
5,1,8,0,0,1.08239X$1,22.5*
%
%ADD10C,0.0000*%
%ADD11C,0.0100*%
%ADD12C,0.0010*%
%ADD13C,0.0030*%
%ADD14C,0.0120*%
%ADD15C,0.0070*%
%ADD16C,0.0160*%
%ADD17R,2.1732X0.3858*%
%ADD18R,1.3543X0.1102*%
%ADD19R,0.9167X0.0033*%
%ADD20R,0.9200X0.0033*%
%ADD21R,0.9200X0.0033*%
%ADD22R,0.0767X0.0033*%
%ADD23R,0.0367X0.0033*%
%ADD24R,0.2966X0.0033*%
%ADD25R,0.1933X0.0033*%
%ADD26R,0.0767X0.0033*%
%ADD27R,0.0033X0.0033*%
%ADD28R,0.0100X0.0033*%
%ADD29R,0.1100X0.0033*%
%ADD30R,0.0833X0.0033*%
%ADD31R,0.0800X0.0033*%
%ADD32R,0.0800X0.0033*%
%ADD33R,0.0100X0.0033*%
%ADD34R,0.0066X0.0033*%
%ADD35R,0.0067X0.0033*%
%ADD36R,0.0600X0.0033*%
%ADD37R,0.1800X0.0033*%
%ADD38R,0.2134X0.0033*%
%ADD39R,0.2934X0.0033*%
%ADD40R,0.7267X0.0033*%
%ADD41R,0.7233X0.0033*%
%ADD42R,0.7233X0.0033*%
%ADD43R,0.0700X0.0033*%
%ADD44R,0.6466X0.0033*%
%ADD45R,0.0667X0.0033*%
%ADD46R,0.6433X0.0033*%
%ADD47R,0.0633X0.0033*%
%ADD48R,0.6400X0.0033*%
%ADD49R,0.0600X0.0033*%
%ADD50R,0.4500X0.0033*%
%ADD51R,0.1900X0.0033*%
%ADD52R,0.0567X0.0033*%
%ADD53R,0.4500X0.0033*%
%ADD54R,0.1900X0.0033*%
%ADD55R,0.0533X0.0033*%
%ADD56R,0.4467X0.0033*%
%ADD57R,0.0500X0.0033*%
%ADD58R,0.0200X0.0033*%
%ADD59R,0.4167X0.0033*%
%ADD60R,0.0467X0.0033*%
%ADD61R,0.0134X0.0033*%
%ADD62R,0.4133X0.0033*%
%ADD63R,0.1800X0.0033*%
%ADD64R,0.0433X0.0033*%
%ADD65R,0.0433X0.0033*%
%ADD66R,0.4233X0.0033*%
%ADD67R,0.1833X0.0033*%
%ADD68R,0.0033X0.0033*%
%ADD69R,0.4134X0.0033*%
%ADD70R,0.1833X0.0033*%
%ADD71R,0.0500X0.0033*%
%ADD72R,0.0167X0.0033*%
%ADD73R,0.3834X0.0033*%
%ADD74R,0.3800X0.0033*%
%ADD75R,0.2100X0.0033*%
%ADD76R,0.0133X0.0033*%
%ADD77R,0.3766X0.0033*%
%ADD78R,0.2033X0.0033*%
%ADD79R,0.3733X0.0033*%
%ADD80R,0.0166X0.0033*%
%ADD81R,0.3700X0.0033*%
%ADD82R,0.0467X0.0033*%
%ADD83R,0.1533X0.0033*%
%ADD84R,0.0166X0.0033*%
%ADD85R,0.3533X0.0033*%
%ADD86R,0.1500X0.0033*%
%ADD87R,0.0933X0.0033*%
%ADD88R,0.3433X0.0033*%
%ADD89R,0.1533X0.0033*%
%ADD90R,0.0933X0.0033*%
%ADD91R,0.3433X0.0033*%
%ADD92R,0.1567X0.0033*%
%ADD93R,0.0900X0.0033*%
%ADD94R,0.0233X0.0033*%
%ADD95R,0.1100X0.0033*%
%ADD96R,0.0867X0.0033*%
%ADD97R,0.0266X0.0033*%
%ADD98R,0.0833X0.0033*%
%ADD99R,0.0233X0.0033*%
%ADD100R,0.3167X0.0033*%
%ADD101R,0.0533X0.0033*%
%ADD102R,0.0200X0.0033*%
%ADD103R,0.3100X0.0033*%
%ADD104R,0.0634X0.0033*%
%ADD105R,0.0967X0.0033*%
%ADD106R,0.3067X0.0033*%
%ADD107R,0.0400X0.0033*%
%ADD108R,0.1000X0.0033*%
%ADD109R,0.0900X0.0033*%
%ADD110R,0.0267X0.0033*%
%ADD111R,0.3034X0.0033*%
%ADD112R,0.0333X0.0033*%
%ADD113R,0.0034X0.0033*%
%ADD114R,0.1167X0.0033*%
%ADD115R,0.3000X0.0033*%
%ADD116R,0.0700X0.0033*%
%ADD117R,0.0733X0.0033*%
%ADD118R,0.1133X0.0033*%
%ADD119R,0.2967X0.0033*%
%ADD120R,0.1067X0.0033*%
%ADD121R,0.2967X0.0033*%
%ADD122R,0.0667X0.0033*%
%ADD123R,0.0867X0.0033*%
%ADD124R,0.0733X0.0033*%
%ADD125R,0.1067X0.0033*%
%ADD126R,0.1600X0.0033*%
%ADD127R,0.2633X0.0033*%
%ADD128R,0.1633X0.0033*%
%ADD129R,0.0167X0.0033*%
%ADD130R,0.2600X0.0033*%
%ADD131R,0.1666X0.0033*%
%ADD132R,0.1300X0.0033*%
%ADD133R,0.2567X0.0033*%
%ADD134R,0.1700X0.0033*%
%ADD135R,0.1267X0.0033*%
%ADD136R,0.2533X0.0033*%
%ADD137R,0.1733X0.0033*%
%ADD138R,0.1267X0.0033*%
%ADD139R,0.2567X0.0033*%
%ADD140R,0.0367X0.0033*%
%ADD141R,0.1433X0.0033*%
%ADD142R,0.1400X0.0033*%
%ADD143R,0.2166X0.0033*%
%ADD144R,0.1300X0.0033*%
%ADD145R,0.0133X0.0033*%
%ADD146R,0.2167X0.0033*%
%ADD147R,0.0633X0.0033*%
%ADD148R,0.1266X0.0033*%
%ADD149R,0.1367X0.0033*%
%ADD150R,0.2300X0.0033*%
%ADD151R,0.0267X0.0033*%
%ADD152R,0.1233X0.0033*%
%ADD153R,0.2233X0.0033*%
%ADD154R,0.0466X0.0033*%
%ADD155R,0.0333X0.0033*%
%ADD156R,0.0334X0.0033*%
%ADD157R,0.1400X0.0033*%
%ADD158R,0.2200X0.0033*%
%ADD159R,0.0400X0.0033*%
%ADD160R,0.0466X0.0033*%
%ADD161R,0.0300X0.0033*%
%ADD162R,0.2200X0.0033*%
%ADD163R,0.1467X0.0033*%
%ADD164R,0.2333X0.0033*%
%ADD165R,0.1500X0.0033*%
%ADD166R,0.1733X0.0033*%
%ADD167R,0.0334X0.0033*%
%ADD168R,0.1567X0.0033*%
%ADD169R,0.0366X0.0033*%
%ADD170R,0.0234X0.0033*%
%ADD171R,0.1600X0.0033*%
%ADD172R,0.1700X0.0033*%
%ADD173R,0.1967X0.0033*%
%ADD174R,0.1166X0.0033*%
%ADD175R,0.1667X0.0033*%
%ADD176R,0.1867X0.0033*%
%ADD177R,0.1667X0.0033*%
%ADD178R,0.1200X0.0033*%
%ADD179R,0.1867X0.0033*%
%ADD180R,0.1566X0.0033*%
%ADD181R,0.0300X0.0033*%
%ADD182R,0.1233X0.0033*%
%ADD183R,0.0534X0.0033*%
%ADD184R,0.1000X0.0033*%
%ADD185R,0.0666X0.0033*%
%ADD186R,0.0034X0.0033*%
%ADD187R,0.0966X0.0033*%
%ADD188R,0.1967X0.0033*%
%ADD189R,0.0067X0.0033*%
%ADD190R,0.0866X0.0033*%
%ADD191R,0.0566X0.0033*%
%ADD192R,0.2100X0.0033*%
%ADD193R,0.0234X0.0033*%
%ADD194R,0.0566X0.0033*%
%ADD195R,0.2367X0.0033*%
%ADD196R,0.2334X0.0033*%
%ADD197R,0.0134X0.0033*%
%ADD198R,0.0434X0.0033*%
%ADD199R,0.0434X0.0033*%
%ADD200R,0.2233X0.0033*%
%ADD201R,0.0634X0.0033*%
%ADD202R,0.2434X0.0033*%
%ADD203R,0.2400X0.0033*%
%ADD204R,0.2400X0.0033*%
%ADD205R,0.1200X0.0033*%
%ADD206R,0.2433X0.0033*%
%ADD207R,0.2666X0.0033*%
%ADD208R,0.1133X0.0033*%
%ADD209R,0.2666X0.0033*%
%ADD210R,0.1066X0.0033*%
%ADD211R,0.2600X0.0033*%
%ADD212R,0.1033X0.0033*%
%ADD213R,0.2634X0.0033*%
%ADD214R,0.1033X0.0033*%
%ADD215R,0.2634X0.0033*%
%ADD216R,0.2667X0.0033*%
%ADD217R,0.3033X0.0033*%
%ADD218R,0.3033X0.0033*%
%ADD219R,0.2767X0.0033*%
%ADD220R,0.1333X0.0033*%
%ADD221R,0.2733X0.0033*%
%ADD222R,0.1333X0.0033*%
%ADD223R,0.2300X0.0033*%
%ADD224R,0.2133X0.0033*%
%ADD225R,0.1167X0.0033*%
%ADD226R,0.0066X0.0033*%
%ADD227R,0.2033X0.0033*%
%ADD228R,0.2067X0.0033*%
%ADD229R,0.0734X0.0033*%
%ADD230R,0.0734X0.0033*%
%ADD231R,0.2167X0.0033*%
%ADD232R,0.2267X0.0033*%
%ADD233R,0.2267X0.0033*%
%ADD234R,0.2500X0.0033*%
%ADD235R,0.2467X0.0033*%
%ADD236R,0.2500X0.0033*%
%ADD237R,0.2333X0.0033*%
%ADD238R,0.1066X0.0033*%
%ADD239R,0.2133X0.0033*%
%ADD240R,0.0934X0.0033*%
%ADD241R,0.0967X0.0033*%
%ADD242R,0.0266X0.0033*%
%ADD243R,0.1666X0.0033*%
%ADD244R,0.1766X0.0033*%
%ADD245R,0.1766X0.0033*%
%ADD246R,0.0966X0.0033*%
%ADD247R,0.1767X0.0033*%
%ADD248R,0.0766X0.0033*%
%ADD249R,0.2034X0.0033*%
%ADD250R,0.2034X0.0033*%
%ADD251R,0.2234X0.0033*%
%ADD252R,0.2534X0.0033*%
%ADD253R,0.0534X0.0033*%
%ADD254R,0.2534X0.0033*%
%ADD255R,0.3000X0.0033*%
%ADD256R,0.2767X0.0033*%
%ADD257R,0.2800X0.0033*%
%ADD258R,0.3367X0.0033*%
%ADD259R,0.3400X0.0033*%
%ADD260R,0.3833X0.0033*%
%ADD261R,0.6700X0.0033*%
%ADD262R,0.7200X0.0033*%
%ADD263R,0.2000X0.0033*%
%ADD264R,0.2933X0.0033*%
%ADD265R,0.7400X0.0033*%
%ADD266R,0.4067X0.0033*%
%ADD267R,0.5100X0.0033*%
%ADD268R,0.4033X0.0033*%
%ADD269R,0.5133X0.0033*%
%ADD270R,0.4033X0.0033*%
%ADD271R,0.5133X0.0033*%
%ADD272R,0.4000X0.0033*%
%ADD273R,0.5167X0.0033*%
%ADD274R,0.4000X0.0033*%
%ADD275R,0.5167X0.0033*%
%ADD276R,0.3867X0.0033*%
%ADD277R,0.5200X0.0033*%
%ADD278R,0.0059X0.0118*%
%ADD279R,0.0118X0.0118*%
%ADD280C,0.0060*%
%ADD281C,0.0020*%
%ADD282C,0.0050*%
%ADD283R,0.0110X0.0382*%
%ADD284R,0.0382X0.0110*%
%ADD285C,0.0040*%
D10*
X000128Y000229D02*
X000128Y021481D01*
X033828Y021481D01*
X033828Y000229D01*
X000128Y000229D01*
X002199Y003238D02*
X002201Y003265D01*
X002207Y003292D01*
X002216Y003318D01*
X002229Y003342D01*
X002245Y003365D01*
X002264Y003384D01*
X002286Y003401D01*
X002310Y003415D01*
X002335Y003425D01*
X002362Y003432D01*
X002389Y003435D01*
X002417Y003434D01*
X002444Y003429D01*
X002470Y003421D01*
X002494Y003409D01*
X002517Y003393D01*
X002538Y003375D01*
X002555Y003354D01*
X002570Y003330D01*
X002581Y003305D01*
X002589Y003279D01*
X002593Y003252D01*
X002593Y003224D01*
X002589Y003197D01*
X002581Y003171D01*
X002570Y003146D01*
X002555Y003122D01*
X002538Y003101D01*
X002517Y003083D01*
X002495Y003067D01*
X002470Y003055D01*
X002444Y003047D01*
X002417Y003042D01*
X002389Y003041D01*
X002362Y003044D01*
X002335Y003051D01*
X002310Y003061D01*
X002286Y003075D01*
X002264Y003092D01*
X002245Y003111D01*
X002229Y003134D01*
X002216Y003158D01*
X002207Y003184D01*
X002201Y003211D01*
X002199Y003238D01*
X002003Y003704D02*
X002003Y004504D01*
X001603Y004104D02*
X002403Y004104D01*
X002199Y004970D02*
X002201Y004997D01*
X002207Y005024D01*
X002216Y005050D01*
X002229Y005074D01*
X002245Y005097D01*
X002264Y005116D01*
X002286Y005133D01*
X002310Y005147D01*
X002335Y005157D01*
X002362Y005164D01*
X002389Y005167D01*
X002417Y005166D01*
X002444Y005161D01*
X002470Y005153D01*
X002494Y005141D01*
X002517Y005125D01*
X002538Y005107D01*
X002555Y005086D01*
X002570Y005062D01*
X002581Y005037D01*
X002589Y005011D01*
X002593Y004984D01*
X002593Y004956D01*
X002589Y004929D01*
X002581Y004903D01*
X002570Y004878D01*
X002555Y004854D01*
X002538Y004833D01*
X002517Y004815D01*
X002495Y004799D01*
X002470Y004787D01*
X002444Y004779D01*
X002417Y004774D01*
X002389Y004773D01*
X002362Y004776D01*
X002335Y004783D01*
X002310Y004793D01*
X002286Y004807D01*
X002264Y004824D01*
X002245Y004843D01*
X002229Y004866D01*
X002216Y004890D01*
X002207Y004916D01*
X002201Y004943D01*
X002199Y004970D01*
X006228Y004104D02*
X007028Y004104D01*
X006628Y003704D02*
X006628Y004504D01*
X008911Y003979D02*
X009594Y003979D01*
X009253Y003637D02*
X009253Y004321D01*
X012353Y003604D02*
X013153Y003604D01*
X012753Y003204D02*
X012753Y004004D01*
X011503Y006404D02*
X011503Y007054D01*
X011178Y006729D02*
X011828Y006729D01*
X016735Y008182D02*
X017535Y008182D01*
X017135Y007782D02*
X017135Y008582D01*
X018789Y006377D02*
X018789Y005577D01*
X018389Y005977D02*
X019189Y005977D01*
X022383Y005035D02*
X022974Y005035D01*
X022679Y004740D02*
X022679Y005331D01*
X022679Y004534D02*
X022679Y003942D01*
X022974Y004238D02*
X022383Y004238D01*
X020673Y003300D02*
X020054Y003300D01*
X020364Y002990D02*
X020364Y003610D01*
X019378Y001939D02*
X019378Y001139D01*
X018978Y001539D02*
X019778Y001539D01*
X017817Y003221D02*
X017241Y003221D01*
X017529Y002933D02*
X017529Y003509D01*
X009469Y001210D02*
X008786Y001210D01*
X009128Y000869D02*
X009128Y001552D01*
X008036Y001210D02*
X007469Y001210D01*
X007411Y001210D02*
X006844Y001210D01*
X006707Y001210D02*
X006140Y001210D01*
X006424Y000927D02*
X006424Y001494D01*
X005753Y001210D02*
X005187Y001210D01*
X005470Y000927D02*
X005470Y001494D01*
X007128Y001494D02*
X007128Y000927D01*
X007753Y000927D02*
X007753Y001494D01*
X025739Y001372D02*
X026435Y001372D01*
X026087Y001024D02*
X026087Y001720D01*
X031410Y003238D02*
X031412Y003265D01*
X031418Y003292D01*
X031427Y003318D01*
X031440Y003342D01*
X031456Y003365D01*
X031475Y003384D01*
X031497Y003401D01*
X031521Y003415D01*
X031546Y003425D01*
X031573Y003432D01*
X031600Y003435D01*
X031628Y003434D01*
X031655Y003429D01*
X031681Y003421D01*
X031705Y003409D01*
X031728Y003393D01*
X031749Y003375D01*
X031766Y003354D01*
X031781Y003330D01*
X031792Y003305D01*
X031800Y003279D01*
X031804Y003252D01*
X031804Y003224D01*
X031800Y003197D01*
X031792Y003171D01*
X031781Y003146D01*
X031766Y003122D01*
X031749Y003101D01*
X031728Y003083D01*
X031706Y003067D01*
X031681Y003055D01*
X031655Y003047D01*
X031628Y003042D01*
X031600Y003041D01*
X031573Y003044D01*
X031546Y003051D01*
X031521Y003061D01*
X031497Y003075D01*
X031475Y003092D01*
X031456Y003111D01*
X031440Y003134D01*
X031427Y003158D01*
X031418Y003184D01*
X031412Y003211D01*
X031410Y003238D01*
X032001Y003704D02*
X032001Y004504D01*
X031601Y004104D02*
X032401Y004104D01*
X031410Y004970D02*
X031412Y004997D01*
X031418Y005024D01*
X031427Y005050D01*
X031440Y005074D01*
X031456Y005097D01*
X031475Y005116D01*
X031497Y005133D01*
X031521Y005147D01*
X031546Y005157D01*
X031573Y005164D01*
X031600Y005167D01*
X031628Y005166D01*
X031655Y005161D01*
X031681Y005153D01*
X031705Y005141D01*
X031728Y005125D01*
X031749Y005107D01*
X031766Y005086D01*
X031781Y005062D01*
X031792Y005037D01*
X031800Y005011D01*
X031804Y004984D01*
X031804Y004956D01*
X031800Y004929D01*
X031792Y004903D01*
X031781Y004878D01*
X031766Y004854D01*
X031749Y004833D01*
X031728Y004815D01*
X031706Y004799D01*
X031681Y004787D01*
X031655Y004779D01*
X031628Y004774D01*
X031600Y004773D01*
X031573Y004776D01*
X031546Y004783D01*
X031521Y004793D01*
X031497Y004807D01*
X031475Y004824D01*
X031456Y004843D01*
X031440Y004866D01*
X031427Y004890D01*
X031418Y004916D01*
X031412Y004943D01*
X031410Y004970D01*
D11*
X019773Y004993D02*
X019773Y006961D01*
X017805Y006961D01*
X017805Y004993D01*
X019773Y004993D01*
X019183Y006568D02*
X019185Y006595D01*
X019191Y006622D01*
X019200Y006648D01*
X019213Y006672D01*
X019229Y006695D01*
X019248Y006714D01*
X019270Y006731D01*
X019294Y006745D01*
X019319Y006755D01*
X019346Y006762D01*
X019373Y006765D01*
X019401Y006764D01*
X019428Y006759D01*
X019454Y006751D01*
X019478Y006739D01*
X019501Y006723D01*
X019522Y006705D01*
X019539Y006684D01*
X019554Y006660D01*
X019565Y006635D01*
X019573Y006609D01*
X019577Y006582D01*
X019577Y006554D01*
X019573Y006527D01*
X019565Y006501D01*
X019554Y006476D01*
X019539Y006452D01*
X019522Y006431D01*
X019501Y006413D01*
X019479Y006397D01*
X019454Y006385D01*
X019428Y006377D01*
X019401Y006372D01*
X019373Y006371D01*
X019346Y006374D01*
X019319Y006381D01*
X019294Y006391D01*
X019270Y006405D01*
X019248Y006422D01*
X019229Y006441D01*
X019213Y006464D01*
X019200Y006488D01*
X019191Y006514D01*
X019185Y006541D01*
X019183Y006568D01*
X008378Y001854D02*
X008253Y001979D01*
X008128Y001854D01*
X008253Y001979D02*
X008253Y001229D01*
D12*
X008758Y001119D02*
X008796Y001080D01*
X008815Y001042D02*
X008834Y001023D01*
X008834Y000965D01*
X008873Y000965D02*
X008758Y000965D01*
X008758Y001023D01*
X008777Y001042D01*
X008815Y001042D01*
X008834Y001004D02*
X008873Y001042D01*
X008873Y001080D02*
X008873Y001157D01*
X008873Y001119D02*
X008758Y001119D01*
X009383Y001138D02*
X009402Y001157D01*
X009421Y001157D01*
X009440Y001138D01*
X009459Y001157D01*
X009478Y001157D01*
X009498Y001138D01*
X009498Y001100D01*
X009478Y001080D01*
X009478Y001042D02*
X009498Y001023D01*
X009498Y000985D01*
X009478Y000965D01*
X009440Y001004D02*
X009440Y001023D01*
X009459Y001042D01*
X009478Y001042D01*
X009440Y001023D02*
X009421Y001042D01*
X009402Y001042D01*
X009383Y001023D01*
X009383Y000985D01*
X009402Y000965D01*
X009402Y001080D02*
X009383Y001100D01*
X009383Y001138D01*
X009440Y001138D02*
X009440Y001119D01*
X009402Y001196D02*
X009383Y001215D01*
X009383Y001253D01*
X009402Y001272D01*
X009478Y001196D01*
X009498Y001215D01*
X009498Y001253D01*
X009478Y001272D01*
X009402Y001272D01*
X009402Y001196D02*
X009478Y001196D01*
X007498Y001196D02*
X007498Y001253D01*
X007478Y001272D01*
X007402Y001272D01*
X007383Y001253D01*
X007383Y001196D01*
X007498Y001196D01*
X007498Y001157D02*
X007498Y001080D01*
X007383Y001080D01*
X007383Y001157D01*
X007440Y001119D02*
X007440Y001080D01*
X007498Y001042D02*
X007498Y000965D01*
X007383Y000965D01*
X007421Y001311D02*
X007383Y001349D01*
X007498Y001349D01*
X007498Y001311D02*
X007498Y001387D01*
X006873Y001387D02*
X006873Y001311D01*
X006758Y001311D01*
X006758Y001387D01*
X006758Y001426D02*
X006758Y001483D01*
X006777Y001502D01*
X006853Y001502D01*
X006873Y001483D01*
X006873Y001426D01*
X006758Y001426D01*
X006815Y001349D02*
X006815Y001311D01*
X006873Y001272D02*
X006873Y001196D01*
X006758Y001196D01*
X006758Y001157D02*
X006873Y001080D01*
X006873Y001004D02*
X006758Y001004D01*
X006758Y001042D02*
X006758Y000965D01*
X006758Y001080D02*
X006873Y001157D01*
X006169Y001157D02*
X006054Y001080D01*
X006073Y001042D02*
X006111Y001042D01*
X006130Y001023D01*
X006130Y000965D01*
X006130Y001004D02*
X006169Y001042D01*
X006169Y001080D02*
X006054Y001157D01*
X006054Y001196D02*
X006169Y001196D01*
X006169Y001272D01*
X006169Y001311D02*
X006169Y001387D01*
X006169Y001426D02*
X006169Y001483D01*
X006150Y001502D01*
X006073Y001502D01*
X006054Y001483D01*
X006054Y001426D01*
X006169Y001426D01*
X006111Y001349D02*
X006111Y001311D01*
X006054Y001311D02*
X006169Y001311D01*
X006054Y001311D02*
X006054Y001387D01*
X006073Y001042D02*
X006054Y001023D01*
X006054Y000965D01*
X006169Y000965D01*
X005215Y000965D02*
X005105Y000965D01*
X005105Y001020D01*
X005123Y001039D01*
X005160Y001039D01*
X005178Y001020D01*
X005178Y000965D01*
X005178Y001002D02*
X005215Y001039D01*
X005215Y001076D02*
X005142Y001149D01*
X005123Y001149D01*
X005105Y001131D01*
X005105Y001094D01*
X005123Y001076D01*
X005215Y001076D02*
X005215Y001149D01*
X005197Y001340D02*
X005215Y001359D01*
X005215Y001395D01*
X005197Y001414D01*
X005178Y001414D01*
X005160Y001395D01*
X005160Y001377D01*
X005160Y001395D02*
X005142Y001414D01*
X005123Y001414D01*
X005105Y001395D01*
X005105Y001359D01*
X005123Y001340D01*
X005123Y001451D02*
X005105Y001469D01*
X005105Y001506D01*
X005123Y001524D01*
X005142Y001524D01*
X005160Y001506D01*
X005178Y001524D01*
X005197Y001524D01*
X005215Y001506D01*
X005215Y001469D01*
X005197Y001451D01*
X005160Y001488D02*
X005160Y001506D01*
X005123Y001561D02*
X005105Y001580D01*
X005105Y001616D01*
X005123Y001635D01*
X005197Y001561D01*
X005215Y001580D01*
X005215Y001616D01*
X005197Y001635D01*
X005123Y001635D01*
X005123Y001561D02*
X005197Y001561D01*
X005927Y003949D02*
X005927Y004099D01*
X006027Y004099D01*
X006074Y004099D02*
X006175Y004099D01*
X006124Y004099D02*
X006124Y003949D01*
X006222Y003949D02*
X006322Y004049D01*
X006322Y004074D01*
X006297Y004099D01*
X006247Y004099D01*
X006222Y004074D01*
X006222Y003949D02*
X006322Y003949D01*
X006369Y003974D02*
X006394Y003949D01*
X006444Y003949D01*
X006469Y003974D01*
X006469Y003999D01*
X006444Y004024D01*
X006419Y004024D01*
X006444Y004024D02*
X006469Y004049D01*
X006469Y004074D01*
X006444Y004099D01*
X006394Y004099D01*
X006369Y004074D01*
X006516Y004074D02*
X006541Y004099D01*
X006591Y004099D01*
X006617Y004074D01*
X006617Y004049D01*
X006516Y003949D01*
X006617Y003949D01*
X006664Y003949D02*
X006664Y004099D01*
X006739Y004099D01*
X006764Y004074D01*
X006764Y004024D01*
X006739Y003999D01*
X006664Y003999D01*
X006714Y003999D02*
X006764Y003949D01*
X006811Y003949D02*
X006911Y003949D01*
X006958Y004024D02*
X007058Y004024D01*
X007106Y004024D02*
X007181Y004024D01*
X007206Y003999D01*
X007206Y003974D01*
X007181Y003949D01*
X007106Y003949D01*
X007106Y004099D01*
X007181Y004099D01*
X007206Y004074D01*
X007206Y004049D01*
X007181Y004024D01*
X007253Y004024D02*
X007353Y004024D01*
X007353Y004049D02*
X007353Y003949D01*
X007400Y003974D02*
X007425Y003949D01*
X007475Y003949D01*
X007500Y003974D01*
X007500Y003999D01*
X007475Y004024D01*
X007425Y004024D01*
X007400Y004049D01*
X007400Y004074D01*
X007425Y004099D01*
X007475Y004099D01*
X007500Y004074D01*
X007548Y004099D02*
X007598Y004099D01*
X007573Y004099D02*
X007573Y003949D01*
X007548Y003949D02*
X007598Y003949D01*
X007646Y003974D02*
X007671Y003949D01*
X007721Y003949D01*
X007746Y003974D01*
X007793Y003974D02*
X007818Y003949D01*
X007868Y003949D01*
X007893Y003974D01*
X007893Y003999D01*
X007868Y004024D01*
X007818Y004024D01*
X007793Y004049D01*
X007793Y004074D01*
X007818Y004099D01*
X007868Y004099D01*
X007893Y004074D01*
X007941Y004074D02*
X007941Y004049D01*
X007966Y004024D01*
X008016Y004024D01*
X008041Y003999D01*
X008041Y003974D01*
X008016Y003949D01*
X007966Y003949D01*
X007941Y003974D01*
X007941Y004074D02*
X007966Y004099D01*
X008016Y004099D01*
X008041Y004074D01*
X008088Y004074D02*
X008088Y003974D01*
X008113Y003949D01*
X008163Y003949D01*
X008188Y003974D01*
X008188Y004074D01*
X008163Y004099D01*
X008113Y004099D01*
X008088Y004074D01*
X008235Y004099D02*
X008310Y004099D01*
X008335Y004074D01*
X008335Y004024D01*
X008310Y003999D01*
X008235Y003999D01*
X008235Y003949D02*
X008235Y004099D01*
X007746Y004074D02*
X007721Y004099D01*
X007671Y004099D01*
X007646Y004074D01*
X007646Y003974D01*
X007353Y004049D02*
X007303Y004099D01*
X007253Y004049D01*
X007253Y003949D01*
X006811Y003949D02*
X006811Y004099D01*
X005977Y004024D02*
X005927Y004024D01*
X008883Y003907D02*
X008883Y003868D01*
X008902Y003849D01*
X008902Y003811D02*
X008883Y003792D01*
X008883Y003753D01*
X008902Y003734D01*
X008978Y003734D01*
X008998Y003753D01*
X008998Y003792D01*
X008978Y003811D01*
X008998Y003849D02*
X008921Y003926D01*
X008902Y003926D01*
X008883Y003907D01*
X008998Y003926D02*
X008998Y003849D01*
X009508Y003792D02*
X009527Y003811D01*
X009603Y003734D01*
X009623Y003753D01*
X009623Y003792D01*
X009603Y003811D01*
X009527Y003811D01*
X009508Y003792D02*
X009508Y003753D01*
X009527Y003734D01*
X009603Y003734D01*
X009603Y003849D02*
X009603Y003868D01*
X009623Y003868D01*
X009623Y003849D01*
X009603Y003849D01*
X009623Y003907D02*
X009623Y003983D01*
X009623Y003945D02*
X009508Y003945D01*
X009546Y003907D01*
X009565Y004041D02*
X009603Y004041D01*
X009642Y004041D01*
X009661Y004022D01*
X009623Y004060D02*
X009623Y004079D01*
X009603Y004098D01*
X009565Y004098D01*
X009565Y004137D02*
X009565Y004175D01*
X009508Y004137D02*
X009508Y004214D01*
X009508Y004137D02*
X009623Y004137D01*
X009623Y004060D02*
X009603Y004041D01*
X009377Y005359D02*
X009402Y005384D01*
X009402Y005484D01*
X009377Y005509D01*
X009302Y005509D01*
X009302Y005359D01*
X009377Y005359D01*
X009255Y005359D02*
X009155Y005509D01*
X009108Y005484D02*
X009108Y005434D01*
X009083Y005409D01*
X009008Y005409D01*
X009058Y005409D02*
X009108Y005359D01*
X009155Y005359D02*
X009255Y005509D01*
X009108Y005484D02*
X009083Y005509D01*
X009008Y005509D01*
X009008Y005359D01*
X011240Y007003D02*
X011259Y006984D01*
X011297Y006984D01*
X011316Y007003D01*
X011316Y007080D01*
X011240Y007003D01*
X011240Y007080D01*
X011259Y007099D01*
X011297Y007099D01*
X011316Y007080D01*
X011355Y007003D02*
X011374Y007003D01*
X011374Y006984D01*
X011355Y006984D01*
X011355Y007003D01*
X011412Y006984D02*
X011489Y006984D01*
X011451Y006984D02*
X011451Y007099D01*
X011412Y007061D01*
X011547Y007042D02*
X011547Y007003D01*
X011547Y006965D01*
X011527Y006946D01*
X011566Y006984D02*
X011547Y007003D01*
X011566Y006984D02*
X011585Y006984D01*
X011604Y007003D01*
X011604Y007042D01*
X011642Y007042D02*
X011681Y007042D01*
X011719Y007099D02*
X011642Y007099D01*
X011642Y006984D01*
X012122Y003629D02*
X012097Y003604D01*
X012097Y003529D01*
X012248Y003529D01*
X012248Y003604D01*
X012223Y003629D01*
X012122Y003629D01*
X012097Y003482D02*
X012248Y003381D01*
X012248Y003334D02*
X012198Y003284D01*
X012198Y003309D02*
X012198Y003234D01*
X012248Y003234D02*
X012097Y003234D01*
X012097Y003309D01*
X012122Y003334D01*
X012172Y003334D01*
X012198Y003309D01*
X012097Y003381D02*
X012248Y003482D01*
X011598Y002379D02*
X011497Y002379D01*
X011472Y002354D01*
X011472Y002279D01*
X011623Y002279D01*
X011623Y002354D01*
X011598Y002379D01*
X011623Y002232D02*
X011472Y002131D01*
X011472Y002084D02*
X011472Y001984D01*
X011472Y002034D02*
X011623Y002034D01*
X011623Y002131D02*
X011472Y002232D01*
X014758Y001134D02*
X014858Y001134D01*
X014905Y001134D02*
X015005Y000984D01*
X015052Y000984D02*
X015127Y000984D01*
X015152Y001009D01*
X015152Y001109D01*
X015127Y001134D01*
X015052Y001134D01*
X015052Y000984D01*
X014905Y000984D02*
X015005Y001134D01*
X014808Y001134D02*
X014808Y000984D01*
X017309Y003476D02*
X017359Y003476D01*
X017384Y003501D01*
X017431Y003501D02*
X017431Y003476D01*
X017431Y003501D02*
X017532Y003601D01*
X017532Y003626D01*
X017431Y003626D01*
X017384Y003601D02*
X017359Y003626D01*
X017309Y003626D01*
X017284Y003601D01*
X017284Y003501D01*
X017309Y003476D01*
X019565Y003224D02*
X019590Y003174D01*
X019640Y003124D01*
X019640Y003199D01*
X019665Y003224D01*
X019690Y003224D01*
X019715Y003199D01*
X019715Y003149D01*
X019690Y003124D01*
X019640Y003124D01*
X019590Y003076D02*
X019565Y003051D01*
X019565Y003001D01*
X019590Y002976D01*
X019690Y002976D01*
X019715Y003001D01*
X019715Y003051D01*
X019690Y003076D01*
X022198Y004542D02*
X022223Y004517D01*
X022273Y004517D01*
X022298Y004542D01*
X022298Y004567D01*
X022273Y004592D01*
X022248Y004592D01*
X022273Y004592D02*
X022298Y004617D01*
X022298Y004642D01*
X022273Y004667D01*
X022223Y004667D01*
X022198Y004642D01*
X022345Y004642D02*
X022370Y004667D01*
X022420Y004667D01*
X022445Y004642D01*
X022445Y004617D01*
X022420Y004592D01*
X022445Y004567D01*
X022445Y004542D01*
X022420Y004517D01*
X022370Y004517D01*
X022345Y004542D01*
X022395Y004592D02*
X022420Y004592D01*
X022827Y004543D02*
X022903Y004543D01*
X022928Y004568D01*
X022928Y004618D01*
X022903Y004643D01*
X022827Y004643D01*
X022827Y004493D01*
X022877Y004543D02*
X022928Y004493D01*
X022975Y004518D02*
X023000Y004493D01*
X023050Y004493D01*
X023075Y004518D01*
X023075Y004543D01*
X023050Y004568D01*
X023025Y004568D01*
X023050Y004568D02*
X023075Y004593D01*
X023075Y004618D01*
X023050Y004643D01*
X023000Y004643D01*
X022975Y004618D01*
X023000Y005314D02*
X022975Y005339D01*
X023000Y005314D02*
X023050Y005314D01*
X023075Y005339D01*
X023075Y005364D01*
X023050Y005389D01*
X023025Y005389D01*
X023050Y005389D02*
X023075Y005414D01*
X023075Y005439D01*
X023050Y005464D01*
X023000Y005464D01*
X022975Y005439D01*
X022928Y005439D02*
X022928Y005414D01*
X022903Y005389D01*
X022928Y005364D01*
X022928Y005339D01*
X022903Y005314D01*
X022852Y005314D01*
X022827Y005339D01*
X022877Y005389D02*
X022903Y005389D01*
X022928Y005439D02*
X022903Y005464D01*
X022852Y005464D01*
X022827Y005439D01*
X022445Y005365D02*
X022345Y005365D01*
X022420Y005440D01*
X022420Y005290D01*
X022298Y005290D02*
X022248Y005340D01*
X022273Y005340D02*
X022198Y005340D01*
X022198Y005290D02*
X022198Y005440D01*
X022273Y005440D01*
X022298Y005415D01*
X022298Y005365D01*
X022273Y005340D01*
X025501Y001743D02*
X025501Y001642D01*
X025651Y001642D01*
X025651Y001595D02*
X025551Y001595D01*
X025576Y001642D02*
X025576Y001693D01*
X025651Y001595D02*
X025651Y001520D01*
X025626Y001495D01*
X025551Y001495D01*
X025526Y001448D02*
X025626Y001348D01*
X025651Y001373D01*
X025651Y001423D01*
X025626Y001448D01*
X025526Y001448D01*
X025501Y001423D01*
X025501Y001373D01*
X025526Y001348D01*
X025626Y001348D01*
X025626Y001299D02*
X025651Y001299D01*
X025651Y001274D01*
X025626Y001274D01*
X025626Y001299D01*
X025682Y001299D02*
X025682Y001349D01*
X025707Y001374D01*
X025732Y001374D01*
X025757Y001349D01*
X025782Y001374D01*
X025807Y001374D01*
X025832Y001349D01*
X025832Y001299D01*
X025807Y001274D01*
X025807Y001227D02*
X025832Y001202D01*
X025832Y001152D01*
X025807Y001127D01*
X025707Y001127D01*
X025682Y001152D01*
X025682Y001202D01*
X025707Y001227D01*
X025707Y001274D02*
X025682Y001299D01*
X025651Y001227D02*
X025651Y001127D01*
X025651Y001177D02*
X025501Y001177D01*
X025551Y001127D01*
X025757Y001324D02*
X025757Y001349D01*
D13*
X020374Y007063D02*
X020374Y007353D01*
X020229Y007208D01*
X020422Y007208D01*
X020127Y007111D02*
X020127Y007353D01*
X019934Y007353D02*
X019934Y007111D01*
X019982Y007063D01*
X020079Y007063D01*
X020127Y007111D01*
X020182Y008008D02*
X020134Y008056D01*
X020182Y008008D02*
X020279Y008008D01*
X020327Y008056D01*
X020327Y008105D01*
X020279Y008153D01*
X020182Y008153D01*
X020134Y008201D01*
X020134Y008250D01*
X020182Y008298D01*
X020279Y008298D01*
X020327Y008250D01*
X020428Y008298D02*
X020428Y008008D01*
X020622Y008008D02*
X020622Y008298D01*
X020525Y008201D01*
X020428Y008298D01*
X020723Y008298D02*
X020723Y008008D01*
X020868Y008008D01*
X020916Y008056D01*
X020916Y008250D01*
X020868Y008298D01*
X020723Y008298D01*
X020032Y008298D02*
X019839Y008298D01*
X019839Y008008D01*
X020032Y008008D01*
X019936Y008153D02*
X019839Y008153D01*
X019738Y008008D02*
X019544Y008008D01*
X019641Y008008D02*
X019641Y008298D01*
X019544Y008201D01*
X019443Y008201D02*
X019443Y008250D01*
X019395Y008298D01*
X019298Y008298D01*
X019250Y008250D01*
X019149Y008153D02*
X018955Y008153D01*
X019100Y008298D01*
X019100Y008008D01*
X019250Y008008D02*
X019443Y008201D01*
X019443Y008008D02*
X019250Y008008D01*
X018854Y008056D02*
X018854Y008105D01*
X018805Y008153D01*
X018757Y008153D01*
X018805Y008153D02*
X018854Y008201D01*
X018854Y008250D01*
X018805Y008298D01*
X018709Y008298D01*
X018660Y008250D01*
X018559Y008298D02*
X018366Y008008D01*
X018265Y008008D02*
X018265Y008201D01*
X018168Y008298D01*
X018071Y008201D01*
X018071Y008008D01*
X017970Y008008D02*
X017970Y008298D01*
X017873Y008201D01*
X017776Y008298D01*
X017776Y008008D01*
X018071Y008153D02*
X018265Y008153D01*
X018366Y008298D02*
X018559Y008008D01*
X018660Y008056D02*
X018709Y008008D01*
X018805Y008008D01*
X018854Y008056D01*
X016512Y008602D02*
X016318Y008602D01*
X016318Y008312D01*
X016217Y008360D02*
X016217Y008457D01*
X016217Y008360D02*
X016169Y008312D01*
X016120Y008312D01*
X016072Y008360D01*
X016072Y008264D01*
X016024Y008215D01*
X015923Y008312D02*
X015729Y008312D01*
X015826Y008312D02*
X015826Y008602D01*
X015729Y008505D01*
X015630Y008360D02*
X015630Y008312D01*
X015582Y008312D01*
X015582Y008360D01*
X015630Y008360D01*
X015481Y008360D02*
X015481Y008554D01*
X015287Y008360D01*
X015335Y008312D01*
X015432Y008312D01*
X015481Y008360D01*
X015481Y008554D02*
X015432Y008602D01*
X015335Y008602D01*
X015287Y008554D01*
X015287Y008360D01*
X016072Y008360D02*
X016072Y008457D01*
X016072Y008651D02*
X016169Y008651D01*
X016217Y008699D01*
X016318Y008796D02*
X016512Y008796D01*
X016464Y008941D02*
X016318Y008796D01*
X016217Y008892D02*
X016169Y008941D01*
X016072Y008941D01*
X016024Y008892D01*
X016024Y008699D01*
X016072Y008651D01*
X016318Y008457D02*
X016415Y008457D01*
X016464Y008651D02*
X016464Y008941D01*
X014484Y002909D02*
X014533Y002861D01*
X014533Y002813D01*
X014484Y002764D01*
X014387Y002764D01*
X014339Y002813D01*
X014339Y002861D01*
X014387Y002909D01*
X014484Y002909D01*
X014484Y002764D02*
X014533Y002716D01*
X014533Y002668D01*
X014484Y002619D01*
X014387Y002619D01*
X014339Y002668D01*
X014339Y002716D01*
X014387Y002764D01*
X014238Y002619D02*
X014044Y002619D01*
X014141Y002619D02*
X014141Y002909D01*
X014044Y002813D01*
X013943Y002909D02*
X013847Y002861D01*
X013750Y002764D01*
X013895Y002764D01*
X013943Y002716D01*
X013943Y002668D01*
X013895Y002619D01*
X013798Y002619D01*
X013750Y002668D01*
X013750Y002764D01*
X013649Y002813D02*
X013649Y002861D01*
X013600Y002909D01*
X013503Y002909D01*
X013455Y002861D01*
X013354Y002909D02*
X013160Y002909D01*
X013160Y002619D01*
X013059Y002668D02*
X013011Y002619D01*
X012914Y002619D01*
X012866Y002668D01*
X013059Y002861D01*
X013059Y002668D01*
X013160Y002764D02*
X013257Y002764D01*
X013059Y002861D02*
X013011Y002909D01*
X012914Y002909D01*
X012866Y002861D01*
X012866Y002668D01*
X012765Y002668D02*
X012716Y002619D01*
X012620Y002619D01*
X012571Y002668D01*
X012668Y002764D02*
X012716Y002764D01*
X012765Y002716D01*
X012765Y002668D01*
X012716Y002764D02*
X012765Y002813D01*
X012765Y002861D01*
X012716Y002909D01*
X012620Y002909D01*
X012571Y002861D01*
X012470Y002764D02*
X012277Y002764D01*
X012422Y002909D01*
X012422Y002619D01*
X012175Y002764D02*
X012127Y002716D01*
X011982Y002716D01*
X011982Y002619D02*
X011982Y002909D01*
X012127Y002909D01*
X012175Y002861D01*
X012175Y002764D01*
X011881Y002716D02*
X011881Y002668D01*
X011832Y002619D01*
X011736Y002619D01*
X011687Y002668D01*
X011736Y002764D02*
X011832Y002764D01*
X011881Y002716D01*
X011881Y002861D02*
X011832Y002909D01*
X011736Y002909D01*
X011687Y002861D01*
X011687Y002813D01*
X011736Y002764D01*
X011586Y002909D02*
X011586Y002619D01*
X011393Y002619D02*
X011393Y002909D01*
X011489Y002813D01*
X011586Y002909D01*
X013455Y002619D02*
X013649Y002813D01*
X013649Y002619D02*
X013455Y002619D01*
X005384Y006013D02*
X005190Y006013D01*
X005384Y006206D01*
X005384Y006255D01*
X005336Y006303D01*
X005239Y006303D01*
X005190Y006255D01*
X005089Y006303D02*
X005089Y006061D01*
X005041Y006013D01*
X004944Y006013D01*
X004896Y006061D01*
X004896Y006303D01*
D14*
X005034Y019817D02*
X004804Y020047D01*
X005034Y019817D02*
X005494Y019817D01*
X005724Y020047D01*
X005724Y020277D01*
X005494Y020507D01*
X005034Y020507D01*
X004804Y020737D01*
X004804Y020968D01*
X005034Y021198D01*
X005494Y021198D01*
X005724Y020968D01*
X006185Y021198D02*
X006185Y020047D01*
X006415Y019817D01*
X006875Y019817D01*
X007106Y020047D01*
X007106Y021198D01*
X007566Y020968D02*
X007566Y020047D01*
X007796Y019817D01*
X008256Y019817D01*
X008487Y020047D01*
X008947Y019817D02*
X008947Y021198D01*
X008487Y020968D02*
X008256Y021198D01*
X007796Y021198D01*
X007566Y020968D01*
X008947Y020507D02*
X009868Y020507D01*
X009868Y019817D02*
X009868Y021198D01*
X011709Y021198D02*
X012400Y021198D01*
X012630Y020968D01*
X012630Y020737D01*
X012400Y020507D01*
X011709Y020507D01*
X012400Y020507D02*
X012630Y020277D01*
X012630Y020047D01*
X012400Y019817D01*
X011709Y019817D01*
X011709Y021198D01*
X013091Y020737D02*
X013551Y021198D01*
X014011Y020737D01*
X014011Y019817D01*
X014472Y019817D02*
X015162Y019817D01*
X015393Y020047D01*
X015393Y020968D01*
X015162Y021198D01*
X014472Y021198D01*
X014472Y019817D01*
X014011Y020507D02*
X013091Y020507D01*
X013091Y020737D02*
X013091Y019817D01*
X015853Y020047D02*
X016083Y019817D01*
X016544Y019817D01*
X016774Y020047D01*
X016774Y020507D01*
X016313Y020507D01*
X015853Y020047D02*
X015853Y020968D01*
X016083Y021198D01*
X016544Y021198D01*
X016774Y020968D01*
X017234Y021198D02*
X017234Y019817D01*
X018155Y019817D01*
X017695Y020507D02*
X017234Y020507D01*
X017234Y021198D02*
X018155Y021198D01*
X002962Y020968D02*
X002962Y020047D01*
X002732Y019817D01*
X002271Y019817D01*
X002041Y020047D01*
X002041Y020968D01*
X002271Y021198D01*
X002732Y021198D01*
X002962Y020968D01*
X001581Y021198D02*
X001581Y019817D01*
X000660Y021198D01*
X000660Y019817D01*
D15*
X000714Y018541D02*
X001241Y017751D01*
X001241Y018541D01*
X001506Y018146D02*
X001506Y017882D01*
X001637Y017751D01*
X001901Y017751D01*
X002033Y017882D01*
X002033Y018146D01*
X001901Y018278D01*
X001637Y018278D01*
X001506Y018146D01*
X002297Y018278D02*
X002297Y017751D01*
X002561Y017751D02*
X002561Y018146D01*
X002693Y018278D01*
X002825Y018146D01*
X002825Y017751D01*
X003089Y017751D02*
X003089Y017882D01*
X003221Y017882D01*
X003221Y017751D01*
X003089Y017751D01*
X003089Y018146D02*
X003089Y018278D01*
X003221Y018278D01*
X003221Y018146D01*
X003089Y018146D01*
X002561Y018146D02*
X002429Y018278D01*
X002297Y018278D01*
X002561Y017383D02*
X002297Y017251D01*
X002297Y016988D02*
X002561Y016988D01*
X002693Y016856D01*
X002693Y016724D01*
X002166Y016724D01*
X002166Y016592D02*
X002166Y016856D01*
X002297Y016988D01*
X001901Y016988D02*
X001769Y016988D01*
X001506Y016724D01*
X001506Y016461D02*
X001506Y016988D01*
X001241Y017119D02*
X001241Y016856D01*
X001109Y016724D01*
X000714Y016724D01*
X000714Y016461D02*
X000714Y017251D01*
X001109Y017251D01*
X001241Y017119D01*
X000714Y017751D02*
X000714Y018541D01*
X002957Y016988D02*
X003353Y016988D01*
X003485Y016856D01*
X003485Y016461D01*
X003749Y016592D02*
X003881Y016461D01*
X004145Y016461D01*
X004276Y016592D01*
X004276Y016856D01*
X004145Y016988D01*
X003881Y016988D01*
X003749Y016856D01*
X003749Y016592D01*
X004541Y016461D02*
X004541Y016988D01*
X004673Y016988D01*
X004805Y016856D01*
X004936Y016988D01*
X005068Y016856D01*
X005068Y016461D01*
X004805Y016461D02*
X004805Y016856D01*
X005333Y016856D02*
X005465Y016988D01*
X005860Y016988D01*
X006125Y016988D02*
X006125Y016856D01*
X006257Y016856D01*
X006257Y016988D01*
X006125Y016988D01*
X006125Y016592D02*
X006125Y016461D01*
X006257Y016461D01*
X006257Y016592D01*
X006125Y016592D01*
X005860Y016592D02*
X005728Y016724D01*
X005465Y016724D01*
X005333Y016856D01*
X005333Y016461D02*
X005728Y016461D01*
X005860Y016592D01*
X005993Y016093D02*
X005993Y015961D01*
X005993Y015698D02*
X005993Y015171D01*
X006124Y015171D02*
X005861Y015171D01*
X005596Y015302D02*
X005464Y015434D01*
X005201Y015434D01*
X005069Y015566D01*
X005201Y015698D01*
X005596Y015698D01*
X005861Y015698D02*
X005993Y015698D01*
X006389Y015566D02*
X006389Y015302D01*
X006521Y015171D01*
X006784Y015171D01*
X006916Y015302D01*
X006916Y015566D01*
X006784Y015698D01*
X006521Y015698D01*
X006389Y015566D01*
X005596Y015302D02*
X005464Y015171D01*
X005069Y015171D01*
X004804Y015302D02*
X004673Y015434D01*
X004409Y015434D01*
X004277Y015566D01*
X004409Y015698D01*
X004804Y015698D01*
X004804Y015302D02*
X004673Y015171D01*
X004277Y015171D01*
X004012Y015434D02*
X003485Y015434D01*
X003485Y015302D02*
X003485Y015566D01*
X003617Y015698D01*
X003881Y015698D01*
X004012Y015566D01*
X004012Y015434D01*
X003881Y015171D02*
X003617Y015171D01*
X003485Y015302D01*
X003221Y015566D02*
X002957Y015566D01*
X002693Y015566D02*
X002693Y015302D01*
X002561Y015171D01*
X002297Y015171D01*
X002166Y015302D01*
X002166Y015566D01*
X002297Y015698D01*
X002561Y015698D01*
X002693Y015566D01*
X003089Y015829D02*
X003089Y015171D01*
X003089Y015829D02*
X003221Y015961D01*
X002957Y016461D02*
X002957Y016988D01*
X002561Y016461D02*
X002297Y016461D01*
X002166Y016592D01*
X001241Y015829D02*
X001241Y015566D01*
X001109Y015434D01*
X000714Y015434D01*
X000714Y015171D02*
X000714Y015961D01*
X001109Y015961D01*
X001241Y015829D01*
X001506Y015698D02*
X001506Y015171D01*
X001506Y015434D02*
X001769Y015698D01*
X001901Y015698D01*
X001241Y014671D02*
X001241Y013881D01*
X000714Y014671D01*
X000714Y013881D01*
X001506Y014012D02*
X001506Y014276D01*
X001637Y014408D01*
X001901Y014408D01*
X002033Y014276D01*
X002033Y014012D01*
X001901Y013881D01*
X001637Y013881D01*
X001506Y014012D01*
X002297Y013881D02*
X002297Y014408D01*
X002429Y014408D01*
X002561Y014276D01*
X002693Y014408D01*
X002825Y014276D01*
X002825Y013881D01*
X002561Y013881D02*
X002561Y014276D01*
X003881Y014276D02*
X003881Y014012D01*
X004013Y013881D01*
X004277Y013881D01*
X004408Y014144D02*
X003881Y014144D01*
X003881Y014276D02*
X004013Y014408D01*
X004277Y014408D01*
X004408Y014276D01*
X004408Y014144D01*
X004673Y013881D02*
X004673Y014408D01*
X005068Y014408D01*
X005200Y014276D01*
X005200Y013881D01*
X006257Y013881D02*
X006257Y014408D01*
X006520Y014408D02*
X006257Y014144D01*
X006520Y014408D02*
X006652Y014408D01*
X006917Y014276D02*
X006917Y014012D01*
X007049Y013881D01*
X007312Y013881D01*
X007444Y014144D02*
X006917Y014144D01*
X006917Y014276D02*
X007049Y014408D01*
X007312Y014408D01*
X007444Y014276D01*
X007444Y014144D01*
X007709Y013881D02*
X007972Y013881D01*
X007840Y013881D02*
X007840Y014671D01*
X007709Y014671D01*
X007708Y015171D02*
X007708Y015566D01*
X007576Y015698D01*
X007181Y015698D01*
X007181Y015171D01*
X007973Y015171D02*
X007973Y015302D01*
X008104Y015302D01*
X008104Y015171D01*
X007973Y015171D01*
X007973Y015566D02*
X007973Y015698D01*
X008104Y015698D01*
X008104Y015566D01*
X007973Y015566D01*
X009160Y015171D02*
X009160Y015961D01*
X009688Y015171D01*
X009688Y015961D01*
X009952Y015566D02*
X010084Y015698D01*
X010348Y015698D01*
X010479Y015566D01*
X010479Y015434D01*
X009952Y015434D01*
X009952Y015302D02*
X009952Y015566D01*
X009952Y015302D02*
X010084Y015171D01*
X010348Y015171D01*
X010744Y015171D02*
X011008Y015171D01*
X010876Y015171D02*
X010876Y015698D01*
X010744Y015698D01*
X010876Y015961D02*
X010876Y016093D01*
X011272Y015566D02*
X011272Y015302D01*
X011404Y015171D01*
X011799Y015171D01*
X011799Y015039D02*
X011799Y015698D01*
X011404Y015698D01*
X011272Y015566D01*
X012064Y015566D02*
X012196Y015698D01*
X012459Y015698D01*
X012591Y015566D01*
X012591Y015171D01*
X012856Y015171D02*
X013251Y015171D01*
X013383Y015302D01*
X013383Y015566D01*
X013251Y015698D01*
X012856Y015698D01*
X012856Y015961D02*
X012856Y015171D01*
X012064Y015171D02*
X012064Y015961D01*
X011799Y015039D02*
X011667Y014907D01*
X011536Y014907D01*
X011271Y014408D02*
X010876Y014408D01*
X010876Y013881D01*
X010611Y014012D02*
X010611Y014276D01*
X010480Y014408D01*
X010216Y014408D01*
X010084Y014276D01*
X010084Y014012D01*
X010216Y013881D01*
X010480Y013881D01*
X010611Y014012D01*
X011271Y014408D02*
X011403Y014276D01*
X011403Y013881D01*
X012460Y014012D02*
X012592Y013881D01*
X012855Y013881D01*
X012987Y014012D01*
X012987Y014276D01*
X012855Y014408D01*
X012592Y014408D01*
X012460Y014276D01*
X012460Y014012D01*
X013252Y014012D02*
X013384Y013881D01*
X013779Y013881D01*
X013779Y014408D01*
X013252Y014408D02*
X013252Y014012D01*
X014836Y013881D02*
X015231Y013881D01*
X015363Y014012D01*
X015363Y014276D01*
X015231Y014408D01*
X014836Y014408D01*
X014836Y013617D01*
X015627Y013881D02*
X016023Y013881D01*
X016155Y014012D01*
X016023Y014144D01*
X015759Y014144D01*
X015627Y014276D01*
X015759Y014408D01*
X016155Y014408D01*
X016419Y014276D02*
X016419Y014012D01*
X016551Y013881D01*
X016815Y013881D01*
X016946Y014144D02*
X016419Y014144D01*
X016419Y014276D02*
X016551Y014408D01*
X016815Y014408D01*
X016946Y014276D01*
X016946Y014144D01*
X017211Y014012D02*
X017211Y014408D01*
X017211Y014012D02*
X017343Y013881D01*
X017738Y013881D01*
X017738Y014408D01*
X018003Y014276D02*
X018003Y014012D01*
X018135Y013881D01*
X018530Y013881D01*
X018530Y014671D01*
X018530Y014408D02*
X018135Y014408D01*
X018003Y014276D01*
X018795Y014276D02*
X018795Y014012D01*
X018927Y013881D01*
X019190Y013881D01*
X019322Y014012D01*
X019322Y014276D01*
X019190Y014408D01*
X018927Y014408D01*
X018795Y014276D01*
X019587Y014408D02*
X019587Y013881D01*
X019587Y014408D02*
X019982Y014408D01*
X020114Y014276D01*
X020114Y013881D01*
X020379Y014012D02*
X020510Y013881D01*
X020906Y013881D01*
X020906Y013749D02*
X020774Y013617D01*
X020642Y013617D01*
X020906Y013749D02*
X020906Y014408D01*
X021171Y014408D02*
X021302Y014408D01*
X021434Y014276D01*
X021566Y014408D01*
X021698Y014276D01*
X021698Y013881D01*
X021434Y013881D02*
X021434Y014276D01*
X021171Y014408D02*
X021171Y013881D01*
X021962Y014012D02*
X021962Y014276D01*
X022094Y014408D01*
X022358Y014408D01*
X022490Y014276D01*
X022490Y014144D01*
X021962Y014144D01*
X021962Y014012D02*
X022094Y013881D01*
X022358Y013881D01*
X022754Y013881D02*
X022754Y014012D01*
X022886Y014012D01*
X022886Y013881D01*
X022754Y013881D01*
X022754Y014276D02*
X022754Y014408D01*
X022886Y014408D01*
X022886Y014276D01*
X022754Y014276D01*
X020379Y014408D02*
X020379Y014012D01*
X014835Y015698D02*
X014703Y015698D01*
X014440Y015434D01*
X014440Y015171D02*
X014440Y015698D01*
X014175Y015566D02*
X014175Y015302D01*
X014043Y015171D01*
X013779Y015171D01*
X013648Y015302D01*
X013648Y015566D01*
X013779Y015698D01*
X014043Y015698D01*
X014175Y015566D01*
X009688Y014803D02*
X009688Y014671D01*
X009688Y014408D02*
X009688Y013881D01*
X009556Y013881D02*
X009820Y013881D01*
X009292Y013881D02*
X008896Y013881D01*
X008764Y014012D01*
X008764Y014276D01*
X008896Y014408D01*
X009292Y014408D01*
X009292Y013749D01*
X009160Y013617D01*
X009028Y013617D01*
X008500Y013881D02*
X008237Y013881D01*
X008368Y013881D02*
X008368Y014408D01*
X008237Y014408D01*
X008368Y014671D02*
X008368Y014803D01*
X009556Y014408D02*
X009688Y014408D01*
D16*
X000206Y019127D02*
X019453Y019127D01*
X019453Y021410D01*
D17*
X012017Y011528D03*
D18*
X016112Y016686D03*
X016112Y017946D03*
X016112Y018103D03*
D19*
X028168Y011018D03*
D20*
X028151Y011052D03*
X028151Y011085D03*
X028151Y011152D03*
X028151Y011185D03*
X028151Y011252D03*
X028151Y011285D03*
X028151Y011352D03*
X028151Y011385D03*
X028151Y011452D03*
X028151Y011485D03*
X028151Y011552D03*
X028151Y011585D03*
X028151Y011652D03*
X028151Y011685D03*
X028151Y011752D03*
X028151Y019552D03*
X028151Y019585D03*
X028151Y019652D03*
X028151Y019685D03*
X028151Y019752D03*
X028151Y019785D03*
X028151Y019852D03*
X028151Y019885D03*
X028151Y020052D03*
X028151Y020152D03*
X028151Y020185D03*
D21*
X028151Y019918D03*
X028151Y019818D03*
X028151Y019718D03*
X028151Y019618D03*
X028151Y019518D03*
X028151Y011718D03*
X028151Y011618D03*
X028151Y011518D03*
X028151Y011418D03*
X028151Y011318D03*
X028151Y011218D03*
X028151Y011118D03*
D22*
X023935Y011785D03*
X023935Y011852D03*
X023935Y011885D03*
X023935Y011952D03*
X023935Y011985D03*
X023935Y012052D03*
X023935Y012085D03*
X023935Y012152D03*
X023935Y012185D03*
X023935Y012252D03*
X023935Y012285D03*
X023935Y012352D03*
X023935Y012385D03*
X023935Y012452D03*
X023935Y012485D03*
X023935Y012852D03*
X023935Y012885D03*
X023935Y012952D03*
X023935Y012985D03*
X023935Y013052D03*
X023935Y013085D03*
X023935Y013152D03*
X023935Y013185D03*
X023935Y013252D03*
X023935Y013285D03*
X023935Y013352D03*
X023935Y013385D03*
X023935Y013452D03*
X023935Y013485D03*
X023935Y013552D03*
X023935Y013585D03*
X023935Y013652D03*
X023935Y013685D03*
X023935Y013752D03*
X023935Y013785D03*
X023935Y013852D03*
X023935Y013885D03*
X023935Y014052D03*
X023935Y014085D03*
X023935Y014152D03*
X023935Y014185D03*
X023935Y014252D03*
X023935Y014285D03*
X023935Y014352D03*
X023935Y014385D03*
X023935Y014452D03*
X023935Y014485D03*
X023935Y014552D03*
X023935Y014585D03*
X023935Y014652D03*
X023935Y014685D03*
X023935Y015952D03*
X023935Y015985D03*
X023935Y017452D03*
X023935Y017485D03*
X023935Y017552D03*
X023935Y017585D03*
X023935Y017652D03*
X023935Y017685D03*
X023935Y017752D03*
X023935Y017785D03*
X023935Y017852D03*
X023935Y017885D03*
X023935Y017952D03*
X023935Y017985D03*
X023935Y018052D03*
X023935Y018085D03*
X023935Y018152D03*
X027068Y016452D03*
X032368Y016452D03*
X032368Y016485D03*
X032368Y016385D03*
X032368Y016352D03*
X032368Y016285D03*
X032368Y016252D03*
X032368Y016185D03*
X032368Y016152D03*
X032368Y016085D03*
X032368Y016052D03*
X032368Y015885D03*
X032368Y015852D03*
X032368Y015785D03*
X032368Y015752D03*
X032368Y015485D03*
X032368Y015452D03*
X032368Y015385D03*
X032368Y015352D03*
X032368Y015285D03*
X032368Y015252D03*
X032368Y015185D03*
X032368Y015152D03*
X032368Y015085D03*
X032368Y015052D03*
X032368Y014985D03*
X032368Y014952D03*
X032368Y014885D03*
X032368Y014852D03*
X032368Y014785D03*
X032368Y014752D03*
X032368Y014685D03*
X032368Y014652D03*
X032368Y014585D03*
X032368Y014552D03*
X032368Y014485D03*
X032368Y014452D03*
X032368Y014385D03*
X032368Y014352D03*
X032368Y014285D03*
X032368Y014252D03*
X032368Y014185D03*
X032368Y014152D03*
X032368Y014085D03*
X032368Y014052D03*
X032368Y013985D03*
X032368Y013952D03*
X032368Y012985D03*
X032368Y012952D03*
D23*
X029235Y013552D03*
X027468Y014785D03*
X024735Y015852D03*
X029268Y016785D03*
X029735Y016985D03*
X029268Y017052D03*
X030168Y017485D03*
X025968Y011785D03*
D24*
X027501Y013152D03*
X028701Y011785D03*
D25*
X031785Y011785D03*
X030785Y015652D03*
X030785Y016685D03*
X025518Y014052D03*
X025518Y013785D03*
D26*
X023935Y013818D03*
X023935Y013718D03*
X023935Y013618D03*
X023935Y013518D03*
X023935Y013418D03*
X023935Y013318D03*
X023935Y013218D03*
X023935Y013118D03*
X023935Y013018D03*
X023935Y012918D03*
X023935Y012418D03*
X023935Y012318D03*
X023935Y012218D03*
X023935Y012118D03*
X023935Y012018D03*
X023935Y011918D03*
X023935Y011818D03*
X023935Y014118D03*
X023935Y014218D03*
X023935Y014318D03*
X023935Y014418D03*
X023935Y014518D03*
X023935Y014618D03*
X023935Y014718D03*
X023935Y015918D03*
X023935Y016018D03*
X023935Y017518D03*
X023935Y017618D03*
X023935Y017718D03*
X023935Y017818D03*
X023935Y017918D03*
X023935Y018018D03*
X023935Y018118D03*
X032368Y016518D03*
X032368Y016418D03*
X032368Y016318D03*
X032368Y016218D03*
X032368Y016118D03*
X032368Y015718D03*
X032368Y015418D03*
X032368Y015318D03*
X032368Y015218D03*
X032368Y015118D03*
X032368Y015018D03*
X032368Y014918D03*
X032368Y014818D03*
X032368Y014718D03*
X032368Y014618D03*
X032368Y014518D03*
X032368Y014418D03*
X032368Y014318D03*
X032368Y014218D03*
X032368Y014118D03*
X032368Y014018D03*
X032368Y013918D03*
X032368Y013018D03*
D27*
X030968Y013518D03*
X029235Y011818D03*
X025168Y012518D03*
X029335Y016518D03*
X028268Y017218D03*
X027568Y018118D03*
X027535Y018318D03*
X025635Y017818D03*
D28*
X026668Y017718D03*
X026434Y017118D03*
X026301Y016918D03*
X026234Y016818D03*
X024601Y018018D03*
X024601Y018118D03*
X024601Y018418D03*
X027501Y018518D03*
X027501Y018618D03*
X030101Y017118D03*
X030601Y017718D03*
X031001Y018018D03*
X028768Y015618D03*
X027068Y014418D03*
X026568Y013918D03*
X026168Y013518D03*
X025934Y013418D03*
X026001Y013318D03*
X025501Y012618D03*
X031568Y011818D03*
D29*
X032201Y011818D03*
X031234Y014818D03*
D30*
X031368Y013885D03*
X031335Y013685D03*
X032335Y011852D03*
X024968Y012952D03*
X023968Y018385D03*
X023968Y018452D03*
X023968Y018485D03*
X023968Y018552D03*
X023968Y018585D03*
X023968Y018652D03*
X023968Y018685D03*
X023968Y018752D03*
X023968Y018785D03*
X023968Y018852D03*
X023968Y018885D03*
X023968Y018952D03*
X023968Y018985D03*
X023968Y019052D03*
X023968Y019085D03*
X023968Y019152D03*
X023968Y019185D03*
X023968Y019285D03*
X023968Y019352D03*
X032335Y019485D03*
D31*
X031384Y017985D03*
X024951Y015252D03*
X023951Y015252D03*
X023951Y015285D03*
X023951Y015352D03*
X023951Y015385D03*
X023951Y015452D03*
X023951Y015485D03*
X023951Y015552D03*
X023951Y015585D03*
X023951Y015652D03*
X023951Y015685D03*
X023951Y015752D03*
X023951Y015785D03*
X023951Y015852D03*
X023951Y015885D03*
X023951Y016052D03*
X023951Y016085D03*
X023951Y016152D03*
X023951Y016185D03*
X023951Y016252D03*
X023951Y016285D03*
X023951Y016352D03*
X023951Y016385D03*
X023951Y016452D03*
X023951Y016485D03*
X023951Y016552D03*
X023951Y016585D03*
X023951Y016652D03*
X023951Y016685D03*
X023951Y016752D03*
X023951Y016785D03*
X023951Y016852D03*
X023951Y016885D03*
X023951Y016952D03*
X023951Y016985D03*
X023951Y017052D03*
X023951Y017085D03*
X023951Y017152D03*
X023951Y017185D03*
X023951Y017252D03*
X023951Y017285D03*
X023951Y017352D03*
X023951Y017385D03*
X023951Y018185D03*
X023951Y018252D03*
X023951Y018285D03*
X023951Y018352D03*
X023951Y015185D03*
X023951Y015152D03*
X023951Y015085D03*
X023951Y015052D03*
X023951Y014985D03*
X023951Y014952D03*
X023951Y014885D03*
X023951Y014852D03*
X023951Y014785D03*
X023951Y014752D03*
X023951Y013985D03*
X023951Y013952D03*
X023951Y012785D03*
X023951Y012752D03*
X023951Y012685D03*
X023951Y012652D03*
X023951Y012585D03*
X023951Y012552D03*
X031351Y013485D03*
X032351Y012885D03*
X032351Y012852D03*
X032351Y012785D03*
X032351Y012752D03*
X032351Y012685D03*
X032351Y012652D03*
X032351Y012585D03*
X032351Y012552D03*
X032351Y012485D03*
X032351Y012452D03*
X032351Y012385D03*
X032351Y012352D03*
X032351Y012285D03*
X032351Y012252D03*
X032351Y012185D03*
X032351Y012152D03*
X032351Y012085D03*
X032351Y012052D03*
X032351Y011985D03*
X032351Y011952D03*
X032351Y011885D03*
D32*
X032351Y011918D03*
X032351Y012018D03*
X032351Y012118D03*
X032351Y012218D03*
X032351Y012318D03*
X032351Y012418D03*
X032351Y012518D03*
X032351Y012618D03*
X032351Y012718D03*
X032351Y012818D03*
X032351Y012918D03*
X031351Y013718D03*
X027351Y016418D03*
X023951Y016418D03*
X023951Y016318D03*
X023951Y016218D03*
X023951Y016118D03*
X023951Y015818D03*
X023951Y015718D03*
X023951Y015618D03*
X023951Y015518D03*
X023951Y015418D03*
X023951Y015318D03*
X023951Y015218D03*
X023951Y015118D03*
X023951Y015018D03*
X023951Y014918D03*
X023951Y014818D03*
X023951Y014018D03*
X023951Y013918D03*
X023951Y012818D03*
X023951Y012718D03*
X023951Y012618D03*
X023951Y012518D03*
X023951Y016518D03*
X023951Y016618D03*
X023951Y016718D03*
X023951Y016818D03*
X023951Y016918D03*
X023951Y017018D03*
X023951Y017118D03*
X023951Y017218D03*
X023951Y017318D03*
X023951Y017418D03*
X023951Y018218D03*
X023951Y018318D03*
D33*
X024601Y018085D03*
X024601Y018052D03*
X024601Y017985D03*
X026368Y017052D03*
X026334Y016985D03*
X026434Y017152D03*
X026468Y017185D03*
X026534Y017252D03*
X026534Y017285D03*
X026668Y017652D03*
X026668Y017685D03*
X026668Y017752D03*
X027501Y018552D03*
X027501Y018585D03*
X027501Y018652D03*
X029801Y017085D03*
X030434Y017785D03*
X030568Y017785D03*
X030601Y017752D03*
X031101Y018185D03*
X028868Y016485D03*
X028868Y016252D03*
X029168Y016352D03*
X027168Y014285D03*
X027101Y014352D03*
X027068Y014385D03*
X027001Y014085D03*
X026634Y013985D03*
X026568Y013952D03*
X026301Y013385D03*
X026268Y013352D03*
X025968Y013385D03*
X025501Y012585D03*
X025034Y011985D03*
X030301Y013752D03*
X031001Y013552D03*
D34*
X028251Y015685D03*
X028651Y016285D03*
X029051Y016185D03*
X029251Y016252D03*
X027651Y017252D03*
X026651Y017785D03*
X026651Y017852D03*
X026651Y017885D03*
X026651Y017952D03*
X027551Y018185D03*
X027551Y018252D03*
X027551Y018285D03*
X026251Y016852D03*
X027251Y014585D03*
X026651Y014152D03*
X026151Y013485D03*
X025351Y012485D03*
X027251Y011985D03*
X027651Y020252D03*
D35*
X027518Y018485D03*
X027518Y018452D03*
X026318Y016952D03*
X026285Y016885D03*
X025885Y016285D03*
X027985Y016252D03*
X028785Y015585D03*
X029118Y015952D03*
X029218Y016285D03*
X029918Y016952D03*
X027185Y014252D03*
X026185Y013552D03*
X025985Y013352D03*
X027718Y011985D03*
X030018Y013852D03*
X024618Y018152D03*
X024585Y018252D03*
X024585Y018285D03*
X024585Y018352D03*
X024585Y018385D03*
X023618Y020252D03*
D36*
X025951Y016752D03*
X027451Y016385D03*
X028584Y015985D03*
X027618Y014385D03*
X027651Y014352D03*
X030451Y012952D03*
X031151Y011985D03*
X031484Y014085D03*
X031484Y014285D03*
X031484Y018052D03*
D37*
X029451Y017918D03*
X025518Y012018D03*
D38*
X027751Y012018D03*
D39*
X030351Y012018D03*
D40*
X028185Y012052D03*
D41*
X028168Y012085D03*
X028168Y012152D03*
X028168Y012185D03*
X028168Y018952D03*
X028168Y019052D03*
X028168Y019085D03*
X028168Y019152D03*
X028168Y019185D03*
D42*
X028168Y019218D03*
X028168Y019118D03*
X028168Y019018D03*
X028168Y018918D03*
X028168Y012118D03*
D43*
X031401Y013518D03*
X028634Y015918D03*
X024901Y012618D03*
X024901Y012218D03*
D44*
X028551Y012218D03*
D45*
X030485Y013085D03*
X030085Y013585D03*
X029218Y013385D03*
X027685Y014252D03*
X028585Y015785D03*
X031418Y013585D03*
X031418Y013552D03*
X024885Y012652D03*
X024885Y012252D03*
X026718Y018785D03*
D46*
X028568Y012252D03*
D47*
X030368Y012985D03*
X031468Y014052D03*
X027668Y014285D03*
X024868Y012752D03*
X024868Y012685D03*
X024868Y012285D03*
D48*
X028584Y012285D03*
D49*
X030384Y013018D03*
X031484Y014118D03*
X031484Y014318D03*
X028584Y016018D03*
X024851Y012718D03*
X024851Y012318D03*
D50*
X027568Y012318D03*
D51*
X025501Y014018D03*
X030801Y015618D03*
X030834Y012418D03*
X030834Y012318D03*
D52*
X029235Y013452D03*
X030068Y013552D03*
X026968Y016952D03*
X024835Y012352D03*
D53*
X027568Y012352D03*
D54*
X030834Y012352D03*
X030834Y012385D03*
X030834Y012585D03*
D55*
X029885Y012852D03*
X024818Y012385D03*
X024818Y015352D03*
X024818Y015385D03*
X025985Y016685D03*
X024818Y018552D03*
X031518Y018352D03*
D56*
X027518Y012385D03*
D57*
X024801Y012418D03*
X024801Y015418D03*
X026934Y016918D03*
X030068Y014318D03*
X031534Y018118D03*
X031534Y018318D03*
D58*
X030518Y017818D03*
X029784Y017018D03*
X029684Y016818D03*
X029418Y016718D03*
X029018Y016618D03*
X029084Y016118D03*
X027551Y017118D03*
X026784Y017018D03*
X024651Y017218D03*
X024684Y017618D03*
X024651Y016618D03*
X026718Y014018D03*
X026851Y013918D03*
X025351Y012418D03*
X029251Y013618D03*
X029318Y013718D03*
X029618Y014018D03*
X030051Y013918D03*
X030118Y013318D03*
X030318Y014718D03*
D59*
X027635Y012418D03*
D60*
X029418Y013352D03*
X029918Y012785D03*
X024785Y012452D03*
X030885Y018152D03*
D61*
X029051Y016685D03*
X029151Y016385D03*
X029051Y016152D03*
X027651Y017185D03*
X026751Y017185D03*
X026751Y017152D03*
X026751Y017252D03*
X026751Y017285D03*
X024651Y017752D03*
X029651Y013752D03*
X026051Y013285D03*
X025151Y012552D03*
X025351Y012452D03*
D62*
X027618Y012452D03*
X027618Y012485D03*
D63*
X030884Y012485D03*
X030884Y012452D03*
X025451Y015085D03*
X030884Y017385D03*
D64*
X031568Y018652D03*
X031568Y018685D03*
X030335Y019452D03*
X024768Y015685D03*
X024768Y015652D03*
X024768Y015585D03*
X024768Y015552D03*
X024768Y012552D03*
X024768Y012485D03*
D65*
X024768Y012518D03*
X026435Y013618D03*
X024768Y015618D03*
X024768Y015718D03*
X026068Y016418D03*
X027735Y016318D03*
X029868Y012818D03*
D66*
X027668Y012518D03*
D67*
X025468Y013918D03*
X030868Y012518D03*
X030835Y015518D03*
D68*
X029335Y016552D03*
X028268Y017185D03*
X027568Y018085D03*
X027535Y018352D03*
X027535Y018385D03*
X025468Y018552D03*
X024568Y018185D03*
X028835Y015552D03*
X028935Y015485D03*
X029868Y017285D03*
X030935Y017885D03*
X025835Y013152D03*
X025535Y012552D03*
X030135Y012885D03*
D69*
X027751Y012552D03*
D70*
X025468Y013885D03*
X025468Y013952D03*
X030868Y012552D03*
D71*
X029968Y012752D03*
X029834Y012885D03*
X024801Y012585D03*
X024801Y015452D03*
X024801Y015485D03*
X026068Y016452D03*
X026001Y016652D03*
X027634Y016352D03*
X031201Y018385D03*
X031534Y018152D03*
X025201Y019252D03*
D72*
X024635Y018452D03*
X024635Y017785D03*
X024668Y017685D03*
X024668Y017652D03*
X024635Y017185D03*
X024635Y016985D03*
X024635Y016952D03*
X024635Y016885D03*
X024635Y016852D03*
X024635Y016785D03*
X024635Y016752D03*
X026768Y017052D03*
X026768Y017085D03*
X027368Y017085D03*
X029035Y016652D03*
X029135Y016452D03*
X028735Y015652D03*
X030268Y014685D03*
X030268Y014652D03*
X030335Y014752D03*
X029735Y014152D03*
X029668Y014085D03*
X029368Y013785D03*
X029335Y013752D03*
X029768Y013652D03*
X030535Y013952D03*
X030635Y013885D03*
X030735Y013652D03*
X029535Y013052D03*
X029735Y012585D03*
X026968Y014152D03*
X026935Y014185D03*
X026068Y013252D03*
X025435Y012685D03*
X025168Y012585D03*
D73*
X027601Y012585D03*
D74*
X027584Y012618D03*
D75*
X025634Y014218D03*
X030701Y015818D03*
X030734Y012618D03*
D76*
X030985Y013585D03*
X030818Y014152D03*
X030018Y013885D03*
X029718Y013685D03*
X029618Y013785D03*
X026818Y013952D03*
X026785Y013985D03*
X026685Y014085D03*
X025485Y012652D03*
X028285Y015752D03*
X028618Y016252D03*
X028885Y016285D03*
X028818Y016452D03*
X029118Y016752D03*
X029685Y016785D03*
X029118Y015985D03*
X027618Y017152D03*
X026385Y017085D03*
X026218Y016785D03*
X025685Y017652D03*
X025685Y017685D03*
X024618Y017852D03*
X024618Y017885D03*
X024618Y017952D03*
X024618Y017152D03*
X024618Y017085D03*
X024618Y017052D03*
X027485Y018685D03*
X030618Y017685D03*
X031018Y018352D03*
D77*
X027601Y012652D03*
D78*
X025568Y014152D03*
X030768Y012685D03*
X030768Y012652D03*
X030735Y015752D03*
X029535Y017952D03*
D79*
X027585Y012685D03*
D80*
X029801Y013618D03*
X029701Y014118D03*
X030301Y013718D03*
X028601Y016218D03*
X028801Y016418D03*
X030501Y017918D03*
X027501Y018718D03*
X025901Y016318D03*
X025401Y012718D03*
D81*
X027568Y012718D03*
D82*
X029985Y012718D03*
X028518Y016118D03*
X024785Y015518D03*
D83*
X030985Y012918D03*
X031018Y012718D03*
D84*
X029601Y013285D03*
X030401Y014785D03*
X029501Y016652D03*
X029801Y017052D03*
X030601Y017652D03*
X030501Y017852D03*
X030501Y017885D03*
X029801Y019452D03*
X027301Y017052D03*
X026701Y014052D03*
X026101Y013185D03*
X025801Y013185D03*
X025401Y012752D03*
D85*
X027618Y012752D03*
D86*
X031034Y012752D03*
X025301Y015152D03*
X029501Y017585D03*
X029534Y017552D03*
D87*
X027685Y014085D03*
X025018Y012785D03*
X031318Y013852D03*
D88*
X027635Y012785D03*
X027568Y012852D03*
X027535Y012885D03*
D89*
X025318Y013652D03*
X030985Y012785D03*
X030985Y015252D03*
X029418Y017652D03*
X029418Y017685D03*
X029385Y017752D03*
D90*
X029418Y017318D03*
X024018Y019418D03*
X025018Y012818D03*
D91*
X027635Y012818D03*
D92*
X030968Y012818D03*
D93*
X031301Y013052D03*
X025001Y012852D03*
X031334Y017852D03*
D94*
X031235Y018485D03*
X029568Y019452D03*
X026635Y017552D03*
X026635Y017485D03*
X026668Y017385D03*
X026835Y016785D03*
X025935Y016352D03*
X024735Y016085D03*
X024735Y016052D03*
X024668Y016552D03*
X024668Y017252D03*
X024668Y017452D03*
X024668Y017485D03*
X024668Y017552D03*
X024668Y017585D03*
X027868Y016285D03*
X029068Y016485D03*
X029335Y016752D03*
X029668Y016852D03*
X029668Y016885D03*
X026568Y015085D03*
X027635Y014585D03*
X027668Y014552D03*
X027735Y014452D03*
X026868Y014252D03*
X025735Y012985D03*
X030068Y013952D03*
X030268Y014185D03*
X030735Y013585D03*
X030735Y013552D03*
X030435Y012852D03*
D95*
X031201Y012852D03*
X031201Y012885D03*
D96*
X031318Y013085D03*
X031318Y013652D03*
X024985Y012985D03*
X024985Y012885D03*
X023985Y019252D03*
X023985Y019385D03*
D97*
X026551Y018752D03*
X026651Y017452D03*
X026651Y017352D03*
X027151Y016985D03*
X030151Y014485D03*
X030451Y012885D03*
X031251Y018452D03*
X031651Y018452D03*
D98*
X023968Y018418D03*
X023968Y018518D03*
X023968Y018618D03*
X023968Y018718D03*
X023968Y018818D03*
X023968Y018918D03*
X023968Y019018D03*
X023968Y019118D03*
X023968Y019218D03*
X023968Y019318D03*
X024968Y012918D03*
D99*
X025868Y012918D03*
X029568Y013918D03*
X029835Y014218D03*
X030168Y014518D03*
X030235Y014218D03*
X030735Y013718D03*
X030035Y013418D03*
X024735Y016118D03*
X024668Y016518D03*
X024668Y017418D03*
X024668Y017518D03*
X026635Y017518D03*
D100*
X027635Y012918D03*
D101*
X029818Y012918D03*
X024818Y015318D03*
D102*
X024651Y016585D03*
X024651Y016652D03*
X024651Y016685D03*
X026784Y016752D03*
X026784Y016985D03*
X026651Y017585D03*
X029018Y016585D03*
X029451Y016685D03*
X030918Y018052D03*
X030451Y014852D03*
X030218Y014585D03*
X030184Y014552D03*
X029784Y014185D03*
X029651Y014052D03*
X029618Y013985D03*
X029584Y013952D03*
X029284Y013685D03*
X029251Y013652D03*
X030051Y013385D03*
X030084Y013352D03*
X030751Y013685D03*
X030651Y013852D03*
X025818Y012952D03*
D103*
X027634Y012952D03*
D104*
X029801Y012952D03*
X028601Y015952D03*
D105*
X031268Y012952D03*
X025035Y018585D03*
D106*
X027618Y012985D03*
D107*
X026418Y013652D03*
X024751Y015752D03*
X024751Y015785D03*
X026918Y016885D03*
X029284Y017085D03*
X031551Y018752D03*
X031551Y018785D03*
X030818Y014285D03*
X030284Y014052D03*
X029684Y012985D03*
D108*
X031284Y012985D03*
X031284Y017685D03*
X031284Y017752D03*
X031284Y017785D03*
D109*
X027668Y014118D03*
X025001Y013018D03*
X031301Y013018D03*
D110*
X030285Y014118D03*
X027618Y014618D03*
X025685Y013018D03*
X024718Y016218D03*
X024685Y016418D03*
X028818Y016318D03*
X029285Y016918D03*
D111*
X027601Y013018D03*
D112*
X029518Y013818D03*
X029618Y013018D03*
X024718Y015918D03*
X024718Y017318D03*
X029285Y017018D03*
X031218Y018418D03*
D113*
X030401Y017718D03*
X030801Y013018D03*
D114*
X027668Y013952D03*
X025135Y013052D03*
D115*
X027584Y013052D03*
X029784Y018552D03*
D116*
X029334Y017252D03*
X029368Y017185D03*
X029401Y017152D03*
X024901Y015285D03*
X030468Y013052D03*
X031434Y013985D03*
D117*
X031418Y013952D03*
X032385Y013885D03*
X032385Y013852D03*
X032385Y013785D03*
X032385Y013752D03*
X032385Y013685D03*
X032385Y013652D03*
X032385Y013585D03*
X032385Y013552D03*
X032385Y013485D03*
X032385Y013452D03*
X032385Y013385D03*
X032385Y013352D03*
X032385Y013285D03*
X032385Y013252D03*
X032385Y013185D03*
X032385Y013152D03*
X032385Y013085D03*
X032385Y013052D03*
X032385Y015552D03*
X032385Y015585D03*
X032385Y015652D03*
X032385Y015685D03*
X032385Y015952D03*
X032385Y015985D03*
X032385Y016552D03*
X032385Y016585D03*
X032385Y016652D03*
X032385Y016685D03*
X032385Y016752D03*
X032385Y016785D03*
X032385Y016852D03*
X032385Y016885D03*
X032385Y016952D03*
X032385Y016985D03*
X032385Y017052D03*
X032385Y017085D03*
X032385Y017152D03*
X032385Y017185D03*
X032385Y017252D03*
X032385Y017285D03*
X032385Y017352D03*
X032385Y017385D03*
X032385Y017452D03*
X032385Y017485D03*
X032385Y017552D03*
X032385Y017585D03*
X032385Y017652D03*
X032385Y017685D03*
X032385Y017752D03*
X032385Y017785D03*
X032385Y017852D03*
X032385Y017885D03*
X032385Y017952D03*
X032385Y017985D03*
X032385Y018052D03*
X032385Y018085D03*
X032385Y018152D03*
X032385Y018185D03*
X032385Y018252D03*
X032385Y018285D03*
X032385Y018352D03*
X032385Y018385D03*
X032385Y018452D03*
X032385Y018485D03*
X032385Y018552D03*
X032385Y018585D03*
X032385Y018652D03*
X032385Y018685D03*
X032385Y018752D03*
X032385Y018785D03*
X032385Y018852D03*
X032385Y018885D03*
X032385Y018952D03*
X032385Y018985D03*
X032385Y019052D03*
X032385Y019085D03*
X032385Y019152D03*
X032385Y019185D03*
X032385Y019252D03*
X032385Y019285D03*
X032385Y019352D03*
X032385Y019385D03*
X032385Y019452D03*
D118*
X031218Y014852D03*
X025118Y013085D03*
D119*
X027568Y013085D03*
X026035Y014885D03*
D120*
X025085Y013218D03*
X025085Y013118D03*
D121*
X027535Y013118D03*
D122*
X030518Y013118D03*
D123*
X031318Y013118D03*
X031318Y013618D03*
X027618Y014218D03*
D124*
X028618Y015818D03*
X029418Y017118D03*
X031418Y017918D03*
X032385Y017918D03*
X032385Y017818D03*
X032385Y017718D03*
X032385Y017618D03*
X032385Y017518D03*
X032385Y017418D03*
X032385Y017318D03*
X032385Y017218D03*
X032385Y017118D03*
X032385Y017018D03*
X032385Y016918D03*
X032385Y016818D03*
X032385Y016718D03*
X032385Y016618D03*
X032385Y016018D03*
X032385Y015918D03*
X032385Y015618D03*
X032385Y015518D03*
X032385Y013818D03*
X032385Y013718D03*
X032385Y013618D03*
X032385Y013518D03*
X032385Y013418D03*
X032385Y013318D03*
X032385Y013218D03*
X032385Y013118D03*
X031418Y013918D03*
X032385Y018018D03*
X032385Y018118D03*
X032385Y018218D03*
X032385Y018318D03*
X032385Y018418D03*
X032385Y018518D03*
X032385Y018618D03*
X032385Y018718D03*
X032385Y018818D03*
X032385Y018918D03*
X032385Y019018D03*
X032385Y019118D03*
X032385Y019218D03*
X032385Y019318D03*
X032385Y019418D03*
D125*
X025085Y018685D03*
X025085Y018652D03*
X027685Y013985D03*
X025085Y013185D03*
X025085Y013152D03*
D126*
X027484Y013852D03*
X030951Y013152D03*
D127*
X027635Y013185D03*
D128*
X030968Y013185D03*
X030935Y015352D03*
D129*
X030435Y014818D03*
X030235Y014618D03*
X030568Y013918D03*
X030735Y013618D03*
X029135Y016018D03*
X029135Y016418D03*
X026768Y016718D03*
X026668Y017618D03*
X024635Y016918D03*
X024635Y016818D03*
X024635Y016718D03*
X026968Y014118D03*
X026068Y013218D03*
X025768Y013218D03*
D130*
X027651Y013218D03*
D131*
X030951Y013218D03*
D132*
X031134Y013385D03*
X025201Y013252D03*
D133*
X027668Y013252D03*
X027768Y013352D03*
X029568Y018185D03*
X029568Y018452D03*
D134*
X029434Y017852D03*
X030901Y017052D03*
X027534Y013752D03*
X027568Y013685D03*
X027601Y013652D03*
X030934Y013252D03*
D135*
X025185Y013285D03*
X025185Y013352D03*
X025185Y013385D03*
X031118Y017585D03*
D136*
X027685Y013285D03*
D137*
X030918Y013285D03*
X030885Y015452D03*
X030885Y015485D03*
X030885Y017085D03*
D138*
X031118Y017618D03*
X025185Y018718D03*
X025185Y013318D03*
D139*
X027735Y013318D03*
D140*
X029468Y013318D03*
X024735Y015818D03*
X030868Y018118D03*
D141*
X031035Y015118D03*
X031068Y013318D03*
D142*
X031084Y013352D03*
X031051Y015085D03*
X025251Y013552D03*
D143*
X027601Y013385D03*
D144*
X025201Y013418D03*
D145*
X026318Y013418D03*
X029685Y013718D03*
X029085Y016718D03*
X024618Y017018D03*
X024618Y017118D03*
X024618Y017818D03*
X024618Y017918D03*
D146*
X027568Y013418D03*
D147*
X027668Y014318D03*
X029235Y013418D03*
X025935Y016718D03*
X031468Y018018D03*
D148*
X031151Y017418D03*
X031151Y013418D03*
D149*
X031068Y014885D03*
X031068Y015052D03*
X025235Y013485D03*
X025235Y013452D03*
D150*
X025734Y014352D03*
X027468Y013452D03*
X030601Y016452D03*
X029434Y018152D03*
D151*
X030885Y018085D03*
X029285Y016985D03*
X029285Y016952D03*
X029285Y016885D03*
X029285Y016852D03*
X027518Y018752D03*
X026685Y016685D03*
X024718Y016285D03*
X024718Y016252D03*
X024718Y016185D03*
X024718Y016152D03*
X024685Y016352D03*
X024685Y016385D03*
X024685Y016452D03*
X024685Y016485D03*
X024685Y017285D03*
X024685Y017385D03*
X024685Y018485D03*
X027718Y014485D03*
X029218Y013585D03*
X030018Y013452D03*
X030285Y013652D03*
X030285Y014152D03*
X029885Y014252D03*
X030818Y014185D03*
D152*
X031168Y014352D03*
X031168Y014385D03*
X031168Y014452D03*
X031168Y014485D03*
X031168Y013452D03*
X031168Y017452D03*
X031168Y017485D03*
X031135Y017552D03*
D153*
X030635Y015952D03*
X027468Y013485D03*
X025735Y014385D03*
D154*
X026851Y016485D03*
X029251Y013485D03*
D155*
X029518Y013852D03*
X030018Y013485D03*
X026018Y016385D03*
X026618Y016652D03*
X026885Y016852D03*
X024718Y015952D03*
X024718Y015885D03*
X031318Y019252D03*
D156*
X030751Y013485D03*
D157*
X025251Y013518D03*
D158*
X027451Y013518D03*
X030651Y015918D03*
D159*
X030218Y017418D03*
X031584Y018618D03*
X031551Y018718D03*
X031551Y018818D03*
X024751Y018518D03*
X030118Y014418D03*
X029251Y013518D03*
D160*
X030051Y013518D03*
X030251Y014018D03*
D161*
X030801Y014218D03*
X030734Y013518D03*
X027534Y014718D03*
X028701Y015718D03*
X029001Y016518D03*
X029268Y016818D03*
X029668Y016918D03*
X031634Y018518D03*
X026668Y017318D03*
X024734Y016018D03*
D162*
X027418Y013552D03*
X030651Y016585D03*
D163*
X031018Y017152D03*
X031018Y017185D03*
X031018Y015185D03*
X031018Y015152D03*
X025285Y013585D03*
X025285Y018785D03*
D164*
X030585Y016385D03*
X030585Y016352D03*
X030585Y016085D03*
X030585Y016052D03*
X027318Y013585D03*
D165*
X025301Y013618D03*
X031001Y015218D03*
X031001Y017118D03*
X031034Y017218D03*
X029568Y017518D03*
X029501Y017618D03*
X029401Y017718D03*
D166*
X027585Y013618D03*
D167*
X026351Y013718D03*
X030251Y013618D03*
D168*
X030968Y015285D03*
X025335Y013685D03*
D169*
X026401Y013685D03*
X028701Y015752D03*
X030801Y014252D03*
X031601Y018585D03*
D170*
X028801Y016385D03*
X028801Y016352D03*
X028601Y016185D03*
X028701Y015685D03*
X030301Y013685D03*
D171*
X030951Y015318D03*
X025351Y015118D03*
X025351Y013718D03*
D172*
X027534Y013718D03*
X030901Y015418D03*
D173*
X030768Y015685D03*
X030768Y016652D03*
X025535Y014085D03*
X025535Y013752D03*
D174*
X031201Y013752D03*
X031201Y013785D03*
D175*
X030918Y015385D03*
X030918Y016952D03*
X030918Y016985D03*
X027518Y013785D03*
D176*
X025485Y013818D03*
X030818Y016718D03*
X030818Y016818D03*
X030818Y016918D03*
D177*
X030918Y017018D03*
X029418Y017818D03*
X027518Y013818D03*
D178*
X031184Y013818D03*
D179*
X030818Y015552D03*
X030818Y015585D03*
X030818Y016752D03*
X030818Y016785D03*
X030818Y016852D03*
X030818Y016885D03*
X025485Y013985D03*
X025485Y013852D03*
D180*
X027501Y013885D03*
X029401Y017785D03*
D181*
X029701Y016952D03*
X029001Y016552D03*
X029134Y016085D03*
X029134Y016052D03*
X028601Y016152D03*
X027501Y014752D03*
X027568Y014685D03*
X027601Y014652D03*
X029534Y013885D03*
X030201Y014252D03*
X030301Y014085D03*
X030134Y014452D03*
X024734Y015985D03*
X024701Y017352D03*
X031634Y018385D03*
X031634Y018485D03*
X031634Y018552D03*
D182*
X031168Y017518D03*
X031168Y014518D03*
X031168Y014418D03*
X027668Y013918D03*
D183*
X030051Y014285D03*
X030251Y013985D03*
X028551Y016052D03*
X028551Y016085D03*
X031551Y018185D03*
X031551Y018252D03*
X031551Y018285D03*
D184*
X031284Y017718D03*
X029384Y017418D03*
X025051Y018618D03*
X027684Y014018D03*
D185*
X031451Y014018D03*
X029351Y017218D03*
D186*
X030401Y017752D03*
X031201Y018585D03*
X027001Y014052D03*
X023901Y020252D03*
D187*
X029401Y017385D03*
X029401Y017352D03*
X031301Y017652D03*
X027701Y014052D03*
D188*
X025535Y014118D03*
D189*
X026685Y014118D03*
X029218Y016318D03*
X026485Y017218D03*
X027518Y018418D03*
X024585Y018318D03*
X024585Y018218D03*
X031118Y018218D03*
D190*
X027651Y014185D03*
X027651Y014152D03*
D191*
X026101Y016485D03*
X031501Y018085D03*
X031501Y014252D03*
X031501Y014185D03*
X031501Y014152D03*
D192*
X025634Y014185D03*
X025634Y014252D03*
D193*
X026901Y014218D03*
X027701Y014518D03*
X024701Y016318D03*
D194*
X031501Y014218D03*
D195*
X030568Y016285D03*
X025768Y014285D03*
D196*
X025751Y014318D03*
D197*
X027151Y014318D03*
X027251Y017018D03*
X026751Y017118D03*
X026751Y017218D03*
X024651Y017718D03*
D198*
X030801Y014318D03*
D199*
X030101Y014352D03*
X030101Y014385D03*
X030201Y017452D03*
D200*
X030635Y016618D03*
X025735Y014418D03*
D201*
X027601Y014418D03*
D202*
X025801Y014452D03*
D203*
X025784Y014485D03*
X025784Y014552D03*
X025751Y014985D03*
X030551Y016252D03*
D204*
X025784Y014518D03*
D205*
X031184Y014552D03*
X031184Y014585D03*
D206*
X025835Y014585D03*
D207*
X025951Y014618D03*
D208*
X031218Y014618D03*
D209*
X025951Y014652D03*
D210*
X029351Y017485D03*
X031251Y014785D03*
X031251Y014752D03*
X031251Y014652D03*
D211*
X025918Y014685D03*
D212*
X029368Y017452D03*
X031268Y014685D03*
D213*
X025901Y014718D03*
D214*
X031268Y014718D03*
D215*
X025901Y014752D03*
X029601Y018485D03*
D216*
X025885Y014785D03*
D217*
X026068Y014818D03*
D218*
X026068Y014852D03*
D219*
X025935Y014918D03*
X029668Y018618D03*
D220*
X031085Y015018D03*
X031085Y014918D03*
D221*
X025918Y014952D03*
D222*
X025218Y015185D03*
X025218Y018752D03*
X031085Y014985D03*
X031085Y014952D03*
D223*
X025701Y015018D03*
D224*
X025618Y015052D03*
X030685Y015852D03*
X030685Y016485D03*
X030685Y016552D03*
D225*
X025135Y015218D03*
D226*
X026351Y017018D03*
X026651Y017818D03*
X026651Y017918D03*
X027551Y018218D03*
X027651Y017218D03*
X025651Y017718D03*
X028251Y015718D03*
X028851Y015518D03*
D227*
X030768Y015718D03*
D228*
X030718Y015785D03*
X029485Y018052D03*
D229*
X032351Y015818D03*
D230*
X029351Y017285D03*
X028651Y015885D03*
X028651Y015852D03*
D231*
X030668Y015885D03*
D232*
X030618Y015985D03*
D233*
X030618Y016018D03*
X029418Y018118D03*
D234*
X029534Y018318D03*
X030501Y016218D03*
X030501Y016118D03*
D235*
X030518Y016152D03*
D236*
X030501Y016185D03*
X029534Y018252D03*
X029534Y018285D03*
X029534Y018352D03*
D237*
X030585Y016418D03*
X030585Y016318D03*
D238*
X026351Y016518D03*
D239*
X030685Y016518D03*
D240*
X026251Y016552D03*
X026251Y016585D03*
D241*
X026268Y016618D03*
D242*
X026851Y016818D03*
X026651Y017418D03*
X026551Y018718D03*
X031651Y018418D03*
D243*
X030951Y017252D03*
D244*
X030901Y017285D03*
X030901Y017352D03*
D245*
X030901Y017318D03*
D246*
X031301Y017818D03*
D247*
X029435Y017885D03*
D248*
X031401Y017885D03*
X031401Y017952D03*
D249*
X029501Y017985D03*
D250*
X029501Y018018D03*
D251*
X029401Y018085D03*
D252*
X029551Y018218D03*
X029551Y018418D03*
D253*
X031551Y018218D03*
D254*
X029551Y018385D03*
D255*
X029784Y018518D03*
D256*
X029668Y018585D03*
D257*
X029684Y018652D03*
X029684Y018685D03*
D258*
X029468Y018718D03*
D259*
X029451Y018752D03*
D260*
X029268Y018785D03*
D261*
X027901Y018818D03*
D262*
X028151Y018852D03*
X028151Y018885D03*
X028151Y018985D03*
D263*
X024551Y019452D03*
D264*
X027618Y019452D03*
D265*
X027251Y019485D03*
D266*
X025585Y019952D03*
D267*
X030201Y019952D03*
D268*
X025568Y019985D03*
D269*
X030185Y019985D03*
D270*
X025568Y020018D03*
D271*
X030185Y020018D03*
D272*
X025551Y020085D03*
D273*
X030168Y020085D03*
D274*
X025551Y020118D03*
D275*
X030168Y020118D03*
D276*
X025518Y020218D03*
D277*
X030151Y020218D03*
D278*
X007900Y001269D03*
X007605Y001269D03*
X007275Y001269D03*
X006980Y001269D03*
X006571Y001269D03*
X006276Y001269D03*
D279*
X006424Y001269D03*
X007128Y001269D03*
X007753Y001269D03*
D280*
X008675Y002953D02*
X008675Y005256D01*
X004580Y005256D01*
X004580Y002953D01*
X008675Y002953D01*
X008110Y004872D02*
X008112Y004898D01*
X008118Y004924D01*
X008127Y004949D01*
X008140Y004972D01*
X008156Y004993D01*
X008175Y005011D01*
X008197Y005027D01*
X008220Y005039D01*
X008245Y005047D01*
X008271Y005052D01*
X008298Y005053D01*
X008324Y005050D01*
X008349Y005043D01*
X008374Y005033D01*
X008396Y005019D01*
X008417Y005002D01*
X008434Y004983D01*
X008449Y004961D01*
X008460Y004937D01*
X008468Y004911D01*
X008472Y004885D01*
X008472Y004859D01*
X008468Y004833D01*
X008460Y004807D01*
X008449Y004783D01*
X008434Y004761D01*
X008417Y004742D01*
X008396Y004725D01*
X008374Y004711D01*
X008349Y004701D01*
X008324Y004694D01*
X008298Y004691D01*
X008271Y004692D01*
X008245Y004697D01*
X008220Y004705D01*
X008197Y004717D01*
X008175Y004733D01*
X008156Y004751D01*
X008140Y004772D01*
X008127Y004795D01*
X008118Y004820D01*
X008112Y004846D01*
X008110Y004872D01*
X017128Y002389D02*
X017128Y001989D01*
X017128Y002389D02*
X017130Y002406D01*
X017134Y002423D01*
X017141Y002439D01*
X017151Y002453D01*
X017164Y002466D01*
X017178Y002476D01*
X017194Y002483D01*
X017211Y002487D01*
X017228Y002489D01*
X021528Y002489D01*
X021545Y002487D01*
X021562Y002483D01*
X021578Y002476D01*
X021592Y002466D01*
X021605Y002453D01*
X021615Y002439D01*
X021622Y002423D01*
X021626Y002406D01*
X021628Y002389D01*
X021628Y001989D01*
X021628Y001089D02*
X021628Y000689D01*
X021626Y000672D01*
X021622Y000655D01*
X021615Y000639D01*
X021605Y000625D01*
X021592Y000612D01*
X021578Y000602D01*
X021562Y000595D01*
X021545Y000591D01*
X021528Y000589D01*
X017228Y000589D01*
X017211Y000591D01*
X017194Y000595D01*
X017178Y000602D01*
X017164Y000612D01*
X017151Y000625D01*
X017141Y000639D01*
X017134Y000655D01*
X017130Y000672D01*
X017128Y000689D01*
X017128Y001089D01*
X019128Y001289D02*
X019128Y001539D01*
X019128Y001789D01*
X019278Y001789D02*
X019478Y001789D01*
X019478Y001289D01*
X019278Y001289D01*
X019278Y001789D01*
X019628Y001789D02*
X019628Y001539D01*
X019628Y001289D01*
D281*
X019628Y001539D02*
X019778Y001539D01*
X019128Y001539D02*
X018978Y001539D01*
X018028Y002339D02*
X017972Y002337D01*
X017917Y002331D01*
X017862Y002322D01*
X017808Y002308D01*
X017755Y002291D01*
X017704Y002270D01*
X017654Y002246D01*
X017606Y002218D01*
X017559Y002187D01*
X017515Y002153D01*
X017474Y002116D01*
X017435Y002076D01*
X017399Y002034D01*
X017367Y001989D01*
X018028Y002039D02*
X020728Y002039D01*
X020728Y002339D02*
X018028Y002339D01*
X018028Y002039D02*
X017990Y002038D01*
X017953Y002033D01*
X017916Y002026D01*
X017880Y002017D01*
X017844Y002004D01*
X017810Y001989D01*
X017367Y001089D02*
X017399Y001044D01*
X017435Y001002D01*
X017474Y000962D01*
X017516Y000925D01*
X017559Y000891D01*
X017606Y000860D01*
X017654Y000832D01*
X017704Y000808D01*
X017755Y000787D01*
X017808Y000770D01*
X017862Y000756D01*
X017917Y000747D01*
X017972Y000741D01*
X018028Y000739D01*
X020728Y000739D01*
X020728Y001039D02*
X018028Y001039D01*
X017990Y001040D01*
X017953Y001045D01*
X017916Y001052D01*
X017880Y001061D01*
X017844Y001074D01*
X017810Y001089D01*
X016684Y002236D02*
X016647Y002200D01*
X016500Y002200D01*
X016464Y002236D01*
X016464Y002310D01*
X016500Y002347D01*
X016647Y002347D01*
X016684Y002310D01*
X016684Y002236D01*
X016611Y002273D02*
X016684Y002347D01*
X016684Y002421D02*
X016684Y002568D01*
X016684Y002494D02*
X016464Y002494D01*
X016537Y002421D01*
X020728Y000739D02*
X020784Y000741D01*
X020839Y000747D01*
X020894Y000756D01*
X020948Y000770D01*
X021001Y000787D01*
X021052Y000808D01*
X021102Y000832D01*
X021150Y000860D01*
X021197Y000891D01*
X021241Y000925D01*
X021282Y000962D01*
X021321Y001002D01*
X021357Y001044D01*
X021389Y001089D01*
X021389Y001989D02*
X021357Y002034D01*
X021321Y002076D01*
X021282Y002116D01*
X021240Y002153D01*
X021197Y002187D01*
X021150Y002218D01*
X021102Y002246D01*
X021052Y002270D01*
X021001Y002291D01*
X020948Y002308D01*
X020894Y002322D01*
X020839Y002331D01*
X020784Y002337D01*
X020728Y002339D01*
X020728Y002039D02*
X020766Y002038D01*
X020803Y002033D01*
X020840Y002026D01*
X020876Y002017D01*
X020912Y002004D01*
X020946Y001989D01*
X020946Y001089D02*
X020912Y001074D01*
X020876Y001061D01*
X020840Y001052D01*
X020803Y001045D01*
X020766Y001040D01*
X020728Y001039D01*
X008611Y003016D02*
X008611Y005192D01*
X004644Y005192D01*
X004644Y003016D01*
X008611Y003016D01*
D282*
X010784Y001636D02*
X010784Y005573D01*
X014721Y005573D01*
X014721Y001636D01*
X010784Y001636D01*
X012785Y003430D02*
X012860Y003355D01*
X013011Y003355D01*
X013086Y003430D01*
X013086Y003805D01*
X013246Y003655D02*
X013396Y003805D01*
X013396Y003355D01*
X013246Y003355D02*
X013546Y003355D01*
X012785Y003430D02*
X012785Y003805D01*
X010922Y005336D02*
X010924Y005357D01*
X010930Y005376D01*
X010939Y005395D01*
X010951Y005411D01*
X010967Y005425D01*
X010984Y005436D01*
X011003Y005444D01*
X011024Y005448D01*
X011044Y005448D01*
X011065Y005444D01*
X011084Y005436D01*
X011101Y005425D01*
X011117Y005411D01*
X011129Y005395D01*
X011138Y005376D01*
X011144Y005357D01*
X011146Y005336D01*
X011144Y005315D01*
X011138Y005296D01*
X011129Y005277D01*
X011117Y005261D01*
X011101Y005247D01*
X011084Y005236D01*
X011065Y005228D01*
X011044Y005224D01*
X011024Y005224D01*
X011003Y005228D01*
X010984Y005236D01*
X010967Y005247D01*
X010951Y005261D01*
X010939Y005277D01*
X010930Y005296D01*
X010924Y005315D01*
X010922Y005336D01*
X003814Y005364D02*
X003814Y004931D01*
X003814Y005640D02*
X003814Y002569D01*
X003814Y002844D02*
X003814Y003277D01*
X002829Y002569D02*
X001766Y002569D01*
X000192Y002569D02*
X000192Y005640D01*
X001766Y005640D02*
X002829Y005640D01*
X022433Y002006D02*
X022883Y002006D01*
X022883Y002167D02*
X022883Y002467D01*
X022583Y002467D02*
X022883Y002167D01*
X022658Y002006D02*
X022658Y001706D01*
X022883Y001706D02*
X022433Y001706D01*
X022433Y001546D02*
X022883Y001546D01*
X022583Y001396D02*
X022433Y001546D01*
X022583Y001396D02*
X022433Y001246D01*
X022883Y001246D01*
X022883Y001086D02*
X022883Y000785D01*
X022583Y001086D01*
X022508Y001086D01*
X022433Y001011D01*
X022433Y000860D01*
X022508Y000785D01*
X022433Y000475D02*
X022883Y000475D01*
X022883Y000325D02*
X022883Y000625D01*
X022583Y000325D02*
X022433Y000475D01*
X022583Y002167D02*
X022583Y002467D01*
X030190Y002569D02*
X030190Y005640D01*
X030190Y005364D02*
X030190Y004931D01*
X031174Y005640D02*
X032237Y005640D01*
X033812Y005640D02*
X033812Y002569D01*
X032237Y002569D02*
X031174Y002569D01*
X030190Y002844D02*
X030190Y003277D01*
D283*
X014229Y001421D03*
X014032Y001421D03*
X013835Y001421D03*
X013638Y001421D03*
X013442Y001421D03*
X013245Y001421D03*
X013048Y001421D03*
X012851Y001421D03*
X012654Y001421D03*
X012457Y001421D03*
X012260Y001421D03*
X012064Y001421D03*
X011867Y001421D03*
X011670Y001421D03*
X011473Y001421D03*
X011276Y001421D03*
X011276Y005787D03*
X011473Y005787D03*
X011670Y005787D03*
X011867Y005787D03*
X012064Y005787D03*
X012260Y005787D03*
X012457Y005787D03*
X012654Y005787D03*
X012851Y005787D03*
X013048Y005787D03*
X013245Y005787D03*
X013442Y005787D03*
X013638Y005787D03*
X013835Y005787D03*
X014032Y005787D03*
X014229Y005787D03*
D284*
X014936Y005081D03*
X014936Y004884D03*
X014936Y004687D03*
X014936Y004490D03*
X014936Y004293D03*
X014936Y004096D03*
X014936Y003899D03*
X014936Y003703D03*
X014936Y003506D03*
X014936Y003309D03*
X014936Y003112D03*
X014936Y002915D03*
X014936Y002718D03*
X014936Y002521D03*
X014936Y002325D03*
X014936Y002128D03*
X010569Y002128D03*
X010569Y002325D03*
X010569Y002521D03*
X010569Y002718D03*
X010569Y002915D03*
X010569Y003112D03*
X010569Y003309D03*
X010569Y003506D03*
X010569Y003703D03*
X010569Y003899D03*
X010569Y004096D03*
X010569Y004293D03*
X010569Y004490D03*
X010569Y004687D03*
X010569Y004884D03*
X010569Y005081D03*
D285*
X002957Y001581D02*
X002650Y001581D01*
X002803Y001581D02*
X002803Y001120D01*
X002496Y001197D02*
X002420Y001120D01*
X002266Y001120D01*
X002189Y001197D01*
X002036Y001197D02*
X002036Y001504D01*
X001959Y001581D01*
X001806Y001581D01*
X001729Y001504D01*
X001729Y001197D01*
X001806Y001120D01*
X001959Y001120D01*
X002036Y001197D01*
X002189Y001427D02*
X002266Y001350D01*
X002420Y001350D01*
X002496Y001274D01*
X002496Y001197D01*
X002496Y001504D02*
X002420Y001581D01*
X002266Y001581D01*
X002189Y001504D01*
X002189Y001427D01*
X001576Y001350D02*
X001269Y001350D01*
X001269Y001120D02*
X001269Y001581D01*
X001576Y001581D02*
X001576Y001120D01*
X030482Y007708D02*
X030789Y007708D01*
X030636Y007708D02*
X030636Y007247D01*
X030943Y007247D02*
X030943Y007554D01*
X031096Y007708D01*
X031250Y007554D01*
X031250Y007247D01*
X031403Y007247D02*
X031403Y007708D01*
X031633Y007708D01*
X031710Y007631D01*
X031710Y007477D01*
X031633Y007401D01*
X031403Y007401D01*
X031556Y007401D02*
X031710Y007247D01*
X031863Y007324D02*
X031940Y007247D01*
X032094Y007247D01*
X032170Y007324D01*
X032170Y007477D01*
X032017Y007477D01*
X031863Y007631D02*
X031863Y007324D01*
X031863Y007631D02*
X031940Y007708D01*
X032094Y007708D01*
X032170Y007631D01*
X032324Y007708D02*
X032324Y007247D01*
X032631Y007247D01*
X032477Y007477D02*
X032324Y007477D01*
X032324Y007708D02*
X032631Y007708D01*
X032784Y007708D02*
X033091Y007708D01*
X032938Y007708D02*
X032938Y007247D01*
X031250Y007477D02*
X030943Y007477D01*
M02*
