G75*
G70*
%OFA0B0*%
%FSLAX24Y24*%
%IPPOS*%
%LPD*%
%AMOC8*
5,1,8,0,0,1.08239X$1,22.5*
%
%ADD10C,0.0000*%
%ADD11C,0.0100*%
%ADD12C,0.0060*%
%ADD13C,0.0040*%
%ADD14C,0.0030*%
%ADD15R,0.0118X0.0059*%
%ADD16R,0.0118X0.0118*%
%ADD17C,0.0010*%
%ADD18C,0.0020*%
%ADD19C,0.0050*%
%ADD20R,0.0110X0.0382*%
%ADD21R,0.0382X0.0110*%
D10*
X004357Y000103D02*
X004357Y001978D01*
X000107Y001978D01*
X000107Y006728D01*
X004357Y006728D01*
X004357Y008603D01*
X023227Y008603D01*
X023227Y000103D01*
X004357Y000103D01*
X007839Y001353D02*
X008376Y001353D01*
X008107Y001084D02*
X008107Y001622D01*
X010223Y001353D02*
X010492Y001353D01*
X010357Y001219D02*
X010357Y001487D01*
X011207Y001353D02*
X012007Y001353D01*
X011607Y000953D02*
X011607Y001753D01*
X014482Y003328D02*
X014482Y004128D01*
X014082Y003728D02*
X014882Y003728D01*
X019714Y003353D02*
X020251Y003353D01*
X019982Y003084D02*
X019982Y003622D01*
X019982Y004084D02*
X019982Y004622D01*
X019714Y004353D02*
X020251Y004353D01*
X021332Y004353D02*
X022132Y004353D01*
X021732Y003953D02*
X021732Y004753D01*
X020251Y005353D02*
X019714Y005353D01*
X019982Y005084D02*
X019982Y005622D01*
X019982Y006084D02*
X019982Y006622D01*
X019714Y006353D02*
X020251Y006353D01*
X019982Y007084D02*
X019982Y007622D01*
X019714Y007353D02*
X020251Y007353D01*
X012751Y006603D02*
X012214Y006603D01*
X011607Y006497D02*
X011607Y005959D01*
X011339Y006228D02*
X011876Y006228D01*
X012482Y006334D02*
X012482Y006872D01*
X008607Y004253D02*
X008607Y003453D01*
X008207Y003853D02*
X009007Y003853D01*
X005742Y003853D02*
X005473Y003853D01*
X005607Y003719D02*
X005607Y003987D01*
X005607Y002987D02*
X005607Y002719D01*
X005473Y002853D02*
X005742Y002853D01*
X005357Y002372D02*
X005357Y001834D01*
X005089Y002103D02*
X005626Y002103D01*
X002107Y003953D02*
X002107Y004753D01*
X001707Y004353D02*
X002507Y004353D01*
X019714Y002353D02*
X020251Y002353D01*
X019982Y002084D02*
X019982Y002622D01*
D11*
X020982Y006853D02*
X021732Y006853D01*
X021732Y007853D01*
D12*
X020982Y007853D02*
X020732Y007603D01*
X020732Y007103D01*
X020982Y006853D01*
X020732Y006603D01*
X020732Y006103D01*
X020982Y005853D01*
X020732Y005603D01*
X020732Y005103D01*
X020982Y004853D01*
X020732Y004603D01*
X020732Y004103D01*
X020982Y003853D01*
X020732Y003603D01*
X020732Y003103D01*
X020982Y002853D01*
X020732Y002603D01*
X020732Y002103D01*
X020982Y001853D01*
X020732Y001603D01*
X020732Y001103D01*
X020982Y000853D01*
X022482Y000853D01*
X022732Y001103D01*
X022732Y001603D01*
X022482Y001853D01*
X022732Y002103D01*
X022732Y002603D01*
X022482Y002853D01*
X022732Y003103D01*
X022732Y003603D01*
X022482Y003853D01*
X022732Y004103D01*
X022732Y004603D01*
X022482Y004853D01*
X022732Y005103D01*
X022732Y005603D01*
X022482Y005853D01*
X022732Y006103D01*
X022732Y006603D01*
X022482Y006853D01*
X022732Y007103D01*
X022732Y007603D01*
X022482Y007853D01*
X020982Y007853D01*
X018703Y007258D02*
X018236Y007258D01*
X018469Y007258D02*
X018469Y007959D01*
X018236Y007725D01*
X018003Y007725D02*
X018003Y007842D01*
X017886Y007959D01*
X017652Y007959D01*
X017536Y007842D01*
X017303Y007959D02*
X016836Y007959D01*
X016603Y007959D02*
X016136Y007959D01*
X016136Y007258D01*
X016603Y007258D01*
X017069Y007258D02*
X017069Y007959D01*
X016370Y007608D02*
X016136Y007608D01*
X015670Y007608D02*
X015436Y007608D01*
X015204Y007375D02*
X015204Y007842D01*
X015087Y007959D01*
X014737Y007959D01*
X014737Y007258D01*
X015087Y007258D01*
X015204Y007375D01*
X015436Y007258D02*
X015436Y007959D01*
X015904Y007959D01*
X014504Y007842D02*
X014387Y007959D01*
X014154Y007959D01*
X014037Y007842D01*
X014037Y007375D01*
X014154Y007258D01*
X014387Y007258D01*
X014504Y007375D01*
X014504Y007842D01*
X013804Y007842D02*
X013687Y007959D01*
X013454Y007959D01*
X013337Y007842D01*
X013337Y007375D01*
X013454Y007258D01*
X013687Y007258D01*
X013804Y007375D01*
X013804Y007842D01*
X013104Y007842D02*
X012988Y007959D01*
X012754Y007959D01*
X012637Y007842D01*
X012637Y007375D01*
X012754Y007258D01*
X012988Y007258D01*
X013104Y007375D01*
X013104Y007608D01*
X012871Y007608D01*
X010721Y007523D02*
X010721Y006883D01*
X010400Y006883D01*
X010294Y006990D01*
X010294Y007203D01*
X010400Y007310D01*
X010721Y007310D01*
X010076Y007203D02*
X010076Y007096D01*
X009649Y007096D01*
X009649Y006990D02*
X009649Y007203D01*
X009756Y007310D01*
X009969Y007310D01*
X010076Y007203D01*
X009756Y006883D02*
X009649Y006990D01*
X009756Y006883D02*
X009969Y006883D01*
X009432Y007096D02*
X009432Y007203D01*
X009325Y007310D01*
X009111Y007310D01*
X009005Y007203D01*
X009005Y006990D01*
X009111Y006883D01*
X009325Y006883D01*
X009432Y007096D02*
X009005Y007096D01*
X008787Y006990D02*
X008680Y006883D01*
X008360Y006883D01*
X008143Y006990D02*
X008036Y007096D01*
X007822Y007096D01*
X007716Y007203D01*
X007822Y007310D01*
X008143Y007310D01*
X008360Y007310D02*
X008680Y007310D01*
X008787Y007203D01*
X008787Y006990D01*
X008360Y007310D02*
X008360Y006669D01*
X008143Y006990D02*
X008036Y006883D01*
X007716Y006883D01*
X007498Y006883D02*
X007178Y006883D01*
X007071Y006990D01*
X007071Y007203D01*
X007178Y007310D01*
X007498Y007310D01*
X007498Y007523D02*
X007498Y006883D01*
X006853Y006990D02*
X006853Y007203D01*
X006747Y007310D01*
X006533Y007310D01*
X006426Y007203D01*
X006426Y006990D01*
X006533Y006883D01*
X006747Y006883D01*
X006853Y006990D01*
X006209Y006990D02*
X006209Y007203D01*
X006102Y007310D01*
X005889Y007310D01*
X005782Y007203D01*
X005782Y006990D01*
X005889Y006883D01*
X006102Y006883D01*
X006209Y006990D01*
X005564Y006990D02*
X005458Y006883D01*
X005244Y006883D01*
X005137Y006990D01*
X005137Y007417D01*
X005244Y007523D01*
X005458Y007523D01*
X005564Y007417D01*
X005564Y007203D02*
X005351Y007203D01*
X005564Y007203D02*
X005564Y006990D01*
X007456Y005900D02*
X009759Y005900D01*
X009759Y001806D01*
X007456Y001806D01*
X007456Y005900D01*
X009194Y002190D02*
X009196Y002216D01*
X009202Y002242D01*
X009211Y002267D01*
X009224Y002290D01*
X009240Y002311D01*
X009259Y002329D01*
X009281Y002345D01*
X009304Y002357D01*
X009329Y002365D01*
X009355Y002370D01*
X009382Y002371D01*
X009408Y002368D01*
X009433Y002361D01*
X009458Y002351D01*
X009480Y002337D01*
X009501Y002320D01*
X009518Y002301D01*
X009533Y002279D01*
X009544Y002255D01*
X009552Y002229D01*
X009556Y002203D01*
X009556Y002177D01*
X009552Y002151D01*
X009544Y002125D01*
X009533Y002101D01*
X009518Y002079D01*
X009501Y002060D01*
X009480Y002043D01*
X009458Y002029D01*
X009433Y002019D01*
X009408Y002012D01*
X009382Y002009D01*
X009355Y002010D01*
X009329Y002015D01*
X009304Y002023D01*
X009281Y002035D01*
X009259Y002051D01*
X009240Y002069D01*
X009224Y002090D01*
X009211Y002113D01*
X009202Y002138D01*
X009196Y002164D01*
X009194Y002190D01*
X017536Y007258D02*
X018003Y007725D01*
X018003Y007258D02*
X017536Y007258D01*
D13*
X014355Y007083D02*
X014048Y006776D01*
X014125Y006853D02*
X014355Y006623D01*
X014048Y006623D02*
X014048Y007083D01*
X013818Y007083D02*
X013588Y006853D01*
X013895Y006853D01*
X013818Y006623D02*
X013818Y007083D01*
X013434Y007083D02*
X013434Y007007D01*
X013127Y006700D01*
X013127Y006623D01*
X013127Y007083D02*
X013434Y007083D01*
X011241Y006774D02*
X011164Y006850D01*
X011011Y006850D01*
X011087Y006927D01*
X011087Y007004D01*
X011011Y007081D01*
X010857Y007081D01*
X010857Y007234D02*
X010857Y007388D01*
X010627Y007234D02*
X010627Y007541D01*
X010627Y007234D02*
X011087Y007234D01*
X011011Y006850D02*
X010857Y006850D01*
X011087Y006620D02*
X011087Y006313D01*
X010781Y006313D02*
X010627Y006467D01*
X011087Y006467D01*
X011087Y006160D02*
X011087Y006083D01*
X011011Y006083D01*
X011011Y006160D01*
X011087Y006160D01*
X011011Y005930D02*
X010704Y005930D01*
X011011Y005623D01*
X011087Y005700D01*
X011087Y005853D01*
X011011Y005930D01*
X010704Y005930D02*
X010627Y005853D01*
X010627Y005700D01*
X010704Y005623D01*
X011011Y005623D01*
X006776Y004632D02*
X006776Y004325D01*
X006699Y004248D01*
X006469Y004248D01*
X006469Y004708D01*
X006699Y004708D01*
X006776Y004632D01*
X006315Y004708D02*
X006008Y004708D01*
X006008Y004248D01*
X006315Y004248D01*
X005855Y004248D02*
X005548Y004248D01*
X005548Y004708D01*
X005395Y004708D02*
X005088Y004248D01*
X004934Y004248D02*
X004781Y004401D01*
X004858Y004401D02*
X004627Y004401D01*
X004858Y004401D02*
X004934Y004478D01*
X004934Y004632D01*
X004858Y004708D01*
X004627Y004708D01*
X004627Y004248D01*
X005088Y004708D02*
X005395Y004248D01*
X006008Y004478D02*
X006162Y004478D01*
X006315Y003583D02*
X006008Y003583D01*
X006008Y003123D01*
X006315Y003123D01*
X006469Y003123D02*
X006699Y003123D01*
X006776Y003200D01*
X006776Y003507D01*
X006699Y003583D01*
X006469Y003583D01*
X006469Y003123D01*
X006162Y003353D02*
X006008Y003353D01*
X005855Y003123D02*
X005548Y003123D01*
X005548Y003583D01*
X005395Y003583D02*
X005088Y003123D01*
X005395Y003123D02*
X005088Y003583D01*
X004934Y003583D02*
X004627Y003583D01*
X004781Y003583D02*
X004781Y003123D01*
X004746Y001583D02*
X004976Y001583D01*
X005053Y001507D01*
X005053Y001353D01*
X004976Y001276D01*
X004746Y001276D01*
X004900Y001276D02*
X005053Y001123D01*
X005207Y001123D02*
X005514Y001123D01*
X005360Y001123D02*
X005360Y001583D01*
X005207Y001430D01*
X005667Y001507D02*
X005744Y001583D01*
X005897Y001583D01*
X005974Y001507D01*
X005667Y001200D01*
X005744Y001123D01*
X005897Y001123D01*
X005974Y001200D01*
X005974Y001507D01*
X005667Y001507D02*
X005667Y001200D01*
X004746Y001123D02*
X004746Y001583D01*
X006931Y000757D02*
X007007Y000833D01*
X007161Y000833D01*
X007238Y000757D01*
X006931Y000450D01*
X007007Y000373D01*
X007161Y000373D01*
X007238Y000450D01*
X007238Y000757D01*
X006931Y000757D02*
X006931Y000450D01*
X007391Y000450D02*
X007391Y000373D01*
X007468Y000373D01*
X007468Y000450D01*
X007391Y000450D01*
X007621Y000373D02*
X007928Y000373D01*
X007775Y000373D02*
X007775Y000833D01*
X007621Y000680D01*
X008158Y000603D02*
X008158Y000450D01*
X008158Y000296D01*
X008082Y000219D01*
X008235Y000373D02*
X008312Y000373D01*
X008388Y000450D01*
X008388Y000603D01*
X008542Y000603D02*
X008695Y000603D01*
X008542Y000373D02*
X008542Y000833D01*
X008849Y000833D01*
X009536Y000623D02*
X009536Y001083D01*
X009996Y001083D02*
X009996Y000623D01*
X010303Y000623D01*
X010457Y000623D02*
X010687Y000623D01*
X010763Y000700D01*
X010763Y001007D01*
X010687Y001083D01*
X010457Y001083D01*
X010457Y000623D01*
X010150Y000853D02*
X009996Y000853D01*
X009843Y000623D02*
X009536Y000623D01*
X009996Y001083D02*
X010303Y001083D01*
X010917Y000930D02*
X011070Y001083D01*
X011070Y000623D01*
X010917Y000623D02*
X011224Y000623D01*
X011377Y000700D02*
X011454Y000623D01*
X011608Y000623D01*
X011684Y000700D01*
X011684Y000776D01*
X011608Y000853D01*
X011531Y000853D01*
X011608Y000853D02*
X011684Y000930D01*
X011684Y001007D01*
X011608Y001083D01*
X011454Y001083D01*
X011377Y001007D01*
X011838Y001007D02*
X011914Y001083D01*
X012068Y001083D01*
X012145Y001007D01*
X012145Y000930D01*
X012068Y000853D01*
X012145Y000776D01*
X012145Y000700D01*
X012068Y000623D01*
X011914Y000623D01*
X011838Y000700D01*
X011991Y000853D02*
X012068Y000853D01*
X012298Y000700D02*
X012605Y001007D01*
X012605Y000700D01*
X012528Y000623D01*
X012375Y000623D01*
X012298Y000700D01*
X012298Y001007D01*
X012375Y001083D01*
X012528Y001083D01*
X012605Y001007D01*
X012068Y001623D02*
X011914Y001623D01*
X011838Y001700D01*
X011684Y001623D02*
X011531Y001776D01*
X011608Y001776D02*
X011377Y001776D01*
X011608Y001776D02*
X011684Y001853D01*
X011684Y002007D01*
X011608Y002083D01*
X011377Y002083D01*
X011377Y001623D01*
X011838Y001853D02*
X011991Y001930D01*
X012068Y001930D01*
X012145Y001853D01*
X012145Y001700D01*
X012068Y001623D01*
X011838Y001853D02*
X011838Y002083D01*
X012145Y002083D01*
X008235Y000373D02*
X008158Y000450D01*
X018752Y004276D02*
X018906Y004123D01*
X018752Y004276D02*
X019212Y004276D01*
X019212Y004123D02*
X019212Y004430D01*
X019136Y004583D02*
X018829Y004583D01*
X018752Y004660D01*
X018752Y004813D01*
X018829Y004890D01*
X019136Y004583D01*
X019212Y004660D01*
X019212Y004813D01*
X019136Y004890D01*
X018829Y004890D01*
X018829Y005044D02*
X018752Y005120D01*
X018752Y005274D01*
X018829Y005351D01*
X019136Y005044D01*
X019212Y005120D01*
X019212Y005274D01*
X019136Y005351D01*
X018829Y005351D01*
X018752Y005504D02*
X018752Y005734D01*
X018829Y005811D01*
X018982Y005811D01*
X019059Y005734D01*
X019059Y005504D01*
X019059Y005657D02*
X019212Y005811D01*
X019212Y005504D02*
X018752Y005504D01*
X018829Y005044D02*
X019136Y005044D01*
X007506Y007700D02*
X007429Y007623D01*
X007199Y007623D01*
X007046Y007623D02*
X006892Y007623D01*
X006969Y007623D02*
X006969Y007930D01*
X006892Y007930D01*
X006739Y007930D02*
X006585Y007623D01*
X006432Y007930D01*
X006278Y007853D02*
X006278Y007623D01*
X006048Y007623D01*
X005971Y007700D01*
X006048Y007776D01*
X006278Y007776D01*
X006278Y007853D02*
X006202Y007930D01*
X006048Y007930D01*
X005818Y007930D02*
X005741Y007930D01*
X005588Y007776D01*
X005588Y007623D02*
X005588Y007930D01*
X005434Y008083D02*
X005127Y008083D01*
X005281Y008083D02*
X005281Y007623D01*
X006969Y008083D02*
X006969Y008160D01*
X007276Y007930D02*
X007506Y007930D01*
X007276Y007930D02*
X007199Y007853D01*
X007276Y007776D01*
X007429Y007776D01*
X007506Y007700D01*
D14*
X006473Y006550D02*
X006473Y006488D01*
X006473Y006365D02*
X006473Y006118D01*
X006411Y006118D02*
X006535Y006118D01*
X006657Y006118D02*
X006842Y006118D01*
X006904Y006180D01*
X006842Y006241D01*
X006719Y006241D01*
X006657Y006303D01*
X006719Y006365D01*
X006904Y006365D01*
X007025Y006426D02*
X007087Y006488D01*
X007210Y006488D01*
X007272Y006426D01*
X007272Y006303D01*
X007210Y006241D01*
X007210Y006365D01*
X007087Y006365D01*
X007087Y006241D01*
X007210Y006241D01*
X007272Y006180D02*
X007210Y006118D01*
X007087Y006118D01*
X007025Y006180D01*
X007025Y006426D01*
X007394Y006365D02*
X007517Y006365D01*
X007455Y006426D02*
X007455Y006180D01*
X007517Y006118D01*
X007639Y006118D02*
X007639Y006365D01*
X007824Y006365D01*
X007886Y006303D01*
X007886Y006118D01*
X008007Y006118D02*
X008193Y006118D01*
X008254Y006180D01*
X008254Y006303D01*
X008193Y006365D01*
X008007Y006365D01*
X008007Y006488D02*
X008007Y006118D01*
X008376Y006180D02*
X008376Y006303D01*
X008437Y006365D01*
X008561Y006365D01*
X008623Y006303D01*
X008623Y006241D01*
X008376Y006241D01*
X008376Y006180D02*
X008437Y006118D01*
X008561Y006118D01*
X008744Y006118D02*
X008867Y006118D01*
X008806Y006118D02*
X008806Y006488D01*
X008744Y006488D01*
X008989Y006365D02*
X009113Y006365D01*
X009051Y006426D02*
X009051Y006180D01*
X009113Y006118D01*
X009235Y006118D02*
X009297Y006118D01*
X009297Y006180D01*
X009235Y006180D01*
X009235Y006118D01*
X009419Y006180D02*
X009481Y006118D01*
X009666Y006118D01*
X009787Y006180D02*
X009849Y006118D01*
X009973Y006118D01*
X010034Y006180D01*
X010034Y006303D01*
X009973Y006365D01*
X009849Y006365D01*
X009787Y006303D01*
X009787Y006180D01*
X010156Y006118D02*
X010156Y006365D01*
X010217Y006365D01*
X010279Y006303D01*
X010341Y006365D01*
X010403Y006303D01*
X010403Y006118D01*
X010279Y006118D02*
X010279Y006303D01*
X009666Y006365D02*
X009481Y006365D01*
X009419Y006303D01*
X009419Y006180D01*
X006473Y006365D02*
X006411Y006365D01*
X006290Y006365D02*
X006167Y006118D01*
X006043Y006365D01*
X005922Y006303D02*
X005922Y006118D01*
X005736Y006118D01*
X005675Y006180D01*
X005736Y006241D01*
X005922Y006241D01*
X005922Y006303D02*
X005860Y006365D01*
X005736Y006365D01*
X005553Y006365D02*
X005491Y006365D01*
X005368Y006241D01*
X005368Y006118D02*
X005368Y006365D01*
X005246Y006365D02*
X005122Y006365D01*
X005184Y006426D02*
X005184Y006180D01*
X005246Y006118D01*
X015177Y005209D02*
X015177Y005113D01*
X015226Y005064D01*
X015274Y005064D01*
X015322Y005113D01*
X015322Y005209D01*
X015371Y005258D01*
X015419Y005258D01*
X015467Y005209D01*
X015467Y005113D01*
X015419Y005064D01*
X015371Y005064D01*
X015322Y005113D01*
X015322Y005209D02*
X015274Y005258D01*
X015226Y005258D01*
X015177Y005209D01*
X015467Y004963D02*
X015467Y004770D01*
X015467Y004866D02*
X015177Y004866D01*
X015274Y004770D01*
X015371Y004669D02*
X015322Y004620D01*
X015322Y004475D01*
X015419Y004475D01*
X015467Y004523D01*
X015467Y004620D01*
X015419Y004669D01*
X015371Y004669D01*
X015226Y004572D02*
X015177Y004669D01*
X015226Y004572D02*
X015322Y004475D01*
X015274Y004374D02*
X015226Y004374D01*
X015177Y004326D01*
X015177Y004229D01*
X015226Y004180D01*
X015274Y004374D02*
X015467Y004180D01*
X015467Y004374D01*
X015177Y004079D02*
X015177Y003886D01*
X015467Y003886D01*
X015419Y003785D02*
X015226Y003785D01*
X015419Y003591D01*
X015467Y003639D01*
X015467Y003736D01*
X015419Y003785D01*
X015322Y003886D02*
X015322Y003983D01*
X015226Y003785D02*
X015177Y003736D01*
X015177Y003639D01*
X015226Y003591D01*
X015419Y003591D01*
X015419Y003490D02*
X015371Y003490D01*
X015322Y003442D01*
X015322Y003393D01*
X015322Y003442D02*
X015274Y003490D01*
X015226Y003490D01*
X015177Y003442D01*
X015177Y003345D01*
X015226Y003296D01*
X015322Y003195D02*
X015322Y003002D01*
X015177Y003147D01*
X015467Y003147D01*
X015419Y003296D02*
X015467Y003345D01*
X015467Y003442D01*
X015419Y003490D01*
X015322Y002901D02*
X015371Y002852D01*
X015371Y002707D01*
X015467Y002707D02*
X015177Y002707D01*
X015177Y002852D01*
X015226Y002901D01*
X015322Y002901D01*
X015371Y002606D02*
X015419Y002606D01*
X015467Y002558D01*
X015467Y002461D01*
X015419Y002413D01*
X015322Y002461D02*
X015322Y002558D01*
X015371Y002606D01*
X015226Y002606D02*
X015177Y002558D01*
X015177Y002461D01*
X015226Y002413D01*
X015274Y002413D01*
X015322Y002461D01*
X015177Y002311D02*
X015467Y002311D01*
X015274Y002215D02*
X015177Y002311D01*
X015274Y002215D02*
X015177Y002118D01*
X015467Y002118D01*
D15*
X010298Y001501D03*
X010298Y001205D03*
X005666Y002705D03*
X005666Y003001D03*
X005666Y003705D03*
X005666Y004001D03*
D16*
X005666Y003853D03*
X005666Y002853D03*
X010298Y001353D03*
D17*
X008602Y002358D02*
X008452Y002358D01*
X008452Y002458D01*
X008452Y002505D02*
X008452Y002605D01*
X008452Y002555D02*
X008602Y002555D01*
X008602Y002653D02*
X008502Y002753D01*
X008477Y002753D01*
X008452Y002728D01*
X008452Y002678D01*
X008477Y002653D01*
X008602Y002653D02*
X008602Y002753D01*
X008577Y002800D02*
X008602Y002825D01*
X008602Y002875D01*
X008577Y002900D01*
X008552Y002900D01*
X008527Y002875D01*
X008527Y002850D01*
X008527Y002875D02*
X008502Y002900D01*
X008477Y002900D01*
X008452Y002875D01*
X008452Y002825D01*
X008477Y002800D01*
X008477Y002947D02*
X008452Y002972D01*
X008452Y003022D01*
X008477Y003047D01*
X008502Y003047D01*
X008602Y002947D01*
X008602Y003047D01*
X008602Y003095D02*
X008452Y003095D01*
X008452Y003170D01*
X008477Y003195D01*
X008527Y003195D01*
X008552Y003170D01*
X008552Y003095D01*
X008552Y003145D02*
X008602Y003195D01*
X008602Y003242D02*
X008452Y003242D01*
X008602Y003242D02*
X008602Y003342D01*
X008527Y003389D02*
X008527Y003489D01*
X008527Y003536D02*
X008527Y003612D01*
X008552Y003637D01*
X008577Y003637D01*
X008602Y003612D01*
X008602Y003536D01*
X008452Y003536D01*
X008452Y003612D01*
X008477Y003637D01*
X008502Y003637D01*
X008527Y003612D01*
X008527Y003684D02*
X008527Y003784D01*
X008502Y003784D02*
X008602Y003784D01*
X008577Y003831D02*
X008602Y003856D01*
X008602Y003906D01*
X008577Y003931D01*
X008552Y003931D01*
X008527Y003906D01*
X008527Y003856D01*
X008502Y003831D01*
X008477Y003831D01*
X008452Y003856D01*
X008452Y003906D01*
X008477Y003931D01*
X008452Y003978D02*
X008452Y004029D01*
X008452Y004003D02*
X008602Y004003D01*
X008602Y003978D02*
X008602Y004029D01*
X008577Y004077D02*
X008602Y004102D01*
X008602Y004152D01*
X008577Y004177D01*
X008577Y004224D02*
X008602Y004249D01*
X008602Y004299D01*
X008577Y004324D01*
X008552Y004324D01*
X008527Y004299D01*
X008527Y004249D01*
X008502Y004224D01*
X008477Y004224D01*
X008452Y004249D01*
X008452Y004299D01*
X008477Y004324D01*
X008477Y004371D02*
X008502Y004371D01*
X008527Y004396D01*
X008527Y004446D01*
X008552Y004471D01*
X008577Y004471D01*
X008602Y004446D01*
X008602Y004396D01*
X008577Y004371D01*
X008477Y004371D02*
X008452Y004396D01*
X008452Y004446D01*
X008477Y004471D01*
X008477Y004519D02*
X008577Y004519D01*
X008602Y004544D01*
X008602Y004594D01*
X008577Y004619D01*
X008477Y004619D01*
X008452Y004594D01*
X008452Y004544D01*
X008477Y004519D01*
X008452Y004666D02*
X008452Y004741D01*
X008477Y004766D01*
X008527Y004766D01*
X008552Y004741D01*
X008552Y004666D01*
X008602Y004666D02*
X008452Y004666D01*
X008477Y004177D02*
X008452Y004152D01*
X008452Y004102D01*
X008477Y004077D01*
X008577Y004077D01*
X008502Y003784D02*
X008452Y003734D01*
X008502Y003684D01*
X008602Y003684D01*
X008102Y002704D02*
X008102Y002603D01*
X008002Y002704D01*
X007977Y002704D01*
X007952Y002678D01*
X007952Y002628D01*
X007977Y002603D01*
X007977Y002556D02*
X007952Y002531D01*
X007952Y002481D01*
X007977Y002456D01*
X008077Y002456D01*
X008102Y002481D01*
X008102Y002531D01*
X008077Y002556D01*
X008102Y002408D02*
X008102Y002358D01*
X008102Y002383D02*
X007952Y002383D01*
X007952Y002358D02*
X007952Y002408D01*
X008527Y002408D02*
X008527Y002358D01*
X002449Y002383D02*
X002424Y002358D01*
X002349Y002358D01*
X002349Y002508D01*
X002424Y002508D01*
X002449Y002483D01*
X002449Y002458D01*
X002424Y002433D01*
X002349Y002433D01*
X002302Y002483D02*
X002277Y002508D01*
X002227Y002508D01*
X002202Y002483D01*
X002202Y002383D01*
X002227Y002358D01*
X002277Y002358D01*
X002302Y002383D01*
X002424Y002433D02*
X002449Y002408D01*
X002449Y002383D01*
X002154Y002433D02*
X002154Y002483D01*
X002129Y002508D01*
X002054Y002508D01*
X002054Y002358D01*
X002054Y002408D02*
X002129Y002408D01*
X002154Y002433D01*
X002007Y002458D02*
X001982Y002433D01*
X001907Y002433D01*
X001860Y002408D02*
X001860Y002383D01*
X001835Y002358D01*
X001785Y002358D01*
X001760Y002383D01*
X001712Y002383D02*
X001712Y002508D01*
X001760Y002483D02*
X001760Y002458D01*
X001785Y002433D01*
X001835Y002433D01*
X001860Y002408D01*
X001907Y002358D02*
X001907Y002508D01*
X001982Y002508D01*
X002007Y002483D01*
X002007Y002458D01*
X001982Y002433D02*
X002007Y002408D01*
X002007Y002383D01*
X001982Y002358D01*
X001907Y002358D01*
X001860Y002483D02*
X001835Y002508D01*
X001785Y002508D01*
X001760Y002483D01*
X001712Y002383D02*
X001687Y002358D01*
X001637Y002358D01*
X001612Y002383D01*
X001612Y002508D01*
X001612Y006358D02*
X001712Y006508D01*
X001760Y006458D02*
X001810Y006508D01*
X001810Y006358D01*
X001760Y006358D02*
X001860Y006358D01*
X001712Y006358D02*
X001612Y006508D01*
D18*
X007520Y005836D02*
X009695Y005836D01*
X009695Y001869D01*
X007520Y001869D01*
X007520Y005836D01*
D19*
X012514Y005696D02*
X012514Y001759D01*
X016451Y001759D01*
X016451Y005696D01*
X012514Y005696D01*
X012652Y005459D02*
X012654Y005480D01*
X012660Y005499D01*
X012669Y005518D01*
X012681Y005534D01*
X012697Y005548D01*
X012714Y005559D01*
X012733Y005567D01*
X012754Y005571D01*
X012774Y005571D01*
X012795Y005567D01*
X012814Y005559D01*
X012831Y005548D01*
X012847Y005534D01*
X012859Y005518D01*
X012868Y005499D01*
X012874Y005480D01*
X012876Y005459D01*
X012874Y005438D01*
X012868Y005419D01*
X012859Y005400D01*
X012847Y005384D01*
X012831Y005370D01*
X012814Y005359D01*
X012795Y005351D01*
X012774Y005347D01*
X012754Y005347D01*
X012733Y005351D01*
X012714Y005359D01*
X012697Y005370D01*
X012681Y005384D01*
X012669Y005400D01*
X012660Y005419D01*
X012654Y005438D01*
X012652Y005459D01*
X013265Y004804D02*
X013415Y004804D01*
X013340Y004804D02*
X013340Y004353D01*
X013265Y004353D02*
X013415Y004353D01*
X013572Y004428D02*
X013647Y004353D01*
X013797Y004353D01*
X013872Y004428D01*
X014033Y004353D02*
X014333Y004353D01*
X014183Y004353D02*
X014183Y004804D01*
X014033Y004654D01*
X013872Y004729D02*
X013797Y004804D01*
X013647Y004804D01*
X013572Y004729D01*
X013572Y004428D01*
X020107Y007268D02*
X020257Y007118D01*
X020557Y007118D02*
X020557Y007418D01*
X020557Y007268D02*
X020107Y007268D01*
X023132Y001668D02*
X023132Y001368D01*
X022907Y001593D01*
X023357Y001593D01*
X023357Y001207D02*
X023357Y000907D01*
X023057Y000907D02*
X022907Y001057D01*
X023357Y001057D01*
D20*
X015959Y001545D03*
X015762Y001545D03*
X015565Y001545D03*
X015368Y001545D03*
X015171Y001545D03*
X014975Y001545D03*
X014778Y001545D03*
X014581Y001545D03*
X014384Y001545D03*
X014187Y001545D03*
X013990Y001545D03*
X013793Y001545D03*
X013597Y001545D03*
X013400Y001545D03*
X013203Y001545D03*
X013006Y001545D03*
X013006Y005911D03*
X013203Y005911D03*
X013400Y005911D03*
X013597Y005911D03*
X013793Y005911D03*
X013990Y005911D03*
X014187Y005911D03*
X014384Y005911D03*
X014581Y005911D03*
X014778Y005911D03*
X014975Y005911D03*
X015171Y005911D03*
X015368Y005911D03*
X015565Y005911D03*
X015762Y005911D03*
X015959Y005911D03*
D21*
X016665Y005204D03*
X016665Y005007D03*
X016665Y004811D03*
X016665Y004614D03*
X016665Y004417D03*
X016665Y004220D03*
X016665Y004023D03*
X016665Y003826D03*
X016665Y003629D03*
X016665Y003433D03*
X016665Y003236D03*
X016665Y003039D03*
X016665Y002842D03*
X016665Y002645D03*
X016665Y002448D03*
X016665Y002252D03*
X012299Y002252D03*
X012299Y002448D03*
X012299Y002645D03*
X012299Y002842D03*
X012299Y003039D03*
X012299Y003236D03*
X012299Y003433D03*
X012299Y003629D03*
X012299Y003826D03*
X012299Y004023D03*
X012299Y004220D03*
X012299Y004417D03*
X012299Y004614D03*
X012299Y004811D03*
X012299Y005007D03*
X012299Y005204D03*
M02*
