%
M48
M72
T01C0.0236
T02C0.0400
%
T01
X6482Y2853
X8607Y2978
X9357Y3728
X11107Y3603
X10857Y2853
X11357Y2478
X13482Y2978
X14107Y3728
X14732Y4478
X11107Y4478
X15982Y2603
X16607Y1603
X12482Y1478
X9107Y1353
X4607Y6103
X10857Y6728
T02
X21232Y6353
X22232Y6353
X22232Y5353
X21232Y5353
X21232Y4353
X22232Y4353
X22232Y3353
X21232Y3353
X21232Y2353
X22232Y2353
X22232Y1353
X21232Y1353
X21232Y7353
X22232Y7353
M30
