%FSAX25Y25*%
%MOIN*%
G70*
G01*
G75*
G04 Layer_Color=16711935*
%ADD10O,0.06496X0.01181*%
%ADD11R,0.05906X0.05906*%
%ADD12O,0.07480X0.02362*%
%ADD13O,0.08268X0.01772*%
%ADD14R,0.05118X0.03937*%
%ADD15O,0.01181X0.06890*%
%ADD16O,0.06890X0.01181*%
%ADD17R,0.05512X0.05512*%
%ADD18R,0.03937X0.05118*%
%ADD19C,0.01000*%
%ADD20C,0.01400*%
%ADD21C,0.02000*%
%ADD22C,0.01200*%
%ADD23C,0.01600*%
%ADD24C,0.05906*%
%ADD25C,0.02362*%
%ADD26R,0.05906X0.05906*%
%ADD27C,0.03000*%
%ADD28R,0.09843X0.07874*%
%ADD29R,0.09055X0.01969*%
%ADD30C,0.00984*%
%ADD31C,0.02362*%
%ADD32C,0.00787*%
%ADD33C,0.00800*%
%ADD34O,0.07296X0.01981*%
%ADD35R,0.06706X0.06706*%
%ADD36O,0.08280X0.03162*%
%ADD37O,0.09068X0.02572*%
%ADD38R,0.05918X0.04737*%
%ADD39O,0.01981X0.07690*%
%ADD40O,0.07690X0.01981*%
%ADD41R,0.06312X0.06312*%
%ADD42R,0.04737X0.05918*%
%ADD43C,0.06706*%
%ADD44C,0.03162*%
%ADD45R,0.06706X0.06706*%
%ADD46C,0.03800*%
%ADD47R,0.10642X0.08674*%
%ADD48R,0.09855X0.02769*%
D35*
X0350000Y0370000D02*
D03*
X0420000Y0520000D02*
D03*
X0227000Y0380000D02*
D03*
X0286000Y0490000D02*
D03*
X0350000Y0380000D02*
D03*
X0220000Y0540000D02*
D03*
X0420000Y0510000D02*
D03*
D41*
X0354000Y0449457D02*
D03*
X0354000Y0456543D02*
D03*
X0375000Y0449457D02*
D03*
X0375000Y0456543D02*
D03*
D42*
X0236150Y0497000D02*
D03*
X0229850Y0497000D02*
D03*
X0238000Y0527000D02*
D03*
X0231701Y0527000D02*
D03*
D43*
X0360000Y0370000D02*
D03*
X0370000Y0370000D02*
D03*
X0380000Y0370000D02*
D03*
X0390000Y0370000D02*
D03*
X0400000Y0370000D02*
D03*
X0410000Y0370000D02*
D03*
X0420000Y0370000D02*
D03*
X0410000Y0520000D02*
D03*
X0400000Y0520000D02*
D03*
X0390000Y0520000D02*
D03*
X0380000Y0520000D02*
D03*
X0370000Y0520000D02*
D03*
X0360000Y0520000D02*
D03*
X0350000Y0520000D02*
D03*
X0227000Y0390000D02*
D03*
X0237000Y0380000D02*
D03*
X0237000Y0390000D02*
D03*
X0247000Y0380000D02*
D03*
X0247000Y0390000D02*
D03*
X0257000Y0380000D02*
D03*
X0257000Y0390000D02*
D03*
X0267000Y0380000D02*
D03*
X0267000Y0390000D02*
D03*
X0277000Y0380000D02*
D03*
X0277000Y0390000D02*
D03*
X0287000Y0380000D02*
D03*
X0287000Y0390000D02*
D03*
X0256000Y0490000D02*
D03*
X0266000Y0490000D02*
D03*
X0276000Y0490000D02*
D03*
X0420000Y0420000D02*
D03*
X0420000Y0430000D02*
D03*
X0420000Y0440000D02*
D03*
X0420000Y0450000D02*
D03*
X0420000Y0460000D02*
D03*
X0420000Y0470000D02*
D03*
X0420000Y0480000D02*
D03*
X0360000Y0380000D02*
D03*
X0370000Y0380000D02*
D03*
X0380000Y0380000D02*
D03*
X0390000Y0380000D02*
D03*
X0400000Y0380000D02*
D03*
X0410000Y0380000D02*
D03*
X0420000Y0380000D02*
D03*
X0320000Y0430000D02*
D03*
X0320000Y0420000D02*
D03*
X0320000Y0410000D02*
D03*
X0320000Y0400000D02*
D03*
X0320000Y0390000D02*
D03*
X0320000Y0380000D02*
D03*
X0320000Y0370000D02*
D03*
X0230000Y0540000D02*
D03*
X0240000Y0540000D02*
D03*
X0250000Y0540000D02*
D03*
X0260000Y0540000D02*
D03*
X0270000Y0540000D02*
D03*
X0280000Y0540000D02*
D03*
X0290000Y0540000D02*
D03*
X0320000Y0510000D02*
D03*
X0320000Y0500000D02*
D03*
X0320000Y0490000D02*
D03*
X0320000Y0480000D02*
D03*
X0320000Y0470000D02*
D03*
X0320000Y0460000D02*
D03*
X0320000Y0450000D02*
D03*
X0410000Y0510000D02*
D03*
X0400000Y0510000D02*
D03*
X0390000Y0510000D02*
D03*
X0380000Y0510000D02*
D03*
X0370000Y0510000D02*
D03*
X0360000Y0510000D02*
D03*
X0350000Y0510000D02*
D03*
X0430000Y0420000D02*
D03*
X0430000Y0430000D02*
D03*
X0430000Y0440000D02*
D03*
X0430000Y0450000D02*
D03*
X0430000Y0460000D02*
D03*
X0430000Y0470000D02*
D03*
X0430000Y0480000D02*
D03*
X0340000Y0370000D02*
D03*
D44*
X0225669Y0453339D02*
D03*
X0225669Y0470661D02*
D03*
D45*
X0420000Y0410000D02*
D03*
X0320000Y0440000D02*
D03*
X0320000Y0520000D02*
D03*
X0430000Y0410000D02*
D03*
X0340000Y0380000D02*
D03*
D46*
X0270000Y0424000D02*
D03*
X0361639Y0435361D02*
D03*
X0381000Y0449000D02*
D03*
X0381000Y0456000D02*
D03*
X0299000Y0446000D02*
D03*
X0274000Y0460000D02*
D03*
X0274000Y0448000D02*
D03*
X0370000Y0354000D02*
D03*
X0360000Y0354000D02*
D03*
X0350000Y0354000D02*
D03*
X0382000Y0435000D02*
D03*
X0381000Y0440000D02*
D03*
X0384000Y0444000D02*
D03*
X0397000Y0441000D02*
D03*
X0347000Y0455000D02*
D03*
X0420000Y0489000D02*
D03*
X0403000Y0401000D02*
D03*
X0395000Y0401000D02*
D03*
X0264000Y0522000D02*
D03*
X0369000Y0432000D02*
D03*
X0354000Y0432000D02*
D03*
X0281583Y0430000D02*
D03*
X0382000Y0468000D02*
D03*
X0378000Y0465000D02*
D03*
X0373000Y0466000D02*
D03*
X0374000Y0483000D02*
D03*
X0368000Y0466000D02*
D03*
X0292000Y0444000D02*
D03*
X0273000Y0443000D02*
D03*
X0219000Y0527000D02*
D03*
X0230500Y0504500D02*
D03*
X0237500Y0504500D02*
D03*
X0237500Y0519500D02*
D03*
X0262000Y0456000D02*
D03*
X0245000Y0457000D02*
D03*
X0245000Y0462000D02*
D03*
X0245000Y0469500D02*
D03*
X0262000Y0466000D02*
D03*
X0347000Y0449000D02*
D03*
X0359000Y0396000D02*
D03*
X0400000Y0353000D02*
D03*
X0445000Y0355000D02*
D03*
X0445000Y0545000D02*
D03*
X0215000Y0550000D02*
D03*
X0217000Y0464000D02*
D03*
X0215000Y0355000D02*
D03*
X0283000Y0369000D02*
D03*
X0302000Y0414000D02*
D03*
X0349000Y0440000D02*
D03*
X0311000Y0466000D02*
D03*
X0365000Y0354000D02*
D03*
X0340000Y0545000D02*
D03*
D47*
X0235512Y0479520D02*
D03*
X0235512Y0444480D02*
D03*
X0213858Y0444480D02*
D03*
X0213858Y0479520D02*
D03*
D48*
X0235906Y0468299D02*
D03*
X0235906Y0465149D02*
D03*
X0235906Y0462000D02*
D03*
X0235906Y0458850D02*
D03*
X0235906Y0455701D02*
D03*
M02*
