%FSAX25Y25*%
%MOIN*%
G70*
G01*
G75*
G04 Layer_Color=8388736*
%ADD10O,0.06496X0.01181*%
%ADD11R,0.05906X0.05906*%
%ADD12O,0.07480X0.02362*%
%ADD13O,0.08268X0.01772*%
%ADD14R,0.05118X0.03937*%
%ADD15O,0.01181X0.06890*%
%ADD16O,0.06890X0.01181*%
%ADD17R,0.05512X0.05512*%
%ADD18R,0.03937X0.05118*%
%ADD19C,0.01000*%
%ADD20C,0.01400*%
%ADD21C,0.02000*%
%ADD22C,0.01200*%
%ADD23C,0.01600*%
%ADD24C,0.05906*%
%ADD25C,0.02362*%
%ADD26R,0.05906X0.05906*%
%ADD27C,0.03000*%
%ADD28R,0.09843X0.07874*%
%ADD29R,0.09055X0.01969*%
%ADD30C,0.00984*%
%ADD31C,0.02362*%
%ADD32C,0.00787*%
%ADD33C,0.00800*%
%ADD34O,0.07296X0.01981*%
%ADD35R,0.06706X0.06706*%
%ADD36O,0.08280X0.03162*%
%ADD37O,0.09068X0.02572*%
%ADD38R,0.05918X0.04737*%
%ADD39O,0.01981X0.07690*%
%ADD40O,0.07690X0.01981*%
%ADD41R,0.06312X0.06312*%
%ADD42R,0.04737X0.05918*%
%ADD43C,0.06706*%
%ADD44C,0.03162*%
%ADD45R,0.06706X0.06706*%
%ADD46C,0.03800*%
D34*
X0287071Y0517063D02*
D03*
X0287071Y0519031D02*
D03*
X0287071Y0521000D02*
D03*
X0287071Y0522968D02*
D03*
X0287071Y0524937D02*
D03*
X0270929Y0517063D02*
D03*
X0270929Y0519031D02*
D03*
X0270929Y0521000D02*
D03*
X0270929Y0522968D02*
D03*
X0270929Y0524937D02*
D03*
D35*
X0224110Y0445000D02*
D03*
X0237890Y0445000D02*
D03*
X0224110Y0434000D02*
D03*
X0237890Y0434000D02*
D03*
X0285890Y0508000D02*
D03*
X0272110Y0508000D02*
D03*
X0350000Y0370000D02*
D03*
X0420000Y0520000D02*
D03*
X0227000Y0380000D02*
D03*
X0286000Y0490000D02*
D03*
X0350000Y0380000D02*
D03*
X0220000Y0540000D02*
D03*
X0420000Y0510000D02*
D03*
D36*
X0243252Y0504500D02*
D03*
X0243252Y0509500D02*
D03*
X0243252Y0514500D02*
D03*
X0243252Y0519500D02*
D03*
X0224748Y0504500D02*
D03*
X0224748Y0509500D02*
D03*
X0224748Y0514500D02*
D03*
X0224748Y0519500D02*
D03*
D37*
X0254417Y0470634D02*
D03*
X0254417Y0468075D02*
D03*
X0254417Y0465516D02*
D03*
X0254417Y0462957D02*
D03*
X0254417Y0460398D02*
D03*
X0254417Y0457839D02*
D03*
X0254417Y0455279D02*
D03*
X0254417Y0452720D02*
D03*
X0254417Y0450161D02*
D03*
X0254417Y0447602D02*
D03*
X0254417Y0445043D02*
D03*
X0254417Y0442484D02*
D03*
X0254417Y0439925D02*
D03*
X0254417Y0437366D02*
D03*
X0281583Y0470634D02*
D03*
X0281583Y0468075D02*
D03*
X0281583Y0465516D02*
D03*
X0281583Y0462957D02*
D03*
X0281583Y0460398D02*
D03*
X0281583Y0457839D02*
D03*
X0281583Y0455279D02*
D03*
X0281583Y0452720D02*
D03*
X0281583Y0450161D02*
D03*
X0281583Y0447602D02*
D03*
X0281583Y0445043D02*
D03*
X0281583Y0442484D02*
D03*
X0281583Y0439925D02*
D03*
X0281583Y0437366D02*
D03*
D38*
X0257000Y0406150D02*
D03*
X0257000Y0399850D02*
D03*
X0227000Y0368150D02*
D03*
X0227000Y0361850D02*
D03*
X0237000Y0368150D02*
D03*
X0237000Y0361850D02*
D03*
X0247000Y0368150D02*
D03*
X0247000Y0361850D02*
D03*
X0277000Y0368150D02*
D03*
X0277000Y0361850D02*
D03*
X0257000Y0368150D02*
D03*
X0257000Y0361850D02*
D03*
X0298000Y0486850D02*
D03*
X0298000Y0493150D02*
D03*
X0292000Y0440150D02*
D03*
X0292000Y0433850D02*
D03*
D39*
X0345299Y0475886D02*
D03*
X0347268Y0475886D02*
D03*
X0349236Y0475886D02*
D03*
X0351205Y0475886D02*
D03*
X0353173Y0475886D02*
D03*
X0355142Y0475886D02*
D03*
X0357110Y0475886D02*
D03*
X0359079Y0475886D02*
D03*
X0361047Y0475886D02*
D03*
X0363016Y0475886D02*
D03*
X0364984Y0475886D02*
D03*
X0366953Y0475886D02*
D03*
X0368921Y0475886D02*
D03*
X0370890Y0475886D02*
D03*
X0372858Y0475886D02*
D03*
X0374827Y0475886D02*
D03*
X0376795Y0475886D02*
D03*
X0378764Y0475886D02*
D03*
X0380732Y0475886D02*
D03*
X0382701Y0475886D02*
D03*
X0382701Y0424114D02*
D03*
X0380732Y0424114D02*
D03*
X0378764Y0424114D02*
D03*
X0376795Y0424114D02*
D03*
X0374827Y0424114D02*
D03*
X0372858Y0424114D02*
D03*
X0370890Y0424114D02*
D03*
X0368921Y0424114D02*
D03*
X0366953Y0424114D02*
D03*
X0364984Y0424114D02*
D03*
X0363016Y0424114D02*
D03*
X0361047Y0424114D02*
D03*
X0359079Y0424114D02*
D03*
X0357110Y0424114D02*
D03*
X0355142Y0424114D02*
D03*
X0353173Y0424114D02*
D03*
X0351205Y0424114D02*
D03*
X0349236Y0424114D02*
D03*
X0347268Y0424114D02*
D03*
X0345299Y0424114D02*
D03*
D40*
X0389886Y0468701D02*
D03*
X0389886Y0466732D02*
D03*
X0389886Y0464764D02*
D03*
X0389886Y0462795D02*
D03*
X0389886Y0460827D02*
D03*
X0389886Y0458858D02*
D03*
X0389886Y0456890D02*
D03*
X0389886Y0454921D02*
D03*
X0389886Y0452953D02*
D03*
X0389886Y0450984D02*
D03*
X0389886Y0449016D02*
D03*
X0389886Y0447047D02*
D03*
X0389886Y0445079D02*
D03*
X0389886Y0443110D02*
D03*
X0389886Y0441142D02*
D03*
X0389886Y0439173D02*
D03*
X0389886Y0437205D02*
D03*
X0389886Y0435236D02*
D03*
X0389886Y0433268D02*
D03*
X0389886Y0431299D02*
D03*
X0338114Y0431299D02*
D03*
X0338114Y0433268D02*
D03*
X0338114Y0435236D02*
D03*
X0338114Y0437205D02*
D03*
X0338114Y0439173D02*
D03*
X0338114Y0441142D02*
D03*
X0338114Y0443110D02*
D03*
X0338114Y0445079D02*
D03*
X0338114Y0447047D02*
D03*
X0338114Y0449016D02*
D03*
X0338114Y0450984D02*
D03*
X0338114Y0452953D02*
D03*
X0338114Y0454921D02*
D03*
X0338114Y0456890D02*
D03*
X0338114Y0458858D02*
D03*
X0338114Y0460827D02*
D03*
X0338114Y0462795D02*
D03*
X0338114Y0464764D02*
D03*
X0338114Y0466732D02*
D03*
X0338114Y0468701D02*
D03*
D41*
X0235000Y0465543D02*
D03*
X0235000Y0458457D02*
D03*
X0292000Y0452457D02*
D03*
X0292000Y0459543D02*
D03*
X0262000Y0505457D02*
D03*
X0262000Y0512543D02*
D03*
D42*
X0228850Y0424000D02*
D03*
X0235150Y0424000D02*
D03*
D43*
X0360000Y0370000D02*
D03*
X0370000Y0370000D02*
D03*
X0380000Y0370000D02*
D03*
X0390000Y0370000D02*
D03*
X0400000Y0370000D02*
D03*
X0410000Y0370000D02*
D03*
X0420000Y0370000D02*
D03*
X0410000Y0520000D02*
D03*
X0400000Y0520000D02*
D03*
X0390000Y0520000D02*
D03*
X0380000Y0520000D02*
D03*
X0370000Y0520000D02*
D03*
X0360000Y0520000D02*
D03*
X0350000Y0520000D02*
D03*
X0227000Y0390000D02*
D03*
X0237000Y0380000D02*
D03*
X0237000Y0390000D02*
D03*
X0247000Y0380000D02*
D03*
X0247000Y0390000D02*
D03*
X0257000Y0380000D02*
D03*
X0257000Y0390000D02*
D03*
X0267000Y0380000D02*
D03*
X0267000Y0390000D02*
D03*
X0277000Y0380000D02*
D03*
X0277000Y0390000D02*
D03*
X0287000Y0380000D02*
D03*
X0287000Y0390000D02*
D03*
X0256000Y0490000D02*
D03*
X0266000Y0490000D02*
D03*
X0276000Y0490000D02*
D03*
X0420000Y0420000D02*
D03*
X0420000Y0430000D02*
D03*
X0420000Y0440000D02*
D03*
X0420000Y0450000D02*
D03*
X0420000Y0460000D02*
D03*
X0420000Y0470000D02*
D03*
X0420000Y0480000D02*
D03*
X0360000Y0380000D02*
D03*
X0370000Y0380000D02*
D03*
X0380000Y0380000D02*
D03*
X0390000Y0380000D02*
D03*
X0400000Y0380000D02*
D03*
X0410000Y0380000D02*
D03*
X0420000Y0380000D02*
D03*
X0320000Y0430000D02*
D03*
X0320000Y0420000D02*
D03*
X0320000Y0410000D02*
D03*
X0320000Y0400000D02*
D03*
X0320000Y0390000D02*
D03*
X0320000Y0380000D02*
D03*
X0320000Y0370000D02*
D03*
X0230000Y0540000D02*
D03*
X0240000Y0540000D02*
D03*
X0250000Y0540000D02*
D03*
X0260000Y0540000D02*
D03*
X0270000Y0540000D02*
D03*
X0280000Y0540000D02*
D03*
X0290000Y0540000D02*
D03*
X0320000Y0510000D02*
D03*
X0320000Y0500000D02*
D03*
X0320000Y0490000D02*
D03*
X0320000Y0480000D02*
D03*
X0320000Y0470000D02*
D03*
X0320000Y0460000D02*
D03*
X0320000Y0450000D02*
D03*
X0410000Y0510000D02*
D03*
X0400000Y0510000D02*
D03*
X0390000Y0510000D02*
D03*
X0380000Y0510000D02*
D03*
X0370000Y0510000D02*
D03*
X0360000Y0510000D02*
D03*
X0350000Y0510000D02*
D03*
X0430000Y0420000D02*
D03*
X0430000Y0430000D02*
D03*
X0430000Y0440000D02*
D03*
X0430000Y0450000D02*
D03*
X0430000Y0460000D02*
D03*
X0430000Y0470000D02*
D03*
X0430000Y0480000D02*
D03*
X0340000Y0370000D02*
D03*
D44*
X0225669Y0453339D02*
D03*
X0225669Y0470661D02*
D03*
D45*
X0420000Y0410000D02*
D03*
X0320000Y0440000D02*
D03*
X0320000Y0520000D02*
D03*
X0430000Y0410000D02*
D03*
X0340000Y0380000D02*
D03*
D46*
X0270000Y0424000D02*
D03*
X0361639Y0435361D02*
D03*
X0381000Y0449000D02*
D03*
X0381000Y0456000D02*
D03*
X0299000Y0446000D02*
D03*
X0274000Y0460000D02*
D03*
X0274000Y0448000D02*
D03*
X0370000Y0354000D02*
D03*
X0360000Y0354000D02*
D03*
X0350000Y0354000D02*
D03*
X0382000Y0435000D02*
D03*
X0381000Y0440000D02*
D03*
X0384000Y0444000D02*
D03*
X0397000Y0441000D02*
D03*
X0347000Y0455000D02*
D03*
X0420000Y0489000D02*
D03*
X0403000Y0401000D02*
D03*
X0395000Y0401000D02*
D03*
X0264000Y0522000D02*
D03*
X0369000Y0432000D02*
D03*
X0354000Y0432000D02*
D03*
X0281583Y0430000D02*
D03*
X0382000Y0468000D02*
D03*
X0378000Y0465000D02*
D03*
X0373000Y0466000D02*
D03*
X0374000Y0483000D02*
D03*
X0368000Y0466000D02*
D03*
X0292000Y0444000D02*
D03*
X0273000Y0443000D02*
D03*
X0219000Y0527000D02*
D03*
X0230500Y0504500D02*
D03*
X0237500Y0504500D02*
D03*
X0237500Y0519500D02*
D03*
X0262000Y0456000D02*
D03*
X0245000Y0457000D02*
D03*
X0245000Y0462000D02*
D03*
X0245000Y0469500D02*
D03*
X0262000Y0466000D02*
D03*
X0347000Y0449000D02*
D03*
X0359000Y0396000D02*
D03*
X0400000Y0353000D02*
D03*
X0445000Y0355000D02*
D03*
X0445000Y0545000D02*
D03*
X0215000Y0550000D02*
D03*
X0217000Y0464000D02*
D03*
X0215000Y0355000D02*
D03*
X0283000Y0369000D02*
D03*
X0302000Y0414000D02*
D03*
X0349000Y0440000D02*
D03*
X0311000Y0466000D02*
D03*
X0365000Y0354000D02*
D03*
X0340000Y0545000D02*
D03*
M02*
