M48
;Layer_Color=9474304
;FILE_FORMAT=2:4
INCH
;TYPE=PLATED
T1F00S00C0.0180
T2F00S00C0.0354
;TYPE=NON_PLATED
T3F00S00C0.0354
%
T01
X021500Y035500
X028300Y036900
X028158Y043000
X027000Y042400
X027300Y044300
X027400Y044800
X027400Y046000
X026200Y045600
X026200Y046600
X024500Y046200
X024500Y045700
X021700Y046400
X029200Y044400
X029900Y044600
X031100Y046600
X030200Y041400
X035400Y043200
X036164Y043536
X036900Y043200
X038200Y043500
X038100Y044000
X038400Y044400
X038100Y044900
X038100Y045600
X037800Y046500
X037300Y046600
X036800Y046600
X038200Y046800
X039700Y044100
X039500Y040100
X040300Y040100
X035900Y039600
X036000Y035400
X036500Y035400
X037000Y035400
X035000Y035400
X040000Y035300
X044500Y035500
X034900Y044000
X034700Y044900
X034700Y045500
X037400Y048300
X042000Y048900
X044500Y054500
X034000Y054500
X026400Y052200
X023750Y051950
X023750Y050450
X023050Y050450
X021900Y052700
X021500Y055000
X024500Y046950
T02
X022700Y038000
X022700Y039000
X023700Y039000
X023700Y038000
X024700Y038000
X024700Y039000
X025700Y039000
X025700Y038000
X026700Y038000
X026700Y039000
X027700Y039000
X027700Y038000
X028700Y038000
X028700Y039000
X032000Y039000
X032000Y040000
X032000Y041000
X032000Y042000
X032000Y043000
X032000Y044000
X032000Y045000
X032000Y046000
X032000Y038000
X032000Y037000
X034000Y037000
X035000Y037000
X036000Y037000
X037000Y037000
X038000Y037000
X039000Y037000
X040000Y037000
X041000Y037000
X042000Y037000
X042000Y038000
X041000Y038000
X040000Y038000
X039000Y038000
X038000Y038000
X037000Y038000
X036000Y038000
X035000Y038000
X034000Y038000
X042000Y041000
X042000Y042000
X042000Y043000
X042000Y044000
X042000Y045000
X042000Y046000
X043000Y046000
X043000Y045000
X043000Y044000
X043000Y043000
X043000Y042000
X043000Y041000
X043000Y047000
X042000Y047000
X042000Y048000
X043000Y048000
X042000Y051000
X042000Y052000
X041000Y052000
X040000Y052000
X039000Y052000
X038000Y052000
X037000Y052000
X036000Y052000
X035000Y052000
X035000Y051000
X036000Y051000
X037000Y051000
X038000Y051000
X039000Y051000
X040000Y051000
X041000Y051000
X032000Y051000
X032000Y052000
X032000Y050000
X032000Y049000
X032000Y048000
X032000Y047000
X028600Y049000
X027600Y049000
X026600Y049000
X025600Y049000
X026000Y054000
X025000Y054000
X024000Y054000
X023000Y054000
X022000Y054000
X027000Y054000
X028000Y054000
X029000Y054000
T03
X022567Y045334
X022567Y047066
M30
