%FSAX25Y25*%
%MOIN*%
G70*
G01*
G75*
G04 Layer_Color=16711935*
%ADD10O,0.06496X0.01181*%
%ADD11R,0.05906X0.05906*%
%ADD12O,0.07480X0.02362*%
%ADD13O,0.08268X0.01772*%
%ADD14R,0.05118X0.03937*%
%ADD15O,0.01181X0.06890*%
%ADD16O,0.06890X0.01181*%
%ADD17R,0.05512X0.05512*%
%ADD18R,0.03937X0.05118*%
%ADD19C,0.01000*%
%ADD20C,0.01400*%
%ADD21C,0.02000*%
%ADD22C,0.01200*%
%ADD23C,0.01600*%
%ADD24C,0.05906*%
%ADD25C,0.02362*%
%ADD26R,0.05906X0.05906*%
%ADD27C,0.03000*%
%ADD28R,0.09843X0.07874*%
%ADD29R,0.09055X0.01969*%
%ADD30C,0.00984*%
%ADD31C,0.02362*%
%ADD32C,0.00787*%
%ADD33C,0.00800*%
%ADD34O,0.07296X0.01981*%
%ADD35R,0.06706X0.06706*%
%ADD36O,0.08280X0.03162*%
%ADD37O,0.09068X0.02572*%
%ADD38R,0.05918X0.04737*%
%ADD39O,0.01981X0.07690*%
%ADD40O,0.07690X0.01981*%
%ADD41R,0.06312X0.06312*%
%ADD42R,0.04737X0.05918*%
%ADD43C,0.06706*%
%ADD44C,0.03162*%
%ADD45R,0.06706X0.06706*%
%ADD46C,0.03800*%
%ADD47R,0.10642X0.08674*%
%ADD48R,0.09855X0.02769*%
%ADD49C,0.00394*%
%ADD50C,0.00600*%
%ADD51C,0.00118*%
D19*
X0206500Y0562000D02*
X0487000Y0562000D01*
X0206500Y0342000D02*
X0487000Y0342000D01*
X0486000Y0486989D02*
X0486000Y0562000D01*
X0486000Y0342000D02*
X0486000Y0413811D01*
X0484000Y0556000D02*
X0486000Y0562000D01*
X0488000Y0556000D01*
X0486000Y0342000D02*
X0488000Y0348000D01*
X0484000Y0348000D02*
X0486000Y0342000D01*
X0460000Y0314000D02*
X0460000Y0340500D01*
X0205000Y0314000D02*
X0205000Y0340500D01*
X0367489Y0315000D02*
X0460000Y0315000D01*
X0205000Y0315000D02*
X0294311Y0315000D01*
X0454000Y0317000D02*
X0460000Y0315000D01*
X0454000Y0313000D02*
X0460000Y0315000D01*
X0205000Y0315000D02*
X0211000Y0313000D01*
X0205000Y0315000D02*
X0211000Y0317000D01*
D49*
X0205000Y0442512D02*
X0205000Y0481488D01*
X0231000Y0444213D02*
X0231000Y0445787D01*
X0230213Y0445000D02*
X0231787Y0445000D01*
X0231000Y0433213D02*
X0231000Y0434787D01*
X0230213Y0434000D02*
X0231787Y0434000D01*
X0279000Y0507213D02*
X0279000Y0508787D01*
X0278213Y0508000D02*
X0279787Y0508000D01*
D50*
X0489599Y0419410D02*
X0489599Y0415411D01*
X0485600Y0419410D01*
X0484601Y0419410D01*
X0483601Y0418410D01*
X0483601Y0416411D01*
X0484601Y0415411D01*
X0489599Y0425408D02*
X0489599Y0421409D01*
X0485600Y0425408D01*
X0484601Y0425408D01*
X0483601Y0424408D01*
X0483601Y0422409D01*
X0484601Y0421409D01*
X0484601Y0427407D02*
X0483601Y0428407D01*
X0483601Y0430407D01*
X0484601Y0431406D01*
X0488599Y0431406D01*
X0489599Y0430407D01*
X0489599Y0428407D01*
X0488599Y0427407D01*
X0484601Y0427407D01*
X0484601Y0433405D02*
X0483601Y0434405D01*
X0483601Y0436405D01*
X0484601Y0437404D01*
X0488599Y0437404D01*
X0489599Y0436405D01*
X0489599Y0434405D01*
X0488599Y0433405D01*
X0484601Y0433405D01*
X0489599Y0439404D02*
X0488599Y0439404D01*
X0488599Y0440403D01*
X0489599Y0440403D01*
X0489599Y0439404D01*
X0484601Y0444402D02*
X0483601Y0445402D01*
X0483601Y0447401D01*
X0484601Y0448401D01*
X0488599Y0448401D01*
X0489599Y0447401D01*
X0489599Y0445402D01*
X0488599Y0444402D01*
X0484601Y0444402D01*
X0484601Y0450400D02*
X0483601Y0451400D01*
X0483601Y0453399D01*
X0484601Y0454399D01*
X0488599Y0454399D01*
X0489599Y0453399D01*
X0489599Y0451400D01*
X0488599Y0450400D01*
X0484601Y0450400D01*
X0489599Y0464396D02*
X0487600Y0462396D01*
X0485600Y0462396D01*
X0483601Y0464396D01*
X0489599Y0467394D02*
X0485600Y0467394D01*
X0485600Y0468394D01*
X0486600Y0469394D01*
X0489599Y0469394D01*
X0486600Y0469394D01*
X0485600Y0470394D01*
X0486600Y0471393D01*
X0489599Y0471393D01*
X0489599Y0473393D02*
X0489599Y0475392D01*
X0489599Y0474392D01*
X0485600Y0474392D01*
X0485600Y0473393D01*
X0489599Y0478391D02*
X0489599Y0480390D01*
X0489599Y0479391D01*
X0483601Y0479391D01*
X0483601Y0478391D01*
X0489599Y0483389D02*
X0487600Y0485389D01*
X0485600Y0485389D01*
X0483601Y0483389D01*
X0299910Y0311401D02*
X0295911Y0311401D01*
X0299910Y0315400D01*
X0299910Y0316399D01*
X0298910Y0317399D01*
X0296911Y0317399D01*
X0295911Y0316399D01*
X0305908Y0317399D02*
X0301909Y0317399D01*
X0301909Y0314400D01*
X0303909Y0315400D01*
X0304908Y0315400D01*
X0305908Y0314400D01*
X0305908Y0312401D01*
X0304908Y0311401D01*
X0302909Y0311401D01*
X0301909Y0312401D01*
X0311906Y0317399D02*
X0307907Y0317399D01*
X0307907Y0314400D01*
X0309907Y0315400D01*
X0310907Y0315400D01*
X0311906Y0314400D01*
X0311906Y0312401D01*
X0310907Y0311401D01*
X0308907Y0311401D01*
X0307907Y0312401D01*
X0313906Y0316399D02*
X0314905Y0317399D01*
X0316904Y0317399D01*
X0317904Y0316399D01*
X0317904Y0312401D01*
X0316904Y0311401D01*
X0314905Y0311401D01*
X0313906Y0312401D01*
X0313906Y0316399D01*
X0319904Y0311401D02*
X0319904Y0312401D01*
X0320903Y0312401D01*
X0320903Y0311401D01*
X0319904Y0311401D01*
X0324902Y0316399D02*
X0325902Y0317399D01*
X0327901Y0317399D01*
X0328901Y0316399D01*
X0328901Y0312401D01*
X0327901Y0311401D01*
X0325902Y0311401D01*
X0324902Y0312401D01*
X0324902Y0316399D01*
X0330900Y0316399D02*
X0331900Y0317399D01*
X0333899Y0317399D01*
X0334899Y0316399D01*
X0334899Y0312401D01*
X0333899Y0311401D01*
X0331900Y0311401D01*
X0330900Y0312401D01*
X0330900Y0316399D01*
X0344896Y0311401D02*
X0342896Y0313400D01*
X0342896Y0315400D01*
X0344896Y0317399D01*
X0347895Y0311401D02*
X0347895Y0315400D01*
X0348894Y0315400D01*
X0349894Y0314400D01*
X0349894Y0311401D01*
X0349894Y0314400D01*
X0350893Y0315400D01*
X0351893Y0314400D01*
X0351893Y0311401D01*
X0353893Y0311401D02*
X0355892Y0311401D01*
X0354892Y0311401D01*
X0354892Y0315400D01*
X0353893Y0315400D01*
X0358891Y0311401D02*
X0360890Y0311401D01*
X0359891Y0311401D01*
X0359891Y0317399D01*
X0358891Y0317399D01*
X0363889Y0311401D02*
X0365889Y0313400D01*
X0365889Y0315400D01*
X0363889Y0317399D01*
D51*
X0203298Y0446108D02*
X0204282Y0446108D01*
X0204282Y0446600D01*
X0204118Y0446765D01*
X0203790Y0446765D01*
X0203626Y0446600D01*
X0203626Y0446108D01*
X0204118Y0447748D02*
X0204282Y0447584D01*
X0204282Y0447256D01*
X0204118Y0447092D01*
X0203462Y0447092D01*
X0203298Y0447256D01*
X0203298Y0447584D01*
X0203462Y0447748D01*
X0204282Y0448076D02*
X0203298Y0448076D01*
X0203298Y0448568D01*
X0203462Y0448732D01*
X0203626Y0448732D01*
X0203790Y0448568D01*
X0203790Y0448076D01*
X0203790Y0448568D01*
X0203954Y0448732D01*
X0204118Y0448732D01*
X0204282Y0448568D01*
X0204282Y0448076D01*
X0204282Y0450700D02*
X0204282Y0450044D01*
X0203298Y0450044D01*
X0203298Y0450700D01*
X0203790Y0450044D02*
X0203790Y0450372D01*
X0204282Y0451684D02*
X0203298Y0451684D01*
X0203298Y0451192D01*
X0203462Y0451028D01*
X0203790Y0451028D01*
X0203954Y0451192D01*
X0203954Y0451684D01*
X0202970Y0452340D02*
X0202970Y0452504D01*
X0203134Y0452668D01*
X0203954Y0452668D01*
X0203954Y0452176D01*
X0203790Y0452012D01*
X0203462Y0452012D01*
X0203298Y0452176D01*
X0203298Y0452668D01*
X0203298Y0453488D02*
X0203298Y0453160D01*
X0203462Y0452996D01*
X0203790Y0452996D01*
X0203954Y0453160D01*
X0203954Y0453488D01*
X0203790Y0453652D01*
X0203626Y0453652D01*
X0203626Y0452996D01*
M02*
