%FSAX25Y25*%
%MOIN*%
G70*
G01*
G75*
G04 Layer_Physical_Order=2*
G04 Layer_Color=16711680*
%ADD10O,0.06496X0.01181*%
%ADD11R,0.05906X0.05906*%
%ADD12O,0.07480X0.02362*%
%ADD13O,0.08268X0.01772*%
%ADD14R,0.05118X0.03937*%
%ADD15O,0.01181X0.06890*%
%ADD16O,0.06890X0.01181*%
%ADD17R,0.05512X0.05512*%
%ADD18R,0.03937X0.05118*%
%ADD19C,0.01000*%
%ADD20C,0.01400*%
%ADD21C,0.02000*%
%ADD22C,0.01200*%
%ADD23C,0.01600*%
%ADD24C,0.05906*%
%ADD25C,0.02362*%
%ADD26R,0.05906X0.05906*%
%ADD27C,0.03000*%
%ADD28R,0.09843X0.07874*%
%ADD29R,0.09055X0.01969*%
G36*
X0415629Y0371343D02*
X0415564Y0371188D01*
X0415408Y0370000D01*
X0415564Y0368811D01*
X0416023Y0367704D01*
X0416753Y0366753D01*
X0417002Y0366562D01*
X0417035Y0366063D01*
X0403549Y0352577D01*
X0403100Y0352798D01*
X0403061Y0352500D01*
X0399999Y0352500D01*
X0399999Y0352999D01*
X0399500Y0352999D01*
X0399500Y0356061D01*
X0399798Y0356100D01*
X0399577Y0356549D01*
X0408657Y0365629D01*
X0408812Y0365564D01*
X0410000Y0365408D01*
X0411189Y0365564D01*
X0412296Y0366023D01*
X0413247Y0366753D01*
X0413977Y0367704D01*
X0414436Y0368811D01*
X0414592Y0370000D01*
X0414436Y0371188D01*
X0413977Y0372296D01*
X0414372Y0372600D01*
X0415629Y0371343D01*
X0415629Y0371343D02*
G37*
G36*
X0457859Y0344141D02*
X0207141Y0344141D01*
X0207141Y0438943D01*
X0207141Y0438943D01*
X0207337Y0438943D01*
X0207495Y0438943D01*
X0207495Y0438943D01*
X0207495Y0438943D01*
X0219385Y0438943D01*
X0219467Y0438321D01*
X0219729Y0437689D01*
X0220146Y0437146D01*
X0259378Y0397914D01*
X0259378Y0394393D01*
X0258962Y0394115D01*
X0258189Y0394436D01*
X0257000Y0394592D01*
X0255812Y0394436D01*
X0254704Y0393977D01*
X0253753Y0393247D01*
X0253023Y0392296D01*
X0252564Y0391189D01*
X0252408Y0390000D01*
X0252564Y0388811D01*
X0253023Y0387704D01*
X0253753Y0386753D01*
X0254704Y0386023D01*
X0255812Y0385564D01*
X0257000Y0385408D01*
X0258189Y0385564D01*
X0258978Y0385891D01*
X0259411Y0385641D01*
X0259467Y0385216D01*
X0259729Y0384583D01*
X0260146Y0384040D01*
X0260517Y0383669D01*
X0260285Y0383405D01*
X0260051Y0383397D01*
X0259296Y0383977D01*
X0258189Y0384436D01*
X0257000Y0384592D01*
X0255812Y0384436D01*
X0254704Y0383977D01*
X0253753Y0383247D01*
X0253023Y0382296D01*
X0252564Y0381189D01*
X0252408Y0380000D01*
X0252564Y0378812D01*
X0253023Y0377704D01*
X0253753Y0376753D01*
X0254704Y0376023D01*
X0255812Y0375564D01*
X0257000Y0375408D01*
X0258189Y0375564D01*
X0259296Y0376023D01*
X0260247Y0376753D01*
X0260977Y0377704D01*
X0261436Y0378812D01*
X0261592Y0380000D01*
X0261436Y0381189D01*
X0260977Y0382296D01*
X0260293Y0383187D01*
X0260551Y0383414D01*
X0260551Y0383414D01*
X0260669Y0383517D01*
X0262691Y0381495D01*
X0262564Y0381189D01*
X0262408Y0380000D01*
X0262564Y0378812D01*
X0263023Y0377704D01*
X0263753Y0376753D01*
X0264704Y0376023D01*
X0265811Y0375564D01*
X0267000Y0375408D01*
X0268189Y0375564D01*
X0269296Y0376023D01*
X0269410Y0376111D01*
X0269859Y0375890D01*
X0269859Y0373000D01*
X0270022Y0372181D01*
X0270022Y0372181D01*
X0270022Y0372181D01*
X0270486Y0371486D01*
X0296486Y0345486D01*
X0297181Y0345022D01*
X0297181Y0345022D01*
X0297181Y0345022D01*
X0297181Y0345022D01*
X0297181Y0345022D01*
X0297181Y0345022D01*
X0298000Y0344859D01*
X0401000Y0344859D01*
X0401819Y0345022D01*
X0402514Y0345486D01*
X0421514Y0364486D01*
X0421978Y0365181D01*
X0422132Y0365955D01*
X0422296Y0366023D01*
X0423247Y0366753D01*
X0423977Y0367704D01*
X0424436Y0368811D01*
X0424592Y0370000D01*
X0424436Y0371188D01*
X0423977Y0372296D01*
X0423247Y0373247D01*
X0422296Y0373977D01*
X0421188Y0374436D01*
X0420000Y0374592D01*
X0418812Y0374436D01*
X0418657Y0374371D01*
X0417400Y0375628D01*
X0417704Y0376023D01*
X0418812Y0375564D01*
X0420000Y0375408D01*
X0421188Y0375564D01*
X0422296Y0376023D01*
X0423247Y0376753D01*
X0423977Y0377704D01*
X0424436Y0378812D01*
X0424592Y0380000D01*
X0424436Y0381189D01*
X0423977Y0382296D01*
X0423247Y0383247D01*
X0422296Y0383977D01*
X0421188Y0384436D01*
X0420000Y0384592D01*
X0418812Y0384436D01*
X0417704Y0383977D01*
X0417590Y0383889D01*
X0417141Y0384110D01*
X0417141Y0389000D01*
X0416978Y0389819D01*
X0416514Y0390514D01*
X0406115Y0400913D01*
X0406127Y0401000D01*
X0406020Y0401809D01*
X0405708Y0402563D01*
X0405211Y0403211D01*
X0404563Y0403708D01*
X0403809Y0404020D01*
X0403000Y0404127D01*
X0402191Y0404020D01*
X0401437Y0403708D01*
X0400789Y0403211D01*
X0400292Y0402563D01*
X0399980Y0401809D01*
X0399873Y0401000D01*
X0399980Y0400191D01*
X0400292Y0399437D01*
X0399896Y0399132D01*
X0398115Y0400913D01*
X0398127Y0401000D01*
X0398020Y0401809D01*
X0397708Y0402563D01*
X0397211Y0403211D01*
X0396563Y0403708D01*
X0395809Y0404020D01*
X0395000Y0404127D01*
X0394191Y0404020D01*
X0393437Y0403708D01*
X0392789Y0403211D01*
X0392292Y0402563D01*
X0391980Y0401809D01*
X0391873Y0401000D01*
X0391980Y0400191D01*
X0392292Y0399437D01*
X0392789Y0398789D01*
X0393437Y0398292D01*
X0394191Y0397980D01*
X0395000Y0397873D01*
X0395087Y0397885D01*
X0402859Y0390113D01*
X0402859Y0384110D01*
X0402410Y0383889D01*
X0402296Y0383977D01*
X0401189Y0384436D01*
X0400000Y0384592D01*
X0398812Y0384436D01*
X0397704Y0383977D01*
X0397590Y0383889D01*
X0397141Y0384110D01*
X0397141Y0386000D01*
X0396978Y0386819D01*
X0396514Y0387514D01*
X0375141Y0408887D01*
X0375141Y0434000D01*
X0374978Y0434819D01*
X0374514Y0435514D01*
X0373153Y0436875D01*
X0372458Y0437339D01*
X0371639Y0437502D01*
X0363903Y0437502D01*
X0363850Y0437572D01*
X0363202Y0438069D01*
X0362448Y0438381D01*
X0361639Y0438488D01*
X0360830Y0438381D01*
X0360076Y0438069D01*
X0359428Y0437572D01*
X0359374Y0437502D01*
X0351556Y0437502D01*
X0351335Y0437951D01*
X0351708Y0438437D01*
X0352020Y0439191D01*
X0352061Y0439500D01*
X0345939Y0439500D01*
X0345980Y0439191D01*
X0346292Y0438437D01*
X0346665Y0437951D01*
X0346444Y0437502D01*
X0325361Y0437502D01*
X0324939Y0437418D01*
X0324553Y0437736D01*
X0324553Y0444553D01*
X0315447Y0444553D01*
X0315447Y0435447D01*
X0321766Y0435447D01*
X0321957Y0434985D01*
X0321343Y0434371D01*
X0321188Y0434436D01*
X0320000Y0434592D01*
X0318811Y0434436D01*
X0317704Y0433977D01*
X0316753Y0433247D01*
X0316023Y0432296D01*
X0315564Y0431188D01*
X0315408Y0430000D01*
X0315564Y0428812D01*
X0315692Y0428504D01*
X0315414Y0428088D01*
X0284596Y0428088D01*
X0284318Y0428504D01*
X0284603Y0429191D01*
X0284709Y0430000D01*
X0284603Y0430809D01*
X0284291Y0431563D01*
X0283794Y0432211D01*
X0283146Y0432708D01*
X0282392Y0433020D01*
X0281583Y0433127D01*
X0280773Y0433020D01*
X0280019Y0432708D01*
X0279372Y0432211D01*
X0278875Y0431563D01*
X0278562Y0430809D01*
X0278456Y0430000D01*
X0278522Y0429499D01*
X0278074Y0429278D01*
X0266741Y0440610D01*
X0266741Y0441840D01*
X0267203Y0442032D01*
X0270749Y0438486D01*
X0271443Y0438022D01*
X0272263Y0437859D01*
X0288000Y0437859D01*
X0288819Y0438022D01*
X0289514Y0438486D01*
X0289514Y0438486D01*
X0289514Y0438486D01*
X0291913Y0440885D01*
X0292000Y0440873D01*
X0292809Y0440980D01*
X0293563Y0441292D01*
X0294211Y0441789D01*
X0294708Y0442437D01*
X0295020Y0443191D01*
X0295127Y0444000D01*
X0295020Y0444809D01*
X0294708Y0445563D01*
X0294211Y0446211D01*
X0293563Y0446708D01*
X0292809Y0447020D01*
X0292000Y0447127D01*
X0291191Y0447020D01*
X0290437Y0446708D01*
X0289789Y0446211D01*
X0289292Y0445563D01*
X0288980Y0444809D01*
X0288873Y0444000D01*
X0288885Y0443913D01*
X0287113Y0442141D01*
X0276393Y0442141D01*
X0276063Y0442517D01*
X0276127Y0443000D01*
X0276020Y0443809D01*
X0275708Y0444563D01*
X0275456Y0444892D01*
X0275563Y0445292D01*
X0276211Y0445789D01*
X0276708Y0446437D01*
X0277020Y0447191D01*
X0277127Y0448000D01*
X0277020Y0448809D01*
X0276708Y0449563D01*
X0276345Y0450036D01*
X0276345Y0457655D01*
X0297029Y0457655D01*
X0301342Y0453342D01*
X0302103Y0452833D01*
X0303000Y0452655D01*
X0315722Y0452655D01*
X0316000Y0452239D01*
X0315564Y0451189D01*
X0315408Y0450000D01*
X0315564Y0448811D01*
X0316023Y0447704D01*
X0316753Y0446753D01*
X0317704Y0446023D01*
X0318811Y0445564D01*
X0320000Y0445408D01*
X0321188Y0445564D01*
X0322296Y0446023D01*
X0323247Y0446753D01*
X0323977Y0447704D01*
X0324436Y0448811D01*
X0324592Y0450000D01*
X0324436Y0451189D01*
X0323977Y0452296D01*
X0324154Y0452655D01*
X0344964Y0452655D01*
X0345437Y0452292D01*
X0345538Y0452250D01*
X0345538Y0451750D01*
X0345437Y0451708D01*
X0344789Y0451211D01*
X0344292Y0450563D01*
X0343980Y0449809D01*
X0343939Y0449500D01*
X0347001Y0449500D01*
X0347001Y0449001D01*
X0347500Y0449001D01*
X0347500Y0445939D01*
X0347809Y0445980D01*
X0348563Y0446292D01*
X0349196Y0446777D01*
X0349644Y0446556D01*
X0349644Y0445101D01*
X0353500Y0445101D01*
X0353500Y0449458D01*
X0353999Y0449458D01*
X0353999Y0449957D01*
X0358356Y0449957D01*
X0358356Y0452187D01*
X0358356Y0453921D01*
X0360370Y0453921D01*
X0366689Y0447602D01*
X0366689Y0447602D01*
X0367232Y0447186D01*
X0367232Y0447186D01*
X0367232Y0447186D01*
X0367232Y0447186D01*
X0367232Y0447186D01*
X0367232Y0447186D01*
X0367865Y0446924D01*
X0368543Y0446834D01*
X0370644Y0446834D01*
X0370644Y0445101D01*
X0379356Y0445101D01*
X0379356Y0445876D01*
X0379772Y0446153D01*
X0380191Y0445980D01*
X0380992Y0445874D01*
X0381002Y0445856D01*
X0381101Y0445103D01*
X0380980Y0444809D01*
X0380873Y0444000D01*
X0380942Y0443476D01*
X0380638Y0443079D01*
X0380191Y0443020D01*
X0379437Y0442708D01*
X0378789Y0442211D01*
X0378292Y0441563D01*
X0377980Y0440809D01*
X0377873Y0440000D01*
X0377980Y0439191D01*
X0378292Y0438437D01*
X0378789Y0437789D01*
X0379417Y0437307D01*
X0379482Y0436811D01*
X0379292Y0436563D01*
X0378980Y0435809D01*
X0378873Y0435000D01*
X0378980Y0434191D01*
X0379292Y0433437D01*
X0379789Y0432789D01*
X0380437Y0432292D01*
X0381191Y0431980D01*
X0382000Y0431873D01*
X0382087Y0431885D01*
X0400486Y0413486D01*
X0401181Y0413022D01*
X0402000Y0412859D01*
X0415447Y0412859D01*
X0415447Y0405447D01*
X0424553Y0405447D01*
X0424553Y0411766D01*
X0425015Y0411957D01*
X0425447Y0411525D01*
X0425447Y0405447D01*
X0434553Y0405447D01*
X0434553Y0414553D01*
X0428475Y0414553D01*
X0427400Y0415628D01*
X0427704Y0416023D01*
X0428812Y0415564D01*
X0430000Y0415408D01*
X0431188Y0415564D01*
X0432296Y0416023D01*
X0433247Y0416753D01*
X0433977Y0417704D01*
X0434436Y0418812D01*
X0434592Y0420000D01*
X0434436Y0421188D01*
X0433977Y0422296D01*
X0433247Y0423247D01*
X0432296Y0423977D01*
X0431188Y0424436D01*
X0430000Y0424592D01*
X0428812Y0424436D01*
X0428657Y0424371D01*
X0427400Y0425628D01*
X0427704Y0426023D01*
X0428812Y0425564D01*
X0430000Y0425408D01*
X0431188Y0425564D01*
X0432296Y0426023D01*
X0433247Y0426753D01*
X0433977Y0427704D01*
X0434436Y0428812D01*
X0434592Y0430000D01*
X0434436Y0431188D01*
X0433977Y0432296D01*
X0433247Y0433247D01*
X0432296Y0433977D01*
X0431188Y0434436D01*
X0430000Y0434592D01*
X0428812Y0434436D01*
X0428657Y0434371D01*
X0427400Y0435628D01*
X0427704Y0436023D01*
X0428812Y0435564D01*
X0430000Y0435408D01*
X0431188Y0435564D01*
X0432296Y0436023D01*
X0433247Y0436753D01*
X0433977Y0437704D01*
X0434436Y0438811D01*
X0434592Y0440000D01*
X0434436Y0441188D01*
X0433977Y0442296D01*
X0433247Y0443247D01*
X0432296Y0443977D01*
X0431188Y0444436D01*
X0430000Y0444592D01*
X0428812Y0444436D01*
X0428657Y0444371D01*
X0427400Y0445628D01*
X0427704Y0446023D01*
X0428812Y0445564D01*
X0430000Y0445408D01*
X0431188Y0445564D01*
X0432296Y0446023D01*
X0433247Y0446753D01*
X0433977Y0447704D01*
X0434436Y0448811D01*
X0434592Y0450000D01*
X0434436Y0451189D01*
X0433977Y0452296D01*
X0433247Y0453247D01*
X0432296Y0453977D01*
X0431188Y0454436D01*
X0430000Y0454592D01*
X0428812Y0454436D01*
X0427704Y0453977D01*
X0426753Y0453247D01*
X0426023Y0452296D01*
X0425564Y0451189D01*
X0425408Y0450000D01*
X0425564Y0448811D01*
X0426023Y0447704D01*
X0426446Y0447153D01*
X0426104Y0446788D01*
X0425819Y0446978D01*
X0425000Y0447141D01*
X0424110Y0447141D01*
X0423889Y0447590D01*
X0423977Y0447704D01*
X0424436Y0448811D01*
X0424592Y0450000D01*
X0424436Y0451189D01*
X0423977Y0452296D01*
X0423247Y0453247D01*
X0422296Y0453977D01*
X0421188Y0454436D01*
X0420000Y0454592D01*
X0418812Y0454436D01*
X0417704Y0453977D01*
X0416753Y0453247D01*
X0416023Y0452296D01*
X0415564Y0451189D01*
X0415408Y0450000D01*
X0415564Y0448811D01*
X0416023Y0447704D01*
X0416111Y0447590D01*
X0415890Y0447141D01*
X0386000Y0447141D01*
X0385181Y0446978D01*
X0385077Y0446909D01*
X0384809Y0447020D01*
X0384000Y0447127D01*
X0383899Y0447897D01*
X0384020Y0448191D01*
X0384127Y0449000D01*
X0384020Y0449809D01*
X0383708Y0450563D01*
X0383211Y0451211D01*
X0382563Y0451708D01*
X0381809Y0452020D01*
X0381000Y0452127D01*
X0380191Y0452020D01*
X0379772Y0451847D01*
X0379356Y0452124D01*
X0379356Y0452187D01*
X0379356Y0452876D01*
X0379772Y0453153D01*
X0380191Y0452980D01*
X0380500Y0452939D01*
X0380500Y0455999D01*
X0380500Y0459061D01*
X0380191Y0459020D01*
X0379772Y0458847D01*
X0379356Y0459124D01*
X0379356Y0460899D01*
X0375500Y0460899D01*
X0375500Y0456542D01*
X0375001Y0456542D01*
X0375001Y0456043D01*
X0370644Y0456043D01*
X0370644Y0452187D01*
X0370644Y0452079D01*
X0369630Y0452079D01*
X0363311Y0458398D01*
X0362768Y0458814D01*
X0362135Y0459076D01*
X0361457Y0459166D01*
X0361457Y0459166D01*
X0358356Y0459166D01*
X0358356Y0460899D01*
X0349644Y0460899D01*
X0349644Y0459166D01*
X0348543Y0459166D01*
X0347865Y0459076D01*
X0347232Y0458814D01*
X0346689Y0458398D01*
X0346423Y0458051D01*
X0346191Y0458020D01*
X0345437Y0457708D01*
X0344964Y0457345D01*
X0324278Y0457345D01*
X0324000Y0457761D01*
X0324436Y0458812D01*
X0324592Y0460000D01*
X0324436Y0461189D01*
X0323977Y0462296D01*
X0323247Y0463247D01*
X0322296Y0463977D01*
X0321188Y0464436D01*
X0320000Y0464592D01*
X0318811Y0464436D01*
X0317704Y0463977D01*
X0316753Y0463247D01*
X0316023Y0462296D01*
X0315564Y0461189D01*
X0315408Y0460000D01*
X0315564Y0458812D01*
X0316000Y0457761D01*
X0315722Y0457345D01*
X0303971Y0457345D01*
X0299658Y0461658D01*
X0298897Y0462167D01*
X0298000Y0462345D01*
X0276036Y0462345D01*
X0275563Y0462708D01*
X0274809Y0463020D01*
X0274000Y0463127D01*
X0273191Y0463020D01*
X0272557Y0462758D01*
X0272141Y0463035D01*
X0272141Y0465113D01*
X0282753Y0475725D01*
X0283217Y0476419D01*
X0283380Y0477239D01*
X0283380Y0485447D01*
X0290553Y0485447D01*
X0290553Y0494553D01*
X0283380Y0494553D01*
X0283380Y0516352D01*
X0298514Y0531486D01*
X0298978Y0532181D01*
X0298978Y0532181D01*
X0298978Y0532181D01*
X0299141Y0533000D01*
X0299141Y0545000D01*
X0298978Y0545819D01*
X0298514Y0546514D01*
X0294514Y0550514D01*
X0293819Y0550978D01*
X0293000Y0551141D01*
X0279000Y0551141D01*
X0278181Y0550978D01*
X0277486Y0550514D01*
X0271343Y0544371D01*
X0271188Y0544436D01*
X0270000Y0544592D01*
X0268811Y0544436D01*
X0267704Y0543977D01*
X0266753Y0543247D01*
X0266023Y0542296D01*
X0265564Y0541188D01*
X0265408Y0540000D01*
X0265564Y0538811D01*
X0266023Y0537704D01*
X0266753Y0536753D01*
X0267704Y0536023D01*
X0268811Y0535564D01*
X0270000Y0535408D01*
X0271188Y0535564D01*
X0272296Y0536023D01*
X0273247Y0536753D01*
X0273977Y0537704D01*
X0274436Y0538811D01*
X0274592Y0540000D01*
X0274436Y0541188D01*
X0274371Y0541343D01*
X0275628Y0542600D01*
X0276023Y0542296D01*
X0275564Y0541188D01*
X0275408Y0540000D01*
X0275564Y0538811D01*
X0276023Y0537704D01*
X0276753Y0536753D01*
X0277704Y0536023D01*
X0278812Y0535564D01*
X0280000Y0535408D01*
X0281189Y0535564D01*
X0282296Y0536023D01*
X0283247Y0536753D01*
X0283977Y0537704D01*
X0284436Y0538811D01*
X0284592Y0540000D01*
X0284436Y0541188D01*
X0284371Y0541343D01*
X0285628Y0542600D01*
X0286023Y0542296D01*
X0285564Y0541188D01*
X0285474Y0540500D01*
X0290001Y0540500D01*
X0290001Y0539500D01*
X0285474Y0539500D01*
X0285564Y0538811D01*
X0286023Y0537704D01*
X0286753Y0536753D01*
X0287704Y0536023D01*
X0288049Y0535880D01*
X0288146Y0535390D01*
X0269486Y0516730D01*
X0269022Y0516035D01*
X0268859Y0515216D01*
X0268859Y0494110D01*
X0268410Y0493889D01*
X0268296Y0493977D01*
X0267189Y0494436D01*
X0266000Y0494592D01*
X0264811Y0494436D01*
X0263704Y0493977D01*
X0263590Y0493889D01*
X0263141Y0494110D01*
X0263141Y0518113D01*
X0263913Y0518885D01*
X0264000Y0518873D01*
X0264809Y0518980D01*
X0265563Y0519292D01*
X0266211Y0519789D01*
X0266708Y0520437D01*
X0267020Y0521191D01*
X0267127Y0522000D01*
X0267020Y0522809D01*
X0266708Y0523563D01*
X0266211Y0524211D01*
X0265563Y0524708D01*
X0264809Y0525020D01*
X0264000Y0525127D01*
X0263191Y0525020D01*
X0262437Y0524708D01*
X0261789Y0524211D01*
X0261292Y0523563D01*
X0260980Y0522809D01*
X0260873Y0522000D01*
X0260885Y0521913D01*
X0259486Y0520514D01*
X0259022Y0519819D01*
X0258859Y0519000D01*
X0258859Y0494110D01*
X0258410Y0493889D01*
X0258296Y0493977D01*
X0257189Y0494436D01*
X0256500Y0494526D01*
X0256500Y0489999D01*
X0256500Y0485474D01*
X0257189Y0485564D01*
X0258296Y0486023D01*
X0258410Y0486111D01*
X0258859Y0485890D01*
X0258859Y0478000D01*
X0259022Y0477181D01*
X0259486Y0476486D01*
X0262459Y0473513D01*
X0262459Y0469446D01*
X0262083Y0469116D01*
X0262459Y0469067D01*
X0262459Y0465999D01*
X0262459Y0462933D01*
X0262083Y0462884D01*
X0262459Y0462555D01*
X0262459Y0459445D01*
X0262083Y0459116D01*
X0262459Y0459067D01*
X0262459Y0455999D01*
X0262459Y0452933D01*
X0262083Y0452884D01*
X0262459Y0452555D01*
X0262459Y0439723D01*
X0262622Y0438904D01*
X0262622Y0438904D01*
X0262622Y0438904D01*
X0263086Y0438209D01*
X0302809Y0398486D01*
X0303504Y0398022D01*
X0303504Y0398022D01*
X0303504Y0398022D01*
X0303504Y0398022D01*
X0303504Y0398022D01*
X0303504Y0398022D01*
X0304323Y0397859D01*
X0315959Y0397859D01*
X0316023Y0397704D01*
X0316753Y0396753D01*
X0317704Y0396023D01*
X0318811Y0395564D01*
X0320000Y0395408D01*
X0321188Y0395564D01*
X0322296Y0396023D01*
X0323247Y0396753D01*
X0323977Y0397704D01*
X0324436Y0398812D01*
X0324592Y0400000D01*
X0324436Y0401189D01*
X0323977Y0402296D01*
X0323247Y0403247D01*
X0322296Y0403977D01*
X0321188Y0404436D01*
X0320000Y0404592D01*
X0318811Y0404436D01*
X0317704Y0403977D01*
X0316753Y0403247D01*
X0316023Y0402296D01*
X0315959Y0402141D01*
X0305210Y0402141D01*
X0284007Y0423344D01*
X0284198Y0423806D01*
X0316704Y0423806D01*
X0316864Y0423333D01*
X0316753Y0423247D01*
X0316023Y0422296D01*
X0315564Y0421188D01*
X0315408Y0420000D01*
X0315564Y0418812D01*
X0316023Y0417704D01*
X0316753Y0416753D01*
X0317704Y0416023D01*
X0318811Y0415564D01*
X0320000Y0415408D01*
X0321188Y0415564D01*
X0322296Y0416023D01*
X0323247Y0416753D01*
X0323977Y0417704D01*
X0324436Y0418812D01*
X0324592Y0420000D01*
X0324436Y0421188D01*
X0323977Y0422296D01*
X0323247Y0423247D01*
X0323135Y0423333D01*
X0323296Y0423806D01*
X0340947Y0423806D01*
X0341767Y0423969D01*
X0342461Y0424433D01*
X0342461Y0424433D01*
X0342461Y0424433D01*
X0347887Y0429859D01*
X0351735Y0429859D01*
X0351789Y0429789D01*
X0352437Y0429292D01*
X0353191Y0428980D01*
X0354000Y0428873D01*
X0354809Y0428980D01*
X0355563Y0429292D01*
X0356211Y0429789D01*
X0356264Y0429859D01*
X0366736Y0429859D01*
X0366789Y0429789D01*
X0367437Y0429292D01*
X0368191Y0428980D01*
X0369000Y0428873D01*
X0369809Y0428980D01*
X0370443Y0429242D01*
X0370859Y0428965D01*
X0370859Y0408000D01*
X0371022Y0407181D01*
X0371486Y0406486D01*
X0392859Y0385113D01*
X0392859Y0384110D01*
X0392410Y0383889D01*
X0392296Y0383977D01*
X0391189Y0384436D01*
X0390000Y0384592D01*
X0388811Y0384436D01*
X0387704Y0383977D01*
X0386753Y0383247D01*
X0386023Y0382296D01*
X0385564Y0381189D01*
X0385408Y0380000D01*
X0385564Y0378812D01*
X0386023Y0377704D01*
X0386753Y0376753D01*
X0387704Y0376023D01*
X0388811Y0375564D01*
X0390000Y0375408D01*
X0390818Y0375516D01*
X0391039Y0375067D01*
X0390498Y0374526D01*
X0390000Y0374592D01*
X0388811Y0374436D01*
X0387704Y0373977D01*
X0387445Y0373778D01*
X0386951Y0373859D01*
X0386514Y0374514D01*
X0384514Y0376514D01*
X0383819Y0376978D01*
X0383688Y0377327D01*
X0383977Y0377704D01*
X0384436Y0378812D01*
X0384592Y0380000D01*
X0384436Y0381189D01*
X0383977Y0382296D01*
X0383247Y0383247D01*
X0382296Y0383977D01*
X0381189Y0384436D01*
X0380000Y0384592D01*
X0378812Y0384436D01*
X0377704Y0383977D01*
X0376753Y0383247D01*
X0376023Y0382296D01*
X0375564Y0381189D01*
X0375408Y0380000D01*
X0375564Y0378812D01*
X0376023Y0377704D01*
X0375628Y0377400D01*
X0374371Y0378657D01*
X0374436Y0378812D01*
X0374592Y0380000D01*
X0374436Y0381189D01*
X0373977Y0382296D01*
X0373247Y0383247D01*
X0372296Y0383977D01*
X0371188Y0384436D01*
X0370000Y0384592D01*
X0368811Y0384436D01*
X0367704Y0383977D01*
X0366753Y0383247D01*
X0366023Y0382296D01*
X0365564Y0381189D01*
X0365408Y0380000D01*
X0365564Y0378812D01*
X0366023Y0377704D01*
X0366753Y0376753D01*
X0367704Y0376023D01*
X0368811Y0375564D01*
X0370000Y0375408D01*
X0371188Y0375564D01*
X0371343Y0375629D01*
X0372600Y0374372D01*
X0372296Y0373977D01*
X0371188Y0374436D01*
X0370000Y0374592D01*
X0368811Y0374436D01*
X0367704Y0373977D01*
X0366753Y0373247D01*
X0366023Y0372296D01*
X0365564Y0371188D01*
X0365408Y0370000D01*
X0365564Y0368811D01*
X0366023Y0367704D01*
X0366753Y0366753D01*
X0367704Y0366023D01*
X0367859Y0365959D01*
X0367859Y0356264D01*
X0367789Y0356211D01*
X0367750Y0356160D01*
X0367250Y0356160D01*
X0367211Y0356211D01*
X0366563Y0356708D01*
X0365809Y0357020D01*
X0365500Y0357061D01*
X0365500Y0353999D01*
X0364500Y0353999D01*
X0364500Y0357061D01*
X0364191Y0357020D01*
X0363437Y0356708D01*
X0362789Y0356211D01*
X0362750Y0356160D01*
X0362250Y0356160D01*
X0362211Y0356211D01*
X0362141Y0356264D01*
X0362141Y0365959D01*
X0362296Y0366023D01*
X0363247Y0366753D01*
X0363977Y0367704D01*
X0364436Y0368811D01*
X0364592Y0370000D01*
X0364436Y0371188D01*
X0363977Y0372296D01*
X0363247Y0373247D01*
X0362296Y0373977D01*
X0361189Y0374436D01*
X0360000Y0374592D01*
X0358811Y0374436D01*
X0357704Y0373977D01*
X0356753Y0373247D01*
X0356023Y0372296D01*
X0355564Y0371188D01*
X0355408Y0370000D01*
X0355564Y0368811D01*
X0356023Y0367704D01*
X0356753Y0366753D01*
X0357704Y0366023D01*
X0357859Y0365959D01*
X0357859Y0356264D01*
X0357789Y0356211D01*
X0357292Y0355563D01*
X0356980Y0354809D01*
X0356873Y0354000D01*
X0356980Y0353191D01*
X0357242Y0352557D01*
X0356965Y0352141D01*
X0353035Y0352141D01*
X0352758Y0352557D01*
X0353020Y0353191D01*
X0353127Y0354000D01*
X0353020Y0354809D01*
X0352708Y0355563D01*
X0352211Y0356211D01*
X0352141Y0356264D01*
X0352141Y0365447D01*
X0354553Y0365447D01*
X0354553Y0374553D01*
X0345447Y0374553D01*
X0345447Y0365447D01*
X0347859Y0365447D01*
X0347859Y0356264D01*
X0347789Y0356211D01*
X0347292Y0355563D01*
X0346980Y0354809D01*
X0346873Y0354000D01*
X0346980Y0353191D01*
X0347242Y0352557D01*
X0346965Y0352141D01*
X0307887Y0352141D01*
X0284400Y0375628D01*
X0284704Y0376023D01*
X0285811Y0375564D01*
X0286500Y0375474D01*
X0286500Y0379999D01*
X0286500Y0384526D01*
X0285811Y0384436D01*
X0284704Y0383977D01*
X0284400Y0384372D01*
X0285657Y0385629D01*
X0285811Y0385564D01*
X0287000Y0385408D01*
X0288189Y0385564D01*
X0289296Y0386023D01*
X0290247Y0386753D01*
X0290977Y0387704D01*
X0291436Y0388811D01*
X0291592Y0390000D01*
X0291436Y0391189D01*
X0290977Y0392296D01*
X0290247Y0393247D01*
X0289296Y0393977D01*
X0288189Y0394436D01*
X0287000Y0394592D01*
X0285811Y0394436D01*
X0284704Y0393977D01*
X0283753Y0393247D01*
X0283023Y0392296D01*
X0282564Y0391189D01*
X0282408Y0390000D01*
X0282564Y0388811D01*
X0282629Y0388657D01*
X0281372Y0387400D01*
X0280977Y0387704D01*
X0281436Y0388811D01*
X0281592Y0390000D01*
X0281436Y0391189D01*
X0280977Y0392296D01*
X0280247Y0393247D01*
X0279296Y0393977D01*
X0278188Y0394436D01*
X0277000Y0394592D01*
X0275812Y0394436D01*
X0274704Y0393977D01*
X0273753Y0393247D01*
X0273023Y0392296D01*
X0272564Y0391189D01*
X0272408Y0390000D01*
X0272564Y0388811D01*
X0272629Y0388657D01*
X0271372Y0387400D01*
X0270977Y0387704D01*
X0271436Y0388811D01*
X0271592Y0390000D01*
X0271436Y0391189D01*
X0270977Y0392296D01*
X0270247Y0393247D01*
X0269296Y0393977D01*
X0268189Y0394436D01*
X0267000Y0394592D01*
X0265811Y0394436D01*
X0265038Y0394115D01*
X0264622Y0394393D01*
X0264622Y0399000D01*
X0264622Y0399000D01*
X0264533Y0399679D01*
X0264271Y0400311D01*
X0263854Y0400854D01*
X0263854Y0400854D01*
X0224622Y0440086D01*
X0224622Y0449696D01*
X0224998Y0450026D01*
X0225669Y0449938D01*
X0226550Y0450054D01*
X0227370Y0450393D01*
X0228074Y0450934D01*
X0228614Y0451638D01*
X0228954Y0452458D01*
X0229070Y0453339D01*
X0228954Y0454219D01*
X0228614Y0455039D01*
X0228074Y0455743D01*
X0227370Y0456284D01*
X0226550Y0456623D01*
X0225669Y0456739D01*
X0224998Y0456651D01*
X0224622Y0456981D01*
X0224622Y0467019D01*
X0224998Y0467349D01*
X0225669Y0467260D01*
X0226550Y0467376D01*
X0227370Y0467716D01*
X0228074Y0468256D01*
X0228614Y0468961D01*
X0228954Y0469781D01*
X0229070Y0470661D01*
X0228954Y0471541D01*
X0228614Y0472361D01*
X0228074Y0473066D01*
X0227370Y0473606D01*
X0226550Y0473946D01*
X0225669Y0474062D01*
X0224998Y0473973D01*
X0224622Y0474303D01*
X0224622Y0524000D01*
X0224622Y0524000D01*
X0224622Y0524002D01*
X0224952Y0524378D01*
X0228132Y0524378D01*
X0228132Y0522841D01*
X0236184Y0522841D01*
X0236281Y0522351D01*
X0235937Y0522208D01*
X0235289Y0521711D01*
X0234792Y0521063D01*
X0234480Y0520309D01*
X0234439Y0520000D01*
X0240561Y0520000D01*
X0240520Y0520309D01*
X0240208Y0521063D01*
X0239711Y0521711D01*
X0239063Y0522208D01*
X0238719Y0522351D01*
X0238816Y0522841D01*
X0241568Y0522841D01*
X0241568Y0526500D01*
X0237999Y0526500D01*
X0237999Y0526999D01*
X0237500Y0526999D01*
X0237500Y0531159D01*
X0228132Y0531159D01*
X0228132Y0529622D01*
X0220675Y0529622D01*
X0220563Y0529708D01*
X0219809Y0530020D01*
X0219000Y0530127D01*
X0218191Y0530020D01*
X0217437Y0529708D01*
X0216789Y0529211D01*
X0216292Y0528563D01*
X0215980Y0527809D01*
X0215873Y0527000D01*
X0215980Y0526191D01*
X0216292Y0525437D01*
X0216789Y0524789D01*
X0217437Y0524292D01*
X0218191Y0523980D01*
X0218330Y0523961D01*
X0219378Y0522914D01*
X0219378Y0485057D01*
X0207495Y0485057D01*
X0207495Y0485057D01*
X0207495Y0485057D01*
X0207337Y0485057D01*
X0207141Y0485253D01*
X0207141Y0559859D01*
X0457859Y0559859D01*
X0457859Y0344141D01*
X0457859Y0344141D02*
G37*
G36*
X0274704Y0376023D02*
X0275812Y0375564D01*
X0277000Y0375408D01*
X0278188Y0375564D01*
X0279296Y0376023D01*
X0279410Y0376111D01*
X0279859Y0375890D01*
X0279859Y0375000D01*
X0280022Y0374181D01*
X0280486Y0373486D01*
X0281704Y0372268D01*
X0281606Y0371778D01*
X0281437Y0371708D01*
X0280789Y0371211D01*
X0280292Y0370563D01*
X0279980Y0369809D01*
X0279939Y0369500D01*
X0283001Y0369500D01*
X0283001Y0369001D01*
X0283500Y0369001D01*
X0283500Y0365939D01*
X0283809Y0365980D01*
X0284563Y0366292D01*
X0285211Y0366789D01*
X0285708Y0367437D01*
X0285778Y0367606D01*
X0286268Y0367704D01*
X0304369Y0349603D01*
X0304177Y0349141D01*
X0298887Y0349141D01*
X0282577Y0365451D01*
X0282798Y0365900D01*
X0282500Y0365939D01*
X0282500Y0368500D01*
X0279939Y0368500D01*
X0279900Y0368798D01*
X0279451Y0368577D01*
X0274141Y0373887D01*
X0274141Y0375890D01*
X0274590Y0376111D01*
X0274704Y0376023D01*
X0274704Y0376023D02*
G37*
G36*
X0219378Y0466648D02*
X0218929Y0466427D01*
X0218563Y0466708D01*
X0217809Y0467020D01*
X0217500Y0467061D01*
X0217500Y0463999D01*
X0217500Y0460939D01*
X0217809Y0460980D01*
X0218563Y0461292D01*
X0218929Y0461573D01*
X0219378Y0461352D01*
X0219378Y0450017D01*
X0207495Y0450017D01*
X0207495Y0450017D01*
X0207495Y0450017D01*
X0207337Y0450017D01*
X0207141Y0450213D01*
X0207141Y0473983D01*
X0207141Y0473983D01*
X0207337Y0473983D01*
X0207495Y0473983D01*
X0207495Y0473983D01*
X0207495Y0473983D01*
X0219378Y0473983D01*
X0219378Y0466648D01*
X0219378Y0466648D02*
G37*
%LPC*%
G36*
X0301500Y0417061D02*
X0301191Y0417020D01*
X0300437Y0416708D01*
X0299789Y0416211D01*
X0299292Y0415563D01*
X0298980Y0414809D01*
X0298939Y0414500D01*
X0301500Y0414500D01*
X0301500Y0417061D01*
X0301500Y0417061D02*
G37*
G36*
X0302500Y0417061D02*
X0302500Y0414500D01*
X0305061Y0414500D01*
X0305020Y0414809D01*
X0304708Y0415563D01*
X0304211Y0416211D01*
X0303563Y0416708D01*
X0302809Y0417020D01*
X0302500Y0417061D01*
X0302500Y0417061D02*
G37*
G36*
X0242033Y0450017D02*
X0228991Y0450017D01*
X0228991Y0438943D01*
X0242033Y0438943D01*
X0242033Y0450017D01*
X0242033Y0450017D02*
G37*
G36*
X0305061Y0413500D02*
X0302500Y0413500D01*
X0302500Y0410939D01*
X0302809Y0410980D01*
X0303563Y0411292D01*
X0304211Y0411789D01*
X0304708Y0412437D01*
X0305020Y0413191D01*
X0305061Y0413500D01*
X0305061Y0413500D02*
G37*
G36*
X0358500Y0399061D02*
X0358191Y0399020D01*
X0357437Y0398708D01*
X0356789Y0398211D01*
X0356292Y0397563D01*
X0355980Y0396809D01*
X0355939Y0396500D01*
X0358500Y0396500D01*
X0358500Y0399061D01*
X0358500Y0399061D02*
G37*
G36*
X0362061Y0395500D02*
X0359500Y0395500D01*
X0359500Y0392939D01*
X0359809Y0392980D01*
X0360563Y0393292D01*
X0361211Y0393789D01*
X0361708Y0394437D01*
X0362020Y0395191D01*
X0362061Y0395500D01*
X0362061Y0395500D02*
G37*
G36*
X0358500Y0395500D02*
X0355939Y0395500D01*
X0355980Y0395191D01*
X0356292Y0394437D01*
X0356789Y0393789D01*
X0357437Y0393292D01*
X0358191Y0392980D01*
X0358500Y0392939D01*
X0358500Y0395500D01*
X0358500Y0395500D02*
G37*
G36*
X0301500Y0413500D02*
X0298939Y0413500D01*
X0298980Y0413191D01*
X0299292Y0412437D01*
X0299789Y0411789D01*
X0300437Y0411292D01*
X0301191Y0410980D01*
X0301500Y0410939D01*
X0301500Y0413500D01*
X0301500Y0413500D02*
G37*
G36*
X0320000Y0414592D02*
X0318811Y0414436D01*
X0317704Y0413977D01*
X0316753Y0413247D01*
X0316023Y0412296D01*
X0315564Y0411189D01*
X0315408Y0410000D01*
X0315564Y0408812D01*
X0316023Y0407704D01*
X0316753Y0406753D01*
X0317704Y0406023D01*
X0318811Y0405564D01*
X0320000Y0405408D01*
X0321188Y0405564D01*
X0322296Y0406023D01*
X0323247Y0406753D01*
X0323977Y0407704D01*
X0324436Y0408812D01*
X0324592Y0410000D01*
X0324436Y0411189D01*
X0323977Y0412296D01*
X0323247Y0413247D01*
X0322296Y0413977D01*
X0321188Y0414436D01*
X0320000Y0414592D01*
X0320000Y0414592D02*
G37*
G36*
X0359500Y0399061D02*
X0359500Y0396500D01*
X0362061Y0396500D01*
X0362020Y0396809D01*
X0361708Y0397563D01*
X0361211Y0398211D01*
X0360563Y0398708D01*
X0359809Y0399020D01*
X0359500Y0399061D01*
X0359500Y0399061D02*
G37*
G36*
X0348500Y0443061D02*
X0348191Y0443020D01*
X0347437Y0442708D01*
X0346789Y0442211D01*
X0346292Y0441563D01*
X0345980Y0440809D01*
X0345939Y0440500D01*
X0348500Y0440500D01*
X0348500Y0443061D01*
X0348500Y0443061D02*
G37*
G36*
X0384061Y0455500D02*
X0381500Y0455500D01*
X0381500Y0452939D01*
X0381809Y0452980D01*
X0382563Y0453292D01*
X0383211Y0453789D01*
X0383708Y0454437D01*
X0384020Y0455191D01*
X0384061Y0455500D01*
X0384061Y0455500D02*
G37*
G36*
X0261500Y0455500D02*
X0258939Y0455500D01*
X0258980Y0455191D01*
X0259292Y0454437D01*
X0259789Y0453789D01*
X0260437Y0453292D01*
X0261191Y0452980D01*
X0261500Y0452939D01*
X0261500Y0455500D01*
X0261500Y0455500D02*
G37*
G36*
X0299500Y0449061D02*
X0299500Y0446500D01*
X0302061Y0446500D01*
X0302020Y0446809D01*
X0301708Y0447563D01*
X0301211Y0448211D01*
X0300563Y0448708D01*
X0299809Y0449020D01*
X0299500Y0449061D01*
X0299500Y0449061D02*
G37*
G36*
X0261500Y0459061D02*
X0261191Y0459020D01*
X0260437Y0458708D01*
X0259789Y0458211D01*
X0259292Y0457563D01*
X0258980Y0456809D01*
X0258939Y0456500D01*
X0261500Y0456500D01*
X0261500Y0459061D01*
X0261500Y0459061D02*
G37*
G36*
X0430000Y0464592D02*
X0428812Y0464436D01*
X0427704Y0463977D01*
X0426753Y0463247D01*
X0426023Y0462296D01*
X0425564Y0461189D01*
X0425408Y0460000D01*
X0425564Y0458812D01*
X0426023Y0457704D01*
X0426753Y0456753D01*
X0427704Y0456023D01*
X0428812Y0455564D01*
X0430000Y0455408D01*
X0431188Y0455564D01*
X0432296Y0456023D01*
X0433247Y0456753D01*
X0433977Y0457704D01*
X0434436Y0458812D01*
X0434592Y0460000D01*
X0434436Y0461189D01*
X0433977Y0462296D01*
X0433247Y0463247D01*
X0432296Y0463977D01*
X0431188Y0464436D01*
X0430000Y0464592D01*
X0430000Y0464592D02*
G37*
G36*
X0420000Y0464592D02*
X0418812Y0464436D01*
X0417704Y0463977D01*
X0416753Y0463247D01*
X0416023Y0462296D01*
X0415564Y0461189D01*
X0415408Y0460000D01*
X0415564Y0458812D01*
X0416023Y0457704D01*
X0416753Y0456753D01*
X0417704Y0456023D01*
X0418812Y0455564D01*
X0420000Y0455408D01*
X0421188Y0455564D01*
X0422296Y0456023D01*
X0423247Y0456753D01*
X0423977Y0457704D01*
X0424436Y0458812D01*
X0424592Y0460000D01*
X0424436Y0461189D01*
X0423977Y0462296D01*
X0423247Y0463247D01*
X0422296Y0463977D01*
X0421188Y0464436D01*
X0420000Y0464592D01*
X0420000Y0464592D02*
G37*
G36*
X0302061Y0445500D02*
X0299500Y0445500D01*
X0299500Y0442939D01*
X0299809Y0442980D01*
X0300563Y0443292D01*
X0301211Y0443789D01*
X0301708Y0444437D01*
X0302020Y0445191D01*
X0302061Y0445500D01*
X0302061Y0445500D02*
G37*
G36*
X0298500Y0445500D02*
X0295939Y0445500D01*
X0295980Y0445191D01*
X0296292Y0444437D01*
X0296789Y0443789D01*
X0297437Y0443292D01*
X0298191Y0442980D01*
X0298500Y0442939D01*
X0298500Y0445500D01*
X0298500Y0445500D02*
G37*
G36*
X0349500Y0443061D02*
X0349500Y0440500D01*
X0352061Y0440500D01*
X0352020Y0440809D01*
X0351708Y0441563D01*
X0351211Y0442211D01*
X0350563Y0442708D01*
X0349809Y0443020D01*
X0349500Y0443061D01*
X0349500Y0443061D02*
G37*
G36*
X0298500Y0449061D02*
X0298191Y0449020D01*
X0297437Y0448708D01*
X0296789Y0448211D01*
X0296292Y0447563D01*
X0295980Y0446809D01*
X0295939Y0446500D01*
X0298500Y0446500D01*
X0298500Y0449061D01*
X0298500Y0449061D02*
G37*
G36*
X0346500Y0448500D02*
X0343939Y0448500D01*
X0343980Y0448191D01*
X0344292Y0447437D01*
X0344789Y0446789D01*
X0345437Y0446292D01*
X0346191Y0445980D01*
X0346500Y0445939D01*
X0346500Y0448500D01*
X0346500Y0448500D02*
G37*
G36*
X0358356Y0448957D02*
X0354500Y0448957D01*
X0354500Y0445101D01*
X0358356Y0445101D01*
X0358356Y0448957D01*
X0358356Y0448957D02*
G37*
G36*
X0445500Y0358061D02*
X0445500Y0355500D01*
X0448061Y0355500D01*
X0448020Y0355809D01*
X0447708Y0356563D01*
X0447211Y0357211D01*
X0446563Y0357708D01*
X0445809Y0358020D01*
X0445500Y0358061D01*
X0445500Y0358061D02*
G37*
G36*
X0444500Y0358061D02*
X0444191Y0358020D01*
X0443437Y0357708D01*
X0442789Y0357211D01*
X0442292Y0356563D01*
X0441980Y0355809D01*
X0441939Y0355500D01*
X0444500Y0355500D01*
X0444500Y0358061D01*
X0444500Y0358061D02*
G37*
G36*
X0215500Y0358061D02*
X0215500Y0355500D01*
X0218061Y0355500D01*
X0218020Y0355809D01*
X0217708Y0356563D01*
X0217211Y0357211D01*
X0216563Y0357708D01*
X0215809Y0358020D01*
X0215500Y0358061D01*
X0215500Y0358061D02*
G37*
G36*
X0344526Y0369500D02*
X0340500Y0369500D01*
X0340500Y0365474D01*
X0341189Y0365564D01*
X0342296Y0366023D01*
X0343247Y0366753D01*
X0343977Y0367704D01*
X0344436Y0368811D01*
X0344526Y0369500D01*
X0344526Y0369500D02*
G37*
G36*
X0339500Y0369500D02*
X0335474Y0369500D01*
X0335564Y0368811D01*
X0336023Y0367704D01*
X0336753Y0366753D01*
X0337704Y0366023D01*
X0338811Y0365564D01*
X0339500Y0365474D01*
X0339500Y0369500D01*
X0339500Y0369500D02*
G37*
G36*
X0320000Y0374592D02*
X0318811Y0374436D01*
X0317704Y0373977D01*
X0316753Y0373247D01*
X0316023Y0372296D01*
X0315564Y0371188D01*
X0315408Y0370000D01*
X0315564Y0368811D01*
X0316023Y0367704D01*
X0316753Y0366753D01*
X0317704Y0366023D01*
X0318811Y0365564D01*
X0320000Y0365408D01*
X0321188Y0365564D01*
X0322296Y0366023D01*
X0323247Y0366753D01*
X0323977Y0367704D01*
X0324436Y0368811D01*
X0324592Y0370000D01*
X0324436Y0371188D01*
X0323977Y0372296D01*
X0323247Y0373247D01*
X0322296Y0373977D01*
X0321188Y0374436D01*
X0320000Y0374592D01*
X0320000Y0374592D02*
G37*
G36*
X0444500Y0354500D02*
X0441939Y0354500D01*
X0441980Y0354191D01*
X0442292Y0353437D01*
X0442789Y0352789D01*
X0443437Y0352292D01*
X0444191Y0351980D01*
X0444500Y0351939D01*
X0444500Y0354500D01*
X0444500Y0354500D02*
G37*
G36*
X0218061Y0354500D02*
X0215500Y0354500D01*
X0215500Y0351939D01*
X0215809Y0351980D01*
X0216563Y0352292D01*
X0217211Y0352789D01*
X0217708Y0353437D01*
X0218020Y0354191D01*
X0218061Y0354500D01*
X0218061Y0354500D02*
G37*
G36*
X0214500Y0354500D02*
X0211939Y0354500D01*
X0211980Y0354191D01*
X0212292Y0353437D01*
X0212789Y0352789D01*
X0213437Y0352292D01*
X0214191Y0351980D01*
X0214500Y0351939D01*
X0214500Y0354500D01*
X0214500Y0354500D02*
G37*
G36*
X0214500Y0358061D02*
X0214191Y0358020D01*
X0213437Y0357708D01*
X0212789Y0357211D01*
X0212292Y0356563D01*
X0211980Y0355809D01*
X0211939Y0355500D01*
X0214500Y0355500D01*
X0214500Y0358061D01*
X0214500Y0358061D02*
G37*
G36*
X0400500Y0356061D02*
X0400500Y0353500D01*
X0403061Y0353500D01*
X0403020Y0353809D01*
X0402708Y0354563D01*
X0402211Y0355211D01*
X0401563Y0355708D01*
X0400809Y0356020D01*
X0400500Y0356061D01*
X0400500Y0356061D02*
G37*
G36*
X0448061Y0354500D02*
X0445500Y0354500D01*
X0445500Y0351939D01*
X0445809Y0351980D01*
X0446563Y0352292D01*
X0447211Y0352789D01*
X0447708Y0353437D01*
X0448020Y0354191D01*
X0448061Y0354500D01*
X0448061Y0354500D02*
G37*
G36*
X0291526Y0379500D02*
X0287500Y0379500D01*
X0287500Y0375474D01*
X0288189Y0375564D01*
X0289296Y0376023D01*
X0290247Y0376753D01*
X0290977Y0377704D01*
X0291436Y0378812D01*
X0291526Y0379500D01*
X0291526Y0379500D02*
G37*
G36*
X0354553Y0384553D02*
X0345447Y0384553D01*
X0345447Y0375447D01*
X0354553Y0375447D01*
X0354553Y0384553D01*
X0354553Y0384553D02*
G37*
G36*
X0270000Y0427127D02*
X0269191Y0427020D01*
X0268437Y0426708D01*
X0267789Y0426211D01*
X0267292Y0425563D01*
X0266980Y0424809D01*
X0266873Y0424000D01*
X0266980Y0423191D01*
X0267292Y0422437D01*
X0267789Y0421789D01*
X0268437Y0421292D01*
X0269191Y0420980D01*
X0269330Y0420962D01*
X0307146Y0383146D01*
X0307146Y0383146D01*
X0307689Y0382729D01*
X0308321Y0382467D01*
X0309000Y0382378D01*
X0309000Y0382378D01*
X0315607Y0382378D01*
X0315885Y0381962D01*
X0315564Y0381189D01*
X0315408Y0380000D01*
X0315564Y0378812D01*
X0316023Y0377704D01*
X0316753Y0376753D01*
X0317704Y0376023D01*
X0318811Y0375564D01*
X0320000Y0375408D01*
X0321188Y0375564D01*
X0322296Y0376023D01*
X0323247Y0376753D01*
X0323977Y0377704D01*
X0324436Y0378812D01*
X0324592Y0380000D01*
X0324436Y0381189D01*
X0323977Y0382296D01*
X0324017Y0382378D01*
X0333914Y0382378D01*
X0335447Y0380844D01*
X0335447Y0375447D01*
X0344553Y0375447D01*
X0344553Y0384553D01*
X0339156Y0384553D01*
X0336854Y0386854D01*
X0336311Y0387271D01*
X0335679Y0387533D01*
X0335000Y0387622D01*
X0335000Y0387622D01*
X0324393Y0387622D01*
X0324115Y0388038D01*
X0324436Y0388811D01*
X0324592Y0390000D01*
X0324436Y0391189D01*
X0323977Y0392296D01*
X0323247Y0393247D01*
X0322296Y0393977D01*
X0321188Y0394436D01*
X0320000Y0394592D01*
X0318811Y0394436D01*
X0317704Y0393977D01*
X0316753Y0393247D01*
X0316023Y0392296D01*
X0315564Y0391189D01*
X0315408Y0390000D01*
X0315564Y0388811D01*
X0315885Y0388038D01*
X0315607Y0387622D01*
X0310086Y0387622D01*
X0273039Y0424670D01*
X0273020Y0424809D01*
X0272708Y0425563D01*
X0272211Y0426211D01*
X0271563Y0426708D01*
X0270809Y0427020D01*
X0270000Y0427127D01*
X0270000Y0427127D02*
G37*
G36*
X0237000Y0394592D02*
X0235811Y0394436D01*
X0234704Y0393977D01*
X0233753Y0393247D01*
X0233274Y0392622D01*
X0230726Y0392622D01*
X0230247Y0393247D01*
X0229296Y0393977D01*
X0228188Y0394436D01*
X0227000Y0394592D01*
X0225812Y0394436D01*
X0224704Y0393977D01*
X0223753Y0393247D01*
X0223023Y0392296D01*
X0222564Y0391189D01*
X0222408Y0390000D01*
X0222564Y0388811D01*
X0223023Y0387704D01*
X0223753Y0386753D01*
X0224704Y0386023D01*
X0225812Y0385564D01*
X0227000Y0385408D01*
X0228188Y0385564D01*
X0229296Y0386023D01*
X0230247Y0386753D01*
X0230726Y0387378D01*
X0233274Y0387378D01*
X0233753Y0386753D01*
X0234704Y0386023D01*
X0235811Y0385564D01*
X0237000Y0385408D01*
X0238189Y0385564D01*
X0239296Y0386023D01*
X0240247Y0386753D01*
X0240977Y0387704D01*
X0241436Y0388811D01*
X0241592Y0390000D01*
X0241436Y0391189D01*
X0240977Y0392296D01*
X0240247Y0393247D01*
X0239296Y0393977D01*
X0238189Y0394436D01*
X0237000Y0394592D01*
X0237000Y0394592D02*
G37*
G36*
X0247000Y0394592D02*
X0245812Y0394436D01*
X0244704Y0393977D01*
X0243753Y0393247D01*
X0243023Y0392296D01*
X0242564Y0391189D01*
X0242408Y0390000D01*
X0242564Y0388811D01*
X0243023Y0387704D01*
X0243753Y0386753D01*
X0244704Y0386023D01*
X0245812Y0385564D01*
X0247000Y0385408D01*
X0248188Y0385564D01*
X0249296Y0386023D01*
X0250247Y0386753D01*
X0250977Y0387704D01*
X0251436Y0388811D01*
X0251592Y0390000D01*
X0251436Y0391189D01*
X0250977Y0392296D01*
X0250247Y0393247D01*
X0249296Y0393977D01*
X0248188Y0394436D01*
X0247000Y0394592D01*
X0247000Y0394592D02*
G37*
G36*
X0287500Y0384526D02*
X0287500Y0380500D01*
X0291526Y0380500D01*
X0291436Y0381189D01*
X0290977Y0382296D01*
X0290247Y0383247D01*
X0289296Y0383977D01*
X0288189Y0384436D01*
X0287500Y0384526D01*
X0287500Y0384526D02*
G37*
G36*
X0237000Y0384592D02*
X0235811Y0384436D01*
X0234704Y0383977D01*
X0233753Y0383247D01*
X0233023Y0382296D01*
X0232564Y0381189D01*
X0232408Y0380000D01*
X0232564Y0378812D01*
X0233023Y0377704D01*
X0233753Y0376753D01*
X0234704Y0376023D01*
X0235811Y0375564D01*
X0237000Y0375408D01*
X0238189Y0375564D01*
X0239296Y0376023D01*
X0240247Y0376753D01*
X0240977Y0377704D01*
X0241436Y0378812D01*
X0241592Y0380000D01*
X0241436Y0381189D01*
X0240977Y0382296D01*
X0240247Y0383247D01*
X0239296Y0383977D01*
X0238189Y0384436D01*
X0237000Y0384592D01*
X0237000Y0384592D02*
G37*
G36*
X0340500Y0374526D02*
X0340500Y0370500D01*
X0344526Y0370500D01*
X0344436Y0371188D01*
X0343977Y0372296D01*
X0343247Y0373247D01*
X0342296Y0373977D01*
X0341189Y0374436D01*
X0340500Y0374526D01*
X0340500Y0374526D02*
G37*
G36*
X0339500Y0374526D02*
X0338811Y0374436D01*
X0337704Y0373977D01*
X0336753Y0373247D01*
X0336023Y0372296D01*
X0335564Y0371188D01*
X0335474Y0370500D01*
X0339500Y0370500D01*
X0339500Y0374526D01*
X0339500Y0374526D02*
G37*
G36*
X0231553Y0384553D02*
X0222447Y0384553D01*
X0222447Y0375447D01*
X0231553Y0375447D01*
X0231553Y0384553D01*
X0231553Y0384553D02*
G37*
G36*
X0360000Y0384592D02*
X0358811Y0384436D01*
X0357704Y0383977D01*
X0356753Y0383247D01*
X0356023Y0382296D01*
X0355564Y0381189D01*
X0355408Y0380000D01*
X0355564Y0378812D01*
X0356023Y0377704D01*
X0356753Y0376753D01*
X0357704Y0376023D01*
X0358811Y0375564D01*
X0360000Y0375408D01*
X0361189Y0375564D01*
X0362296Y0376023D01*
X0363247Y0376753D01*
X0363977Y0377704D01*
X0364436Y0378812D01*
X0364592Y0380000D01*
X0364436Y0381189D01*
X0363977Y0382296D01*
X0363247Y0383247D01*
X0362296Y0383977D01*
X0361189Y0384436D01*
X0360000Y0384592D01*
X0360000Y0384592D02*
G37*
G36*
X0247000Y0384592D02*
X0245812Y0384436D01*
X0244704Y0383977D01*
X0243753Y0383247D01*
X0243023Y0382296D01*
X0242564Y0381189D01*
X0242408Y0380000D01*
X0242564Y0378812D01*
X0243023Y0377704D01*
X0243753Y0376753D01*
X0244704Y0376023D01*
X0245812Y0375564D01*
X0247000Y0375408D01*
X0248188Y0375564D01*
X0249296Y0376023D01*
X0250247Y0376753D01*
X0250977Y0377704D01*
X0251436Y0378812D01*
X0251592Y0380000D01*
X0251436Y0381189D01*
X0250977Y0382296D01*
X0250247Y0383247D01*
X0249296Y0383977D01*
X0248188Y0384436D01*
X0247000Y0384592D01*
X0247000Y0384592D02*
G37*
G36*
X0381500Y0459061D02*
X0381500Y0456500D01*
X0384061Y0456500D01*
X0384020Y0456809D01*
X0383708Y0457563D01*
X0383211Y0458211D01*
X0382563Y0458708D01*
X0381809Y0459020D01*
X0381500Y0459061D01*
X0381500Y0459061D02*
G37*
G36*
X0240000Y0544592D02*
X0238811Y0544436D01*
X0237704Y0543977D01*
X0236753Y0543247D01*
X0236023Y0542296D01*
X0235564Y0541188D01*
X0235408Y0540000D01*
X0235564Y0538811D01*
X0236023Y0537704D01*
X0236753Y0536753D01*
X0237704Y0536023D01*
X0238811Y0535564D01*
X0240000Y0535408D01*
X0241189Y0535564D01*
X0242296Y0536023D01*
X0243247Y0536753D01*
X0243977Y0537704D01*
X0244436Y0538811D01*
X0244592Y0540000D01*
X0244436Y0541188D01*
X0243977Y0542296D01*
X0243247Y0543247D01*
X0242296Y0543977D01*
X0241189Y0544436D01*
X0240000Y0544592D01*
X0240000Y0544592D02*
G37*
G36*
X0230000Y0544592D02*
X0228812Y0544436D01*
X0227704Y0543977D01*
X0226753Y0543247D01*
X0226023Y0542296D01*
X0225564Y0541188D01*
X0225408Y0540000D01*
X0225564Y0538811D01*
X0226023Y0537704D01*
X0226753Y0536753D01*
X0227704Y0536023D01*
X0228812Y0535564D01*
X0230000Y0535408D01*
X0231189Y0535564D01*
X0232296Y0536023D01*
X0233247Y0536753D01*
X0233977Y0537704D01*
X0234436Y0538811D01*
X0234592Y0540000D01*
X0234436Y0541188D01*
X0233977Y0542296D01*
X0233247Y0543247D01*
X0232296Y0543977D01*
X0231189Y0544436D01*
X0230000Y0544592D01*
X0230000Y0544592D02*
G37*
G36*
X0241568Y0531159D02*
X0238500Y0531159D01*
X0238500Y0527500D01*
X0241568Y0527500D01*
X0241568Y0531159D01*
X0241568Y0531159D02*
G37*
G36*
X0224553Y0544553D02*
X0215447Y0544553D01*
X0215447Y0535447D01*
X0224553Y0535447D01*
X0224553Y0544553D01*
X0224553Y0544553D02*
G37*
G36*
X0260000Y0544592D02*
X0258811Y0544436D01*
X0257704Y0543977D01*
X0256753Y0543247D01*
X0256023Y0542296D01*
X0255564Y0541188D01*
X0255408Y0540000D01*
X0255564Y0538811D01*
X0256023Y0537704D01*
X0256753Y0536753D01*
X0257704Y0536023D01*
X0258811Y0535564D01*
X0260000Y0535408D01*
X0261189Y0535564D01*
X0262296Y0536023D01*
X0263247Y0536753D01*
X0263977Y0537704D01*
X0264436Y0538811D01*
X0264592Y0540000D01*
X0264436Y0541188D01*
X0263977Y0542296D01*
X0263247Y0543247D01*
X0262296Y0543977D01*
X0261189Y0544436D01*
X0260000Y0544592D01*
X0260000Y0544592D02*
G37*
G36*
X0250000Y0544592D02*
X0248812Y0544436D01*
X0247704Y0543977D01*
X0246753Y0543247D01*
X0246023Y0542296D01*
X0245564Y0541188D01*
X0245408Y0540000D01*
X0245564Y0538811D01*
X0246023Y0537704D01*
X0246753Y0536753D01*
X0247704Y0536023D01*
X0248812Y0535564D01*
X0250000Y0535408D01*
X0251188Y0535564D01*
X0252296Y0536023D01*
X0253247Y0536753D01*
X0253977Y0537704D01*
X0254436Y0538811D01*
X0254592Y0540000D01*
X0254436Y0541188D01*
X0253977Y0542296D01*
X0253247Y0543247D01*
X0252296Y0543977D01*
X0251188Y0544436D01*
X0250000Y0544592D01*
X0250000Y0544592D02*
G37*
G36*
X0324553Y0524553D02*
X0315447Y0524553D01*
X0315447Y0515447D01*
X0324553Y0515447D01*
X0324553Y0524553D01*
X0324553Y0524553D02*
G37*
G36*
X0360000Y0524592D02*
X0358811Y0524436D01*
X0357704Y0523977D01*
X0356753Y0523247D01*
X0356023Y0522296D01*
X0355564Y0521188D01*
X0355408Y0520000D01*
X0355564Y0518812D01*
X0356023Y0517704D01*
X0356753Y0516753D01*
X0357704Y0516023D01*
X0358811Y0515564D01*
X0360000Y0515408D01*
X0361189Y0515564D01*
X0362296Y0516023D01*
X0363247Y0516753D01*
X0363977Y0517704D01*
X0364436Y0518812D01*
X0364592Y0520000D01*
X0364436Y0521188D01*
X0363977Y0522296D01*
X0363247Y0523247D01*
X0362296Y0523977D01*
X0361189Y0524436D01*
X0360000Y0524592D01*
X0360000Y0524592D02*
G37*
G36*
X0350000Y0524592D02*
X0348812Y0524436D01*
X0347704Y0523977D01*
X0346753Y0523247D01*
X0346023Y0522296D01*
X0345564Y0521188D01*
X0345408Y0520000D01*
X0345564Y0518812D01*
X0346023Y0517704D01*
X0346753Y0516753D01*
X0347704Y0516023D01*
X0348812Y0515564D01*
X0350000Y0515408D01*
X0351188Y0515564D01*
X0352296Y0516023D01*
X0353247Y0516753D01*
X0353977Y0517704D01*
X0354436Y0518812D01*
X0354592Y0520000D01*
X0354436Y0521188D01*
X0353977Y0522296D01*
X0353247Y0523247D01*
X0352296Y0523977D01*
X0351188Y0524436D01*
X0350000Y0524592D01*
X0350000Y0524592D02*
G37*
G36*
X0410000Y0524592D02*
X0408812Y0524436D01*
X0407704Y0523977D01*
X0406753Y0523247D01*
X0406023Y0522296D01*
X0405564Y0521188D01*
X0405408Y0520000D01*
X0405564Y0518812D01*
X0405629Y0518657D01*
X0404372Y0517400D01*
X0403977Y0517704D01*
X0404436Y0518812D01*
X0404592Y0520000D01*
X0404436Y0521188D01*
X0403977Y0522296D01*
X0403247Y0523247D01*
X0402296Y0523977D01*
X0401189Y0524436D01*
X0400000Y0524592D01*
X0398812Y0524436D01*
X0397704Y0523977D01*
X0396753Y0523247D01*
X0396023Y0522296D01*
X0395564Y0521188D01*
X0395408Y0520000D01*
X0395564Y0518812D01*
X0395629Y0518657D01*
X0394372Y0517400D01*
X0393977Y0517704D01*
X0394436Y0518812D01*
X0394592Y0520000D01*
X0394436Y0521188D01*
X0393977Y0522296D01*
X0393247Y0523247D01*
X0392296Y0523977D01*
X0391189Y0524436D01*
X0390000Y0524592D01*
X0388811Y0524436D01*
X0387704Y0523977D01*
X0386753Y0523247D01*
X0386023Y0522296D01*
X0385564Y0521188D01*
X0385408Y0520000D01*
X0385564Y0518812D01*
X0385629Y0518657D01*
X0384372Y0517400D01*
X0383977Y0517704D01*
X0384436Y0518812D01*
X0384592Y0520000D01*
X0384436Y0521188D01*
X0383977Y0522296D01*
X0383247Y0523247D01*
X0382296Y0523977D01*
X0381189Y0524436D01*
X0380000Y0524592D01*
X0378812Y0524436D01*
X0377704Y0523977D01*
X0376753Y0523247D01*
X0376023Y0522296D01*
X0375564Y0521188D01*
X0375408Y0520000D01*
X0375564Y0518812D01*
X0375629Y0518657D01*
X0374372Y0517400D01*
X0373977Y0517704D01*
X0374436Y0518812D01*
X0374592Y0520000D01*
X0374436Y0521188D01*
X0373977Y0522296D01*
X0373247Y0523247D01*
X0372296Y0523977D01*
X0371188Y0524436D01*
X0370000Y0524592D01*
X0368811Y0524436D01*
X0367704Y0523977D01*
X0366753Y0523247D01*
X0366023Y0522296D01*
X0365564Y0521188D01*
X0365408Y0520000D01*
X0365564Y0518812D01*
X0366023Y0517704D01*
X0366753Y0516753D01*
X0367704Y0516023D01*
X0368811Y0515564D01*
X0370000Y0515408D01*
X0371188Y0515564D01*
X0372296Y0516023D01*
X0372847Y0516446D01*
X0373212Y0516105D01*
X0373022Y0515819D01*
X0372859Y0515000D01*
X0372859Y0514110D01*
X0372410Y0513889D01*
X0372296Y0513977D01*
X0371188Y0514436D01*
X0370000Y0514592D01*
X0368811Y0514436D01*
X0367704Y0513977D01*
X0366753Y0513247D01*
X0366023Y0512296D01*
X0365564Y0511189D01*
X0365408Y0510000D01*
X0365564Y0508812D01*
X0366023Y0507704D01*
X0366753Y0506753D01*
X0367704Y0506023D01*
X0368811Y0505564D01*
X0370000Y0505408D01*
X0371188Y0505564D01*
X0372296Y0506023D01*
X0372410Y0506111D01*
X0372859Y0505890D01*
X0372859Y0497887D01*
X0366486Y0491514D01*
X0366022Y0490819D01*
X0365859Y0490000D01*
X0365859Y0468264D01*
X0365789Y0468211D01*
X0365292Y0467563D01*
X0364980Y0466809D01*
X0364873Y0466000D01*
X0364980Y0465191D01*
X0365292Y0464437D01*
X0365789Y0463789D01*
X0366437Y0463292D01*
X0367191Y0462980D01*
X0368000Y0462873D01*
X0368809Y0462980D01*
X0369563Y0463292D01*
X0370211Y0463789D01*
X0370250Y0463840D01*
X0370750Y0463840D01*
X0370789Y0463789D01*
X0371437Y0463292D01*
X0372191Y0462980D01*
X0373000Y0462873D01*
X0373809Y0462980D01*
X0374563Y0463292D01*
X0374811Y0463482D01*
X0375307Y0463417D01*
X0375789Y0462789D01*
X0376437Y0462292D01*
X0377191Y0461980D01*
X0378000Y0461873D01*
X0378809Y0461980D01*
X0379563Y0462292D01*
X0380211Y0462789D01*
X0380708Y0463437D01*
X0381020Y0464191D01*
X0381079Y0464638D01*
X0381476Y0464942D01*
X0382000Y0464873D01*
X0382809Y0464980D01*
X0383563Y0465292D01*
X0384211Y0465789D01*
X0384708Y0466437D01*
X0385020Y0467191D01*
X0385127Y0468000D01*
X0385020Y0468809D01*
X0384708Y0469563D01*
X0384211Y0470211D01*
X0384141Y0470264D01*
X0384141Y0472113D01*
X0416514Y0504486D01*
X0416978Y0505181D01*
X0417031Y0505447D01*
X0424553Y0505447D01*
X0424553Y0514553D01*
X0418234Y0514553D01*
X0418043Y0515015D01*
X0418475Y0515447D01*
X0424553Y0515447D01*
X0424553Y0524553D01*
X0415447Y0524553D01*
X0415447Y0518475D01*
X0414372Y0517400D01*
X0413977Y0517704D01*
X0414436Y0518812D01*
X0414592Y0520000D01*
X0414436Y0521188D01*
X0413977Y0522296D01*
X0413247Y0523247D01*
X0412296Y0523977D01*
X0411189Y0524436D01*
X0410000Y0524592D01*
X0410000Y0524592D02*
G37*
G36*
X0240561Y0519000D02*
X0238000Y0519000D01*
X0238000Y0516439D01*
X0238309Y0516480D01*
X0239063Y0516792D01*
X0239711Y0517289D01*
X0240208Y0517937D01*
X0240520Y0518691D01*
X0240561Y0519000D01*
X0240561Y0519000D02*
G37*
G36*
X0237000Y0519000D02*
X0234439Y0519000D01*
X0234480Y0518691D01*
X0234792Y0517937D01*
X0235289Y0517289D01*
X0235937Y0516792D01*
X0236691Y0516480D01*
X0237000Y0516439D01*
X0237000Y0519000D01*
X0237000Y0519000D02*
G37*
G36*
X0214500Y0549500D02*
X0211939Y0549500D01*
X0211980Y0549191D01*
X0212292Y0548437D01*
X0212789Y0547789D01*
X0213437Y0547292D01*
X0214191Y0546980D01*
X0214500Y0546939D01*
X0214500Y0549500D01*
X0214500Y0549500D02*
G37*
G36*
X0445500Y0548061D02*
X0445500Y0545500D01*
X0448061Y0545500D01*
X0448020Y0545809D01*
X0447708Y0546563D01*
X0447211Y0547211D01*
X0446563Y0547708D01*
X0445809Y0548020D01*
X0445500Y0548061D01*
X0445500Y0548061D02*
G37*
G36*
X0444500Y0548061D02*
X0444191Y0548020D01*
X0443437Y0547708D01*
X0442789Y0547211D01*
X0442292Y0546563D01*
X0441980Y0545809D01*
X0441939Y0545500D01*
X0444500Y0545500D01*
X0444500Y0548061D01*
X0444500Y0548061D02*
G37*
G36*
X0215500Y0553061D02*
X0215500Y0550500D01*
X0218061Y0550500D01*
X0218020Y0550809D01*
X0217708Y0551563D01*
X0217211Y0552211D01*
X0216563Y0552708D01*
X0215809Y0553020D01*
X0215500Y0553061D01*
X0215500Y0553061D02*
G37*
G36*
X0214500Y0553061D02*
X0214191Y0553020D01*
X0213437Y0552708D01*
X0212789Y0552211D01*
X0212292Y0551563D01*
X0211980Y0550809D01*
X0211939Y0550500D01*
X0214500Y0550500D01*
X0214500Y0553061D01*
X0214500Y0553061D02*
G37*
G36*
X0218061Y0549500D02*
X0215500Y0549500D01*
X0215500Y0546939D01*
X0215809Y0546980D01*
X0216563Y0547292D01*
X0217211Y0547789D01*
X0217708Y0548437D01*
X0218020Y0549191D01*
X0218061Y0549500D01*
X0218061Y0549500D02*
G37*
G36*
X0444500Y0544500D02*
X0441939Y0544500D01*
X0441980Y0544191D01*
X0442292Y0543437D01*
X0442789Y0542789D01*
X0443437Y0542292D01*
X0444191Y0541980D01*
X0444500Y0541939D01*
X0444500Y0544500D01*
X0444500Y0544500D02*
G37*
G36*
X0343061Y0544500D02*
X0340500Y0544500D01*
X0340500Y0541939D01*
X0340809Y0541980D01*
X0341563Y0542292D01*
X0342211Y0542789D01*
X0342708Y0543437D01*
X0343020Y0544191D01*
X0343061Y0544500D01*
X0343061Y0544500D02*
G37*
G36*
X0339500Y0544500D02*
X0336939Y0544500D01*
X0336980Y0544191D01*
X0337292Y0543437D01*
X0337789Y0542789D01*
X0338437Y0542292D01*
X0339191Y0541980D01*
X0339500Y0541939D01*
X0339500Y0544500D01*
X0339500Y0544500D02*
G37*
G36*
X0340500Y0548061D02*
X0340500Y0545500D01*
X0343061Y0545500D01*
X0343020Y0545809D01*
X0342708Y0546563D01*
X0342211Y0547211D01*
X0341563Y0547708D01*
X0340809Y0548020D01*
X0340500Y0548061D01*
X0340500Y0548061D02*
G37*
G36*
X0339500Y0548061D02*
X0339191Y0548020D01*
X0338437Y0547708D01*
X0337789Y0547211D01*
X0337292Y0546563D01*
X0336980Y0545809D01*
X0336939Y0545500D01*
X0339500Y0545500D01*
X0339500Y0548061D01*
X0339500Y0548061D02*
G37*
G36*
X0448061Y0544500D02*
X0445500Y0544500D01*
X0445500Y0541939D01*
X0445809Y0541980D01*
X0446563Y0542292D01*
X0447211Y0542789D01*
X0447708Y0543437D01*
X0448020Y0544191D01*
X0448061Y0544500D01*
X0448061Y0544500D02*
G37*
G36*
X0360000Y0514592D02*
X0358811Y0514436D01*
X0357704Y0513977D01*
X0356753Y0513247D01*
X0356023Y0512296D01*
X0355564Y0511189D01*
X0355408Y0510000D01*
X0355564Y0508812D01*
X0356023Y0507704D01*
X0356753Y0506753D01*
X0357704Y0506023D01*
X0358811Y0505564D01*
X0360000Y0505408D01*
X0361189Y0505564D01*
X0362296Y0506023D01*
X0363247Y0506753D01*
X0363977Y0507704D01*
X0364436Y0508812D01*
X0364592Y0510000D01*
X0364436Y0511189D01*
X0363977Y0512296D01*
X0363247Y0513247D01*
X0362296Y0513977D01*
X0361189Y0514436D01*
X0360000Y0514592D01*
X0360000Y0514592D02*
G37*
G36*
X0261500Y0469061D02*
X0261191Y0469020D01*
X0260437Y0468708D01*
X0259789Y0468211D01*
X0259292Y0467563D01*
X0258980Y0466809D01*
X0258939Y0466500D01*
X0261500Y0466500D01*
X0261500Y0469061D01*
X0261500Y0469061D02*
G37*
G36*
X0420000Y0474592D02*
X0418812Y0474436D01*
X0417704Y0473977D01*
X0416753Y0473247D01*
X0416023Y0472296D01*
X0415564Y0471188D01*
X0415408Y0470000D01*
X0415564Y0468812D01*
X0416023Y0467704D01*
X0416753Y0466753D01*
X0417704Y0466023D01*
X0418812Y0465564D01*
X0420000Y0465408D01*
X0421188Y0465564D01*
X0422296Y0466023D01*
X0423247Y0466753D01*
X0423977Y0467704D01*
X0424436Y0468812D01*
X0424592Y0470000D01*
X0424436Y0471188D01*
X0423977Y0472296D01*
X0423247Y0473247D01*
X0422296Y0473977D01*
X0421188Y0474436D01*
X0420000Y0474592D01*
X0420000Y0474592D02*
G37*
G36*
X0320000Y0474592D02*
X0318811Y0474436D01*
X0317704Y0473977D01*
X0316753Y0473247D01*
X0316023Y0472296D01*
X0315564Y0471188D01*
X0315408Y0470000D01*
X0315564Y0468812D01*
X0316023Y0467704D01*
X0316753Y0466753D01*
X0317704Y0466023D01*
X0318811Y0465564D01*
X0320000Y0465408D01*
X0321188Y0465564D01*
X0322296Y0466023D01*
X0323247Y0466753D01*
X0323977Y0467704D01*
X0324436Y0468812D01*
X0324592Y0470000D01*
X0324436Y0471188D01*
X0323977Y0472296D01*
X0323247Y0473247D01*
X0322296Y0473977D01*
X0321188Y0474436D01*
X0320000Y0474592D01*
X0320000Y0474592D02*
G37*
G36*
X0235405Y0470883D02*
X0229778Y0470883D01*
X0229778Y0468799D01*
X0235405Y0468799D01*
X0235405Y0470883D01*
X0235405Y0470883D02*
G37*
G36*
X0311500Y0469061D02*
X0311500Y0466500D01*
X0314061Y0466500D01*
X0314020Y0466809D01*
X0313708Y0467563D01*
X0313211Y0468211D01*
X0312563Y0468708D01*
X0311809Y0469020D01*
X0311500Y0469061D01*
X0311500Y0469061D02*
G37*
G36*
X0310500Y0469061D02*
X0310191Y0469020D01*
X0309437Y0468708D01*
X0308789Y0468211D01*
X0308292Y0467563D01*
X0307980Y0466809D01*
X0307939Y0466500D01*
X0310500Y0466500D01*
X0310500Y0469061D01*
X0310500Y0469061D02*
G37*
G36*
X0261500Y0465500D02*
X0258939Y0465500D01*
X0258980Y0465191D01*
X0259292Y0464437D01*
X0259789Y0463789D01*
X0260437Y0463292D01*
X0261191Y0462980D01*
X0261500Y0462939D01*
X0261500Y0465500D01*
X0261500Y0465500D02*
G37*
G36*
X0216500Y0463500D02*
X0213939Y0463500D01*
X0213980Y0463191D01*
X0214292Y0462437D01*
X0214789Y0461789D01*
X0215437Y0461292D01*
X0216191Y0460980D01*
X0216500Y0460939D01*
X0216500Y0463500D01*
X0216500Y0463500D02*
G37*
G36*
X0374500Y0460899D02*
X0370644Y0460899D01*
X0370644Y0457043D01*
X0374500Y0457043D01*
X0374500Y0460899D01*
X0374500Y0460899D02*
G37*
G36*
X0216500Y0467061D02*
X0216191Y0467020D01*
X0215437Y0466708D01*
X0214789Y0466211D01*
X0214292Y0465563D01*
X0213980Y0464809D01*
X0213939Y0464500D01*
X0216500Y0464500D01*
X0216500Y0467061D01*
X0216500Y0467061D02*
G37*
G36*
X0314061Y0465500D02*
X0311500Y0465500D01*
X0311500Y0462939D01*
X0311809Y0462980D01*
X0312563Y0463292D01*
X0313211Y0463789D01*
X0313708Y0464437D01*
X0314020Y0465191D01*
X0314061Y0465500D01*
X0314061Y0465500D02*
G37*
G36*
X0310500Y0465500D02*
X0307939Y0465500D01*
X0307980Y0465191D01*
X0308292Y0464437D01*
X0308789Y0463789D01*
X0309437Y0463292D01*
X0310191Y0462980D01*
X0310500Y0462939D01*
X0310500Y0465500D01*
X0310500Y0465500D02*
G37*
G36*
X0320000Y0504592D02*
X0318811Y0504436D01*
X0317704Y0503977D01*
X0316753Y0503247D01*
X0316023Y0502296D01*
X0315564Y0501189D01*
X0315408Y0500000D01*
X0315564Y0498811D01*
X0316023Y0497704D01*
X0316753Y0496753D01*
X0317704Y0496023D01*
X0318811Y0495564D01*
X0320000Y0495408D01*
X0321188Y0495564D01*
X0322296Y0496023D01*
X0323247Y0496753D01*
X0323977Y0497704D01*
X0324436Y0498811D01*
X0324592Y0500000D01*
X0324436Y0501189D01*
X0323977Y0502296D01*
X0323247Y0503247D01*
X0322296Y0503977D01*
X0321188Y0504436D01*
X0320000Y0504592D01*
X0320000Y0504592D02*
G37*
G36*
X0255500Y0494526D02*
X0254812Y0494436D01*
X0253704Y0493977D01*
X0252753Y0493247D01*
X0252023Y0492296D01*
X0251564Y0491188D01*
X0251474Y0490500D01*
X0255500Y0490500D01*
X0255500Y0494526D01*
X0255500Y0494526D02*
G37*
G36*
X0255500Y0489500D02*
X0251474Y0489500D01*
X0251564Y0488811D01*
X0252023Y0487704D01*
X0252753Y0486753D01*
X0253704Y0486023D01*
X0254812Y0485564D01*
X0255500Y0485474D01*
X0255500Y0489500D01*
X0255500Y0489500D02*
G37*
G36*
X0350000Y0514592D02*
X0348812Y0514436D01*
X0347704Y0513977D01*
X0346753Y0513247D01*
X0346023Y0512296D01*
X0345564Y0511189D01*
X0345408Y0510000D01*
X0345564Y0508812D01*
X0346023Y0507704D01*
X0346753Y0506753D01*
X0347704Y0506023D01*
X0348812Y0505564D01*
X0350000Y0505408D01*
X0351188Y0505564D01*
X0352296Y0506023D01*
X0353247Y0506753D01*
X0353977Y0507704D01*
X0354436Y0508812D01*
X0354592Y0510000D01*
X0354436Y0511189D01*
X0353977Y0512296D01*
X0353247Y0513247D01*
X0352296Y0513977D01*
X0351188Y0514436D01*
X0350000Y0514592D01*
X0350000Y0514592D02*
G37*
G36*
X0320000Y0514592D02*
X0318811Y0514436D01*
X0317704Y0513977D01*
X0316753Y0513247D01*
X0316023Y0512296D01*
X0315564Y0511189D01*
X0315408Y0510000D01*
X0315564Y0508812D01*
X0316023Y0507704D01*
X0316753Y0506753D01*
X0317704Y0506023D01*
X0318811Y0505564D01*
X0320000Y0505408D01*
X0321188Y0505564D01*
X0322296Y0506023D01*
X0323247Y0506753D01*
X0323977Y0507704D01*
X0324436Y0508812D01*
X0324592Y0510000D01*
X0324436Y0511189D01*
X0323977Y0512296D01*
X0323247Y0513247D01*
X0322296Y0513977D01*
X0321188Y0514436D01*
X0320000Y0514592D01*
X0320000Y0514592D02*
G37*
G36*
X0237500Y0507627D02*
X0236691Y0507520D01*
X0235937Y0507208D01*
X0235289Y0506711D01*
X0234792Y0506063D01*
X0234480Y0505309D01*
X0234461Y0505170D01*
X0234295Y0505004D01*
X0234066Y0504705D01*
X0233583Y0504834D01*
X0233520Y0505309D01*
X0233208Y0506063D01*
X0232711Y0506711D01*
X0232063Y0507208D01*
X0231309Y0507520D01*
X0230500Y0507627D01*
X0229691Y0507520D01*
X0228937Y0507208D01*
X0228289Y0506711D01*
X0227792Y0506063D01*
X0227480Y0505309D01*
X0227373Y0504500D01*
X0227480Y0503691D01*
X0227792Y0502937D01*
X0227878Y0502825D01*
X0227878Y0501159D01*
X0226282Y0501159D01*
X0226282Y0492841D01*
X0239718Y0492841D01*
X0239718Y0501159D01*
X0238772Y0501159D01*
X0238772Y0501672D01*
X0239063Y0501792D01*
X0239711Y0502289D01*
X0240208Y0502937D01*
X0240520Y0503691D01*
X0240627Y0504500D01*
X0240520Y0505309D01*
X0240208Y0506063D01*
X0239711Y0506711D01*
X0239063Y0507208D01*
X0238309Y0507520D01*
X0237500Y0507627D01*
X0237500Y0507627D02*
G37*
G36*
X0320000Y0484592D02*
X0318811Y0484436D01*
X0317704Y0483977D01*
X0316753Y0483247D01*
X0316023Y0482296D01*
X0315564Y0481188D01*
X0315408Y0480000D01*
X0315564Y0478812D01*
X0316023Y0477704D01*
X0316753Y0476753D01*
X0317704Y0476023D01*
X0318811Y0475564D01*
X0320000Y0475408D01*
X0321188Y0475564D01*
X0322296Y0476023D01*
X0323247Y0476753D01*
X0323977Y0477704D01*
X0324436Y0478812D01*
X0324592Y0480000D01*
X0324436Y0481188D01*
X0323977Y0482296D01*
X0323247Y0483247D01*
X0322296Y0483977D01*
X0321188Y0484436D01*
X0320000Y0484592D01*
X0320000Y0484592D02*
G37*
G36*
X0242033Y0485057D02*
X0228991Y0485057D01*
X0228991Y0473983D01*
X0242033Y0473983D01*
X0242033Y0485057D01*
X0242033Y0485057D02*
G37*
G36*
X0245000Y0472627D02*
X0244191Y0472520D01*
X0243437Y0472208D01*
X0242789Y0471711D01*
X0242292Y0471063D01*
X0242203Y0470849D01*
X0242033Y0470883D01*
X0242033Y0470883D01*
X0242033Y0470883D01*
X0236405Y0470883D01*
X0236405Y0468298D01*
X0235907Y0468298D01*
X0235907Y0467799D01*
X0229778Y0467799D01*
X0229778Y0465715D01*
X0229778Y0462565D01*
X0229778Y0459416D01*
X0229778Y0456266D01*
X0229778Y0453117D01*
X0242033Y0453117D01*
X0242033Y0453356D01*
X0243701Y0453356D01*
X0244598Y0453534D01*
X0245131Y0453891D01*
X0245809Y0453980D01*
X0246563Y0454292D01*
X0247211Y0454789D01*
X0247708Y0455437D01*
X0248020Y0456191D01*
X0248127Y0457000D01*
X0248020Y0457809D01*
X0247708Y0458563D01*
X0247211Y0459211D01*
X0247160Y0459250D01*
X0247160Y0459750D01*
X0247211Y0459789D01*
X0247708Y0460437D01*
X0248020Y0461191D01*
X0248127Y0462000D01*
X0248020Y0462809D01*
X0247708Y0463563D01*
X0247211Y0464211D01*
X0246563Y0464708D01*
X0246514Y0464728D01*
X0246514Y0464729D01*
X0246978Y0465423D01*
X0247141Y0466243D01*
X0247141Y0466243D01*
X0247141Y0466243D01*
X0247141Y0466243D01*
X0247141Y0467236D01*
X0247211Y0467289D01*
X0247708Y0467937D01*
X0248020Y0468691D01*
X0248127Y0469500D01*
X0248020Y0470309D01*
X0247708Y0471063D01*
X0247211Y0471711D01*
X0246563Y0472208D01*
X0245809Y0472520D01*
X0245000Y0472627D01*
X0245000Y0472627D02*
G37*
G36*
X0320000Y0494592D02*
X0318811Y0494436D01*
X0317704Y0493977D01*
X0316753Y0493247D01*
X0316023Y0492296D01*
X0315564Y0491188D01*
X0315408Y0490000D01*
X0315564Y0488811D01*
X0316023Y0487704D01*
X0316753Y0486753D01*
X0317704Y0486023D01*
X0318811Y0485564D01*
X0320000Y0485408D01*
X0321188Y0485564D01*
X0322296Y0486023D01*
X0323247Y0486753D01*
X0323977Y0487704D01*
X0324436Y0488811D01*
X0324592Y0490000D01*
X0324436Y0491188D01*
X0323977Y0492296D01*
X0323247Y0493247D01*
X0322296Y0493977D01*
X0321188Y0494436D01*
X0320000Y0494592D01*
X0320000Y0494592D02*
G37*
G36*
X0420000Y0492127D02*
X0419191Y0492020D01*
X0418437Y0491708D01*
X0417789Y0491211D01*
X0417292Y0490563D01*
X0416980Y0489809D01*
X0416873Y0489000D01*
X0416980Y0488191D01*
X0417292Y0487437D01*
X0417789Y0486789D01*
X0418437Y0486292D01*
X0419191Y0485980D01*
X0419786Y0485901D01*
X0420000Y0485859D01*
X0420214Y0485901D01*
X0420809Y0485980D01*
X0421563Y0486292D01*
X0422211Y0486789D01*
X0422264Y0486859D01*
X0430113Y0486859D01*
X0432600Y0484372D01*
X0432296Y0483977D01*
X0431188Y0484436D01*
X0430000Y0484592D01*
X0428812Y0484436D01*
X0427704Y0483977D01*
X0426753Y0483247D01*
X0426023Y0482296D01*
X0425564Y0481188D01*
X0425408Y0480000D01*
X0425564Y0478812D01*
X0426023Y0477704D01*
X0426753Y0476753D01*
X0427704Y0476023D01*
X0428812Y0475564D01*
X0430000Y0475408D01*
X0431188Y0475564D01*
X0432296Y0476023D01*
X0432600Y0475628D01*
X0431343Y0474371D01*
X0431188Y0474436D01*
X0430000Y0474592D01*
X0428812Y0474436D01*
X0427704Y0473977D01*
X0426753Y0473247D01*
X0426023Y0472296D01*
X0425564Y0471188D01*
X0425408Y0470000D01*
X0425564Y0468812D01*
X0426023Y0467704D01*
X0426753Y0466753D01*
X0427704Y0466023D01*
X0428812Y0465564D01*
X0430000Y0465408D01*
X0431188Y0465564D01*
X0432296Y0466023D01*
X0433247Y0466753D01*
X0433977Y0467704D01*
X0434436Y0468812D01*
X0434592Y0470000D01*
X0434436Y0471188D01*
X0434371Y0471343D01*
X0436514Y0473486D01*
X0436978Y0474181D01*
X0437141Y0475000D01*
X0437141Y0485000D01*
X0436978Y0485819D01*
X0436514Y0486514D01*
X0432514Y0490514D01*
X0431819Y0490978D01*
X0431000Y0491141D01*
X0422264Y0491141D01*
X0422211Y0491211D01*
X0421563Y0491708D01*
X0420809Y0492020D01*
X0420000Y0492127D01*
X0420000Y0492127D02*
G37*
G36*
X0420000Y0484592D02*
X0418812Y0484436D01*
X0417704Y0483977D01*
X0416753Y0483247D01*
X0416023Y0482296D01*
X0415564Y0481188D01*
X0415408Y0480000D01*
X0415564Y0478812D01*
X0416023Y0477704D01*
X0416753Y0476753D01*
X0417704Y0476023D01*
X0418812Y0475564D01*
X0420000Y0475408D01*
X0421188Y0475564D01*
X0422296Y0476023D01*
X0423247Y0476753D01*
X0423977Y0477704D01*
X0424436Y0478812D01*
X0424592Y0480000D01*
X0424436Y0481188D01*
X0423977Y0482296D01*
X0423247Y0483247D01*
X0422296Y0483977D01*
X0421188Y0484436D01*
X0420000Y0484592D01*
X0420000Y0484592D02*
G37*
%LPD*%
D11*
X0350000Y0370000D02*
D03*
X0420000Y0520000D02*
D03*
X0227000Y0380000D02*
D03*
X0286000Y0490000D02*
D03*
X0350000Y0380000D02*
D03*
X0220000Y0540000D02*
D03*
X0420000Y0510000D02*
D03*
D17*
X0354000Y0449457D02*
D03*
X0354000Y0456543D02*
D03*
X0375000Y0449457D02*
D03*
X0375000Y0456543D02*
D03*
D18*
X0236150Y0497000D02*
D03*
X0229850Y0497000D02*
D03*
X0238000Y0527000D02*
D03*
X0231701Y0527000D02*
D03*
D19*
X0395000Y0515000D02*
X0400000Y0520000D01*
X0395000Y0500323D02*
X0395000Y0515000D01*
X0373000Y0478323D02*
X0395000Y0500323D01*
X0373000Y0467000D02*
X0373000Y0478323D01*
X0304323Y0400000D02*
X0320000Y0400000D01*
X0264600Y0439723D02*
X0304323Y0400000D01*
X0264600Y0439723D02*
X0264600Y0474400D01*
X0261000Y0478000D02*
X0264600Y0474400D01*
X0261000Y0478000D02*
X0261000Y0519000D01*
X0264000Y0522000D01*
X0375000Y0515000D02*
X0380000Y0520000D01*
X0375000Y0497000D02*
X0375000Y0515000D01*
X0368000Y0490000D02*
X0375000Y0497000D01*
X0368000Y0466000D02*
X0368000Y0490000D01*
X0385000Y0515000D02*
X0390000Y0520000D01*
X0385000Y0494000D02*
X0385000Y0515000D01*
X0374000Y0483000D02*
X0385000Y0494000D01*
X0405000Y0515000D02*
X0410000Y0520000D01*
X0405000Y0507000D02*
X0405000Y0515000D01*
X0378200Y0480200D02*
X0405000Y0507000D01*
X0378200Y0465200D02*
X0378200Y0480200D01*
X0378000Y0465000D02*
X0378200Y0465200D01*
X0425000Y0435000D02*
X0430000Y0430000D01*
X0403000Y0435000D02*
X0425000Y0435000D01*
X0397000Y0441000D02*
X0403000Y0435000D01*
X0420000Y0489000D02*
X0431000Y0489000D01*
X0435000Y0475000D02*
X0435000Y0485000D01*
X0430000Y0470000D02*
X0435000Y0475000D01*
X0431000Y0489000D02*
X0435000Y0485000D01*
X0390000Y0370000D02*
X0390000Y0371000D01*
X0395000Y0376000D01*
X0395000Y0386000D01*
X0373000Y0408000D02*
X0395000Y0386000D01*
X0373000Y0408000D02*
X0373000Y0434000D01*
X0371639Y0435361D02*
X0373000Y0434000D01*
X0361639Y0435361D02*
X0371639Y0435361D01*
X0320000Y0430000D02*
X0325361Y0435361D01*
X0361639Y0435361D01*
X0385000Y0368000D02*
X0385000Y0373000D01*
X0370000Y0380000D02*
X0375000Y0375000D01*
X0383000Y0375000D02*
X0385000Y0373000D01*
X0385000Y0368000D02*
X0388000Y0365000D01*
X0395000Y0365000D01*
X0400000Y0370000D01*
X0375000Y0375000D02*
X0383000Y0375000D01*
X0270000Y0445000D02*
X0272000Y0443000D01*
X0270000Y0445000D02*
X0270000Y0466000D01*
X0281239Y0477239D01*
X0281239Y0517239D01*
X0297000Y0533000D01*
X0297000Y0545000D01*
X0293000Y0549000D02*
X0297000Y0545000D01*
X0279000Y0549000D02*
X0293000Y0549000D01*
X0270000Y0540000D02*
X0279000Y0549000D01*
X0273000Y0443000D02*
X0273000Y0444000D01*
X0375457Y0449000D02*
X0381000Y0449000D01*
X0375000Y0456543D02*
X0375543Y0456000D01*
X0381000Y0456000D01*
X0375000Y0449457D02*
X0375457Y0449000D01*
X0281583Y0426417D02*
X0281583Y0430000D01*
X0281583Y0426417D02*
X0282053Y0425947D01*
X0340947Y0425947D01*
X0272000Y0385000D02*
X0277000Y0390000D01*
X0272000Y0373000D02*
X0272000Y0385000D01*
X0272000Y0373000D02*
X0298000Y0347000D01*
X0401000Y0347000D01*
X0420000Y0366000D01*
X0420000Y0370000D01*
X0307000Y0350000D02*
X0390000Y0350000D01*
X0282000Y0385000D02*
X0287000Y0390000D01*
X0282000Y0375000D02*
X0282000Y0385000D01*
X0282000Y0375000D02*
X0307000Y0350000D01*
X0390000Y0350000D02*
X0410000Y0370000D01*
X0370000Y0354000D02*
X0370000Y0370000D01*
X0360000Y0354000D02*
X0360000Y0370000D01*
X0350000Y0354000D02*
X0350000Y0370000D01*
X0402000Y0415000D02*
X0425000Y0415000D01*
X0430000Y0410000D01*
X0382000Y0435000D02*
X0402000Y0415000D01*
X0425000Y0425000D02*
X0430000Y0420000D01*
X0408000Y0425000D02*
X0425000Y0425000D01*
X0393000Y0440000D02*
X0408000Y0425000D01*
X0381000Y0440000D02*
X0393000Y0440000D01*
X0386000Y0445000D02*
X0425000Y0445000D01*
X0430000Y0440000D01*
X0347000Y0455000D02*
X0348543Y0456543D01*
X0415000Y0375000D02*
X0415000Y0389000D01*
X0415000Y0375000D02*
X0420000Y0370000D01*
X0403000Y0401000D02*
X0415000Y0389000D01*
X0405000Y0375000D02*
X0405000Y0391000D01*
X0405000Y0375000D02*
X0410000Y0370000D01*
X0395000Y0401000D02*
X0405000Y0391000D01*
X0354000Y0432000D02*
X0369000Y0432000D01*
X0347000Y0432000D02*
X0354000Y0432000D01*
X0340947Y0425947D02*
X0347000Y0432000D01*
X0415000Y0515000D02*
X0420000Y0520000D01*
X0415000Y0506000D02*
X0415000Y0515000D01*
X0382000Y0473000D02*
X0415000Y0506000D01*
X0382000Y0468000D02*
X0382000Y0473000D01*
X0280000Y0540000D02*
X0286000Y0546000D01*
X0292000Y0546000D01*
X0294053Y0543947D01*
X0294053Y0538269D02*
X0294053Y0543947D01*
X0271000Y0515216D02*
X0294053Y0538269D01*
X0271000Y0474263D02*
X0271000Y0515216D01*
X0267000Y0470263D02*
X0271000Y0474263D01*
X0267000Y0445263D02*
X0267000Y0470263D01*
X0267000Y0445263D02*
X0272263Y0440000D01*
X0288000Y0440000D01*
X0292000Y0444000D01*
X0240757Y0462000D02*
X0245000Y0466243D01*
X0235906Y0462000D02*
X0240757Y0462000D01*
X0245000Y0466243D02*
X0245000Y0469500D01*
X0241850Y0458850D02*
X0245000Y0462000D01*
X0235906Y0458850D02*
X0241850Y0458850D01*
X0384000Y0443000D02*
X0384500Y0443500D01*
X0386000Y0445000D01*
X0420000Y0488000D02*
X0420500Y0488500D01*
X0373500Y0466500D02*
X0374000Y0466000D01*
X0373000Y0467000D02*
X0373500Y0466500D01*
X0272000Y0443000D02*
X0272500Y0443500D01*
X0273000Y0444000D01*
D20*
X0287000Y0380000D02*
X0293000Y0386000D01*
X0293000Y0393000D01*
X0262000Y0424000D02*
X0293000Y0393000D01*
X0262000Y0424000D02*
X0262000Y0456000D01*
X0256000Y0476000D02*
X0256000Y0490000D01*
X0256000Y0476000D02*
X0257000Y0476000D01*
X0343000Y0445000D02*
X0347000Y0449000D01*
X0300000Y0445000D02*
X0343000Y0445000D01*
X0299000Y0446000D02*
X0300000Y0445000D01*
X0303000Y0455000D02*
X0347000Y0455000D01*
X0298000Y0460000D02*
X0303000Y0455000D01*
X0274000Y0460000D02*
X0298000Y0460000D01*
X0274000Y0448000D02*
X0274000Y0460000D01*
X0256000Y0490000D02*
X0256500Y0490500D01*
X0262000Y0466000D02*
X0262000Y0471000D01*
X0262000Y0456000D02*
X0262000Y0466000D01*
X0257000Y0476000D02*
X0262000Y0471000D01*
X0245000Y0476000D02*
X0256000Y0476000D01*
X0237299Y0468299D02*
X0245000Y0476000D01*
X0235906Y0468299D02*
X0237299Y0468299D01*
X0235906Y0455701D02*
X0243701Y0455701D01*
D21*
X0309000Y0385000D02*
X0335000Y0385000D01*
X0340000Y0380000D01*
X0270000Y0424000D02*
X0309000Y0385000D01*
X0305000Y0362000D02*
X0332000Y0362000D01*
X0287000Y0380000D02*
X0305000Y0362000D01*
X0332000Y0362000D02*
X0340000Y0370000D01*
X0361457Y0456543D02*
X0368543Y0449457D01*
X0375000Y0449457D01*
X0354000Y0456543D02*
X0361457Y0456543D01*
X0348543Y0456543D02*
X0354000Y0456543D01*
X0227000Y0390000D02*
X0237000Y0390000D01*
X0238000Y0527000D02*
X0277000Y0527000D01*
X0290000Y0540000D01*
X0237500Y0519500D02*
X0256500Y0500500D01*
X0256500Y0490500D02*
X0256500Y0500500D01*
X0219000Y0527000D02*
X0231701Y0527000D01*
X0229850Y0497000D02*
X0230500Y0497650D01*
X0230500Y0504500D01*
X0236150Y0497000D02*
X0236150Y0503150D01*
X0237500Y0504500D01*
X0238000Y0520000D02*
X0238000Y0527000D01*
X0237500Y0519500D02*
X0238000Y0520000D01*
X0347000Y0449000D02*
X0351457Y0449000D01*
X0267000Y0380000D02*
X0267000Y0380894D01*
X0262000Y0385894D02*
X0267000Y0380894D01*
X0262000Y0385894D02*
X0262000Y0399000D01*
X0222000Y0439000D02*
X0262000Y0399000D01*
X0222000Y0439000D02*
X0222000Y0524000D01*
X0219000Y0527000D02*
X0222000Y0524000D01*
D24*
X0360000Y0370000D02*
D03*
X0370000Y0370000D02*
D03*
X0380000Y0370000D02*
D03*
X0390000Y0370000D02*
D03*
X0400000Y0370000D02*
D03*
X0410000Y0370000D02*
D03*
X0420000Y0370000D02*
D03*
X0410000Y0520000D02*
D03*
X0400000Y0520000D02*
D03*
X0390000Y0520000D02*
D03*
X0380000Y0520000D02*
D03*
X0370000Y0520000D02*
D03*
X0360000Y0520000D02*
D03*
X0350000Y0520000D02*
D03*
X0227000Y0390000D02*
D03*
X0237000Y0380000D02*
D03*
X0237000Y0390000D02*
D03*
X0247000Y0380000D02*
D03*
X0247000Y0390000D02*
D03*
X0257000Y0380000D02*
D03*
X0257000Y0390000D02*
D03*
X0267000Y0380000D02*
D03*
X0267000Y0390000D02*
D03*
X0277000Y0380000D02*
D03*
X0277000Y0390000D02*
D03*
X0287000Y0380000D02*
D03*
X0287000Y0390000D02*
D03*
X0256000Y0490000D02*
D03*
X0266000Y0490000D02*
D03*
X0276000Y0490000D02*
D03*
X0420000Y0420000D02*
D03*
X0420000Y0430000D02*
D03*
X0420000Y0440000D02*
D03*
X0420000Y0450000D02*
D03*
X0420000Y0460000D02*
D03*
X0420000Y0470000D02*
D03*
X0420000Y0480000D02*
D03*
X0360000Y0380000D02*
D03*
X0370000Y0380000D02*
D03*
X0380000Y0380000D02*
D03*
X0390000Y0380000D02*
D03*
X0400000Y0380000D02*
D03*
X0410000Y0380000D02*
D03*
X0420000Y0380000D02*
D03*
X0320000Y0430000D02*
D03*
X0320000Y0420000D02*
D03*
X0320000Y0410000D02*
D03*
X0320000Y0400000D02*
D03*
X0320000Y0390000D02*
D03*
X0320000Y0380000D02*
D03*
X0320000Y0370000D02*
D03*
X0230000Y0540000D02*
D03*
X0240000Y0540000D02*
D03*
X0250000Y0540000D02*
D03*
X0260000Y0540000D02*
D03*
X0270000Y0540000D02*
D03*
X0280000Y0540000D02*
D03*
X0290000Y0540000D02*
D03*
X0320000Y0510000D02*
D03*
X0320000Y0500000D02*
D03*
X0320000Y0490000D02*
D03*
X0320000Y0480000D02*
D03*
X0320000Y0470000D02*
D03*
X0320000Y0460000D02*
D03*
X0320000Y0450000D02*
D03*
X0410000Y0510000D02*
D03*
X0400000Y0510000D02*
D03*
X0390000Y0510000D02*
D03*
X0380000Y0510000D02*
D03*
X0370000Y0510000D02*
D03*
X0360000Y0510000D02*
D03*
X0350000Y0510000D02*
D03*
X0430000Y0420000D02*
D03*
X0430000Y0430000D02*
D03*
X0430000Y0440000D02*
D03*
X0430000Y0450000D02*
D03*
X0430000Y0460000D02*
D03*
X0430000Y0470000D02*
D03*
X0430000Y0480000D02*
D03*
X0340000Y0370000D02*
D03*
D25*
X0225669Y0453339D02*
D03*
X0225669Y0470661D02*
D03*
D26*
X0420000Y0410000D02*
D03*
X0320000Y0440000D02*
D03*
X0320000Y0520000D02*
D03*
X0430000Y0410000D02*
D03*
X0340000Y0380000D02*
D03*
D27*
X0270000Y0424000D02*
D03*
X0361639Y0435361D02*
D03*
X0381000Y0449000D02*
D03*
X0381000Y0456000D02*
D03*
X0299000Y0446000D02*
D03*
X0274000Y0460000D02*
D03*
X0274000Y0448000D02*
D03*
X0370000Y0354000D02*
D03*
X0360000Y0354000D02*
D03*
X0350000Y0354000D02*
D03*
X0382000Y0435000D02*
D03*
X0381000Y0440000D02*
D03*
X0384000Y0444000D02*
D03*
X0397000Y0441000D02*
D03*
X0347000Y0455000D02*
D03*
X0420000Y0489000D02*
D03*
X0403000Y0401000D02*
D03*
X0395000Y0401000D02*
D03*
X0264000Y0522000D02*
D03*
X0369000Y0432000D02*
D03*
X0354000Y0432000D02*
D03*
X0281583Y0430000D02*
D03*
X0382000Y0468000D02*
D03*
X0378000Y0465000D02*
D03*
X0373000Y0466000D02*
D03*
X0374000Y0483000D02*
D03*
X0368000Y0466000D02*
D03*
X0292000Y0444000D02*
D03*
X0273000Y0443000D02*
D03*
X0219000Y0527000D02*
D03*
X0230500Y0504500D02*
D03*
X0237500Y0504500D02*
D03*
X0237500Y0519500D02*
D03*
X0262000Y0456000D02*
D03*
X0245000Y0457000D02*
D03*
X0245000Y0462000D02*
D03*
X0245000Y0469500D02*
D03*
X0262000Y0466000D02*
D03*
X0347000Y0449000D02*
D03*
X0359000Y0396000D02*
D03*
X0400000Y0353000D02*
D03*
X0445000Y0355000D02*
D03*
X0445000Y0545000D02*
D03*
X0215000Y0550000D02*
D03*
X0217000Y0464000D02*
D03*
X0215000Y0355000D02*
D03*
X0283000Y0369000D02*
D03*
X0302000Y0414000D02*
D03*
X0349000Y0440000D02*
D03*
X0311000Y0466000D02*
D03*
X0365000Y0354000D02*
D03*
X0340000Y0545000D02*
D03*
D28*
X0235512Y0479520D02*
D03*
X0235512Y0444480D02*
D03*
X0213858Y0444480D02*
D03*
X0213858Y0479520D02*
D03*
D29*
X0235906Y0468299D02*
D03*
X0235906Y0465149D02*
D03*
X0235906Y0462000D02*
D03*
X0235906Y0458850D02*
D03*
X0235906Y0455701D02*
D03*
M02*
