G75*
G70*
%OFA0B0*%
%FSLAX24Y24*%
%IPPOS*%
%LPD*%
%AMOC8*
5,1,8,0,0,1.08239X$1,22.5*
%
%ADD10C,0.0100*%
%ADD11C,0.0000*%
D10*
X000556Y015465D02*
X000574Y016201D01*
X000628Y016935D01*
X000718Y017666D01*
X000844Y018391D01*
X001006Y019110D01*
X001202Y019819D01*
X001433Y020518D01*
X001698Y021205D01*
X001996Y021878D01*
X002327Y022536D01*
X002690Y023177D01*
X003084Y023799D01*
X003508Y024400D01*
X003961Y024981D01*
X004442Y025538D01*
X004949Y026072D01*
X005483Y026579D01*
X006040Y027060D01*
X006621Y027513D01*
X007222Y027937D01*
X007844Y028331D01*
X008485Y028694D01*
X009143Y029025D01*
X009816Y029323D01*
X010503Y029588D01*
X011202Y029819D01*
X011911Y030015D01*
X012630Y030177D01*
X013355Y030303D01*
X014086Y030393D01*
X014820Y030447D01*
X015556Y030465D01*
X016292Y030447D01*
X017026Y030393D01*
X017757Y030303D01*
X018482Y030177D01*
X019201Y030015D01*
X019910Y029819D01*
X020609Y029588D01*
X021296Y029323D01*
X021969Y029025D01*
X022627Y028694D01*
X023268Y028331D01*
X023890Y027937D01*
X024491Y027513D01*
X025072Y027060D01*
X025629Y026579D01*
X026163Y026072D01*
X026670Y025538D01*
X027151Y024981D01*
X027604Y024400D01*
X028028Y023799D01*
X028422Y023177D01*
X028785Y022536D01*
X029116Y021878D01*
X029414Y021205D01*
X029679Y020518D01*
X029910Y019819D01*
X030106Y019110D01*
X030268Y018391D01*
X030394Y017666D01*
X030484Y016935D01*
X030538Y016201D01*
X030556Y015465D01*
X030538Y014729D01*
X030484Y013995D01*
X030394Y013264D01*
X030268Y012539D01*
X030106Y011820D01*
X029910Y011111D01*
X029679Y010412D01*
X029414Y009725D01*
X029116Y009052D01*
X028785Y008394D01*
X028422Y007753D01*
X028028Y007131D01*
X027604Y006530D01*
X027151Y005949D01*
X026670Y005392D01*
X026163Y004858D01*
X025629Y004351D01*
X025072Y003870D01*
X024491Y003417D01*
X023890Y002993D01*
X023268Y002599D01*
X022627Y002236D01*
X021969Y001905D01*
X021296Y001607D01*
X020609Y001342D01*
X019910Y001111D01*
X019201Y000915D01*
X018482Y000753D01*
X017757Y000627D01*
X017026Y000537D01*
X016292Y000483D01*
X015556Y000465D01*
X014820Y000483D01*
X014086Y000537D01*
X013355Y000627D01*
X012630Y000753D01*
X011911Y000915D01*
X011202Y001111D01*
X010503Y001342D01*
X009816Y001607D01*
X009143Y001905D01*
X008485Y002236D01*
X007844Y002599D01*
X007222Y002993D01*
X006621Y003417D01*
X006040Y003870D01*
X005483Y004351D01*
X004949Y004858D01*
X004442Y005392D01*
X003961Y005949D01*
X003508Y006530D01*
X003084Y007131D01*
X002690Y007753D01*
X002327Y008394D01*
X001996Y009052D01*
X001698Y009725D01*
X001433Y010412D01*
X001202Y011111D01*
X001006Y011820D01*
X000844Y012539D01*
X000718Y013264D01*
X000628Y013995D01*
X000574Y014729D01*
X000556Y015465D01*
D11*
X014556Y028965D02*
X014558Y029028D01*
X014564Y029090D01*
X014574Y029152D01*
X014587Y029214D01*
X014605Y029274D01*
X014626Y029333D01*
X014651Y029391D01*
X014680Y029447D01*
X014712Y029501D01*
X014747Y029553D01*
X014785Y029602D01*
X014827Y029650D01*
X014871Y029694D01*
X014919Y029736D01*
X014968Y029774D01*
X015020Y029809D01*
X015074Y029841D01*
X015130Y029870D01*
X015188Y029895D01*
X015247Y029916D01*
X015307Y029934D01*
X015369Y029947D01*
X015431Y029957D01*
X015493Y029963D01*
X015556Y029965D01*
X015619Y029963D01*
X015681Y029957D01*
X015743Y029947D01*
X015805Y029934D01*
X015865Y029916D01*
X015924Y029895D01*
X015982Y029870D01*
X016038Y029841D01*
X016092Y029809D01*
X016144Y029774D01*
X016193Y029736D01*
X016241Y029694D01*
X016285Y029650D01*
X016327Y029602D01*
X016365Y029553D01*
X016400Y029501D01*
X016432Y029447D01*
X016461Y029391D01*
X016486Y029333D01*
X016507Y029274D01*
X016525Y029214D01*
X016538Y029152D01*
X016548Y029090D01*
X016554Y029028D01*
X016556Y028965D01*
X016554Y028902D01*
X016548Y028840D01*
X016538Y028778D01*
X016525Y028716D01*
X016507Y028656D01*
X016486Y028597D01*
X016461Y028539D01*
X016432Y028483D01*
X016400Y028429D01*
X016365Y028377D01*
X016327Y028328D01*
X016285Y028280D01*
X016241Y028236D01*
X016193Y028194D01*
X016144Y028156D01*
X016092Y028121D01*
X016038Y028089D01*
X015982Y028060D01*
X015924Y028035D01*
X015865Y028014D01*
X015805Y027996D01*
X015743Y027983D01*
X015681Y027973D01*
X015619Y027967D01*
X015556Y027965D01*
X015493Y027967D01*
X015431Y027973D01*
X015369Y027983D01*
X015307Y027996D01*
X015247Y028014D01*
X015188Y028035D01*
X015130Y028060D01*
X015074Y028089D01*
X015020Y028121D01*
X014968Y028156D01*
X014919Y028194D01*
X014871Y028236D01*
X014827Y028280D01*
X014785Y028328D01*
X014747Y028377D01*
X014712Y028429D01*
X014680Y028483D01*
X014651Y028539D01*
X014626Y028597D01*
X014605Y028656D01*
X014587Y028716D01*
X014574Y028778D01*
X014564Y028840D01*
X014558Y028902D01*
X014556Y028965D01*
M02*
