G75*
G70*
%OFA0B0*%
%FSLAX24Y24*%
%IPPOS*%
%LPD*%
%AMOC8*
5,1,8,0,0,1.08239X$1,22.5*
%
%ADD10C,0.2080*%
%ADD11C,0.0081*%
%ADD12C,0.0086*%
%ADD13C,0.0081*%
%ADD14C,0.0680*%
%ADD15C,0.0083*%
%ADD16OC8,0.0680*%
%ADD17C,0.0082*%
%ADD18C,0.0437*%
%ADD19R,0.0476X0.0476*%
%ADD20C,0.0476*%
D10*
X015556Y028965D03*
D11*
X007715Y015247D02*
X007715Y014853D01*
X007715Y015247D02*
X008147Y015247D01*
X008147Y014853D01*
X007715Y014853D01*
X007715Y014933D02*
X008147Y014933D01*
X008147Y015013D02*
X007715Y015013D01*
X007715Y015093D02*
X008147Y015093D01*
X008147Y015173D02*
X007715Y015173D01*
X007715Y014578D02*
X007715Y014184D01*
X007715Y014578D02*
X008147Y014578D01*
X008147Y014184D01*
X007715Y014184D01*
X007715Y014264D02*
X008147Y014264D01*
X008147Y014344D02*
X007715Y014344D01*
X007715Y014424D02*
X008147Y014424D01*
X008147Y014504D02*
X007715Y014504D01*
X007812Y012518D02*
X007380Y012518D01*
X007380Y012912D01*
X007812Y012912D01*
X007812Y012518D01*
X007812Y012598D02*
X007380Y012598D01*
X007380Y012678D02*
X007812Y012678D01*
X007812Y012758D02*
X007380Y012758D01*
X007380Y012838D02*
X007812Y012838D01*
X008049Y012518D02*
X008481Y012518D01*
X008049Y012518D02*
X008049Y012912D01*
X008481Y012912D01*
X008481Y012518D01*
X008481Y012598D02*
X008049Y012598D01*
X008049Y012678D02*
X008481Y012678D01*
X008481Y012758D02*
X008049Y012758D01*
X008049Y012838D02*
X008481Y012838D01*
X007647Y012122D02*
X007647Y011728D01*
X007215Y011728D01*
X007215Y012122D01*
X007647Y012122D01*
X007647Y011808D02*
X007215Y011808D01*
X007215Y011888D02*
X007647Y011888D01*
X007647Y011968D02*
X007215Y011968D01*
X007215Y012048D02*
X007647Y012048D01*
X007647Y011453D02*
X007647Y011059D01*
X007215Y011059D01*
X007215Y011453D01*
X007647Y011453D01*
X007647Y011139D02*
X007215Y011139D01*
X007215Y011219D02*
X007647Y011219D01*
X007647Y011299D02*
X007215Y011299D01*
X007215Y011379D02*
X007647Y011379D01*
X017380Y004018D02*
X017812Y004018D01*
X017380Y004018D02*
X017380Y004412D01*
X017812Y004412D01*
X017812Y004018D01*
X017812Y004098D02*
X017380Y004098D01*
X017380Y004178D02*
X017812Y004178D01*
X017812Y004258D02*
X017380Y004258D01*
X017380Y004338D02*
X017812Y004338D01*
X018049Y004018D02*
X018481Y004018D01*
X018049Y004018D02*
X018049Y004412D01*
X018481Y004412D01*
X018481Y004018D01*
X018481Y004098D02*
X018049Y004098D01*
X018049Y004178D02*
X018481Y004178D01*
X018481Y004258D02*
X018049Y004258D01*
X018049Y004338D02*
X018481Y004338D01*
X020380Y004412D02*
X020812Y004412D01*
X020812Y004018D01*
X020380Y004018D01*
X020380Y004412D01*
X020380Y004098D02*
X020812Y004098D01*
X020812Y004178D02*
X020380Y004178D01*
X020380Y004258D02*
X020812Y004258D01*
X020812Y004338D02*
X020380Y004338D01*
X021049Y004412D02*
X021481Y004412D01*
X021481Y004018D01*
X021049Y004018D01*
X021049Y004412D01*
X021049Y004098D02*
X021481Y004098D01*
X021481Y004178D02*
X021049Y004178D01*
X021049Y004258D02*
X021481Y004258D01*
X021481Y004338D02*
X021049Y004338D01*
X019962Y006999D02*
X019568Y006999D01*
X019568Y007431D01*
X019962Y007431D01*
X019962Y006999D01*
X019962Y007079D02*
X019568Y007079D01*
X019568Y007159D02*
X019962Y007159D01*
X019962Y007239D02*
X019568Y007239D01*
X019568Y007319D02*
X019962Y007319D01*
X019962Y007399D02*
X019568Y007399D01*
X019293Y006999D02*
X018899Y006999D01*
X018899Y007431D01*
X019293Y007431D01*
X019293Y006999D01*
X019293Y007079D02*
X018899Y007079D01*
X018899Y007159D02*
X019293Y007159D01*
X019293Y007239D02*
X018899Y007239D01*
X018899Y007319D02*
X019293Y007319D01*
X019293Y007399D02*
X018899Y007399D01*
X019234Y009162D02*
X019628Y009162D01*
X019628Y008768D01*
X019234Y008768D01*
X019234Y009162D01*
X019234Y008848D02*
X019628Y008848D01*
X019628Y008928D02*
X019234Y008928D01*
X019234Y009008D02*
X019628Y009008D01*
X019628Y009088D02*
X019234Y009088D01*
X019380Y010268D02*
X019812Y010268D01*
X019380Y010268D02*
X019380Y010662D01*
X019812Y010662D01*
X019812Y010268D01*
X019812Y010348D02*
X019380Y010348D01*
X019380Y010428D02*
X019812Y010428D01*
X019812Y010508D02*
X019380Y010508D01*
X019380Y010588D02*
X019812Y010588D01*
X020049Y010268D02*
X020481Y010268D01*
X020049Y010268D02*
X020049Y010662D01*
X020481Y010662D01*
X020481Y010268D01*
X020481Y010348D02*
X020049Y010348D01*
X020049Y010428D02*
X020481Y010428D01*
X020481Y010508D02*
X020049Y010508D01*
X020049Y010588D02*
X020481Y010588D01*
X020715Y010747D02*
X020715Y010353D01*
X020715Y010747D02*
X021147Y010747D01*
X021147Y010353D01*
X020715Y010353D01*
X020715Y010433D02*
X021147Y010433D01*
X021147Y010513D02*
X020715Y010513D01*
X020715Y010593D02*
X021147Y010593D01*
X021147Y010673D02*
X020715Y010673D01*
X020481Y011143D02*
X020049Y011143D01*
X020049Y011537D01*
X020481Y011537D01*
X020481Y011143D01*
X020481Y011223D02*
X020049Y011223D01*
X020049Y011303D02*
X020481Y011303D01*
X020481Y011383D02*
X020049Y011383D01*
X020049Y011463D02*
X020481Y011463D01*
X019812Y011143D02*
X019380Y011143D01*
X019380Y011537D01*
X019812Y011537D01*
X019812Y011143D01*
X019812Y011223D02*
X019380Y011223D01*
X019380Y011303D02*
X019812Y011303D01*
X019812Y011383D02*
X019380Y011383D01*
X019380Y011463D02*
X019812Y011463D01*
X019231Y011037D02*
X018799Y011037D01*
X019231Y011037D02*
X019231Y010643D01*
X018799Y010643D01*
X018799Y011037D01*
X018799Y010723D02*
X019231Y010723D01*
X019231Y010803D02*
X018799Y010803D01*
X018799Y010883D02*
X019231Y010883D01*
X019231Y010963D02*
X018799Y010963D01*
X018562Y011037D02*
X018130Y011037D01*
X018562Y011037D02*
X018562Y010643D01*
X018130Y010643D01*
X018130Y011037D01*
X018130Y010723D02*
X018562Y010723D01*
X018562Y010803D02*
X018130Y010803D01*
X018130Y010883D02*
X018562Y010883D01*
X018562Y010963D02*
X018130Y010963D01*
X020715Y010078D02*
X020715Y009684D01*
X020715Y010078D02*
X021147Y010078D01*
X021147Y009684D01*
X020715Y009684D01*
X020715Y009764D02*
X021147Y009764D01*
X021147Y009844D02*
X020715Y009844D01*
X020715Y009924D02*
X021147Y009924D01*
X021147Y010004D02*
X020715Y010004D01*
X020734Y009516D02*
X020734Y009084D01*
X020734Y009516D02*
X021128Y009516D01*
X021128Y009084D01*
X020734Y009084D01*
X020734Y009164D02*
X021128Y009164D01*
X021128Y009244D02*
X020734Y009244D01*
X020734Y009324D02*
X021128Y009324D01*
X021128Y009404D02*
X020734Y009404D01*
X020734Y009484D02*
X021128Y009484D01*
X021380Y009268D02*
X021812Y009268D01*
X021380Y009268D02*
X021380Y009662D01*
X021812Y009662D01*
X021812Y009268D01*
X021812Y009348D02*
X021380Y009348D01*
X021380Y009428D02*
X021812Y009428D01*
X021812Y009508D02*
X021380Y009508D01*
X021380Y009588D02*
X021812Y009588D01*
X022049Y009268D02*
X022481Y009268D01*
X022049Y009268D02*
X022049Y009662D01*
X022481Y009662D01*
X022481Y009268D01*
X022481Y009348D02*
X022049Y009348D01*
X022049Y009428D02*
X022481Y009428D01*
X022481Y009508D02*
X022049Y009508D01*
X022049Y009588D02*
X022481Y009588D01*
X022630Y009268D02*
X023062Y009268D01*
X022630Y009268D02*
X022630Y009662D01*
X023062Y009662D01*
X023062Y009268D01*
X023062Y009348D02*
X022630Y009348D01*
X022630Y009428D02*
X023062Y009428D01*
X023062Y009508D02*
X022630Y009508D01*
X022630Y009588D02*
X023062Y009588D01*
X023299Y009268D02*
X023731Y009268D01*
X023299Y009268D02*
X023299Y009662D01*
X023731Y009662D01*
X023731Y009268D01*
X023731Y009348D02*
X023299Y009348D01*
X023299Y009428D02*
X023731Y009428D01*
X023731Y009508D02*
X023299Y009508D01*
X023299Y009588D02*
X023731Y009588D01*
X024234Y009641D02*
X024234Y009209D01*
X024234Y009641D02*
X024628Y009641D01*
X024628Y009209D01*
X024234Y009209D01*
X024234Y009289D02*
X024628Y009289D01*
X024628Y009369D02*
X024234Y009369D01*
X024234Y009449D02*
X024628Y009449D01*
X024628Y009529D02*
X024234Y009529D01*
X024234Y009609D02*
X024628Y009609D01*
X024234Y008972D02*
X024234Y008540D01*
X024234Y008972D02*
X024628Y008972D01*
X024628Y008540D01*
X024234Y008540D01*
X024234Y008620D02*
X024628Y008620D01*
X024628Y008700D02*
X024234Y008700D01*
X024234Y008780D02*
X024628Y008780D01*
X024628Y008860D02*
X024234Y008860D01*
X024234Y008940D02*
X024628Y008940D01*
X023481Y008018D02*
X023049Y008018D01*
X023049Y008412D01*
X023481Y008412D01*
X023481Y008018D01*
X023481Y008098D02*
X023049Y008098D01*
X023049Y008178D02*
X023481Y008178D01*
X023481Y008258D02*
X023049Y008258D01*
X023049Y008338D02*
X023481Y008338D01*
X022812Y008018D02*
X022380Y008018D01*
X022380Y008412D01*
X022812Y008412D01*
X022812Y008018D01*
X022812Y008098D02*
X022380Y008098D01*
X022380Y008178D02*
X022812Y008178D01*
X022812Y008258D02*
X022380Y008258D01*
X022380Y008338D02*
X022812Y008338D01*
X021734Y008347D02*
X021734Y007915D01*
X021734Y008347D02*
X022128Y008347D01*
X022128Y007915D01*
X021734Y007915D01*
X021734Y007995D02*
X022128Y007995D01*
X022128Y008075D02*
X021734Y008075D01*
X021734Y008155D02*
X022128Y008155D01*
X022128Y008235D02*
X021734Y008235D01*
X021734Y008315D02*
X022128Y008315D01*
X021734Y008584D02*
X021734Y009016D01*
X022128Y009016D01*
X022128Y008584D01*
X021734Y008584D01*
X021734Y008664D02*
X022128Y008664D01*
X022128Y008744D02*
X021734Y008744D01*
X021734Y008824D02*
X022128Y008824D01*
X022128Y008904D02*
X021734Y008904D01*
X021734Y008984D02*
X022128Y008984D01*
X020734Y008847D02*
X020734Y008415D01*
X020734Y008847D02*
X021128Y008847D01*
X021128Y008415D01*
X020734Y008415D01*
X020734Y008495D02*
X021128Y008495D01*
X021128Y008575D02*
X020734Y008575D01*
X020734Y008655D02*
X021128Y008655D01*
X021128Y008735D02*
X020734Y008735D01*
X020734Y008815D02*
X021128Y008815D01*
X022380Y007143D02*
X022812Y007143D01*
X022380Y007143D02*
X022380Y007537D01*
X022812Y007537D01*
X022812Y007143D01*
X022812Y007223D02*
X022380Y007223D01*
X022380Y007303D02*
X022812Y007303D01*
X022812Y007383D02*
X022380Y007383D01*
X022380Y007463D02*
X022812Y007463D01*
X023049Y007143D02*
X023481Y007143D01*
X023049Y007143D02*
X023049Y007537D01*
X023481Y007537D01*
X023481Y007143D01*
X023481Y007223D02*
X023049Y007223D01*
X023049Y007303D02*
X023481Y007303D01*
X023481Y007383D02*
X023049Y007383D01*
X023049Y007463D02*
X023481Y007463D01*
D12*
X022328Y005368D02*
X020334Y005368D01*
X020334Y006062D01*
X022328Y006062D01*
X022328Y005368D01*
X022328Y005453D02*
X020334Y005453D01*
X020334Y005538D02*
X022328Y005538D01*
X022328Y005623D02*
X020334Y005623D01*
X020334Y005708D02*
X022328Y005708D01*
X022328Y005793D02*
X020334Y005793D01*
X020334Y005878D02*
X022328Y005878D01*
X022328Y005963D02*
X020334Y005963D01*
X020334Y006048D02*
X022328Y006048D01*
X018528Y005368D02*
X016534Y005368D01*
X016534Y006062D01*
X018528Y006062D01*
X018528Y005368D01*
X018528Y005453D02*
X016534Y005453D01*
X016534Y005538D02*
X018528Y005538D01*
X018528Y005623D02*
X016534Y005623D01*
X016534Y005708D02*
X018528Y005708D01*
X018528Y005793D02*
X016534Y005793D01*
X016534Y005878D02*
X018528Y005878D01*
X018528Y005963D02*
X016534Y005963D01*
X016534Y006048D02*
X018528Y006048D01*
D13*
X018978Y008089D02*
X018978Y008345D01*
X019096Y008345D01*
X019096Y008089D01*
X018978Y008089D01*
X018978Y008169D02*
X019096Y008169D01*
X019096Y008249D02*
X018978Y008249D01*
X018978Y008329D02*
X019096Y008329D01*
X019175Y008345D02*
X019175Y008089D01*
X019175Y008345D02*
X019293Y008345D01*
X019293Y008089D01*
X019175Y008089D01*
X019175Y008169D02*
X019293Y008169D01*
X019293Y008249D02*
X019175Y008249D01*
X019175Y008329D02*
X019293Y008329D01*
X019372Y008345D02*
X019372Y008089D01*
X019372Y008345D02*
X019490Y008345D01*
X019490Y008089D01*
X019372Y008089D01*
X019372Y008169D02*
X019490Y008169D01*
X019490Y008249D02*
X019372Y008249D01*
X019372Y008329D02*
X019490Y008329D01*
X019687Y008345D02*
X019687Y008089D01*
X019569Y008089D01*
X019569Y008345D01*
X019687Y008345D01*
X019687Y008169D02*
X019569Y008169D01*
X019569Y008249D02*
X019687Y008249D01*
X019687Y008329D02*
X019569Y008329D01*
X019883Y008345D02*
X019883Y008089D01*
X019765Y008089D01*
X019765Y008345D01*
X019883Y008345D01*
X019883Y008169D02*
X019765Y008169D01*
X019765Y008249D02*
X019883Y008249D01*
X019883Y008329D02*
X019765Y008329D01*
X020051Y008631D02*
X020307Y008631D01*
X020307Y008513D01*
X020051Y008513D01*
X020051Y008631D01*
X020051Y008593D02*
X020307Y008593D01*
X020307Y008828D02*
X020051Y008828D01*
X020307Y008828D02*
X020307Y008710D01*
X020051Y008710D01*
X020051Y008828D01*
X020051Y008790D02*
X020307Y008790D01*
X020307Y008906D02*
X020051Y008906D01*
X020051Y009024D01*
X020307Y009024D01*
X020307Y008906D01*
X020307Y008986D02*
X020051Y008986D01*
X020051Y009103D02*
X020307Y009103D01*
X020051Y009103D02*
X020051Y009221D01*
X020307Y009221D01*
X020307Y009103D01*
X020307Y009183D02*
X020051Y009183D01*
X020051Y009300D02*
X020307Y009300D01*
X020051Y009300D02*
X020051Y009418D01*
X020307Y009418D01*
X020307Y009300D01*
X020307Y009380D02*
X020051Y009380D01*
X019883Y009585D02*
X019883Y009841D01*
X019883Y009585D02*
X019765Y009585D01*
X019765Y009841D01*
X019883Y009841D01*
X019883Y009665D02*
X019765Y009665D01*
X019765Y009745D02*
X019883Y009745D01*
X019883Y009825D02*
X019765Y009825D01*
X019569Y009841D02*
X019569Y009585D01*
X019569Y009841D02*
X019687Y009841D01*
X019687Y009585D01*
X019569Y009585D01*
X019569Y009665D02*
X019687Y009665D01*
X019687Y009745D02*
X019569Y009745D01*
X019569Y009825D02*
X019687Y009825D01*
X019490Y009841D02*
X019490Y009585D01*
X019372Y009585D01*
X019372Y009841D01*
X019490Y009841D01*
X019490Y009665D02*
X019372Y009665D01*
X019372Y009745D02*
X019490Y009745D01*
X019490Y009825D02*
X019372Y009825D01*
X019293Y009841D02*
X019293Y009585D01*
X019175Y009585D01*
X019175Y009841D01*
X019293Y009841D01*
X019293Y009665D02*
X019175Y009665D01*
X019175Y009745D02*
X019293Y009745D01*
X019293Y009825D02*
X019175Y009825D01*
X019096Y009841D02*
X019096Y009585D01*
X018978Y009585D01*
X018978Y009841D01*
X019096Y009841D01*
X019096Y009665D02*
X018978Y009665D01*
X018978Y009745D02*
X019096Y009745D01*
X019096Y009825D02*
X018978Y009825D01*
X018811Y009300D02*
X018555Y009300D01*
X018555Y009418D01*
X018811Y009418D01*
X018811Y009300D01*
X018811Y009380D02*
X018555Y009380D01*
X018555Y009103D02*
X018811Y009103D01*
X018555Y009103D02*
X018555Y009221D01*
X018811Y009221D01*
X018811Y009103D01*
X018811Y009183D02*
X018555Y009183D01*
X018555Y008906D02*
X018811Y008906D01*
X018555Y008906D02*
X018555Y009024D01*
X018811Y009024D01*
X018811Y008906D01*
X018811Y008986D02*
X018555Y008986D01*
X018555Y008710D02*
X018811Y008710D01*
X018555Y008710D02*
X018555Y008828D01*
X018811Y008828D01*
X018811Y008710D01*
X018811Y008790D02*
X018555Y008790D01*
X018555Y008631D02*
X018811Y008631D01*
X018811Y008513D01*
X018555Y008513D01*
X018555Y008631D01*
X018555Y008593D02*
X018811Y008593D01*
X014103Y008601D02*
X014103Y008483D01*
X014103Y008601D02*
X014633Y008601D01*
X014633Y008483D01*
X014103Y008483D01*
X014103Y008563D02*
X014633Y008563D01*
X014103Y008680D02*
X014103Y008798D01*
X014633Y008798D01*
X014633Y008680D01*
X014103Y008680D01*
X014103Y008760D02*
X014633Y008760D01*
X014103Y008877D02*
X014103Y008995D01*
X014633Y008995D01*
X014633Y008877D01*
X014103Y008877D01*
X014103Y008957D02*
X014633Y008957D01*
X014103Y009074D02*
X014103Y009192D01*
X014633Y009192D01*
X014633Y009074D01*
X014103Y009074D01*
X014103Y009154D02*
X014633Y009154D01*
X014103Y009271D02*
X014103Y009389D01*
X014633Y009389D01*
X014633Y009271D01*
X014103Y009271D01*
X014103Y009351D02*
X014633Y009351D01*
X014103Y009467D02*
X014103Y009585D01*
X014633Y009585D01*
X014633Y009467D01*
X014103Y009467D01*
X014103Y009547D02*
X014633Y009547D01*
X014103Y009664D02*
X014103Y009782D01*
X014633Y009782D01*
X014633Y009664D01*
X014103Y009664D01*
X014103Y009744D02*
X014633Y009744D01*
X014103Y009861D02*
X014103Y009979D01*
X014633Y009979D01*
X014633Y009861D01*
X014103Y009861D01*
X014103Y009941D02*
X014633Y009941D01*
X014103Y010058D02*
X014103Y010176D01*
X014633Y010176D01*
X014633Y010058D01*
X014103Y010058D01*
X014103Y010138D02*
X014633Y010138D01*
X014103Y010255D02*
X014103Y010373D01*
X014633Y010373D01*
X014633Y010255D01*
X014103Y010255D01*
X014103Y010335D02*
X014633Y010335D01*
X014103Y010452D02*
X014103Y010570D01*
X014633Y010570D01*
X014633Y010452D01*
X014103Y010452D01*
X014103Y010532D02*
X014633Y010532D01*
X014103Y010649D02*
X014103Y010767D01*
X014633Y010767D01*
X014633Y010649D01*
X014103Y010649D01*
X014103Y010729D02*
X014633Y010729D01*
X014103Y010845D02*
X014103Y010963D01*
X014633Y010963D01*
X014633Y010845D01*
X014103Y010845D01*
X014103Y010925D02*
X014633Y010925D01*
X014103Y011042D02*
X014103Y011160D01*
X014633Y011160D01*
X014633Y011042D01*
X014103Y011042D01*
X014103Y011122D02*
X014633Y011122D01*
X014103Y011239D02*
X014103Y011357D01*
X014633Y011357D01*
X014633Y011239D01*
X014103Y011239D01*
X014103Y011319D02*
X014633Y011319D01*
X014103Y011436D02*
X014103Y011554D01*
X014633Y011554D01*
X014633Y011436D01*
X014103Y011436D01*
X014103Y011516D02*
X014633Y011516D01*
X014103Y011633D02*
X014103Y011751D01*
X014633Y011751D01*
X014633Y011633D01*
X014103Y011633D01*
X014103Y011713D02*
X014633Y011713D01*
X014103Y011830D02*
X014103Y011948D01*
X014633Y011948D01*
X014633Y011830D01*
X014103Y011830D01*
X014103Y011910D02*
X014633Y011910D01*
X014103Y012026D02*
X014103Y012144D01*
X014633Y012144D01*
X014633Y012026D01*
X014103Y012026D01*
X014103Y012106D02*
X014633Y012106D01*
X013610Y012637D02*
X013492Y012637D01*
X013492Y013167D01*
X013610Y013167D01*
X013610Y012637D01*
X013610Y012717D02*
X013492Y012717D01*
X013492Y012797D02*
X013610Y012797D01*
X013610Y012877D02*
X013492Y012877D01*
X013492Y012957D02*
X013610Y012957D01*
X013610Y013037D02*
X013492Y013037D01*
X013492Y013117D02*
X013610Y013117D01*
X013413Y012637D02*
X013295Y012637D01*
X013295Y013167D01*
X013413Y013167D01*
X013413Y012637D01*
X013413Y012717D02*
X013295Y012717D01*
X013295Y012797D02*
X013413Y012797D01*
X013413Y012877D02*
X013295Y012877D01*
X013295Y012957D02*
X013413Y012957D01*
X013413Y013037D02*
X013295Y013037D01*
X013295Y013117D02*
X013413Y013117D01*
X013216Y012637D02*
X013098Y012637D01*
X013098Y013167D01*
X013216Y013167D01*
X013216Y012637D01*
X013216Y012717D02*
X013098Y012717D01*
X013098Y012797D02*
X013216Y012797D01*
X013216Y012877D02*
X013098Y012877D01*
X013098Y012957D02*
X013216Y012957D01*
X013216Y013037D02*
X013098Y013037D01*
X013098Y013117D02*
X013216Y013117D01*
X013019Y012637D02*
X012901Y012637D01*
X012901Y013167D01*
X013019Y013167D01*
X013019Y012637D01*
X013019Y012717D02*
X012901Y012717D01*
X012901Y012797D02*
X013019Y012797D01*
X013019Y012877D02*
X012901Y012877D01*
X012901Y012957D02*
X013019Y012957D01*
X013019Y013037D02*
X012901Y013037D01*
X012901Y013117D02*
X013019Y013117D01*
X012822Y012637D02*
X012704Y012637D01*
X012704Y013167D01*
X012822Y013167D01*
X012822Y012637D01*
X012822Y012717D02*
X012704Y012717D01*
X012704Y012797D02*
X012822Y012797D01*
X012822Y012877D02*
X012704Y012877D01*
X012704Y012957D02*
X012822Y012957D01*
X012822Y013037D02*
X012704Y013037D01*
X012704Y013117D02*
X012822Y013117D01*
X012626Y012637D02*
X012508Y012637D01*
X012508Y013167D01*
X012626Y013167D01*
X012626Y012637D01*
X012626Y012717D02*
X012508Y012717D01*
X012508Y012797D02*
X012626Y012797D01*
X012626Y012877D02*
X012508Y012877D01*
X012508Y012957D02*
X012626Y012957D01*
X012626Y013037D02*
X012508Y013037D01*
X012508Y013117D02*
X012626Y013117D01*
X012429Y012637D02*
X012311Y012637D01*
X012311Y013167D01*
X012429Y013167D01*
X012429Y012637D01*
X012429Y012717D02*
X012311Y012717D01*
X012311Y012797D02*
X012429Y012797D01*
X012429Y012877D02*
X012311Y012877D01*
X012311Y012957D02*
X012429Y012957D01*
X012429Y013037D02*
X012311Y013037D01*
X012311Y013117D02*
X012429Y013117D01*
X012232Y012637D02*
X012114Y012637D01*
X012114Y013167D01*
X012232Y013167D01*
X012232Y012637D01*
X012232Y012717D02*
X012114Y012717D01*
X012114Y012797D02*
X012232Y012797D01*
X012232Y012877D02*
X012114Y012877D01*
X012114Y012957D02*
X012232Y012957D01*
X012232Y013037D02*
X012114Y013037D01*
X012114Y013117D02*
X012232Y013117D01*
X012035Y012637D02*
X011917Y012637D01*
X011917Y013167D01*
X012035Y013167D01*
X012035Y012637D01*
X012035Y012717D02*
X011917Y012717D01*
X011917Y012797D02*
X012035Y012797D01*
X012035Y012877D02*
X011917Y012877D01*
X011917Y012957D02*
X012035Y012957D01*
X012035Y013037D02*
X011917Y013037D01*
X011917Y013117D02*
X012035Y013117D01*
X011838Y012637D02*
X011720Y012637D01*
X011720Y013167D01*
X011838Y013167D01*
X011838Y012637D01*
X011838Y012717D02*
X011720Y012717D01*
X011720Y012797D02*
X011838Y012797D01*
X011838Y012877D02*
X011720Y012877D01*
X011720Y012957D02*
X011838Y012957D01*
X011838Y013037D02*
X011720Y013037D01*
X011720Y013117D02*
X011838Y013117D01*
X011641Y012637D02*
X011523Y012637D01*
X011523Y013167D01*
X011641Y013167D01*
X011641Y012637D01*
X011641Y012717D02*
X011523Y012717D01*
X011523Y012797D02*
X011641Y012797D01*
X011641Y012877D02*
X011523Y012877D01*
X011523Y012957D02*
X011641Y012957D01*
X011641Y013037D02*
X011523Y013037D01*
X011523Y013117D02*
X011641Y013117D01*
X011445Y012637D02*
X011327Y012637D01*
X011327Y013167D01*
X011445Y013167D01*
X011445Y012637D01*
X011445Y012717D02*
X011327Y012717D01*
X011327Y012797D02*
X011445Y012797D01*
X011445Y012877D02*
X011327Y012877D01*
X011327Y012957D02*
X011445Y012957D01*
X011445Y013037D02*
X011327Y013037D01*
X011327Y013117D02*
X011445Y013117D01*
X011248Y012637D02*
X011130Y012637D01*
X011130Y013167D01*
X011248Y013167D01*
X011248Y012637D01*
X011248Y012717D02*
X011130Y012717D01*
X011130Y012797D02*
X011248Y012797D01*
X011248Y012877D02*
X011130Y012877D01*
X011130Y012957D02*
X011248Y012957D01*
X011248Y013037D02*
X011130Y013037D01*
X011130Y013117D02*
X011248Y013117D01*
X011051Y012637D02*
X010933Y012637D01*
X010933Y013167D01*
X011051Y013167D01*
X011051Y012637D01*
X011051Y012717D02*
X010933Y012717D01*
X010933Y012797D02*
X011051Y012797D01*
X011051Y012877D02*
X010933Y012877D01*
X010933Y012957D02*
X011051Y012957D01*
X011051Y013037D02*
X010933Y013037D01*
X010933Y013117D02*
X011051Y013117D01*
X010854Y012637D02*
X010736Y012637D01*
X010736Y013167D01*
X010854Y013167D01*
X010854Y012637D01*
X010854Y012717D02*
X010736Y012717D01*
X010736Y012797D02*
X010854Y012797D01*
X010854Y012877D02*
X010736Y012877D01*
X010736Y012957D02*
X010854Y012957D01*
X010854Y013037D02*
X010736Y013037D01*
X010736Y013117D02*
X010854Y013117D01*
X010657Y012637D02*
X010539Y012637D01*
X010539Y013167D01*
X010657Y013167D01*
X010657Y012637D01*
X010657Y012717D02*
X010539Y012717D01*
X010539Y012797D02*
X010657Y012797D01*
X010657Y012877D02*
X010539Y012877D01*
X010539Y012957D02*
X010657Y012957D01*
X010657Y013037D02*
X010539Y013037D01*
X010539Y013117D02*
X010657Y013117D01*
X010460Y012637D02*
X010342Y012637D01*
X010342Y013167D01*
X010460Y013167D01*
X010460Y012637D01*
X010460Y012717D02*
X010342Y012717D01*
X010342Y012797D02*
X010460Y012797D01*
X010460Y012877D02*
X010342Y012877D01*
X010342Y012957D02*
X010460Y012957D01*
X010460Y013037D02*
X010342Y013037D01*
X010342Y013117D02*
X010460Y013117D01*
X010263Y012637D02*
X010145Y012637D01*
X010145Y013167D01*
X010263Y013167D01*
X010263Y012637D01*
X010263Y012717D02*
X010145Y012717D01*
X010145Y012797D02*
X010263Y012797D01*
X010263Y012877D02*
X010145Y012877D01*
X010145Y012957D02*
X010263Y012957D01*
X010263Y013037D02*
X010145Y013037D01*
X010145Y013117D02*
X010263Y013117D01*
X010067Y012637D02*
X009949Y012637D01*
X009949Y013167D01*
X010067Y013167D01*
X010067Y012637D01*
X010067Y012717D02*
X009949Y012717D01*
X009949Y012797D02*
X010067Y012797D01*
X010067Y012877D02*
X009949Y012877D01*
X009949Y012957D02*
X010067Y012957D01*
X010067Y013037D02*
X009949Y013037D01*
X009949Y013117D02*
X010067Y013117D01*
X009870Y012637D02*
X009752Y012637D01*
X009752Y013167D01*
X009870Y013167D01*
X009870Y012637D01*
X009870Y012717D02*
X009752Y012717D01*
X009752Y012797D02*
X009870Y012797D01*
X009870Y012877D02*
X009752Y012877D01*
X009752Y012957D02*
X009870Y012957D01*
X009870Y013037D02*
X009752Y013037D01*
X009752Y013117D02*
X009870Y013117D01*
X008729Y012144D02*
X008729Y012026D01*
X008729Y012144D02*
X009259Y012144D01*
X009259Y012026D01*
X008729Y012026D01*
X008729Y012106D02*
X009259Y012106D01*
X008729Y011948D02*
X008729Y011830D01*
X008729Y011948D02*
X009259Y011948D01*
X009259Y011830D01*
X008729Y011830D01*
X008729Y011910D02*
X009259Y011910D01*
X008729Y011751D02*
X008729Y011633D01*
X008729Y011751D02*
X009259Y011751D01*
X009259Y011633D01*
X008729Y011633D01*
X008729Y011713D02*
X009259Y011713D01*
X008729Y011554D02*
X008729Y011436D01*
X008729Y011554D02*
X009259Y011554D01*
X009259Y011436D01*
X008729Y011436D01*
X008729Y011516D02*
X009259Y011516D01*
X008729Y011357D02*
X008729Y011239D01*
X008729Y011357D02*
X009259Y011357D01*
X009259Y011239D01*
X008729Y011239D01*
X008729Y011319D02*
X009259Y011319D01*
X008729Y011160D02*
X008729Y011042D01*
X008729Y011160D02*
X009259Y011160D01*
X009259Y011042D01*
X008729Y011042D01*
X008729Y011122D02*
X009259Y011122D01*
X008729Y010963D02*
X008729Y010845D01*
X008729Y010963D02*
X009259Y010963D01*
X009259Y010845D01*
X008729Y010845D01*
X008729Y010925D02*
X009259Y010925D01*
X008729Y010767D02*
X008729Y010649D01*
X008729Y010767D02*
X009259Y010767D01*
X009259Y010649D01*
X008729Y010649D01*
X008729Y010729D02*
X009259Y010729D01*
X008729Y010570D02*
X008729Y010452D01*
X008729Y010570D02*
X009259Y010570D01*
X009259Y010452D01*
X008729Y010452D01*
X008729Y010532D02*
X009259Y010532D01*
X008729Y010373D02*
X008729Y010255D01*
X008729Y010373D02*
X009259Y010373D01*
X009259Y010255D01*
X008729Y010255D01*
X008729Y010335D02*
X009259Y010335D01*
X008729Y010176D02*
X008729Y010058D01*
X008729Y010176D02*
X009259Y010176D01*
X009259Y010058D01*
X008729Y010058D01*
X008729Y010138D02*
X009259Y010138D01*
X008729Y009979D02*
X008729Y009861D01*
X008729Y009979D02*
X009259Y009979D01*
X009259Y009861D01*
X008729Y009861D01*
X008729Y009941D02*
X009259Y009941D01*
X008729Y009782D02*
X008729Y009664D01*
X008729Y009782D02*
X009259Y009782D01*
X009259Y009664D01*
X008729Y009664D01*
X008729Y009744D02*
X009259Y009744D01*
X008729Y009585D02*
X008729Y009467D01*
X008729Y009585D02*
X009259Y009585D01*
X009259Y009467D01*
X008729Y009467D01*
X008729Y009547D02*
X009259Y009547D01*
X008729Y009389D02*
X008729Y009271D01*
X008729Y009389D02*
X009259Y009389D01*
X009259Y009271D01*
X008729Y009271D01*
X008729Y009351D02*
X009259Y009351D01*
X008729Y009192D02*
X008729Y009074D01*
X008729Y009192D02*
X009259Y009192D01*
X009259Y009074D01*
X008729Y009074D01*
X008729Y009154D02*
X009259Y009154D01*
X008729Y008995D02*
X008729Y008877D01*
X008729Y008995D02*
X009259Y008995D01*
X009259Y008877D01*
X008729Y008877D01*
X008729Y008957D02*
X009259Y008957D01*
X008729Y008798D02*
X008729Y008680D01*
X008729Y008798D02*
X009259Y008798D01*
X009259Y008680D01*
X008729Y008680D01*
X008729Y008760D02*
X009259Y008760D01*
X008729Y008601D02*
X008729Y008483D01*
X008729Y008601D02*
X009259Y008601D01*
X009259Y008483D01*
X008729Y008483D01*
X008729Y008563D02*
X009259Y008563D01*
X008729Y008404D02*
X008729Y008286D01*
X008729Y008404D02*
X009259Y008404D01*
X009259Y008286D01*
X008729Y008286D01*
X008729Y008366D02*
X009259Y008366D01*
X009752Y007263D02*
X009870Y007263D01*
X009752Y007263D02*
X009752Y007793D01*
X009870Y007793D01*
X009870Y007263D01*
X009870Y007343D02*
X009752Y007343D01*
X009752Y007423D02*
X009870Y007423D01*
X009870Y007503D02*
X009752Y007503D01*
X009752Y007583D02*
X009870Y007583D01*
X009870Y007663D02*
X009752Y007663D01*
X009752Y007743D02*
X009870Y007743D01*
X009949Y007263D02*
X010067Y007263D01*
X009949Y007263D02*
X009949Y007793D01*
X010067Y007793D01*
X010067Y007263D01*
X010067Y007343D02*
X009949Y007343D01*
X009949Y007423D02*
X010067Y007423D01*
X010067Y007503D02*
X009949Y007503D01*
X009949Y007583D02*
X010067Y007583D01*
X010067Y007663D02*
X009949Y007663D01*
X009949Y007743D02*
X010067Y007743D01*
X010145Y007263D02*
X010263Y007263D01*
X010145Y007263D02*
X010145Y007793D01*
X010263Y007793D01*
X010263Y007263D01*
X010263Y007343D02*
X010145Y007343D01*
X010145Y007423D02*
X010263Y007423D01*
X010263Y007503D02*
X010145Y007503D01*
X010145Y007583D02*
X010263Y007583D01*
X010263Y007663D02*
X010145Y007663D01*
X010145Y007743D02*
X010263Y007743D01*
X010342Y007263D02*
X010460Y007263D01*
X010342Y007263D02*
X010342Y007793D01*
X010460Y007793D01*
X010460Y007263D01*
X010460Y007343D02*
X010342Y007343D01*
X010342Y007423D02*
X010460Y007423D01*
X010460Y007503D02*
X010342Y007503D01*
X010342Y007583D02*
X010460Y007583D01*
X010460Y007663D02*
X010342Y007663D01*
X010342Y007743D02*
X010460Y007743D01*
X010539Y007263D02*
X010657Y007263D01*
X010539Y007263D02*
X010539Y007793D01*
X010657Y007793D01*
X010657Y007263D01*
X010657Y007343D02*
X010539Y007343D01*
X010539Y007423D02*
X010657Y007423D01*
X010657Y007503D02*
X010539Y007503D01*
X010539Y007583D02*
X010657Y007583D01*
X010657Y007663D02*
X010539Y007663D01*
X010539Y007743D02*
X010657Y007743D01*
X010736Y007263D02*
X010854Y007263D01*
X010736Y007263D02*
X010736Y007793D01*
X010854Y007793D01*
X010854Y007263D01*
X010854Y007343D02*
X010736Y007343D01*
X010736Y007423D02*
X010854Y007423D01*
X010854Y007503D02*
X010736Y007503D01*
X010736Y007583D02*
X010854Y007583D01*
X010854Y007663D02*
X010736Y007663D01*
X010736Y007743D02*
X010854Y007743D01*
X010933Y007263D02*
X011051Y007263D01*
X010933Y007263D02*
X010933Y007793D01*
X011051Y007793D01*
X011051Y007263D01*
X011051Y007343D02*
X010933Y007343D01*
X010933Y007423D02*
X011051Y007423D01*
X011051Y007503D02*
X010933Y007503D01*
X010933Y007583D02*
X011051Y007583D01*
X011051Y007663D02*
X010933Y007663D01*
X010933Y007743D02*
X011051Y007743D01*
X011130Y007263D02*
X011248Y007263D01*
X011130Y007263D02*
X011130Y007793D01*
X011248Y007793D01*
X011248Y007263D01*
X011248Y007343D02*
X011130Y007343D01*
X011130Y007423D02*
X011248Y007423D01*
X011248Y007503D02*
X011130Y007503D01*
X011130Y007583D02*
X011248Y007583D01*
X011248Y007663D02*
X011130Y007663D01*
X011130Y007743D02*
X011248Y007743D01*
X011327Y007263D02*
X011445Y007263D01*
X011327Y007263D02*
X011327Y007793D01*
X011445Y007793D01*
X011445Y007263D01*
X011445Y007343D02*
X011327Y007343D01*
X011327Y007423D02*
X011445Y007423D01*
X011445Y007503D02*
X011327Y007503D01*
X011327Y007583D02*
X011445Y007583D01*
X011445Y007663D02*
X011327Y007663D01*
X011327Y007743D02*
X011445Y007743D01*
X011523Y007263D02*
X011641Y007263D01*
X011523Y007263D02*
X011523Y007793D01*
X011641Y007793D01*
X011641Y007263D01*
X011641Y007343D02*
X011523Y007343D01*
X011523Y007423D02*
X011641Y007423D01*
X011641Y007503D02*
X011523Y007503D01*
X011523Y007583D02*
X011641Y007583D01*
X011641Y007663D02*
X011523Y007663D01*
X011523Y007743D02*
X011641Y007743D01*
X011720Y007263D02*
X011838Y007263D01*
X011720Y007263D02*
X011720Y007793D01*
X011838Y007793D01*
X011838Y007263D01*
X011838Y007343D02*
X011720Y007343D01*
X011720Y007423D02*
X011838Y007423D01*
X011838Y007503D02*
X011720Y007503D01*
X011720Y007583D02*
X011838Y007583D01*
X011838Y007663D02*
X011720Y007663D01*
X011720Y007743D02*
X011838Y007743D01*
X011917Y007263D02*
X012035Y007263D01*
X011917Y007263D02*
X011917Y007793D01*
X012035Y007793D01*
X012035Y007263D01*
X012035Y007343D02*
X011917Y007343D01*
X011917Y007423D02*
X012035Y007423D01*
X012035Y007503D02*
X011917Y007503D01*
X011917Y007583D02*
X012035Y007583D01*
X012035Y007663D02*
X011917Y007663D01*
X011917Y007743D02*
X012035Y007743D01*
X012114Y007263D02*
X012232Y007263D01*
X012114Y007263D02*
X012114Y007793D01*
X012232Y007793D01*
X012232Y007263D01*
X012232Y007343D02*
X012114Y007343D01*
X012114Y007423D02*
X012232Y007423D01*
X012232Y007503D02*
X012114Y007503D01*
X012114Y007583D02*
X012232Y007583D01*
X012232Y007663D02*
X012114Y007663D01*
X012114Y007743D02*
X012232Y007743D01*
X012311Y007263D02*
X012429Y007263D01*
X012311Y007263D02*
X012311Y007793D01*
X012429Y007793D01*
X012429Y007263D01*
X012429Y007343D02*
X012311Y007343D01*
X012311Y007423D02*
X012429Y007423D01*
X012429Y007503D02*
X012311Y007503D01*
X012311Y007583D02*
X012429Y007583D01*
X012429Y007663D02*
X012311Y007663D01*
X012311Y007743D02*
X012429Y007743D01*
X012508Y007263D02*
X012626Y007263D01*
X012508Y007263D02*
X012508Y007793D01*
X012626Y007793D01*
X012626Y007263D01*
X012626Y007343D02*
X012508Y007343D01*
X012508Y007423D02*
X012626Y007423D01*
X012626Y007503D02*
X012508Y007503D01*
X012508Y007583D02*
X012626Y007583D01*
X012626Y007663D02*
X012508Y007663D01*
X012508Y007743D02*
X012626Y007743D01*
X012704Y007263D02*
X012822Y007263D01*
X012704Y007263D02*
X012704Y007793D01*
X012822Y007793D01*
X012822Y007263D01*
X012822Y007343D02*
X012704Y007343D01*
X012704Y007423D02*
X012822Y007423D01*
X012822Y007503D02*
X012704Y007503D01*
X012704Y007583D02*
X012822Y007583D01*
X012822Y007663D02*
X012704Y007663D01*
X012704Y007743D02*
X012822Y007743D01*
X012901Y007263D02*
X013019Y007263D01*
X012901Y007263D02*
X012901Y007793D01*
X013019Y007793D01*
X013019Y007263D01*
X013019Y007343D02*
X012901Y007343D01*
X012901Y007423D02*
X013019Y007423D01*
X013019Y007503D02*
X012901Y007503D01*
X012901Y007583D02*
X013019Y007583D01*
X013019Y007663D02*
X012901Y007663D01*
X012901Y007743D02*
X013019Y007743D01*
X013098Y007263D02*
X013216Y007263D01*
X013098Y007263D02*
X013098Y007793D01*
X013216Y007793D01*
X013216Y007263D01*
X013216Y007343D02*
X013098Y007343D01*
X013098Y007423D02*
X013216Y007423D01*
X013216Y007503D02*
X013098Y007503D01*
X013098Y007583D02*
X013216Y007583D01*
X013216Y007663D02*
X013098Y007663D01*
X013098Y007743D02*
X013216Y007743D01*
X013295Y007263D02*
X013413Y007263D01*
X013295Y007263D02*
X013295Y007793D01*
X013413Y007793D01*
X013413Y007263D01*
X013413Y007343D02*
X013295Y007343D01*
X013295Y007423D02*
X013413Y007423D01*
X013413Y007503D02*
X013295Y007503D01*
X013295Y007583D02*
X013413Y007583D01*
X013413Y007663D02*
X013295Y007663D01*
X013295Y007743D02*
X013413Y007743D01*
X013492Y007263D02*
X013610Y007263D01*
X013492Y007263D02*
X013492Y007793D01*
X013610Y007793D01*
X013610Y007263D01*
X013610Y007343D02*
X013492Y007343D01*
X013492Y007423D02*
X013610Y007423D01*
X013610Y007503D02*
X013492Y007503D01*
X013492Y007583D02*
X013610Y007583D01*
X013610Y007663D02*
X013492Y007663D01*
X013492Y007743D02*
X013610Y007743D01*
X014103Y008286D02*
X014103Y008404D01*
X014633Y008404D01*
X014633Y008286D01*
X014103Y008286D01*
X014103Y008366D02*
X014633Y008366D01*
D14*
X016506Y008840D02*
X017106Y008840D01*
X017106Y007840D02*
X016506Y007840D01*
X016506Y009840D02*
X017106Y009840D01*
X017106Y010840D02*
X016506Y010840D01*
X016506Y011840D02*
X017106Y011840D01*
X017106Y012840D02*
X016506Y012840D01*
X016506Y013840D02*
X017106Y013840D01*
X017181Y014915D02*
X017181Y015515D01*
X018181Y015515D02*
X018181Y014915D01*
X019181Y014915D02*
X019181Y015515D01*
X020181Y015515D02*
X020181Y014915D01*
X021181Y014915D02*
X021181Y015515D01*
X022181Y015515D02*
X022181Y014915D01*
X015556Y004390D02*
X015556Y003790D01*
X014556Y003790D02*
X014556Y004390D01*
X013556Y004390D02*
X013556Y003790D01*
X012556Y003790D02*
X012556Y004390D01*
X011556Y004390D02*
X011556Y003790D01*
X010556Y003790D02*
X010556Y004390D01*
X009556Y004390D02*
X009556Y003790D01*
X008556Y003790D02*
X008556Y004390D01*
D15*
X007570Y008434D02*
X007570Y008746D01*
X007882Y008746D01*
X007882Y008434D01*
X007570Y008434D01*
X007570Y008516D02*
X007882Y008516D01*
X007882Y008598D02*
X007570Y008598D01*
X007570Y008680D02*
X007882Y008680D01*
X006980Y008746D02*
X006980Y008434D01*
X006980Y008746D02*
X007292Y008746D01*
X007292Y008434D01*
X006980Y008434D01*
X006980Y008516D02*
X007292Y008516D01*
X007292Y008598D02*
X006980Y008598D01*
X006980Y008680D02*
X007292Y008680D01*
X006980Y009434D02*
X006980Y009746D01*
X007292Y009746D01*
X007292Y009434D01*
X006980Y009434D01*
X006980Y009516D02*
X007292Y009516D01*
X007292Y009598D02*
X006980Y009598D01*
X006980Y009680D02*
X007292Y009680D01*
X007570Y009746D02*
X007570Y009434D01*
X007570Y009746D02*
X007882Y009746D01*
X007882Y009434D01*
X007570Y009434D01*
X007570Y009516D02*
X007882Y009516D01*
X007882Y009598D02*
X007570Y009598D01*
X007570Y009680D02*
X007882Y009680D01*
X007570Y010434D02*
X007570Y010746D01*
X007882Y010746D01*
X007882Y010434D01*
X007570Y010434D01*
X007570Y010516D02*
X007882Y010516D01*
X007882Y010598D02*
X007570Y010598D01*
X007570Y010680D02*
X007882Y010680D01*
X006980Y010746D02*
X006980Y010434D01*
X006980Y010746D02*
X007292Y010746D01*
X007292Y010434D01*
X006980Y010434D01*
X006980Y010516D02*
X007292Y010516D01*
X007292Y010598D02*
X006980Y010598D01*
X006980Y010680D02*
X007292Y010680D01*
D16*
X009056Y014340D03*
X010056Y014340D03*
X011056Y014340D03*
X012056Y014340D03*
X013056Y014340D03*
X014056Y014340D03*
X015056Y014340D03*
X015056Y015340D03*
X014056Y015340D03*
X013056Y015340D03*
X012056Y015340D03*
X011056Y015340D03*
X010056Y015340D03*
X009056Y015340D03*
D17*
X024680Y010714D02*
X024680Y010216D01*
X024432Y010216D01*
X024432Y010714D01*
X024680Y010714D01*
X024680Y010297D02*
X024432Y010297D01*
X024432Y010378D02*
X024680Y010378D01*
X024680Y010459D02*
X024432Y010459D01*
X024432Y010540D02*
X024680Y010540D01*
X024680Y010621D02*
X024432Y010621D01*
X024432Y010702D02*
X024680Y010702D01*
D18*
X005139Y007615D03*
X007431Y007215D03*
X008806Y007215D03*
X010056Y008340D03*
X010181Y009715D03*
X010681Y011090D03*
X010681Y012085D03*
X012806Y011465D03*
X013181Y011090D03*
X013556Y011465D03*
X015056Y011465D03*
X015556Y008715D03*
X014556Y007590D03*
X013181Y006590D03*
X012931Y008840D03*
X017056Y004965D03*
X018056Y004965D03*
X019431Y004965D03*
X019431Y005715D03*
X019431Y006590D03*
X018306Y007215D03*
X017556Y006465D03*
X018056Y008215D03*
X019431Y008965D03*
X018681Y010090D03*
X018931Y011465D03*
X018306Y011465D03*
X020806Y011090D03*
X021681Y010090D03*
X022556Y010215D03*
X022556Y008840D03*
X021931Y007465D03*
X021181Y007715D03*
X020681Y007090D03*
X020306Y007715D03*
X021306Y006465D03*
X022806Y006465D03*
X023931Y007715D03*
X024431Y007090D03*
X025181Y007840D03*
X025556Y009215D03*
X021681Y004965D03*
X020806Y004965D03*
X022306Y004215D03*
X020931Y003340D03*
X017681Y003340D03*
X014931Y003090D03*
X008306Y013465D03*
X005872Y014990D03*
X007056Y015965D03*
X009806Y016840D03*
X012181Y016965D03*
X014681Y016840D03*
X002447Y015715D03*
D19*
X015931Y015215D03*
X021681Y016965D03*
D20*
X019679Y019638D03*
X016681Y016340D03*
X014431Y013715D03*
X013306Y009465D03*
X010056Y006215D03*
X011280Y018072D03*
X028978Y016239D03*
M02*
