%
M48
M72
T01C0.0197
T02C0.0236
T03C0.0400
T04C0.2000
%
T01
X5139Y7615
X7431Y7215
X8806Y7215
X10056Y8340
X10181Y9715
X10681Y11090
X10681Y12085
X12806Y11465
X13181Y11090
X13556Y11465
X15056Y11465
X15556Y8715
X14556Y7590
X13181Y6590
X12931Y8840
X17056Y4965
X18056Y4965
X19431Y4965
X19431Y5715
X19431Y6590
X18306Y7215
X17556Y6465
X18056Y8215
X19431Y8965
X18681Y10090
X18931Y11465
X18306Y11465
X20806Y11090
X21681Y10090
X22556Y10215
X22556Y8840
X21931Y7465
X21181Y7715
X20681Y7090
X20306Y7715
X21306Y6465
X22806Y6465
X23931Y7715
X24431Y7090
X25181Y7840
X25556Y9215
X21681Y4965
X20806Y4965
X22306Y4215
X20931Y3340
X17681Y3340
X14931Y3090
X8306Y13465
X5872Y14990
X7056Y15965
X9806Y16840
X12181Y16965
X14681Y16840
X2447Y15715
T02
X11280Y18072
X14431Y13715
X15931Y15215
X16681Y16340
X19679Y19638
X21681Y16965
X28978Y16239
X13306Y9465
X10056Y6215
T03
X10556Y4090
X11556Y4090
X12556Y4090
X13556Y4090
X14556Y4090
X15556Y4090
X16806Y7840
X16806Y8840
X16806Y9840
X16806Y10840
X16806Y11840
X16806Y12840
X16806Y13840
X17181Y15215
X18181Y15215
X19181Y15215
X20181Y15215
X21181Y15215
X22181Y15215
X15056Y15340
X15056Y14340
X14056Y14340
X13056Y14340
X12056Y14340
X11056Y14340
X10056Y14340
X9056Y14340
X9056Y15340
X10056Y15340
X11056Y15340
X12056Y15340
X13056Y15340
X14056Y15340
X9556Y4090
X8556Y4090
T04
X15556Y28965
M30
