G75*
G70*
%OFA0B0*%
%FSLAX24Y24*%
%IPPOS*%
%LPD*%
%AMOC8*
5,1,8,0,0,1.08239X$1,22.5*
%
%ADD10C,0.0060*%
%ADD11C,0.0090*%
%ADD12C,0.0100*%
%ADD13C,0.0000*%
%ADD14R,0.0233X0.0033*%
%ADD15R,0.0467X0.0033*%
%ADD16R,0.0167X0.0033*%
%ADD17R,0.0467X0.0033*%
%ADD18R,0.0167X0.0033*%
%ADD19R,0.0333X0.0033*%
%ADD20R,0.0367X0.0033*%
%ADD21R,0.0333X0.0033*%
%ADD22R,0.0400X0.0033*%
%ADD23R,0.0467X0.0033*%
%ADD24R,0.0167X0.0033*%
%ADD25R,0.0467X0.0033*%
%ADD26R,0.0167X0.0033*%
%ADD27R,0.0433X0.0033*%
%ADD28R,0.0133X0.0033*%
%ADD29R,0.0133X0.0033*%
%ADD30R,0.0233X0.0033*%
%ADD31R,0.0433X0.0033*%
%ADD32R,0.0367X0.0033*%
%ADD33R,0.0433X0.0033*%
%ADD34R,0.0133X0.0033*%
%ADD35R,0.0133X0.0033*%
%ADD36R,0.0267X0.0033*%
%ADD37R,0.0433X0.0033*%
%ADD38R,0.0267X0.0033*%
%ADD39R,0.0400X0.0033*%
%ADD40R,0.0233X0.0033*%
%ADD41R,0.0600X0.0033*%
%ADD42R,0.0700X0.0033*%
%ADD43R,0.0800X0.0033*%
%ADD44R,0.0867X0.0033*%
%ADD45R,0.0933X0.0033*%
%ADD46R,0.1000X0.0033*%
%ADD47R,0.1033X0.0033*%
%ADD48R,0.1100X0.0033*%
%ADD49R,0.0367X0.0033*%
%ADD50R,0.0333X0.0033*%
%ADD51R,0.0367X0.0033*%
%ADD52R,0.0533X0.0033*%
%ADD53R,0.0500X0.0033*%
%ADD54R,0.1133X0.0033*%
%ADD55R,0.1167X0.0033*%
%ADD56R,0.1133X0.0033*%
%ADD57R,0.1133X0.0033*%
%ADD58R,0.0200X0.0033*%
%ADD59R,0.0900X0.0033*%
%ADD60R,0.0867X0.0033*%
%ADD61R,0.0767X0.0033*%
%ADD62R,0.1567X0.0033*%
%ADD63R,0.2200X0.0033*%
%ADD64R,0.2400X0.0033*%
%ADD65R,0.2633X0.0033*%
%ADD66R,0.2833X0.0033*%
%ADD67R,0.2967X0.0033*%
%ADD68R,0.0300X0.0033*%
%ADD69R,0.3200X0.0033*%
%ADD70R,0.3333X0.0033*%
%ADD71R,0.0200X0.0033*%
%ADD72R,0.3667X0.0033*%
%ADD73R,0.3733X0.0033*%
%ADD74R,0.1333X0.0033*%
%ADD75R,0.0267X0.0033*%
%ADD76R,0.0100X0.0033*%
%ADD77R,0.0333X0.0033*%
%ADD78R,0.0833X0.0033*%
%ADD79R,0.0767X0.0033*%
%ADD80R,0.0100X0.0033*%
%ADD81R,0.0767X0.0033*%
%ADD82R,0.0800X0.0033*%
%ADD83R,0.0733X0.0033*%
%ADD84R,0.0700X0.0033*%
%ADD85R,0.0300X0.0033*%
%ADD86R,0.0267X0.0033*%
%ADD87R,0.0533X0.0033*%
%ADD88R,0.0733X0.0033*%
%ADD89R,0.0567X0.0033*%
%ADD90R,0.0667X0.0033*%
%ADD91R,0.0933X0.0033*%
%ADD92R,0.0967X0.0033*%
%ADD93R,0.1233X0.0033*%
%ADD94R,0.1100X0.0033*%
%ADD95R,0.1200X0.0033*%
%ADD96R,0.1033X0.0033*%
%ADD97R,0.1067X0.0033*%
%ADD98R,0.1067X0.0033*%
%ADD99R,0.3633X0.0033*%
%ADD100R,0.0533X0.0033*%
%ADD101R,0.3567X0.0033*%
%ADD102R,0.3267X0.0033*%
%ADD103R,0.2933X0.0033*%
%ADD104R,0.0600X0.0033*%
%ADD105R,0.2567X0.0033*%
%ADD106R,0.2333X0.0033*%
%ADD107R,0.2000X0.0033*%
%ADD108R,0.0633X0.0033*%
%ADD109R,0.0967X0.0033*%
%ADD110R,0.0833X0.0033*%
%ADD111R,0.0900X0.0033*%
%ADD112R,0.1167X0.0033*%
%ADD113R,0.1433X0.0033*%
%ADD114R,0.1233X0.0033*%
%ADD115R,0.1733X0.0033*%
%ADD116R,0.1267X0.0033*%
%ADD117R,0.2000X0.0033*%
%ADD118R,0.1300X0.0033*%
%ADD119R,0.1633X0.0033*%
%ADD120R,0.1367X0.0033*%
%ADD121R,0.1300X0.0033*%
%ADD122R,0.0567X0.0033*%
%ADD123R,0.0500X0.0033*%
%ADD124R,0.1333X0.0033*%
%ADD125R,0.1333X0.0033*%
%ADD126R,0.0567X0.0033*%
%ADD127R,0.2133X0.0033*%
%ADD128R,0.1900X0.0033*%
%ADD129R,0.1667X0.0033*%
%ADD130R,0.0567X0.0033*%
%ADD131R,0.1467X0.0033*%
%ADD132R,0.0633X0.0033*%
%ADD133R,0.0233X0.0033*%
%ADD134R,0.1033X0.0033*%
%ADD135R,0.0533X0.0033*%
%ADD136R,0.1233X0.0033*%
%ADD137R,0.1200X0.0033*%
%ADD138R,0.0633X0.0033*%
%ADD139R,0.1167X0.0033*%
%ADD140R,0.1033X0.0033*%
%ADD141R,0.1467X0.0033*%
%ADD142R,0.1367X0.0033*%
%ADD143R,0.1767X0.0033*%
%ADD144R,0.1967X0.0033*%
%ADD145R,0.1900X0.0033*%
%ADD146R,0.0867X0.0033*%
%ADD147R,0.0667X0.0033*%
%ADD148R,0.1000X0.0033*%
%ADD149R,0.0733X0.0033*%
%ADD150R,0.0067X0.0033*%
%ADD151R,0.0033X0.0033*%
%ADD152R,0.0067X0.0033*%
%ADD153R,0.0967X0.0033*%
%ADD154R,0.0067X0.0033*%
%ADD155R,0.1067X0.0033*%
%ADD156R,0.0033X0.0033*%
%ADD157R,0.1167X0.0033*%
%ADD158R,0.0067X0.0033*%
%ADD159R,0.0033X0.0033*%
%ADD160R,0.0033X0.0033*%
%ADD161R,0.1867X0.0033*%
%ADD162R,0.3033X0.0033*%
%ADD163R,0.2933X0.0033*%
%ADD164R,0.1233X0.0033*%
%ADD165R,0.2833X0.0033*%
%ADD166R,0.2767X0.0033*%
%ADD167R,0.1067X0.0033*%
%ADD168R,0.0633X0.0033*%
%ADD169R,0.1367X0.0033*%
%ADD170R,0.1400X0.0033*%
%ADD171R,0.1433X0.0033*%
%ADD172R,0.1767X0.0033*%
%ADD173R,0.0833X0.0033*%
%ADD174R,0.1700X0.0033*%
%ADD175R,0.1667X0.0033*%
%ADD176R,0.0933X0.0033*%
%ADD177R,0.1567X0.0033*%
%ADD178R,0.1533X0.0033*%
%ADD179R,0.1500X0.0033*%
%ADD180R,0.1467X0.0033*%
%ADD181R,0.1433X0.0033*%
%ADD182R,0.0933X0.0033*%
%ADD183R,0.0967X0.0033*%
%ADD184R,0.1267X0.0033*%
%ADD185R,0.0867X0.0033*%
%ADD186R,0.0733X0.0033*%
%ADD187R,0.1267X0.0033*%
%ADD188R,0.0833X0.0033*%
%ADD189R,0.3033X0.0033*%
%ADD190R,0.3033X0.0033*%
%ADD191R,0.2767X0.0033*%
%ADD192R,0.1500X0.0033*%
%ADD193R,0.0767X0.0033*%
%ADD194R,0.0667X0.0033*%
%ADD195R,0.1400X0.0033*%
%ADD196R,0.1467X0.0033*%
%ADD197R,0.1533X0.0033*%
%ADD198R,0.1600X0.0033*%
%ADD199R,0.1733X0.0033*%
%ADD200R,0.1767X0.0033*%
%ADD201R,0.1367X0.0033*%
%ADD202R,0.2200X0.0033*%
%ADD203R,0.1633X0.0033*%
%ADD204R,0.1800X0.0033*%
%ADD205R,0.2067X0.0033*%
%ADD206R,0.2267X0.0033*%
%ADD207R,0.2267X0.0033*%
%ADD208R,0.2400X0.0033*%
%ADD209R,0.2467X0.0033*%
%ADD210R,0.2533X0.0033*%
%ADD211R,0.2533X0.0033*%
%ADD212R,0.2600X0.0033*%
%ADD213R,0.2600X0.0033*%
%ADD214R,0.2667X0.0033*%
%ADD215R,0.1933X0.0033*%
%ADD216R,0.2067X0.0033*%
%ADD217R,0.2267X0.0033*%
%ADD218R,0.2300X0.0033*%
%ADD219R,0.2367X0.0033*%
%ADD220R,0.2433X0.0033*%
%ADD221R,0.2433X0.0033*%
%ADD222R,0.2467X0.0033*%
%ADD223R,0.2667X0.0033*%
%ADD224R,0.2500X0.0033*%
%ADD225R,0.2100X0.0033*%
%ADD226R,0.2500X0.0033*%
%ADD227R,0.2100X0.0033*%
%ADD228R,0.2167X0.0033*%
%ADD229R,0.2167X0.0033*%
%ADD230R,0.2633X0.0033*%
%ADD231R,0.2567X0.0033*%
%ADD232R,0.2367X0.0033*%
%ADD233R,0.2300X0.0033*%
%ADD234R,0.2233X0.0033*%
%ADD235R,0.2167X0.0033*%
%ADD236R,0.1967X0.0033*%
%ADD237R,0.2133X0.0033*%
%ADD238C,0.0020*%
%ADD239C,0.0010*%
%ADD240C,0.0050*%
%ADD241C,0.0080*%
%ADD242R,0.0110X0.0413*%
%ADD243R,0.0413X0.0110*%
%ADD244R,0.0098X0.0098*%
D10*
X008056Y003840D02*
X008306Y003590D01*
X008806Y003590D01*
X009056Y003840D01*
X009306Y003590D01*
X009806Y003590D01*
X010056Y003840D01*
X010306Y003590D01*
X010806Y003590D01*
X011056Y003840D01*
X011306Y003590D01*
X011806Y003590D01*
X012056Y003840D01*
X012306Y003590D01*
X012806Y003590D01*
X013056Y003840D01*
X013306Y003590D01*
X013806Y003590D01*
X014056Y003840D01*
X014306Y003590D01*
X014806Y003590D01*
X015056Y003840D01*
X015306Y003590D01*
X015806Y003590D01*
X016056Y003840D01*
X016056Y004340D01*
X015806Y004590D01*
X015306Y004590D01*
X015056Y004340D01*
X014806Y004590D01*
X014306Y004590D01*
X014056Y004340D01*
X013806Y004590D01*
X013306Y004590D01*
X013056Y004340D01*
X012806Y004590D01*
X012306Y004590D01*
X012056Y004340D01*
X011806Y004590D01*
X011306Y004590D01*
X011056Y004340D01*
X010806Y004590D01*
X010306Y004590D01*
X010056Y004340D01*
X009806Y004590D01*
X009306Y004590D01*
X009056Y004340D01*
X008806Y004590D01*
X008306Y004590D01*
X008056Y004340D01*
X008056Y003840D01*
X016306Y007590D02*
X016556Y007340D01*
X017056Y007340D01*
X017306Y007590D01*
X017306Y008090D01*
X017056Y008340D01*
X017306Y008590D01*
X017306Y009090D01*
X017056Y009340D01*
X017306Y009590D01*
X017306Y010090D01*
X017056Y010340D01*
X017306Y010590D01*
X017306Y011090D01*
X017056Y011340D01*
X017306Y011590D01*
X017306Y012090D01*
X017056Y012340D01*
X017306Y012590D01*
X017306Y013090D01*
X017056Y013340D01*
X017306Y013590D01*
X017306Y014090D01*
X017056Y014340D01*
X016556Y014340D01*
X016306Y014090D01*
X016306Y013590D01*
X016556Y013340D01*
X016306Y013090D01*
X016306Y012590D01*
X016556Y012340D01*
X016306Y012090D01*
X016306Y011590D01*
X016556Y011340D01*
X016306Y011090D01*
X016306Y010590D01*
X016556Y010340D01*
X016306Y010090D01*
X016306Y009590D01*
X016556Y009340D01*
X016306Y009090D01*
X016306Y008590D01*
X016556Y008340D01*
X016306Y008090D01*
X016306Y007590D01*
X017281Y006665D02*
X021581Y006665D01*
X021598Y006663D01*
X021615Y006659D01*
X021631Y006652D01*
X021645Y006642D01*
X021658Y006629D01*
X021668Y006615D01*
X021675Y006599D01*
X021679Y006582D01*
X021681Y006565D01*
X021681Y006165D01*
X021681Y005265D02*
X021681Y004865D01*
X021679Y004848D01*
X021675Y004831D01*
X021668Y004815D01*
X021658Y004801D01*
X021645Y004788D01*
X021631Y004778D01*
X021615Y004771D01*
X021598Y004767D01*
X021581Y004765D01*
X017281Y004765D01*
X017264Y004767D01*
X017247Y004771D01*
X017231Y004778D01*
X017217Y004788D01*
X017204Y004801D01*
X017194Y004815D01*
X017187Y004831D01*
X017183Y004848D01*
X017181Y004865D01*
X017181Y005265D01*
X017181Y006165D02*
X017181Y006565D01*
X017183Y006582D01*
X017187Y006599D01*
X017194Y006615D01*
X017204Y006629D01*
X017217Y006642D01*
X017231Y006652D01*
X017247Y006659D01*
X017264Y006663D01*
X017281Y006665D01*
X019181Y005965D02*
X019181Y005715D01*
X019181Y005465D01*
X019331Y005465D02*
X019531Y005465D01*
X019531Y005965D01*
X019331Y005965D01*
X019331Y005465D01*
X019681Y005465D02*
X019681Y005715D01*
X019681Y005965D01*
X026049Y011745D02*
X026049Y012386D01*
X025836Y012386D02*
X026263Y012386D01*
X026480Y012386D02*
X026694Y012172D01*
X026907Y012386D01*
X026907Y011745D01*
X027125Y011852D02*
X027232Y011745D01*
X027445Y011745D01*
X027552Y011852D01*
X027552Y012066D01*
X027338Y012066D01*
X027125Y012279D02*
X027125Y011852D01*
X027125Y012279D02*
X027232Y012386D01*
X027445Y012386D01*
X027552Y012279D01*
X026480Y012386D02*
X026480Y011745D01*
X022681Y014965D02*
X022431Y014715D01*
X021931Y014715D01*
X021681Y014965D01*
X021431Y014715D01*
X020931Y014715D01*
X020681Y014965D01*
X020431Y014715D01*
X019931Y014715D01*
X019681Y014965D01*
X019431Y014715D01*
X018931Y014715D01*
X018681Y014965D01*
X018431Y014715D01*
X017931Y014715D01*
X017681Y014965D01*
X017431Y014715D01*
X016931Y014715D01*
X016681Y014965D01*
X016681Y015465D01*
X016931Y015715D01*
X017431Y015715D01*
X017681Y015465D01*
X017931Y015715D01*
X018431Y015715D01*
X018681Y015465D01*
X018931Y015715D01*
X019431Y015715D01*
X019681Y015465D01*
X019931Y015715D01*
X020431Y015715D01*
X020681Y015465D01*
X020931Y015715D01*
X021431Y015715D01*
X021681Y015465D01*
X021931Y015715D01*
X022431Y015715D01*
X022681Y015465D01*
X022681Y014965D01*
X015556Y015590D02*
X015556Y014090D01*
X015306Y013840D01*
X014806Y013840D01*
X014556Y014090D01*
X014306Y013840D01*
X013806Y013840D01*
X013556Y014090D01*
X013306Y013840D01*
X012806Y013840D01*
X012556Y014090D01*
X012306Y013840D01*
X011806Y013840D01*
X011556Y014090D01*
X011306Y013840D01*
X010806Y013840D01*
X010556Y014090D01*
X010306Y013840D01*
X009806Y013840D01*
X009556Y014090D01*
X009306Y013840D01*
X008806Y013840D01*
X008556Y014090D01*
X008556Y015590D01*
X008806Y015840D01*
X009306Y015840D01*
X009556Y015590D01*
X009806Y015840D01*
X010306Y015840D01*
X010556Y015590D01*
X010806Y015840D01*
X011306Y015840D01*
X011556Y015590D01*
X011806Y015840D01*
X012306Y015840D01*
X012556Y015590D01*
X012806Y015840D01*
X013306Y015840D01*
X013556Y015590D01*
X013806Y015840D01*
X014306Y015840D01*
X014556Y015590D01*
X014806Y015840D01*
X015306Y015840D01*
X015556Y015590D01*
D11*
X025851Y013906D02*
X025851Y013135D01*
X026365Y013135D02*
X026365Y013906D01*
X026643Y013906D02*
X026643Y013135D01*
X026365Y013135D02*
X025851Y013906D01*
X026643Y013521D02*
X027156Y013521D01*
X027434Y013521D02*
X027820Y013521D01*
X027948Y013392D01*
X027948Y013264D01*
X027820Y013135D01*
X027434Y013135D01*
X027434Y013906D01*
X027820Y013906D01*
X027948Y013778D01*
X027948Y013649D01*
X027820Y013521D01*
X028226Y013649D02*
X028483Y013906D01*
X028483Y013135D01*
X028226Y013135D02*
X028740Y013135D01*
X029018Y013135D02*
X029532Y013649D01*
X029532Y013778D01*
X029404Y013906D01*
X029147Y013906D01*
X029018Y013778D01*
X029018Y013135D02*
X029532Y013135D01*
X027156Y013135D02*
X027156Y013906D01*
D12*
X000556Y015465D02*
X000574Y016201D01*
X000628Y016935D01*
X000718Y017666D01*
X000844Y018391D01*
X001006Y019110D01*
X001202Y019819D01*
X001433Y020518D01*
X001698Y021205D01*
X001996Y021878D01*
X002327Y022536D01*
X002690Y023177D01*
X003084Y023799D01*
X003508Y024400D01*
X003961Y024981D01*
X004442Y025538D01*
X004949Y026072D01*
X005483Y026579D01*
X006040Y027060D01*
X006621Y027513D01*
X007222Y027937D01*
X007844Y028331D01*
X008485Y028694D01*
X009143Y029025D01*
X009816Y029323D01*
X010503Y029588D01*
X011202Y029819D01*
X011911Y030015D01*
X012630Y030177D01*
X013355Y030303D01*
X014086Y030393D01*
X014820Y030447D01*
X015556Y030465D01*
X016292Y030447D01*
X017026Y030393D01*
X017757Y030303D01*
X018482Y030177D01*
X019201Y030015D01*
X019910Y029819D01*
X020609Y029588D01*
X021296Y029323D01*
X021969Y029025D01*
X022627Y028694D01*
X023268Y028331D01*
X023890Y027937D01*
X024491Y027513D01*
X025072Y027060D01*
X025629Y026579D01*
X026163Y026072D01*
X026670Y025538D01*
X027151Y024981D01*
X027604Y024400D01*
X028028Y023799D01*
X028422Y023177D01*
X028785Y022536D01*
X029116Y021878D01*
X029414Y021205D01*
X029679Y020518D01*
X029910Y019819D01*
X030106Y019110D01*
X030268Y018391D01*
X030394Y017666D01*
X030484Y016935D01*
X030538Y016201D01*
X030556Y015465D01*
X030538Y014729D01*
X030484Y013995D01*
X030394Y013264D01*
X030268Y012539D01*
X030106Y011820D01*
X029910Y011111D01*
X029679Y010412D01*
X029414Y009725D01*
X029116Y009052D01*
X028785Y008394D01*
X028422Y007753D01*
X028028Y007131D01*
X027604Y006530D01*
X027151Y005949D01*
X026670Y005392D01*
X026163Y004858D01*
X025629Y004351D01*
X025072Y003870D01*
X024491Y003417D01*
X023890Y002993D01*
X023268Y002599D01*
X022627Y002236D01*
X021969Y001905D01*
X021296Y001607D01*
X020609Y001342D01*
X019910Y001111D01*
X019201Y000915D01*
X018482Y000753D01*
X017757Y000627D01*
X017026Y000537D01*
X016292Y000483D01*
X015556Y000465D01*
X014820Y000483D01*
X014086Y000537D01*
X013355Y000627D01*
X012630Y000753D01*
X011911Y000915D01*
X011202Y001111D01*
X010503Y001342D01*
X009816Y001607D01*
X009143Y001905D01*
X008485Y002236D01*
X007844Y002599D01*
X007222Y002993D01*
X006621Y003417D01*
X006040Y003870D01*
X005483Y004351D01*
X004949Y004858D01*
X004442Y005392D01*
X003961Y005949D01*
X003508Y006530D01*
X003084Y007131D01*
X002690Y007753D01*
X002327Y008394D01*
X001996Y009052D01*
X001698Y009725D01*
X001433Y010412D01*
X001202Y011111D01*
X001006Y011820D01*
X000844Y012539D01*
X000718Y013264D01*
X000628Y013995D01*
X000574Y014729D01*
X000556Y015465D01*
D13*
X007162Y011590D02*
X007700Y011590D01*
X007431Y011322D02*
X007431Y011859D01*
X007931Y012447D02*
X007931Y012984D01*
X007662Y012715D02*
X008200Y012715D01*
X007931Y014447D02*
X007931Y014984D01*
X007662Y014715D02*
X008200Y014715D01*
X011656Y014840D02*
X012456Y014840D01*
X012056Y014440D02*
X012056Y015240D01*
X016406Y010840D02*
X017206Y010840D01*
X016806Y010440D02*
X016806Y011240D01*
X018412Y010840D02*
X018950Y010840D01*
X018681Y010572D02*
X018681Y011109D01*
X019662Y011340D02*
X020200Y011340D01*
X019931Y011072D02*
X019931Y011609D01*
X019931Y010734D02*
X019931Y010197D01*
X019662Y010465D02*
X020200Y010465D01*
X020662Y010215D02*
X021200Y010215D01*
X020931Y009947D02*
X020931Y010484D01*
X021931Y009855D02*
X021931Y009076D01*
X021931Y008855D02*
X021931Y008076D01*
X021541Y008465D02*
X022320Y008465D01*
X022662Y008215D02*
X023200Y008215D01*
X022931Y007947D02*
X022931Y008484D01*
X023181Y009197D02*
X023181Y009734D01*
X022912Y009465D02*
X023450Y009465D01*
X024162Y009090D02*
X024700Y009090D01*
X024431Y008822D02*
X024431Y009359D01*
X024556Y010264D02*
X024556Y010667D01*
X024757Y010465D02*
X024354Y010465D01*
X022320Y009465D02*
X021541Y009465D01*
X021320Y008965D02*
X020541Y008965D01*
X020931Y008576D02*
X020931Y009355D01*
X019831Y008965D02*
X019031Y008965D01*
X019431Y008565D02*
X019431Y009365D01*
X019431Y007484D02*
X019431Y006947D01*
X019162Y007215D02*
X019700Y007215D01*
X019431Y006115D02*
X019431Y005315D01*
X019031Y005715D02*
X019831Y005715D01*
X020931Y004484D02*
X020931Y003947D01*
X020662Y004215D02*
X021200Y004215D01*
X018200Y004215D02*
X017662Y004215D01*
X017931Y003947D02*
X017931Y004484D01*
X022662Y007340D02*
X023200Y007340D01*
X022931Y007072D02*
X022931Y007609D01*
X019681Y014815D02*
X019681Y015615D01*
X019281Y015215D02*
X020081Y015215D01*
X012081Y010215D02*
X011281Y010215D01*
X011681Y009815D02*
X011681Y010615D01*
X007565Y010590D02*
X007296Y010590D01*
X007431Y010456D02*
X007431Y010725D01*
X007431Y009725D02*
X007431Y009456D01*
X007565Y009590D02*
X007296Y009590D01*
X007431Y008725D02*
X007431Y008456D01*
X007565Y008590D02*
X007296Y008590D01*
X011656Y004090D02*
X012456Y004090D01*
X012056Y003690D02*
X012056Y004490D01*
X014556Y028965D02*
X014558Y029028D01*
X014564Y029090D01*
X014574Y029152D01*
X014587Y029214D01*
X014605Y029274D01*
X014626Y029333D01*
X014651Y029391D01*
X014680Y029447D01*
X014712Y029501D01*
X014747Y029553D01*
X014785Y029602D01*
X014827Y029650D01*
X014871Y029694D01*
X014919Y029736D01*
X014968Y029774D01*
X015020Y029809D01*
X015074Y029841D01*
X015130Y029870D01*
X015188Y029895D01*
X015247Y029916D01*
X015307Y029934D01*
X015369Y029947D01*
X015431Y029957D01*
X015493Y029963D01*
X015556Y029965D01*
X015619Y029963D01*
X015681Y029957D01*
X015743Y029947D01*
X015805Y029934D01*
X015865Y029916D01*
X015924Y029895D01*
X015982Y029870D01*
X016038Y029841D01*
X016092Y029809D01*
X016144Y029774D01*
X016193Y029736D01*
X016241Y029694D01*
X016285Y029650D01*
X016327Y029602D01*
X016365Y029553D01*
X016400Y029501D01*
X016432Y029447D01*
X016461Y029391D01*
X016486Y029333D01*
X016507Y029274D01*
X016525Y029214D01*
X016538Y029152D01*
X016548Y029090D01*
X016554Y029028D01*
X016556Y028965D01*
X016554Y028902D01*
X016548Y028840D01*
X016538Y028778D01*
X016525Y028716D01*
X016507Y028656D01*
X016486Y028597D01*
X016461Y028539D01*
X016432Y028483D01*
X016400Y028429D01*
X016365Y028377D01*
X016327Y028328D01*
X016285Y028280D01*
X016241Y028236D01*
X016193Y028194D01*
X016144Y028156D01*
X016092Y028121D01*
X016038Y028089D01*
X015982Y028060D01*
X015924Y028035D01*
X015865Y028014D01*
X015805Y027996D01*
X015743Y027983D01*
X015681Y027973D01*
X015619Y027967D01*
X015556Y027965D01*
X015493Y027967D01*
X015431Y027973D01*
X015369Y027983D01*
X015307Y027996D01*
X015247Y028014D01*
X015188Y028035D01*
X015130Y028060D01*
X015074Y028089D01*
X015020Y028121D01*
X014968Y028156D01*
X014919Y028194D01*
X014871Y028236D01*
X014827Y028280D01*
X014785Y028328D01*
X014747Y028377D01*
X014712Y028429D01*
X014680Y028483D01*
X014651Y028539D01*
X014626Y028597D01*
X014605Y028656D01*
X014587Y028716D01*
X014574Y028778D01*
X014564Y028840D01*
X014558Y028902D01*
X014556Y028965D01*
D14*
X008381Y022440D03*
X008481Y022340D03*
X008581Y022240D03*
X008681Y022140D03*
X008781Y022007D03*
X007947Y021707D03*
X007747Y021540D03*
X007447Y022740D03*
X007281Y022807D03*
X005747Y021707D03*
X005781Y021607D03*
X005781Y021540D03*
X006381Y020240D03*
X005547Y019407D03*
X005281Y019740D03*
X004547Y019540D03*
X004181Y019440D03*
X004047Y019407D03*
X004681Y018440D03*
X003947Y017607D03*
X003847Y017707D03*
X003681Y017907D03*
X003147Y017540D03*
X002981Y017307D03*
X006681Y018207D03*
X006647Y018340D03*
X008347Y017507D03*
X008481Y017640D03*
X008547Y017707D03*
X008581Y017740D03*
X008647Y017807D03*
X008681Y017840D03*
X008847Y018040D03*
X011281Y017440D03*
X013881Y018440D03*
X014847Y018807D03*
X017181Y020107D03*
X017281Y020040D03*
X020581Y019240D03*
X020681Y019140D03*
X020847Y018940D03*
X020881Y018907D03*
X020947Y018840D03*
X020981Y018807D03*
X021147Y018607D03*
X021247Y018507D03*
X021381Y018340D03*
X021481Y018240D03*
X021581Y018140D03*
X021681Y018007D03*
X021747Y017940D03*
X021781Y017907D03*
X021847Y017840D03*
X021881Y017807D03*
X022047Y017607D03*
X022147Y017507D03*
X022281Y017340D03*
X022381Y017240D03*
X022547Y017040D03*
X022581Y017007D03*
X022647Y016940D03*
X022681Y016907D03*
X022747Y016840D03*
X022847Y016707D03*
X022947Y016607D03*
X023047Y016507D03*
X023181Y016340D03*
X023281Y016240D03*
X023447Y016040D03*
X023481Y016007D03*
X023547Y015940D03*
X022647Y017607D03*
X022547Y017707D03*
X022381Y017907D03*
X022347Y017940D03*
X024447Y018307D03*
X024481Y018407D03*
X024481Y018440D03*
X025881Y017140D03*
X027147Y017607D03*
X027181Y017640D03*
X027247Y017707D03*
X027281Y017740D03*
X027347Y017807D03*
X027447Y017940D03*
X027647Y018207D03*
X027781Y018407D03*
X027947Y018207D03*
X028081Y018040D03*
X028181Y017907D03*
X028547Y017440D03*
X028581Y017407D03*
X027181Y019207D03*
X027081Y019307D03*
X026981Y019440D03*
X026781Y019707D03*
X026281Y018607D03*
X026347Y018540D03*
X026381Y018507D03*
X026447Y018440D03*
X026481Y018407D03*
X026547Y018340D03*
X023981Y020240D03*
X023247Y020440D03*
X022981Y020507D03*
X022881Y020540D03*
X023381Y021507D03*
X023347Y021540D03*
X024047Y022340D03*
X023881Y022840D03*
X023781Y022807D03*
X022681Y022407D03*
X022581Y022307D03*
X022481Y022207D03*
X027081Y022440D03*
X027181Y022340D03*
X027281Y022240D03*
X027381Y022140D03*
X027481Y022007D03*
X029181Y014707D03*
X029781Y013940D03*
X017647Y001207D03*
X016647Y001207D03*
X014047Y001207D03*
X013447Y001207D03*
X003581Y021940D03*
X003747Y022140D03*
X003881Y022307D03*
D15*
X007364Y023040D03*
X011664Y018307D03*
X006664Y017540D03*
X005764Y017540D03*
X005564Y015207D03*
X015964Y025840D03*
X015864Y026107D03*
X015864Y026140D03*
X015764Y026407D03*
X018664Y025540D03*
X018764Y025707D03*
X018764Y025740D03*
X019364Y025840D03*
X019464Y025640D03*
X018764Y026507D03*
X025364Y022440D03*
X026064Y016940D03*
X023964Y015440D03*
X028464Y016140D03*
X028464Y016407D03*
X028464Y016440D03*
X019164Y019507D03*
X014664Y001307D03*
X014664Y001240D03*
X014664Y001207D03*
D16*
X014514Y001340D03*
X014514Y001407D03*
X014514Y001440D03*
X014514Y001507D03*
X014514Y001540D03*
X014514Y001607D03*
X014514Y001640D03*
X014514Y001707D03*
X014514Y001740D03*
X014514Y001807D03*
X014514Y001840D03*
X014514Y001907D03*
X014514Y001940D03*
X014514Y002007D03*
X014514Y002040D03*
X014514Y002107D03*
X014514Y002140D03*
X014514Y002207D03*
X014514Y002240D03*
X014514Y002307D03*
X014514Y002340D03*
X014514Y002407D03*
X014514Y002440D03*
X014214Y002440D03*
X014214Y002407D03*
X014214Y002340D03*
X014214Y002307D03*
X014214Y002240D03*
X014214Y002207D03*
X014214Y002140D03*
X014214Y002107D03*
X014214Y002040D03*
X014214Y002007D03*
X014214Y001940D03*
X014214Y001907D03*
X014214Y001840D03*
X014214Y001807D03*
X014214Y001740D03*
X014214Y001707D03*
X014214Y001640D03*
X014214Y001607D03*
X014214Y001540D03*
X014214Y001507D03*
X014214Y001440D03*
X014214Y001407D03*
X014814Y001407D03*
X014814Y001440D03*
X014814Y001507D03*
X014814Y001540D03*
X014814Y001340D03*
X015114Y001340D03*
X015114Y001307D03*
X015114Y001240D03*
X015114Y001207D03*
X015114Y001407D03*
X015114Y001440D03*
X015114Y001507D03*
X015114Y001540D03*
X015114Y001607D03*
X015114Y001640D03*
X015114Y001707D03*
X015114Y001740D03*
X016814Y001740D03*
X016814Y001707D03*
X016814Y001640D03*
X016814Y001607D03*
X016814Y001540D03*
X016814Y001507D03*
X016814Y001440D03*
X016814Y001407D03*
X016814Y001340D03*
X016814Y001807D03*
X016814Y001840D03*
X016814Y001907D03*
X016814Y001940D03*
X016814Y002007D03*
X016814Y002040D03*
X016814Y002107D03*
X016814Y002140D03*
X016814Y002207D03*
X016814Y002240D03*
X016814Y002307D03*
X017814Y002307D03*
X017814Y002240D03*
X017814Y002207D03*
X017814Y002140D03*
X017814Y002107D03*
X017814Y002040D03*
X017814Y002007D03*
X017814Y001940D03*
X017814Y001907D03*
X017814Y001840D03*
X017814Y001807D03*
X017814Y001740D03*
X017814Y001707D03*
X017814Y001640D03*
X017814Y001607D03*
X017814Y001540D03*
X017814Y001507D03*
X017814Y001440D03*
X017814Y001407D03*
X017814Y001340D03*
X029614Y011707D03*
X029514Y014440D03*
X029414Y014540D03*
X026514Y017440D03*
X026614Y017507D03*
X027914Y018707D03*
X028014Y019007D03*
X028114Y019307D03*
X028114Y019340D03*
X028114Y019407D03*
X027214Y019107D03*
X028114Y020607D03*
X028114Y020640D03*
X028114Y020707D03*
X028014Y021007D03*
X028014Y021040D03*
X027914Y021307D03*
X026414Y022607D03*
X025514Y022307D03*
X025414Y021940D03*
X025414Y021907D03*
X023814Y022240D03*
X023614Y022140D03*
X023414Y022007D03*
X023214Y022507D03*
X021914Y021340D03*
X021814Y021107D03*
X021714Y020807D03*
X021714Y020740D03*
X021714Y020707D03*
X021614Y020207D03*
X021614Y020140D03*
X021614Y020107D03*
X021614Y020040D03*
X021614Y020007D03*
X021614Y019940D03*
X021614Y019907D03*
X021614Y019840D03*
X021614Y019807D03*
X021714Y019240D03*
X021714Y019207D03*
X021814Y018907D03*
X021914Y018640D03*
X022014Y018440D03*
X023514Y017307D03*
X024314Y017807D03*
X024314Y017840D03*
X025614Y014340D03*
X016514Y018840D03*
X016414Y018707D03*
X015814Y018607D03*
X015114Y018340D03*
X014114Y019340D03*
X015214Y020040D03*
X009414Y020607D03*
X009414Y020640D03*
X009414Y020707D03*
X009314Y021007D03*
X009314Y021040D03*
X009114Y021507D03*
X007814Y022540D03*
X007714Y022607D03*
X007514Y022707D03*
X005614Y022240D03*
X005614Y022207D03*
X004714Y022607D03*
X003214Y021340D03*
X003214Y021307D03*
X003114Y021040D03*
X003014Y020740D03*
X003014Y020707D03*
X002914Y020107D03*
X002914Y020040D03*
X002914Y020007D03*
X003014Y019307D03*
X003014Y019240D03*
X003014Y019207D03*
X003114Y018940D03*
X003114Y018907D03*
X003214Y018640D03*
X003314Y018440D03*
X004814Y017307D03*
X005114Y017740D03*
X006814Y017740D03*
X006814Y017707D03*
X007614Y017307D03*
X009314Y018907D03*
X009314Y018940D03*
X009414Y019240D03*
X009414Y019307D03*
X009414Y019340D03*
X006214Y020540D03*
X006014Y019740D03*
X005314Y020107D03*
X002414Y015040D03*
X002214Y014940D03*
X002214Y014907D03*
X002314Y014640D03*
X002314Y014607D03*
X002414Y014340D03*
X002414Y014307D03*
X002514Y014040D03*
X002514Y014007D03*
X002614Y013740D03*
X002614Y013707D03*
X002714Y013440D03*
X002714Y013407D03*
X002814Y013140D03*
X002814Y013107D03*
X002914Y012840D03*
X002914Y012807D03*
X003014Y012540D03*
X003114Y012240D03*
X003214Y011940D03*
X003314Y011640D03*
X003414Y011340D03*
X003514Y011040D03*
X003614Y010740D03*
X003714Y010440D03*
X003814Y010207D03*
X003814Y010140D03*
X003914Y009907D03*
X004014Y009607D03*
X004114Y009307D03*
X004214Y009007D03*
X004314Y008707D03*
X004414Y008407D03*
X004514Y008107D03*
D17*
X004731Y007840D03*
X004797Y007307D03*
X005097Y007007D03*
X005431Y007307D03*
X006231Y015207D03*
X007397Y016940D03*
X007231Y020940D03*
X006197Y023040D03*
X005031Y023040D03*
X002897Y015907D03*
X002897Y015640D03*
X002897Y015607D03*
X001931Y015607D03*
X001931Y015640D03*
X001931Y015907D03*
X012531Y025307D03*
X012531Y025340D03*
X012531Y025407D03*
X012531Y025440D03*
X012531Y025507D03*
X012531Y025540D03*
X012531Y025607D03*
X012531Y025640D03*
X012531Y025707D03*
X012531Y025740D03*
X012531Y025807D03*
X012531Y025840D03*
X012531Y026307D03*
X012531Y026340D03*
X012531Y026407D03*
X012531Y026440D03*
X012531Y026507D03*
X012531Y026540D03*
X012531Y026607D03*
X012531Y026640D03*
X012531Y026707D03*
X012531Y026740D03*
X012531Y026807D03*
X012531Y026840D03*
X015731Y026507D03*
X015797Y026340D03*
X015797Y026307D03*
X015831Y026240D03*
X015831Y026207D03*
X015897Y026040D03*
X015897Y026007D03*
X015931Y025940D03*
X015997Y025740D03*
X018697Y025607D03*
X018797Y025807D03*
X018831Y025840D03*
X018831Y026340D03*
X018797Y026407D03*
X018797Y026440D03*
X018731Y026540D03*
X018697Y026607D03*
X019397Y026440D03*
X019397Y026407D03*
X019431Y026507D03*
X019431Y025740D03*
X019431Y025707D03*
X019497Y025607D03*
X019531Y025540D03*
X019597Y025407D03*
X019631Y025340D03*
X023697Y023040D03*
X024431Y022440D03*
X026097Y023040D03*
X024897Y020507D03*
X024897Y019707D03*
X025931Y019040D03*
X024897Y016940D03*
X023731Y016940D03*
X023797Y015807D03*
X020131Y019740D03*
X019131Y019640D03*
X019131Y019607D03*
X029431Y016407D03*
X029431Y016207D03*
X029431Y016140D03*
X016031Y001307D03*
X016031Y001240D03*
X016031Y001207D03*
D18*
X015881Y001340D03*
X015881Y001407D03*
X015881Y001440D03*
X015881Y001507D03*
X015881Y001540D03*
X015881Y001607D03*
X015881Y001640D03*
X015881Y001707D03*
X015881Y001740D03*
X016181Y001907D03*
X015881Y002207D03*
X015881Y002240D03*
X015881Y002307D03*
X015881Y002340D03*
X015281Y002340D03*
X015281Y002307D03*
X015281Y002240D03*
X015281Y002207D03*
X015281Y002140D03*
X015281Y002107D03*
X015281Y002040D03*
X015281Y002007D03*
X014981Y001907D03*
X015281Y002407D03*
X015281Y002440D03*
X013581Y002340D03*
X013581Y002307D03*
X013581Y002240D03*
X013581Y002207D03*
X013581Y002140D03*
X013581Y002107D03*
X013581Y002040D03*
X013581Y002007D03*
X013581Y001940D03*
X013581Y001907D03*
X013581Y001840D03*
X013581Y001807D03*
X013581Y001740D03*
X013581Y001707D03*
X013581Y001640D03*
X013581Y001607D03*
X013581Y001540D03*
X013581Y001507D03*
X013581Y001440D03*
X013581Y001407D03*
X013581Y001340D03*
X013281Y001340D03*
X013281Y001407D03*
X013281Y001440D03*
X013281Y001507D03*
X017181Y001507D03*
X017181Y001540D03*
X017181Y001607D03*
X017181Y001640D03*
X017181Y001707D03*
X017181Y001740D03*
X017181Y001807D03*
X017181Y001840D03*
X017181Y001907D03*
X017181Y001940D03*
X017181Y002007D03*
X017181Y002040D03*
X017181Y002107D03*
X017181Y002140D03*
X017181Y002207D03*
X017181Y002240D03*
X017181Y002307D03*
X017181Y002340D03*
X017181Y001440D03*
X017181Y001407D03*
X017181Y001340D03*
X017181Y001307D03*
X017181Y001240D03*
X017181Y001207D03*
X025781Y011507D03*
X025747Y011540D03*
X025681Y014440D03*
X025781Y014540D03*
X026281Y017307D03*
X026347Y017340D03*
X026647Y018240D03*
X027881Y018640D03*
X027947Y018807D03*
X027981Y018907D03*
X028047Y019107D03*
X028081Y019207D03*
X028081Y019240D03*
X028147Y019507D03*
X028147Y019540D03*
X028147Y019607D03*
X028147Y019640D03*
X028147Y019707D03*
X028181Y019740D03*
X028181Y019807D03*
X028181Y019840D03*
X028181Y019907D03*
X028181Y019940D03*
X028181Y020007D03*
X028181Y020040D03*
X028181Y020107D03*
X028181Y020140D03*
X028181Y020207D03*
X028181Y020240D03*
X028147Y020307D03*
X028147Y020340D03*
X028147Y020407D03*
X028147Y020440D03*
X028147Y020507D03*
X028081Y020740D03*
X028081Y020807D03*
X028047Y020907D03*
X028047Y020940D03*
X027981Y021107D03*
X027981Y021140D03*
X027947Y021207D03*
X027881Y021340D03*
X027847Y021440D03*
X026681Y022440D03*
X026581Y022507D03*
X025481Y022207D03*
X025481Y022140D03*
X025447Y022040D03*
X023747Y022207D03*
X023447Y022640D03*
X023381Y022607D03*
X022047Y021607D03*
X021947Y021407D03*
X021847Y021207D03*
X021781Y021007D03*
X021747Y020907D03*
X021681Y020640D03*
X021681Y020607D03*
X021681Y020540D03*
X021647Y020507D03*
X021647Y020440D03*
X021647Y020407D03*
X021647Y020340D03*
X021647Y020307D03*
X021647Y019740D03*
X021647Y019707D03*
X021647Y019640D03*
X021647Y019607D03*
X021647Y019540D03*
X021647Y019507D03*
X021681Y019440D03*
X021681Y019407D03*
X021681Y019340D03*
X021681Y019307D03*
X021747Y019140D03*
X021747Y019107D03*
X021781Y019007D03*
X021847Y018807D03*
X021881Y018740D03*
X021881Y018707D03*
X021981Y018507D03*
X023047Y017607D03*
X023181Y017507D03*
X023281Y017440D03*
X023347Y017407D03*
X023447Y017340D03*
X023647Y017840D03*
X023481Y017940D03*
X024281Y017707D03*
X024347Y017907D03*
X024347Y017940D03*
X024381Y018040D03*
X025081Y019507D03*
X024647Y019807D03*
X029547Y014407D03*
X029647Y011740D03*
X017081Y019607D03*
X016881Y019340D03*
X016081Y018707D03*
X015647Y018540D03*
X015547Y018507D03*
X015381Y018440D03*
X015047Y018307D03*
X014781Y018207D03*
X014781Y018740D03*
X013747Y018840D03*
X013647Y018707D03*
X014947Y019940D03*
X015381Y020107D03*
X015481Y020140D03*
X015647Y020207D03*
X015981Y020340D03*
X009481Y020307D03*
X009481Y020240D03*
X009481Y020207D03*
X009481Y020140D03*
X009481Y020107D03*
X009481Y020040D03*
X009481Y020007D03*
X009481Y019940D03*
X009481Y019907D03*
X009481Y019840D03*
X009481Y019807D03*
X009481Y019740D03*
X009481Y019707D03*
X009481Y019640D03*
X009447Y019607D03*
X009447Y019540D03*
X009447Y019507D03*
X009447Y019440D03*
X009447Y019407D03*
X009381Y019207D03*
X009381Y019140D03*
X009347Y019040D03*
X009347Y019007D03*
X009281Y018840D03*
X009247Y018740D03*
X009181Y018607D03*
X009147Y018540D03*
X009081Y018407D03*
X008981Y018240D03*
X007981Y017540D03*
X007781Y017407D03*
X007681Y017340D03*
X006847Y017607D03*
X006781Y017807D03*
X006781Y017840D03*
X006747Y017940D03*
X004981Y017807D03*
X004781Y017940D03*
X004481Y017507D03*
X004581Y017440D03*
X004747Y017340D03*
X003281Y018507D03*
X003181Y018740D03*
X003147Y018807D03*
X003081Y019007D03*
X003081Y019040D03*
X003047Y019107D03*
X003047Y019140D03*
X002981Y019340D03*
X002981Y019407D03*
X002981Y019440D03*
X002947Y019540D03*
X002947Y019607D03*
X002947Y019640D03*
X002947Y019707D03*
X002947Y019740D03*
X002947Y019807D03*
X002947Y019840D03*
X002947Y019907D03*
X002947Y019940D03*
X002947Y020140D03*
X002947Y020207D03*
X002947Y020240D03*
X002947Y020307D03*
X002947Y020340D03*
X002947Y020407D03*
X002947Y020440D03*
X002981Y020507D03*
X002981Y020540D03*
X002981Y020607D03*
X002981Y020640D03*
X003047Y020840D03*
X003081Y020940D03*
X003081Y021007D03*
X003147Y021140D03*
X003181Y021240D03*
X004447Y022440D03*
X004581Y022540D03*
X004947Y022140D03*
X004747Y022007D03*
X005581Y022307D03*
X005647Y022107D03*
X005647Y022040D03*
X005681Y021940D03*
X005981Y020207D03*
X006447Y020207D03*
X005547Y019440D03*
X007647Y022640D03*
X007881Y022507D03*
X009147Y021440D03*
X009247Y021207D03*
X009281Y021140D03*
X009281Y021107D03*
X009347Y020940D03*
X009347Y020907D03*
X009381Y020840D03*
X009381Y020807D03*
X009381Y020740D03*
X009447Y020540D03*
X009447Y020507D03*
X009447Y020440D03*
X009447Y020407D03*
X005447Y014407D03*
X005447Y014340D03*
X005447Y014307D03*
X005447Y014240D03*
X005447Y014207D03*
X005447Y014140D03*
X005447Y014107D03*
X005447Y014040D03*
X005447Y014007D03*
X005447Y013940D03*
X005447Y013907D03*
X005447Y013840D03*
X005447Y013807D03*
X005447Y013740D03*
X005447Y013707D03*
X005447Y013640D03*
X005447Y013607D03*
X005447Y013540D03*
X005447Y013507D03*
X005447Y013440D03*
X005447Y013407D03*
X005447Y013340D03*
X005447Y013307D03*
X005447Y013240D03*
X005447Y013207D03*
X005447Y013140D03*
X005447Y013107D03*
X005447Y013040D03*
X005447Y013007D03*
X005447Y012940D03*
X005481Y012840D03*
X005481Y012807D03*
X005481Y012740D03*
X005481Y012707D03*
X005481Y012640D03*
X005481Y012607D03*
X005481Y012540D03*
X005481Y012507D03*
X005481Y012440D03*
X005481Y012407D03*
X005481Y012340D03*
X005481Y012307D03*
X005481Y012240D03*
X005481Y012207D03*
X005481Y012140D03*
X005481Y012107D03*
X005481Y012040D03*
X005481Y012007D03*
X005481Y011940D03*
X005481Y011907D03*
X005481Y011840D03*
X005481Y011807D03*
X005481Y011740D03*
X005481Y011707D03*
X005481Y011640D03*
X005481Y011607D03*
X005481Y011540D03*
X005481Y011507D03*
X005481Y011440D03*
X005481Y011407D03*
X005481Y011340D03*
X005481Y011307D03*
X005481Y011240D03*
X005481Y011207D03*
X005481Y011140D03*
X005481Y011107D03*
X005481Y011040D03*
X005481Y011007D03*
X005481Y010940D03*
X005481Y010907D03*
X005481Y010840D03*
X005481Y010807D03*
X005481Y010740D03*
X005481Y010707D03*
X005481Y010640D03*
X005481Y010607D03*
X005481Y010540D03*
X005481Y010507D03*
X005481Y010440D03*
X005481Y010407D03*
X005481Y010340D03*
X005481Y010307D03*
X005481Y010240D03*
X005481Y010207D03*
X005481Y010140D03*
X005481Y010107D03*
X005481Y010040D03*
X005481Y010007D03*
X005481Y009940D03*
X005481Y009907D03*
X005481Y009840D03*
X005481Y009807D03*
X005481Y009740D03*
X005481Y009707D03*
X005481Y009640D03*
X005481Y009607D03*
X005481Y009540D03*
X005481Y009507D03*
X005481Y009440D03*
X005481Y009407D03*
X005481Y009340D03*
X005481Y009307D03*
X005481Y009240D03*
X005481Y009207D03*
X005481Y009140D03*
X005481Y009107D03*
X005481Y009040D03*
X005481Y009007D03*
X005481Y008940D03*
X005481Y008907D03*
X005481Y008840D03*
X005481Y008807D03*
X005481Y008740D03*
X005481Y008707D03*
X005481Y008640D03*
X005481Y008607D03*
X005481Y008540D03*
X005481Y008507D03*
X005481Y008440D03*
X005481Y008407D03*
X005481Y008340D03*
X005481Y008307D03*
X005481Y008240D03*
X005481Y008207D03*
X004481Y008207D03*
X004447Y008307D03*
X004381Y008507D03*
X004347Y008607D03*
X004281Y008807D03*
X004247Y008907D03*
X004181Y009107D03*
X004147Y009207D03*
X004081Y009407D03*
X004047Y009507D03*
X003981Y009707D03*
X003947Y009807D03*
X003881Y009940D03*
X003881Y010007D03*
X003847Y010040D03*
X003847Y010107D03*
X003781Y010240D03*
X003747Y010340D03*
X003681Y010540D03*
X003647Y010640D03*
X003581Y010840D03*
X003547Y010940D03*
X003481Y011140D03*
X003447Y011240D03*
X003381Y011440D03*
X003347Y011540D03*
X003281Y011740D03*
X003247Y011840D03*
X003181Y012040D03*
X003147Y012140D03*
X003081Y012340D03*
X003047Y012440D03*
X002981Y012607D03*
X002981Y012640D03*
X002947Y012707D03*
X002947Y012740D03*
X002881Y012907D03*
X002881Y012940D03*
X002847Y013007D03*
X002847Y013040D03*
X002781Y013207D03*
X002781Y013240D03*
X002747Y013307D03*
X002747Y013340D03*
X002681Y013507D03*
X002681Y013540D03*
X002647Y013607D03*
X002647Y013640D03*
X002581Y013807D03*
X002581Y013840D03*
X002547Y013907D03*
X002547Y013940D03*
X002481Y014107D03*
X002481Y014140D03*
X002447Y014207D03*
X002447Y014240D03*
X002381Y014407D03*
X002381Y014440D03*
X002347Y014507D03*
X002347Y014540D03*
X002281Y014707D03*
X002281Y014740D03*
X002247Y014807D03*
X002247Y014840D03*
X002181Y015007D03*
X002181Y015040D03*
D19*
X004597Y017140D03*
X006131Y015607D03*
X006297Y015707D03*
X006331Y015740D03*
X006531Y015840D03*
X006631Y015907D03*
X006697Y015940D03*
X006797Y016007D03*
X007031Y016140D03*
X007131Y016207D03*
X007197Y016240D03*
X007497Y016407D03*
X007531Y016440D03*
X007831Y016607D03*
X007897Y016640D03*
X007997Y016707D03*
X008231Y016840D03*
X008331Y016907D03*
X008397Y016940D03*
X008497Y017007D03*
X008697Y017107D03*
X008731Y017140D03*
X008897Y017240D03*
X009031Y017307D03*
X009097Y017340D03*
X009197Y017407D03*
X009431Y017540D03*
X009531Y017607D03*
X009597Y017640D03*
X009697Y017707D03*
X009931Y017840D03*
X010097Y017940D03*
X010231Y018007D03*
X010397Y018107D03*
X007931Y017207D03*
X007831Y017140D03*
X005431Y014940D03*
X005431Y014907D03*
X007231Y021007D03*
X008031Y022707D03*
X007797Y022840D03*
X004597Y022840D03*
X004531Y022807D03*
X014931Y018107D03*
X015231Y018840D03*
X015797Y018440D03*
X015731Y020407D03*
X022597Y019340D03*
X023131Y017240D03*
X023297Y017140D03*
X024297Y015107D03*
X026497Y017140D03*
X027797Y018340D03*
X026531Y022840D03*
X025697Y022907D03*
X024097Y022907D03*
X023231Y022807D03*
X016031Y002440D03*
X013431Y001240D03*
D20*
X014047Y001240D03*
X005547Y007440D03*
X005547Y007707D03*
X005547Y007740D03*
X004681Y007740D03*
X004647Y007607D03*
X004681Y007440D03*
X004681Y007407D03*
X005481Y014740D03*
X005447Y015007D03*
X005481Y015107D03*
X006347Y015040D03*
X006347Y014840D03*
X006347Y014807D03*
X005547Y017040D03*
X004781Y017040D03*
X004647Y017107D03*
X005547Y019340D03*
X008481Y019340D03*
X007681Y022907D03*
X004747Y022907D03*
X019647Y020340D03*
X023281Y022840D03*
X024247Y022940D03*
X026381Y022907D03*
X027181Y020640D03*
X027781Y018307D03*
X026447Y017107D03*
X024747Y015840D03*
X024747Y015807D03*
X024747Y015607D03*
X023881Y015540D03*
X023847Y015640D03*
X024147Y017640D03*
X024247Y020640D03*
X025381Y013507D03*
X025381Y013140D03*
X025381Y013107D03*
X025747Y011640D03*
D21*
X025764Y011607D03*
X025364Y013307D03*
X025364Y013340D03*
X025564Y014140D03*
X024764Y015640D03*
X024764Y015707D03*
X024764Y015740D03*
X023864Y015607D03*
X023364Y017107D03*
X024464Y018540D03*
X024264Y022407D03*
X028964Y014807D03*
X017664Y002440D03*
X016664Y002440D03*
X016664Y001240D03*
X017664Y001240D03*
X005564Y007507D03*
X005564Y007540D03*
X005564Y007607D03*
X005564Y007640D03*
X004664Y007640D03*
X004664Y007707D03*
X004664Y007540D03*
X004664Y007507D03*
X005464Y014807D03*
X005464Y014840D03*
X005464Y015040D03*
X006364Y015007D03*
X006364Y014940D03*
X006364Y014907D03*
X006164Y015640D03*
X006464Y015807D03*
X006864Y016040D03*
X006964Y016107D03*
X007364Y016340D03*
X007664Y016507D03*
X008064Y016740D03*
X008164Y016807D03*
X008564Y017040D03*
X008864Y017207D03*
X009264Y017440D03*
X009364Y017507D03*
X009764Y017740D03*
X010064Y017907D03*
X007764Y017107D03*
X005764Y021440D03*
X005464Y022907D03*
X006964Y022907D03*
X007864Y022807D03*
X014964Y020107D03*
X015564Y020340D03*
X015964Y018507D03*
D22*
X011731Y018174D03*
X011731Y018074D03*
X011731Y017974D03*
X010831Y017974D03*
X007231Y020974D03*
X007531Y022974D03*
X004864Y022974D03*
X005231Y020174D03*
X004931Y016974D03*
X005531Y015174D03*
X006264Y015174D03*
X005497Y007374D03*
X013431Y001274D03*
X014064Y001274D03*
X016064Y001874D03*
X016664Y001274D03*
X017664Y001274D03*
X023931Y015474D03*
X023431Y017074D03*
X024431Y018574D03*
X024897Y019474D03*
X024897Y019674D03*
X027797Y018274D03*
X026264Y022974D03*
X023531Y022974D03*
X016497Y025674D03*
X015264Y026474D03*
D23*
X015764Y026374D03*
X015964Y025874D03*
X018664Y026674D03*
X018764Y026474D03*
X019364Y026374D03*
X019464Y026574D03*
X019464Y025674D03*
X019564Y025474D03*
X019164Y019774D03*
X019164Y019474D03*
X020164Y019574D03*
X022664Y019374D03*
X028464Y016174D03*
X014664Y001274D03*
X011664Y017874D03*
D24*
X009214Y018674D03*
X009114Y018474D03*
X009314Y018974D03*
X009414Y019274D03*
X009414Y019374D03*
X009414Y020674D03*
X009214Y021274D03*
X009014Y021674D03*
X006414Y020474D03*
X006014Y020474D03*
X005614Y022174D03*
X003114Y021074D03*
X003014Y020774D03*
X003014Y020674D03*
X002914Y020074D03*
X002914Y019974D03*
X003014Y019274D03*
X003114Y018874D03*
X003214Y018674D03*
X003414Y018274D03*
X006814Y017774D03*
X007714Y017374D03*
X002914Y012874D03*
X003014Y012574D03*
X003114Y012274D03*
X003214Y011974D03*
X003314Y011674D03*
X003414Y011374D03*
X003514Y011074D03*
X003614Y010774D03*
X003714Y010474D03*
X003814Y010174D03*
X003914Y009874D03*
X004014Y009574D03*
X004114Y009274D03*
X004214Y008974D03*
X004314Y008674D03*
X004414Y008374D03*
X004514Y008074D03*
X014214Y002474D03*
X014214Y002374D03*
X014214Y002274D03*
X014214Y002174D03*
X014214Y002074D03*
X014214Y001974D03*
X014214Y001874D03*
X014214Y001774D03*
X014214Y001674D03*
X014214Y001574D03*
X014214Y001474D03*
X014514Y001474D03*
X014514Y001574D03*
X014514Y001674D03*
X014514Y001774D03*
X014514Y001874D03*
X014514Y001974D03*
X014514Y002074D03*
X014514Y002174D03*
X014514Y002274D03*
X014514Y002374D03*
X014514Y002474D03*
X015114Y001774D03*
X015114Y001674D03*
X015114Y001574D03*
X015114Y001474D03*
X015114Y001374D03*
X015114Y001274D03*
X014814Y001374D03*
X014814Y001474D03*
X014814Y001574D03*
X014514Y001374D03*
X016814Y001374D03*
X016814Y001474D03*
X016814Y001574D03*
X016814Y001674D03*
X016814Y001774D03*
X016814Y001874D03*
X016814Y001974D03*
X016814Y002074D03*
X016814Y002174D03*
X016814Y002274D03*
X017814Y002274D03*
X017814Y002174D03*
X017814Y002074D03*
X017814Y001974D03*
X017814Y001874D03*
X017814Y001774D03*
X017814Y001674D03*
X017814Y001574D03*
X017814Y001474D03*
X017814Y001374D03*
X025714Y011574D03*
X025614Y011674D03*
X026214Y017274D03*
X026414Y017374D03*
X028014Y018974D03*
X028114Y019374D03*
X028114Y020574D03*
X028114Y020674D03*
X028014Y020974D03*
X027914Y021274D03*
X027714Y021674D03*
X026314Y022674D03*
X025514Y022274D03*
X023514Y022074D03*
X023314Y022574D03*
X021814Y021074D03*
X021714Y020774D03*
X021614Y020174D03*
X021614Y020074D03*
X021614Y019974D03*
X021614Y019874D03*
X021614Y019774D03*
X021714Y019274D03*
X021714Y019174D03*
X021814Y018874D03*
X024014Y019874D03*
X025114Y019774D03*
X024314Y017774D03*
X016614Y018974D03*
X015214Y018374D03*
X015114Y018674D03*
X014214Y019474D03*
X015814Y020274D03*
D25*
X019131Y019674D03*
X020131Y019774D03*
X019497Y025574D03*
X019397Y025774D03*
X018831Y025874D03*
X018797Y025774D03*
X018731Y025674D03*
X018831Y026374D03*
X019431Y026474D03*
X016031Y025674D03*
X015997Y025774D03*
X015931Y025974D03*
X015797Y026274D03*
X015731Y026474D03*
X012531Y026474D03*
X012531Y026574D03*
X012531Y026674D03*
X012531Y026774D03*
X012531Y026874D03*
X012531Y026374D03*
X012531Y025874D03*
X012531Y025774D03*
X012531Y025674D03*
X012531Y025574D03*
X012531Y025474D03*
X012531Y025374D03*
X006197Y020274D03*
X010897Y017874D03*
X002897Y015874D03*
X002897Y015674D03*
X001931Y015874D03*
X005097Y008174D03*
X016031Y001274D03*
X029431Y016174D03*
X029431Y016374D03*
X029397Y016474D03*
X025997Y023074D03*
D26*
X026481Y022574D03*
X025481Y022174D03*
X025447Y022074D03*
X023881Y022274D03*
X023681Y022174D03*
X022081Y021674D03*
X021881Y021274D03*
X021847Y021174D03*
X021781Y020974D03*
X021747Y020874D03*
X021681Y020674D03*
X021681Y020574D03*
X021647Y020474D03*
X021647Y020374D03*
X021647Y020274D03*
X021647Y019674D03*
X021647Y019574D03*
X021681Y019374D03*
X021747Y019074D03*
X021781Y018974D03*
X021947Y018574D03*
X022047Y018374D03*
X023581Y017874D03*
X024281Y017674D03*
X024381Y018074D03*
X024681Y019774D03*
X027847Y018574D03*
X027947Y018774D03*
X027981Y018874D03*
X028047Y019074D03*
X028081Y019174D03*
X028081Y019274D03*
X028147Y019474D03*
X028147Y019574D03*
X028147Y019674D03*
X028181Y019774D03*
X028181Y019874D03*
X028181Y019974D03*
X028181Y020074D03*
X028181Y020174D03*
X028181Y020274D03*
X028147Y020374D03*
X028147Y020474D03*
X028081Y020774D03*
X028047Y020874D03*
X027947Y021174D03*
X027881Y021374D03*
X029381Y014574D03*
X029581Y014374D03*
X029581Y011674D03*
X025547Y014274D03*
X017281Y019874D03*
X016981Y019474D03*
X016081Y020374D03*
X015547Y020174D03*
X015047Y019974D03*
X014781Y019874D03*
X015981Y018674D03*
X014947Y018274D03*
X009447Y019474D03*
X009447Y019574D03*
X009481Y019674D03*
X009481Y019774D03*
X009481Y019874D03*
X009481Y019974D03*
X009481Y020074D03*
X009481Y020174D03*
X009481Y020274D03*
X009447Y020374D03*
X009447Y020474D03*
X009381Y020774D03*
X009181Y021374D03*
X007581Y022674D03*
X005647Y022074D03*
X005681Y021974D03*
X004647Y022574D03*
X003147Y021174D03*
X003081Y020974D03*
X003047Y020874D03*
X002981Y020574D03*
X002947Y020374D03*
X002947Y020274D03*
X002947Y020174D03*
X002947Y019874D03*
X002947Y019774D03*
X002947Y019674D03*
X002947Y019574D03*
X002981Y019474D03*
X002981Y019374D03*
X003047Y019074D03*
X003081Y018974D03*
X003247Y018574D03*
X004881Y017874D03*
X005047Y017774D03*
X004881Y017274D03*
X004681Y017374D03*
X006747Y017974D03*
X006781Y017874D03*
X006447Y019774D03*
X005981Y019774D03*
X005947Y020174D03*
X003847Y020674D03*
X009281Y018874D03*
X009247Y018774D03*
X009347Y019074D03*
X009381Y019174D03*
X005447Y014374D03*
X005447Y014274D03*
X005447Y014174D03*
X005447Y014074D03*
X005447Y013974D03*
X005447Y013874D03*
X005447Y013774D03*
X005447Y013674D03*
X005447Y013574D03*
X005447Y013474D03*
X005447Y013374D03*
X005447Y013274D03*
X005447Y013174D03*
X005447Y013074D03*
X005447Y012974D03*
X005481Y012774D03*
X005481Y012674D03*
X005481Y012574D03*
X005481Y012474D03*
X005481Y012374D03*
X005481Y012274D03*
X005481Y012174D03*
X005481Y012074D03*
X005481Y011974D03*
X005481Y011874D03*
X005481Y011774D03*
X005481Y011674D03*
X005481Y011574D03*
X005481Y011474D03*
X005481Y011374D03*
X005481Y011274D03*
X005481Y011174D03*
X005481Y011074D03*
X005481Y010974D03*
X005481Y010874D03*
X005481Y010774D03*
X005481Y010674D03*
X005481Y010574D03*
X005481Y010474D03*
X005481Y010374D03*
X005481Y010274D03*
X005481Y010174D03*
X005481Y010074D03*
X005481Y009974D03*
X005481Y009874D03*
X005481Y009774D03*
X005481Y009674D03*
X005481Y009574D03*
X005481Y009474D03*
X005481Y009374D03*
X005481Y009274D03*
X005481Y009174D03*
X005481Y009074D03*
X005481Y008974D03*
X005481Y008874D03*
X005481Y008774D03*
X005481Y008674D03*
X005481Y008574D03*
X005481Y008474D03*
X005481Y008374D03*
X005481Y008274D03*
X005481Y008174D03*
X004481Y008174D03*
X004447Y008274D03*
X004381Y008474D03*
X004347Y008574D03*
X004281Y008774D03*
X004247Y008874D03*
X004181Y009074D03*
X004147Y009174D03*
X004081Y009374D03*
X004047Y009474D03*
X003981Y009674D03*
X003947Y009774D03*
X003881Y009974D03*
X003847Y010074D03*
X003781Y010274D03*
X003747Y010374D03*
X003681Y010574D03*
X003647Y010674D03*
X003581Y010874D03*
X003547Y010974D03*
X003481Y011174D03*
X003447Y011274D03*
X003381Y011474D03*
X003347Y011574D03*
X003281Y011774D03*
X003247Y011874D03*
X003181Y012074D03*
X003147Y012174D03*
X003081Y012374D03*
X003047Y012474D03*
X002981Y012674D03*
X002947Y012774D03*
X002881Y012974D03*
X013581Y002274D03*
X013581Y002174D03*
X013581Y002074D03*
X013581Y001974D03*
X013581Y001874D03*
X013581Y001774D03*
X013581Y001674D03*
X013581Y001574D03*
X013581Y001474D03*
X013581Y001374D03*
X013281Y001374D03*
X013281Y001474D03*
X015281Y001974D03*
X015281Y002074D03*
X015281Y002174D03*
X015281Y002274D03*
X015281Y002374D03*
X015281Y002474D03*
X015881Y002274D03*
X015881Y002174D03*
X015881Y001774D03*
X015881Y001674D03*
X015881Y001574D03*
X015881Y001474D03*
X015881Y001374D03*
X017181Y001374D03*
X017181Y001474D03*
X017181Y001574D03*
X017181Y001674D03*
X017181Y001774D03*
X017181Y001874D03*
X017181Y001974D03*
X017181Y002074D03*
X017181Y002174D03*
X017181Y002274D03*
X017181Y001274D03*
D27*
X016647Y001307D03*
X016047Y001840D03*
X017647Y001307D03*
X014047Y001307D03*
X013447Y001307D03*
X005481Y007340D03*
X005481Y007840D03*
X004747Y007340D03*
X003547Y017940D03*
X005547Y019307D03*
X004947Y023007D03*
X006181Y023340D03*
X010481Y025307D03*
X010481Y025340D03*
X010481Y025407D03*
X010481Y025440D03*
X010481Y025507D03*
X010481Y025540D03*
X010481Y025607D03*
X010481Y025640D03*
X010481Y025707D03*
X010481Y025740D03*
X010481Y025807D03*
X010481Y025840D03*
X010481Y025907D03*
X010481Y025940D03*
X010481Y026007D03*
X010481Y026040D03*
X010481Y026107D03*
X010481Y026140D03*
X010481Y026207D03*
X010481Y026240D03*
X010481Y026307D03*
X010481Y026340D03*
X010481Y026407D03*
X010481Y026440D03*
X010481Y026507D03*
X013247Y026507D03*
X013247Y026440D03*
X013247Y026407D03*
X013247Y026340D03*
X013247Y026307D03*
X013247Y025907D03*
X013247Y025840D03*
X013247Y025807D03*
X013247Y025740D03*
X013247Y025707D03*
X013247Y025640D03*
X015281Y025640D03*
X015281Y025607D03*
X015281Y025540D03*
X015281Y025507D03*
X015281Y025440D03*
X015281Y025407D03*
X015281Y025340D03*
X015281Y025307D03*
X015281Y025707D03*
X015281Y025740D03*
X015281Y025807D03*
X015281Y025840D03*
X015281Y025907D03*
X015281Y025940D03*
X015281Y026007D03*
X015281Y026040D03*
X015281Y026107D03*
X015281Y026140D03*
X015281Y026207D03*
X015281Y026240D03*
X015281Y026307D03*
X015281Y026340D03*
X015747Y026440D03*
X015947Y025907D03*
X015981Y025807D03*
X016481Y025807D03*
X016481Y025840D03*
X016481Y025907D03*
X016481Y025940D03*
X016481Y026007D03*
X016481Y026040D03*
X016481Y026107D03*
X016481Y026140D03*
X016481Y026207D03*
X016481Y026240D03*
X016481Y026307D03*
X016481Y026340D03*
X016481Y026407D03*
X016481Y026440D03*
X016481Y026507D03*
X016481Y026540D03*
X016481Y026607D03*
X016481Y026640D03*
X016481Y026707D03*
X016481Y026740D03*
X016481Y026807D03*
X016481Y026840D03*
X017181Y026507D03*
X017181Y026440D03*
X017181Y026407D03*
X017181Y026340D03*
X017181Y026307D03*
X017181Y025907D03*
X017181Y025840D03*
X017181Y025807D03*
X017181Y025740D03*
X017181Y025707D03*
X017181Y025640D03*
X016481Y025740D03*
X019381Y025807D03*
X019347Y026340D03*
X020581Y026340D03*
X020581Y026307D03*
X020581Y026240D03*
X020581Y026207D03*
X020581Y026140D03*
X020581Y026107D03*
X020581Y026040D03*
X020581Y026007D03*
X020581Y025940D03*
X020581Y025907D03*
X020581Y025840D03*
X020581Y025807D03*
X020581Y025740D03*
X020581Y025707D03*
X020581Y025640D03*
X020581Y025607D03*
X020581Y025540D03*
X020581Y025507D03*
X020581Y025440D03*
X020581Y025407D03*
X020581Y025340D03*
X020581Y025307D03*
X020581Y026407D03*
X020581Y026440D03*
X020581Y026507D03*
X026181Y023007D03*
X020147Y019707D03*
X020147Y019640D03*
X020147Y019607D03*
X019647Y018940D03*
X019147Y019540D03*
X019147Y019707D03*
X019147Y019740D03*
X024881Y016640D03*
X028447Y016340D03*
X028447Y016307D03*
X028447Y016240D03*
X028447Y016207D03*
X029447Y016240D03*
X029447Y016307D03*
X029447Y016340D03*
X011681Y017907D03*
X010881Y017907D03*
X010847Y017940D03*
X011281Y018707D03*
D28*
X013731Y018807D03*
X013797Y018907D03*
X013831Y018940D03*
X013897Y019040D03*
X013931Y019107D03*
X014031Y019207D03*
X014031Y019240D03*
X014097Y019307D03*
X014197Y019440D03*
X014231Y019507D03*
X014297Y019607D03*
X014331Y019640D03*
X014397Y019707D03*
X014397Y019740D03*
X014497Y019840D03*
X014531Y019907D03*
X014697Y019840D03*
X015131Y020007D03*
X015731Y020240D03*
X015897Y020307D03*
X016831Y020140D03*
X017097Y019640D03*
X017031Y019540D03*
X016997Y019507D03*
X016931Y019407D03*
X016797Y019240D03*
X016797Y019207D03*
X016731Y019140D03*
X016697Y019107D03*
X016631Y019007D03*
X016597Y018940D03*
X016497Y018807D03*
X016431Y018740D03*
X015897Y018640D03*
X015297Y018407D03*
X015097Y018640D03*
X014597Y017940D03*
X017231Y019807D03*
X022531Y019307D03*
X023031Y018340D03*
X023131Y018240D03*
X023231Y018140D03*
X023331Y018040D03*
X023397Y018007D03*
X023531Y017907D03*
X023131Y017540D03*
X022997Y017640D03*
X022931Y017707D03*
X022897Y017740D03*
X024297Y017740D03*
X024897Y019440D03*
X024697Y019507D03*
X024631Y019540D03*
X024631Y019840D03*
X024597Y019907D03*
X024597Y020107D03*
X025131Y020207D03*
X025197Y020107D03*
X024231Y020540D03*
X024031Y020207D03*
X022531Y020640D03*
X022431Y021740D03*
X022731Y022107D03*
X022831Y022207D03*
X022997Y022340D03*
X023131Y022440D03*
X023331Y021940D03*
X023297Y021907D03*
X025497Y022240D03*
X025531Y022340D03*
X026531Y022540D03*
X026731Y022407D03*
X026797Y022340D03*
X026931Y022240D03*
X027031Y022140D03*
X027131Y022040D03*
X026797Y017640D03*
X025531Y014240D03*
X025497Y014207D03*
X025397Y014040D03*
X025397Y014007D03*
X025331Y013840D03*
X025331Y013807D03*
X025297Y013740D03*
X025297Y013707D03*
X025297Y012340D03*
X025297Y012307D03*
X025397Y012040D03*
X025431Y011940D03*
X025597Y011707D03*
X029531Y011607D03*
X029831Y012040D03*
X029931Y012407D03*
X029931Y012440D03*
X029931Y013607D03*
X029897Y013740D03*
X029797Y014040D03*
X029697Y014207D03*
X029697Y014240D03*
X017797Y002340D03*
X017497Y002340D03*
X017497Y002307D03*
X017497Y002240D03*
X017497Y002207D03*
X017497Y002140D03*
X017497Y002107D03*
X017497Y002040D03*
X017497Y002007D03*
X017497Y001940D03*
X017497Y001907D03*
X017497Y001840D03*
X017497Y001807D03*
X017497Y001740D03*
X017497Y001707D03*
X017497Y001640D03*
X017497Y001607D03*
X017497Y001540D03*
X017497Y001507D03*
X017497Y001440D03*
X017497Y001407D03*
X017497Y001340D03*
X016497Y001340D03*
X016497Y001407D03*
X016497Y001440D03*
X016497Y001507D03*
X016497Y001540D03*
X016497Y001607D03*
X016497Y001640D03*
X016497Y001707D03*
X016497Y001740D03*
X016497Y001807D03*
X016497Y001840D03*
X016497Y001907D03*
X016497Y001940D03*
X016497Y002007D03*
X016497Y002040D03*
X016497Y002107D03*
X016497Y002140D03*
X016497Y002207D03*
X016497Y002240D03*
X016497Y002307D03*
X016497Y002340D03*
X016197Y002340D03*
X016197Y002307D03*
X016197Y002240D03*
X016197Y002207D03*
X016197Y002140D03*
X016197Y002107D03*
X016197Y002040D03*
X016197Y002007D03*
X016197Y001940D03*
X016197Y001507D03*
X016197Y001440D03*
X016197Y001407D03*
X016197Y001340D03*
X016797Y002340D03*
X014197Y001340D03*
X013897Y001340D03*
X013897Y001407D03*
X013897Y001440D03*
X013897Y001507D03*
X013897Y001540D03*
X013897Y001607D03*
X013897Y001640D03*
X013897Y001707D03*
X013897Y001740D03*
X013897Y001807D03*
X013897Y001840D03*
X013897Y001907D03*
X013897Y001940D03*
X013897Y002007D03*
X013897Y002040D03*
X013897Y002107D03*
X013897Y002140D03*
X013897Y002207D03*
X013897Y002240D03*
X013897Y002307D03*
X013897Y002340D03*
X013897Y002407D03*
X013897Y002440D03*
X007831Y017440D03*
X007931Y017507D03*
X008197Y017707D03*
X008231Y017740D03*
X008297Y017807D03*
X008331Y017840D03*
X008397Y017907D03*
X008431Y017940D03*
X008497Y018007D03*
X006831Y017640D03*
X006497Y019207D03*
X006431Y019507D03*
X006497Y019840D03*
X006531Y019940D03*
X006497Y020107D03*
X006497Y020140D03*
X005931Y020140D03*
X005897Y020040D03*
X005897Y019907D03*
X005931Y019840D03*
X005931Y019807D03*
X005997Y019507D03*
X004931Y017840D03*
X004831Y017907D03*
X004697Y018007D03*
X004631Y018040D03*
X004531Y018140D03*
X004231Y017707D03*
X004297Y017640D03*
X004331Y017607D03*
X004431Y017540D03*
X004631Y017407D03*
X003897Y018040D03*
X003831Y019340D03*
X004397Y021707D03*
X004431Y021740D03*
X004497Y021807D03*
X004531Y021840D03*
X004797Y022040D03*
X004897Y022107D03*
X004531Y022507D03*
X004397Y022407D03*
X004297Y022340D03*
X004197Y022240D03*
X003997Y022040D03*
X003897Y021940D03*
X003797Y021807D03*
X008031Y022407D03*
X008097Y022340D03*
X008131Y022307D03*
X008231Y022240D03*
X008331Y022140D03*
X008431Y022040D03*
X008597Y021840D03*
D29*
X008397Y022074D03*
X008297Y022174D03*
X007931Y022474D03*
X008131Y021574D03*
X006531Y019974D03*
X006497Y019874D03*
X005897Y019874D03*
X005897Y020074D03*
X005331Y019774D03*
X004497Y018174D03*
X004597Y018074D03*
X004731Y017974D03*
X004397Y017574D03*
X004531Y017474D03*
X006831Y017674D03*
X007897Y017474D03*
X008031Y017574D03*
X004697Y021974D03*
X004831Y022074D03*
X004497Y022474D03*
X004231Y022274D03*
X003931Y021974D03*
X005597Y022274D03*
X013697Y018774D03*
X013831Y018974D03*
X013931Y019074D03*
X013997Y019174D03*
X014131Y019374D03*
X014297Y019574D03*
X014431Y019774D03*
X014497Y019874D03*
X015297Y020074D03*
X016331Y020674D03*
X017197Y019774D03*
X017131Y019674D03*
X016897Y019374D03*
X016831Y019274D03*
X016697Y019074D03*
X016531Y018874D03*
X016231Y018774D03*
X015731Y018574D03*
X022531Y021874D03*
X022697Y022074D03*
X022797Y022174D03*
X023031Y022374D03*
X024631Y020174D03*
X024597Y019874D03*
X025197Y019874D03*
X025131Y020474D03*
X025197Y020774D03*
X025531Y022374D03*
X026631Y022474D03*
X026897Y022274D03*
X026997Y022174D03*
X027097Y022074D03*
X027231Y019074D03*
X026797Y018374D03*
X027231Y018074D03*
X026831Y017674D03*
X026697Y017574D03*
X023431Y017974D03*
X023297Y018074D03*
X023197Y018174D03*
X023097Y017574D03*
X023231Y017474D03*
X025631Y014374D03*
X025497Y014174D03*
X025431Y014074D03*
X025531Y011774D03*
X029497Y011574D03*
X029731Y011874D03*
X029831Y012074D03*
X029897Y012274D03*
X029931Y013674D03*
X017497Y002274D03*
X017497Y002174D03*
X017497Y002074D03*
X017497Y001974D03*
X017497Y001874D03*
X017497Y001774D03*
X017497Y001674D03*
X017497Y001574D03*
X017497Y001474D03*
X017497Y001374D03*
X016497Y001374D03*
X016497Y001474D03*
X016497Y001574D03*
X016497Y001674D03*
X016497Y001774D03*
X016497Y001874D03*
X016497Y001974D03*
X016497Y002074D03*
X016497Y002174D03*
X016497Y002274D03*
X016197Y002274D03*
X016197Y002174D03*
X016197Y002074D03*
X016197Y001974D03*
X016197Y001474D03*
X016197Y001374D03*
X014197Y001374D03*
X013897Y001374D03*
X013897Y001474D03*
X013897Y001574D03*
X013897Y001674D03*
X013897Y001774D03*
X013897Y001874D03*
X013897Y001974D03*
X013897Y002074D03*
X013897Y002174D03*
X013897Y002274D03*
X013897Y002374D03*
X013897Y002474D03*
D30*
X015114Y001807D03*
X005114Y008207D03*
X002614Y016807D03*
X002714Y016940D03*
X003414Y017907D03*
X003814Y017740D03*
X003914Y017640D03*
X005014Y017207D03*
X007214Y017140D03*
X008814Y018007D03*
X006214Y019440D03*
X006214Y020340D03*
X005814Y021507D03*
X004114Y022507D03*
X003914Y022340D03*
X003714Y022107D03*
X004414Y019507D03*
X007714Y021507D03*
X008514Y022307D03*
X008614Y022207D03*
X008714Y022107D03*
X008414Y022407D03*
X016714Y020407D03*
X016814Y020340D03*
X020514Y019307D03*
X020614Y019207D03*
X020714Y019107D03*
X021114Y018640D03*
X021214Y018540D03*
X021414Y018307D03*
X021514Y018207D03*
X022014Y017640D03*
X022114Y017540D03*
X022314Y017307D03*
X022414Y017207D03*
X022614Y017640D03*
X022514Y017740D03*
X022914Y016640D03*
X023014Y016540D03*
X023214Y016307D03*
X023314Y016207D03*
X023914Y017707D03*
X022614Y020607D03*
X022314Y022007D03*
X022414Y022140D03*
X022514Y022240D03*
X022614Y022340D03*
X022714Y022440D03*
X025914Y022840D03*
X026014Y022807D03*
X027114Y022407D03*
X027214Y022307D03*
X027314Y022207D03*
X028314Y017740D03*
X028714Y017240D03*
X028814Y017107D03*
X029214Y011340D03*
D31*
X025414Y012540D03*
X025414Y012907D03*
X024314Y017040D03*
X023614Y023007D03*
X016014Y025707D03*
X011514Y025707D03*
X011514Y025740D03*
X011514Y025807D03*
X011514Y025840D03*
X011514Y025640D03*
X011514Y025607D03*
X011514Y025540D03*
X011514Y025507D03*
X011514Y025440D03*
X011514Y025407D03*
X011514Y025340D03*
X011514Y025307D03*
X011514Y026307D03*
X011514Y026340D03*
X011514Y026407D03*
X011514Y026440D03*
X011514Y026507D03*
X011514Y026540D03*
X011514Y026607D03*
X011514Y026640D03*
X011514Y026707D03*
X011514Y026740D03*
X011514Y026807D03*
X011514Y026840D03*
X005614Y022940D03*
X005014Y016940D03*
X002914Y015840D03*
X002914Y015807D03*
X002914Y015740D03*
X002914Y015707D03*
X001914Y015707D03*
X001914Y015740D03*
X001914Y015807D03*
X001914Y015840D03*
X011714Y017940D03*
X011714Y018240D03*
X016014Y001807D03*
D32*
X015114Y001840D03*
X005514Y007407D03*
X004714Y007807D03*
X005514Y014707D03*
X006314Y014740D03*
X006314Y015107D03*
X006214Y020307D03*
X007614Y022940D03*
X023414Y022907D03*
X024714Y015907D03*
X024714Y015540D03*
X023814Y015707D03*
X025414Y013640D03*
X025514Y012007D03*
X029614Y014140D03*
D33*
X025414Y012574D03*
X023814Y015774D03*
X011514Y025274D03*
X011514Y025374D03*
X011514Y025474D03*
X011514Y025574D03*
X011514Y025674D03*
X011514Y025774D03*
X011514Y025874D03*
X011514Y026374D03*
X011514Y026474D03*
X011514Y026574D03*
X011514Y026674D03*
X011514Y026774D03*
X011514Y026874D03*
X006214Y019674D03*
X006214Y019474D03*
X002914Y015774D03*
X001914Y015774D03*
X001914Y015674D03*
X015114Y001874D03*
D34*
X015264Y001907D03*
X015264Y001940D03*
X014964Y001940D03*
X014964Y002007D03*
X014964Y002040D03*
X014964Y002107D03*
X014964Y002140D03*
X014964Y002207D03*
X014964Y002240D03*
X014964Y002307D03*
X014964Y002340D03*
X014964Y002407D03*
X014964Y002440D03*
X025464Y011907D03*
X025564Y011740D03*
X025364Y012107D03*
X025264Y012507D03*
X025264Y012940D03*
X025264Y013540D03*
X025464Y014107D03*
X025664Y014407D03*
X026464Y017407D03*
X026664Y017540D03*
X026764Y017607D03*
X026864Y017707D03*
X027264Y018107D03*
X026764Y018340D03*
X025164Y019540D03*
X025164Y019807D03*
X024664Y020207D03*
X023464Y022040D03*
X023564Y022107D03*
X023264Y022540D03*
X023064Y022407D03*
X022964Y022307D03*
X022864Y022240D03*
X022764Y022140D03*
X023064Y018307D03*
X023164Y018207D03*
X023264Y018107D03*
X022464Y018207D03*
X026964Y022207D03*
X027064Y022107D03*
X027164Y022007D03*
X029764Y014107D03*
X029864Y013807D03*
X029964Y013240D03*
X029964Y013207D03*
X029964Y013040D03*
X029964Y013007D03*
X029964Y012840D03*
X029964Y012807D03*
X029864Y012140D03*
X029764Y011940D03*
X017264Y019840D03*
X017164Y019740D03*
X017164Y019707D03*
X016964Y019440D03*
X016864Y019307D03*
X016664Y019040D03*
X016564Y018907D03*
X016164Y018740D03*
X014864Y018240D03*
X014764Y018707D03*
X014164Y019407D03*
X014264Y019540D03*
X014464Y019807D03*
X014864Y019907D03*
X013964Y019140D03*
X013864Y019007D03*
X013664Y018740D03*
X014064Y018507D03*
X016164Y020407D03*
X008364Y022107D03*
X008264Y022207D03*
X007964Y022440D03*
X008164Y021540D03*
X006464Y019807D03*
X004564Y018107D03*
X004464Y018207D03*
X008064Y017607D03*
X004664Y021940D03*
X004264Y022307D03*
X004164Y022207D03*
X003964Y022007D03*
X005464Y012907D03*
D35*
X005464Y012874D03*
X004264Y017674D03*
X003864Y018074D03*
X006464Y020174D03*
X004564Y021874D03*
X004464Y021774D03*
X004364Y021674D03*
X004364Y022374D03*
X007764Y022574D03*
X008064Y022374D03*
X008464Y017974D03*
X008364Y017874D03*
X008264Y017774D03*
X008164Y017674D03*
X013764Y018874D03*
X014064Y019274D03*
X014364Y019674D03*
X015464Y018474D03*
X016464Y018774D03*
X016764Y019174D03*
X017064Y019574D03*
X022564Y018074D03*
X022964Y017674D03*
X025164Y020174D03*
X024664Y020474D03*
X023264Y021874D03*
X023364Y021974D03*
X023164Y021774D03*
X023164Y022474D03*
X026764Y022374D03*
X026564Y017474D03*
X029664Y014274D03*
X029864Y013874D03*
X029964Y013274D03*
X029964Y013174D03*
X029964Y013074D03*
X029964Y012974D03*
X029964Y012874D03*
X029964Y012774D03*
X029964Y012674D03*
X029664Y011774D03*
X025464Y011874D03*
X025364Y012074D03*
X025264Y012474D03*
X014964Y002474D03*
X014964Y002374D03*
X014964Y002274D03*
X014964Y002174D03*
X014964Y002074D03*
X014964Y001974D03*
D36*
X005097Y006974D03*
X013531Y002474D03*
X013531Y002374D03*
X017131Y002374D03*
X017131Y002474D03*
X022931Y017374D03*
X022797Y017474D03*
X022697Y017574D03*
X023497Y020374D03*
X023631Y021274D03*
X023531Y021374D03*
X023431Y021474D03*
X025831Y022874D03*
X026931Y022574D03*
X026231Y018674D03*
X026997Y017474D03*
X027797Y018374D03*
X015197Y018774D03*
X014631Y019974D03*
X008431Y017574D03*
X006797Y017574D03*
X004997Y018774D03*
X004897Y018674D03*
X004797Y018574D03*
X004697Y018474D03*
X004297Y019474D03*
X005031Y019674D03*
X005797Y021474D03*
X005497Y022374D03*
X005331Y022874D03*
X004331Y022674D03*
X004197Y022574D03*
X007097Y022874D03*
X008231Y022574D03*
X008331Y022474D03*
X007597Y021374D03*
X007497Y021274D03*
X004231Y017374D03*
X004097Y017474D03*
D37*
X005547Y014674D03*
X006247Y014674D03*
X007481Y016974D03*
X011281Y017474D03*
X011681Y018274D03*
X012547Y025274D03*
X013247Y025674D03*
X013247Y025774D03*
X013247Y025874D03*
X013247Y026274D03*
X013247Y026374D03*
X013247Y026474D03*
X015281Y026374D03*
X015281Y026274D03*
X015281Y026174D03*
X015281Y026074D03*
X015281Y025974D03*
X015281Y025874D03*
X015281Y025774D03*
X015281Y025674D03*
X015281Y025574D03*
X015281Y025474D03*
X015281Y025374D03*
X015281Y025274D03*
X015881Y026074D03*
X015847Y026174D03*
X016481Y026174D03*
X016481Y026274D03*
X016481Y026374D03*
X016481Y026474D03*
X016481Y026574D03*
X016481Y026674D03*
X016481Y026774D03*
X016481Y026874D03*
X016481Y026074D03*
X016481Y025974D03*
X016481Y025874D03*
X016481Y025774D03*
X017181Y025774D03*
X017181Y025874D03*
X017181Y025674D03*
X017181Y026274D03*
X017181Y026374D03*
X017181Y026474D03*
X019347Y025874D03*
X020581Y025874D03*
X020581Y025974D03*
X020581Y026074D03*
X020581Y026174D03*
X020581Y026274D03*
X020581Y026374D03*
X020581Y026474D03*
X020581Y025774D03*
X020581Y025674D03*
X020581Y025574D03*
X020581Y025474D03*
X020581Y025374D03*
X020581Y025274D03*
X024247Y020674D03*
X023647Y016974D03*
X023947Y015974D03*
X024647Y015974D03*
X024681Y015474D03*
X026147Y016974D03*
X028447Y016374D03*
X028447Y016274D03*
X028947Y016974D03*
X029447Y016274D03*
X020147Y019674D03*
X019147Y019574D03*
X010481Y025274D03*
X010481Y025374D03*
X010481Y025474D03*
X010481Y025574D03*
X010481Y025674D03*
X010481Y025774D03*
X010481Y025874D03*
X010481Y025974D03*
X010481Y026074D03*
X010481Y026174D03*
X010481Y026274D03*
X010481Y026374D03*
X010481Y026474D03*
X016047Y002374D03*
X016647Y002374D03*
X017647Y002374D03*
D38*
X017131Y002407D03*
X017131Y002440D03*
X013531Y002440D03*
X013531Y002407D03*
X025597Y011807D03*
X026031Y014707D03*
X023931Y017140D03*
X024197Y017607D03*
X024497Y018507D03*
X024897Y019640D03*
X024897Y020340D03*
X024897Y020540D03*
X024231Y020607D03*
X023731Y020307D03*
X023631Y020340D03*
X023697Y021207D03*
X023597Y021307D03*
X023497Y021407D03*
X022797Y022507D03*
X022831Y022540D03*
X022931Y022607D03*
X025497Y022407D03*
X026831Y022640D03*
X026997Y022507D03*
X027031Y017507D03*
X026897Y017407D03*
X023031Y017307D03*
X022897Y017407D03*
X022731Y017540D03*
X016297Y018640D03*
X016297Y020440D03*
X008297Y022507D03*
X008131Y022640D03*
X007197Y022840D03*
X007631Y021407D03*
X007531Y021307D03*
X005297Y022307D03*
X005131Y022807D03*
X005231Y022840D03*
X004031Y022440D03*
X003997Y022407D03*
X004931Y019640D03*
X004797Y019607D03*
X004931Y018707D03*
X004831Y018607D03*
X004731Y018507D03*
X004031Y017540D03*
X004131Y017440D03*
X004197Y017407D03*
X003531Y018040D03*
X005197Y017140D03*
X005297Y017107D03*
X007131Y017107D03*
X008097Y017307D03*
X008231Y017407D03*
X008397Y017540D03*
X028997Y011240D03*
X029897Y013107D03*
X029897Y013140D03*
X029897Y013307D03*
X029897Y013340D03*
D39*
X026297Y017040D03*
X026231Y017007D03*
X025497Y017040D03*
X024697Y015940D03*
X024697Y015507D03*
X023897Y015507D03*
X023797Y015740D03*
X023931Y015940D03*
X024297Y016307D03*
X023564Y017007D03*
X023497Y017040D03*
X025931Y019007D03*
X024897Y020307D03*
X023931Y019807D03*
X023464Y022940D03*
X025564Y022940D03*
X026331Y022940D03*
X016497Y025707D03*
X015264Y026407D03*
X015264Y026440D03*
X015264Y026507D03*
X016297Y020607D03*
X014631Y018007D03*
X011731Y018007D03*
X011731Y018040D03*
X011731Y018107D03*
X011731Y018140D03*
X011731Y018207D03*
X010831Y018107D03*
X010831Y018040D03*
X010831Y018007D03*
X007631Y017040D03*
X007564Y017007D03*
X006864Y017040D03*
X005964Y015540D03*
X006297Y015140D03*
X006297Y014707D03*
X005897Y014340D03*
X005497Y015140D03*
X004864Y017007D03*
X006197Y020507D03*
X005731Y021407D03*
X005464Y022340D03*
X004797Y022940D03*
X006831Y022940D03*
X007464Y023007D03*
X005497Y007807D03*
X016031Y002407D03*
X016664Y002407D03*
X017664Y002407D03*
X025464Y012207D03*
D40*
X023347Y016174D03*
X023247Y016274D03*
X023147Y016374D03*
X022981Y016574D03*
X022881Y016674D03*
X022447Y017174D03*
X022347Y017274D03*
X022181Y017474D03*
X022081Y017574D03*
X021981Y017674D03*
X022247Y018074D03*
X022481Y017774D03*
X022581Y017674D03*
X021547Y018174D03*
X021447Y018274D03*
X021281Y018474D03*
X021181Y018574D03*
X021081Y018674D03*
X020647Y019174D03*
X020547Y019274D03*
X022747Y020574D03*
X022447Y022174D03*
X022547Y022274D03*
X022647Y022374D03*
X025347Y021674D03*
X027047Y022474D03*
X027147Y022374D03*
X027247Y022274D03*
X027347Y022174D03*
X027247Y020674D03*
X026647Y019874D03*
X026881Y019574D03*
X027181Y019174D03*
X026647Y018274D03*
X027481Y017974D03*
X028047Y018074D03*
X028447Y017574D03*
X028681Y017274D03*
X025981Y017174D03*
X024481Y018474D03*
X023981Y017674D03*
X029881Y013474D03*
X017647Y002474D03*
X016647Y002474D03*
X016047Y002474D03*
X002447Y016574D03*
X002881Y017174D03*
X003247Y017674D03*
X003547Y018074D03*
X003781Y017774D03*
X003881Y017674D03*
X003981Y017574D03*
X005281Y017674D03*
X005781Y021574D03*
X007381Y022774D03*
X008447Y022374D03*
X008547Y022274D03*
X008647Y022174D03*
X007781Y021574D03*
X007681Y021474D03*
X003847Y022274D03*
X003781Y022174D03*
X003681Y022074D03*
X013981Y018374D03*
X014647Y018174D03*
X016347Y018674D03*
D41*
X019264Y019907D03*
X024031Y023140D03*
X025897Y019107D03*
X028564Y016007D03*
X029331Y016007D03*
X025497Y012740D03*
X025497Y012707D03*
X010764Y018240D03*
X005764Y017007D03*
X005597Y019240D03*
X005664Y021307D03*
X005097Y007040D03*
D42*
X005114Y007074D03*
X010681Y018174D03*
X005647Y021274D03*
X019647Y020274D03*
X023014Y019474D03*
X024314Y020774D03*
X025881Y019174D03*
D43*
X026064Y019707D03*
X026064Y019740D03*
X026064Y020240D03*
X026064Y020307D03*
X026497Y020440D03*
X019631Y020240D03*
X019431Y022607D03*
X019431Y022640D03*
X019431Y022707D03*
X019431Y022740D03*
X019431Y022807D03*
X019431Y022840D03*
X019431Y022907D03*
X019431Y022940D03*
X019431Y023007D03*
X019431Y023040D03*
X019431Y023107D03*
X019431Y023140D03*
X019431Y023740D03*
X019431Y023807D03*
X019431Y023840D03*
X019431Y023907D03*
X019431Y023940D03*
X019431Y024007D03*
X019431Y024040D03*
X019431Y024107D03*
X019431Y024140D03*
X019431Y024207D03*
X019431Y024240D03*
X018264Y023940D03*
X018264Y023640D03*
X016531Y023640D03*
X016531Y023607D03*
X016531Y023540D03*
X016531Y023507D03*
X016531Y023440D03*
X016531Y023407D03*
X016531Y023707D03*
X016531Y023740D03*
X016531Y023807D03*
X016531Y023840D03*
X016531Y023907D03*
X016531Y023940D03*
X016531Y024007D03*
X016531Y024040D03*
X016531Y024107D03*
X016531Y024140D03*
X016531Y024207D03*
X016531Y024240D03*
X016297Y025407D03*
X016297Y025440D03*
X015464Y026707D03*
X015464Y026740D03*
X012131Y024907D03*
X012131Y024840D03*
X012131Y024807D03*
X012131Y024740D03*
X012131Y024707D03*
X012131Y024640D03*
X012131Y024607D03*
X012131Y024540D03*
X012131Y024507D03*
X012131Y024440D03*
X012131Y024407D03*
X012131Y024340D03*
X012131Y024307D03*
X012131Y024240D03*
X012131Y024207D03*
X012131Y024140D03*
X012131Y024107D03*
X012131Y024040D03*
X012131Y024007D03*
X012131Y023940D03*
X012131Y023907D03*
X012131Y023840D03*
X012131Y023807D03*
X012131Y023040D03*
X012131Y023007D03*
X012131Y022940D03*
X012131Y022907D03*
X012131Y022840D03*
X012131Y022807D03*
X012131Y022740D03*
X012131Y022707D03*
X012131Y022640D03*
X012131Y022607D03*
X012131Y022540D03*
X012131Y022507D03*
X012131Y022440D03*
X012131Y022407D03*
X012131Y022340D03*
X012131Y022307D03*
X012131Y022240D03*
X012131Y022207D03*
X012131Y022140D03*
X012131Y022107D03*
X012131Y022040D03*
X012131Y022007D03*
X012131Y021940D03*
X012131Y021907D03*
X010264Y021907D03*
X010264Y021940D03*
X010264Y022007D03*
X010264Y022040D03*
X010264Y022107D03*
X010264Y022140D03*
X010264Y022207D03*
X010264Y022240D03*
X010264Y022307D03*
X010264Y022340D03*
X010264Y022407D03*
X010264Y022440D03*
X010264Y022507D03*
X010264Y022540D03*
X010264Y022607D03*
X010264Y022640D03*
X010264Y022707D03*
X010264Y022740D03*
X010264Y022807D03*
X010264Y022840D03*
X010264Y022907D03*
X010264Y022940D03*
X010264Y023007D03*
X010264Y023040D03*
X010264Y023807D03*
X010264Y023840D03*
X010264Y023907D03*
X010264Y023940D03*
X010264Y024007D03*
X010264Y024040D03*
X010264Y024107D03*
X010264Y024140D03*
X010264Y024207D03*
X010264Y024240D03*
X010264Y024307D03*
X010264Y024340D03*
X010264Y024407D03*
X010264Y024440D03*
X010264Y024507D03*
X010264Y024540D03*
X010264Y024607D03*
X010264Y024640D03*
X010264Y024707D03*
X010264Y024740D03*
X010264Y024807D03*
X010264Y024840D03*
X010264Y024907D03*
X007364Y020240D03*
X007397Y020140D03*
X007397Y020107D03*
X007397Y020040D03*
X007397Y020007D03*
X007397Y019940D03*
X007397Y019907D03*
X007364Y019740D03*
X007364Y019707D03*
X007797Y019540D03*
X005597Y021207D03*
X005497Y016807D03*
X005897Y015407D03*
X006897Y016807D03*
X005164Y008107D03*
X005097Y007107D03*
X016531Y021907D03*
X016531Y021940D03*
X016531Y022007D03*
X016531Y022040D03*
X016531Y022107D03*
X016531Y022140D03*
X016531Y022207D03*
X016531Y022240D03*
X016531Y022307D03*
X016531Y022340D03*
X016531Y022407D03*
X016531Y022440D03*
X016531Y022507D03*
X016531Y022540D03*
X016531Y022607D03*
X016531Y022640D03*
X019097Y026007D03*
X019097Y026207D03*
X029531Y012207D03*
D44*
X029431Y012007D03*
X025531Y016807D03*
X025997Y019540D03*
X026131Y020107D03*
X026131Y020140D03*
X023897Y019407D03*
X018231Y024140D03*
X019097Y025940D03*
X019097Y026240D03*
X015497Y026540D03*
X015297Y024040D03*
X015297Y024007D03*
X015297Y022907D03*
X015297Y022840D03*
X015297Y022807D03*
X013397Y022740D03*
X013397Y022707D03*
X013397Y024040D03*
X007297Y020440D03*
X005197Y020540D03*
X005031Y020307D03*
X005097Y007140D03*
D45*
X005097Y007174D03*
X007231Y020574D03*
X015231Y024174D03*
X019631Y019074D03*
X023931Y019374D03*
X025897Y019374D03*
X029531Y012374D03*
D46*
X028931Y015740D03*
X026197Y019940D03*
X019631Y019107D03*
X015331Y019207D03*
X013464Y022607D03*
X013497Y024207D03*
X015197Y024207D03*
X005897Y015307D03*
X005864Y014507D03*
X004997Y020340D03*
X005331Y020707D03*
X005097Y007207D03*
D47*
X005114Y007240D03*
X002414Y015240D03*
X006214Y018507D03*
X006214Y023007D03*
X006214Y023307D03*
X029514Y012740D03*
X029514Y012707D03*
D48*
X024914Y022474D03*
X005547Y020974D03*
X004947Y020374D03*
X002414Y015274D03*
X005114Y007274D03*
D49*
X004714Y007374D03*
X005514Y007774D03*
X004714Y017074D03*
X007714Y017074D03*
X010814Y018074D03*
X024714Y015874D03*
X025414Y012374D03*
D50*
X025464Y012174D03*
X025364Y013474D03*
X023864Y015574D03*
X024764Y015674D03*
X024764Y015774D03*
X024164Y017074D03*
X025664Y017074D03*
X026564Y017174D03*
X026464Y022874D03*
X023164Y022774D03*
X016164Y020574D03*
X015364Y018274D03*
X010164Y017974D03*
X009664Y017674D03*
X008964Y017274D03*
X008464Y016974D03*
X007764Y016574D03*
X007264Y016274D03*
X006564Y015874D03*
X006064Y015574D03*
X006364Y014974D03*
X006364Y014874D03*
X005464Y015074D03*
X005564Y007674D03*
X005564Y007574D03*
X004664Y007674D03*
X004664Y007474D03*
X004664Y022874D03*
D51*
X007747Y022874D03*
X003547Y017974D03*
X005481Y014774D03*
X004681Y007774D03*
X004647Y007574D03*
X005547Y007474D03*
X015247Y018874D03*
X024747Y015574D03*
X026381Y017074D03*
X028947Y015574D03*
D52*
X023864Y019774D03*
X025364Y022974D03*
X020064Y019874D03*
X004764Y007874D03*
D53*
X005414Y007874D03*
X002881Y015574D03*
X002847Y015974D03*
X001981Y015974D03*
X001947Y015574D03*
X005581Y019274D03*
X005714Y021374D03*
X005147Y023074D03*
X007281Y023074D03*
X008414Y019374D03*
X018514Y025274D03*
X018581Y025374D03*
X018614Y025474D03*
X018681Y025574D03*
X019614Y025374D03*
X019681Y025274D03*
X018714Y026574D03*
X018614Y026774D03*
X018547Y026874D03*
X019514Y026674D03*
X019581Y026774D03*
X023814Y023074D03*
X024914Y020274D03*
X028481Y016474D03*
X029381Y016074D03*
D54*
X015764Y019640D03*
X005064Y007907D03*
D55*
X005047Y007940D03*
X011281Y017807D03*
X011281Y018407D03*
X015481Y019407D03*
X019647Y019207D03*
X017547Y026540D03*
X028947Y016707D03*
D56*
X026197Y014474D03*
X019631Y019174D03*
X015431Y019374D03*
X013597Y025974D03*
X013597Y026074D03*
X013597Y026174D03*
X017531Y026174D03*
X017531Y026074D03*
X017531Y025974D03*
X006197Y016974D03*
X005431Y020774D03*
X005031Y007974D03*
D57*
X005031Y008007D03*
X002397Y015307D03*
X005531Y020940D03*
X013597Y026007D03*
X013597Y026040D03*
X013597Y026107D03*
X013597Y026140D03*
X013597Y026207D03*
X013597Y026240D03*
X017531Y026240D03*
X017531Y026207D03*
X017531Y026140D03*
X017531Y026107D03*
X017531Y026040D03*
X017531Y026007D03*
X017531Y025940D03*
X023631Y019607D03*
X024131Y019207D03*
X024231Y019040D03*
X024397Y015307D03*
X024897Y023007D03*
D58*
X025464Y022107D03*
X025431Y022007D03*
X025397Y021840D03*
X025397Y021807D03*
X025364Y021740D03*
X025364Y021707D03*
X025331Y021640D03*
X025331Y021607D03*
X026364Y022640D03*
X026231Y022707D03*
X026164Y022740D03*
X027397Y022107D03*
X027464Y022040D03*
X027531Y021940D03*
X027564Y021907D03*
X027597Y021840D03*
X027631Y021807D03*
X027664Y021740D03*
X027697Y021707D03*
X027731Y021640D03*
X027764Y021607D03*
X027797Y021540D03*
X027797Y021507D03*
X027864Y021407D03*
X027931Y021240D03*
X028064Y020840D03*
X028131Y020540D03*
X028131Y019440D03*
X028064Y019140D03*
X028031Y019040D03*
X027997Y018940D03*
X027964Y018840D03*
X027931Y018740D03*
X027864Y018607D03*
X027831Y018540D03*
X027831Y018507D03*
X027797Y018440D03*
X027664Y018240D03*
X027597Y018140D03*
X027564Y018107D03*
X027531Y018040D03*
X027497Y018007D03*
X027431Y017907D03*
X027364Y017840D03*
X027931Y018240D03*
X027997Y018140D03*
X028031Y018107D03*
X028097Y018007D03*
X028164Y017940D03*
X028231Y017840D03*
X028264Y017807D03*
X028331Y017707D03*
X028397Y017640D03*
X028431Y017607D03*
X028464Y017540D03*
X028497Y017507D03*
X028631Y017340D03*
X028664Y017307D03*
X028731Y017207D03*
X028797Y017140D03*
X028864Y017040D03*
X028897Y017007D03*
X027197Y019140D03*
X027064Y019340D03*
X026997Y019407D03*
X026931Y019507D03*
X026897Y019540D03*
X026864Y019607D03*
X026831Y019640D03*
X026764Y019740D03*
X026697Y019807D03*
X026664Y019840D03*
X026631Y019907D03*
X025097Y020240D03*
X024697Y020240D03*
X024731Y019740D03*
X025064Y019740D03*
X024464Y018340D03*
X024431Y018240D03*
X024431Y018207D03*
X024397Y018140D03*
X024397Y018107D03*
X024364Y018007D03*
X023831Y017740D03*
X023697Y017807D03*
X023664Y017240D03*
X023731Y017207D03*
X023097Y016440D03*
X023131Y016407D03*
X023364Y016140D03*
X023397Y016107D03*
X022831Y016740D03*
X022764Y016807D03*
X022497Y017107D03*
X022464Y017140D03*
X022231Y017407D03*
X022197Y017440D03*
X021964Y017707D03*
X021931Y017740D03*
X021664Y018040D03*
X021597Y018107D03*
X021331Y018407D03*
X021297Y018440D03*
X021064Y018707D03*
X021031Y018740D03*
X020797Y019007D03*
X020764Y019040D03*
X020497Y019340D03*
X021764Y019040D03*
X021797Y018940D03*
X021831Y018840D03*
X021931Y018607D03*
X021964Y018540D03*
X022031Y018407D03*
X022064Y018340D03*
X022097Y018307D03*
X022131Y018240D03*
X022164Y018207D03*
X022197Y018140D03*
X022231Y018107D03*
X022264Y018040D03*
X022297Y018007D03*
X022431Y017840D03*
X022464Y017807D03*
X021631Y020240D03*
X021731Y020840D03*
X021764Y020940D03*
X021797Y021040D03*
X021831Y021140D03*
X021864Y021240D03*
X021897Y021307D03*
X021964Y021440D03*
X021997Y021507D03*
X021997Y021540D03*
X022064Y021640D03*
X022097Y021707D03*
X022131Y021740D03*
X022164Y021807D03*
X022197Y021840D03*
X022231Y021907D03*
X022264Y021940D03*
X022331Y022040D03*
X022397Y022107D03*
X023164Y021740D03*
X023197Y021707D03*
X023264Y021640D03*
X023297Y021607D03*
X023964Y022307D03*
X023631Y022740D03*
X023564Y022707D03*
X026131Y017240D03*
X026064Y017207D03*
X025897Y011407D03*
X025997Y011340D03*
X029297Y011407D03*
X029431Y011507D03*
X029464Y011540D03*
X017131Y020140D03*
X017031Y020207D03*
X016964Y020240D03*
X016864Y020307D03*
X016664Y020440D03*
X016564Y020507D03*
X016497Y020540D03*
X015031Y019640D03*
X014597Y019940D03*
X015164Y018740D03*
X015131Y018707D03*
X014397Y018107D03*
X014331Y018140D03*
X014231Y018207D03*
X014197Y018240D03*
X014097Y018307D03*
X014031Y018340D03*
X013931Y018407D03*
X013764Y018507D03*
X009364Y019107D03*
X009264Y018807D03*
X009231Y018707D03*
X009197Y018640D03*
X009131Y018507D03*
X009097Y018440D03*
X009031Y018340D03*
X009031Y018307D03*
X008964Y018207D03*
X008931Y018140D03*
X008897Y018107D03*
X008764Y017940D03*
X008731Y017907D03*
X008564Y019307D03*
X009464Y020340D03*
X009231Y021240D03*
X009197Y021307D03*
X009197Y021340D03*
X009164Y021407D03*
X009097Y021540D03*
X009064Y021607D03*
X009031Y021640D03*
X008997Y021707D03*
X008964Y021740D03*
X008931Y021807D03*
X008897Y021840D03*
X008864Y021907D03*
X008831Y021940D03*
X008764Y022040D03*
X007964Y021740D03*
X007864Y021640D03*
X007831Y021607D03*
X006031Y020240D03*
X006397Y019740D03*
X006631Y018407D03*
X006664Y018307D03*
X006664Y018240D03*
X006697Y018140D03*
X006697Y018107D03*
X006731Y018040D03*
X006731Y018007D03*
X006764Y017907D03*
X007397Y017207D03*
X007464Y017240D03*
X005197Y017707D03*
X004931Y017240D03*
X004464Y018240D03*
X004531Y018307D03*
X004564Y018340D03*
X004631Y018407D03*
X003764Y017807D03*
X003731Y017840D03*
X003531Y018107D03*
X003497Y018140D03*
X003464Y018207D03*
X003431Y018240D03*
X003397Y018307D03*
X003364Y018340D03*
X003331Y018407D03*
X003264Y018540D03*
X003231Y018607D03*
X003197Y018707D03*
X003131Y018840D03*
X002964Y019507D03*
X003031Y020807D03*
X003064Y020907D03*
X003131Y021107D03*
X003164Y021207D03*
X003264Y021407D03*
X003264Y021440D03*
X003297Y021507D03*
X003331Y021540D03*
X003364Y021607D03*
X003364Y021640D03*
X003431Y021707D03*
X003431Y021740D03*
X003497Y021807D03*
X003497Y021840D03*
X003564Y021907D03*
X003631Y022007D03*
X003664Y022040D03*
X003797Y022207D03*
X003831Y022240D03*
X004764Y022640D03*
X004897Y022707D03*
X004964Y022740D03*
X005131Y022240D03*
X005064Y022207D03*
X005531Y022407D03*
X005631Y022140D03*
X005664Y022007D03*
X005697Y021907D03*
X005697Y021840D03*
X005731Y021807D03*
X005731Y021740D03*
X005764Y021640D03*
X003364Y017840D03*
X003331Y017807D03*
X003297Y017740D03*
X003264Y017707D03*
X003231Y017640D03*
X003197Y017607D03*
X003131Y017507D03*
X003064Y017440D03*
X003064Y017407D03*
X002997Y017340D03*
X002931Y017240D03*
X002897Y017207D03*
X002864Y017140D03*
X002831Y017107D03*
X002797Y017040D03*
X002764Y017007D03*
X002697Y016907D03*
X002631Y016840D03*
X002564Y016740D03*
X002531Y016707D03*
X002497Y016640D03*
X002464Y016607D03*
X002431Y016540D03*
X002397Y016507D03*
X003031Y012507D03*
X003064Y012407D03*
X003097Y012307D03*
X003131Y012207D03*
X003164Y012107D03*
X003197Y012007D03*
X003231Y011907D03*
X003264Y011807D03*
X003297Y011707D03*
X003331Y011607D03*
X003364Y011507D03*
X003397Y011407D03*
X003431Y011307D03*
X003464Y011207D03*
X003497Y011107D03*
X003531Y011007D03*
X003564Y010907D03*
X003597Y010807D03*
X003631Y010707D03*
X003664Y010607D03*
X003697Y010507D03*
X003731Y010407D03*
X003764Y010307D03*
X003931Y009840D03*
X003964Y009740D03*
X003997Y009640D03*
X004031Y009540D03*
X004064Y009440D03*
X004097Y009340D03*
X004131Y009240D03*
X004164Y009140D03*
X004197Y009040D03*
X004231Y008940D03*
X004264Y008840D03*
X004297Y008740D03*
X004331Y008640D03*
X004364Y008540D03*
X004397Y008440D03*
X004431Y008340D03*
X004464Y008240D03*
X004497Y008140D03*
X004531Y008040D03*
D59*
X005114Y008040D03*
X002414Y016340D03*
X005581Y021140D03*
X007181Y020707D03*
X007247Y020540D03*
X007547Y019607D03*
X011281Y017607D03*
X015247Y019107D03*
X015247Y022707D03*
X015281Y022740D03*
X015247Y024140D03*
X016247Y025640D03*
X018214Y023440D03*
X019647Y020207D03*
X024281Y018840D03*
X026114Y020340D03*
X028947Y016840D03*
X028947Y015707D03*
X029314Y011840D03*
X029314Y011807D03*
X013414Y024107D03*
X013414Y024140D03*
D60*
X013397Y024074D03*
X015297Y023974D03*
X015297Y022874D03*
X018231Y023474D03*
X019097Y025974D03*
X019097Y026274D03*
X015497Y026574D03*
X015231Y019074D03*
X006831Y023174D03*
X005597Y021174D03*
X005897Y015374D03*
X002397Y015174D03*
X005131Y008074D03*
X023731Y019674D03*
X024297Y016174D03*
D61*
X025881Y019207D03*
X026081Y019807D03*
X026081Y019840D03*
X026081Y019907D03*
X023781Y019707D03*
X024881Y022507D03*
X019081Y026040D03*
X015447Y026807D03*
X015447Y026840D03*
X007947Y019507D03*
X007381Y019807D03*
X007381Y019840D03*
X007381Y020207D03*
X005181Y008140D03*
D62*
X024514Y021007D03*
X027614Y011040D03*
D63*
X027597Y011074D03*
X020131Y021974D03*
X020131Y022074D03*
X020131Y022174D03*
X020131Y022274D03*
X020131Y022374D03*
X020131Y022474D03*
X017231Y024774D03*
D64*
X017331Y024540D03*
X017331Y023007D03*
X014331Y024540D03*
X027597Y011107D03*
D65*
X027614Y011140D03*
D66*
X027614Y011174D03*
D67*
X027614Y011207D03*
D68*
X026214Y011240D03*
X025447Y013940D03*
X026247Y014807D03*
X025781Y017107D03*
X026614Y017207D03*
X026681Y017240D03*
X026781Y017307D03*
X026814Y017340D03*
X026647Y018307D03*
X026181Y018707D03*
X026147Y018740D03*
X026081Y018807D03*
X026047Y018840D03*
X025981Y018907D03*
X025947Y018940D03*
X027181Y019240D03*
X024014Y017107D03*
X023181Y017207D03*
X022981Y017340D03*
X026881Y022607D03*
X026747Y022707D03*
X026681Y022740D03*
X026581Y022807D03*
X023114Y022740D03*
X023047Y022707D03*
X016314Y020640D03*
X016081Y020540D03*
X015981Y020507D03*
X015814Y020440D03*
X015481Y020307D03*
X015314Y020240D03*
X015214Y020207D03*
X015047Y020140D03*
X014781Y020040D03*
X014714Y020007D03*
X015214Y018807D03*
X015447Y018307D03*
X015547Y018340D03*
X015714Y018407D03*
X016047Y018540D03*
X016214Y018607D03*
X015281Y018240D03*
X015181Y018207D03*
X015014Y018140D03*
X010281Y018040D03*
X009881Y017807D03*
X008147Y017340D03*
X007981Y017240D03*
X007714Y016540D03*
X007314Y016307D03*
X004481Y017207D03*
X004414Y017240D03*
X004314Y017307D03*
X004281Y017340D03*
X003547Y018007D03*
X005281Y020140D03*
X006214Y019640D03*
X007247Y021040D03*
X007314Y021107D03*
X007347Y021140D03*
X007414Y021207D03*
X007981Y022740D03*
X004447Y022740D03*
X004381Y022707D03*
X004281Y022640D03*
X004247Y022607D03*
X003914Y020640D03*
D69*
X027597Y011274D03*
D70*
X027597Y011307D03*
D71*
X025964Y011374D03*
X025831Y014574D03*
X025964Y014674D03*
X023431Y016074D03*
X023064Y016474D03*
X022797Y016774D03*
X022531Y017074D03*
X022264Y017374D03*
X021897Y017774D03*
X021631Y018074D03*
X021364Y018374D03*
X020997Y018774D03*
X020731Y019074D03*
X020464Y019374D03*
X021664Y019474D03*
X021864Y018774D03*
X021897Y018674D03*
X021997Y018474D03*
X022097Y018274D03*
X022164Y018174D03*
X022331Y017974D03*
X022397Y017874D03*
X023397Y017374D03*
X023597Y017274D03*
X023764Y017774D03*
X024231Y017574D03*
X024331Y017874D03*
X024364Y017974D03*
X024397Y018174D03*
X024431Y018274D03*
X024464Y018374D03*
X024231Y020574D03*
X023231Y021674D03*
X022364Y022074D03*
X022297Y021974D03*
X022131Y021774D03*
X022031Y021574D03*
X021964Y021474D03*
X021931Y021374D03*
X023497Y022674D03*
X025431Y021974D03*
X025397Y021874D03*
X025364Y021774D03*
X026097Y022774D03*
X027431Y022074D03*
X027597Y021874D03*
X027664Y021774D03*
X027764Y021574D03*
X027831Y021474D03*
X027997Y021074D03*
X026731Y019774D03*
X026797Y019674D03*
X026964Y019474D03*
X027031Y019374D03*
X027097Y019274D03*
X027897Y018674D03*
X027797Y018474D03*
X027631Y018174D03*
X027564Y018074D03*
X027397Y017874D03*
X027964Y018174D03*
X028131Y017974D03*
X028297Y017774D03*
X028364Y017674D03*
X028531Y017474D03*
X028597Y017374D03*
X028764Y017174D03*
X028831Y017074D03*
X029231Y014674D03*
X029264Y011374D03*
X017231Y020074D03*
X017064Y020174D03*
X016931Y020274D03*
X016764Y020374D03*
X016597Y020474D03*
X016464Y020574D03*
X014831Y018774D03*
X014297Y018174D03*
X014431Y018074D03*
X014131Y018274D03*
X013831Y018474D03*
X009431Y020574D03*
X009364Y020874D03*
X009331Y020974D03*
X009297Y021074D03*
X009264Y021174D03*
X009131Y021474D03*
X009064Y021574D03*
X008964Y021774D03*
X008897Y021874D03*
X008731Y022074D03*
X005764Y021674D03*
X005731Y021774D03*
X005697Y021874D03*
X004997Y022174D03*
X004831Y022674D03*
X005031Y022774D03*
X003597Y021974D03*
X003531Y021874D03*
X003464Y021774D03*
X003397Y021674D03*
X003331Y021574D03*
X003297Y021474D03*
X003231Y021374D03*
X003197Y021274D03*
X002964Y020474D03*
X003931Y019374D03*
X003164Y018774D03*
X003297Y018474D03*
X003364Y018374D03*
X003464Y018174D03*
X003397Y017874D03*
X003331Y017774D03*
X003164Y017574D03*
X003097Y017474D03*
X003031Y017374D03*
X002964Y017274D03*
X002797Y017074D03*
X002731Y016974D03*
X002664Y016874D03*
X002597Y016774D03*
X002531Y016674D03*
X003697Y017874D03*
X004497Y018274D03*
X004597Y018374D03*
X005097Y017174D03*
X006731Y018074D03*
X006697Y018174D03*
X006664Y018274D03*
X006631Y018374D03*
X007531Y017274D03*
X008531Y017674D03*
X008797Y017974D03*
X008864Y018074D03*
X008931Y018174D03*
X008997Y018274D03*
X009064Y018374D03*
X009164Y018574D03*
X003031Y019174D03*
X002197Y014974D03*
X002231Y014874D03*
X002264Y014774D03*
X002297Y014674D03*
X002331Y014574D03*
X002364Y014474D03*
X002397Y014374D03*
X002431Y014274D03*
X002464Y014174D03*
X002497Y014074D03*
X002531Y013974D03*
X002564Y013874D03*
X002597Y013774D03*
X002631Y013674D03*
X002664Y013574D03*
X002697Y013474D03*
X002731Y013374D03*
X002764Y013274D03*
X002797Y013174D03*
X002831Y013074D03*
D72*
X027597Y011440D03*
D73*
X027597Y011474D03*
D74*
X028964Y011640D03*
X026664Y015607D03*
X025864Y015507D03*
X027464Y015707D03*
D75*
X026964Y017440D03*
X027064Y017540D03*
X026264Y018640D03*
X023964Y019840D03*
X023364Y020407D03*
X023664Y021240D03*
X023564Y021340D03*
X023464Y021440D03*
X022964Y022640D03*
X026964Y022540D03*
X022764Y017507D03*
X022864Y017440D03*
X025564Y011840D03*
X029864Y013507D03*
X029864Y013640D03*
X014864Y018840D03*
X008464Y017607D03*
X008264Y017440D03*
X005464Y017607D03*
X005364Y017640D03*
X004764Y018540D03*
X004864Y018640D03*
X004964Y018740D03*
X005164Y019707D03*
X004064Y017507D03*
X007464Y021240D03*
X007564Y021340D03*
X007664Y021440D03*
X008264Y022540D03*
X008164Y022607D03*
X004164Y022540D03*
D76*
X004081Y022140D03*
X004047Y022107D03*
X003881Y021907D03*
X003814Y021840D03*
X003747Y021740D03*
X003714Y021707D03*
X003681Y021640D03*
X003647Y021607D03*
X003614Y021540D03*
X003581Y021507D03*
X003547Y021440D03*
X003547Y021407D03*
X003514Y021340D03*
X003481Y021307D03*
X003447Y021240D03*
X003447Y021207D03*
X003414Y021140D03*
X003381Y021040D03*
X003314Y020840D03*
X003281Y020740D03*
X003247Y020640D03*
X003247Y020607D03*
X003214Y020440D03*
X003214Y020407D03*
X003181Y020140D03*
X003181Y020107D03*
X003181Y020040D03*
X003181Y020007D03*
X003181Y019940D03*
X003181Y019907D03*
X003181Y019840D03*
X003181Y019807D03*
X003214Y019607D03*
X003214Y019540D03*
X003214Y019507D03*
X003247Y019407D03*
X003247Y019340D03*
X003281Y019240D03*
X003281Y019207D03*
X003314Y019140D03*
X003314Y019107D03*
X003347Y019040D03*
X003347Y019007D03*
X003381Y018907D03*
X003414Y018840D03*
X003414Y018807D03*
X003447Y018740D03*
X003514Y018607D03*
X003547Y018540D03*
X003581Y018507D03*
X003614Y018440D03*
X003614Y018407D03*
X003681Y018340D03*
X003681Y018307D03*
X003747Y018240D03*
X003747Y018207D03*
X003814Y018140D03*
X003847Y018107D03*
X003914Y018007D03*
X003981Y017940D03*
X004014Y017907D03*
X004081Y017840D03*
X004114Y017807D03*
X004181Y017740D03*
X005914Y019540D03*
X005881Y019940D03*
X005881Y020007D03*
X005914Y020107D03*
X005814Y020340D03*
X005881Y020407D03*
X005947Y020440D03*
X006481Y020440D03*
X006514Y020040D03*
X006514Y020007D03*
X006514Y019907D03*
X006581Y019607D03*
X006481Y019540D03*
X006847Y019340D03*
X006881Y019307D03*
X006947Y019240D03*
X006981Y019207D03*
X007047Y019140D03*
X007081Y019107D03*
X007147Y019040D03*
X007181Y019007D03*
X007247Y018940D03*
X007281Y018907D03*
X007347Y018840D03*
X007381Y018807D03*
X007447Y018740D03*
X007481Y018707D03*
X007547Y018640D03*
X007581Y018607D03*
X007647Y018540D03*
X007681Y018507D03*
X007747Y018440D03*
X007781Y018407D03*
X007847Y018340D03*
X007881Y018307D03*
X007947Y018240D03*
X008514Y018040D03*
X008581Y018107D03*
X008614Y018140D03*
X008647Y018207D03*
X008681Y018240D03*
X008714Y018307D03*
X008747Y018340D03*
X008781Y018407D03*
X008814Y018440D03*
X008847Y018507D03*
X008914Y018640D03*
X008947Y018707D03*
X008981Y018807D03*
X009014Y018840D03*
X009047Y018940D03*
X009081Y019040D03*
X009114Y019140D03*
X009147Y019307D03*
X009181Y019407D03*
X009181Y019440D03*
X009214Y019607D03*
X009214Y019640D03*
X009214Y019707D03*
X009214Y019740D03*
X009214Y020240D03*
X009214Y020307D03*
X009214Y020340D03*
X009181Y020507D03*
X009181Y020540D03*
X009147Y020640D03*
X009147Y020707D03*
X009114Y020807D03*
X009114Y020840D03*
X009081Y020907D03*
X009081Y020940D03*
X009047Y021007D03*
X009047Y021040D03*
X009014Y021107D03*
X008981Y021207D03*
X008947Y021240D03*
X008914Y021340D03*
X008881Y021407D03*
X008847Y021440D03*
X008814Y021507D03*
X008814Y021540D03*
X008747Y021607D03*
X008747Y021640D03*
X008681Y021707D03*
X008681Y021740D03*
X008614Y021807D03*
X008547Y021907D03*
X008514Y021940D03*
X008447Y022007D03*
X008081Y021640D03*
X008114Y021607D03*
X008181Y021507D03*
X008247Y021440D03*
X008247Y021407D03*
X008314Y021340D03*
X008314Y021307D03*
X008381Y021240D03*
X008381Y021207D03*
X008414Y021140D03*
X008447Y021107D03*
X008481Y021040D03*
X008481Y021007D03*
X008514Y020940D03*
X008547Y020840D03*
X008581Y020740D03*
X008614Y020640D03*
X008647Y020540D03*
X008647Y020507D03*
X008681Y020340D03*
X008681Y020307D03*
X008714Y020007D03*
X008681Y019640D03*
X008681Y019607D03*
X008647Y019440D03*
X008114Y017640D03*
X006481Y021007D03*
X005581Y022440D03*
X004614Y021907D03*
X004347Y021640D03*
X004314Y021607D03*
X004247Y021540D03*
X004214Y021507D03*
X004181Y021440D03*
X004147Y021407D03*
X004114Y021340D03*
X004081Y021307D03*
X004047Y021240D03*
X003981Y021107D03*
X003947Y021040D03*
X003881Y020907D03*
X003847Y020807D03*
X003814Y020707D03*
X005914Y014307D03*
X013847Y018640D03*
X013914Y018607D03*
X014014Y018540D03*
X014181Y018440D03*
X014214Y018407D03*
X014314Y018340D03*
X014381Y018307D03*
X014481Y018240D03*
X014514Y018207D03*
X014647Y018140D03*
X015081Y018607D03*
X014381Y019440D03*
X016514Y019107D03*
X017114Y019940D03*
X017047Y020007D03*
X016981Y020040D03*
X016881Y020107D03*
X016714Y020207D03*
X016681Y020240D03*
X016581Y020307D03*
X016514Y020340D03*
X016414Y020407D03*
X019647Y018907D03*
X021947Y019307D03*
X021947Y019340D03*
X021981Y019240D03*
X021981Y019207D03*
X022014Y019107D03*
X022047Y019007D03*
X022081Y018907D03*
X022114Y018840D03*
X022114Y018807D03*
X022147Y018740D03*
X022214Y018607D03*
X022247Y018540D03*
X022281Y018507D03*
X022314Y018440D03*
X022314Y018407D03*
X022381Y018340D03*
X022381Y018307D03*
X022447Y018240D03*
X022514Y018140D03*
X022547Y018107D03*
X022581Y018040D03*
X022614Y018007D03*
X022681Y017940D03*
X022714Y017907D03*
X022781Y017840D03*
X022814Y017807D03*
X022981Y018407D03*
X022947Y018440D03*
X022881Y018507D03*
X022881Y018540D03*
X022814Y018607D03*
X022814Y018640D03*
X022747Y018707D03*
X022747Y018740D03*
X022714Y018807D03*
X022681Y018840D03*
X022647Y018907D03*
X022647Y018940D03*
X022614Y019007D03*
X022581Y019040D03*
X022547Y019140D03*
X022514Y019240D03*
X021914Y019507D03*
X021914Y019540D03*
X021881Y019740D03*
X021881Y019807D03*
X021881Y019840D03*
X021881Y019907D03*
X021881Y019940D03*
X021881Y020007D03*
X021881Y020040D03*
X021881Y020107D03*
X021881Y020140D03*
X021881Y020207D03*
X021881Y020240D03*
X021914Y020440D03*
X021914Y020507D03*
X021947Y020607D03*
X021947Y020640D03*
X021981Y020807D03*
X022014Y020907D03*
X022047Y021007D03*
X022081Y021107D03*
X022147Y021240D03*
X022181Y021307D03*
X022181Y021340D03*
X022214Y021407D03*
X022247Y021440D03*
X022281Y021507D03*
X022314Y021540D03*
X022347Y021607D03*
X022347Y021640D03*
X022414Y021707D03*
X022481Y021807D03*
X022514Y021840D03*
X022547Y021907D03*
X022581Y021940D03*
X022647Y022007D03*
X022681Y022040D03*
X023181Y021807D03*
X023214Y021840D03*
X024614Y020440D03*
X024614Y020140D03*
X024581Y020040D03*
X024581Y020007D03*
X024581Y019940D03*
X025181Y019840D03*
X025214Y019907D03*
X025214Y019940D03*
X025214Y020007D03*
X025214Y020040D03*
X025181Y020140D03*
X025181Y020440D03*
X025514Y020607D03*
X025547Y020640D03*
X025614Y020707D03*
X025647Y020740D03*
X025714Y020807D03*
X025747Y020840D03*
X025814Y020907D03*
X025847Y020940D03*
X025914Y021007D03*
X025947Y021040D03*
X026014Y021107D03*
X026047Y021140D03*
X026114Y021207D03*
X026147Y021240D03*
X026214Y021307D03*
X026247Y021340D03*
X026314Y021407D03*
X026347Y021440D03*
X026414Y021507D03*
X026447Y021540D03*
X026514Y021607D03*
X026547Y021640D03*
X026614Y021707D03*
X027214Y021940D03*
X027247Y021907D03*
X027281Y021840D03*
X027314Y021807D03*
X027381Y021740D03*
X027381Y021707D03*
X027447Y021640D03*
X027447Y021607D03*
X027514Y021540D03*
X027514Y021507D03*
X027547Y021440D03*
X027581Y021407D03*
X027614Y021340D03*
X027614Y021307D03*
X027647Y021240D03*
X027681Y021207D03*
X027714Y021107D03*
X027747Y021040D03*
X027747Y021007D03*
X027781Y020940D03*
X027781Y020907D03*
X027814Y020807D03*
X027847Y020707D03*
X027847Y020640D03*
X027881Y020540D03*
X027881Y020507D03*
X027914Y020307D03*
X027914Y020240D03*
X027914Y020207D03*
X027914Y020140D03*
X027914Y020007D03*
X027914Y019940D03*
X027914Y019907D03*
X027914Y019840D03*
X027914Y019807D03*
X027914Y019740D03*
X027914Y019707D03*
X027881Y019540D03*
X027881Y019507D03*
X027847Y019340D03*
X027847Y019307D03*
X027814Y019207D03*
X027781Y019107D03*
X027747Y019007D03*
X027714Y018907D03*
X027681Y018840D03*
X027681Y018807D03*
X027647Y018740D03*
X027614Y018640D03*
X027581Y018607D03*
X027547Y018540D03*
X027481Y018440D03*
X027481Y018407D03*
X027414Y018340D03*
X027414Y018307D03*
X027347Y018240D03*
X027347Y018207D03*
X027281Y018140D03*
X027214Y018040D03*
X027181Y018007D03*
X027114Y017940D03*
X027081Y017907D03*
X027014Y017840D03*
X026981Y017807D03*
X026914Y017740D03*
X026647Y018207D03*
X026814Y018407D03*
X026847Y018440D03*
X026914Y018507D03*
X026914Y018540D03*
X026981Y018607D03*
X026981Y018640D03*
X027047Y018707D03*
X027047Y018740D03*
X027114Y018840D03*
X027147Y018907D03*
X027214Y019040D03*
X027314Y019340D03*
X027347Y019507D03*
X027347Y019540D03*
X027381Y019640D03*
X027381Y019707D03*
X027381Y019740D03*
X027381Y019807D03*
X027381Y020207D03*
X027381Y020240D03*
X027381Y020307D03*
X027381Y020340D03*
X027347Y020440D03*
X027347Y020507D03*
X026847Y022307D03*
X025347Y013907D03*
X025281Y013607D03*
X025247Y013440D03*
X025247Y013407D03*
X025247Y013240D03*
X025247Y013207D03*
X025247Y013040D03*
X025247Y013007D03*
X025247Y012840D03*
X025247Y012807D03*
X025247Y012640D03*
X025247Y012607D03*
X025281Y012440D03*
X025281Y012407D03*
X025314Y012240D03*
X025347Y012140D03*
X029747Y011907D03*
X029847Y012107D03*
X029881Y012240D03*
X029914Y012307D03*
X029914Y012340D03*
X029947Y012507D03*
X029947Y012607D03*
X029947Y012640D03*
X029947Y013407D03*
X029947Y013440D03*
X029947Y013540D03*
X029914Y013707D03*
X029881Y013840D03*
X029847Y013907D03*
X029814Y014007D03*
D77*
X029631Y014174D03*
X025531Y011974D03*
X025431Y013774D03*
X023831Y015674D03*
X023231Y017174D03*
X025931Y018974D03*
X026631Y022774D03*
X023331Y022874D03*
X015131Y020174D03*
X010331Y018074D03*
X009997Y017874D03*
X009831Y017774D03*
X009297Y017474D03*
X009131Y017374D03*
X008797Y017174D03*
X008631Y017074D03*
X008297Y016874D03*
X007931Y016674D03*
X007597Y016474D03*
X007431Y016374D03*
X007097Y016174D03*
X006931Y016074D03*
X006731Y015974D03*
X006397Y015774D03*
X006231Y015674D03*
X006331Y015074D03*
X006331Y014774D03*
X005431Y014874D03*
X005431Y014974D03*
X006997Y017074D03*
X007897Y017174D03*
X005597Y017574D03*
X004531Y017174D03*
X004497Y022774D03*
X007931Y022774D03*
D78*
X005581Y023174D03*
X007347Y020374D03*
X007381Y019674D03*
X007681Y019574D03*
X011281Y017574D03*
X013381Y022774D03*
X013347Y022974D03*
X013347Y023074D03*
X013347Y023174D03*
X013347Y023274D03*
X013347Y023374D03*
X013347Y023474D03*
X013347Y023574D03*
X013347Y023674D03*
X013347Y023774D03*
X013381Y023874D03*
X013381Y023974D03*
X015281Y024074D03*
X016547Y023374D03*
X018247Y023574D03*
X018281Y023674D03*
X018281Y023774D03*
X018281Y023874D03*
X018247Y024074D03*
X016281Y025474D03*
X015481Y026674D03*
X026047Y019674D03*
X028947Y016874D03*
X028947Y015674D03*
X029447Y011974D03*
D79*
X029547Y012174D03*
X026081Y019874D03*
X024181Y023174D03*
X019081Y026174D03*
X007381Y019874D03*
X007381Y019774D03*
X007181Y020774D03*
X005081Y020274D03*
D80*
X005847Y020374D03*
X005881Y019974D03*
X005881Y019574D03*
X005547Y019474D03*
X006547Y019574D03*
X006914Y019274D03*
X007014Y019174D03*
X007114Y019074D03*
X007214Y018974D03*
X007314Y018874D03*
X007414Y018774D03*
X007514Y018674D03*
X007614Y018574D03*
X007714Y018474D03*
X007814Y018374D03*
X007914Y018274D03*
X008547Y018074D03*
X008614Y018174D03*
X008714Y018274D03*
X008747Y018374D03*
X008814Y018474D03*
X008881Y018574D03*
X008981Y018774D03*
X009014Y018874D03*
X009047Y018974D03*
X009081Y019074D03*
X009114Y019174D03*
X009147Y019274D03*
X009181Y019474D03*
X009214Y019674D03*
X008681Y019674D03*
X008647Y019474D03*
X008714Y019974D03*
X008681Y020274D03*
X008681Y020374D03*
X008647Y020474D03*
X008614Y020674D03*
X008581Y020774D03*
X008547Y020874D03*
X008514Y020974D03*
X008447Y021074D03*
X008414Y021174D03*
X008347Y021274D03*
X008281Y021374D03*
X008214Y021474D03*
X007947Y021774D03*
X008181Y022274D03*
X008481Y021974D03*
X008581Y021874D03*
X008647Y021774D03*
X008714Y021674D03*
X008781Y021574D03*
X008847Y021474D03*
X008881Y021374D03*
X008947Y021274D03*
X008981Y021174D03*
X009147Y020674D03*
X009214Y020274D03*
X006514Y020074D03*
X006447Y020874D03*
X004281Y021574D03*
X004214Y021474D03*
X004147Y021374D03*
X004081Y021274D03*
X004014Y021174D03*
X003914Y020974D03*
X003881Y020874D03*
X003847Y020774D03*
X003381Y021074D03*
X003347Y020974D03*
X003314Y020874D03*
X003281Y020774D03*
X003247Y020574D03*
X003214Y020374D03*
X003181Y020074D03*
X003181Y019974D03*
X003181Y019874D03*
X003214Y019574D03*
X003247Y019374D03*
X003447Y018774D03*
X003481Y018674D03*
X003547Y018574D03*
X003581Y018474D03*
X003647Y018374D03*
X003714Y018274D03*
X003781Y018174D03*
X003947Y017974D03*
X004047Y017874D03*
X004147Y017774D03*
X003481Y021274D03*
X003514Y021374D03*
X003581Y021474D03*
X003647Y021574D03*
X003714Y021674D03*
X003781Y021774D03*
X003847Y021874D03*
X004014Y022074D03*
X004114Y022174D03*
X014114Y019074D03*
X013947Y018574D03*
X014114Y018474D03*
X014281Y018374D03*
X014414Y018274D03*
X014747Y018674D03*
X016781Y019474D03*
X017081Y019974D03*
X016947Y020074D03*
X016781Y020174D03*
X016614Y020274D03*
X016481Y020374D03*
X016314Y020474D03*
X014281Y021874D03*
X021947Y020674D03*
X021981Y020774D03*
X022014Y020874D03*
X022047Y020974D03*
X022081Y021074D03*
X022114Y021174D03*
X022214Y021374D03*
X022314Y021574D03*
X022381Y021674D03*
X022447Y021774D03*
X022614Y021974D03*
X022914Y022274D03*
X021914Y020474D03*
X021881Y020174D03*
X021881Y020074D03*
X021881Y019974D03*
X021881Y019874D03*
X021881Y019774D03*
X021914Y019474D03*
X021947Y019374D03*
X022014Y019074D03*
X022047Y018974D03*
X022181Y018674D03*
X022281Y018474D03*
X022347Y018374D03*
X022414Y018274D03*
X022481Y018174D03*
X022647Y017974D03*
X022747Y017874D03*
X022847Y017774D03*
X023081Y018274D03*
X023014Y018374D03*
X022914Y018474D03*
X022847Y018574D03*
X022781Y018674D03*
X022714Y018774D03*
X022681Y018874D03*
X022614Y018974D03*
X022581Y019074D03*
X022547Y019174D03*
X022514Y019274D03*
X024581Y019574D03*
X025147Y019074D03*
X025214Y019574D03*
X025214Y019974D03*
X025214Y020074D03*
X024581Y020074D03*
X024581Y019974D03*
X025581Y020674D03*
X025681Y020774D03*
X025781Y020874D03*
X025881Y020974D03*
X025981Y021074D03*
X026081Y021174D03*
X026181Y021274D03*
X026281Y021374D03*
X026381Y021474D03*
X026481Y021574D03*
X026581Y021674D03*
X027181Y021974D03*
X027281Y021874D03*
X027347Y021774D03*
X027414Y021674D03*
X027481Y021574D03*
X027547Y021474D03*
X027581Y021374D03*
X027647Y021274D03*
X027681Y021174D03*
X027714Y021074D03*
X027814Y020774D03*
X027847Y020674D03*
X027881Y020474D03*
X027914Y020274D03*
X027914Y020174D03*
X027914Y019974D03*
X027914Y019874D03*
X027914Y019774D03*
X027881Y019474D03*
X027847Y019374D03*
X027814Y019174D03*
X027781Y019074D03*
X027747Y018974D03*
X027714Y018874D03*
X027614Y018674D03*
X027581Y018574D03*
X027514Y018474D03*
X027447Y018374D03*
X027381Y018274D03*
X027314Y018174D03*
X027147Y017974D03*
X027047Y017874D03*
X026947Y017774D03*
X026881Y018474D03*
X026947Y018574D03*
X027014Y018674D03*
X027081Y018774D03*
X027181Y018974D03*
X027281Y019274D03*
X027314Y019374D03*
X027347Y019474D03*
X027381Y019674D03*
X027381Y019774D03*
X027381Y020174D03*
X027381Y020274D03*
X027347Y020474D03*
X029781Y014074D03*
X029947Y013574D03*
X029947Y013374D03*
X029947Y012474D03*
X025314Y012274D03*
X025247Y012674D03*
X025247Y012774D03*
X025247Y012874D03*
X025247Y012974D03*
X025247Y013074D03*
X025247Y013174D03*
X025247Y013274D03*
X025247Y013374D03*
X025281Y013574D03*
X025281Y013674D03*
X025347Y013874D03*
D81*
X024314Y016207D03*
X029314Y014307D03*
X029614Y012540D03*
X016314Y025307D03*
X016314Y025340D03*
X002414Y015140D03*
D82*
X002397Y016374D03*
X007364Y020274D03*
X007397Y020174D03*
X007397Y020074D03*
X007397Y019974D03*
X010264Y021974D03*
X010264Y022074D03*
X010264Y022174D03*
X010264Y022274D03*
X010264Y022374D03*
X010264Y022474D03*
X010264Y022574D03*
X010264Y022674D03*
X010264Y022774D03*
X010264Y022874D03*
X010264Y022974D03*
X010264Y023074D03*
X010264Y023874D03*
X010264Y023974D03*
X010264Y024074D03*
X010264Y024174D03*
X010264Y024274D03*
X010264Y024374D03*
X010264Y024474D03*
X010264Y024574D03*
X010264Y024674D03*
X010264Y024774D03*
X010264Y024874D03*
X012131Y024874D03*
X012131Y024774D03*
X012131Y024674D03*
X012131Y024574D03*
X012131Y024474D03*
X012131Y024374D03*
X012131Y024274D03*
X012131Y024174D03*
X012131Y024074D03*
X012131Y023974D03*
X012131Y023874D03*
X012131Y023074D03*
X012131Y022974D03*
X012131Y022874D03*
X012131Y022774D03*
X012131Y022674D03*
X012131Y022574D03*
X012131Y022474D03*
X012131Y022374D03*
X012131Y022274D03*
X012131Y022174D03*
X012131Y022074D03*
X012131Y021974D03*
X015164Y018974D03*
X016531Y021974D03*
X016531Y022074D03*
X016531Y022174D03*
X016531Y022274D03*
X016531Y022374D03*
X016531Y022474D03*
X016531Y022574D03*
X016531Y023474D03*
X016531Y023574D03*
X016531Y023674D03*
X016531Y023774D03*
X016531Y023874D03*
X016531Y023974D03*
X016531Y024074D03*
X016531Y024174D03*
X016297Y025374D03*
X015464Y026774D03*
X018264Y023974D03*
X019431Y023974D03*
X019431Y024074D03*
X019431Y024174D03*
X019431Y023874D03*
X019431Y023774D03*
X019431Y023074D03*
X019431Y022974D03*
X019431Y022874D03*
X019431Y022774D03*
X019431Y022674D03*
X019431Y022574D03*
X024297Y018774D03*
X026064Y019774D03*
X026064Y020274D03*
X029597Y012574D03*
D83*
X029664Y012907D03*
X020164Y019407D03*
X010664Y018140D03*
D84*
X011281Y017540D03*
X008347Y019407D03*
X004314Y020507D03*
X015114Y018907D03*
X020181Y019440D03*
X024881Y023040D03*
X026747Y020507D03*
X026881Y020540D03*
X028947Y015640D03*
X029681Y012940D03*
X019081Y026107D03*
D85*
X023014Y022674D03*
X023981Y022874D03*
X024147Y022374D03*
X026781Y022674D03*
X026014Y018874D03*
X026114Y018774D03*
X026714Y017274D03*
X023081Y017274D03*
X029814Y013774D03*
X016147Y018574D03*
X015881Y018474D03*
X015614Y018374D03*
X015114Y018174D03*
X014847Y018074D03*
X014881Y018874D03*
X014881Y020074D03*
X015381Y020274D03*
X015647Y020374D03*
X015914Y020474D03*
X009481Y017574D03*
X008181Y017374D03*
X008047Y017274D03*
X008114Y016774D03*
X005414Y017074D03*
X004381Y017274D03*
X002414Y016474D03*
X005547Y019374D03*
X007281Y021074D03*
X007381Y021174D03*
X007947Y021674D03*
X008081Y022674D03*
D86*
X004664Y019574D03*
X003964Y022374D03*
X004064Y022474D03*
X022764Y022474D03*
X022864Y022574D03*
X023864Y020274D03*
X026864Y017374D03*
X026164Y014774D03*
X025464Y013974D03*
X029064Y014774D03*
X029764Y013974D03*
D87*
X029364Y016040D03*
X029364Y016507D03*
X025964Y016907D03*
X025764Y014307D03*
X020164Y019540D03*
X024264Y020707D03*
X014664Y018040D03*
D88*
X015131Y018940D03*
X019631Y019007D03*
X024331Y018740D03*
X024297Y015207D03*
X028931Y016907D03*
X029297Y014340D03*
X019097Y026140D03*
X007197Y020807D03*
X005631Y021240D03*
X005631Y019207D03*
X005897Y015440D03*
D89*
X005914Y014374D03*
X007214Y020874D03*
X028714Y014874D03*
D90*
X025731Y016840D03*
X024297Y016240D03*
X024331Y018707D03*
X025897Y019140D03*
X024897Y023340D03*
X008197Y019440D03*
X007197Y020840D03*
X007031Y023140D03*
X004197Y020540D03*
X006197Y016940D03*
X005897Y014407D03*
X002397Y015107D03*
X002397Y016407D03*
D91*
X005831Y014440D03*
X005897Y015340D03*
X007431Y019640D03*
X007197Y020607D03*
X005231Y020607D03*
X013431Y022640D03*
X018197Y023407D03*
X018197Y024207D03*
X019097Y025907D03*
X019097Y026307D03*
X025931Y019440D03*
X025897Y019407D03*
X024297Y016140D03*
D92*
X026181Y019974D03*
X019647Y020174D03*
X006247Y018474D03*
X005847Y014474D03*
D93*
X015847Y019774D03*
X023581Y019574D03*
X024781Y021374D03*
X028947Y016674D03*
X028947Y014474D03*
D94*
X028947Y016740D03*
X026214Y014507D03*
X024314Y016007D03*
X024081Y019240D03*
X024847Y021440D03*
X015414Y019340D03*
X014314Y021907D03*
X014381Y024907D03*
X013581Y025940D03*
X011281Y018440D03*
X011281Y017740D03*
X006214Y017507D03*
X006147Y018540D03*
X005381Y020740D03*
X002414Y016240D03*
D95*
X013631Y025307D03*
X013631Y025340D03*
X013631Y025407D03*
X013631Y025440D03*
X013631Y025507D03*
X013631Y025540D03*
X013631Y025607D03*
X017564Y025607D03*
X017564Y025540D03*
X017564Y025507D03*
X017564Y025440D03*
X017564Y025407D03*
X017564Y025340D03*
X017564Y025307D03*
X017564Y026607D03*
X017564Y026640D03*
X017564Y026707D03*
X017564Y026740D03*
X017564Y026807D03*
X017564Y026840D03*
X015797Y019707D03*
X015497Y019440D03*
X024197Y019107D03*
X028931Y014507D03*
D96*
X028947Y016807D03*
X024247Y018940D03*
X019647Y020140D03*
X017747Y019907D03*
X015347Y019240D03*
X015181Y022607D03*
X018147Y024240D03*
X005881Y014540D03*
X005547Y021007D03*
X005547Y021040D03*
D97*
X005897Y015274D03*
X005897Y014574D03*
X024231Y018974D03*
X028931Y016774D03*
D98*
X024297Y016040D03*
X024231Y019007D03*
X019631Y019140D03*
X015397Y019307D03*
X005897Y015240D03*
X005897Y014607D03*
D99*
X027614Y014607D03*
D100*
X028531Y016040D03*
X024297Y015140D03*
X023831Y016907D03*
X027097Y020607D03*
X025897Y023107D03*
X023897Y023107D03*
X019597Y026807D03*
X011631Y018340D03*
X011631Y017840D03*
X007231Y020907D03*
X002397Y016440D03*
X001997Y016007D03*
X002831Y016007D03*
X005597Y014640D03*
X006197Y014640D03*
D101*
X027614Y014640D03*
D102*
X027597Y014740D03*
D103*
X027597Y014840D03*
D104*
X026497Y014874D03*
X010797Y018274D03*
X004064Y020574D03*
X002364Y015074D03*
D105*
X027614Y014907D03*
D106*
X027597Y014940D03*
X017297Y022907D03*
X017297Y024640D03*
X014331Y022240D03*
D107*
X014331Y022074D03*
X019231Y020074D03*
X027597Y014974D03*
D108*
X024314Y015174D03*
X005914Y015474D03*
D109*
X002414Y015207D03*
X002414Y016307D03*
X015214Y022640D03*
X024314Y016107D03*
D110*
X024314Y015240D03*
X026014Y019607D03*
X025014Y021540D03*
X015314Y022940D03*
X015314Y023007D03*
X015314Y023040D03*
X015314Y023107D03*
X015314Y023140D03*
X015314Y023207D03*
X015314Y023240D03*
X015314Y023307D03*
X015314Y023340D03*
X015314Y023407D03*
X015314Y023440D03*
X015314Y023507D03*
X015314Y023540D03*
X015314Y023607D03*
X015314Y023640D03*
X015314Y023707D03*
X015314Y023740D03*
X015314Y023807D03*
X015314Y023840D03*
X015314Y023907D03*
X015314Y023940D03*
X015214Y019040D03*
X007314Y020407D03*
X006314Y018440D03*
D111*
X007281Y020474D03*
X005214Y020574D03*
X013414Y022674D03*
X015247Y022674D03*
X015281Y022774D03*
X018214Y024174D03*
X025947Y019474D03*
X026147Y020074D03*
X026247Y020374D03*
X024314Y015274D03*
D112*
X019614Y020107D03*
X024814Y021407D03*
X024914Y023307D03*
X013614Y026540D03*
X013614Y026607D03*
X013614Y026640D03*
X013614Y026707D03*
X013614Y026740D03*
X013614Y026807D03*
X013614Y026840D03*
X005514Y020907D03*
X002414Y016207D03*
X002414Y015340D03*
D113*
X014314Y021940D03*
X024514Y015340D03*
D114*
X015514Y019474D03*
X013614Y022574D03*
X002414Y015374D03*
D115*
X024631Y015374D03*
D116*
X028931Y015907D03*
X028931Y016640D03*
X024731Y021340D03*
X015531Y019507D03*
X013631Y024240D03*
X005497Y020807D03*
X002397Y015407D03*
D117*
X024764Y015407D03*
X024897Y023207D03*
D118*
X024714Y021307D03*
X028947Y016607D03*
X028947Y015940D03*
X019647Y019307D03*
X015881Y019807D03*
X020581Y026540D03*
X020581Y026607D03*
X020581Y026640D03*
X020581Y026707D03*
X020581Y026740D03*
X020581Y026807D03*
X020581Y026840D03*
X010514Y026840D03*
X010514Y026807D03*
X010514Y026740D03*
X010514Y026707D03*
X010514Y026640D03*
X010514Y026607D03*
X010514Y026540D03*
X006047Y018640D03*
X002414Y016107D03*
X002414Y015440D03*
D119*
X005814Y018940D03*
X025214Y015440D03*
D120*
X006214Y022974D03*
X006214Y023274D03*
X002414Y015474D03*
D121*
X002414Y016074D03*
X006014Y018674D03*
X010514Y026574D03*
X010514Y026674D03*
X010514Y026774D03*
X010514Y026874D03*
X015581Y019574D03*
X020581Y026574D03*
X020581Y026674D03*
X020581Y026774D03*
X020581Y026874D03*
X028947Y015974D03*
X025614Y015474D03*
D122*
X010914Y018340D03*
X002814Y015507D03*
X002014Y015507D03*
D123*
X001981Y015540D03*
X001947Y015940D03*
X002881Y015940D03*
X002847Y015540D03*
X005114Y016907D03*
X005914Y015507D03*
X007314Y016907D03*
X006214Y019707D03*
X005181Y020207D03*
X003981Y020607D03*
X010914Y017840D03*
X018547Y025307D03*
X018547Y025340D03*
X018581Y025407D03*
X018614Y025440D03*
X018647Y025507D03*
X018714Y025640D03*
X019547Y025507D03*
X019581Y025440D03*
X019647Y025307D03*
X019447Y026540D03*
X019481Y026607D03*
X019514Y026640D03*
X019547Y026707D03*
X019547Y026740D03*
X019614Y026840D03*
X018681Y026640D03*
X018647Y026707D03*
X018614Y026740D03*
X018581Y026807D03*
X018581Y026840D03*
X019181Y019840D03*
X019181Y019807D03*
X019181Y019440D03*
X019214Y019407D03*
X020081Y019840D03*
X020114Y019807D03*
X023781Y015840D03*
X024414Y018607D03*
X028514Y016507D03*
X028481Y016107D03*
X029414Y016107D03*
X029414Y016440D03*
D124*
X027731Y015740D03*
X026931Y015640D03*
X026131Y015540D03*
X024597Y020807D03*
X019631Y019340D03*
X015897Y019840D03*
D125*
X016797Y022674D03*
X026397Y015574D03*
X027197Y015674D03*
X028931Y016574D03*
X005897Y019174D03*
D126*
X005681Y021340D03*
X005247Y023107D03*
X007181Y023107D03*
X010847Y018307D03*
X006647Y017007D03*
X019647Y020307D03*
X020181Y019507D03*
X024381Y018640D03*
X028547Y016540D03*
X029347Y016540D03*
X028947Y015607D03*
D127*
X028397Y015774D03*
X017197Y022774D03*
D128*
X014314Y022040D03*
X006214Y023207D03*
X028547Y015807D03*
D129*
X028697Y015840D03*
X024897Y016740D03*
X005797Y018907D03*
D130*
X011281Y018674D03*
X019247Y019374D03*
X020047Y019374D03*
X023947Y016874D03*
X023781Y015874D03*
X025847Y016874D03*
X024447Y022974D03*
D131*
X024897Y023274D03*
X028831Y015874D03*
X012031Y025974D03*
X012031Y026074D03*
X012031Y026174D03*
X012031Y026274D03*
D132*
X011281Y017507D03*
X007081Y016840D03*
X005347Y016840D03*
X002781Y016040D03*
X002047Y016040D03*
X022747Y019407D03*
X024281Y020740D03*
X025781Y023140D03*
X028947Y016940D03*
X023781Y015907D03*
D133*
X023514Y015974D03*
X022714Y016874D03*
X022614Y016974D03*
X021814Y017874D03*
X021714Y017974D03*
X020914Y018874D03*
X020814Y018974D03*
X023114Y020474D03*
X023314Y021574D03*
X022214Y021874D03*
X023714Y022774D03*
X025314Y021574D03*
X027514Y021974D03*
X026314Y018574D03*
X026414Y018474D03*
X026514Y018374D03*
X027214Y017674D03*
X027314Y017774D03*
X027114Y017574D03*
X028214Y017874D03*
X023814Y017174D03*
X014614Y017974D03*
X008714Y017874D03*
X008614Y017774D03*
X008314Y017474D03*
X007314Y017174D03*
X008814Y021974D03*
X005214Y022274D03*
D134*
X002414Y016274D03*
X024314Y016074D03*
D135*
X024297Y016274D03*
X025897Y019074D03*
X028497Y016074D03*
X019231Y019874D03*
X019631Y026874D03*
X007197Y016874D03*
X005197Y016874D03*
D136*
X002414Y016140D03*
X004914Y020407D03*
X005514Y020840D03*
X015814Y019740D03*
X024214Y019140D03*
D137*
X017564Y025274D03*
X017564Y025374D03*
X017564Y025474D03*
X017564Y025574D03*
X017564Y026574D03*
X017564Y026674D03*
X017564Y026774D03*
X017564Y026874D03*
X013631Y025574D03*
X013631Y025474D03*
X013631Y025374D03*
X013631Y025274D03*
X015064Y022574D03*
X011264Y018374D03*
X002397Y016174D03*
D138*
X006214Y016640D03*
X005114Y020240D03*
X010714Y018207D03*
X020014Y019907D03*
X023814Y019740D03*
D139*
X024214Y019074D03*
X013614Y026574D03*
X013614Y026674D03*
X013614Y026774D03*
X013614Y026874D03*
X005514Y020874D03*
X006114Y018574D03*
X006214Y016674D03*
D140*
X011281Y017674D03*
X011281Y018474D03*
X015381Y019274D03*
X024881Y021474D03*
X024881Y016674D03*
D141*
X024631Y021207D03*
X012031Y025907D03*
X012031Y025940D03*
X012031Y026007D03*
X012031Y026040D03*
X012031Y026107D03*
X012031Y026140D03*
X012031Y026207D03*
X012031Y026240D03*
X006197Y016707D03*
D142*
X015614Y019607D03*
X024914Y017007D03*
X024914Y016707D03*
D143*
X024914Y023240D03*
X017014Y024907D03*
X006214Y016740D03*
D144*
X006214Y016774D03*
X017114Y024874D03*
D145*
X014347Y024774D03*
X024914Y016774D03*
D146*
X024264Y016807D03*
X023864Y019440D03*
X025964Y019507D03*
X026364Y020407D03*
X016264Y025607D03*
X015264Y024107D03*
X013364Y022940D03*
X013364Y022907D03*
X013364Y022840D03*
X013364Y022807D03*
X007264Y020507D03*
X005164Y020507D03*
D147*
X005364Y023140D03*
X022864Y019440D03*
X024064Y016840D03*
D148*
X024897Y016974D03*
X024031Y019274D03*
X005564Y021074D03*
X005297Y020674D03*
D149*
X006197Y017474D03*
X015431Y026874D03*
X016331Y025274D03*
X019097Y026074D03*
D150*
X022064Y021040D03*
X021964Y020740D03*
X021964Y020707D03*
X022564Y019107D03*
X022164Y018707D03*
X022064Y018940D03*
X024064Y019907D03*
X024364Y019907D03*
X024364Y019940D03*
X024364Y020007D03*
X024364Y020040D03*
X024464Y020307D03*
X024564Y020407D03*
X024464Y019707D03*
X025164Y019040D03*
X025164Y019007D03*
X025264Y018640D03*
X025264Y018607D03*
X025364Y018307D03*
X025364Y018240D03*
X025464Y017940D03*
X025464Y017907D03*
X025464Y017840D03*
X024264Y017540D03*
X025264Y019607D03*
X025364Y019740D03*
X025364Y020240D03*
X027164Y018940D03*
X027764Y019040D03*
X027864Y019407D03*
X027864Y019440D03*
X027364Y019607D03*
X027364Y020407D03*
X027864Y020607D03*
X017064Y019840D03*
X016964Y019740D03*
X016964Y019707D03*
X016864Y019607D03*
X016764Y019440D03*
X016664Y019307D03*
X016464Y019040D03*
X016364Y018907D03*
X014664Y019807D03*
X014564Y019707D03*
X014464Y019540D03*
X014364Y019407D03*
X014164Y019140D03*
X014064Y019007D03*
X013864Y018740D03*
X009164Y019340D03*
X008664Y019507D03*
X008664Y019540D03*
X009064Y019007D03*
X008964Y018740D03*
X008864Y018540D03*
X008664Y020407D03*
X008664Y020440D03*
X008564Y020807D03*
X009164Y020607D03*
X006764Y022040D03*
X006764Y022107D03*
X006664Y021740D03*
X006664Y021707D03*
X006664Y021640D03*
X006564Y021340D03*
X006564Y021307D03*
X006464Y020940D03*
X006464Y020907D03*
X006664Y020240D03*
X006664Y019740D03*
X006664Y019707D03*
X005764Y019707D03*
X003864Y020840D03*
X003364Y021007D03*
X003264Y020707D03*
X003264Y019307D03*
X003364Y018940D03*
X003464Y018707D03*
D151*
X005681Y019974D03*
X005681Y020074D03*
X006847Y022374D03*
X014681Y018574D03*
X024381Y019874D03*
X024447Y020274D03*
X025381Y019774D03*
X026647Y018174D03*
X025547Y017574D03*
X024881Y021574D03*
X026647Y021774D03*
D152*
X026631Y021740D03*
X027697Y021140D03*
X027797Y020840D03*
X027831Y020740D03*
X027897Y020440D03*
X027897Y020407D03*
X027897Y020340D03*
X027931Y020107D03*
X027931Y020040D03*
X027897Y019640D03*
X027897Y019607D03*
X027831Y019240D03*
X027797Y019140D03*
X027731Y018940D03*
X027631Y018707D03*
X027531Y018507D03*
X027097Y018807D03*
X027197Y019007D03*
X027297Y019307D03*
X027331Y019407D03*
X027331Y019440D03*
X027397Y019840D03*
X027397Y019907D03*
X027397Y019940D03*
X027397Y020007D03*
X027397Y020040D03*
X027397Y020107D03*
X027397Y020140D03*
X027331Y020540D03*
X025397Y020207D03*
X025331Y020307D03*
X025297Y020340D03*
X025231Y020407D03*
X025431Y020040D03*
X025431Y020007D03*
X025431Y019940D03*
X025431Y019907D03*
X025397Y019840D03*
X025397Y019807D03*
X025331Y019707D03*
X025297Y019640D03*
X025131Y019140D03*
X025131Y019107D03*
X025197Y018940D03*
X025197Y018907D03*
X025197Y018840D03*
X025231Y018807D03*
X025231Y018740D03*
X025231Y018707D03*
X025297Y018540D03*
X025297Y018507D03*
X025331Y018440D03*
X025331Y018407D03*
X025331Y018340D03*
X025397Y018140D03*
X025397Y018107D03*
X025431Y018040D03*
X025431Y018007D03*
X025497Y017807D03*
X025497Y017740D03*
X025531Y017640D03*
X025531Y017607D03*
X024531Y019607D03*
X024497Y019640D03*
X024431Y019740D03*
X024397Y019807D03*
X024397Y019840D03*
X024397Y020140D03*
X024431Y020240D03*
X024497Y020340D03*
X024231Y020507D03*
X022531Y019207D03*
X022031Y019040D03*
X021997Y019140D03*
X021931Y019407D03*
X021931Y019440D03*
X021897Y019607D03*
X021897Y019640D03*
X021897Y019707D03*
X021897Y020307D03*
X021897Y020340D03*
X021897Y020407D03*
X021931Y020540D03*
X021997Y020840D03*
X022031Y020940D03*
X022097Y021140D03*
X022131Y021207D03*
X022197Y018640D03*
X017097Y019907D03*
X017031Y019807D03*
X016897Y019640D03*
X016831Y019540D03*
X016797Y019507D03*
X016731Y019407D03*
X016697Y019340D03*
X016597Y019240D03*
X016597Y019207D03*
X016531Y019140D03*
X016431Y019007D03*
X016397Y018940D03*
X016331Y018840D03*
X016297Y018807D03*
X014731Y018640D03*
X014697Y018607D03*
X014097Y019040D03*
X014131Y019107D03*
X014197Y019207D03*
X014231Y019240D03*
X014297Y019307D03*
X014297Y019340D03*
X014431Y019507D03*
X014497Y019607D03*
X014531Y019640D03*
X014597Y019740D03*
X014031Y018940D03*
X013997Y018907D03*
X013931Y018840D03*
X013931Y018807D03*
X013831Y018707D03*
X009231Y019807D03*
X009231Y019840D03*
X009231Y019907D03*
X009231Y019940D03*
X009231Y020007D03*
X009231Y020040D03*
X009231Y020107D03*
X009231Y020140D03*
X009231Y020207D03*
X009197Y020407D03*
X009197Y020440D03*
X009131Y020740D03*
X008997Y021140D03*
X008931Y021307D03*
X008531Y020907D03*
X008597Y020707D03*
X008631Y020607D03*
X008697Y020240D03*
X008697Y020207D03*
X008697Y020140D03*
X008697Y020107D03*
X008697Y020040D03*
X008697Y019940D03*
X008697Y019907D03*
X008697Y019840D03*
X008697Y019807D03*
X008697Y019740D03*
X008697Y019707D03*
X009197Y019540D03*
X009197Y019507D03*
X009131Y019240D03*
X009131Y019207D03*
X009097Y019107D03*
X009031Y018907D03*
X008897Y018607D03*
X006697Y019807D03*
X006731Y019907D03*
X006731Y019940D03*
X006731Y020007D03*
X006731Y020040D03*
X006731Y020107D03*
X006697Y020207D03*
X006631Y020307D03*
X006597Y020340D03*
X006531Y020407D03*
X006431Y020807D03*
X006431Y020840D03*
X006497Y021040D03*
X006497Y021107D03*
X006531Y021140D03*
X006531Y021207D03*
X006531Y021240D03*
X006597Y021407D03*
X006597Y021440D03*
X006631Y021507D03*
X006631Y021540D03*
X006631Y021607D03*
X006697Y021807D03*
X006697Y021840D03*
X006731Y021907D03*
X006731Y021940D03*
X006797Y022140D03*
X006797Y022207D03*
X006831Y022307D03*
X006831Y022340D03*
X005797Y020307D03*
X005731Y020240D03*
X005731Y020207D03*
X005697Y020140D03*
X005697Y020107D03*
X005697Y019840D03*
X005697Y019807D03*
X005731Y019740D03*
X005797Y019640D03*
X005831Y019607D03*
X006597Y019640D03*
X003997Y021140D03*
X004031Y021207D03*
X003931Y021007D03*
X003897Y020940D03*
X003831Y020740D03*
X003397Y021107D03*
X003331Y020940D03*
X003331Y020907D03*
X003297Y020807D03*
X003231Y020540D03*
X003231Y020507D03*
X003197Y020340D03*
X003197Y020307D03*
X003197Y020240D03*
X003197Y020207D03*
X003197Y019740D03*
X003197Y019707D03*
X003197Y019640D03*
X003231Y019440D03*
X003497Y018640D03*
D153*
X007181Y020640D03*
X011281Y017640D03*
X023681Y019640D03*
X023947Y019340D03*
X023981Y019307D03*
X024247Y018907D03*
X026181Y020007D03*
X024947Y021507D03*
D154*
X024531Y020374D03*
X024397Y020174D03*
X024431Y019774D03*
X025131Y019174D03*
X025197Y018874D03*
X025231Y018774D03*
X025297Y018574D03*
X025297Y018474D03*
X025331Y018374D03*
X025397Y018174D03*
X025431Y017974D03*
X025497Y017774D03*
X025531Y017674D03*
X027131Y018874D03*
X027831Y019274D03*
X027897Y019574D03*
X027897Y019674D03*
X027931Y020074D03*
X027897Y020374D03*
X027397Y020074D03*
X027397Y019974D03*
X027397Y019874D03*
X027797Y020874D03*
X025431Y020074D03*
X025431Y019974D03*
X025397Y020174D03*
X025331Y019674D03*
X022231Y018574D03*
X022131Y018774D03*
X022097Y018874D03*
X021997Y019174D03*
X021897Y019574D03*
X021897Y019674D03*
X021897Y020274D03*
X021897Y020374D03*
X021931Y020574D03*
X017431Y019874D03*
X016997Y019774D03*
X016931Y019674D03*
X016697Y019374D03*
X016631Y019274D03*
X016497Y019074D03*
X016431Y018974D03*
X016331Y018874D03*
X014631Y019774D03*
X014397Y019474D03*
X014331Y019374D03*
X014197Y019174D03*
X014031Y018974D03*
X013897Y018774D03*
X013831Y018674D03*
X009231Y019774D03*
X009231Y019874D03*
X009231Y019974D03*
X009231Y020074D03*
X009231Y020174D03*
X009197Y020374D03*
X009197Y020474D03*
X009131Y020774D03*
X009097Y020874D03*
X009031Y021074D03*
X008631Y020574D03*
X008697Y020174D03*
X008697Y020074D03*
X008697Y019874D03*
X008697Y019774D03*
X009197Y019574D03*
X008931Y018674D03*
X006831Y019374D03*
X006631Y019674D03*
X006697Y019774D03*
X006731Y019874D03*
X006731Y019974D03*
X006731Y020074D03*
X006697Y020174D03*
X006497Y021074D03*
X006531Y021174D03*
X006597Y021474D03*
X006631Y021574D03*
X006697Y021774D03*
X006731Y021974D03*
X006797Y022174D03*
X006831Y022274D03*
X005697Y020174D03*
X005697Y019874D03*
X005731Y019774D03*
X003397Y018874D03*
X003331Y019074D03*
X003297Y019174D03*
X003231Y019474D03*
X003197Y019674D03*
X003197Y019774D03*
X003197Y020174D03*
X003197Y020274D03*
X003231Y020474D03*
X003431Y021174D03*
D155*
X011264Y017707D03*
D156*
X006814Y019407D03*
X006714Y019840D03*
X006714Y020140D03*
X006814Y022240D03*
X024414Y020207D03*
X025414Y020140D03*
X025414Y020107D03*
X027314Y020707D03*
X025514Y017707D03*
D157*
X018081Y023374D03*
X015781Y019674D03*
X011281Y017774D03*
D158*
X009164Y019374D03*
X008664Y019574D03*
X009164Y020574D03*
X009064Y020974D03*
X006764Y022074D03*
X006664Y021674D03*
X006564Y021374D03*
X006564Y021274D03*
X006464Y020974D03*
X006564Y020374D03*
X006664Y020274D03*
X005764Y020274D03*
X005364Y020074D03*
X005764Y019674D03*
X003964Y021074D03*
X003264Y020674D03*
X003264Y019274D03*
X003364Y018974D03*
X013964Y018874D03*
X014264Y019274D03*
X014464Y019574D03*
X014564Y019674D03*
X015064Y018574D03*
X016564Y019174D03*
X016864Y019574D03*
X017064Y019874D03*
X021964Y019274D03*
X022164Y021274D03*
X022264Y021474D03*
X024364Y020074D03*
X024364Y019974D03*
X024464Y019674D03*
X025164Y018974D03*
X025264Y018674D03*
X025364Y018274D03*
X025464Y017874D03*
X027364Y019574D03*
X027664Y018774D03*
X027364Y020374D03*
X027864Y020574D03*
X027764Y020974D03*
X025364Y020274D03*
X025264Y020374D03*
D159*
X025414Y019874D03*
X025414Y018074D03*
X008614Y019274D03*
X006714Y021874D03*
D160*
X006747Y022007D03*
X006847Y022407D03*
X007947Y021807D03*
X005681Y020040D03*
X005681Y020007D03*
X005681Y019940D03*
X005681Y019907D03*
X005547Y019507D03*
X007981Y018207D03*
X011281Y018740D03*
X015047Y018540D03*
X024381Y020107D03*
X025381Y018207D03*
D161*
X011697Y018507D03*
D162*
X012314Y018540D03*
D163*
X012297Y018574D03*
D164*
X006081Y018607D03*
X019647Y019240D03*
D165*
X012314Y018607D03*
D166*
X012314Y018640D03*
D167*
X013164Y018674D03*
D168*
X019647Y018974D03*
X020181Y019474D03*
X024347Y018674D03*
D169*
X023547Y019540D03*
X024581Y020840D03*
X005981Y018707D03*
X005881Y019140D03*
X004847Y020440D03*
D170*
X005964Y018740D03*
X024664Y021240D03*
D171*
X005947Y018774D03*
D172*
X005781Y018807D03*
D173*
X007347Y020307D03*
X007347Y020340D03*
X007181Y020740D03*
X013347Y023007D03*
X013347Y023040D03*
X013347Y023107D03*
X013347Y023140D03*
X013347Y023207D03*
X013347Y023240D03*
X013347Y023307D03*
X013347Y023340D03*
X013347Y023407D03*
X013347Y023440D03*
X013347Y023507D03*
X013347Y023540D03*
X013347Y023607D03*
X013347Y023640D03*
X013347Y023707D03*
X013347Y023740D03*
X013347Y023807D03*
X013347Y023840D03*
X013381Y023907D03*
X013381Y023940D03*
X013381Y024007D03*
X015481Y026607D03*
X015481Y026640D03*
X016281Y025540D03*
X016281Y025507D03*
X018247Y024107D03*
X018247Y024040D03*
X018247Y024007D03*
X018281Y023907D03*
X018281Y023840D03*
X018281Y023807D03*
X018281Y023740D03*
X018281Y023707D03*
X018247Y023607D03*
X018247Y023540D03*
X018247Y023507D03*
X019647Y019040D03*
X015181Y019007D03*
X024281Y018807D03*
X025881Y019240D03*
X026047Y019640D03*
X026081Y020207D03*
D174*
X024481Y021107D03*
X006214Y023240D03*
X005781Y018840D03*
D175*
X005797Y018874D03*
X024497Y021074D03*
D176*
X024264Y018874D03*
X013464Y024174D03*
X007164Y020674D03*
D177*
X005814Y018974D03*
D178*
X005831Y019007D03*
D179*
X005847Y019040D03*
X023514Y019507D03*
X024547Y020940D03*
D180*
X005864Y019074D03*
D181*
X005881Y019107D03*
D182*
X005264Y020640D03*
X005564Y021107D03*
X015264Y019140D03*
X025864Y019307D03*
X025864Y019340D03*
X026164Y020040D03*
D183*
X015314Y019174D03*
D184*
X019631Y019274D03*
X024197Y019174D03*
D185*
X023864Y019474D03*
X025864Y019274D03*
X016264Y025574D03*
X013364Y022874D03*
D186*
X008064Y019474D03*
D187*
X015064Y024240D03*
X015564Y019540D03*
D188*
X015314Y022974D03*
X015314Y023074D03*
X015314Y023174D03*
X015314Y023274D03*
X015314Y023374D03*
X015314Y023474D03*
X015314Y023574D03*
X015314Y023674D03*
X015314Y023774D03*
X015314Y023874D03*
X026014Y019574D03*
X026114Y020174D03*
D189*
X018781Y019940D03*
X018747Y020007D03*
D190*
X018781Y019974D03*
D191*
X018847Y020040D03*
D192*
X004814Y020474D03*
D193*
X025614Y023174D03*
X026614Y020474D03*
D194*
X027031Y020574D03*
D195*
X024564Y020874D03*
X014364Y024874D03*
D196*
X024564Y020907D03*
D197*
X024531Y020974D03*
D198*
X024497Y021040D03*
X014364Y024840D03*
D199*
X014364Y024807D03*
X024464Y021140D03*
D200*
X024447Y021174D03*
D201*
X024681Y021274D03*
D202*
X020131Y021907D03*
X020131Y021940D03*
X020131Y022007D03*
X020131Y022040D03*
X020131Y022107D03*
X020131Y022140D03*
X020131Y022207D03*
X020131Y022240D03*
X020131Y022307D03*
X020131Y022340D03*
X020131Y022407D03*
X020131Y022440D03*
X020131Y022507D03*
X020131Y022540D03*
X017231Y022807D03*
X014331Y022140D03*
D203*
X014314Y021974D03*
D204*
X014331Y022007D03*
D205*
X014331Y022107D03*
D206*
X014331Y022174D03*
D207*
X014331Y022207D03*
D208*
X014331Y022274D03*
X017331Y022974D03*
X017331Y024574D03*
D209*
X014331Y024507D03*
X014331Y022340D03*
X014331Y022307D03*
D210*
X014331Y022374D03*
D211*
X014331Y022407D03*
X014331Y024440D03*
X017397Y023340D03*
D212*
X014331Y022440D03*
D213*
X014331Y022474D03*
X014331Y024374D03*
D214*
X014331Y024307D03*
X014331Y022540D03*
X014331Y022507D03*
X011197Y023107D03*
X011197Y023140D03*
X011197Y023207D03*
X011197Y023240D03*
X011197Y023307D03*
X011197Y023340D03*
X011197Y023407D03*
X011197Y023440D03*
X011197Y023507D03*
X011197Y023540D03*
X011197Y023607D03*
X011197Y023640D03*
X011197Y023707D03*
X011197Y023740D03*
D215*
X017097Y022707D03*
D216*
X017164Y022740D03*
X017164Y024840D03*
X020064Y023707D03*
D217*
X017264Y022840D03*
X017264Y024707D03*
D218*
X017281Y024674D03*
X017281Y022874D03*
D219*
X017314Y022940D03*
X017314Y024607D03*
D220*
X017347Y024507D03*
X017347Y023040D03*
D221*
X017347Y023074D03*
X017347Y024474D03*
D222*
X017364Y024440D03*
X017364Y024407D03*
X017364Y023140D03*
X017364Y023107D03*
D223*
X014331Y024274D03*
X011197Y023774D03*
X011197Y023674D03*
X011197Y023574D03*
X011197Y023474D03*
X011197Y023374D03*
X011197Y023274D03*
X011197Y023174D03*
D224*
X014347Y024474D03*
X017381Y024374D03*
X017381Y024274D03*
X017381Y023274D03*
X017381Y023174D03*
D225*
X020081Y023174D03*
X020081Y023274D03*
X020081Y023374D03*
X020081Y023474D03*
X020081Y023574D03*
X020081Y023674D03*
D226*
X017381Y023307D03*
X017381Y023240D03*
X017381Y023207D03*
X017381Y024307D03*
X017381Y024340D03*
D227*
X020081Y023640D03*
X020081Y023607D03*
X020081Y023540D03*
X020081Y023507D03*
X020081Y023440D03*
X020081Y023407D03*
X020081Y023340D03*
X020081Y023307D03*
X020081Y023240D03*
X020081Y023207D03*
X014347Y024707D03*
D228*
X020114Y024674D03*
X020114Y024774D03*
X020114Y024874D03*
X020114Y024574D03*
X020114Y024474D03*
X020114Y024374D03*
X020114Y024274D03*
D229*
X020114Y024307D03*
X020114Y024340D03*
X020114Y024407D03*
X020114Y024440D03*
X020114Y024507D03*
X020114Y024540D03*
X020114Y024607D03*
X020114Y024640D03*
X020114Y024707D03*
X020114Y024740D03*
X020114Y024807D03*
X020114Y024840D03*
X020114Y024907D03*
D230*
X014347Y024340D03*
D231*
X014347Y024407D03*
D232*
X014347Y024574D03*
D233*
X014347Y024607D03*
D234*
X014347Y024640D03*
X017247Y024740D03*
D235*
X014347Y024674D03*
D236*
X014347Y024740D03*
D237*
X017197Y024807D03*
D238*
X007377Y015365D02*
X007257Y015365D01*
X007347Y015456D01*
X007347Y015275D01*
X007377Y015206D02*
X007257Y015085D01*
X007287Y015115D02*
X007377Y015025D01*
X007257Y015025D02*
X007257Y015206D01*
X007193Y015206D02*
X007193Y015176D01*
X007072Y015055D01*
X007072Y015025D01*
X006978Y015025D02*
X006978Y015206D01*
X006888Y015115D01*
X007008Y015115D01*
X007072Y015206D02*
X007193Y015206D01*
X007193Y015275D02*
X007133Y015335D01*
X007163Y015335D02*
X007072Y015335D01*
X007072Y015275D02*
X007072Y015456D01*
X007163Y015456D01*
X007193Y015426D01*
X007193Y015365D01*
X007163Y015335D01*
X007162Y013081D02*
X007222Y013081D01*
X007252Y013051D01*
X007132Y012930D01*
X007162Y012900D01*
X007222Y012900D01*
X007252Y012930D01*
X007252Y013051D01*
X007162Y013081D02*
X007132Y013051D01*
X007132Y012930D01*
X007068Y012900D02*
X006947Y012900D01*
X007008Y012900D02*
X007008Y013081D01*
X006947Y013020D01*
X006883Y013051D02*
X006853Y013081D01*
X006793Y013081D01*
X006763Y013051D01*
X006763Y012930D01*
X006793Y012900D01*
X006853Y012900D01*
X006883Y012930D01*
X006823Y012831D02*
X006823Y012650D01*
X006763Y012650D02*
X006883Y012650D01*
X006947Y012590D02*
X006977Y012620D01*
X006977Y012680D01*
X007007Y012650D01*
X007037Y012650D01*
X007067Y012680D01*
X007067Y012740D01*
X007132Y012740D02*
X007192Y012740D01*
X007132Y012650D02*
X007132Y012831D01*
X007252Y012831D01*
X006977Y012740D02*
X006977Y012680D01*
X006823Y012831D02*
X006763Y012770D01*
X006701Y012680D02*
X006701Y012650D01*
X006671Y012650D01*
X006671Y012680D01*
X006701Y012680D01*
X006607Y012680D02*
X006577Y012650D01*
X006517Y012650D01*
X006487Y012680D01*
X006607Y012801D01*
X006607Y012680D01*
X006487Y012680D02*
X006487Y012801D01*
X006517Y012831D01*
X006577Y012831D01*
X006607Y012801D01*
X007941Y012031D02*
X007941Y011850D01*
X007941Y011910D02*
X008031Y011910D01*
X008061Y011940D01*
X008061Y012001D01*
X008031Y012031D01*
X007941Y012031D01*
X008001Y011910D02*
X008061Y011850D01*
X008125Y011880D02*
X008155Y011850D01*
X008215Y011850D01*
X008245Y011880D01*
X008245Y011910D01*
X008215Y011940D01*
X008185Y011940D01*
X008215Y011940D02*
X008245Y011970D01*
X008245Y012001D01*
X008215Y012031D01*
X008155Y012031D01*
X008125Y012001D01*
X008155Y011781D02*
X008215Y011781D01*
X008245Y011751D01*
X008125Y011630D01*
X008155Y011600D01*
X008215Y011600D01*
X008245Y011630D01*
X008245Y011751D01*
X008309Y011751D02*
X008309Y011630D01*
X008429Y011751D01*
X008429Y011630D01*
X008399Y011600D01*
X008339Y011600D01*
X008309Y011630D01*
X008309Y011751D02*
X008339Y011781D01*
X008399Y011781D01*
X008429Y011751D01*
X008155Y011781D02*
X008125Y011751D01*
X008125Y011630D01*
X008061Y011630D02*
X008031Y011600D01*
X007971Y011600D01*
X007941Y011630D01*
X008001Y011690D02*
X008031Y011690D01*
X008061Y011660D01*
X008061Y011630D01*
X008031Y011690D02*
X008061Y011720D01*
X008061Y011751D01*
X008031Y011781D01*
X007971Y011781D01*
X007941Y011751D01*
X007692Y010331D02*
X007632Y010270D01*
X007568Y010301D02*
X007537Y010331D01*
X007447Y010331D01*
X007447Y010150D01*
X007537Y010150D01*
X007568Y010180D01*
X007568Y010301D01*
X007692Y010331D02*
X007692Y010150D01*
X007632Y010150D02*
X007752Y010150D01*
X007383Y010150D02*
X007263Y010150D01*
X007263Y010331D01*
X007383Y010331D01*
X007323Y010240D02*
X007263Y010240D01*
X007199Y010150D02*
X007079Y010150D01*
X007079Y010331D01*
X007079Y009331D02*
X007079Y009150D01*
X007199Y009150D01*
X007263Y009150D02*
X007383Y009150D01*
X007447Y009150D02*
X007537Y009150D01*
X007568Y009180D01*
X007568Y009301D01*
X007537Y009331D01*
X007447Y009331D01*
X007447Y009150D01*
X007323Y009240D02*
X007263Y009240D01*
X007263Y009150D02*
X007263Y009331D01*
X007383Y009331D01*
X007632Y009301D02*
X007662Y009331D01*
X007722Y009331D01*
X007752Y009301D01*
X007752Y009270D01*
X007632Y009150D01*
X007752Y009150D01*
X007722Y008331D02*
X007662Y008331D01*
X007632Y008301D01*
X007568Y008301D02*
X007537Y008331D01*
X007447Y008331D01*
X007447Y008150D01*
X007537Y008150D01*
X007568Y008180D01*
X007568Y008301D01*
X007632Y008180D02*
X007662Y008150D01*
X007722Y008150D01*
X007752Y008180D01*
X007752Y008210D01*
X007722Y008240D01*
X007692Y008240D01*
X007722Y008240D02*
X007752Y008270D01*
X007752Y008301D01*
X007722Y008331D01*
X007383Y008331D02*
X007263Y008331D01*
X007263Y008150D01*
X007383Y008150D01*
X007323Y008240D02*
X007263Y008240D01*
X007199Y008150D02*
X007079Y008150D01*
X007079Y008331D01*
X017691Y004709D02*
X017691Y004522D01*
X017737Y004475D01*
X017831Y004475D01*
X017878Y004522D01*
X017967Y004475D02*
X018154Y004475D01*
X018060Y004475D02*
X018060Y004756D01*
X017967Y004662D01*
X017878Y004709D02*
X017831Y004756D01*
X017737Y004756D01*
X017691Y004709D01*
X018081Y004915D02*
X020781Y004915D01*
X020781Y005215D02*
X018081Y005215D01*
X017420Y006165D02*
X017452Y006210D01*
X017488Y006252D01*
X017527Y006292D01*
X017568Y006329D01*
X017612Y006363D01*
X017659Y006394D01*
X017707Y006422D01*
X017757Y006446D01*
X017808Y006467D01*
X017861Y006484D01*
X017915Y006498D01*
X017970Y006507D01*
X018025Y006513D01*
X018081Y006515D01*
X020781Y006515D01*
X020781Y006215D02*
X018081Y006215D01*
X017863Y005265D02*
X017897Y005250D01*
X017933Y005237D01*
X017969Y005228D01*
X018006Y005221D01*
X018043Y005216D01*
X018081Y005215D01*
X017863Y006165D02*
X017897Y006180D01*
X017933Y006193D01*
X017969Y006202D01*
X018006Y006209D01*
X018043Y006214D01*
X018081Y006215D01*
X017420Y005265D02*
X017452Y005220D01*
X017488Y005178D01*
X017527Y005138D01*
X017569Y005101D01*
X017612Y005067D01*
X017659Y005036D01*
X017707Y005008D01*
X017757Y004984D01*
X017808Y004963D01*
X017861Y004946D01*
X017915Y004932D01*
X017970Y004923D01*
X018025Y004917D01*
X018081Y004915D01*
X018981Y005715D02*
X019181Y005715D01*
X019681Y005715D02*
X019881Y005715D01*
X019743Y006475D02*
X019743Y006756D01*
X019883Y006756D01*
X019930Y006709D01*
X019930Y006616D01*
X019883Y006569D01*
X019743Y006569D01*
X019654Y006475D02*
X019654Y006756D01*
X019467Y006756D02*
X019467Y006475D01*
X019378Y006522D02*
X019378Y006709D01*
X019331Y006756D01*
X019191Y006756D01*
X019191Y006475D01*
X019331Y006475D01*
X019378Y006522D01*
X019467Y006756D02*
X019654Y006475D01*
X019654Y007475D02*
X019467Y007475D01*
X019378Y007475D02*
X019284Y007569D01*
X019331Y007569D02*
X019191Y007569D01*
X019191Y007475D02*
X019191Y007756D01*
X019331Y007756D01*
X019378Y007709D01*
X019378Y007616D01*
X019331Y007569D01*
X019467Y007662D02*
X019560Y007756D01*
X019560Y007475D01*
X020781Y004915D02*
X020837Y004917D01*
X020892Y004923D01*
X020947Y004932D01*
X021001Y004946D01*
X021054Y004963D01*
X021105Y004984D01*
X021155Y005008D01*
X021203Y005036D01*
X021250Y005067D01*
X021294Y005101D01*
X021335Y005138D01*
X021374Y005178D01*
X021410Y005220D01*
X021442Y005265D01*
X020999Y005265D02*
X020965Y005250D01*
X020929Y005237D01*
X020893Y005228D01*
X020856Y005221D01*
X020819Y005216D01*
X020781Y005215D01*
X020999Y006165D02*
X020965Y006180D01*
X020929Y006193D01*
X020893Y006202D01*
X020856Y006209D01*
X020819Y006214D01*
X020781Y006215D01*
X020781Y006515D02*
X020837Y006513D01*
X020892Y006507D01*
X020947Y006498D01*
X021001Y006484D01*
X021054Y006467D01*
X021105Y006446D01*
X021155Y006422D01*
X021203Y006394D01*
X021250Y006363D01*
X021293Y006329D01*
X021335Y006292D01*
X021374Y006252D01*
X021410Y006210D01*
X021442Y006165D01*
X022737Y007600D02*
X022691Y007647D01*
X022691Y007834D01*
X022737Y007881D01*
X022831Y007881D01*
X022878Y007834D01*
X022967Y007741D02*
X023154Y007741D01*
X023107Y007881D02*
X022967Y007741D01*
X022878Y007647D02*
X022831Y007600D01*
X022737Y007600D01*
X023107Y007600D02*
X023107Y007881D01*
X023107Y008475D02*
X023014Y008475D01*
X022967Y008522D01*
X022878Y008522D02*
X022831Y008475D01*
X022737Y008475D01*
X022691Y008522D01*
X022691Y008709D01*
X022737Y008756D01*
X022831Y008756D01*
X022878Y008709D01*
X022967Y008709D02*
X023014Y008756D01*
X023107Y008756D01*
X023154Y008709D01*
X023154Y008662D01*
X023107Y008616D01*
X023154Y008569D01*
X023154Y008522D01*
X023107Y008475D01*
X023107Y008616D02*
X023060Y008616D01*
X023081Y009725D02*
X022987Y009725D01*
X022941Y009772D01*
X022941Y009959D01*
X022987Y010006D01*
X023081Y010006D01*
X023128Y009959D01*
X023217Y010006D02*
X023217Y009866D01*
X023310Y009912D01*
X023357Y009912D01*
X023404Y009866D01*
X023404Y009772D01*
X023357Y009725D01*
X023264Y009725D01*
X023217Y009772D01*
X023128Y009772D02*
X023081Y009725D01*
X023217Y010006D02*
X023404Y010006D01*
X024691Y009261D02*
X024737Y009168D01*
X024831Y009074D01*
X024831Y009214D01*
X024877Y009261D01*
X024924Y009261D01*
X024971Y009214D01*
X024971Y009121D01*
X024924Y009074D01*
X024831Y009074D01*
X024924Y008985D02*
X024971Y008938D01*
X024971Y008845D01*
X024924Y008798D01*
X024737Y008798D01*
X024691Y008845D01*
X024691Y008938D01*
X024737Y008985D01*
X021471Y009923D02*
X021191Y009923D01*
X021191Y010063D01*
X021237Y010110D01*
X021331Y010110D01*
X021377Y010063D01*
X021377Y009923D01*
X021377Y010016D02*
X021471Y010110D01*
X021471Y010199D02*
X021284Y010386D01*
X021237Y010386D01*
X021191Y010339D01*
X021191Y010246D01*
X021237Y010199D01*
X021471Y010199D02*
X021471Y010386D01*
X020154Y010772D02*
X020107Y010725D01*
X020014Y010725D01*
X019967Y010772D01*
X019967Y010819D01*
X020014Y010866D01*
X020107Y010866D01*
X020154Y010819D01*
X020154Y010772D01*
X020107Y010866D02*
X020154Y010912D01*
X020154Y010959D01*
X020107Y011006D01*
X020014Y011006D01*
X019967Y010959D01*
X019967Y010912D01*
X020014Y010866D01*
X019878Y010959D02*
X019831Y011006D01*
X019737Y011006D01*
X019691Y010959D01*
X019691Y010772D01*
X019737Y010725D01*
X019831Y010725D01*
X019878Y010772D01*
X019831Y011600D02*
X019878Y011647D01*
X019831Y011600D02*
X019737Y011600D01*
X019691Y011647D01*
X019691Y011834D01*
X019737Y011881D01*
X019831Y011881D01*
X019878Y011834D01*
X019967Y011834D02*
X019967Y011787D01*
X020014Y011741D01*
X020154Y011741D01*
X020154Y011834D02*
X020107Y011881D01*
X020014Y011881D01*
X019967Y011834D01*
X020154Y011834D02*
X020154Y011647D01*
X020107Y011600D01*
X020014Y011600D01*
X019967Y011647D01*
X018851Y010581D02*
X018851Y010534D01*
X018665Y010347D01*
X018665Y010300D01*
X018575Y010347D02*
X018528Y010300D01*
X018435Y010300D01*
X018388Y010347D01*
X018388Y010534D01*
X018435Y010581D01*
X018528Y010581D01*
X018575Y010534D01*
X018665Y010581D02*
X018851Y010581D01*
X020685Y003956D02*
X020638Y003909D01*
X020638Y003722D01*
X020685Y003675D01*
X020778Y003675D01*
X020825Y003722D01*
X020915Y003675D02*
X021101Y003862D01*
X021101Y003909D01*
X021055Y003956D01*
X020961Y003956D01*
X020915Y003909D01*
X020825Y003909D02*
X020778Y003956D01*
X020685Y003956D01*
X020915Y003675D02*
X021101Y003675D01*
D239*
X018551Y007970D02*
X018401Y007970D01*
X018551Y008070D01*
X018401Y008070D01*
X018401Y008118D02*
X018401Y008193D01*
X018426Y008218D01*
X018476Y008218D01*
X018501Y008193D01*
X018501Y008118D01*
X018501Y008168D02*
X018551Y008218D01*
X018551Y008265D02*
X018401Y008265D01*
X018401Y008365D01*
X018426Y008412D02*
X018401Y008437D01*
X018401Y008487D01*
X018426Y008512D01*
X018451Y008512D01*
X018551Y008412D01*
X018551Y008512D01*
X018476Y008560D02*
X018476Y008660D01*
X018551Y008635D02*
X018401Y008635D01*
X018476Y008560D01*
X018401Y008707D02*
X018551Y008707D01*
X018551Y008807D01*
X018526Y008854D02*
X018426Y008954D01*
X018526Y008954D01*
X018551Y008929D01*
X018551Y008879D01*
X018526Y008854D01*
X018426Y008854D01*
X018401Y008879D01*
X018401Y008929D01*
X018426Y008954D01*
X018451Y009002D02*
X018401Y009052D01*
X018551Y009052D01*
X018551Y009002D02*
X018551Y009102D01*
X018526Y009149D02*
X018551Y009174D01*
X018551Y009224D01*
X018526Y009249D01*
X018501Y009249D01*
X018476Y009224D01*
X018476Y009174D01*
X018451Y009149D01*
X018426Y009149D01*
X018401Y009174D01*
X018401Y009224D01*
X018426Y009249D01*
X018401Y009296D02*
X018451Y009346D01*
X018401Y009396D01*
X018551Y009396D01*
X018551Y009444D02*
X018551Y009519D01*
X018526Y009544D01*
X018426Y009544D01*
X018401Y009519D01*
X018401Y009444D01*
X018551Y009444D01*
X018551Y009296D02*
X018401Y009296D01*
X018386Y009695D02*
X018411Y009720D01*
X018411Y009846D01*
X018458Y009795D02*
X018508Y009846D01*
X018508Y009695D01*
X018458Y009695D02*
X018558Y009695D01*
X018386Y009695D02*
X018336Y009695D01*
X018311Y009720D01*
X018311Y009846D01*
X018476Y008315D02*
X018476Y008265D01*
X018551Y008118D02*
X018401Y008118D01*
X020486Y008732D02*
X020486Y008782D01*
X020511Y008808D01*
X020536Y008808D01*
X020561Y008782D01*
X020561Y008732D01*
X020536Y008707D01*
X020511Y008707D01*
X020486Y008732D01*
X020561Y008732D02*
X020586Y008707D01*
X020611Y008707D01*
X020636Y008732D01*
X020636Y008782D01*
X020611Y008808D01*
X020586Y008808D01*
X020561Y008782D01*
X020611Y008855D02*
X020611Y008880D01*
X020636Y008880D01*
X020636Y008855D01*
X020611Y008855D01*
X020636Y008928D02*
X020536Y009029D01*
X020511Y009029D01*
X020486Y009003D01*
X020486Y008953D01*
X020511Y008928D01*
X020636Y008928D02*
X020636Y009029D01*
X020636Y009076D02*
X020536Y009076D01*
X020536Y009151D01*
X020561Y009176D01*
X020636Y009176D01*
X020636Y009223D02*
X020486Y009223D01*
X020561Y009223D02*
X020561Y009323D01*
X020486Y009323D02*
X020636Y009323D01*
X021236Y009223D02*
X021286Y009173D01*
X021236Y009223D02*
X021386Y009223D01*
X021386Y009173D02*
X021386Y009273D01*
X021386Y009126D02*
X021386Y009026D01*
X021236Y009026D01*
X021536Y009045D02*
X021561Y009020D01*
X021611Y009020D01*
X021636Y009045D01*
X021636Y009070D01*
X021611Y009095D01*
X021586Y009095D01*
X021611Y009095D02*
X021636Y009120D01*
X021636Y009145D01*
X021611Y009171D01*
X021561Y009171D01*
X021536Y009145D01*
X021683Y009045D02*
X021708Y009045D01*
X021708Y009020D01*
X021683Y009020D01*
X021683Y009045D01*
X021757Y009045D02*
X021782Y009020D01*
X021832Y009020D01*
X021857Y009045D01*
X021857Y009145D01*
X021832Y009171D01*
X021782Y009171D01*
X021757Y009145D01*
X021757Y009120D01*
X021782Y009095D01*
X021857Y009095D01*
X021904Y009120D02*
X021979Y009120D01*
X022004Y009095D01*
X022004Y009020D01*
X022051Y009020D02*
X022051Y009171D01*
X022051Y009095D02*
X022151Y009095D01*
X022151Y009020D02*
X022151Y009171D01*
X021904Y009120D02*
X021904Y009020D01*
X021636Y008823D02*
X021486Y008823D01*
X021561Y008823D02*
X021561Y008723D01*
X021561Y008676D02*
X021636Y008676D01*
X021636Y008723D02*
X021486Y008723D01*
X021536Y008651D02*
X021536Y008576D01*
X021636Y008576D01*
X021536Y008651D02*
X021561Y008676D01*
X021511Y008529D02*
X021486Y008529D01*
X021486Y008428D01*
X021511Y008529D02*
X021611Y008428D01*
X021636Y008428D01*
X021636Y008380D02*
X021636Y008355D01*
X021611Y008355D01*
X021611Y008380D01*
X021636Y008380D01*
X021636Y008308D02*
X021636Y008207D01*
X021536Y008308D01*
X021511Y008308D01*
X021486Y008282D01*
X021486Y008232D01*
X021511Y008207D01*
X022236Y008526D02*
X022386Y008526D01*
X022386Y008626D01*
X022386Y008673D02*
X022286Y008773D01*
X022261Y008773D01*
X022236Y008748D01*
X022236Y008698D01*
X022261Y008673D01*
X022386Y008673D02*
X022386Y008773D01*
X021808Y009770D02*
X021758Y009770D01*
X021733Y009795D01*
X021686Y009770D02*
X021586Y009770D01*
X021586Y009921D01*
X021733Y009895D02*
X021758Y009921D01*
X021808Y009921D01*
X021833Y009895D01*
X021833Y009870D01*
X021808Y009845D01*
X021833Y009820D01*
X021833Y009795D01*
X021808Y009770D01*
X021808Y009845D02*
X021783Y009845D01*
D240*
X017931Y007555D02*
X017856Y007555D01*
X017555Y007855D01*
X017480Y007855D01*
X017480Y007555D01*
X017431Y007241D02*
X017506Y007166D01*
X017506Y006865D01*
X017431Y006790D01*
X017281Y006790D01*
X017206Y006865D01*
X017206Y007166D01*
X017281Y007241D01*
X017431Y007241D01*
X017666Y007091D02*
X017816Y007241D01*
X017816Y006790D01*
X017666Y006790D02*
X017966Y006790D01*
X017506Y006790D02*
X017356Y006941D01*
X015631Y005141D02*
X015631Y005066D01*
X015556Y004991D01*
X015406Y004991D01*
X015331Y005066D01*
X015331Y005141D01*
X015406Y005216D01*
X015556Y005216D01*
X015631Y005141D01*
X015556Y004991D02*
X015631Y004916D01*
X015631Y004840D01*
X015556Y004765D01*
X015406Y004765D01*
X015331Y004840D01*
X015331Y004916D01*
X015406Y004991D01*
X013109Y003341D02*
X013109Y003040D01*
X013034Y002965D01*
X012883Y002965D01*
X012808Y003040D01*
X012808Y003341D01*
X012883Y003416D01*
X013034Y003416D01*
X013109Y003341D01*
X012652Y003416D02*
X012501Y003416D01*
X012577Y003416D02*
X012577Y002965D01*
X012652Y002965D02*
X012501Y002965D01*
X012341Y003191D02*
X012266Y003116D01*
X012041Y003116D01*
X012041Y002965D02*
X012041Y003416D01*
X012266Y003416D01*
X012341Y003341D01*
X012341Y003191D01*
X011881Y003191D02*
X011881Y003040D01*
X011806Y002965D01*
X011656Y002965D01*
X011581Y003040D01*
X011581Y003341D01*
X011656Y003416D01*
X011806Y003416D01*
X011881Y003341D01*
X011881Y003191D02*
X011731Y003191D01*
X009302Y004840D02*
X009227Y004765D01*
X009077Y004765D01*
X009001Y004840D01*
X008841Y004916D02*
X008841Y005216D01*
X009001Y005141D02*
X009077Y005216D01*
X009227Y005216D01*
X009302Y005141D01*
X009302Y005066D01*
X009227Y004991D01*
X009302Y004916D01*
X009302Y004840D01*
X009227Y004991D02*
X009152Y004991D01*
X008841Y004916D02*
X008691Y004765D01*
X008541Y004916D01*
X008541Y005216D01*
X008381Y005141D02*
X008306Y005216D01*
X008156Y005216D01*
X008081Y005141D01*
X008081Y005066D01*
X008156Y004991D01*
X008306Y004991D01*
X008381Y004916D01*
X008381Y004840D01*
X008306Y004765D01*
X008156Y004765D01*
X008081Y004840D01*
X008531Y003416D02*
X008531Y002965D01*
X008381Y002965D02*
X008681Y002965D01*
X008381Y003266D02*
X008531Y003416D01*
X009319Y007853D02*
X009319Y012578D01*
X014043Y012578D01*
X014043Y007853D01*
X009319Y007853D01*
X011802Y011807D02*
X011953Y011807D01*
X012028Y011882D01*
X012028Y012258D01*
X012188Y012183D02*
X012263Y012258D01*
X012413Y012258D01*
X012488Y012183D01*
X012488Y012108D01*
X012188Y011807D01*
X012488Y011807D01*
X011802Y011807D02*
X011727Y011882D01*
X011727Y012258D01*
X009457Y012341D02*
X009459Y012362D01*
X009465Y012381D01*
X009474Y012400D01*
X009486Y012416D01*
X009502Y012430D01*
X009519Y012441D01*
X009538Y012449D01*
X009559Y012453D01*
X009579Y012453D01*
X009600Y012449D01*
X009619Y012441D01*
X009636Y012430D01*
X009652Y012416D01*
X009664Y012400D01*
X009673Y012381D01*
X009679Y012362D01*
X009681Y012341D01*
X009679Y012320D01*
X009673Y012301D01*
X009664Y012282D01*
X009652Y012266D01*
X009636Y012252D01*
X009619Y012241D01*
X009600Y012233D01*
X009579Y012229D01*
X009559Y012229D01*
X009538Y012233D01*
X009519Y012241D01*
X009502Y012252D01*
X009486Y012266D01*
X009474Y012282D01*
X009465Y012301D01*
X009459Y012320D01*
X009457Y012341D01*
X009296Y013215D02*
X009296Y013666D01*
X009070Y013441D01*
X009371Y013441D01*
X008910Y013215D02*
X008610Y013215D01*
X008760Y013215D02*
X008760Y013666D01*
X008610Y013516D01*
X011239Y016090D02*
X011314Y016015D01*
X011389Y016015D01*
X011464Y016090D01*
X011464Y016466D01*
X011389Y016466D02*
X011539Y016466D01*
X011700Y016466D02*
X012000Y016466D01*
X011850Y016466D02*
X011850Y016015D01*
X012160Y016015D02*
X012160Y016316D01*
X012310Y016466D01*
X012460Y016316D01*
X012460Y016015D01*
X012620Y016090D02*
X012620Y016391D01*
X012695Y016466D01*
X012845Y016466D01*
X012921Y016391D01*
X012921Y016241D02*
X012770Y016241D01*
X012921Y016241D02*
X012921Y016090D01*
X012845Y016015D01*
X012695Y016015D01*
X012620Y016090D01*
X012460Y016241D02*
X012160Y016241D01*
X014275Y013666D02*
X014200Y013591D01*
X014200Y013516D01*
X014275Y013441D01*
X014425Y013441D01*
X014500Y013366D01*
X014500Y013290D01*
X014425Y013215D01*
X014275Y013215D01*
X014200Y013290D01*
X014275Y013666D02*
X014425Y013666D01*
X014500Y013591D01*
X014660Y013666D02*
X014660Y013366D01*
X014810Y013215D01*
X014960Y013366D01*
X014960Y013666D01*
X015120Y013591D02*
X015195Y013666D01*
X015346Y013666D01*
X015421Y013591D01*
X015421Y013516D01*
X015120Y013215D01*
X015421Y013215D01*
X015831Y013655D02*
X015680Y013805D01*
X016131Y013805D01*
X016131Y013655D02*
X016131Y013955D01*
X016995Y014165D02*
X017070Y014090D01*
X017221Y014090D01*
X017296Y014165D01*
X017296Y014241D01*
X017221Y014316D01*
X016995Y014316D01*
X016995Y014165D01*
X016995Y014316D02*
X017146Y014466D01*
X017296Y014541D01*
X017480Y014055D02*
X017931Y014055D01*
X017931Y013905D02*
X017931Y014205D01*
X017631Y013905D02*
X017480Y014055D01*
X017480Y013745D02*
X017781Y013745D01*
X017931Y013595D01*
X017781Y013445D01*
X017480Y013445D01*
X017555Y013284D02*
X017480Y013209D01*
X017480Y013059D01*
X017555Y012984D01*
X017631Y012984D01*
X017706Y013059D01*
X017706Y013209D01*
X017781Y013284D01*
X017856Y013284D01*
X017931Y013209D01*
X017931Y013059D01*
X017856Y012984D01*
X016131Y011705D02*
X016131Y011405D01*
X015680Y011405D01*
X015680Y011705D01*
X015906Y011555D02*
X015906Y011405D01*
X016056Y011245D02*
X016131Y011170D01*
X016131Y011020D01*
X016056Y010945D01*
X015755Y010945D01*
X015680Y011020D01*
X015680Y011170D01*
X015755Y011245D01*
X015680Y010788D02*
X015680Y010638D01*
X015680Y010713D02*
X016131Y010713D01*
X016131Y010638D02*
X016131Y010788D01*
X019325Y015890D02*
X019550Y015890D01*
X019625Y015965D01*
X019625Y016041D01*
X019550Y016116D01*
X019325Y016116D01*
X019325Y016341D02*
X019325Y015890D01*
X019550Y016116D02*
X019625Y016191D01*
X019625Y016266D01*
X019550Y016341D01*
X019325Y016341D01*
X019785Y016266D02*
X019785Y016191D01*
X019860Y016116D01*
X020010Y016116D01*
X020085Y016041D01*
X020085Y015965D01*
X020010Y015890D01*
X019860Y015890D01*
X019785Y015965D01*
X019785Y016266D02*
X019860Y016341D01*
X020010Y016341D01*
X020085Y016266D01*
X020245Y016341D02*
X020245Y015890D01*
X020546Y015890D01*
X021400Y014541D02*
X021325Y014466D01*
X021325Y014391D01*
X021400Y014316D01*
X021550Y014316D01*
X021625Y014241D01*
X021625Y014165D01*
X021550Y014090D01*
X021400Y014090D01*
X021325Y014165D01*
X021400Y014541D02*
X021550Y014541D01*
X021625Y014466D01*
X021785Y014541D02*
X021785Y014241D01*
X021935Y014090D01*
X022085Y014241D01*
X022085Y014541D01*
X022245Y014316D02*
X022546Y014316D01*
X022471Y014541D02*
X022471Y014090D01*
X022245Y014316D02*
X022471Y014541D01*
X022296Y015890D02*
X021995Y015890D01*
X022146Y015890D02*
X022146Y016341D01*
X021995Y016191D01*
X015121Y016015D02*
X014820Y016015D01*
X014971Y016015D02*
X014971Y016466D01*
X014820Y016316D01*
X018304Y003541D02*
X018304Y003090D01*
X018154Y003090D02*
X018454Y003090D01*
X018614Y003165D02*
X018689Y003090D01*
X018839Y003090D01*
X018914Y003165D01*
X018914Y003241D01*
X018839Y003316D01*
X018614Y003316D01*
X018614Y003165D01*
X018614Y003316D02*
X018764Y003466D01*
X018914Y003541D01*
X019075Y003541D02*
X019075Y003090D01*
X019375Y003090D02*
X019375Y003541D01*
X019225Y003391D01*
X019075Y003541D01*
X019535Y003541D02*
X019535Y003090D01*
X019535Y003316D02*
X019835Y003316D01*
X019995Y003391D02*
X020296Y003391D01*
X019995Y003090D01*
X020296Y003090D01*
X019835Y003090D02*
X019835Y003541D01*
X018304Y003541D02*
X018154Y003391D01*
D241*
X018643Y009556D02*
X018840Y009753D01*
D242*
X013549Y007629D03*
X013352Y007629D03*
X013155Y007629D03*
X012958Y007629D03*
X012761Y007629D03*
X012565Y007629D03*
X012368Y007629D03*
X012171Y007629D03*
X011974Y007629D03*
X011777Y007629D03*
X011580Y007629D03*
X011384Y007629D03*
X011187Y007629D03*
X010990Y007629D03*
X010793Y007629D03*
X010596Y007629D03*
X010399Y007629D03*
X010202Y007629D03*
X010006Y007629D03*
X009809Y007629D03*
X009809Y012802D03*
X010006Y012802D03*
X010202Y012802D03*
X010399Y012802D03*
X010596Y012802D03*
X010793Y012802D03*
X010990Y012802D03*
X011187Y012802D03*
X011384Y012802D03*
X011580Y012802D03*
X011777Y012802D03*
X011974Y012802D03*
X012171Y012802D03*
X012368Y012802D03*
X012565Y012802D03*
X012761Y012802D03*
X012958Y012802D03*
X013155Y012802D03*
X013352Y012802D03*
X013549Y012802D03*
D243*
X014267Y012087D03*
X014267Y011891D03*
X014267Y011694D03*
X014267Y011497D03*
X014267Y011300D03*
X014267Y011103D03*
X014267Y010906D03*
X014267Y010709D03*
X014267Y010513D03*
X014267Y010316D03*
X014267Y010119D03*
X014267Y009922D03*
X014267Y009725D03*
X014267Y009528D03*
X014267Y009332D03*
X014267Y009135D03*
X014267Y008938D03*
X014267Y008741D03*
X014267Y008544D03*
X014267Y008347D03*
X009094Y008347D03*
X009094Y008544D03*
X009094Y008741D03*
X009094Y008938D03*
X009094Y009135D03*
X009094Y009332D03*
X009094Y009528D03*
X009094Y009725D03*
X009094Y009922D03*
X009094Y010119D03*
X009094Y010316D03*
X009094Y010513D03*
X009094Y010709D03*
X009094Y010906D03*
X009094Y011103D03*
X009094Y011300D03*
X009094Y011497D03*
X009094Y011694D03*
X009094Y011891D03*
X009094Y012087D03*
D244*
X007480Y010590D03*
X007480Y009590D03*
X007480Y008590D03*
M02*
