G75*
G70*
%OFA0B0*%
%FSLAX24Y24*%
%IPPOS*%
%LPD*%
%AMOC8*
5,1,8,0,0,1.08239X$1,22.5*
%
%ADD10C,0.0600*%
%ADD11OC8,0.0600*%
%ADD12R,0.0157X0.0591*%
%ADD13R,0.0866X0.0984*%
%ADD14R,0.0787X0.0197*%
%ADD15R,0.2000X0.2000*%
%ADD16R,0.3000X0.3000*%
%ADD17C,0.0160*%
%ADD18C,0.0357*%
%ADD19C,0.0100*%
%ADD20C,0.0500*%
%ADD21R,0.0396X0.0396*%
%ADD22C,0.0396*%
D10*
X008563Y003764D02*
X008563Y004364D01*
X009563Y004364D02*
X009563Y003764D01*
X010563Y003764D02*
X010563Y004364D01*
X011563Y004364D02*
X011563Y003764D01*
X012563Y003764D02*
X012563Y004364D01*
X013563Y004364D02*
X013563Y003764D01*
X014563Y003764D02*
X014563Y004364D01*
X015563Y004364D02*
X015563Y003764D01*
X016513Y007814D02*
X017113Y007814D01*
X017113Y008814D02*
X016513Y008814D01*
X016513Y009814D02*
X017113Y009814D01*
X017113Y010814D02*
X016513Y010814D01*
X016513Y011814D02*
X017113Y011814D01*
X017113Y012814D02*
X016513Y012814D01*
X016513Y013814D02*
X017113Y013814D01*
X017188Y014889D02*
X017188Y015489D01*
X018188Y015489D02*
X018188Y014889D01*
X019188Y014889D02*
X019188Y015489D01*
X020188Y015489D02*
X020188Y014889D01*
X021188Y014889D02*
X021188Y015489D01*
X022188Y015489D02*
X022188Y014889D01*
D11*
X015063Y015314D03*
X015063Y014314D03*
X014063Y014314D03*
X014063Y015314D03*
X013063Y015314D03*
X013063Y014314D03*
X012063Y014314D03*
X012063Y015314D03*
X011063Y015314D03*
X011063Y014314D03*
X010063Y014314D03*
X010063Y015314D03*
X009063Y015314D03*
X009063Y014314D03*
D12*
X010024Y013116D03*
X010280Y013116D03*
X010536Y013116D03*
X010792Y013116D03*
X011048Y013116D03*
X011304Y013116D03*
X011560Y013116D03*
X011816Y013116D03*
X012072Y013116D03*
X012328Y013116D03*
X012583Y013116D03*
X012839Y013116D03*
X013095Y013116D03*
X013351Y013116D03*
X013351Y010262D03*
X013095Y010262D03*
X012839Y010262D03*
X012583Y010262D03*
X012328Y010262D03*
X012072Y010262D03*
X011816Y010262D03*
X011560Y010262D03*
X011304Y010262D03*
X011048Y010262D03*
X010792Y010262D03*
X010536Y010262D03*
X010280Y010262D03*
X010024Y010262D03*
D13*
G36*
X005943Y009091D02*
X005130Y008795D01*
X004793Y009719D01*
X005606Y010015D01*
X005943Y009091D01*
G37*
G36*
X003982Y008377D02*
X003169Y008081D01*
X002832Y009005D01*
X003645Y009301D01*
X003982Y008377D01*
G37*
G36*
X002851Y011485D02*
X002038Y011189D01*
X001701Y012113D01*
X002514Y012409D01*
X002851Y011485D01*
G37*
G36*
X004812Y012198D02*
X003999Y011902D01*
X003662Y012826D01*
X004475Y013122D01*
X004812Y012198D01*
G37*
D14*
G36*
X005082Y011626D02*
X004345Y011358D01*
X004278Y011542D01*
X005015Y011810D01*
X005082Y011626D01*
G37*
G36*
X005189Y011330D02*
X004452Y011062D01*
X004385Y011246D01*
X005122Y011514D01*
X005189Y011330D01*
G37*
G36*
X005297Y011034D02*
X004560Y010766D01*
X004493Y010950D01*
X005230Y011218D01*
X005297Y011034D01*
G37*
G36*
X005405Y010738D02*
X004668Y010470D01*
X004601Y010654D01*
X005338Y010922D01*
X005405Y010738D01*
G37*
G36*
X005513Y010442D02*
X004776Y010174D01*
X004709Y010358D01*
X005446Y010626D01*
X005513Y010442D01*
G37*
D15*
X009688Y021564D03*
X021688Y021564D03*
D16*
X015688Y021564D03*
D17*
X009853Y005270D02*
X005290Y005270D01*
X005128Y005429D02*
X009853Y005429D01*
X009853Y005587D02*
X004965Y005587D01*
X004956Y005597D02*
X004028Y006702D01*
X003216Y007894D01*
X003201Y007922D01*
X004100Y008249D01*
X004156Y008369D01*
X003945Y008948D01*
X004473Y009140D01*
X004501Y009200D01*
X004248Y009896D01*
X004664Y010048D01*
X004767Y010000D01*
X005289Y010190D01*
X007890Y010190D01*
X009724Y008355D01*
X009724Y008247D01*
X009776Y008122D01*
X009871Y008027D01*
X009995Y007976D01*
X010130Y007976D01*
X010254Y008027D01*
X010350Y008122D01*
X010401Y008247D01*
X010401Y008381D01*
X010368Y008462D01*
X010853Y007977D01*
X010976Y007854D01*
X012226Y007854D01*
X012351Y007854D01*
X012353Y007852D01*
X012353Y004775D01*
X012302Y004754D01*
X012173Y004625D01*
X012103Y004456D01*
X012103Y003673D01*
X012173Y003503D01*
X012302Y003374D01*
X012471Y003304D01*
X012654Y003304D01*
X012823Y003374D01*
X012953Y003503D01*
X013023Y003673D01*
X013023Y004456D01*
X012953Y004625D01*
X012823Y004754D01*
X012773Y004775D01*
X012773Y007854D01*
X012993Y007854D01*
X013006Y007844D01*
X013078Y007854D01*
X013150Y007854D01*
X013162Y007866D01*
X013179Y007868D01*
X013222Y007926D01*
X013273Y007977D01*
X013273Y007994D01*
X013593Y008421D01*
X014590Y009302D01*
X014598Y009302D01*
X014655Y009359D01*
X014715Y009412D01*
X014715Y009420D01*
X014721Y009425D01*
X014721Y009506D01*
X014726Y009586D01*
X014721Y009591D01*
X014721Y010175D01*
X015525Y010979D01*
X015648Y011102D01*
X015648Y012477D01*
X016053Y012882D01*
X016053Y012723D01*
X016123Y012553D01*
X016252Y012424D01*
X016421Y012354D01*
X017204Y012354D01*
X017373Y012424D01*
X017503Y012553D01*
X017573Y012723D01*
X017573Y012906D01*
X017503Y013075D01*
X017473Y013104D01*
X017476Y013104D01*
X017650Y013104D01*
X018025Y013479D01*
X019726Y013479D01*
X019900Y013479D01*
X019958Y013537D01*
X021063Y012064D01*
X024438Y009939D01*
X028730Y009472D01*
X028271Y008519D01*
X027518Y007288D01*
X026647Y006138D01*
X025666Y005080D01*
X024585Y004126D01*
X023413Y003284D01*
X022164Y002563D01*
X020849Y001969D01*
X019482Y001510D01*
X018075Y001189D01*
X016644Y001009D01*
X015202Y000974D01*
X013764Y001081D01*
X012343Y001332D01*
X010954Y001723D01*
X009611Y002250D01*
X008328Y002908D01*
X007116Y003690D01*
X005988Y004590D01*
X004956Y005597D01*
X004830Y005746D02*
X009853Y005746D01*
X009853Y005893D02*
X009759Y005986D01*
X009705Y006118D01*
X009705Y006260D01*
X009759Y006392D01*
X009860Y006493D01*
X009992Y006547D01*
X010134Y006547D01*
X010266Y006493D01*
X010366Y006392D01*
X010421Y006260D01*
X010421Y006118D01*
X010366Y005986D01*
X010273Y005893D01*
X010273Y004724D01*
X010302Y004754D01*
X010471Y004824D01*
X010654Y004824D01*
X010823Y004754D01*
X010953Y004625D01*
X011023Y004456D01*
X011023Y003673D01*
X010953Y003503D01*
X010823Y003374D01*
X010654Y003304D01*
X010471Y003304D01*
X010302Y003374D01*
X010273Y003404D01*
X010273Y003401D01*
X010400Y003274D01*
X012976Y003274D01*
X013189Y003487D01*
X013173Y003503D01*
X013103Y003673D01*
X013103Y004456D01*
X013173Y004625D01*
X013302Y004754D01*
X013471Y004824D01*
X013654Y004824D01*
X013823Y004754D01*
X013953Y004625D01*
X014023Y004456D01*
X014023Y003673D01*
X013953Y003503D01*
X013823Y003374D01*
X013654Y003304D01*
X013600Y003304D01*
X013150Y002854D01*
X012976Y002854D01*
X010226Y002854D01*
X010103Y002977D01*
X009853Y003227D01*
X009853Y003401D01*
X009853Y003404D01*
X009823Y003374D01*
X009654Y003304D01*
X009471Y003304D01*
X009302Y003374D01*
X009173Y003503D01*
X009103Y003673D01*
X009103Y004456D01*
X009173Y004625D01*
X009302Y004754D01*
X009471Y004824D01*
X009654Y004824D01*
X009823Y004754D01*
X009853Y004724D01*
X009853Y005893D01*
X009841Y005904D02*
X004697Y005904D01*
X004564Y006063D02*
X009727Y006063D01*
X009705Y006222D02*
X004431Y006222D01*
X004298Y006380D02*
X009754Y006380D01*
X009971Y006539D02*
X004165Y006539D01*
X004032Y006697D02*
X012353Y006697D01*
X012353Y006539D02*
X010154Y006539D01*
X010371Y006380D02*
X012353Y006380D01*
X012353Y006222D02*
X010421Y006222D01*
X010398Y006063D02*
X012353Y006063D01*
X012353Y005904D02*
X010285Y005904D01*
X010273Y005746D02*
X012353Y005746D01*
X012353Y005587D02*
X010273Y005587D01*
X010273Y005429D02*
X012353Y005429D01*
X012353Y005270D02*
X010273Y005270D01*
X010273Y005112D02*
X012353Y005112D01*
X012353Y004953D02*
X010273Y004953D01*
X010273Y004795D02*
X010400Y004795D01*
X010725Y004795D02*
X011400Y004795D01*
X011471Y004824D02*
X011302Y004754D01*
X011173Y004625D01*
X011103Y004456D01*
X011103Y003673D01*
X011173Y003503D01*
X011302Y003374D01*
X011471Y003304D01*
X011654Y003304D01*
X011823Y003374D01*
X011953Y003503D01*
X012023Y003673D01*
X012023Y004456D01*
X011953Y004625D01*
X011823Y004754D01*
X011654Y004824D01*
X011471Y004824D01*
X011725Y004795D02*
X012353Y004795D01*
X012184Y004636D02*
X011941Y004636D01*
X012014Y004478D02*
X012112Y004478D01*
X012103Y004319D02*
X012023Y004319D01*
X012023Y004161D02*
X012103Y004161D01*
X012103Y004002D02*
X012023Y004002D01*
X012023Y003843D02*
X012103Y003843D01*
X012103Y003685D02*
X012023Y003685D01*
X011962Y003526D02*
X012163Y003526D01*
X012317Y003368D02*
X011808Y003368D01*
X011317Y003368D02*
X010808Y003368D01*
X010962Y003526D02*
X011163Y003526D01*
X011103Y003685D02*
X011023Y003685D01*
X011023Y003843D02*
X011103Y003843D01*
X011103Y004002D02*
X011023Y004002D01*
X011023Y004161D02*
X011103Y004161D01*
X011103Y004319D02*
X011023Y004319D01*
X011014Y004478D02*
X011112Y004478D01*
X011184Y004636D02*
X010941Y004636D01*
X009853Y004795D02*
X009725Y004795D01*
X009853Y004953D02*
X005615Y004953D01*
X005453Y005112D02*
X009853Y005112D01*
X009400Y004795D02*
X008725Y004795D01*
X008654Y004824D02*
X008471Y004824D01*
X008302Y004754D01*
X008173Y004625D01*
X008103Y004456D01*
X008103Y003673D01*
X008173Y003503D01*
X008302Y003374D01*
X008471Y003304D01*
X008654Y003304D01*
X008823Y003374D01*
X008953Y003503D01*
X009023Y003673D01*
X009023Y004456D01*
X008953Y004625D01*
X008823Y004754D01*
X008654Y004824D01*
X008400Y004795D02*
X005778Y004795D01*
X005941Y004636D02*
X008184Y004636D01*
X008112Y004478D02*
X006129Y004478D01*
X006328Y004319D02*
X008103Y004319D01*
X008103Y004161D02*
X006526Y004161D01*
X006725Y004002D02*
X008103Y004002D01*
X008103Y003843D02*
X006924Y003843D01*
X007124Y003685D02*
X008103Y003685D01*
X008163Y003526D02*
X007370Y003526D01*
X007615Y003368D02*
X008317Y003368D01*
X008106Y003051D02*
X010029Y003051D01*
X009871Y003209D02*
X007861Y003209D01*
X008358Y002892D02*
X010188Y002892D01*
X010306Y003368D02*
X010317Y003368D01*
X009853Y003368D02*
X009808Y003368D01*
X009317Y003368D02*
X008808Y003368D01*
X008962Y003526D02*
X009163Y003526D01*
X009103Y003685D02*
X009023Y003685D01*
X009023Y003843D02*
X009103Y003843D01*
X009103Y004002D02*
X009023Y004002D01*
X009023Y004161D02*
X009103Y004161D01*
X009103Y004319D02*
X009023Y004319D01*
X009014Y004478D02*
X009112Y004478D01*
X009184Y004636D02*
X008941Y004636D01*
X008667Y002734D02*
X022460Y002734D01*
X022186Y002575D02*
X008976Y002575D01*
X009286Y002417D02*
X021841Y002417D01*
X021489Y002258D02*
X009595Y002258D01*
X009994Y002099D02*
X021138Y002099D01*
X020765Y001941D02*
X010398Y001941D01*
X010802Y001782D02*
X020293Y001782D01*
X019821Y001624D02*
X011305Y001624D01*
X011869Y001465D02*
X019287Y001465D01*
X018592Y001307D02*
X012485Y001307D01*
X013384Y001148D02*
X017751Y001148D01*
X015849Y000990D02*
X014987Y000990D01*
X013188Y002892D02*
X022735Y002892D01*
X023010Y003051D02*
X013346Y003051D01*
X013505Y003209D02*
X023284Y003209D01*
X023530Y003368D02*
X015808Y003368D01*
X015823Y003374D02*
X015953Y003503D01*
X016023Y003673D01*
X016023Y004456D01*
X015953Y004625D01*
X015823Y004754D01*
X015654Y004824D01*
X015471Y004824D01*
X015302Y004754D01*
X015173Y004625D01*
X015103Y004456D01*
X015103Y003673D01*
X015173Y003503D01*
X015302Y003374D01*
X015471Y003304D01*
X015654Y003304D01*
X015823Y003374D01*
X015962Y003526D02*
X023751Y003526D01*
X023971Y003685D02*
X016023Y003685D01*
X016023Y003843D02*
X024192Y003843D01*
X024412Y004002D02*
X016023Y004002D01*
X016023Y004161D02*
X024624Y004161D01*
X024804Y004319D02*
X016023Y004319D01*
X016014Y004478D02*
X024983Y004478D01*
X025163Y004636D02*
X015941Y004636D01*
X015725Y004795D02*
X025343Y004795D01*
X025522Y004953D02*
X012773Y004953D01*
X012773Y004795D02*
X013400Y004795D01*
X013184Y004636D02*
X012941Y004636D01*
X013014Y004478D02*
X013112Y004478D01*
X013103Y004319D02*
X013023Y004319D01*
X013023Y004161D02*
X013103Y004161D01*
X013103Y004002D02*
X013023Y004002D01*
X013023Y003843D02*
X013103Y003843D01*
X013103Y003685D02*
X013023Y003685D01*
X012962Y003526D02*
X013163Y003526D01*
X013070Y003368D02*
X012808Y003368D01*
X013808Y003368D02*
X014317Y003368D01*
X014302Y003374D02*
X014471Y003304D01*
X014654Y003304D01*
X014823Y003374D01*
X014953Y003503D01*
X015023Y003673D01*
X015023Y004456D01*
X014953Y004625D01*
X014823Y004754D01*
X014654Y004824D01*
X014471Y004824D01*
X014302Y004754D01*
X014173Y004625D01*
X014103Y004456D01*
X014103Y003673D01*
X014173Y003503D01*
X014302Y003374D01*
X014163Y003526D02*
X013962Y003526D01*
X014023Y003685D02*
X014103Y003685D01*
X014103Y003843D02*
X014023Y003843D01*
X014023Y004002D02*
X014103Y004002D01*
X014103Y004161D02*
X014023Y004161D01*
X014023Y004319D02*
X014103Y004319D01*
X014112Y004478D02*
X014014Y004478D01*
X013941Y004636D02*
X014184Y004636D01*
X014400Y004795D02*
X013725Y004795D01*
X014725Y004795D02*
X015400Y004795D01*
X015184Y004636D02*
X014941Y004636D01*
X015014Y004478D02*
X015112Y004478D01*
X015103Y004319D02*
X015023Y004319D01*
X015023Y004161D02*
X015103Y004161D01*
X015103Y004002D02*
X015023Y004002D01*
X015023Y003843D02*
X015103Y003843D01*
X015103Y003685D02*
X015023Y003685D01*
X014962Y003526D02*
X015163Y003526D01*
X015317Y003368D02*
X014808Y003368D01*
X012773Y005112D02*
X025695Y005112D01*
X025842Y005270D02*
X012773Y005270D01*
X012773Y005429D02*
X025990Y005429D01*
X026137Y005587D02*
X012773Y005587D01*
X012773Y005746D02*
X026284Y005746D01*
X026431Y005904D02*
X012773Y005904D01*
X012773Y006063D02*
X026578Y006063D01*
X026711Y006222D02*
X012773Y006222D01*
X012773Y006380D02*
X026831Y006380D01*
X026951Y006539D02*
X012773Y006539D01*
X012773Y006697D02*
X027071Y006697D01*
X027191Y006856D02*
X012773Y006856D01*
X012773Y007014D02*
X027311Y007014D01*
X027431Y007173D02*
X012773Y007173D01*
X012773Y007331D02*
X027545Y007331D01*
X027642Y007490D02*
X017439Y007490D01*
X017503Y007553D02*
X017573Y007723D01*
X017573Y007906D01*
X017503Y008075D01*
X017373Y008204D01*
X017204Y008274D01*
X016421Y008274D01*
X016252Y008204D01*
X016123Y008075D01*
X016053Y007906D01*
X016053Y007723D01*
X016123Y007553D01*
X016252Y007424D01*
X016421Y007354D01*
X017204Y007354D01*
X017373Y007424D01*
X017503Y007553D01*
X017542Y007648D02*
X027739Y007648D01*
X027836Y007807D02*
X017573Y007807D01*
X017548Y007966D02*
X027933Y007966D01*
X028030Y008124D02*
X017453Y008124D01*
X017373Y008424D02*
X017204Y008354D01*
X016421Y008354D01*
X016252Y008424D01*
X016123Y008553D01*
X016053Y008723D01*
X016053Y008906D01*
X016123Y009075D01*
X016252Y009204D01*
X016421Y009274D01*
X017204Y009274D01*
X017373Y009204D01*
X017503Y009075D01*
X017573Y008906D01*
X017573Y008723D01*
X017503Y008553D01*
X017373Y008424D01*
X017390Y008441D02*
X028223Y008441D01*
X028310Y008600D02*
X017522Y008600D01*
X017573Y008758D02*
X028386Y008758D01*
X028462Y008917D02*
X017568Y008917D01*
X017502Y009075D02*
X028539Y009075D01*
X028615Y009234D02*
X017301Y009234D01*
X017204Y009354D02*
X017373Y009424D01*
X017503Y009553D01*
X017573Y009723D01*
X017573Y009906D01*
X017503Y010075D01*
X017373Y010204D01*
X017204Y010274D01*
X016421Y010274D01*
X016252Y010204D01*
X016123Y010075D01*
X016053Y009906D01*
X016053Y009726D01*
X015353Y009026D01*
X015353Y008958D01*
X015276Y008881D01*
X015224Y008756D01*
X015224Y008622D01*
X015276Y008497D01*
X015371Y008402D01*
X015495Y008351D01*
X015630Y008351D01*
X015754Y008402D01*
X015850Y008497D01*
X015901Y008622D01*
X015901Y008756D01*
X015850Y008881D01*
X015826Y008905D01*
X016318Y009397D01*
X016421Y009354D01*
X017204Y009354D01*
X017297Y009392D02*
X028691Y009392D01*
X028008Y009551D02*
X017500Y009551D01*
X017567Y009710D02*
X026549Y009710D01*
X025091Y009868D02*
X017573Y009868D01*
X017523Y010027D02*
X024299Y010027D01*
X024047Y010185D02*
X017392Y010185D01*
X017373Y010424D02*
X017503Y010553D01*
X017573Y010723D01*
X017573Y010906D01*
X017503Y011075D01*
X017373Y011204D01*
X017204Y011274D01*
X016421Y011274D01*
X016252Y011204D01*
X016123Y011075D01*
X016053Y010906D01*
X016053Y010723D01*
X016123Y010553D01*
X016252Y010424D01*
X016421Y010354D01*
X017204Y010354D01*
X017373Y010424D01*
X017451Y010502D02*
X023543Y010502D01*
X023291Y010661D02*
X017547Y010661D01*
X017573Y010819D02*
X023040Y010819D01*
X022788Y010978D02*
X017543Y010978D01*
X017441Y011136D02*
X022536Y011136D01*
X022284Y011295D02*
X015648Y011295D01*
X015648Y011454D02*
X016223Y011454D01*
X016252Y011424D02*
X016421Y011354D01*
X017204Y011354D01*
X017373Y011424D01*
X017503Y011553D01*
X017573Y011723D01*
X017573Y011906D01*
X017503Y012075D01*
X017373Y012204D01*
X017204Y012274D01*
X016421Y012274D01*
X016252Y012204D01*
X016123Y012075D01*
X016053Y011906D01*
X016053Y011723D01*
X016123Y011553D01*
X016252Y011424D01*
X016099Y011612D02*
X015648Y011612D01*
X015648Y011771D02*
X016053Y011771D01*
X016063Y011929D02*
X015648Y011929D01*
X015648Y012088D02*
X016136Y012088D01*
X016354Y012246D02*
X015648Y012246D01*
X015648Y012405D02*
X016299Y012405D01*
X016119Y012563D02*
X015734Y012563D01*
X015893Y012722D02*
X016053Y012722D01*
X016051Y012880D02*
X016053Y012880D01*
X015774Y013197D02*
X015743Y013197D01*
X015616Y013039D02*
X015585Y013039D01*
X015457Y012880D02*
X015426Y012880D01*
X015299Y012722D02*
X015028Y012722D01*
X015034Y012729D02*
X015101Y012729D01*
X015275Y012729D01*
X016025Y013479D01*
X016105Y013559D01*
X016130Y013524D01*
X016101Y013524D01*
X015978Y013401D01*
X015228Y012651D01*
X015228Y012477D01*
X015228Y011276D01*
X014424Y010472D01*
X014424Y010472D01*
X014301Y010349D01*
X014301Y009607D01*
X013346Y008763D01*
X013322Y008760D01*
X013283Y008707D01*
X013234Y008664D01*
X013232Y008640D01*
X012958Y008274D01*
X012538Y008274D01*
X012538Y009807D01*
X012728Y009807D01*
X012984Y009807D01*
X013141Y009807D01*
X013141Y009672D01*
X013117Y009672D01*
X012985Y009618D01*
X012884Y009517D01*
X012830Y009385D01*
X012830Y009243D01*
X012884Y009111D01*
X012985Y009010D01*
X013117Y008956D01*
X013259Y008956D01*
X013391Y009010D01*
X013491Y009111D01*
X013546Y009243D01*
X013546Y009375D01*
X013561Y009390D01*
X013561Y009872D01*
X013590Y009900D01*
X013590Y010204D01*
X014398Y011011D01*
X014398Y011185D01*
X014398Y011986D01*
X015034Y012729D01*
X014892Y012563D02*
X015228Y012563D01*
X015228Y012405D02*
X014756Y012405D01*
X014620Y012246D02*
X015228Y012246D01*
X015228Y012088D02*
X014485Y012088D01*
X014398Y011929D02*
X015228Y011929D01*
X015228Y011771D02*
X014398Y011771D01*
X014398Y011612D02*
X015228Y011612D01*
X015228Y011454D02*
X014398Y011454D01*
X014398Y011295D02*
X015228Y011295D01*
X015088Y011136D02*
X014398Y011136D01*
X014364Y010978D02*
X014930Y010978D01*
X014771Y010819D02*
X014206Y010819D01*
X014047Y010661D02*
X014613Y010661D01*
X014454Y010502D02*
X013889Y010502D01*
X013730Y010344D02*
X014301Y010344D01*
X014301Y010185D02*
X013590Y010185D01*
X013590Y010027D02*
X014301Y010027D01*
X014301Y009868D02*
X013561Y009868D01*
X013561Y009710D02*
X014301Y009710D01*
X014238Y009551D02*
X013561Y009551D01*
X013561Y009392D02*
X014058Y009392D01*
X013879Y009234D02*
X013542Y009234D01*
X013456Y009075D02*
X013699Y009075D01*
X013520Y008917D02*
X012538Y008917D01*
X012538Y009075D02*
X012920Y009075D01*
X012833Y009234D02*
X012538Y009234D01*
X012538Y009392D02*
X012833Y009392D01*
X012918Y009551D02*
X012538Y009551D01*
X012538Y009710D02*
X013141Y009710D01*
X013321Y008758D02*
X012538Y008758D01*
X012538Y008600D02*
X013202Y008600D01*
X013083Y008441D02*
X012538Y008441D01*
X012538Y008283D02*
X012964Y008283D01*
X013261Y007966D02*
X016078Y007966D01*
X016053Y007807D02*
X012773Y007807D01*
X012773Y007648D02*
X016083Y007648D01*
X016186Y007490D02*
X012773Y007490D01*
X012353Y007490D02*
X003491Y007490D01*
X003383Y007648D02*
X012353Y007648D01*
X012353Y007807D02*
X003275Y007807D01*
X003321Y007966D02*
X010864Y007966D01*
X010853Y007977D02*
X010853Y007977D01*
X010706Y008124D02*
X010350Y008124D01*
X010401Y008283D02*
X010547Y008283D01*
X010389Y008441D02*
X010376Y008441D01*
X010666Y008758D02*
X012118Y008758D01*
X012118Y008600D02*
X010824Y008600D01*
X010983Y008441D02*
X012118Y008441D01*
X012118Y008283D02*
X011141Y008283D01*
X011150Y008274D02*
X012118Y008274D01*
X012118Y009807D01*
X011977Y009807D01*
X011964Y009799D01*
X011918Y009787D01*
X011816Y009787D01*
X011816Y010261D01*
X011816Y010261D01*
X011816Y009787D01*
X011713Y009787D01*
X011668Y009799D01*
X011654Y009807D01*
X011449Y009807D01*
X011193Y009807D01*
X010937Y009807D01*
X010681Y009807D01*
X010505Y009807D01*
X010526Y009756D01*
X010526Y009622D01*
X010475Y009497D01*
X010398Y009420D01*
X010398Y009026D01*
X011150Y008274D01*
X010507Y008917D02*
X012118Y008917D01*
X012118Y009075D02*
X010398Y009075D01*
X010398Y009234D02*
X012118Y009234D01*
X012118Y009392D02*
X010398Y009392D01*
X010497Y009551D02*
X012118Y009551D01*
X012118Y009710D02*
X010526Y009710D01*
X011816Y009868D02*
X011816Y009868D01*
X011816Y010027D02*
X011816Y010027D01*
X011816Y010185D02*
X011816Y010185D01*
X011984Y011274D02*
X011891Y011368D01*
X011759Y011422D01*
X011617Y011422D01*
X011514Y011380D01*
X011514Y011517D01*
X011514Y012641D01*
X011560Y012641D01*
X011662Y012641D01*
X011708Y012653D01*
X011721Y012661D01*
X011927Y012661D01*
X012183Y012661D01*
X012422Y012661D01*
X012435Y012653D01*
X012481Y012641D01*
X012583Y012641D01*
X012583Y012788D01*
X012584Y012786D01*
X012584Y012641D01*
X012686Y012641D01*
X012711Y012648D01*
X012737Y012641D01*
X012839Y012641D01*
X012839Y012786D01*
X012840Y012787D01*
X012840Y012641D01*
X012942Y012641D01*
X012988Y012653D01*
X013001Y012661D01*
X013206Y012661D01*
X013496Y012661D01*
X013590Y012755D01*
X013590Y013478D01*
X013496Y013571D01*
X013206Y013571D01*
X013001Y013571D01*
X012988Y013579D01*
X012942Y013591D01*
X012840Y013591D01*
X012840Y013445D01*
X012839Y013446D01*
X012839Y013591D01*
X012737Y013591D01*
X012711Y013585D01*
X012686Y013591D01*
X012584Y013591D01*
X012584Y013446D01*
X012583Y013445D01*
X012583Y013591D01*
X012481Y013591D01*
X012435Y013579D01*
X012422Y013571D01*
X012183Y013571D01*
X011927Y013571D01*
X011721Y013571D01*
X011708Y013579D01*
X011662Y013591D01*
X011560Y013591D01*
X011560Y013117D01*
X011560Y013117D01*
X011560Y013591D01*
X011457Y013591D01*
X011412Y013579D01*
X011398Y013571D01*
X011159Y013571D01*
X010954Y013571D01*
X010940Y013579D01*
X010895Y013591D01*
X010792Y013591D01*
X010690Y013591D01*
X010644Y013579D01*
X010631Y013571D01*
X010391Y013571D01*
X010135Y013571D01*
X009879Y013571D01*
X009786Y013478D01*
X009786Y012755D01*
X009814Y012726D01*
X009814Y011399D01*
X005484Y011399D01*
X005448Y011416D01*
X005401Y011399D01*
X005351Y011399D01*
X005340Y011388D01*
X005262Y011603D01*
X005265Y011618D01*
X005261Y011665D01*
X005219Y011780D01*
X004680Y011584D01*
X005219Y011780D01*
X005177Y011895D01*
X005150Y011934D01*
X005114Y011964D01*
X005071Y011984D01*
X005024Y011992D01*
X004977Y011988D01*
X004585Y011846D01*
X004680Y011584D01*
X004680Y011584D01*
X004679Y011584D01*
X004584Y011845D01*
X004192Y011703D01*
X004154Y011676D01*
X004123Y011639D01*
X004103Y011596D01*
X004097Y011562D01*
X003695Y011415D01*
X003442Y012111D01*
X003382Y012139D01*
X002853Y011947D01*
X002643Y012526D01*
X002523Y012582D01*
X001584Y012240D01*
X001528Y012120D01*
X001739Y011541D01*
X001651Y011509D01*
X001540Y011868D01*
X001254Y013282D01*
X001111Y014718D01*
X001111Y016160D01*
X001201Y017064D01*
X010516Y017064D01*
X009853Y016401D01*
X009853Y016227D01*
X009853Y015755D01*
X009603Y015505D01*
X009603Y015124D01*
X009872Y014854D01*
X010253Y014854D01*
X010523Y015124D01*
X010523Y015505D01*
X010273Y015755D01*
X010273Y016227D01*
X011110Y017064D01*
X017313Y017064D01*
X017999Y016149D01*
X017007Y016149D01*
X017046Y016243D01*
X017046Y016385D01*
X016991Y016517D01*
X016891Y016618D01*
X016759Y016672D01*
X016617Y016672D01*
X016485Y016618D01*
X016391Y016524D01*
X013017Y016524D01*
X013011Y016529D01*
X012931Y016524D01*
X012851Y016524D01*
X012845Y016518D01*
X012837Y016518D01*
X012784Y016458D01*
X012728Y016401D01*
X012728Y016393D01*
X012186Y015774D01*
X011872Y015774D01*
X011603Y015505D01*
X011603Y015124D01*
X011872Y014854D01*
X012253Y014854D01*
X012523Y015124D01*
X012523Y015505D01*
X012515Y015512D01*
X013033Y016104D01*
X016173Y016104D01*
X015513Y015774D01*
X015476Y015774D01*
X015438Y015737D01*
X015391Y015713D01*
X015379Y015677D01*
X015365Y015663D01*
X015253Y015774D01*
X014872Y015774D01*
X014603Y015505D01*
X014603Y015124D01*
X014872Y014854D01*
X015253Y014854D01*
X015353Y014954D01*
X015353Y014674D01*
X015253Y014774D01*
X014872Y014774D01*
X014603Y014505D01*
X014603Y014124D01*
X014827Y013899D01*
X014734Y013899D01*
X014641Y013993D01*
X014509Y014047D01*
X014446Y014047D01*
X014523Y014124D01*
X014523Y014505D01*
X014253Y014774D01*
X013872Y014774D01*
X013603Y014505D01*
X013603Y014124D01*
X013872Y013854D01*
X014119Y013854D01*
X014080Y013760D01*
X014080Y013618D01*
X014134Y013486D01*
X014235Y013385D01*
X014367Y013331D01*
X014509Y013331D01*
X014641Y013385D01*
X014734Y013479D01*
X015029Y013479D01*
X015079Y013462D01*
X015112Y013479D01*
X015150Y013479D01*
X015187Y013516D01*
X015612Y013729D01*
X015650Y013729D01*
X015687Y013766D01*
X015728Y013787D01*
X015728Y013776D01*
X015101Y013149D01*
X015015Y013149D01*
X015008Y013155D01*
X014930Y013149D01*
X014851Y013149D01*
X014844Y013142D01*
X014835Y013142D01*
X014783Y013082D01*
X014728Y013026D01*
X014728Y013017D01*
X014034Y012207D01*
X013978Y012151D01*
X013978Y012142D01*
X013972Y012135D01*
X013978Y012056D01*
X013978Y011185D01*
X013503Y010710D01*
X013496Y010717D01*
X013305Y010717D01*
X013305Y010746D01*
X013379Y010777D01*
X013475Y010872D01*
X013526Y010997D01*
X013526Y011131D01*
X013475Y011256D01*
X013379Y011351D01*
X013255Y011402D01*
X013120Y011402D01*
X012996Y011351D01*
X012972Y011327D01*
X012921Y011378D01*
X012921Y011510D01*
X012866Y011642D01*
X012766Y011743D01*
X012634Y011797D01*
X012492Y011797D01*
X012360Y011743D01*
X012259Y011642D01*
X012205Y011510D01*
X012205Y011368D01*
X012244Y011274D01*
X011984Y011274D01*
X011963Y011295D02*
X012235Y011295D01*
X012205Y011454D02*
X011514Y011454D01*
X011514Y011612D02*
X012247Y011612D01*
X012428Y011771D02*
X011514Y011771D01*
X011514Y011929D02*
X013978Y011929D01*
X013978Y011771D02*
X012698Y011771D01*
X012879Y011612D02*
X013978Y011612D01*
X013978Y011454D02*
X012921Y011454D01*
X013435Y011295D02*
X013978Y011295D01*
X013929Y011136D02*
X013524Y011136D01*
X013518Y010978D02*
X013770Y010978D01*
X013612Y010819D02*
X013422Y010819D01*
X013975Y012088D02*
X011514Y012088D01*
X011514Y012246D02*
X014067Y012246D01*
X014203Y012405D02*
X011514Y012405D01*
X011514Y012563D02*
X014339Y012563D01*
X014475Y012722D02*
X013557Y012722D01*
X013590Y012880D02*
X014611Y012880D01*
X014741Y013039D02*
X013590Y013039D01*
X013590Y013197D02*
X015149Y013197D01*
X015308Y013356D02*
X014570Y013356D01*
X014306Y013356D02*
X013590Y013356D01*
X013553Y013515D02*
X014122Y013515D01*
X014080Y013673D02*
X001215Y013673D01*
X001231Y013515D02*
X009822Y013515D01*
X009786Y013356D02*
X001247Y013356D01*
X001272Y013197D02*
X004214Y013197D01*
X004483Y013296D02*
X003545Y012954D01*
X003489Y012834D01*
X003871Y011785D01*
X003991Y011729D01*
X004929Y012070D01*
X004985Y012190D01*
X004603Y013240D01*
X004483Y013296D01*
X004619Y013197D02*
X009786Y013197D01*
X009786Y013039D02*
X004677Y013039D01*
X004734Y012880D02*
X009786Y012880D01*
X009814Y012722D02*
X004792Y012722D01*
X004850Y012563D02*
X009814Y012563D01*
X009814Y012405D02*
X004907Y012405D01*
X004965Y012246D02*
X009814Y012246D01*
X009814Y012088D02*
X004938Y012088D01*
X004814Y011929D02*
X004542Y011929D01*
X004612Y011771D02*
X004612Y011771D01*
X004669Y011612D02*
X004670Y011612D01*
X004756Y011612D02*
X004758Y011612D01*
X004379Y011771D02*
X004106Y011771D01*
X004110Y011612D02*
X003623Y011612D01*
X003566Y011771D02*
X003901Y011771D01*
X003818Y011929D02*
X003508Y011929D01*
X003450Y012088D02*
X003761Y012088D01*
X003703Y012246D02*
X002745Y012246D01*
X002802Y012088D02*
X003240Y012088D01*
X003645Y012405D02*
X002687Y012405D01*
X002563Y012563D02*
X003587Y012563D01*
X003530Y012722D02*
X001368Y012722D01*
X001336Y012880D02*
X003511Y012880D01*
X003778Y013039D02*
X001304Y013039D01*
X001400Y012563D02*
X002471Y012563D01*
X002036Y012405D02*
X001432Y012405D01*
X001464Y012246D02*
X001600Y012246D01*
X001540Y012088D02*
X001496Y012088D01*
X001528Y011929D02*
X001598Y011929D01*
X001570Y011771D02*
X001655Y011771D01*
X001619Y011612D02*
X001713Y011612D01*
X003681Y011454D02*
X003800Y011454D01*
X005192Y011771D02*
X005193Y011771D01*
X005222Y011771D02*
X009814Y011771D01*
X009814Y011929D02*
X005153Y011929D01*
X005264Y011612D02*
X009814Y011612D01*
X009814Y011454D02*
X005316Y011454D01*
X005276Y010185D02*
X005606Y010185D01*
X005614Y010188D02*
X004676Y009846D01*
X004620Y009726D01*
X005002Y008677D01*
X005122Y008621D01*
X006060Y008963D01*
X006116Y009083D01*
X005735Y010132D01*
X005614Y010188D01*
X005621Y010185D02*
X007895Y010185D01*
X008053Y010027D02*
X005773Y010027D01*
X005831Y009868D02*
X008212Y009868D01*
X008370Y009710D02*
X005888Y009710D01*
X005946Y009551D02*
X008529Y009551D01*
X008687Y009392D02*
X006004Y009392D01*
X006061Y009234D02*
X008846Y009234D01*
X009004Y009075D02*
X006113Y009075D01*
X005935Y008917D02*
X009163Y008917D01*
X009322Y008758D02*
X005499Y008758D01*
X004972Y008758D02*
X004014Y008758D01*
X004072Y008600D02*
X009480Y008600D01*
X009639Y008441D02*
X004129Y008441D01*
X004115Y008283D02*
X009724Y008283D01*
X009775Y008124D02*
X003757Y008124D01*
X003599Y007331D02*
X012353Y007331D01*
X012353Y007173D02*
X003707Y007173D01*
X003815Y007014D02*
X012353Y007014D01*
X012353Y006856D02*
X003923Y006856D01*
X003956Y008917D02*
X004915Y008917D01*
X004857Y009075D02*
X004295Y009075D01*
X004489Y009234D02*
X004799Y009234D01*
X004742Y009392D02*
X004431Y009392D01*
X004374Y009551D02*
X004684Y009551D01*
X004626Y009710D02*
X004316Y009710D01*
X004258Y009868D02*
X004735Y009868D01*
X004710Y010027D02*
X004606Y010027D01*
X004840Y010027D02*
X005171Y010027D01*
X008872Y013854D02*
X009253Y013854D01*
X009523Y014124D01*
X009523Y014505D01*
X009253Y014774D01*
X008872Y014774D01*
X008603Y014505D01*
X008603Y014124D01*
X008872Y013854D01*
X008736Y013990D02*
X001184Y013990D01*
X001199Y013832D02*
X014109Y013832D01*
X013736Y013990D02*
X013389Y013990D01*
X013523Y014124D02*
X013253Y013854D01*
X012872Y013854D01*
X012603Y014124D01*
X012603Y014505D01*
X012872Y014774D01*
X013253Y014774D01*
X013523Y014505D01*
X013523Y014124D01*
X013523Y014149D02*
X013603Y014149D01*
X013603Y014307D02*
X013523Y014307D01*
X013523Y014466D02*
X013603Y014466D01*
X013723Y014624D02*
X013403Y014624D01*
X013253Y014854D02*
X013523Y015124D01*
X013523Y015505D01*
X013253Y015774D01*
X012872Y015774D01*
X012603Y015505D01*
X012603Y015124D01*
X012872Y014854D01*
X013253Y014854D01*
X013341Y014941D02*
X013785Y014941D01*
X013872Y014854D02*
X013603Y015124D01*
X013603Y015505D01*
X013872Y015774D01*
X014253Y015774D01*
X014523Y015505D01*
X014523Y015124D01*
X014253Y014854D01*
X013872Y014854D01*
X013626Y015100D02*
X013499Y015100D01*
X013523Y015259D02*
X013603Y015259D01*
X013603Y015417D02*
X013523Y015417D01*
X013452Y015576D02*
X013674Y015576D01*
X013832Y015734D02*
X013293Y015734D01*
X012987Y016051D02*
X016068Y016051D01*
X015751Y015893D02*
X012848Y015893D01*
X012832Y015734D02*
X012709Y015734D01*
X012674Y015576D02*
X012571Y015576D01*
X012603Y015417D02*
X012523Y015417D01*
X012523Y015259D02*
X012603Y015259D01*
X012626Y015100D02*
X012499Y015100D01*
X012341Y014941D02*
X012785Y014941D01*
X012723Y014624D02*
X012403Y014624D01*
X012523Y014505D02*
X012253Y014774D01*
X011872Y014774D01*
X011603Y014505D01*
X011603Y014124D01*
X011872Y013854D01*
X012253Y013854D01*
X012523Y014124D01*
X012523Y014505D01*
X012523Y014466D02*
X012603Y014466D01*
X012603Y014307D02*
X012523Y014307D01*
X012523Y014149D02*
X012603Y014149D01*
X012736Y013990D02*
X012389Y013990D01*
X012583Y013515D02*
X012584Y013515D01*
X012839Y013515D02*
X012840Y013515D01*
X012839Y013116D02*
X012584Y013116D01*
X012839Y013116D01*
X012839Y013116D01*
X012584Y013116D02*
X012584Y013116D01*
X012583Y012722D02*
X012584Y012722D01*
X012839Y012722D02*
X012840Y012722D01*
X011560Y012722D02*
X011560Y012722D01*
X011560Y012641D02*
X011560Y013116D01*
X011560Y013116D01*
X011560Y012641D01*
X011560Y012880D02*
X011560Y012880D01*
X011560Y013039D02*
X011560Y013039D01*
X011560Y013197D02*
X011560Y013197D01*
X011560Y013356D02*
X011560Y013356D01*
X011560Y013515D02*
X011560Y013515D01*
X011253Y013854D02*
X011523Y014124D01*
X011523Y014505D01*
X011253Y014774D01*
X010872Y014774D01*
X010603Y014505D01*
X010603Y014124D01*
X010872Y013854D01*
X011253Y013854D01*
X011389Y013990D02*
X011736Y013990D01*
X011603Y014149D02*
X011523Y014149D01*
X011523Y014307D02*
X011603Y014307D01*
X011603Y014466D02*
X011523Y014466D01*
X011403Y014624D02*
X011723Y014624D01*
X011785Y014941D02*
X011369Y014941D01*
X011262Y014834D02*
X011543Y015115D01*
X011543Y015294D01*
X011083Y015294D01*
X011083Y015334D01*
X011543Y015334D01*
X011543Y015513D01*
X011262Y015794D01*
X011083Y015794D01*
X011083Y015334D01*
X011043Y015334D01*
X011043Y015794D01*
X010864Y015794D01*
X010583Y015513D01*
X010583Y015334D01*
X011043Y015334D01*
X011043Y015294D01*
X011083Y015294D01*
X011083Y014834D01*
X011262Y014834D01*
X011083Y014941D02*
X011043Y014941D01*
X011043Y014834D02*
X011043Y015294D01*
X010583Y015294D01*
X010583Y015115D01*
X010864Y014834D01*
X011043Y014834D01*
X011043Y015100D02*
X011083Y015100D01*
X011083Y015259D02*
X011043Y015259D01*
X011043Y015417D02*
X011083Y015417D01*
X011083Y015576D02*
X011043Y015576D01*
X011043Y015734D02*
X011083Y015734D01*
X011321Y015734D02*
X011832Y015734D01*
X011674Y015576D02*
X011480Y015576D01*
X011543Y015417D02*
X011603Y015417D01*
X011603Y015259D02*
X011543Y015259D01*
X011528Y015100D02*
X011626Y015100D01*
X012290Y015893D02*
X010273Y015893D01*
X010273Y016051D02*
X012429Y016051D01*
X012568Y016210D02*
X010273Y016210D01*
X010414Y016368D02*
X012706Y016368D01*
X012974Y016527D02*
X010573Y016527D01*
X010731Y016685D02*
X017597Y016685D01*
X017716Y016527D02*
X016981Y016527D01*
X017046Y016368D02*
X017835Y016368D01*
X017953Y016210D02*
X017032Y016210D01*
X016771Y015729D02*
X016743Y015673D01*
X016720Y015601D01*
X016708Y015527D01*
X016708Y015209D01*
X017168Y015209D01*
X017168Y015169D01*
X017208Y015169D01*
X017208Y015209D01*
X017668Y015209D01*
X017668Y015527D01*
X017656Y015601D01*
X017633Y015673D01*
X017604Y015729D01*
X017789Y015729D01*
X017728Y015581D01*
X017728Y014798D01*
X017798Y014628D01*
X017927Y014499D01*
X018096Y014429D01*
X018279Y014429D01*
X018448Y014499D01*
X018578Y014628D01*
X018648Y014798D01*
X018648Y015284D01*
X018728Y015177D01*
X018728Y014798D01*
X018798Y014628D01*
X018927Y014499D01*
X019096Y014429D01*
X019279Y014429D01*
X019287Y014432D01*
X019687Y013899D01*
X017851Y013899D01*
X017728Y013776D01*
X017533Y013581D01*
X017558Y013630D01*
X017581Y013702D01*
X017593Y013776D01*
X017593Y013794D01*
X016833Y013794D01*
X016833Y013834D01*
X017593Y013834D01*
X017593Y013852D01*
X017581Y013926D01*
X017558Y013998D01*
X017523Y014066D01*
X017479Y014127D01*
X017425Y014180D01*
X017364Y014225D01*
X017297Y014259D01*
X017225Y014282D01*
X017151Y014294D01*
X016833Y014294D01*
X016833Y013834D01*
X016793Y013834D01*
X016793Y014294D01*
X016475Y014294D01*
X016400Y014282D01*
X016329Y014259D01*
X016261Y014225D01*
X016200Y014180D01*
X016148Y014128D01*
X016148Y014831D01*
X016202Y014831D01*
X016296Y014925D01*
X016296Y015453D01*
X016202Y015547D01*
X015998Y015547D01*
X016362Y015729D01*
X016771Y015729D01*
X016716Y015576D02*
X016055Y015576D01*
X016296Y015417D02*
X016708Y015417D01*
X016708Y015259D02*
X016296Y015259D01*
X016296Y015100D02*
X016708Y015100D01*
X016708Y015169D02*
X016708Y014851D01*
X016720Y014777D01*
X016743Y014705D01*
X016777Y014637D01*
X016822Y014576D01*
X016875Y014523D01*
X016936Y014479D01*
X017004Y014444D01*
X017075Y014421D01*
X017150Y014409D01*
X017168Y014409D01*
X017168Y015169D01*
X016708Y015169D01*
X016708Y014941D02*
X016296Y014941D01*
X016148Y014783D02*
X016719Y014783D01*
X016787Y014624D02*
X016148Y014624D01*
X016148Y014466D02*
X016961Y014466D01*
X017168Y014466D02*
X017208Y014466D01*
X017208Y014409D02*
X017226Y014409D01*
X017300Y014421D01*
X017372Y014444D01*
X017439Y014479D01*
X017500Y014523D01*
X017554Y014576D01*
X017598Y014637D01*
X017633Y014705D01*
X017656Y014777D01*
X017668Y014851D01*
X017668Y015169D01*
X017208Y015169D01*
X017208Y014409D01*
X017414Y014466D02*
X018007Y014466D01*
X017802Y014624D02*
X017589Y014624D01*
X017657Y014783D02*
X017734Y014783D01*
X017728Y014941D02*
X017668Y014941D01*
X017668Y015100D02*
X017728Y015100D01*
X017728Y015259D02*
X017668Y015259D01*
X017668Y015417D02*
X017728Y015417D01*
X017728Y015576D02*
X017660Y015576D01*
X017208Y015100D02*
X017168Y015100D01*
X017168Y014941D02*
X017208Y014941D01*
X017208Y014783D02*
X017168Y014783D01*
X017168Y014624D02*
X017208Y014624D01*
X017457Y014149D02*
X019499Y014149D01*
X019380Y014307D02*
X016148Y014307D01*
X016148Y014149D02*
X016169Y014149D01*
X016793Y014149D02*
X016833Y014149D01*
X016833Y013990D02*
X016793Y013990D01*
X016833Y013832D02*
X017783Y013832D01*
X017625Y013673D02*
X017572Y013673D01*
X017560Y013990D02*
X019618Y013990D01*
X019935Y013515D02*
X019975Y013515D01*
X020094Y013356D02*
X017902Y013356D01*
X017743Y013197D02*
X020213Y013197D01*
X020332Y013039D02*
X017518Y013039D01*
X017573Y012880D02*
X020450Y012880D01*
X020569Y012722D02*
X017572Y012722D01*
X017507Y012563D02*
X020688Y012563D01*
X020807Y012405D02*
X017327Y012405D01*
X017271Y012246D02*
X020926Y012246D01*
X021045Y012088D02*
X017490Y012088D01*
X017563Y011929D02*
X021277Y011929D01*
X021529Y011771D02*
X017573Y011771D01*
X017527Y011612D02*
X021781Y011612D01*
X022032Y011454D02*
X017403Y011454D01*
X016185Y011136D02*
X015648Y011136D01*
X015524Y010978D02*
X016083Y010978D01*
X016053Y010819D02*
X015365Y010819D01*
X015206Y010661D02*
X016078Y010661D01*
X016174Y010502D02*
X015048Y010502D01*
X014889Y010344D02*
X023795Y010344D01*
X028126Y008283D02*
X013489Y008283D01*
X013370Y008124D02*
X016172Y008124D01*
X016235Y008441D02*
X015794Y008441D01*
X015892Y008600D02*
X016104Y008600D01*
X016053Y008758D02*
X015900Y008758D01*
X015837Y008917D02*
X016057Y008917D01*
X015996Y009075D02*
X016124Y009075D01*
X016155Y009234D02*
X016324Y009234D01*
X016313Y009392D02*
X016329Y009392D01*
X016036Y009710D02*
X014721Y009710D01*
X014721Y009868D02*
X016053Y009868D01*
X016103Y010027D02*
X014721Y010027D01*
X014731Y010185D02*
X016233Y010185D01*
X015878Y009551D02*
X014723Y009551D01*
X014693Y009392D02*
X015719Y009392D01*
X015561Y009234D02*
X014513Y009234D01*
X014334Y009075D02*
X015402Y009075D01*
X015312Y008917D02*
X014154Y008917D01*
X013975Y008758D02*
X015225Y008758D01*
X015233Y008600D02*
X013795Y008600D01*
X013616Y008441D02*
X015332Y008441D01*
X011094Y011517D02*
X011046Y011469D01*
X011046Y011510D01*
X010991Y011642D01*
X010891Y011743D01*
X010759Y011797D01*
X010746Y011797D01*
X010746Y012641D01*
X010792Y012641D01*
X010792Y013116D01*
X010792Y013116D01*
X010792Y012641D01*
X010895Y012641D01*
X010940Y012653D01*
X010954Y012661D01*
X011094Y012661D01*
X011094Y011517D01*
X011094Y011612D02*
X011004Y011612D01*
X011094Y011771D02*
X010823Y011771D01*
X010746Y011929D02*
X011094Y011929D01*
X011094Y012088D02*
X010746Y012088D01*
X010746Y012246D02*
X011094Y012246D01*
X011094Y012405D02*
X010746Y012405D01*
X010746Y012563D02*
X011094Y012563D01*
X010792Y012722D02*
X010792Y012722D01*
X010792Y012880D02*
X010792Y012880D01*
X010792Y013039D02*
X010792Y013039D01*
X010792Y013117D02*
X010792Y013591D01*
X010792Y013117D01*
X010792Y013117D01*
X010792Y013197D02*
X010792Y013197D01*
X010792Y013356D02*
X010792Y013356D01*
X010792Y013515D02*
X010792Y013515D01*
X010736Y013990D02*
X010389Y013990D01*
X010523Y014124D02*
X010253Y013854D01*
X009872Y013854D01*
X009603Y014124D01*
X009603Y014505D01*
X009872Y014774D01*
X010253Y014774D01*
X010523Y014505D01*
X010523Y014124D01*
X010523Y014149D02*
X010603Y014149D01*
X010603Y014307D02*
X010523Y014307D01*
X010523Y014466D02*
X010603Y014466D01*
X010723Y014624D02*
X010403Y014624D01*
X010341Y014941D02*
X010757Y014941D01*
X010598Y015100D02*
X010499Y015100D01*
X010523Y015259D02*
X010583Y015259D01*
X010583Y015417D02*
X010523Y015417D01*
X010452Y015576D02*
X010646Y015576D01*
X010804Y015734D02*
X010293Y015734D01*
X009853Y015893D02*
X001111Y015893D01*
X001111Y016051D02*
X009853Y016051D01*
X009853Y016210D02*
X001116Y016210D01*
X001132Y016368D02*
X009853Y016368D01*
X009979Y016527D02*
X001147Y016527D01*
X001163Y016685D02*
X010137Y016685D01*
X010296Y016844D02*
X001179Y016844D01*
X001195Y017003D02*
X010454Y017003D01*
X010890Y016844D02*
X017478Y016844D01*
X017359Y017003D02*
X011048Y017003D01*
X009832Y015734D02*
X009293Y015734D01*
X009253Y015774D02*
X008872Y015774D01*
X008603Y015505D01*
X008603Y015124D01*
X008872Y014854D01*
X009253Y014854D01*
X009523Y015124D01*
X009523Y015505D01*
X009253Y015774D01*
X009452Y015576D02*
X009674Y015576D01*
X009603Y015417D02*
X009523Y015417D01*
X009523Y015259D02*
X009603Y015259D01*
X009626Y015100D02*
X009499Y015100D01*
X009341Y014941D02*
X009785Y014941D01*
X009723Y014624D02*
X009403Y014624D01*
X009523Y014466D02*
X009603Y014466D01*
X009603Y014307D02*
X009523Y014307D01*
X009523Y014149D02*
X009603Y014149D01*
X009736Y013990D02*
X009389Y013990D01*
X008723Y014624D02*
X001120Y014624D01*
X001136Y014466D02*
X008603Y014466D01*
X008603Y014307D02*
X001152Y014307D01*
X001168Y014149D02*
X008603Y014149D01*
X008785Y014941D02*
X001111Y014941D01*
X001111Y014783D02*
X015353Y014783D01*
X015341Y014941D02*
X015353Y014941D01*
X014785Y014941D02*
X014341Y014941D01*
X014499Y015100D02*
X014626Y015100D01*
X014603Y015259D02*
X014523Y015259D01*
X014523Y015417D02*
X014603Y015417D01*
X014674Y015576D02*
X014452Y015576D01*
X014293Y015734D02*
X014832Y015734D01*
X015293Y015734D02*
X015434Y015734D01*
X016394Y016527D02*
X013013Y016527D01*
X014403Y014624D02*
X014723Y014624D01*
X014603Y014466D02*
X014523Y014466D01*
X014523Y014307D02*
X014603Y014307D01*
X014603Y014149D02*
X014523Y014149D01*
X014643Y013990D02*
X014736Y013990D01*
X015185Y013515D02*
X015466Y013515D01*
X015500Y013673D02*
X015625Y013673D01*
X015902Y013356D02*
X015933Y013356D01*
X016060Y013515D02*
X016091Y013515D01*
X018368Y014466D02*
X019007Y014466D01*
X018802Y014624D02*
X018574Y014624D01*
X018642Y014783D02*
X018734Y014783D01*
X018728Y014941D02*
X018648Y014941D01*
X018648Y015100D02*
X018728Y015100D01*
X018667Y015259D02*
X018648Y015259D01*
X015688Y021564D02*
X014688Y021564D01*
X008832Y015734D02*
X001111Y015734D01*
X001111Y015576D02*
X008674Y015576D01*
X008603Y015417D02*
X001111Y015417D01*
X001111Y015259D02*
X008603Y015259D01*
X008626Y015100D02*
X001111Y015100D01*
D18*
X002421Y015789D03*
X005913Y014964D03*
X007063Y015939D03*
X008313Y013439D03*
X010688Y010939D03*
X010188Y009689D03*
X010063Y008314D03*
X008813Y007189D03*
X007438Y007189D03*
X005313Y007189D03*
X011563Y008564D03*
X012938Y008814D03*
X013188Y011064D03*
X015063Y011439D03*
X015563Y008689D03*
X018063Y008189D03*
X018313Y007189D03*
X017563Y006439D03*
X018063Y004939D03*
X017063Y004939D03*
X017938Y003439D03*
X019438Y004939D03*
X019438Y005689D03*
X019438Y006564D03*
X020688Y007064D03*
X020313Y007689D03*
X021188Y007689D03*
X021938Y007439D03*
X021313Y006439D03*
X021688Y004939D03*
X020813Y004939D03*
X020938Y003439D03*
X022313Y004189D03*
X022813Y006439D03*
X023938Y007689D03*
X024438Y007064D03*
X025188Y007814D03*
X025563Y009189D03*
X022563Y008814D03*
X021688Y010064D03*
X022563Y010189D03*
X020813Y011064D03*
X018938Y011439D03*
X018313Y011439D03*
X018688Y010064D03*
X019438Y008939D03*
X013563Y005439D03*
X011688Y005314D03*
X014938Y003064D03*
X014688Y016814D03*
X012188Y016939D03*
X009813Y016814D03*
D19*
X010063Y016314D02*
X011313Y017564D01*
X010063Y016314D02*
X010063Y015314D01*
X010563Y014814D02*
X008313Y014814D01*
X008313Y013439D01*
X010024Y013116D02*
X010024Y011276D01*
X009938Y011189D01*
X005438Y011189D01*
X004895Y010992D01*
X005003Y010696D02*
X005563Y010939D01*
X010063Y010939D01*
X010188Y011064D01*
X010280Y011282D01*
X010280Y013116D01*
X010536Y013116D02*
X010536Y011466D01*
X010688Y011439D01*
X010688Y010939D02*
X011063Y010939D01*
X011188Y011064D01*
X011188Y011314D01*
X011304Y011430D01*
X011304Y013116D01*
X011560Y013116D02*
X011560Y012314D01*
X012583Y012314D01*
X012583Y013116D01*
X012563Y011439D02*
X012839Y011162D01*
X012839Y010262D01*
X012583Y010262D02*
X012583Y010918D01*
X012438Y011064D01*
X011688Y011064D01*
X011816Y010262D02*
X011816Y009317D01*
X011813Y009314D01*
X012328Y010262D02*
X012328Y008079D01*
X012313Y008064D01*
X011063Y008064D01*
X010188Y008939D01*
X010188Y009689D01*
X010063Y008314D02*
X007977Y010400D01*
X005111Y010400D01*
X004680Y011584D02*
X006688Y012439D01*
X010563Y014814D02*
X011063Y015314D01*
X012063Y015314D02*
X012938Y016314D01*
X016688Y016314D01*
X016313Y015939D02*
X021688Y015939D01*
X022188Y015439D01*
X022188Y015189D01*
X021188Y015189D02*
X021188Y015064D01*
X019813Y013689D01*
X017938Y013689D01*
X017563Y013314D01*
X016188Y013314D01*
X015438Y012564D01*
X015438Y011189D01*
X014511Y010262D01*
X014511Y009512D01*
X013438Y008564D01*
X013063Y008064D01*
X012438Y008064D01*
X012563Y007939D01*
X012563Y004064D01*
X013563Y004064D02*
X013563Y003564D01*
X013063Y003064D01*
X010313Y003064D01*
X010063Y003314D01*
X010063Y006189D01*
X012313Y008064D02*
X012438Y008064D01*
X013188Y009314D02*
X013351Y009477D01*
X013351Y010262D01*
X014188Y011099D01*
X014188Y012064D01*
X014938Y012939D01*
X015188Y012939D01*
X015938Y013689D01*
X015938Y015189D01*
X015563Y015564D02*
X016313Y015939D01*
X015563Y015564D02*
X015563Y013939D01*
X015063Y013689D01*
X014438Y013689D01*
X013188Y011064D02*
X013095Y010972D01*
X013095Y010262D01*
X015563Y008939D02*
X015563Y008689D01*
X015563Y008939D02*
X016438Y009814D01*
X016813Y009814D01*
X021688Y016939D02*
X021688Y021564D01*
D20*
X014688Y021564D02*
X014688Y016814D01*
D21*
X015938Y015189D03*
X021688Y016939D03*
D22*
X019686Y019645D03*
X016688Y016314D03*
X014438Y013689D03*
X012563Y011439D03*
X011688Y011064D03*
X010688Y011439D03*
X013188Y009314D03*
X010063Y006189D03*
X011313Y017564D03*
X011353Y018146D03*
X028985Y016312D03*
M02*
