G75*
G70*
%OFA0B0*%
%FSLAX24Y24*%
%IPPOS*%
%LPD*%
%AMOC8*
5,1,8,0,0,1.08239X$1,22.5*
%
%ADD10C,0.0100*%
%ADD11C,0.0000*%
%ADD12R,0.0433X0.0394*%
%ADD13R,0.0394X0.0433*%
%ADD14R,0.2000X0.0700*%
%ADD15R,0.0394X0.0394*%
%ADD16R,0.0118X0.0256*%
%ADD17R,0.0256X0.0118*%
%ADD18C,0.0600*%
%ADD19R,0.0315X0.0315*%
%ADD20OC8,0.0600*%
%ADD21R,0.0250X0.0500*%
%ADD22C,0.0591*%
%ADD23R,0.0118X0.0551*%
%ADD24R,0.0551X0.0118*%
%ADD25C,0.0160*%
%ADD26C,0.0357*%
%ADD27R,0.0396X0.0396*%
%ADD28C,0.0396*%
D10*
X008563Y004064D02*
X008563Y005064D01*
X009313Y005814D01*
X010313Y005814D01*
X011438Y006939D01*
X012063Y006939D01*
X012377Y007253D01*
X012377Y007656D01*
X012574Y007656D02*
X012574Y007075D01*
X012188Y006689D01*
X011938Y006689D01*
X010563Y005314D01*
X010063Y005314D01*
X009563Y004814D01*
X009563Y004064D01*
X010563Y004064D02*
X010563Y004814D01*
X011688Y005939D01*
X011938Y005939D01*
X012770Y006772D01*
X012770Y007656D01*
X012967Y007656D02*
X012967Y005719D01*
X012063Y004814D01*
X012063Y004564D01*
X011563Y004064D01*
X012563Y004064D02*
X012563Y004314D01*
X013164Y004915D01*
X013164Y007656D01*
X013539Y008463D02*
X013313Y008689D01*
X013313Y009189D01*
X013188Y009314D01*
X013971Y009250D02*
X015002Y009250D01*
X015563Y008689D01*
X016063Y008814D02*
X015430Y009447D01*
X013971Y009447D01*
X013971Y009644D02*
X015976Y009644D01*
X016003Y009671D01*
X016063Y010314D01*
X016438Y010314D01*
X016813Y010814D01*
X017688Y009939D01*
X017688Y009314D01*
X018063Y008939D01*
X018690Y008939D01*
X018690Y008742D02*
X017885Y008742D01*
X016813Y009814D01*
X016003Y009671D02*
X015999Y009625D01*
X015717Y009889D02*
X015669Y009841D01*
X013971Y009841D01*
X013971Y010037D02*
X015499Y010037D01*
X015688Y010439D01*
X015938Y012064D01*
X016313Y012814D01*
X016813Y012814D01*
X017813Y011814D01*
X017813Y010564D01*
X018313Y010064D01*
X018313Y009439D01*
X018419Y009333D01*
X018690Y009333D01*
X018690Y009136D02*
X018241Y009136D01*
X017938Y009439D01*
X017938Y010064D01*
X017563Y010439D01*
X017563Y011064D01*
X016813Y011814D01*
X016438Y011814D01*
X016063Y011314D01*
X015938Y010564D01*
X015717Y009889D01*
X014938Y010689D02*
X014930Y010681D01*
X014938Y010689D02*
X014938Y012314D01*
X016438Y013814D01*
X016813Y013814D01*
X017563Y014314D02*
X017938Y013939D01*
X017938Y013439D01*
X019500Y011877D01*
X019563Y011814D01*
X019563Y011354D01*
X019603Y011314D01*
X019603Y010439D01*
X019438Y010274D01*
X019438Y009687D01*
X019438Y009333D01*
X020186Y009333D01*
X020186Y009136D02*
X019635Y009136D01*
X019438Y008939D01*
X019438Y008191D01*
X019635Y008191D02*
X019635Y007721D01*
X019103Y007189D01*
X019038Y007189D01*
X017538Y005689D01*
X017603Y005624D01*
X017603Y004189D01*
X015688Y004189D02*
X015563Y004064D01*
X015688Y004189D02*
X015688Y007689D01*
X014520Y008856D01*
X013971Y008856D01*
X013971Y008660D02*
X014342Y008660D01*
X014563Y008439D01*
X014563Y004064D01*
X013971Y004473D02*
X013563Y004064D01*
X013971Y004473D02*
X013971Y008463D01*
X013539Y008463D01*
X013971Y009053D02*
X014552Y009053D01*
X014688Y009064D01*
X015938Y007814D01*
X016813Y007814D01*
X018938Y007814D01*
X019044Y007920D01*
X019044Y008191D01*
X019241Y008191D02*
X019241Y008564D01*
X019063Y008564D01*
X019063Y009333D01*
X019438Y009333D01*
X019635Y009687D02*
X019635Y010011D01*
X019688Y010064D01*
X019897Y010064D01*
X020272Y010439D01*
X020853Y010439D01*
X020938Y010524D01*
X020938Y009854D02*
X020770Y009687D01*
X019831Y009687D01*
X019241Y009687D02*
X019241Y010096D01*
X019022Y010814D01*
X018353Y010814D02*
X018438Y010479D01*
X018438Y010314D01*
X018688Y010064D01*
X019044Y009708D01*
X019044Y009687D01*
X018690Y008545D02*
X017081Y008545D01*
X016813Y008814D01*
X016063Y008814D01*
X013188Y011439D02*
X013247Y011545D01*
X013228Y011564D01*
X013247Y011545D02*
X014438Y013689D01*
X013563Y014064D02*
X012938Y013439D01*
X012438Y013439D01*
X012180Y013181D01*
X012180Y012223D01*
X011983Y012223D02*
X011983Y013769D01*
X011938Y013814D01*
X012313Y013814D01*
X012563Y014064D01*
X012563Y014439D01*
X012938Y014814D01*
X013563Y014814D01*
X014063Y015314D01*
X013938Y014814D02*
X014563Y014814D01*
X015063Y015314D01*
X000563Y015439D02*
X000581Y016175D01*
X000635Y016909D01*
X000725Y017640D01*
X000851Y018365D01*
X001013Y019084D01*
X001209Y019793D01*
X001440Y020492D01*
X001705Y021179D01*
X002003Y021852D01*
X002334Y022510D01*
X002697Y023151D01*
X003091Y023773D01*
X003515Y024374D01*
X003968Y024955D01*
X004449Y025512D01*
X004956Y026046D01*
X005490Y026553D01*
X006047Y027034D01*
X006628Y027487D01*
X007229Y027911D01*
X007851Y028305D01*
X008492Y028668D01*
X009150Y028999D01*
X009823Y029297D01*
X010510Y029562D01*
X011209Y029793D01*
X011918Y029989D01*
X012637Y030151D01*
X013362Y030277D01*
X014093Y030367D01*
X014827Y030421D01*
X015563Y030439D01*
X016299Y030421D01*
X017033Y030367D01*
X017764Y030277D01*
X018489Y030151D01*
X019208Y029989D01*
X019917Y029793D01*
X020616Y029562D01*
X021303Y029297D01*
X021976Y028999D01*
X022634Y028668D01*
X023275Y028305D01*
X023897Y027911D01*
X024498Y027487D01*
X025079Y027034D01*
X025636Y026553D01*
X026170Y026046D01*
X026677Y025512D01*
X027158Y024955D01*
X027611Y024374D01*
X028035Y023773D01*
X028429Y023151D01*
X028792Y022510D01*
X029123Y021852D01*
X029421Y021179D01*
X029686Y020492D01*
X029917Y019793D01*
X030113Y019084D01*
X030275Y018365D01*
X030401Y017640D01*
X030491Y016909D01*
X030545Y016175D01*
X030563Y015439D01*
X030545Y014703D01*
X030491Y013969D01*
X030401Y013238D01*
X030275Y012513D01*
X030113Y011794D01*
X029917Y011085D01*
X029686Y010386D01*
X029421Y009699D01*
X029123Y009026D01*
X028792Y008368D01*
X028429Y007727D01*
X028035Y007105D01*
X027611Y006504D01*
X027158Y005923D01*
X026677Y005366D01*
X026170Y004832D01*
X025636Y004325D01*
X025079Y003844D01*
X024498Y003391D01*
X023897Y002967D01*
X023275Y002573D01*
X022634Y002210D01*
X021976Y001879D01*
X021303Y001581D01*
X020616Y001316D01*
X019917Y001085D01*
X019208Y000889D01*
X018489Y000727D01*
X017764Y000601D01*
X017033Y000511D01*
X016299Y000457D01*
X015563Y000439D01*
X014827Y000457D01*
X014093Y000511D01*
X013362Y000601D01*
X012637Y000727D01*
X011918Y000889D01*
X011209Y001085D01*
X010510Y001316D01*
X009823Y001581D01*
X009150Y001879D01*
X008492Y002210D01*
X007851Y002573D01*
X007229Y002967D01*
X006628Y003391D01*
X006047Y003844D01*
X005490Y004325D01*
X004956Y004832D01*
X004449Y005366D01*
X003968Y005923D01*
X003515Y006504D01*
X003091Y007105D01*
X002697Y007727D01*
X002334Y008368D01*
X002003Y009026D01*
X001705Y009699D01*
X001440Y010386D01*
X001209Y011085D01*
X001013Y011794D01*
X000851Y012513D01*
X000725Y013238D01*
X000635Y013969D01*
X000581Y014703D01*
X000563Y015439D01*
X007143Y010934D02*
X007143Y010564D01*
X007143Y009564D01*
X007143Y008564D01*
X007733Y008564D02*
X007829Y008660D01*
X009404Y008660D01*
X009404Y008856D02*
X008441Y008856D01*
X007733Y009564D01*
X007797Y009500D01*
X008313Y009689D02*
X008313Y010189D01*
X007938Y010564D01*
X007733Y010564D01*
X007143Y010934D02*
X007438Y011229D01*
X007438Y011899D02*
X007438Y012524D01*
X007603Y012689D01*
X008877Y011415D01*
X009404Y011415D01*
X009558Y011569D01*
X009563Y011564D01*
X010688Y011439D01*
X011313Y011064D01*
X011688Y011064D01*
X011813Y011439D02*
X011563Y011689D01*
X011589Y011716D01*
X011589Y012223D01*
X011589Y012787D01*
X011063Y013314D01*
X011063Y013814D01*
X010813Y013814D01*
X010563Y014064D01*
X010563Y014689D01*
X010688Y014814D01*
X011563Y014814D01*
X012063Y015314D01*
X011938Y014814D02*
X012563Y014814D01*
X013063Y015314D01*
X013563Y014439D02*
X013938Y014814D01*
X013563Y014439D02*
X013563Y014064D01*
X015063Y014314D02*
X015063Y014439D01*
X015563Y014939D01*
X015563Y015564D01*
X015313Y015814D01*
X007938Y015814D01*
X007563Y015439D01*
X007563Y014729D01*
X007938Y014354D01*
X007603Y014020D01*
X007603Y012689D01*
X008272Y012689D02*
X008313Y012729D01*
X008313Y013439D01*
X009563Y014064D02*
X009563Y014814D01*
X008147Y014814D01*
X007938Y015024D01*
X009563Y014814D02*
X010063Y015314D01*
X009563Y014064D02*
X010063Y013564D01*
X010438Y013564D01*
X011393Y012609D01*
X011393Y012223D01*
X011786Y012223D02*
X011786Y012966D01*
X011438Y013314D01*
X011438Y013849D01*
X011393Y013894D01*
X011563Y014064D01*
X011563Y014439D01*
X011938Y014814D01*
X011938Y013814D02*
X011813Y013814D01*
X010605Y012897D02*
X010563Y012939D01*
X010605Y012897D02*
X010605Y012223D01*
X010211Y012223D02*
X009558Y011569D01*
X010688Y010939D02*
X010688Y009439D01*
X010063Y008314D01*
X010052Y009053D02*
X009404Y009053D01*
X009404Y009250D02*
X008752Y009250D01*
X008313Y009689D01*
X010052Y009053D02*
X010188Y009189D01*
X010188Y009689D01*
X010180Y009697D01*
X011813Y011439D02*
X012563Y011439D01*
X013188Y011439D02*
X013188Y011064D01*
X015063Y014314D02*
X017563Y014314D01*
X018188Y015189D02*
X018188Y015564D01*
X017813Y015939D01*
X016688Y015939D01*
X016688Y016314D01*
X016063Y016689D02*
X018688Y016689D01*
X018764Y016687D01*
X018840Y016681D01*
X018915Y016672D01*
X018990Y016658D01*
X019064Y016641D01*
X019137Y016620D01*
X019209Y016596D01*
X019280Y016567D01*
X019349Y016536D01*
X019416Y016501D01*
X019481Y016462D01*
X019545Y016420D01*
X019606Y016375D01*
X019665Y016327D01*
X019721Y016276D01*
X019775Y016222D01*
X019826Y016166D01*
X019874Y016107D01*
X019919Y016046D01*
X019961Y015982D01*
X020000Y015917D01*
X020035Y015850D01*
X020066Y015781D01*
X020095Y015710D01*
X020119Y015638D01*
X020140Y015565D01*
X020157Y015491D01*
X020171Y015416D01*
X020180Y015341D01*
X020186Y015265D01*
X020188Y015189D01*
X021687Y014064D02*
X021685Y013960D01*
X021677Y013856D01*
X021665Y013753D01*
X021647Y013650D01*
X021625Y013548D01*
X021598Y013448D01*
X021567Y013349D01*
X021530Y013251D01*
X021489Y013155D01*
X021444Y013062D01*
X021394Y012971D01*
X021340Y012882D01*
X021281Y012795D01*
X021219Y012712D01*
X021153Y012632D01*
X021083Y012555D01*
X021009Y012481D01*
X020932Y012411D01*
X020852Y012345D01*
X020769Y012283D01*
X020682Y012224D01*
X020594Y012170D01*
X020502Y012120D01*
X020409Y012075D01*
X020313Y012034D01*
X020215Y011997D01*
X020116Y011966D01*
X020016Y011939D01*
X019914Y011917D01*
X019811Y011899D01*
X019708Y011887D01*
X019604Y011879D01*
X019500Y011877D01*
X020272Y011314D02*
X020272Y010439D01*
X020938Y009274D02*
X021438Y009274D01*
X021603Y009439D01*
X022272Y009439D02*
X022853Y009439D01*
X023522Y009439D02*
X024022Y009439D01*
X024438Y009399D01*
X023272Y008189D02*
X023272Y007314D01*
X022603Y007314D02*
X022603Y008189D01*
X022519Y008104D01*
X021938Y008104D01*
X021897Y008064D01*
X020563Y008064D01*
X020186Y008441D01*
X020186Y008545D01*
X020186Y008742D02*
X020800Y008742D01*
X020938Y008604D01*
X021769Y008604D01*
X021938Y008774D01*
X020938Y009274D02*
X020603Y008939D01*
X020186Y008939D01*
X019831Y008191D02*
X019831Y007248D01*
X019831Y007195D01*
X021338Y005689D01*
X021272Y005624D01*
X021272Y004189D01*
X019772Y007189D02*
X019831Y007248D01*
X021688Y014064D02*
X021688Y016939D01*
X022313Y017064D02*
X021813Y017564D01*
X011313Y017564D01*
X015938Y016564D02*
X015938Y015189D01*
X015938Y016564D02*
X016063Y016689D01*
X022313Y017064D02*
X022313Y015314D01*
X022188Y015189D01*
X011196Y007656D02*
X011196Y007197D01*
X010813Y006814D01*
X010688Y006814D01*
X010063Y006189D01*
X010015Y006189D01*
D11*
X014563Y028939D02*
X014565Y029002D01*
X014571Y029064D01*
X014581Y029126D01*
X014594Y029188D01*
X014612Y029248D01*
X014633Y029307D01*
X014658Y029365D01*
X014687Y029421D01*
X014719Y029475D01*
X014754Y029527D01*
X014792Y029576D01*
X014834Y029624D01*
X014878Y029668D01*
X014926Y029710D01*
X014975Y029748D01*
X015027Y029783D01*
X015081Y029815D01*
X015137Y029844D01*
X015195Y029869D01*
X015254Y029890D01*
X015314Y029908D01*
X015376Y029921D01*
X015438Y029931D01*
X015500Y029937D01*
X015563Y029939D01*
X015626Y029937D01*
X015688Y029931D01*
X015750Y029921D01*
X015812Y029908D01*
X015872Y029890D01*
X015931Y029869D01*
X015989Y029844D01*
X016045Y029815D01*
X016099Y029783D01*
X016151Y029748D01*
X016200Y029710D01*
X016248Y029668D01*
X016292Y029624D01*
X016334Y029576D01*
X016372Y029527D01*
X016407Y029475D01*
X016439Y029421D01*
X016468Y029365D01*
X016493Y029307D01*
X016514Y029248D01*
X016532Y029188D01*
X016545Y029126D01*
X016555Y029064D01*
X016561Y029002D01*
X016563Y028939D01*
X016561Y028876D01*
X016555Y028814D01*
X016545Y028752D01*
X016532Y028690D01*
X016514Y028630D01*
X016493Y028571D01*
X016468Y028513D01*
X016439Y028457D01*
X016407Y028403D01*
X016372Y028351D01*
X016334Y028302D01*
X016292Y028254D01*
X016248Y028210D01*
X016200Y028168D01*
X016151Y028130D01*
X016099Y028095D01*
X016045Y028063D01*
X015989Y028034D01*
X015931Y028009D01*
X015872Y027988D01*
X015812Y027970D01*
X015750Y027957D01*
X015688Y027947D01*
X015626Y027941D01*
X015563Y027939D01*
X015500Y027941D01*
X015438Y027947D01*
X015376Y027957D01*
X015314Y027970D01*
X015254Y027988D01*
X015195Y028009D01*
X015137Y028034D01*
X015081Y028063D01*
X015027Y028095D01*
X014975Y028130D01*
X014926Y028168D01*
X014878Y028210D01*
X014834Y028254D01*
X014792Y028302D01*
X014754Y028351D01*
X014719Y028403D01*
X014687Y028457D01*
X014658Y028513D01*
X014633Y028571D01*
X014612Y028630D01*
X014594Y028690D01*
X014581Y028752D01*
X014571Y028814D01*
X014565Y028876D01*
X014563Y028939D01*
D12*
X007938Y015024D03*
X007938Y014354D03*
X008272Y012689D03*
X007603Y012689D03*
X007438Y011899D03*
X007438Y011229D03*
X017603Y004189D03*
X018272Y004189D03*
X020603Y004189D03*
X021272Y004189D03*
X022603Y007314D03*
X023272Y007314D03*
X023272Y008189D03*
X022603Y008189D03*
X022853Y009439D03*
X022272Y009439D03*
X021603Y009439D03*
X020938Y009854D03*
X020938Y010524D03*
X020272Y010439D03*
X019603Y010439D03*
X019022Y010814D03*
X018353Y010814D03*
X019603Y011314D03*
X020272Y011314D03*
X023522Y009439D03*
D13*
X024438Y009399D03*
X024438Y008729D03*
X021938Y008774D03*
X021938Y008104D03*
X020938Y008604D03*
X020938Y009274D03*
X019772Y007189D03*
X019103Y007189D03*
D14*
X017538Y005689D03*
X021338Y005689D03*
D15*
X019438Y008939D03*
D16*
X019438Y009687D03*
X019635Y009687D03*
X019831Y009687D03*
X019241Y009687D03*
X019044Y009687D03*
X019044Y008191D03*
X019241Y008191D03*
X019438Y008191D03*
X019635Y008191D03*
X019831Y008191D03*
D17*
X020186Y008545D03*
X020186Y008742D03*
X020186Y008939D03*
X020186Y009136D03*
X020186Y009333D03*
X018690Y009333D03*
X018690Y009136D03*
X018690Y008939D03*
X018690Y008742D03*
X018690Y008545D03*
D18*
X017113Y008814D02*
X016513Y008814D01*
X016513Y007814D02*
X017113Y007814D01*
X017113Y009814D02*
X016513Y009814D01*
X016513Y010814D02*
X017113Y010814D01*
X017113Y011814D02*
X016513Y011814D01*
X016513Y012814D02*
X017113Y012814D01*
X017113Y013814D02*
X016513Y013814D01*
X017188Y014889D02*
X017188Y015489D01*
X018188Y015489D02*
X018188Y014889D01*
X019188Y014889D02*
X019188Y015489D01*
X020188Y015489D02*
X020188Y014889D01*
X021188Y014889D02*
X021188Y015489D01*
X022188Y015489D02*
X022188Y014889D01*
X015563Y004364D02*
X015563Y003764D01*
X014563Y003764D02*
X014563Y004364D01*
X013563Y004364D02*
X013563Y003764D01*
X012563Y003764D02*
X012563Y004364D01*
X011563Y004364D02*
X011563Y003764D01*
X010563Y003764D02*
X010563Y004364D01*
X009563Y004364D02*
X009563Y003764D01*
X008563Y003764D02*
X008563Y004364D01*
D19*
X007733Y008564D03*
X007143Y008564D03*
X007143Y009564D03*
X007733Y009564D03*
X007733Y010564D03*
X007143Y010564D03*
D20*
X009063Y014314D03*
X010063Y014314D03*
X011063Y014314D03*
X011063Y015314D03*
X010063Y015314D03*
X009063Y015314D03*
X012063Y015314D03*
X013063Y015314D03*
X014063Y015314D03*
X014063Y014314D03*
X013063Y014314D03*
X012063Y014314D03*
X015063Y014314D03*
X015063Y015314D03*
D21*
X024563Y010439D03*
D22*
X024563Y019494D01*
D23*
X013164Y012223D03*
X012967Y012223D03*
X012770Y012223D03*
X012574Y012223D03*
X012377Y012223D03*
X012180Y012223D03*
X011983Y012223D03*
X011786Y012223D03*
X011589Y012223D03*
X011393Y012223D03*
X011196Y012223D03*
X010999Y012223D03*
X010802Y012223D03*
X010605Y012223D03*
X010408Y012223D03*
X010211Y012223D03*
X010211Y007656D03*
X010408Y007656D03*
X010605Y007656D03*
X010802Y007656D03*
X010999Y007656D03*
X011196Y007656D03*
X011393Y007656D03*
X011589Y007656D03*
X011786Y007656D03*
X011983Y007656D03*
X012180Y007656D03*
X012377Y007656D03*
X012574Y007656D03*
X012770Y007656D03*
X012967Y007656D03*
X013164Y007656D03*
D24*
X013971Y008463D03*
X013971Y008660D03*
X013971Y008856D03*
X013971Y009053D03*
X013971Y009250D03*
X013971Y009447D03*
X013971Y009644D03*
X013971Y009841D03*
X013971Y010037D03*
X013971Y010234D03*
X013971Y010431D03*
X013971Y010628D03*
X013971Y010825D03*
X013971Y011022D03*
X013971Y011219D03*
X013971Y011415D03*
X009404Y011415D03*
X009404Y011219D03*
X009404Y011022D03*
X009404Y010825D03*
X009404Y010628D03*
X009404Y010431D03*
X009404Y010234D03*
X009404Y010037D03*
X009404Y009841D03*
X009404Y009644D03*
X009404Y009447D03*
X009404Y009250D03*
X009404Y009053D03*
X009404Y008856D03*
X009404Y008660D03*
X009404Y008463D03*
D25*
X008472Y005270D02*
X005290Y005270D01*
X005128Y005429D02*
X008631Y005429D01*
X008476Y005274D02*
X008353Y005151D01*
X008353Y004775D01*
X008302Y004754D01*
X008173Y004625D01*
X008103Y004456D01*
X008103Y003673D01*
X008173Y003503D01*
X008302Y003374D01*
X008471Y003304D01*
X008654Y003304D01*
X008823Y003374D01*
X008953Y003503D01*
X009023Y003673D01*
X009023Y004456D01*
X008953Y004625D01*
X008823Y004754D01*
X008773Y004775D01*
X008773Y004977D01*
X009400Y005604D01*
X010400Y005604D01*
X010523Y005727D01*
X011525Y006729D01*
X011681Y006729D01*
X010476Y005524D01*
X010150Y005524D01*
X009976Y005524D01*
X009476Y005024D01*
X009353Y004901D01*
X009353Y004775D01*
X009302Y004754D01*
X009173Y004625D01*
X009103Y004456D01*
X009103Y003673D01*
X009173Y003503D01*
X009302Y003374D01*
X009471Y003304D01*
X009654Y003304D01*
X009823Y003374D01*
X009953Y003503D01*
X010023Y003673D01*
X010023Y004456D01*
X009953Y004625D01*
X009823Y004754D01*
X009807Y004761D01*
X010150Y005104D01*
X010556Y005104D01*
X010476Y005024D01*
X010353Y004901D01*
X010353Y004775D01*
X010302Y004754D01*
X010173Y004625D01*
X010103Y004456D01*
X010103Y003673D01*
X010173Y003503D01*
X010302Y003374D01*
X010471Y003304D01*
X010654Y003304D01*
X010823Y003374D01*
X010953Y003503D01*
X011023Y003673D01*
X011023Y004456D01*
X010953Y004625D01*
X010823Y004754D01*
X010807Y004761D01*
X011775Y005729D01*
X012025Y005729D01*
X012148Y005852D01*
X012757Y006462D01*
X012757Y005806D01*
X011853Y004901D01*
X011853Y004727D01*
X011853Y004724D01*
X011823Y004754D01*
X011654Y004824D01*
X011471Y004824D01*
X011302Y004754D01*
X011173Y004625D01*
X011103Y004456D01*
X011103Y003673D01*
X011173Y003503D01*
X011302Y003374D01*
X011471Y003304D01*
X011654Y003304D01*
X011823Y003374D01*
X011953Y003503D01*
X012023Y003673D01*
X012023Y004227D01*
X012103Y004307D01*
X012103Y003673D01*
X012173Y003503D01*
X012302Y003374D01*
X012471Y003304D01*
X012654Y003304D01*
X012823Y003374D01*
X012953Y003503D01*
X013023Y003673D01*
X013023Y004456D01*
X013016Y004471D01*
X013374Y004828D01*
X013374Y005002D01*
X013374Y007305D01*
X013383Y007314D01*
X013383Y007997D01*
X013289Y008091D01*
X013039Y008091D01*
X012842Y008091D01*
X012645Y008091D01*
X012448Y008091D01*
X012251Y008091D01*
X012055Y008091D01*
X011858Y008091D01*
X011661Y008091D01*
X011464Y008091D01*
X011267Y008091D01*
X011070Y008091D01*
X010873Y008091D01*
X010677Y008091D01*
X010480Y008091D01*
X010318Y008091D01*
X010350Y008122D01*
X010401Y008247D01*
X010401Y008381D01*
X010375Y008444D01*
X010857Y009311D01*
X010898Y009352D01*
X010898Y009385D01*
X010914Y009413D01*
X010898Y009468D01*
X010898Y010670D01*
X010975Y010747D01*
X011026Y010872D01*
X011026Y010991D01*
X011183Y010897D01*
X011226Y010854D01*
X011255Y010854D01*
X011279Y010839D01*
X011339Y010854D01*
X011391Y010854D01*
X011485Y010760D01*
X011617Y010706D01*
X011759Y010706D01*
X011891Y010760D01*
X011991Y010861D01*
X012046Y010993D01*
X012046Y011135D01*
X012007Y011229D01*
X012266Y011229D01*
X012360Y011135D01*
X012492Y011081D01*
X012634Y011081D01*
X012766Y011135D01*
X012866Y011236D01*
X012921Y011368D01*
X012921Y011510D01*
X012866Y011642D01*
X012766Y011743D01*
X012659Y011787D01*
X012842Y011787D01*
X013039Y011787D01*
X013141Y011787D01*
X013125Y011758D01*
X013018Y011651D01*
X013018Y011566D01*
X012978Y011526D01*
X012978Y011493D01*
X012962Y011465D01*
X012978Y011410D01*
X012978Y011333D01*
X012901Y011256D01*
X012849Y011131D01*
X012849Y010997D01*
X012901Y010872D01*
X012996Y010777D01*
X013120Y010726D01*
X013255Y010726D01*
X013379Y010777D01*
X013475Y010872D01*
X013526Y010997D01*
X013526Y011131D01*
X013475Y011256D01*
X013398Y011333D01*
X013398Y011385D01*
X013416Y011418D01*
X013457Y011458D01*
X013457Y011491D01*
X013473Y011519D01*
X014479Y013331D01*
X014509Y013331D01*
X014641Y013385D01*
X014741Y013486D01*
X014796Y013618D01*
X014796Y013760D01*
X014741Y013892D01*
X014641Y013993D01*
X014509Y014047D01*
X014446Y014047D01*
X014523Y014124D01*
X014523Y014505D01*
X014423Y014604D01*
X014476Y014604D01*
X014650Y014604D01*
X014900Y014854D01*
X015181Y014854D01*
X015101Y014774D01*
X014872Y014774D01*
X014603Y014505D01*
X014603Y014124D01*
X014872Y013854D01*
X015253Y013854D01*
X015503Y014104D01*
X016130Y014104D01*
X016102Y014066D01*
X016068Y013998D01*
X016045Y013926D01*
X016033Y013852D01*
X016033Y013834D01*
X016793Y013834D01*
X016793Y013794D01*
X016833Y013794D01*
X016833Y013834D01*
X017593Y013834D01*
X017593Y013852D01*
X017581Y013926D01*
X017558Y013998D01*
X017533Y014047D01*
X017728Y013852D01*
X017728Y013526D01*
X017728Y013352D01*
X019290Y011790D01*
X019353Y011727D01*
X019353Y011671D01*
X019320Y011671D01*
X019227Y011577D01*
X019227Y011171D01*
X018740Y011171D01*
X018702Y011133D01*
X018680Y011155D01*
X018639Y011179D01*
X018593Y011191D01*
X018372Y011191D01*
X018372Y010833D01*
X018335Y010833D01*
X018335Y011191D01*
X018113Y011191D01*
X018067Y011179D01*
X018026Y011155D01*
X018023Y011152D01*
X018023Y011727D01*
X018023Y011901D01*
X017436Y012487D01*
X017503Y012553D01*
X017573Y012723D01*
X017573Y012906D01*
X017503Y013075D01*
X017373Y013204D01*
X017204Y013274D01*
X016421Y013274D01*
X016252Y013204D01*
X016123Y013075D01*
X016053Y012906D01*
X016053Y012764D01*
X015773Y012203D01*
X015743Y012182D01*
X015735Y012128D01*
X015711Y012080D01*
X015723Y012046D01*
X015485Y010501D01*
X015366Y010247D01*
X014407Y010247D01*
X014407Y010360D01*
X014407Y010556D01*
X014407Y010753D01*
X014407Y010950D01*
X014407Y011147D01*
X014407Y011344D01*
X014407Y011541D01*
X014313Y011634D01*
X013629Y011634D01*
X013536Y011541D01*
X013536Y011344D01*
X013536Y011147D01*
X013536Y010950D01*
X013536Y010753D01*
X013536Y010556D01*
X013536Y010360D01*
X013536Y010163D01*
X013536Y009966D01*
X013536Y009769D01*
X013536Y009572D01*
X013536Y009410D01*
X013491Y009517D01*
X013391Y009618D01*
X013259Y009672D01*
X013117Y009672D01*
X012985Y009618D01*
X012884Y009517D01*
X012830Y009385D01*
X012830Y009243D01*
X012884Y009111D01*
X012985Y009010D01*
X013103Y008962D01*
X013103Y008602D01*
X013226Y008479D01*
X013452Y008253D01*
X013620Y008253D01*
X013629Y008244D01*
X013761Y008244D01*
X013761Y004780D01*
X013654Y004824D01*
X013471Y004824D01*
X013302Y004754D01*
X013173Y004625D01*
X013103Y004456D01*
X013103Y003673D01*
X013173Y003503D01*
X013302Y003374D01*
X013471Y003304D01*
X013654Y003304D01*
X013823Y003374D01*
X013953Y003503D01*
X014023Y003673D01*
X014023Y004227D01*
X014103Y004307D01*
X014103Y003673D01*
X014173Y003503D01*
X014302Y003374D01*
X014471Y003304D01*
X014654Y003304D01*
X014823Y003374D01*
X014953Y003503D01*
X015023Y003673D01*
X015023Y004456D01*
X014953Y004625D01*
X014823Y004754D01*
X014773Y004775D01*
X014773Y008307D01*
X015478Y007602D01*
X015478Y004824D01*
X015471Y004824D01*
X015302Y004754D01*
X015173Y004625D01*
X015103Y004456D01*
X015103Y003673D01*
X015173Y003503D01*
X015302Y003374D01*
X015471Y003304D01*
X015654Y003304D01*
X015823Y003374D01*
X015953Y003503D01*
X016023Y003673D01*
X016023Y004456D01*
X015953Y004625D01*
X015898Y004680D01*
X015898Y007604D01*
X016025Y007604D01*
X016102Y007604D01*
X016123Y007553D01*
X016252Y007424D01*
X016421Y007354D01*
X017204Y007354D01*
X017373Y007424D01*
X017503Y007553D01*
X017524Y007604D01*
X019025Y007604D01*
X019148Y007727D01*
X019254Y007833D01*
X019254Y007903D01*
X019296Y007903D01*
X019309Y007895D01*
X019355Y007883D01*
X019425Y007883D01*
X019425Y007808D01*
X019183Y007566D01*
X018840Y007566D01*
X018746Y007472D01*
X018746Y007195D01*
X017751Y006199D01*
X016471Y006199D01*
X016378Y006105D01*
X016378Y005273D01*
X016471Y005179D01*
X017393Y005179D01*
X017393Y004546D01*
X017320Y004546D01*
X017227Y004452D01*
X017227Y003926D01*
X017320Y003832D01*
X017886Y003832D01*
X017924Y003870D01*
X017945Y003848D01*
X017986Y003824D01*
X018032Y003812D01*
X018254Y003812D01*
X018254Y004170D01*
X018291Y004170D01*
X018291Y003812D01*
X018513Y003812D01*
X018558Y003824D01*
X018599Y003848D01*
X018633Y003882D01*
X018657Y003923D01*
X018669Y003968D01*
X018669Y004171D01*
X018291Y004171D01*
X018291Y004207D01*
X018669Y004207D01*
X018669Y004410D01*
X018657Y004455D01*
X018633Y004496D01*
X018599Y004530D01*
X018558Y004554D01*
X018513Y004566D01*
X018291Y004566D01*
X018291Y004208D01*
X018254Y004208D01*
X018254Y004566D01*
X018032Y004566D01*
X017986Y004554D01*
X017945Y004530D01*
X017924Y004508D01*
X017886Y004546D01*
X017813Y004546D01*
X017813Y005179D01*
X018604Y005179D01*
X018698Y005273D01*
X018698Y006105D01*
X018604Y006199D01*
X018345Y006199D01*
X018958Y006813D01*
X019366Y006813D01*
X019438Y006884D01*
X019509Y006813D01*
X019917Y006813D01*
X020531Y006199D01*
X020271Y006199D01*
X020178Y006105D01*
X020178Y005273D01*
X020271Y005179D01*
X021062Y005179D01*
X021062Y004546D01*
X020990Y004546D01*
X020952Y004508D01*
X020930Y004530D01*
X020889Y004554D01*
X020843Y004566D01*
X020622Y004566D01*
X020622Y004208D01*
X020585Y004208D01*
X020585Y004566D01*
X020363Y004566D01*
X020317Y004554D01*
X020276Y004530D01*
X020243Y004496D01*
X020219Y004455D01*
X020207Y004410D01*
X020207Y004207D01*
X020584Y004207D01*
X020584Y004171D01*
X020207Y004171D01*
X020207Y003968D01*
X020219Y003923D01*
X020243Y003882D01*
X020276Y003848D01*
X020317Y003824D01*
X020363Y003812D01*
X020585Y003812D01*
X020585Y004170D01*
X020622Y004170D01*
X020622Y003812D01*
X020843Y003812D01*
X020889Y003824D01*
X020930Y003848D01*
X020952Y003870D01*
X020990Y003832D01*
X021555Y003832D01*
X021649Y003926D01*
X021649Y004452D01*
X021555Y004546D01*
X021482Y004546D01*
X021482Y005179D01*
X022404Y005179D01*
X022498Y005273D01*
X022498Y006105D01*
X022404Y006199D01*
X021125Y006199D01*
X020129Y007195D01*
X020129Y007472D01*
X020041Y007560D01*
X020041Y007988D01*
X020051Y007997D01*
X020051Y008279D01*
X020353Y007977D01*
X020476Y007854D01*
X021581Y007854D01*
X021581Y007822D01*
X021675Y007728D01*
X022201Y007728D01*
X022295Y007822D01*
X022295Y007858D01*
X022320Y007832D01*
X022393Y007832D01*
X022393Y007671D01*
X022320Y007671D01*
X022227Y007577D01*
X022227Y007051D01*
X022320Y006957D01*
X022886Y006957D01*
X022924Y006995D01*
X022945Y006973D01*
X022986Y006949D01*
X023032Y006937D01*
X023254Y006937D01*
X023254Y007295D01*
X023291Y007295D01*
X023291Y006937D01*
X023513Y006937D01*
X023558Y006949D01*
X023599Y006973D01*
X023633Y007007D01*
X023657Y007048D01*
X023669Y007093D01*
X023669Y007296D01*
X023291Y007296D01*
X023291Y007332D01*
X023669Y007332D01*
X023669Y007535D01*
X023657Y007580D01*
X023633Y007621D01*
X023599Y007655D01*
X023558Y007679D01*
X023513Y007691D01*
X023291Y007691D01*
X023291Y007333D01*
X023254Y007333D01*
X023254Y007691D01*
X023032Y007691D01*
X022986Y007679D01*
X022945Y007655D01*
X022924Y007633D01*
X022886Y007671D01*
X022813Y007671D01*
X022813Y007832D01*
X022886Y007832D01*
X022924Y007870D01*
X022945Y007848D01*
X022986Y007824D01*
X023032Y007812D01*
X023254Y007812D01*
X023254Y008170D01*
X023291Y008170D01*
X023291Y007812D01*
X023513Y007812D01*
X023558Y007824D01*
X023599Y007848D01*
X023633Y007882D01*
X023657Y007923D01*
X023669Y007968D01*
X023669Y008171D01*
X023291Y008171D01*
X023291Y008207D01*
X023669Y008207D01*
X023669Y008410D01*
X023657Y008455D01*
X023633Y008496D01*
X023599Y008530D01*
X023558Y008554D01*
X023513Y008566D01*
X023291Y008566D01*
X023291Y008208D01*
X023254Y008208D01*
X023254Y008566D01*
X023032Y008566D01*
X022986Y008554D01*
X022945Y008530D01*
X022924Y008508D01*
X022886Y008546D01*
X022320Y008546D01*
X022295Y008520D01*
X022295Y009056D01*
X022269Y009082D01*
X022555Y009082D01*
X022563Y009090D01*
X022570Y009082D01*
X023136Y009082D01*
X023188Y009134D01*
X023240Y009082D01*
X023805Y009082D01*
X023899Y009176D01*
X023899Y009229D01*
X024012Y009229D01*
X024081Y009222D01*
X024081Y009116D01*
X024119Y009078D01*
X024097Y009056D01*
X024073Y009015D01*
X024061Y008970D01*
X024061Y008748D01*
X024419Y008748D01*
X024419Y008711D01*
X024061Y008711D01*
X024061Y008489D01*
X024073Y008443D01*
X024097Y008402D01*
X024130Y008369D01*
X024171Y008345D01*
X024217Y008333D01*
X024419Y008333D01*
X024419Y008711D01*
X024456Y008711D01*
X024456Y008333D01*
X024658Y008333D01*
X024704Y008345D01*
X024745Y008369D01*
X024779Y008402D01*
X024802Y008443D01*
X024815Y008489D01*
X024815Y008711D01*
X024456Y008711D01*
X024456Y008748D01*
X024815Y008748D01*
X024815Y008970D01*
X024802Y009015D01*
X024779Y009056D01*
X024757Y009078D01*
X024795Y009116D01*
X024795Y009456D01*
X024803Y009476D01*
X024803Y009571D01*
X024803Y009867D01*
X025188Y009689D01*
X028791Y009599D01*
X028271Y008519D01*
X027518Y007288D01*
X026647Y006138D01*
X025666Y005080D01*
X024585Y004126D01*
X023413Y003284D01*
X022164Y002563D01*
X020849Y001969D01*
X019482Y001510D01*
X018075Y001189D01*
X016644Y001009D01*
X015202Y000974D01*
X013764Y001081D01*
X012343Y001332D01*
X010954Y001723D01*
X009611Y002250D01*
X008328Y002908D01*
X007116Y003690D01*
X005988Y004590D01*
X004956Y005597D01*
X004028Y006702D01*
X003216Y007894D01*
X002526Y009161D01*
X001965Y010490D01*
X001540Y011868D01*
X001254Y013282D01*
X001111Y014718D01*
X001111Y016160D01*
X001201Y017064D01*
X017313Y017064D01*
X017443Y016899D01*
X015976Y016899D01*
X015853Y016776D01*
X015728Y016651D01*
X015728Y016477D01*
X015728Y015696D01*
X015523Y015901D01*
X015400Y016024D01*
X008025Y016024D01*
X007851Y016024D01*
X007476Y015649D01*
X007353Y015526D01*
X007353Y014816D01*
X007353Y014642D01*
X007561Y014434D01*
X007561Y014275D01*
X007393Y014107D01*
X007393Y013933D01*
X007393Y013046D01*
X007320Y013046D01*
X007227Y012952D01*
X007227Y012426D01*
X007228Y012425D01*
X007228Y012256D01*
X007155Y012256D01*
X007061Y012162D01*
X007061Y011636D01*
X007133Y011564D01*
X007061Y011493D01*
X007061Y011150D01*
X006933Y011021D01*
X006933Y010881D01*
X006919Y010881D01*
X006825Y010788D01*
X006825Y010340D01*
X006919Y010247D01*
X006933Y010247D01*
X006933Y009881D01*
X006919Y009881D01*
X006825Y009788D01*
X006825Y009340D01*
X006919Y009247D01*
X006933Y009247D01*
X006933Y008881D01*
X006919Y008881D01*
X006825Y008788D01*
X006825Y008340D01*
X006919Y008247D01*
X007366Y008247D01*
X007438Y008318D01*
X007509Y008247D01*
X007957Y008247D01*
X008051Y008340D01*
X008051Y008450D01*
X008969Y008450D01*
X008969Y008337D01*
X009062Y008244D01*
X009726Y008244D01*
X009776Y008122D01*
X009871Y008027D01*
X009992Y007977D01*
X009992Y007314D01*
X010086Y007220D01*
X010283Y007220D01*
X010480Y007220D01*
X010677Y007220D01*
X010873Y007220D01*
X010922Y007220D01*
X010726Y007024D01*
X010601Y007024D01*
X010124Y006547D01*
X009992Y006547D01*
X009860Y006493D01*
X009759Y006392D01*
X009705Y006260D01*
X009705Y006118D01*
X009744Y006024D01*
X009400Y006024D01*
X009226Y006024D01*
X008476Y005274D01*
X008353Y005112D02*
X005453Y005112D01*
X005615Y004953D02*
X008353Y004953D01*
X008353Y004795D02*
X005778Y004795D01*
X005941Y004636D02*
X008184Y004636D01*
X008112Y004478D02*
X006129Y004478D01*
X006328Y004319D02*
X008103Y004319D01*
X008103Y004161D02*
X006526Y004161D01*
X006725Y004002D02*
X008103Y004002D01*
X008103Y003843D02*
X006924Y003843D01*
X007124Y003685D02*
X008103Y003685D01*
X008163Y003526D02*
X007370Y003526D01*
X007615Y003368D02*
X008317Y003368D01*
X008106Y003051D02*
X023010Y003051D01*
X023284Y003209D02*
X007861Y003209D01*
X008358Y002892D02*
X022735Y002892D01*
X022460Y002734D02*
X008667Y002734D01*
X008976Y002575D02*
X022186Y002575D01*
X021841Y002417D02*
X009286Y002417D01*
X009595Y002258D02*
X021489Y002258D01*
X021138Y002099D02*
X009994Y002099D01*
X010398Y001941D02*
X020765Y001941D01*
X020293Y001782D02*
X010802Y001782D01*
X011305Y001624D02*
X019821Y001624D01*
X019287Y001465D02*
X011869Y001465D01*
X012485Y001307D02*
X018592Y001307D01*
X017751Y001148D02*
X013384Y001148D01*
X014987Y000990D02*
X015849Y000990D01*
X015808Y003368D02*
X023530Y003368D01*
X023751Y003526D02*
X015962Y003526D01*
X016023Y003685D02*
X023971Y003685D01*
X024192Y003843D02*
X021566Y003843D01*
X021649Y004002D02*
X024412Y004002D01*
X024624Y004161D02*
X021649Y004161D01*
X021649Y004319D02*
X024804Y004319D01*
X024983Y004478D02*
X021624Y004478D01*
X021482Y004636D02*
X025163Y004636D01*
X025343Y004795D02*
X021482Y004795D01*
X021482Y004953D02*
X025522Y004953D01*
X025695Y005112D02*
X021482Y005112D01*
X021062Y005112D02*
X017813Y005112D01*
X017813Y004953D02*
X021062Y004953D01*
X021062Y004795D02*
X017813Y004795D01*
X017813Y004636D02*
X021062Y004636D01*
X020622Y004478D02*
X020585Y004478D01*
X020585Y004319D02*
X020622Y004319D01*
X020622Y004161D02*
X020585Y004161D01*
X020585Y004002D02*
X020622Y004002D01*
X020622Y003843D02*
X020585Y003843D01*
X020284Y003843D02*
X018591Y003843D01*
X018669Y004002D02*
X020207Y004002D01*
X020207Y004161D02*
X018669Y004161D01*
X018669Y004319D02*
X020207Y004319D01*
X020232Y004478D02*
X018644Y004478D01*
X018291Y004478D02*
X018254Y004478D01*
X018254Y004319D02*
X018291Y004319D01*
X018291Y004161D02*
X018254Y004161D01*
X018254Y004002D02*
X018291Y004002D01*
X018291Y003843D02*
X018254Y003843D01*
X017954Y003843D02*
X017897Y003843D01*
X017309Y003843D02*
X016023Y003843D01*
X016023Y004002D02*
X017227Y004002D01*
X017227Y004161D02*
X016023Y004161D01*
X016023Y004319D02*
X017227Y004319D01*
X017252Y004478D02*
X016014Y004478D01*
X015941Y004636D02*
X017393Y004636D01*
X017393Y004795D02*
X015898Y004795D01*
X015898Y004953D02*
X017393Y004953D01*
X017393Y005112D02*
X015898Y005112D01*
X015898Y005270D02*
X016380Y005270D01*
X016378Y005429D02*
X015898Y005429D01*
X015898Y005587D02*
X016378Y005587D01*
X016378Y005746D02*
X015898Y005746D01*
X015898Y005904D02*
X016378Y005904D01*
X016378Y006063D02*
X015898Y006063D01*
X015898Y006222D02*
X017773Y006222D01*
X017932Y006380D02*
X015898Y006380D01*
X015898Y006539D02*
X018090Y006539D01*
X018249Y006697D02*
X015898Y006697D01*
X015898Y006856D02*
X018408Y006856D01*
X018566Y007014D02*
X015898Y007014D01*
X015898Y007173D02*
X018725Y007173D01*
X018746Y007331D02*
X015898Y007331D01*
X015898Y007490D02*
X016186Y007490D01*
X016102Y008024D02*
X016025Y008024D01*
X015678Y008371D01*
X015754Y008402D01*
X015850Y008497D01*
X015901Y008622D01*
X015901Y008679D01*
X015976Y008604D01*
X016102Y008604D01*
X016123Y008553D01*
X016252Y008424D01*
X016421Y008354D01*
X016976Y008354D01*
X016994Y008335D01*
X017168Y008335D01*
X018486Y008335D01*
X018496Y008326D01*
X018825Y008326D01*
X018825Y008024D01*
X017524Y008024D01*
X017503Y008075D01*
X017373Y008204D01*
X017204Y008274D01*
X016421Y008274D01*
X016252Y008204D01*
X016123Y008075D01*
X016102Y008024D01*
X016172Y008124D02*
X015925Y008124D01*
X015766Y008283D02*
X018825Y008283D01*
X018825Y008124D02*
X017453Y008124D01*
X017439Y007490D02*
X018764Y007490D01*
X019069Y007648D02*
X019266Y007648D01*
X019228Y007807D02*
X019424Y007807D01*
X020041Y007807D02*
X021596Y007807D01*
X022280Y007807D02*
X022393Y007807D01*
X022298Y007648D02*
X020041Y007648D01*
X020111Y007490D02*
X022227Y007490D01*
X022227Y007331D02*
X020129Y007331D01*
X020151Y007173D02*
X022227Y007173D01*
X022263Y007014D02*
X020309Y007014D01*
X020468Y006856D02*
X027191Y006856D01*
X027311Y007014D02*
X023637Y007014D01*
X023669Y007173D02*
X027431Y007173D01*
X027545Y007331D02*
X023291Y007331D01*
X023291Y007173D02*
X023254Y007173D01*
X023254Y007014D02*
X023291Y007014D01*
X023291Y007490D02*
X023254Y007490D01*
X023254Y007648D02*
X023291Y007648D01*
X023606Y007648D02*
X027739Y007648D01*
X027642Y007490D02*
X023669Y007490D01*
X023668Y007966D02*
X027933Y007966D01*
X028030Y008124D02*
X023669Y008124D01*
X023669Y008283D02*
X028126Y008283D01*
X028223Y008441D02*
X024801Y008441D01*
X024815Y008600D02*
X028310Y008600D01*
X028386Y008758D02*
X024815Y008758D01*
X024815Y008917D02*
X028462Y008917D01*
X028539Y009075D02*
X024760Y009075D01*
X024795Y009234D02*
X028615Y009234D01*
X028691Y009392D02*
X024795Y009392D01*
X024803Y009551D02*
X028768Y009551D01*
X027836Y007807D02*
X022813Y007807D01*
X022908Y007648D02*
X022939Y007648D01*
X023254Y007966D02*
X023291Y007966D01*
X023291Y008124D02*
X023254Y008124D01*
X023254Y008283D02*
X023291Y008283D01*
X023291Y008441D02*
X023254Y008441D01*
X023660Y008441D02*
X024074Y008441D01*
X024061Y008600D02*
X022295Y008600D01*
X022295Y008758D02*
X024061Y008758D01*
X024061Y008917D02*
X022295Y008917D01*
X022276Y009075D02*
X024116Y009075D01*
X024438Y009399D02*
X024563Y009524D01*
X024563Y010439D01*
X024224Y010134D02*
X024305Y010053D01*
X024323Y010046D01*
X024323Y009775D01*
X024175Y009775D01*
X024081Y009681D01*
X024081Y009649D01*
X024033Y009649D01*
X023956Y009656D01*
X023947Y009649D01*
X023899Y009649D01*
X023899Y009702D01*
X023805Y009796D01*
X023240Y009796D01*
X023188Y009744D01*
X023136Y009796D01*
X022570Y009796D01*
X022563Y009788D01*
X022555Y009796D01*
X021990Y009796D01*
X021938Y009744D01*
X021886Y009796D01*
X021320Y009796D01*
X021314Y009790D01*
X021314Y010118D01*
X021255Y010177D01*
X021265Y010183D01*
X021298Y010216D01*
X021322Y010257D01*
X021334Y010303D01*
X021334Y010505D01*
X020956Y010505D01*
X020956Y010542D01*
X020919Y010542D01*
X020919Y010901D01*
X020698Y010901D01*
X020652Y010888D01*
X020611Y010865D01*
X020577Y010831D01*
X020561Y010802D01*
X020558Y010804D01*
X020513Y010816D01*
X020291Y010816D01*
X020291Y010458D01*
X020254Y010458D01*
X020254Y010816D01*
X020032Y010816D01*
X019986Y010804D01*
X019945Y010780D01*
X019924Y010758D01*
X019886Y010796D01*
X019813Y010796D01*
X019813Y010957D01*
X019886Y010957D01*
X019924Y010995D01*
X019945Y010973D01*
X019986Y010949D01*
X020032Y010937D01*
X020254Y010937D01*
X020254Y011295D01*
X020291Y011295D01*
X020291Y010937D01*
X020513Y010937D01*
X020558Y010949D01*
X020599Y010973D01*
X020633Y011007D01*
X020657Y011048D01*
X020669Y011093D01*
X020669Y011296D01*
X020291Y011296D01*
X020291Y011332D01*
X020669Y011332D01*
X020669Y011535D01*
X020657Y011580D01*
X020633Y011621D01*
X020599Y011655D01*
X020558Y011679D01*
X020513Y011691D01*
X020291Y011691D01*
X020291Y011333D01*
X020254Y011333D01*
X020254Y011691D01*
X020032Y011691D01*
X019986Y011679D01*
X019945Y011655D01*
X019924Y011633D01*
X019886Y011671D01*
X019789Y011671D01*
X020297Y011787D01*
X020297Y011787D01*
X020784Y012021D01*
X021090Y012266D01*
X021938Y011189D01*
X024224Y010134D01*
X024113Y010185D02*
X021267Y010185D01*
X021314Y010027D02*
X024323Y010027D01*
X024323Y009868D02*
X021314Y009868D01*
X021334Y010344D02*
X023769Y010344D01*
X023426Y010502D02*
X021334Y010502D01*
X021334Y010542D02*
X021334Y010744D01*
X021322Y010790D01*
X021298Y010831D01*
X021265Y010865D01*
X021224Y010888D01*
X021178Y010901D01*
X020956Y010901D01*
X020956Y010542D01*
X021334Y010542D01*
X021334Y010661D02*
X023082Y010661D01*
X022739Y010819D02*
X021305Y010819D01*
X020956Y010819D02*
X020919Y010819D01*
X020919Y010661D02*
X020956Y010661D01*
X020604Y010978D02*
X022395Y010978D01*
X022052Y011136D02*
X020669Y011136D01*
X020669Y011295D02*
X021854Y011295D01*
X021730Y011454D02*
X020669Y011454D01*
X020638Y011612D02*
X021605Y011612D01*
X021480Y011771D02*
X020226Y011771D01*
X020254Y011612D02*
X020291Y011612D01*
X020291Y011454D02*
X020254Y011454D01*
X020254Y011295D02*
X020291Y011295D01*
X020291Y011136D02*
X020254Y011136D01*
X020254Y010978D02*
X020291Y010978D01*
X020291Y010661D02*
X020254Y010661D01*
X020254Y010502D02*
X020291Y010502D01*
X020291Y010420D02*
X020254Y010420D01*
X020254Y010062D01*
X020032Y010062D01*
X019986Y010074D01*
X019945Y010098D01*
X019924Y010120D01*
X019886Y010082D01*
X019648Y010082D01*
X019648Y009995D01*
X019717Y009995D01*
X019763Y009983D01*
X019777Y009975D01*
X019957Y009975D01*
X020035Y009897D01*
X020561Y009897D01*
X020561Y010076D01*
X020558Y010074D01*
X020513Y010062D01*
X020291Y010062D01*
X020291Y010420D01*
X020291Y010344D02*
X020254Y010344D01*
X020254Y010185D02*
X020291Y010185D01*
X020561Y010027D02*
X019648Y010027D01*
X019031Y010027D02*
X018523Y010027D01*
X018523Y009977D02*
X018523Y010151D01*
X018237Y010437D01*
X018335Y010437D01*
X018335Y010795D01*
X018372Y010795D01*
X018372Y010437D01*
X018593Y010437D01*
X018639Y010449D01*
X018680Y010473D01*
X018702Y010495D01*
X018740Y010457D01*
X018911Y010457D01*
X019031Y010064D01*
X019031Y009995D01*
X018961Y009995D01*
X018916Y009983D01*
X018874Y009959D01*
X018841Y009926D01*
X018817Y009884D01*
X018805Y009839D01*
X018805Y009687D01*
X018805Y009552D01*
X018523Y009552D01*
X018523Y009977D01*
X018523Y009868D02*
X018813Y009868D01*
X018805Y009710D02*
X018523Y009710D01*
X018805Y009687D02*
X019022Y009687D01*
X018805Y009687D01*
X019022Y009687D02*
X019022Y009687D01*
X018994Y010185D02*
X018489Y010185D01*
X018330Y010344D02*
X018946Y010344D01*
X018372Y010502D02*
X018335Y010502D01*
X018335Y010661D02*
X018372Y010661D01*
X018372Y010978D02*
X018335Y010978D01*
X018335Y011136D02*
X018372Y011136D01*
X018699Y011136D02*
X018705Y011136D01*
X019227Y011295D02*
X018023Y011295D01*
X018023Y011454D02*
X019227Y011454D01*
X019261Y011612D02*
X018023Y011612D01*
X018023Y011771D02*
X019309Y011771D01*
X019151Y011929D02*
X017995Y011929D01*
X017836Y012088D02*
X018992Y012088D01*
X018834Y012246D02*
X017678Y012246D01*
X017519Y012405D02*
X018675Y012405D01*
X018517Y012563D02*
X017507Y012563D01*
X017572Y012722D02*
X018358Y012722D01*
X018199Y012880D02*
X017573Y012880D01*
X017518Y013039D02*
X018041Y013039D01*
X017882Y013197D02*
X017380Y013197D01*
X017297Y013369D02*
X017364Y013404D01*
X017425Y013448D01*
X017479Y013501D01*
X017523Y013562D01*
X017558Y013630D01*
X017581Y013702D01*
X017593Y013776D01*
X017593Y013794D01*
X016833Y013794D01*
X016833Y013334D01*
X017151Y013334D01*
X017225Y013346D01*
X017297Y013369D01*
X017256Y013356D02*
X017728Y013356D01*
X017728Y013515D02*
X017489Y013515D01*
X017572Y013673D02*
X017728Y013673D01*
X017728Y013832D02*
X016833Y013832D01*
X016793Y013832D02*
X014766Y013832D01*
X014736Y013990D02*
X014643Y013990D01*
X014603Y014149D02*
X014523Y014149D01*
X014523Y014307D02*
X014603Y014307D01*
X014603Y014466D02*
X014523Y014466D01*
X014670Y014624D02*
X014723Y014624D01*
X014829Y014783D02*
X015110Y014783D01*
X015474Y014553D02*
X015650Y014729D01*
X015752Y014831D01*
X016202Y014831D01*
X016296Y014925D01*
X016296Y015453D01*
X016202Y015547D01*
X016148Y015547D01*
X016148Y016477D01*
X016150Y016479D01*
X016369Y016479D01*
X016330Y016385D01*
X016330Y016243D01*
X016384Y016111D01*
X016478Y016018D01*
X016478Y015852D01*
X016601Y015729D01*
X016771Y015729D01*
X016743Y015673D01*
X016720Y015601D01*
X016708Y015527D01*
X016708Y015209D01*
X017168Y015209D01*
X017168Y015169D01*
X016708Y015169D01*
X016708Y014851D01*
X016720Y014777D01*
X016743Y014705D01*
X016777Y014637D01*
X016822Y014576D01*
X016874Y014524D01*
X015503Y014524D01*
X015474Y014553D01*
X015545Y014624D02*
X016787Y014624D01*
X016719Y014783D02*
X015704Y014783D01*
X016296Y014941D02*
X016708Y014941D01*
X016708Y015100D02*
X016296Y015100D01*
X016296Y015259D02*
X016708Y015259D01*
X016708Y015417D02*
X016296Y015417D01*
X016148Y015576D02*
X016716Y015576D01*
X016596Y015734D02*
X016148Y015734D01*
X016148Y015893D02*
X016478Y015893D01*
X016444Y016051D02*
X016148Y016051D01*
X016148Y016210D02*
X016343Y016210D01*
X016330Y016368D02*
X016148Y016368D01*
X015728Y016368D02*
X001132Y016368D01*
X001116Y016210D02*
X015728Y016210D01*
X015728Y016051D02*
X001111Y016051D01*
X001111Y015893D02*
X007719Y015893D01*
X007561Y015734D02*
X001111Y015734D01*
X001111Y015576D02*
X007402Y015576D01*
X007353Y015417D02*
X001111Y015417D01*
X001111Y015259D02*
X007353Y015259D01*
X007353Y015100D02*
X001111Y015100D01*
X001111Y014941D02*
X007353Y014941D01*
X007353Y014783D02*
X001111Y014783D01*
X001120Y014624D02*
X007371Y014624D01*
X007529Y014466D02*
X001136Y014466D01*
X001152Y014307D02*
X007561Y014307D01*
X007435Y014149D02*
X001168Y014149D01*
X001184Y013990D02*
X007393Y013990D01*
X007393Y013832D02*
X001199Y013832D01*
X001215Y013673D02*
X007393Y013673D01*
X007393Y013515D02*
X001231Y013515D01*
X001247Y013356D02*
X007393Y013356D01*
X007393Y013197D02*
X001272Y013197D01*
X001304Y013039D02*
X007313Y013039D01*
X007227Y012880D02*
X001336Y012880D01*
X001368Y012722D02*
X007227Y012722D01*
X007227Y012563D02*
X001400Y012563D01*
X001432Y012405D02*
X007228Y012405D01*
X007146Y012246D02*
X001464Y012246D01*
X001496Y012088D02*
X007061Y012088D01*
X007061Y011929D02*
X001528Y011929D01*
X001570Y011771D02*
X007061Y011771D01*
X007085Y011612D02*
X001619Y011612D01*
X001668Y011454D02*
X007061Y011454D01*
X007061Y011295D02*
X001717Y011295D01*
X001766Y011136D02*
X007048Y011136D01*
X006933Y010978D02*
X001815Y010978D01*
X001864Y010819D02*
X006857Y010819D01*
X006825Y010661D02*
X001913Y010661D01*
X001962Y010502D02*
X006825Y010502D01*
X006825Y010344D02*
X002027Y010344D01*
X002094Y010185D02*
X006933Y010185D01*
X006933Y010027D02*
X002161Y010027D01*
X002228Y009868D02*
X006905Y009868D01*
X006825Y009710D02*
X002294Y009710D01*
X002361Y009551D02*
X006825Y009551D01*
X006825Y009392D02*
X002428Y009392D01*
X002495Y009234D02*
X006933Y009234D01*
X006933Y009075D02*
X002572Y009075D01*
X002659Y008917D02*
X006933Y008917D01*
X006825Y008758D02*
X002745Y008758D01*
X002831Y008600D02*
X006825Y008600D01*
X006825Y008441D02*
X002918Y008441D01*
X003004Y008283D02*
X006883Y008283D01*
X007402Y008283D02*
X007473Y008283D01*
X007993Y008283D02*
X009023Y008283D01*
X008969Y008441D02*
X008051Y008441D01*
X009775Y008124D02*
X003090Y008124D01*
X003177Y007966D02*
X009992Y007966D01*
X009992Y007807D02*
X003275Y007807D01*
X003383Y007648D02*
X009992Y007648D01*
X009992Y007490D02*
X003491Y007490D01*
X003599Y007331D02*
X009992Y007331D01*
X010433Y006856D02*
X003923Y006856D01*
X003815Y007014D02*
X010591Y007014D01*
X010875Y007173D02*
X003707Y007173D01*
X004032Y006697D02*
X010274Y006697D01*
X009971Y006539D02*
X004165Y006539D01*
X004298Y006380D02*
X009754Y006380D01*
X009705Y006222D02*
X004431Y006222D01*
X004564Y006063D02*
X009727Y006063D01*
X009383Y005587D02*
X010539Y005587D01*
X010542Y005746D02*
X010698Y005746D01*
X010700Y005904D02*
X010856Y005904D01*
X010859Y006063D02*
X011015Y006063D01*
X011017Y006222D02*
X011173Y006222D01*
X011176Y006380D02*
X011332Y006380D01*
X011334Y006539D02*
X011490Y006539D01*
X011493Y006697D02*
X011649Y006697D01*
X012200Y005904D02*
X012757Y005904D01*
X012757Y006063D02*
X012359Y006063D01*
X012517Y006222D02*
X012757Y006222D01*
X012757Y006380D02*
X012676Y006380D01*
X012698Y005746D02*
X012042Y005746D01*
X011633Y005587D02*
X012539Y005587D01*
X012381Y005429D02*
X011475Y005429D01*
X011316Y005270D02*
X012222Y005270D01*
X012064Y005112D02*
X011157Y005112D01*
X010999Y004953D02*
X011905Y004953D01*
X011853Y004795D02*
X011725Y004795D01*
X011400Y004795D02*
X010840Y004795D01*
X010941Y004636D02*
X011184Y004636D01*
X011112Y004478D02*
X011014Y004478D01*
X011023Y004319D02*
X011103Y004319D01*
X011103Y004161D02*
X011023Y004161D01*
X011023Y004002D02*
X011103Y004002D01*
X011103Y003843D02*
X011023Y003843D01*
X011023Y003685D02*
X011103Y003685D01*
X011163Y003526D02*
X010962Y003526D01*
X010808Y003368D02*
X011317Y003368D01*
X011808Y003368D02*
X012317Y003368D01*
X012163Y003526D02*
X011962Y003526D01*
X012023Y003685D02*
X012103Y003685D01*
X012103Y003843D02*
X012023Y003843D01*
X012023Y004002D02*
X012103Y004002D01*
X012103Y004161D02*
X012023Y004161D01*
X013023Y004161D02*
X013103Y004161D01*
X013103Y004319D02*
X013023Y004319D01*
X013023Y004478D02*
X013112Y004478D01*
X013182Y004636D02*
X013184Y004636D01*
X013340Y004795D02*
X013400Y004795D01*
X013374Y004953D02*
X013761Y004953D01*
X013761Y004795D02*
X013725Y004795D01*
X013761Y005112D02*
X013374Y005112D01*
X013374Y005270D02*
X013761Y005270D01*
X013761Y005429D02*
X013374Y005429D01*
X013374Y005587D02*
X013761Y005587D01*
X013761Y005746D02*
X013374Y005746D01*
X013374Y005904D02*
X013761Y005904D01*
X013761Y006063D02*
X013374Y006063D01*
X013374Y006222D02*
X013761Y006222D01*
X013761Y006380D02*
X013374Y006380D01*
X013374Y006539D02*
X013761Y006539D01*
X013761Y006697D02*
X013374Y006697D01*
X013374Y006856D02*
X013761Y006856D01*
X013761Y007014D02*
X013374Y007014D01*
X013374Y007173D02*
X013761Y007173D01*
X013761Y007331D02*
X013383Y007331D01*
X013383Y007490D02*
X013761Y007490D01*
X013761Y007648D02*
X013383Y007648D01*
X013383Y007807D02*
X013761Y007807D01*
X013761Y007966D02*
X013383Y007966D01*
X013422Y008283D02*
X010401Y008283D01*
X010376Y008441D02*
X013264Y008441D01*
X013105Y008600D02*
X010462Y008600D01*
X010550Y008758D02*
X013103Y008758D01*
X013103Y008917D02*
X010638Y008917D01*
X010726Y009075D02*
X012920Y009075D01*
X012833Y009234D02*
X010814Y009234D01*
X010902Y009392D02*
X012833Y009392D01*
X012918Y009551D02*
X010898Y009551D01*
X010898Y009710D02*
X013536Y009710D01*
X013536Y009868D02*
X010898Y009868D01*
X010898Y010027D02*
X013536Y010027D01*
X013536Y010185D02*
X010898Y010185D01*
X010898Y010344D02*
X013536Y010344D01*
X013536Y010502D02*
X010898Y010502D01*
X010898Y010661D02*
X013536Y010661D01*
X013536Y010819D02*
X013422Y010819D01*
X013518Y010978D02*
X013536Y010978D01*
X013524Y011136D02*
X013536Y011136D01*
X013536Y011295D02*
X013435Y011295D01*
X013452Y011454D02*
X013536Y011454D01*
X013473Y011519D02*
X013473Y011519D01*
X013524Y011612D02*
X013607Y011612D01*
X013612Y011771D02*
X015680Y011771D01*
X015705Y011929D02*
X013700Y011929D01*
X013788Y012088D02*
X015715Y012088D01*
X015794Y012246D02*
X013876Y012246D01*
X013964Y012405D02*
X015873Y012405D01*
X015953Y012563D02*
X014053Y012563D01*
X014141Y012722D02*
X016032Y012722D01*
X016053Y012880D02*
X014229Y012880D01*
X014317Y013039D02*
X016108Y013039D01*
X016246Y013197D02*
X014405Y013197D01*
X014570Y013356D02*
X016369Y013356D01*
X016400Y013346D02*
X016475Y013334D01*
X016793Y013334D01*
X016793Y013794D01*
X016033Y013794D01*
X016033Y013776D01*
X016045Y013702D01*
X016068Y013630D01*
X016102Y013562D01*
X016147Y013501D01*
X016200Y013448D01*
X016261Y013404D01*
X016329Y013369D01*
X016400Y013346D01*
X016137Y013515D02*
X014753Y013515D01*
X014796Y013673D02*
X016054Y013673D01*
X016065Y013990D02*
X015389Y013990D01*
X016793Y013673D02*
X016833Y013673D01*
X016833Y013515D02*
X016793Y013515D01*
X016793Y013356D02*
X016833Y013356D01*
X017560Y013990D02*
X017590Y013990D01*
X017866Y014307D02*
X019483Y014307D01*
X019361Y014463D02*
X020823Y012605D01*
X020552Y012390D01*
X020153Y012197D01*
X019722Y012099D01*
X019583Y012091D01*
X018148Y013526D01*
X018148Y014026D01*
X018025Y014149D01*
X017650Y014524D01*
X017502Y014524D01*
X017554Y014576D01*
X017598Y014637D01*
X017633Y014705D01*
X017656Y014777D01*
X017668Y014851D01*
X017668Y015169D01*
X017208Y015169D01*
X017208Y015209D01*
X017668Y015209D01*
X017668Y015527D01*
X017656Y015601D01*
X017633Y015673D01*
X017604Y015729D01*
X017726Y015729D01*
X017771Y015684D01*
X017728Y015581D01*
X017728Y014798D01*
X017798Y014628D01*
X017927Y014499D01*
X018096Y014429D01*
X018279Y014429D01*
X018448Y014499D01*
X018578Y014628D01*
X018648Y014798D01*
X018648Y015368D01*
X018728Y015267D01*
X018728Y014798D01*
X018798Y014628D01*
X018927Y014499D01*
X019096Y014429D01*
X019279Y014429D01*
X019361Y014463D01*
X019007Y014466D02*
X018368Y014466D01*
X018574Y014624D02*
X018802Y014624D01*
X018734Y014783D02*
X018642Y014783D01*
X018648Y014941D02*
X018728Y014941D01*
X018728Y015100D02*
X018648Y015100D01*
X018648Y015259D02*
X018728Y015259D01*
X018007Y014466D02*
X017708Y014466D01*
X017802Y014624D02*
X017589Y014624D01*
X017657Y014783D02*
X017734Y014783D01*
X017728Y014941D02*
X017668Y014941D01*
X017668Y015100D02*
X017728Y015100D01*
X017728Y015259D02*
X017668Y015259D01*
X017668Y015417D02*
X017728Y015417D01*
X017728Y015576D02*
X017660Y015576D01*
X018025Y014149D02*
X019608Y014149D01*
X019733Y013990D02*
X018148Y013990D01*
X018148Y013832D02*
X019857Y013832D01*
X019982Y013673D02*
X018148Y013673D01*
X018159Y013515D02*
X020107Y013515D01*
X020232Y013356D02*
X018318Y013356D01*
X018476Y013197D02*
X020357Y013197D01*
X020481Y013039D02*
X018635Y013039D01*
X018793Y012880D02*
X020606Y012880D01*
X020731Y012722D02*
X018952Y012722D01*
X019110Y012563D02*
X020770Y012563D01*
X020571Y012405D02*
X019269Y012405D01*
X019428Y012246D02*
X020255Y012246D01*
X020593Y011929D02*
X021355Y011929D01*
X021230Y012088D02*
X020867Y012088D01*
X020784Y012021D02*
X020784Y012021D01*
X021066Y012246D02*
X021106Y012246D01*
X020570Y010819D02*
X019813Y010819D01*
X019907Y010978D02*
X019941Y010978D01*
X019878Y009123D02*
X019878Y009053D01*
X019890Y009007D01*
X019898Y008994D01*
X019898Y008868D01*
X019898Y008671D01*
X019898Y008479D01*
X019760Y008479D01*
X019580Y008479D01*
X019566Y008487D01*
X019521Y008499D01*
X019451Y008499D01*
X019451Y008651D01*
X019419Y008683D01*
X019419Y008920D01*
X019456Y008920D01*
X019456Y008562D01*
X019658Y008562D01*
X019704Y008574D01*
X019745Y008598D01*
X019779Y008632D01*
X019802Y008673D01*
X019815Y008718D01*
X019815Y008921D01*
X019456Y008921D01*
X019456Y008957D01*
X019815Y008957D01*
X019815Y009123D01*
X019878Y009123D01*
X019878Y009075D02*
X019815Y009075D01*
X019815Y008917D02*
X019898Y008917D01*
X019898Y008758D02*
X019815Y008758D01*
X019747Y008600D02*
X019898Y008600D01*
X019456Y008600D02*
X019451Y008600D01*
X019456Y008758D02*
X019419Y008758D01*
X019419Y008917D02*
X019456Y008917D01*
X019456Y008958D02*
X019456Y009123D01*
X019419Y009123D01*
X019419Y008958D01*
X019456Y008958D01*
X019456Y009075D02*
X019419Y009075D01*
X020051Y008124D02*
X020206Y008124D01*
X020364Y007966D02*
X020041Y007966D01*
X019466Y006856D02*
X019409Y006856D01*
X018843Y006697D02*
X020033Y006697D01*
X020191Y006539D02*
X018684Y006539D01*
X018526Y006380D02*
X020350Y006380D01*
X020508Y006222D02*
X018367Y006222D01*
X018698Y006063D02*
X020178Y006063D01*
X020178Y005904D02*
X018698Y005904D01*
X018698Y005746D02*
X020178Y005746D01*
X020178Y005587D02*
X018698Y005587D01*
X018698Y005429D02*
X020178Y005429D01*
X020180Y005270D02*
X018695Y005270D01*
X020627Y006697D02*
X027071Y006697D01*
X026951Y006539D02*
X020785Y006539D01*
X020944Y006380D02*
X026831Y006380D01*
X026711Y006222D02*
X021102Y006222D01*
X022498Y006063D02*
X026578Y006063D01*
X026431Y005904D02*
X022498Y005904D01*
X022498Y005746D02*
X026284Y005746D01*
X026137Y005587D02*
X022498Y005587D01*
X022498Y005429D02*
X025990Y005429D01*
X025842Y005270D02*
X022495Y005270D01*
X020978Y003843D02*
X020922Y003843D01*
X024419Y008441D02*
X024456Y008441D01*
X024456Y008600D02*
X024419Y008600D01*
X024109Y009710D02*
X023892Y009710D01*
X024803Y009710D02*
X025143Y009710D01*
X017361Y017003D02*
X001195Y017003D01*
X001179Y016844D02*
X015921Y016844D01*
X015762Y016685D02*
X001163Y016685D01*
X001147Y016527D02*
X015728Y016527D01*
X015728Y015893D02*
X015531Y015893D01*
X015690Y015734D02*
X015728Y015734D01*
X011702Y015604D02*
X011603Y015505D01*
X011603Y015151D01*
X011476Y015024D01*
X011451Y015024D01*
X011543Y015115D01*
X011543Y015294D01*
X011083Y015294D01*
X011083Y015334D01*
X011543Y015334D01*
X011543Y015513D01*
X011451Y015604D01*
X011702Y015604D01*
X011674Y015576D02*
X011480Y015576D01*
X011543Y015417D02*
X011603Y015417D01*
X011603Y015259D02*
X011543Y015259D01*
X011527Y015100D02*
X011552Y015100D01*
X011043Y015294D02*
X010583Y015294D01*
X010583Y015115D01*
X010674Y015024D01*
X010601Y015024D01*
X010478Y014901D01*
X010353Y014776D01*
X010353Y014674D01*
X010253Y014774D01*
X009872Y014774D01*
X009773Y014674D01*
X009773Y014727D01*
X009900Y014854D01*
X010253Y014854D01*
X010523Y015124D01*
X010523Y015505D01*
X010423Y015604D01*
X010674Y015604D01*
X010583Y015513D01*
X010583Y015334D01*
X011043Y015334D01*
X011043Y015294D01*
X010583Y015259D02*
X010523Y015259D01*
X010523Y015417D02*
X010583Y015417D01*
X010646Y015576D02*
X010452Y015576D01*
X010499Y015100D02*
X010598Y015100D01*
X010518Y014941D02*
X010341Y014941D01*
X010360Y014783D02*
X009829Y014783D01*
X009365Y013965D02*
X009476Y013854D01*
X009976Y013354D01*
X010150Y013354D01*
X010351Y013354D01*
X011047Y012658D01*
X010873Y012658D01*
X010747Y012658D01*
X010734Y012666D01*
X010688Y012678D01*
X010605Y012678D01*
X010522Y012678D01*
X010507Y012674D01*
X010491Y012678D01*
X010408Y012678D01*
X010325Y012678D01*
X010280Y012666D01*
X010266Y012658D01*
X010086Y012658D01*
X009992Y012564D01*
X009992Y012300D01*
X009471Y011779D01*
X009471Y011779D01*
X009373Y011681D01*
X009364Y011674D01*
X009363Y011672D01*
X009348Y011656D01*
X009326Y011634D01*
X009062Y011634D01*
X009053Y011625D01*
X008964Y011625D01*
X008254Y012335D01*
X008254Y012670D01*
X008291Y012670D01*
X008291Y012312D01*
X008513Y012312D01*
X008558Y012324D01*
X008599Y012348D01*
X008633Y012382D01*
X008657Y012423D01*
X008669Y012468D01*
X008669Y012671D01*
X008291Y012671D01*
X008291Y012707D01*
X008669Y012707D01*
X008669Y012910D01*
X008657Y012955D01*
X008633Y012996D01*
X008599Y013030D01*
X008558Y013054D01*
X008513Y013066D01*
X008291Y013066D01*
X008291Y012708D01*
X008254Y012708D01*
X008254Y013066D01*
X008032Y013066D01*
X007986Y013054D01*
X007945Y013030D01*
X007924Y013008D01*
X007886Y013046D01*
X007813Y013046D01*
X007813Y013933D01*
X007878Y013998D01*
X008221Y013998D01*
X008314Y014091D01*
X008314Y014604D01*
X008702Y014604D01*
X008603Y014505D01*
X008603Y014124D01*
X008872Y013854D01*
X009253Y013854D01*
X009365Y013965D01*
X009498Y013832D02*
X007813Y013832D01*
X007813Y013673D02*
X009657Y013673D01*
X009815Y013515D02*
X007813Y013515D01*
X007813Y013356D02*
X009974Y013356D01*
X010507Y013197D02*
X007813Y013197D01*
X007893Y013039D02*
X007961Y013039D01*
X008254Y013039D02*
X008291Y013039D01*
X008291Y012880D02*
X008254Y012880D01*
X008254Y012722D02*
X008291Y012722D01*
X008291Y012563D02*
X008254Y012563D01*
X008254Y012405D02*
X008291Y012405D01*
X008343Y012246D02*
X009938Y012246D01*
X009992Y012405D02*
X008646Y012405D01*
X008669Y012563D02*
X009992Y012563D01*
X010408Y012615D02*
X010408Y012678D01*
X010408Y012615D01*
X010408Y012615D01*
X010605Y012615D02*
X010605Y012678D01*
X010605Y012615D01*
X010605Y012615D01*
X010824Y012880D02*
X008669Y012880D01*
X008669Y012722D02*
X010983Y012722D01*
X010666Y013039D02*
X008584Y013039D01*
X008501Y012088D02*
X009780Y012088D01*
X009621Y011929D02*
X008660Y011929D01*
X008819Y011771D02*
X009463Y011771D01*
X009348Y011656D02*
X009348Y011656D01*
X010430Y012222D02*
X010583Y012222D01*
X010583Y012223D01*
X010430Y012223D01*
X010430Y012222D01*
X011026Y010978D02*
X011048Y010978D01*
X011004Y010819D02*
X011426Y010819D01*
X011949Y010819D02*
X012954Y010819D01*
X012857Y010978D02*
X012040Y010978D01*
X012045Y011136D02*
X012359Y011136D01*
X012767Y011136D02*
X012851Y011136D01*
X012891Y011295D02*
X012940Y011295D01*
X012921Y011454D02*
X012965Y011454D01*
X013018Y011612D02*
X012879Y011612D01*
X012698Y011771D02*
X013132Y011771D01*
X014336Y011612D02*
X015656Y011612D01*
X015631Y011454D02*
X014407Y011454D01*
X014407Y011295D02*
X015607Y011295D01*
X015583Y011136D02*
X014407Y011136D01*
X014407Y010978D02*
X015558Y010978D01*
X015534Y010819D02*
X014407Y010819D01*
X014407Y010661D02*
X015509Y010661D01*
X015485Y010502D02*
X014407Y010502D01*
X014407Y010344D02*
X015411Y010344D01*
X015892Y008600D02*
X016104Y008600D01*
X016235Y008441D02*
X015794Y008441D01*
X015273Y007807D02*
X014773Y007807D01*
X014773Y007966D02*
X015114Y007966D01*
X014956Y008124D02*
X014773Y008124D01*
X014773Y008283D02*
X014797Y008283D01*
X014773Y007648D02*
X015431Y007648D01*
X015478Y007490D02*
X014773Y007490D01*
X014773Y007331D02*
X015478Y007331D01*
X015478Y007173D02*
X014773Y007173D01*
X014773Y007014D02*
X015478Y007014D01*
X015478Y006856D02*
X014773Y006856D01*
X014773Y006697D02*
X015478Y006697D01*
X015478Y006539D02*
X014773Y006539D01*
X014773Y006380D02*
X015478Y006380D01*
X015478Y006222D02*
X014773Y006222D01*
X014773Y006063D02*
X015478Y006063D01*
X015478Y005904D02*
X014773Y005904D01*
X014773Y005746D02*
X015478Y005746D01*
X015478Y005587D02*
X014773Y005587D01*
X014773Y005429D02*
X015478Y005429D01*
X015478Y005270D02*
X014773Y005270D01*
X014773Y005112D02*
X015478Y005112D01*
X015478Y004953D02*
X014773Y004953D01*
X014773Y004795D02*
X015400Y004795D01*
X015184Y004636D02*
X014941Y004636D01*
X015014Y004478D02*
X015112Y004478D01*
X015103Y004319D02*
X015023Y004319D01*
X015023Y004161D02*
X015103Y004161D01*
X015103Y004002D02*
X015023Y004002D01*
X015023Y003843D02*
X015103Y003843D01*
X015103Y003685D02*
X015023Y003685D01*
X014962Y003526D02*
X015163Y003526D01*
X015317Y003368D02*
X014808Y003368D01*
X014317Y003368D02*
X013808Y003368D01*
X013962Y003526D02*
X014163Y003526D01*
X014103Y003685D02*
X014023Y003685D01*
X014023Y003843D02*
X014103Y003843D01*
X014103Y004002D02*
X014023Y004002D01*
X014023Y004161D02*
X014103Y004161D01*
X013103Y004002D02*
X013023Y004002D01*
X013023Y003843D02*
X013103Y003843D01*
X013103Y003685D02*
X013023Y003685D01*
X012962Y003526D02*
X013163Y003526D01*
X013317Y003368D02*
X012808Y003368D01*
X010317Y003368D02*
X009808Y003368D01*
X009962Y003526D02*
X010163Y003526D01*
X010103Y003685D02*
X010023Y003685D01*
X010023Y003843D02*
X010103Y003843D01*
X010103Y004002D02*
X010023Y004002D01*
X010023Y004161D02*
X010103Y004161D01*
X010103Y004319D02*
X010023Y004319D01*
X010014Y004478D02*
X010112Y004478D01*
X010184Y004636D02*
X009941Y004636D01*
X009840Y004795D02*
X010353Y004795D01*
X010405Y004953D02*
X009999Y004953D01*
X009722Y005270D02*
X009066Y005270D01*
X008907Y005112D02*
X009564Y005112D01*
X009405Y004953D02*
X008773Y004953D01*
X008773Y004795D02*
X009353Y004795D01*
X009184Y004636D02*
X008941Y004636D01*
X009014Y004478D02*
X009112Y004478D01*
X009103Y004319D02*
X009023Y004319D01*
X009023Y004161D02*
X009103Y004161D01*
X009103Y004002D02*
X009023Y004002D01*
X009023Y003843D02*
X009103Y003843D01*
X009103Y003685D02*
X009023Y003685D01*
X008962Y003526D02*
X009163Y003526D01*
X009317Y003368D02*
X008808Y003368D01*
X009225Y005429D02*
X009881Y005429D01*
X009106Y005904D02*
X004697Y005904D01*
X004830Y005746D02*
X008948Y005746D01*
X008789Y005587D02*
X004965Y005587D01*
X010350Y008124D02*
X013761Y008124D01*
X013536Y009551D02*
X013457Y009551D01*
X008736Y013990D02*
X007871Y013990D01*
X008314Y014149D02*
X008603Y014149D01*
X008603Y014307D02*
X008314Y014307D01*
X008314Y014466D02*
X008603Y014466D01*
D26*
X008313Y013439D03*
X007063Y015939D03*
X005913Y014964D03*
X002421Y015789D03*
X009813Y016814D03*
X012188Y016939D03*
X014688Y016814D03*
X015063Y011439D03*
X013188Y011064D03*
X012938Y008814D03*
X011563Y008564D03*
X010188Y009689D03*
X010688Y010939D03*
X010063Y008314D03*
X008813Y007189D03*
X007438Y007189D03*
X005313Y007189D03*
X011688Y005314D03*
X013563Y005439D03*
X014938Y003064D03*
X017063Y004939D03*
X018063Y004939D03*
X017563Y006439D03*
X018313Y007189D03*
X018063Y008189D03*
X019438Y008939D03*
X018688Y010064D03*
X018938Y011439D03*
X018313Y011439D03*
X020813Y011064D03*
X021688Y010064D03*
X022563Y010189D03*
X022563Y008814D03*
X021938Y007439D03*
X021188Y007689D03*
X020688Y007064D03*
X020313Y007689D03*
X019438Y006564D03*
X019438Y005689D03*
X019438Y004939D03*
X020813Y004939D03*
X021688Y004939D03*
X022313Y004189D03*
X020938Y003439D03*
X021313Y006439D03*
X022813Y006439D03*
X023938Y007689D03*
X024438Y007064D03*
X025188Y007814D03*
X025563Y009189D03*
X017938Y003439D03*
X015563Y008689D03*
D27*
X015938Y015189D03*
X021688Y016939D03*
D28*
X019686Y019645D03*
X016688Y016314D03*
X014438Y013689D03*
X012563Y011439D03*
X011688Y011064D03*
X010688Y011439D03*
X013188Y009314D03*
X010063Y006189D03*
X011313Y017564D03*
X011353Y018146D03*
X028985Y016312D03*
M02*
