%
M48
M72
T01C0.0197
T02C0.0236
T03C0.0400
T04C0.2000
%
T01
X5313Y7189
X7438Y7189
X8813Y7189
X10063Y8314
X10188Y9689
X10688Y10939
X13188Y11064
X15063Y11439
X15563Y8689
X18063Y8189
X18313Y7189
X17563Y6439
X18063Y4939
X17063Y4939
X17938Y3439
X19438Y4939
X19438Y5689
X19438Y6564
X20688Y7064
X20313Y7689
X21188Y7689
X21938Y7439
X21313Y6439
X21688Y4939
X20813Y4939
X20938Y3439
X22313Y4189
X22813Y6439
X23938Y7689
X24438Y7064
X25188Y7814
X25563Y9189
X22563Y8814
X21688Y10064
X22563Y10189
X20813Y11064
X18938Y11439
X18313Y11439
X18688Y10064
X19438Y8939
X13563Y5439
X11688Y5314
X11563Y8564
X12938Y8814
X8313Y13439
X7063Y15939
X5913Y14964
X2421Y15789
X9813Y16814
X12188Y16939
X14688Y16814
X14938Y3064
T02
X10063Y6189
X13188Y9314
X11688Y11064
X12563Y11439
X10688Y11439
X14438Y13689
X15938Y15189
X16688Y16314
X19686Y19645
X21688Y16939
X28985Y16312
X11313Y17564
X11353Y18146
T03
X11063Y15314
X11063Y14314
X10063Y14314
X10063Y15314
X9063Y15314
X9063Y14314
X12063Y14314
X13063Y14314
X14063Y14314
X14063Y15314
X13063Y15314
X12063Y15314
X15063Y15314
X15063Y14314
X16813Y13814
X16813Y12814
X16813Y11814
X16813Y10814
X16813Y9814
X16813Y8814
X16813Y7814
X15563Y4064
X14563Y4064
X13563Y4064
X12563Y4064
X11563Y4064
X10563Y4064
X9563Y4064
X8563Y4064
X17188Y15189
X18188Y15189
X19188Y15189
X20188Y15189
X21188Y15189
X22188Y15189
T04
X15563Y28939
M30
