G75*
G70*
%OFA0B0*%
%FSLAX24Y24*%
%IPPOS*%
%LPD*%
%AMOC8*
5,1,8,0,0,1.08239X$1,22.5*
%
%ADD10C,0.0100*%
%ADD11C,0.0000*%
%ADD12R,0.0167X0.0033*%
%ADD13R,0.0133X0.0033*%
%ADD14R,0.0233X0.0033*%
%ADD15R,0.0167X0.0033*%
%ADD16R,0.0400X0.0033*%
%ADD17R,0.0167X0.0033*%
%ADD18R,0.0133X0.0033*%
%ADD19R,0.0367X0.0033*%
%ADD20R,0.0167X0.0033*%
%ADD21R,0.0433X0.0033*%
%ADD22R,0.0400X0.0033*%
%ADD23R,0.0200X0.0033*%
%ADD24R,0.0467X0.0033*%
%ADD25R,0.0467X0.0033*%
%ADD26R,0.0200X0.0033*%
%ADD27R,0.0433X0.0033*%
%ADD28R,0.0233X0.0033*%
%ADD29R,0.0233X0.0033*%
%ADD30R,0.0233X0.0033*%
%ADD31R,0.0267X0.0033*%
%ADD32R,0.0267X0.0033*%
%ADD33R,0.0267X0.0033*%
%ADD34R,0.0133X0.0033*%
%ADD35R,0.0100X0.0033*%
%ADD36R,0.0133X0.0033*%
%ADD37R,0.0100X0.0033*%
%ADD38R,0.0267X0.0033*%
%ADD39R,0.0333X0.0033*%
%ADD40R,0.0433X0.0033*%
%ADD41R,0.0333X0.0033*%
%ADD42R,0.0367X0.0033*%
%ADD43R,0.0300X0.0033*%
%ADD44R,0.0467X0.0033*%
%ADD45R,0.0467X0.0033*%
%ADD46R,0.0333X0.0033*%
%ADD47R,0.0033X0.0033*%
%ADD48R,0.0067X0.0033*%
%ADD49R,0.0067X0.0033*%
%ADD50R,0.0033X0.0033*%
%ADD51R,0.0033X0.0033*%
%ADD52R,0.0067X0.0033*%
%ADD53R,0.0300X0.0033*%
%ADD54R,0.0433X0.0033*%
%ADD55R,0.0500X0.0033*%
%ADD56R,0.0500X0.0033*%
%ADD57R,0.0567X0.0033*%
%ADD58R,0.0600X0.0033*%
%ADD59R,0.0633X0.0033*%
%ADD60R,0.0667X0.0033*%
%ADD61R,0.0667X0.0033*%
%ADD62R,0.0700X0.0033*%
%ADD63R,0.0333X0.0033*%
%ADD64R,0.0733X0.0033*%
%ADD65R,0.0767X0.0033*%
%ADD66R,0.0800X0.0033*%
%ADD67R,0.0800X0.0033*%
%ADD68R,0.0533X0.0033*%
%ADD69R,0.0067X0.0033*%
%ADD70R,0.0533X0.0033*%
%ADD71R,0.0533X0.0033*%
%ADD72R,0.0533X0.0033*%
%ADD73R,0.0367X0.0033*%
%ADD74R,0.0367X0.0033*%
%ADD75R,0.0567X0.0033*%
%ADD76R,0.0633X0.0033*%
%ADD77R,0.0600X0.0033*%
%ADD78R,0.0567X0.0033*%
%ADD79R,0.0567X0.0033*%
%ADD80R,0.1133X0.0033*%
%ADD81R,0.1133X0.0033*%
%ADD82R,0.0633X0.0033*%
%ADD83R,0.0667X0.0033*%
%ADD84R,0.0633X0.0033*%
%ADD85R,0.0900X0.0033*%
%ADD86R,0.0967X0.0033*%
%ADD87R,0.1667X0.0033*%
%ADD88R,0.1100X0.0033*%
%ADD89R,0.1067X0.0033*%
%ADD90R,0.0967X0.0033*%
%ADD91R,0.0867X0.0033*%
%ADD92R,0.0733X0.0033*%
%ADD93R,0.1467X0.0033*%
%ADD94R,0.0767X0.0033*%
%ADD95R,0.1467X0.0033*%
%ADD96R,0.1433X0.0033*%
%ADD97R,0.0033X0.0033*%
%ADD98R,0.0667X0.0033*%
%ADD99R,0.0867X0.0033*%
%ADD100R,0.1333X0.0033*%
%ADD101R,0.1567X0.0033*%
%ADD102R,0.1767X0.0033*%
%ADD103R,0.1833X0.0033*%
%ADD104R,0.1900X0.0033*%
%ADD105R,0.1967X0.0033*%
%ADD106R,0.2000X0.0033*%
%ADD107R,0.2033X0.0033*%
%ADD108R,0.2100X0.0033*%
%ADD109R,0.2167X0.0033*%
%ADD110R,0.2233X0.0033*%
%ADD111R,0.2267X0.0033*%
%ADD112R,0.2333X0.0033*%
%ADD113R,0.2400X0.0033*%
%ADD114R,0.2467X0.0033*%
%ADD115R,0.2500X0.0033*%
%ADD116R,0.2567X0.0033*%
%ADD117R,0.2633X0.0033*%
%ADD118R,0.2700X0.0033*%
%ADD119R,0.3267X0.0033*%
%ADD120R,0.3133X0.0033*%
%ADD121R,0.3000X0.0033*%
%ADD122R,0.2867X0.0033*%
%ADD123R,0.2700X0.0033*%
%ADD124R,0.2567X0.0033*%
%ADD125R,0.2433X0.0033*%
%ADD126R,0.2300X0.0033*%
%ADD127R,0.2000X0.0033*%
%ADD128R,0.1833X0.0033*%
%ADD129R,0.1700X0.0033*%
%ADD130R,0.1433X0.0033*%
%ADD131R,0.1300X0.0033*%
%ADD132R,0.1000X0.0033*%
%ADD133R,0.0867X0.0033*%
%ADD134R,0.0833X0.0033*%
%ADD135R,0.1033X0.0033*%
%ADD136R,0.0700X0.0033*%
%ADD137R,0.1267X0.0033*%
%ADD138R,0.1333X0.0033*%
%ADD139R,0.1400X0.0033*%
%ADD140R,0.1400X0.0033*%
%ADD141R,0.0833X0.0033*%
%ADD142R,0.1067X0.0033*%
%ADD143R,0.1167X0.0033*%
%ADD144R,0.1267X0.0033*%
%ADD145R,0.0867X0.0033*%
%ADD146R,0.1333X0.0033*%
%ADD147R,0.0933X0.0033*%
%ADD148R,0.1200X0.0033*%
%ADD149R,0.1233X0.0033*%
%ADD150R,0.0967X0.0033*%
%ADD151R,0.1433X0.0033*%
%ADD152R,0.1633X0.0033*%
%ADD153R,0.1833X0.0033*%
%ADD154R,0.1967X0.0033*%
%ADD155R,0.2233X0.0033*%
%ADD156R,0.2367X0.0033*%
%ADD157R,0.0767X0.0033*%
%ADD158R,0.0833X0.0033*%
%ADD159R,0.0900X0.0033*%
%ADD160R,0.0933X0.0033*%
%ADD161R,0.0967X0.0033*%
%ADD162R,0.1033X0.0033*%
%ADD163R,0.1000X0.0033*%
%ADD164R,0.0767X0.0033*%
%ADD165R,0.0733X0.0033*%
%ADD166R,0.0733X0.0033*%
%ADD167R,0.0833X0.0033*%
%ADD168R,0.1867X0.0033*%
%ADD169R,0.1033X0.0033*%
%ADD170R,0.1867X0.0033*%
%ADD171R,0.0933X0.0033*%
%ADD172R,0.1867X0.0033*%
%ADD173R,0.1867X0.0033*%
%ADD174R,0.1533X0.0033*%
%ADD175R,0.1500X0.0033*%
%ADD176R,0.1367X0.0033*%
%ADD177R,0.1267X0.0033*%
%ADD178R,0.1233X0.0033*%
%ADD179R,0.1500X0.0033*%
%ADD180R,0.1600X0.0033*%
%ADD181R,0.1267X0.0033*%
%ADD182R,0.1100X0.0033*%
%ADD183R,0.1233X0.0033*%
%ADD184R,0.1167X0.0033*%
%ADD185R,0.0933X0.0033*%
%ADD186R,0.1133X0.0033*%
%ADD187R,0.1633X0.0033*%
%ADD188R,0.1367X0.0033*%
%ADD189R,0.1367X0.0033*%
%ADD190R,0.1433X0.0033*%
%ADD191R,0.1533X0.0033*%
%ADD192R,0.1567X0.0033*%
%ADD193R,0.1600X0.0033*%
%ADD194R,0.1700X0.0033*%
%ADD195R,0.1800X0.0033*%
%ADD196R,0.1933X0.0033*%
%ADD197R,0.3000X0.0033*%
%ADD198R,0.2933X0.0033*%
%ADD199R,0.2900X0.0033*%
%ADD200R,0.2833X0.0033*%
%ADD201R,0.2833X0.0033*%
%ADD202R,0.2800X0.0033*%
%ADD203R,0.1300X0.0033*%
%ADD204R,0.1167X0.0033*%
%ADD205R,0.1133X0.0033*%
%ADD206R,0.1067X0.0033*%
%ADD207R,0.1200X0.0033*%
%ADD208R,0.2267X0.0033*%
%ADD209R,0.2167X0.0033*%
%ADD210R,0.2033X0.0033*%
%ADD211R,0.1833X0.0033*%
%ADD212R,0.1033X0.0033*%
%ADD213C,0.0080*%
%ADD214C,0.0040*%
%ADD215C,0.0348*%
%ADD216C,0.0050*%
D10*
X000563Y015439D02*
X000581Y016175D01*
X000635Y016909D01*
X000725Y017640D01*
X000851Y018365D01*
X001013Y019084D01*
X001209Y019793D01*
X001440Y020492D01*
X001705Y021179D01*
X002003Y021852D01*
X002334Y022510D01*
X002697Y023151D01*
X003091Y023773D01*
X003515Y024374D01*
X003968Y024955D01*
X004449Y025512D01*
X004956Y026046D01*
X005490Y026553D01*
X006047Y027034D01*
X006628Y027487D01*
X007229Y027911D01*
X007851Y028305D01*
X008492Y028668D01*
X009150Y028999D01*
X009823Y029297D01*
X010510Y029562D01*
X011209Y029793D01*
X011918Y029989D01*
X012637Y030151D01*
X013362Y030277D01*
X014093Y030367D01*
X014827Y030421D01*
X015563Y030439D01*
X016299Y030421D01*
X017033Y030367D01*
X017764Y030277D01*
X018489Y030151D01*
X019208Y029989D01*
X019917Y029793D01*
X020616Y029562D01*
X021303Y029297D01*
X021976Y028999D01*
X022634Y028668D01*
X023275Y028305D01*
X023897Y027911D01*
X024498Y027487D01*
X025079Y027034D01*
X025636Y026553D01*
X026170Y026046D01*
X026677Y025512D01*
X027158Y024955D01*
X027611Y024374D01*
X028035Y023773D01*
X028429Y023151D01*
X028792Y022510D01*
X029123Y021852D01*
X029421Y021179D01*
X029686Y020492D01*
X029917Y019793D01*
X030113Y019084D01*
X030275Y018365D01*
X030401Y017640D01*
X030491Y016909D01*
X030545Y016175D01*
X030563Y015439D01*
X030545Y014703D01*
X030491Y013969D01*
X030401Y013238D01*
X030275Y012513D01*
X030113Y011794D01*
X029917Y011085D01*
X029686Y010386D01*
X029421Y009699D01*
X029123Y009026D01*
X028792Y008368D01*
X028429Y007727D01*
X028035Y007105D01*
X027611Y006504D01*
X027158Y005923D01*
X026677Y005366D01*
X026170Y004832D01*
X025636Y004325D01*
X025079Y003844D01*
X024498Y003391D01*
X023897Y002967D01*
X023275Y002573D01*
X022634Y002210D01*
X021976Y001879D01*
X021303Y001581D01*
X020616Y001316D01*
X019917Y001085D01*
X019208Y000889D01*
X018489Y000727D01*
X017764Y000601D01*
X017033Y000511D01*
X016299Y000457D01*
X015563Y000439D01*
X014827Y000457D01*
X014093Y000511D01*
X013362Y000601D01*
X012637Y000727D01*
X011918Y000889D01*
X011209Y001085D01*
X010510Y001316D01*
X009823Y001581D01*
X009150Y001879D01*
X008492Y002210D01*
X007851Y002573D01*
X007229Y002967D01*
X006628Y003391D01*
X006047Y003844D01*
X005490Y004325D01*
X004956Y004832D01*
X004449Y005366D01*
X003968Y005923D01*
X003515Y006504D01*
X003091Y007105D01*
X002697Y007727D01*
X002334Y008368D01*
X002003Y009026D01*
X001705Y009699D01*
X001440Y010386D01*
X001209Y011085D01*
X001013Y011794D01*
X000851Y012513D01*
X000725Y013238D01*
X000635Y013969D01*
X000581Y014703D01*
X000563Y015439D01*
D11*
X004063Y011089D02*
X004063Y010289D01*
X003663Y010689D02*
X004463Y010689D01*
X011288Y011689D02*
X012088Y011689D01*
X011688Y011289D02*
X011688Y012089D01*
X015688Y021164D02*
X015688Y021964D01*
X015288Y021564D02*
X016088Y021564D01*
X014563Y028939D02*
X014565Y029002D01*
X014571Y029064D01*
X014581Y029126D01*
X014594Y029188D01*
X014612Y029248D01*
X014633Y029307D01*
X014658Y029365D01*
X014687Y029421D01*
X014719Y029475D01*
X014754Y029527D01*
X014792Y029576D01*
X014834Y029624D01*
X014878Y029668D01*
X014926Y029710D01*
X014975Y029748D01*
X015027Y029783D01*
X015081Y029815D01*
X015137Y029844D01*
X015195Y029869D01*
X015254Y029890D01*
X015314Y029908D01*
X015376Y029921D01*
X015438Y029931D01*
X015500Y029937D01*
X015563Y029939D01*
X015626Y029937D01*
X015688Y029931D01*
X015750Y029921D01*
X015812Y029908D01*
X015872Y029890D01*
X015931Y029869D01*
X015989Y029844D01*
X016045Y029815D01*
X016099Y029783D01*
X016151Y029748D01*
X016200Y029710D01*
X016248Y029668D01*
X016292Y029624D01*
X016334Y029576D01*
X016372Y029527D01*
X016407Y029475D01*
X016439Y029421D01*
X016468Y029365D01*
X016493Y029307D01*
X016514Y029248D01*
X016532Y029188D01*
X016545Y029126D01*
X016555Y029064D01*
X016561Y029002D01*
X016563Y028939D01*
X016561Y028876D01*
X016555Y028814D01*
X016545Y028752D01*
X016532Y028690D01*
X016514Y028630D01*
X016493Y028571D01*
X016468Y028513D01*
X016439Y028457D01*
X016407Y028403D01*
X016372Y028351D01*
X016334Y028302D01*
X016292Y028254D01*
X016248Y028210D01*
X016200Y028168D01*
X016151Y028130D01*
X016099Y028095D01*
X016045Y028063D01*
X015989Y028034D01*
X015931Y028009D01*
X015872Y027988D01*
X015812Y027970D01*
X015750Y027957D01*
X015688Y027947D01*
X015626Y027941D01*
X015563Y027939D01*
X015500Y027941D01*
X015438Y027947D01*
X015376Y027957D01*
X015314Y027970D01*
X015254Y027988D01*
X015195Y028009D01*
X015137Y028034D01*
X015081Y028063D01*
X015027Y028095D01*
X014975Y028130D01*
X014926Y028168D01*
X014878Y028210D01*
X014834Y028254D01*
X014792Y028302D01*
X014754Y028351D01*
X014719Y028403D01*
X014687Y028457D01*
X014658Y028513D01*
X014633Y028571D01*
X014612Y028630D01*
X014594Y028690D01*
X014581Y028752D01*
X014571Y028814D01*
X014565Y028876D01*
X014563Y028939D01*
D12*
X008221Y025614D03*
X008121Y025514D03*
X007288Y025914D03*
X005188Y020114D03*
X005388Y019314D03*
X005321Y019114D03*
X005188Y018914D03*
X003721Y018914D03*
X003588Y019114D03*
X005588Y017314D03*
X005588Y008414D03*
X005288Y008114D03*
X004821Y007714D03*
X003621Y007714D03*
X012121Y002714D03*
X012121Y002614D03*
X012121Y002514D03*
X012121Y002414D03*
X012121Y002314D03*
X012421Y002214D03*
X012288Y002014D03*
X012288Y001914D03*
X012288Y001814D03*
X012288Y001714D03*
X012288Y001614D03*
X012288Y001514D03*
X012888Y001514D03*
X012888Y001614D03*
X012888Y001714D03*
X012888Y001814D03*
X012888Y001914D03*
X012888Y002014D03*
X012888Y002114D03*
X012888Y002214D03*
X012888Y002314D03*
X012888Y002414D03*
X012888Y002514D03*
X012888Y002614D03*
X014588Y002714D03*
X014621Y002614D03*
X014688Y002414D03*
X014721Y002314D03*
X014921Y002314D03*
X014921Y002414D03*
X014921Y002514D03*
X014921Y002614D03*
X014921Y002714D03*
X014921Y002014D03*
X014921Y001914D03*
X014921Y001814D03*
X014921Y001714D03*
X014921Y001614D03*
X014921Y001514D03*
X015188Y001514D03*
X015221Y001614D03*
X015221Y001714D03*
X015288Y002014D03*
X014721Y002014D03*
X014688Y001914D03*
X014621Y001714D03*
X014588Y001614D03*
X016488Y002214D03*
X016621Y002014D03*
X016621Y001914D03*
X016621Y001814D03*
X016621Y001714D03*
X016621Y001614D03*
X016621Y001514D03*
X017421Y001514D03*
X017821Y001514D03*
X017821Y001614D03*
X017621Y002214D03*
X017388Y002514D03*
X017388Y002614D03*
X017388Y002714D03*
X016788Y002714D03*
X016788Y002614D03*
X016788Y002514D03*
X016788Y002414D03*
X016788Y002314D03*
X018421Y002214D03*
X027021Y006514D03*
X026988Y007114D03*
X026921Y007814D03*
X026921Y007914D03*
X026921Y008014D03*
X026921Y008114D03*
X026888Y008214D03*
X026888Y008314D03*
X026888Y008414D03*
X026888Y008514D03*
X026888Y008614D03*
X026821Y009214D03*
X026821Y009314D03*
X026821Y009414D03*
X026821Y009514D03*
X026788Y009714D03*
X026788Y009814D03*
X026788Y009914D03*
X026721Y010814D03*
X025321Y011214D03*
X024588Y011714D03*
X024921Y016214D03*
X024821Y016414D03*
X024788Y016514D03*
X024688Y016714D03*
X024421Y017314D03*
X024288Y017614D03*
X024021Y018214D03*
X023921Y018414D03*
X023788Y018714D03*
X023521Y019314D03*
X023421Y019514D03*
X023388Y019614D03*
X023288Y019814D03*
X023021Y020414D03*
X022888Y020714D03*
X023821Y021314D03*
X024321Y020314D03*
X025421Y020014D03*
X025588Y020314D03*
X025721Y019514D03*
X025421Y019414D03*
X026721Y017814D03*
X027521Y018814D03*
X028121Y019514D03*
X027988Y019814D03*
X027721Y020414D03*
X027621Y020614D03*
X027588Y020714D03*
X027488Y020914D03*
X027221Y021514D03*
X027088Y021814D03*
X026988Y022014D03*
X026821Y022414D03*
X026721Y022614D03*
X026588Y022914D03*
X025821Y021914D03*
X025388Y021414D03*
X025088Y021314D03*
X026321Y021214D03*
X026388Y021314D03*
X028388Y018914D03*
X028488Y018714D03*
X028621Y018414D03*
X028888Y017814D03*
X029021Y017514D03*
X028988Y017114D03*
X028921Y017014D03*
X025588Y017114D03*
X025521Y017014D03*
X023088Y025514D03*
X022988Y025614D03*
X023921Y025914D03*
D13*
X024071Y026214D03*
X024238Y026614D03*
X024271Y026714D03*
X024071Y026714D03*
X023638Y026614D03*
X023571Y026514D03*
X023438Y026214D03*
X023538Y025814D03*
X023471Y025614D03*
X023171Y025614D03*
X023338Y025314D03*
X023038Y025114D03*
X022638Y025014D03*
X022571Y024914D03*
X022638Y025414D03*
X022671Y025514D03*
X025538Y021914D03*
X026671Y022714D03*
X026638Y022814D03*
X026771Y022514D03*
X027038Y021914D03*
X027138Y021714D03*
X027171Y021614D03*
X027271Y021414D03*
X027438Y021014D03*
X027538Y020814D03*
X027671Y020514D03*
X027938Y019914D03*
X028038Y019714D03*
X028071Y019614D03*
X028171Y019414D03*
X028438Y018814D03*
X028538Y018614D03*
X028571Y018514D03*
X028671Y018314D03*
X028838Y017914D03*
X028938Y017714D03*
X028971Y017614D03*
X029038Y017414D03*
X029038Y017314D03*
X029038Y017214D03*
X027338Y018514D03*
X027138Y019014D03*
X026938Y017314D03*
X024971Y016114D03*
X024871Y016314D03*
X024738Y016614D03*
X024638Y016814D03*
X024471Y017214D03*
X024371Y017414D03*
X024338Y017514D03*
X024238Y017714D03*
X023971Y018314D03*
X023871Y018514D03*
X023838Y018614D03*
X023738Y018814D03*
X023571Y019214D03*
X023471Y019414D03*
X023338Y019714D03*
X023071Y020314D03*
X022971Y020514D03*
X022938Y020614D03*
X022838Y020814D03*
X022671Y021214D03*
X022671Y021314D03*
X022671Y021414D03*
X024138Y021414D03*
X024171Y021314D03*
X024771Y019314D03*
X026638Y011814D03*
X026671Y011614D03*
X026671Y011514D03*
X026671Y011414D03*
X026671Y011314D03*
X026738Y010714D03*
X026738Y010614D03*
X026738Y010514D03*
X026738Y010414D03*
X026771Y010114D03*
X026771Y010014D03*
X026838Y009114D03*
X025238Y009214D03*
X024771Y010314D03*
X025138Y011114D03*
X027071Y006414D03*
X018438Y002614D03*
X018438Y002514D03*
X018438Y002414D03*
X018438Y002314D03*
X018438Y002014D03*
X018438Y001914D03*
X018438Y001814D03*
X018438Y001714D03*
X017838Y002114D03*
X017638Y002314D03*
X016771Y002214D03*
X016471Y002314D03*
X016471Y002414D03*
X016471Y002514D03*
X016471Y002614D03*
X016471Y002714D03*
X013638Y001814D03*
X013338Y001814D03*
X013338Y001714D03*
X013338Y001614D03*
X013338Y001514D03*
X013338Y001914D03*
X013338Y002014D03*
X013338Y002114D03*
X013338Y002214D03*
X013338Y002314D03*
X013338Y002414D03*
X013338Y002514D03*
X013338Y002614D03*
X013338Y002714D03*
X012438Y002714D03*
X012438Y002614D03*
X012438Y002514D03*
X012438Y002414D03*
X012438Y002314D03*
X012138Y002214D03*
X006338Y008414D03*
X006071Y008614D03*
X005938Y008914D03*
X005471Y008714D03*
X005538Y008514D03*
X005371Y008014D03*
X005338Y007914D03*
X005038Y008314D03*
X004971Y008514D03*
X004471Y008414D03*
X004571Y008114D03*
X004371Y007714D03*
X004038Y008014D03*
X003971Y008214D03*
X003571Y007814D03*
X003338Y017314D03*
X003538Y019314D03*
X003538Y019714D03*
X003571Y019814D03*
X003038Y021514D03*
X003371Y021714D03*
X005371Y019714D03*
X005738Y021614D03*
X005538Y021714D03*
X008171Y025114D03*
X007871Y025314D03*
X007738Y025614D03*
X007671Y025814D03*
X007771Y026214D03*
X007638Y026514D03*
X007571Y026614D03*
X007138Y026714D03*
X006971Y026614D03*
X006938Y026714D03*
X007138Y026214D03*
X008038Y025614D03*
X008538Y025514D03*
X008571Y025414D03*
X008571Y025014D03*
X008638Y024914D03*
X005771Y017414D03*
D14*
X003221Y019614D03*
X008821Y024714D03*
X008388Y025714D03*
X006921Y026914D03*
X022388Y024714D03*
X022821Y025714D03*
X024288Y026914D03*
X026321Y022214D03*
X026688Y021414D03*
X026721Y021314D03*
X026821Y021114D03*
X026988Y020714D03*
X027221Y020214D03*
X027321Y019314D03*
X027621Y019314D03*
X028088Y018314D03*
X028121Y018214D03*
X027988Y017814D03*
X026288Y018014D03*
X025121Y017114D03*
X024888Y017614D03*
X024788Y018514D03*
X024488Y018514D03*
X024588Y019014D03*
X024021Y019514D03*
X025388Y020814D03*
X025121Y021414D03*
X025388Y016514D03*
X026988Y006614D03*
X019021Y002514D03*
X019021Y002414D03*
X018788Y001914D03*
X018788Y001814D03*
X017788Y001914D03*
X017788Y002014D03*
X016021Y001514D03*
X013788Y001514D03*
X006221Y008514D03*
X004288Y007514D03*
X003788Y007614D03*
D15*
X004854Y007914D03*
X013654Y002614D03*
X013654Y002514D03*
X013954Y002514D03*
X013954Y002614D03*
X013954Y002414D03*
X013954Y002314D03*
X013954Y002214D03*
X013954Y002114D03*
X013954Y002014D03*
X013954Y001914D03*
X013954Y001814D03*
X013954Y001714D03*
X013654Y001714D03*
X014554Y001514D03*
X014654Y001814D03*
X015254Y001814D03*
X015254Y001914D03*
X015254Y002214D03*
X015254Y002314D03*
X015254Y002414D03*
X015254Y002514D03*
X015254Y002614D03*
X015554Y002614D03*
X015554Y002514D03*
X015554Y002414D03*
X015554Y002314D03*
X015554Y002214D03*
X015554Y002014D03*
X015554Y001914D03*
X015554Y001814D03*
X015554Y001714D03*
X015554Y001614D03*
X015554Y001514D03*
X015854Y001714D03*
X015854Y001814D03*
X015854Y001914D03*
X015854Y002014D03*
X015854Y002114D03*
X015854Y002214D03*
X015854Y002314D03*
X015854Y002414D03*
X015854Y002514D03*
X015854Y002614D03*
X016154Y002614D03*
X016154Y002514D03*
X016154Y002414D03*
X016154Y002314D03*
X016154Y002214D03*
X016154Y002114D03*
X016154Y002014D03*
X016154Y001914D03*
X016154Y001814D03*
X016154Y001714D03*
X014654Y002514D03*
X017854Y002514D03*
X017854Y002614D03*
X017854Y002714D03*
X017854Y002414D03*
X017854Y002314D03*
X017854Y002214D03*
X018754Y002214D03*
X018754Y002314D03*
X018754Y002414D03*
X018754Y002514D03*
X018754Y002614D03*
X018754Y002714D03*
X019054Y002714D03*
X019054Y002014D03*
X019054Y001914D03*
X019054Y001814D03*
X019054Y001714D03*
X019054Y001614D03*
X019054Y001514D03*
X018754Y001514D03*
X018754Y001614D03*
X026954Y007414D03*
X026954Y007514D03*
X026954Y007614D03*
X026854Y008714D03*
X026854Y008814D03*
X026854Y008914D03*
X026854Y009014D03*
X026754Y010214D03*
X026754Y010314D03*
X024954Y010514D03*
X022954Y012814D03*
X025154Y015714D03*
X025054Y015914D03*
X024554Y017014D03*
X024154Y017914D03*
X024054Y018114D03*
X023654Y019014D03*
X023254Y019914D03*
X023154Y020114D03*
X022754Y021014D03*
X022754Y021614D03*
X026054Y019314D03*
X025854Y019014D03*
X026254Y018814D03*
X027854Y020114D03*
X027754Y020314D03*
X027354Y021214D03*
X026954Y022114D03*
X026854Y022314D03*
X028254Y019214D03*
X028354Y019014D03*
X028754Y018114D03*
X024454Y027214D03*
X006754Y027214D03*
X005254Y020014D03*
X005354Y019814D03*
X005354Y019214D03*
X005254Y019014D03*
X003654Y019014D03*
X003554Y019214D03*
X003654Y020014D03*
X003554Y017214D03*
D16*
X004438Y017014D03*
X004571Y017614D03*
X003171Y019214D03*
X002304Y019114D03*
X004371Y021014D03*
X005271Y021114D03*
X005971Y021114D03*
X006071Y021014D03*
X005604Y020114D03*
X006238Y018214D03*
X006171Y018114D03*
X013804Y002714D03*
X016004Y002714D03*
X018238Y001514D03*
X025338Y008914D03*
X025371Y010614D03*
X024671Y011114D03*
X024671Y011214D03*
X024671Y011314D03*
X024704Y011514D03*
X026238Y010514D03*
X026904Y006814D03*
X026338Y018914D03*
X024871Y019414D03*
X024404Y020414D03*
X024171Y020914D03*
X024904Y020914D03*
D17*
X025121Y021347D03*
X025121Y021381D03*
X025388Y021347D03*
X024921Y021781D03*
X025521Y021947D03*
X025888Y021981D03*
X026688Y022681D03*
X026621Y022847D03*
X026521Y022981D03*
X026788Y022481D03*
X026888Y022247D03*
X026921Y022181D03*
X027021Y021947D03*
X027121Y021747D03*
X027188Y021581D03*
X027288Y021381D03*
X027288Y021347D03*
X027321Y021281D03*
X027388Y021147D03*
X027421Y021081D03*
X027521Y020847D03*
X027688Y020481D03*
X027788Y020247D03*
X027821Y020181D03*
X027888Y020047D03*
X027921Y019947D03*
X028021Y019747D03*
X028088Y019581D03*
X028188Y019381D03*
X028221Y019281D03*
X028288Y019147D03*
X028321Y019081D03*
X028421Y018847D03*
X028588Y018481D03*
X028688Y018247D03*
X028721Y018181D03*
X028788Y018047D03*
X028821Y017981D03*
X028921Y017747D03*
X028988Y017581D03*
X028888Y016981D03*
X026488Y018347D03*
X027288Y019281D03*
X026888Y019481D03*
X027088Y019781D03*
X026621Y020781D03*
X025721Y019481D03*
X025688Y019447D03*
X025388Y019481D03*
X024821Y018547D03*
X025221Y018347D03*
X025688Y017347D03*
X025888Y016847D03*
X024988Y016047D03*
X025021Y015981D03*
X025088Y015847D03*
X025121Y015781D03*
X025188Y015681D03*
X024888Y016281D03*
X024721Y016647D03*
X024621Y016881D03*
X024588Y016947D03*
X024521Y017081D03*
X024488Y017181D03*
X024388Y017381D03*
X024321Y017547D03*
X024221Y017747D03*
X024188Y017847D03*
X024121Y017981D03*
X024088Y018047D03*
X023988Y018281D03*
X023888Y018481D03*
X023821Y018647D03*
X023721Y018881D03*
X023688Y018947D03*
X023621Y019081D03*
X023588Y019147D03*
X023488Y019381D03*
X023321Y019747D03*
X023221Y019981D03*
X023188Y020047D03*
X023121Y020181D03*
X023088Y020281D03*
X022988Y020481D03*
X022921Y020647D03*
X022821Y020847D03*
X022788Y020947D03*
X022721Y021081D03*
X022688Y021181D03*
X022721Y021547D03*
X022788Y021647D03*
X023788Y021281D03*
X022288Y024547D03*
X022988Y025147D03*
X023188Y024981D03*
X023688Y026081D03*
X024421Y027147D03*
X024421Y027181D03*
X024488Y027281D03*
X018821Y014581D03*
X025488Y009947D03*
X025821Y010881D03*
X026721Y010781D03*
X026721Y010747D03*
X026688Y011247D03*
X026788Y009947D03*
X026788Y009881D03*
X026788Y009847D03*
X026788Y009781D03*
X026788Y009747D03*
X026821Y009481D03*
X026821Y009447D03*
X026821Y009381D03*
X026821Y009347D03*
X026821Y009281D03*
X026821Y009247D03*
X026888Y008581D03*
X026888Y008547D03*
X026888Y008481D03*
X026888Y008447D03*
X026888Y008381D03*
X026888Y008347D03*
X026888Y008281D03*
X026888Y008247D03*
X026921Y008181D03*
X026921Y008147D03*
X026921Y008081D03*
X026921Y008047D03*
X026921Y007981D03*
X026921Y007947D03*
X026921Y007881D03*
X026921Y007847D03*
X026921Y007781D03*
X026988Y007147D03*
X026988Y007081D03*
X026988Y007047D03*
X025288Y006681D03*
X025288Y006647D03*
X017621Y002247D03*
X017388Y002481D03*
X017388Y002547D03*
X017388Y002581D03*
X017388Y002647D03*
X017388Y002681D03*
X017388Y002747D03*
X017388Y002781D03*
X016788Y002781D03*
X016788Y002747D03*
X016788Y002681D03*
X016788Y002647D03*
X016788Y002581D03*
X016788Y002547D03*
X016788Y002481D03*
X016788Y002447D03*
X016788Y002381D03*
X016788Y002347D03*
X016788Y002281D03*
X016788Y002247D03*
X016621Y002081D03*
X016621Y002047D03*
X016621Y001981D03*
X016621Y001947D03*
X016621Y001881D03*
X016621Y001847D03*
X016621Y001781D03*
X016621Y001747D03*
X016621Y001681D03*
X016621Y001647D03*
X016621Y001581D03*
X016621Y001547D03*
X017421Y001547D03*
X017821Y001547D03*
X017821Y001581D03*
X017821Y001647D03*
X015288Y001947D03*
X015288Y001981D03*
X015288Y002047D03*
X015221Y001747D03*
X015221Y001681D03*
X015221Y001647D03*
X015188Y001581D03*
X015188Y001547D03*
X014921Y001547D03*
X014921Y001581D03*
X014921Y001647D03*
X014921Y001681D03*
X014921Y001747D03*
X014921Y001781D03*
X014921Y001847D03*
X014921Y001881D03*
X014921Y001947D03*
X014921Y001981D03*
X014721Y001981D03*
X014721Y001947D03*
X014688Y001881D03*
X014688Y001847D03*
X014621Y001681D03*
X014621Y001647D03*
X014588Y001581D03*
X014588Y001547D03*
X014721Y002281D03*
X014721Y002347D03*
X014688Y002381D03*
X014688Y002447D03*
X014621Y002581D03*
X014621Y002647D03*
X014588Y002681D03*
X014588Y002747D03*
X014921Y002747D03*
X014921Y002781D03*
X014921Y002681D03*
X014921Y002647D03*
X014921Y002581D03*
X014921Y002547D03*
X014921Y002481D03*
X014921Y002447D03*
X014921Y002381D03*
X014921Y002347D03*
X014921Y002281D03*
X012888Y002281D03*
X012888Y002247D03*
X012888Y002181D03*
X012888Y002147D03*
X012888Y002081D03*
X012888Y002047D03*
X012888Y001981D03*
X012888Y001947D03*
X012888Y001881D03*
X012888Y001847D03*
X012888Y001781D03*
X012888Y001747D03*
X012888Y001681D03*
X012888Y001647D03*
X012888Y001581D03*
X012888Y001547D03*
X012288Y001547D03*
X012288Y001581D03*
X012288Y001647D03*
X012288Y001681D03*
X012288Y001747D03*
X012288Y001781D03*
X012288Y001847D03*
X012288Y001881D03*
X012288Y001947D03*
X012288Y001981D03*
X012288Y002047D03*
X012288Y002081D03*
X012121Y002247D03*
X012121Y002281D03*
X012121Y002347D03*
X012121Y002381D03*
X012121Y002447D03*
X012121Y002481D03*
X012121Y002547D03*
X012121Y002581D03*
X012121Y002647D03*
X012121Y002681D03*
X012121Y002747D03*
X012121Y002781D03*
X012888Y002647D03*
X012888Y002581D03*
X012888Y002547D03*
X012888Y002481D03*
X012888Y002447D03*
X012888Y002381D03*
X012888Y002347D03*
X006321Y008247D03*
X006321Y008447D03*
X006121Y008581D03*
X005788Y008281D03*
X005788Y008047D03*
X005621Y007947D03*
X005321Y007881D03*
X004121Y007881D03*
X003821Y007581D03*
X003821Y007347D03*
X003388Y017281D03*
X003688Y018947D03*
X003621Y019047D03*
X003521Y019347D03*
X003521Y019647D03*
X003588Y019881D03*
X003621Y019947D03*
X003688Y020047D03*
X005221Y020047D03*
X005221Y020081D03*
X005288Y019981D03*
X005288Y019947D03*
X005321Y019881D03*
X005388Y019681D03*
X005288Y019047D03*
X005221Y018947D03*
X005521Y017281D03*
X001888Y020081D03*
X003521Y021781D03*
X005388Y021781D03*
X005488Y021747D03*
X008021Y024981D03*
X008221Y025147D03*
X008921Y024547D03*
X007521Y026081D03*
X006788Y027147D03*
X006788Y027181D03*
X006721Y027281D03*
D18*
X006738Y027247D03*
X007038Y026847D03*
X007071Y026781D03*
X007138Y026681D03*
X007171Y026647D03*
X007238Y026547D03*
X007038Y026481D03*
X007071Y026381D03*
X007171Y026147D03*
X007271Y025881D03*
X007638Y025881D03*
X007671Y025781D03*
X007738Y025647D03*
X007771Y025547D03*
X007838Y025381D03*
X007938Y025147D03*
X008438Y025181D03*
X008471Y025147D03*
X008538Y025047D03*
X008571Y024981D03*
X008738Y025047D03*
X008771Y024981D03*
X008771Y024947D03*
X008671Y025181D03*
X008638Y025247D03*
X008638Y025281D03*
X008538Y025481D03*
X008471Y025647D03*
X007971Y025747D03*
X007971Y025781D03*
X007938Y025847D03*
X007871Y025981D03*
X007838Y026047D03*
X007838Y026081D03*
X007738Y026281D03*
X007671Y026447D03*
X006971Y026647D03*
X008971Y024447D03*
X005971Y021447D03*
X005838Y021547D03*
X005671Y021647D03*
X005338Y019847D03*
X005371Y019781D03*
X005371Y019747D03*
X005371Y019281D03*
X005371Y019247D03*
X005338Y019147D03*
X005871Y017481D03*
X005638Y017347D03*
X003571Y019147D03*
X003571Y019181D03*
X003538Y019247D03*
X003538Y019281D03*
X003538Y019681D03*
X003538Y019747D03*
X003571Y019847D03*
X001838Y020047D03*
X001771Y019447D03*
X003138Y021581D03*
X003238Y021647D03*
X003271Y017347D03*
X005938Y008947D03*
X005971Y008881D03*
X006038Y008681D03*
X006038Y008647D03*
X006371Y008347D03*
X006338Y008281D03*
X005871Y008181D03*
X005871Y008147D03*
X005838Y008081D03*
X005838Y008247D03*
X005571Y008447D03*
X005538Y008481D03*
X005471Y008681D03*
X005438Y008747D03*
X004971Y008547D03*
X004938Y008581D03*
X005038Y008347D03*
X005071Y008281D03*
X005338Y008081D03*
X005371Y008047D03*
X005371Y007981D03*
X005371Y007947D03*
X004871Y007881D03*
X004871Y007781D03*
X004871Y007747D03*
X004571Y008147D03*
X004471Y008381D03*
X003971Y008247D03*
X004071Y007947D03*
X004338Y007747D03*
X004371Y007681D03*
X004371Y007581D03*
X003871Y007547D03*
X003871Y007381D03*
X003571Y007781D03*
X003471Y008047D03*
X012438Y002781D03*
X012438Y002747D03*
X012438Y002681D03*
X012438Y002647D03*
X012438Y002581D03*
X012438Y002547D03*
X012438Y002481D03*
X012438Y002447D03*
X012438Y002381D03*
X012438Y002347D03*
X012438Y002281D03*
X012438Y002247D03*
X013338Y002247D03*
X013338Y002281D03*
X013338Y002347D03*
X013338Y002381D03*
X013338Y002447D03*
X013338Y002481D03*
X013338Y002547D03*
X013338Y002581D03*
X013338Y002647D03*
X013338Y002681D03*
X013338Y002747D03*
X013338Y002781D03*
X013338Y002181D03*
X013338Y002147D03*
X013338Y002081D03*
X013338Y002047D03*
X013338Y001981D03*
X013338Y001947D03*
X013338Y001881D03*
X013338Y001847D03*
X013338Y001781D03*
X013338Y001747D03*
X013338Y001681D03*
X013338Y001647D03*
X013338Y001581D03*
X013338Y001547D03*
X016471Y002247D03*
X016471Y002281D03*
X016471Y002347D03*
X016471Y002381D03*
X016471Y002447D03*
X016471Y002481D03*
X016471Y002547D03*
X016471Y002581D03*
X016471Y002647D03*
X016471Y002681D03*
X016471Y002747D03*
X016471Y002781D03*
X017638Y002347D03*
X017638Y002281D03*
X017838Y002147D03*
X017838Y002081D03*
X017838Y002047D03*
X018438Y002047D03*
X018438Y001981D03*
X018438Y001947D03*
X018438Y001881D03*
X018438Y001847D03*
X018438Y001781D03*
X018438Y001747D03*
X018438Y001681D03*
X018438Y001647D03*
X018438Y002247D03*
X018438Y002281D03*
X018438Y002347D03*
X018438Y002381D03*
X018438Y002447D03*
X018438Y002481D03*
X018438Y002547D03*
X018438Y002581D03*
X018438Y002647D03*
X024138Y010647D03*
X023938Y012147D03*
X026638Y011881D03*
X026638Y011847D03*
X026638Y011781D03*
X026638Y011747D03*
X026671Y011681D03*
X026671Y011647D03*
X026671Y011581D03*
X026671Y011547D03*
X026671Y011481D03*
X026671Y011447D03*
X026671Y011381D03*
X026671Y011347D03*
X026671Y011281D03*
X026738Y010681D03*
X026738Y010647D03*
X026738Y010581D03*
X026738Y010547D03*
X026738Y010481D03*
X026738Y010447D03*
X026771Y010181D03*
X026771Y010147D03*
X026771Y010081D03*
X026771Y010047D03*
X026771Y009981D03*
X026471Y010347D03*
X026838Y009181D03*
X026838Y009147D03*
X026838Y009081D03*
X026871Y008681D03*
X026871Y008647D03*
X027038Y006481D03*
X025138Y015747D03*
X025071Y015881D03*
X025038Y015947D03*
X024971Y016081D03*
X024938Y016181D03*
X024838Y016381D03*
X024771Y016547D03*
X024671Y016747D03*
X024638Y016847D03*
X024571Y016981D03*
X024538Y017047D03*
X024438Y017281D03*
X024338Y017481D03*
X024271Y017647D03*
X024171Y017881D03*
X024138Y017947D03*
X024071Y018081D03*
X024038Y018147D03*
X024038Y018181D03*
X023938Y018381D03*
X023871Y018547D03*
X023771Y018747D03*
X023738Y018847D03*
X023671Y018981D03*
X023638Y019047D03*
X023571Y019181D03*
X023538Y019281D03*
X023438Y019481D03*
X023371Y019647D03*
X023271Y019847D03*
X023271Y019881D03*
X023238Y019947D03*
X023171Y020081D03*
X023138Y020147D03*
X023038Y020381D03*
X022938Y020581D03*
X022871Y020747D03*
X022771Y020981D03*
X022738Y021047D03*
X022671Y021247D03*
X022671Y021281D03*
X022671Y021347D03*
X022671Y021381D03*
X022671Y021447D03*
X022738Y021581D03*
X023938Y020547D03*
X024171Y020047D03*
X024371Y019547D03*
X025371Y020781D03*
X025371Y021381D03*
X025538Y021881D03*
X026171Y021747D03*
X026371Y021281D03*
X026238Y020981D03*
X026838Y020247D03*
X027638Y020581D03*
X027571Y020747D03*
X027471Y020947D03*
X027438Y021047D03*
X027371Y021181D03*
X027338Y021247D03*
X027238Y021481D03*
X027138Y021681D03*
X027071Y021847D03*
X026971Y022047D03*
X026971Y022081D03*
X026938Y022147D03*
X026871Y022281D03*
X026838Y022347D03*
X026838Y022381D03*
X026738Y022581D03*
X026671Y022747D03*
X027738Y020381D03*
X027738Y020347D03*
X027771Y020281D03*
X027838Y020147D03*
X027871Y020081D03*
X027971Y019847D03*
X028071Y019647D03*
X028138Y019481D03*
X028238Y019247D03*
X028271Y019181D03*
X028338Y019047D03*
X028371Y018981D03*
X028371Y018947D03*
X028471Y018747D03*
X028538Y018581D03*
X028638Y018381D03*
X028671Y018281D03*
X028738Y018147D03*
X028771Y018081D03*
X028838Y017947D03*
X028871Y017847D03*
X028971Y017647D03*
X029038Y017481D03*
X029038Y017447D03*
X029038Y017381D03*
X029038Y017347D03*
X029038Y017281D03*
X029038Y017247D03*
X028971Y017081D03*
X027971Y017781D03*
X027571Y017981D03*
X025271Y017581D03*
X024138Y021381D03*
X022238Y024447D03*
X022438Y024947D03*
X022438Y024981D03*
X022471Y025047D03*
X022538Y025181D03*
X022571Y025281D03*
X022738Y025147D03*
X022771Y025181D03*
X022671Y025047D03*
X022638Y024981D03*
X023271Y025147D03*
X023371Y025381D03*
X023438Y025547D03*
X023471Y025647D03*
X023538Y025781D03*
X023571Y025881D03*
X023338Y025981D03*
X023371Y026047D03*
X023371Y026081D03*
X023471Y026281D03*
X023538Y026447D03*
X023971Y026547D03*
X024038Y026647D03*
X024071Y026681D03*
X024138Y026781D03*
X024171Y026847D03*
X024238Y026647D03*
X024171Y026481D03*
X024171Y026447D03*
X024138Y026381D03*
X024038Y026147D03*
X023938Y025881D03*
X023271Y025847D03*
X023238Y025781D03*
X023238Y025747D03*
X022738Y025647D03*
X024471Y027247D03*
D19*
X025921Y021381D03*
X027188Y020147D03*
X027621Y019181D03*
X026788Y017881D03*
X026488Y017447D03*
X026688Y016947D03*
X025521Y017947D03*
X024921Y017681D03*
X025888Y015581D03*
X023021Y012681D03*
X023021Y011281D03*
X025388Y010181D03*
X025388Y010147D03*
X025388Y010081D03*
X026221Y010547D03*
X025321Y008947D03*
X025621Y008547D03*
X025688Y008447D03*
X025821Y008247D03*
X026021Y007981D03*
X026121Y007847D03*
X026321Y007581D03*
X026388Y007481D03*
X026488Y007347D03*
X026921Y006781D03*
X018321Y002181D03*
X018321Y002147D03*
X018321Y002081D03*
X016621Y002147D03*
X016021Y001547D03*
X013788Y001547D03*
X012288Y002147D03*
X005188Y007847D03*
X004688Y007681D03*
X003688Y017981D03*
X003288Y018947D03*
X003221Y019147D03*
X003188Y019181D03*
X004821Y018647D03*
X005688Y019081D03*
X005688Y019147D03*
X005721Y019847D03*
X005688Y019881D03*
X005621Y020047D03*
X006588Y019947D03*
X006588Y018947D03*
X006221Y018181D03*
X004321Y021381D03*
X023821Y021147D03*
D20*
X003654Y007247D03*
X004354Y007547D03*
X004654Y008047D03*
X013654Y002647D03*
X013654Y002581D03*
X013654Y002547D03*
X013654Y002481D03*
X013954Y002481D03*
X013954Y002447D03*
X013954Y002381D03*
X013954Y002347D03*
X013954Y002281D03*
X013954Y002247D03*
X013954Y002181D03*
X013954Y002147D03*
X013954Y002081D03*
X013954Y002047D03*
X013954Y001981D03*
X013954Y001947D03*
X013954Y001881D03*
X013954Y001847D03*
X013954Y001781D03*
X013954Y001747D03*
X013954Y001681D03*
X013954Y001647D03*
X013654Y001647D03*
X013654Y001681D03*
X013654Y001747D03*
X013654Y001781D03*
X013954Y002547D03*
X013954Y002581D03*
X013954Y002647D03*
X014554Y002781D03*
X014654Y002547D03*
X014654Y002481D03*
X015254Y002481D03*
X015254Y002447D03*
X015254Y002381D03*
X015254Y002347D03*
X015254Y002281D03*
X015254Y002247D03*
X015554Y002247D03*
X015554Y002281D03*
X015554Y002347D03*
X015554Y002381D03*
X015554Y002447D03*
X015554Y002481D03*
X015554Y002547D03*
X015554Y002581D03*
X015554Y002647D03*
X015254Y002647D03*
X015254Y002581D03*
X015254Y002547D03*
X015554Y002047D03*
X015554Y001981D03*
X015554Y001947D03*
X015554Y001881D03*
X015554Y001847D03*
X015554Y001781D03*
X015554Y001747D03*
X015554Y001681D03*
X015554Y001647D03*
X015554Y001581D03*
X015554Y001547D03*
X015854Y001647D03*
X015854Y001681D03*
X015854Y001747D03*
X015854Y001781D03*
X015854Y001847D03*
X015854Y001881D03*
X015854Y001947D03*
X015854Y001981D03*
X015854Y002047D03*
X015854Y002081D03*
X015854Y002147D03*
X015854Y002181D03*
X015854Y002247D03*
X015854Y002281D03*
X015854Y002347D03*
X015854Y002381D03*
X015854Y002447D03*
X015854Y002481D03*
X015854Y002547D03*
X015854Y002581D03*
X015854Y002647D03*
X016154Y002647D03*
X016154Y002581D03*
X016154Y002547D03*
X016154Y002481D03*
X016154Y002447D03*
X016154Y002381D03*
X016154Y002347D03*
X016154Y002281D03*
X016154Y002247D03*
X016154Y002181D03*
X016154Y002147D03*
X016154Y002081D03*
X016154Y002047D03*
X016154Y001981D03*
X016154Y001947D03*
X016154Y001881D03*
X016154Y001847D03*
X016154Y001781D03*
X016154Y001747D03*
X016154Y001681D03*
X016154Y001647D03*
X015254Y001781D03*
X015254Y001847D03*
X015254Y001881D03*
X014654Y001781D03*
X014654Y001747D03*
X017854Y002181D03*
X017854Y002247D03*
X017854Y002281D03*
X017854Y002347D03*
X017854Y002381D03*
X017854Y002447D03*
X017854Y002481D03*
X017854Y002547D03*
X017854Y002581D03*
X017854Y002647D03*
X017854Y002681D03*
X017854Y002747D03*
X017854Y002781D03*
X018754Y002781D03*
X018754Y002747D03*
X018754Y002681D03*
X018754Y002647D03*
X018754Y002581D03*
X018754Y002547D03*
X018754Y002481D03*
X018754Y002447D03*
X018754Y002381D03*
X018754Y002347D03*
X018754Y002281D03*
X018754Y002247D03*
X019054Y002081D03*
X019054Y002047D03*
X019054Y001981D03*
X019054Y001947D03*
X019054Y001881D03*
X019054Y001847D03*
X019054Y001781D03*
X019054Y001747D03*
X019054Y001681D03*
X019054Y001647D03*
X019054Y001581D03*
X019054Y001547D03*
X018754Y001547D03*
X018754Y001581D03*
X019054Y002747D03*
X019054Y002781D03*
X025254Y009147D03*
X025254Y009181D03*
X026254Y009547D03*
X026854Y009047D03*
X026854Y008981D03*
X026854Y008947D03*
X026854Y008881D03*
X026854Y008847D03*
X026854Y008781D03*
X026854Y008747D03*
X026954Y007647D03*
X026954Y007581D03*
X026954Y007547D03*
X026954Y007481D03*
X026954Y007447D03*
X026954Y007381D03*
X026954Y007347D03*
X027054Y006447D03*
X026754Y010247D03*
X026754Y010281D03*
X026754Y010347D03*
X026754Y010381D03*
X024954Y016147D03*
X024854Y016347D03*
X024754Y016581D03*
X024654Y016781D03*
X024454Y017247D03*
X024354Y017447D03*
X024254Y017681D03*
X023954Y018347D03*
X023854Y018581D03*
X023754Y018781D03*
X023554Y019247D03*
X023454Y019447D03*
X023354Y019681D03*
X023054Y020347D03*
X022954Y020547D03*
X022854Y020781D03*
X023854Y021347D03*
X023854Y021381D03*
X024154Y021347D03*
X025054Y021281D03*
X025554Y021847D03*
X025854Y021947D03*
X026354Y021247D03*
X026454Y020481D03*
X027454Y020981D03*
X027554Y020781D03*
X027654Y020547D03*
X027954Y019881D03*
X028054Y019681D03*
X028154Y019447D03*
X028454Y018781D03*
X028554Y018547D03*
X028654Y018347D03*
X028854Y017881D03*
X028954Y017681D03*
X028954Y017047D03*
X027754Y018281D03*
X025754Y019547D03*
X024554Y019847D03*
X025554Y017081D03*
X025554Y017047D03*
X027254Y021447D03*
X027154Y021647D03*
X027054Y021881D03*
X026754Y022547D03*
X026654Y022781D03*
X026554Y022947D03*
X022954Y025181D03*
X022854Y025281D03*
X022954Y025647D03*
X022254Y024481D03*
X008954Y024481D03*
X008254Y025181D03*
X008354Y025281D03*
X008254Y025647D03*
X003454Y021747D03*
X003654Y019981D03*
X003554Y019781D03*
X003654Y018981D03*
X003454Y017247D03*
X005454Y017247D03*
X005254Y018981D03*
X005354Y019181D03*
D21*
X004754Y020381D03*
X006154Y020881D03*
X002854Y017981D03*
X018254Y002747D03*
X018254Y001547D03*
X025154Y006981D03*
X025354Y008847D03*
X024054Y011981D03*
X023054Y012647D03*
X025254Y013081D03*
X024054Y019681D03*
X024654Y021381D03*
X026354Y020381D03*
D22*
X026604Y019881D03*
X025904Y019881D03*
X026938Y020647D03*
X026504Y021647D03*
X026038Y022681D03*
X023604Y020647D03*
X023838Y020147D03*
X024271Y019147D03*
X024704Y018181D03*
X025304Y018447D03*
X026004Y018447D03*
X027838Y018681D03*
X028071Y018147D03*
X025671Y016047D03*
X025404Y016681D03*
X024704Y011547D03*
X024704Y011481D03*
X024704Y011447D03*
X024671Y011381D03*
X024671Y011347D03*
X024671Y011281D03*
X024671Y011247D03*
X024671Y011181D03*
X024671Y011147D03*
X024671Y011081D03*
X024638Y010447D03*
X024004Y010781D03*
X025338Y008881D03*
X025171Y006947D03*
X018238Y002781D03*
X016004Y001581D03*
X015438Y002781D03*
X013804Y001581D03*
X004871Y017081D03*
X004038Y017081D03*
X004538Y017981D03*
X005371Y018081D03*
X005438Y018047D03*
X006138Y018081D03*
X006204Y018147D03*
X006271Y018247D03*
X006271Y018281D03*
X006538Y018881D03*
X006604Y019347D03*
X005771Y019381D03*
X005671Y019047D03*
X005604Y020081D03*
X006471Y020347D03*
X006104Y020981D03*
X006038Y021047D03*
X006004Y021081D03*
X003271Y018981D03*
X002438Y018681D03*
X002804Y018047D03*
D23*
X003638Y017181D03*
X003738Y017147D03*
X005171Y017147D03*
X005271Y017181D03*
X005071Y018781D03*
X005138Y018847D03*
X005171Y018881D03*
X005138Y020147D03*
X005104Y020181D03*
X005038Y020247D03*
X003804Y020181D03*
X003771Y020147D03*
X003704Y020081D03*
X003738Y018881D03*
X003771Y018847D03*
X002038Y020147D03*
X003704Y021847D03*
X005204Y021847D03*
X008904Y024581D03*
X008871Y024647D03*
X008838Y024681D03*
X008404Y025747D03*
X007338Y026447D03*
X006838Y027047D03*
X006838Y027081D03*
X022304Y024581D03*
X022338Y024647D03*
X022371Y024681D03*
X022804Y025747D03*
X023871Y026447D03*
X024371Y027047D03*
X024371Y027081D03*
X026304Y022247D03*
X026538Y021747D03*
X026738Y021281D03*
X026204Y020947D03*
X026971Y020781D03*
X026871Y020281D03*
X027204Y020247D03*
X027438Y019747D03*
X026671Y019947D03*
X027104Y018981D03*
X027838Y018847D03*
X027871Y018781D03*
X028104Y018247D03*
X028338Y017747D03*
X027771Y017481D03*
X025604Y015981D03*
X025238Y015647D03*
X025171Y016981D03*
X025504Y016981D03*
X025438Y017881D03*
X025038Y018047D03*
X024671Y018081D03*
X025004Y018847D03*
X024804Y019347D03*
X025404Y019381D03*
X025171Y020481D03*
X024738Y021481D03*
X025804Y021847D03*
X025804Y021881D03*
X023338Y021047D03*
X022804Y021681D03*
X024238Y019047D03*
X024271Y018981D03*
X025371Y012981D03*
X025371Y012947D03*
X025371Y012881D03*
X025371Y012847D03*
X025371Y012781D03*
X025371Y012747D03*
X025371Y012681D03*
X025371Y012647D03*
X024604Y011681D03*
X024104Y010681D03*
X024738Y010347D03*
X026438Y010381D03*
X026938Y007747D03*
X026938Y007681D03*
X026971Y007281D03*
X026971Y007247D03*
X026971Y007181D03*
X027004Y006547D03*
X022971Y012781D03*
X019038Y002681D03*
X019038Y002647D03*
X019038Y002581D03*
X019038Y002547D03*
X018771Y001781D03*
X018771Y001747D03*
X018771Y001681D03*
X018771Y001647D03*
X017804Y001681D03*
X017804Y001747D03*
X017804Y001781D03*
X017804Y001847D03*
X017638Y002147D03*
X017638Y002181D03*
X017438Y001681D03*
X017438Y001647D03*
X017438Y001581D03*
X006271Y008481D03*
X006171Y008547D03*
X005704Y008347D03*
X005638Y008381D03*
X005238Y008147D03*
X004804Y007947D03*
X004304Y007781D03*
X003738Y007647D03*
X003671Y007681D03*
D24*
X012871Y002781D03*
X012871Y002747D03*
X012871Y002681D03*
X018271Y001581D03*
X025138Y007047D03*
X026838Y006981D03*
X026838Y006947D03*
X025371Y008781D03*
X025338Y010647D03*
X026271Y010481D03*
X024071Y011847D03*
X024071Y011881D03*
X024071Y011947D03*
X022971Y011347D03*
X025771Y017447D03*
X025538Y017981D03*
X026571Y018447D03*
X026371Y018947D03*
X026571Y019847D03*
X024638Y019947D03*
X023638Y020681D03*
X006571Y019847D03*
X006171Y020847D03*
X004371Y020981D03*
X003138Y019247D03*
X002738Y018181D03*
X002738Y018147D03*
X004571Y017581D03*
X005338Y018581D03*
X005671Y018981D03*
D25*
X002804Y019714D03*
X015404Y002714D03*
X016004Y001614D03*
X013804Y001614D03*
X018904Y002114D03*
X024704Y011014D03*
D26*
X023971Y012114D03*
X023071Y011214D03*
X025371Y012714D03*
X025371Y012814D03*
X025371Y012914D03*
X025371Y013014D03*
X025271Y015614D03*
X025204Y016914D03*
X024704Y018014D03*
X026071Y018514D03*
X025671Y019414D03*
X025838Y019814D03*
X027404Y019814D03*
X026771Y021214D03*
X026504Y023014D03*
X023871Y021414D03*
X023704Y021014D03*
X023571Y020514D03*
X023904Y020514D03*
X023804Y020014D03*
X024138Y020014D03*
X022838Y021714D03*
X022271Y024514D03*
X022338Y024614D03*
X023171Y025014D03*
X024338Y027014D03*
X024404Y027114D03*
X028304Y017814D03*
X026738Y017014D03*
X026538Y017514D03*
X025271Y009114D03*
X026938Y007714D03*
X026971Y007314D03*
X026971Y007214D03*
X025271Y006714D03*
X019038Y002614D03*
X018771Y001714D03*
X017804Y001714D03*
X017804Y001814D03*
X017638Y002114D03*
X017438Y001714D03*
X017438Y001614D03*
X005138Y008214D03*
X004704Y008014D03*
X004238Y007814D03*
X005371Y017214D03*
X005104Y018814D03*
X003804Y018814D03*
X003738Y020114D03*
X003838Y020214D03*
X005071Y020214D03*
X005304Y021814D03*
X003604Y021814D03*
X008038Y025014D03*
X008871Y024614D03*
X008938Y024514D03*
X006871Y027014D03*
X006804Y027114D03*
D27*
X004321Y021414D03*
X005788Y019414D03*
X005688Y019014D03*
X006288Y018314D03*
X005321Y018114D03*
X003621Y017914D03*
X002921Y017914D03*
X002821Y018014D03*
X003288Y018914D03*
X019021Y014514D03*
X022988Y011314D03*
X024621Y010514D03*
X027021Y017414D03*
X026821Y017914D03*
X026121Y019414D03*
X025321Y019914D03*
X025688Y020414D03*
X015421Y002114D03*
X018288Y001614D03*
D28*
X017454Y001747D03*
X017454Y001781D03*
X017454Y001847D03*
X017454Y001881D03*
X025254Y006747D03*
X025454Y009981D03*
X025854Y010847D03*
X025354Y011181D03*
X025354Y012181D03*
X025354Y012247D03*
X025354Y012281D03*
X025354Y012347D03*
X025354Y012381D03*
X025354Y012447D03*
X025354Y012481D03*
X025354Y012547D03*
X025354Y012581D03*
X025354Y013047D03*
X025354Y016547D03*
X025354Y016581D03*
X025154Y017047D03*
X025254Y018381D03*
X024454Y018547D03*
X024454Y018581D03*
X025654Y019381D03*
X024354Y020347D03*
X024954Y020981D03*
X024154Y021447D03*
X023554Y020581D03*
X023554Y020547D03*
X023354Y020981D03*
X026454Y023047D03*
X026754Y021247D03*
X027654Y019281D03*
X027654Y019247D03*
X026754Y017847D03*
X026954Y017347D03*
X028854Y016947D03*
X022854Y025247D03*
X023654Y026581D03*
X008354Y025247D03*
X007554Y026581D03*
X003854Y018781D03*
X004754Y007981D03*
X005154Y007781D03*
D29*
X004654Y007614D03*
X005754Y008314D03*
X006254Y008214D03*
X017454Y001814D03*
X025354Y012214D03*
X025354Y012314D03*
X025354Y012414D03*
X025354Y012514D03*
X025354Y012614D03*
X025354Y016614D03*
X025154Y017014D03*
X024654Y018114D03*
X024254Y019014D03*
X023354Y021014D03*
X024954Y021814D03*
X026554Y021714D03*
X026954Y020814D03*
X027854Y018814D03*
D30*
X027888Y018747D03*
X028088Y018281D03*
X028321Y017781D03*
X027321Y018481D03*
X026288Y018847D03*
X027421Y019781D03*
X027188Y020281D03*
X026988Y020747D03*
X026788Y021147D03*
X026788Y021181D03*
X026721Y021347D03*
X026688Y021381D03*
X026388Y021347D03*
X025988Y021447D03*
X026188Y021781D03*
X026521Y021781D03*
X026321Y022181D03*
X026288Y022281D03*
X025988Y022281D03*
X026088Y022747D03*
X024121Y020847D03*
X023588Y020481D03*
X023788Y020081D03*
X023788Y020047D03*
X023821Y019981D03*
X023988Y019581D03*
X024021Y019547D03*
X024221Y019081D03*
X024688Y018047D03*
X024888Y017581D03*
X024921Y017547D03*
X025221Y017547D03*
X025088Y017181D03*
X025088Y017147D03*
X025121Y017081D03*
X025188Y016947D03*
X025521Y016947D03*
X025921Y016881D03*
X023988Y012081D03*
X026221Y009581D03*
X025288Y009081D03*
X026988Y006581D03*
X019021Y002481D03*
X019021Y002447D03*
X019021Y002381D03*
X018788Y001881D03*
X018788Y001847D03*
X017788Y001881D03*
X017788Y001947D03*
X017788Y001981D03*
X017621Y002081D03*
X016021Y002781D03*
X013788Y002781D03*
X005188Y008181D03*
X004188Y007847D03*
X003888Y018747D03*
X003221Y019581D03*
X003221Y019647D03*
X003221Y019681D03*
X003888Y020247D03*
X003921Y020281D03*
X004988Y020281D03*
X005021Y018747D03*
X005088Y021881D03*
X003821Y021881D03*
X007321Y025947D03*
X007521Y026047D03*
X008121Y025547D03*
X008788Y024781D03*
X006888Y026981D03*
X022421Y024781D03*
X023088Y025547D03*
X023688Y026047D03*
X023888Y025947D03*
X024321Y026981D03*
X022888Y021747D03*
D31*
X024338Y019514D03*
X024438Y018614D03*
X025671Y016514D03*
X025638Y016014D03*
X027771Y018314D03*
X028338Y017714D03*
X027638Y019214D03*
X027438Y019714D03*
X026671Y020814D03*
X022438Y024814D03*
X022871Y025214D03*
X024238Y026814D03*
X008771Y024814D03*
X008338Y025214D03*
X006971Y026814D03*
X004338Y021214D03*
X004438Y020514D03*
X004938Y020314D03*
X004971Y018714D03*
X003938Y018714D03*
X003238Y019714D03*
X003871Y017114D03*
X005038Y017114D03*
X012271Y002114D03*
X016638Y002114D03*
X017471Y001914D03*
X025271Y007914D03*
X025271Y008014D03*
X025271Y008114D03*
X025271Y008214D03*
X025271Y008314D03*
X025271Y008414D03*
X025271Y008514D03*
X026171Y010014D03*
X026171Y010114D03*
X026171Y010214D03*
X026171Y010314D03*
X025871Y010814D03*
X024071Y010714D03*
D32*
X024638Y011647D03*
X025371Y011147D03*
X026171Y010381D03*
X026171Y010347D03*
X026171Y010281D03*
X026171Y010247D03*
X026171Y010181D03*
X026171Y010147D03*
X026171Y010081D03*
X026171Y010047D03*
X026171Y009981D03*
X026171Y009947D03*
X025271Y008547D03*
X025271Y008481D03*
X025271Y008447D03*
X025271Y008381D03*
X025271Y008347D03*
X025271Y008281D03*
X025271Y008247D03*
X025271Y008181D03*
X025271Y008147D03*
X025271Y008081D03*
X025271Y008047D03*
X025271Y007981D03*
X025271Y007947D03*
X025238Y006781D03*
X026971Y006647D03*
X022971Y012747D03*
X025338Y015581D03*
X027538Y017947D03*
X027071Y018947D03*
X026871Y019447D03*
X026071Y019347D03*
X025838Y018981D03*
X025038Y018881D03*
X025371Y019981D03*
X025638Y020347D03*
X023671Y020981D03*
X023871Y021447D03*
X023338Y021081D03*
X022938Y021781D03*
X022471Y024847D03*
X022471Y024881D03*
X023171Y025047D03*
X023071Y025581D03*
X023671Y026547D03*
X023838Y026481D03*
X024271Y026881D03*
X028738Y016881D03*
X017471Y001947D03*
X006138Y008147D03*
X004171Y007447D03*
X004571Y017747D03*
X004571Y017781D03*
X004338Y021181D03*
X004338Y021247D03*
X004338Y021281D03*
X008038Y025047D03*
X008138Y025581D03*
X008371Y025681D03*
X008738Y024881D03*
X008738Y024847D03*
X007538Y026547D03*
X007371Y026481D03*
X006938Y026881D03*
D33*
X006904Y026947D03*
X008804Y024747D03*
X004004Y018681D03*
X019004Y002347D03*
X019004Y002281D03*
X019004Y002247D03*
X018804Y002081D03*
X018804Y002047D03*
X018804Y001981D03*
X018804Y001947D03*
X025304Y009047D03*
X026204Y009647D03*
X026204Y009681D03*
X026204Y009747D03*
X024704Y010381D03*
X025704Y017381D03*
X024904Y017647D03*
X026504Y017481D03*
X027204Y020181D03*
X026404Y020447D03*
X026404Y021381D03*
X024704Y021447D03*
X026404Y023081D03*
X024304Y026947D03*
X022404Y024747D03*
D34*
X022604Y024947D03*
X022704Y025081D03*
X022604Y025347D03*
X022704Y025581D03*
X022804Y025781D03*
X022904Y025681D03*
X023104Y025481D03*
X023204Y025681D03*
X023404Y025481D03*
X023304Y025247D03*
X023604Y025947D03*
X023404Y026147D03*
X023504Y026347D03*
X023504Y026381D03*
X024004Y026581D03*
X024104Y026747D03*
X024304Y026781D03*
X024204Y026547D03*
X024004Y026047D03*
X022204Y024381D03*
X022704Y021481D03*
X022704Y021147D03*
X022804Y020881D03*
X022904Y020681D03*
X023004Y020447D03*
X023104Y020247D03*
X023304Y019781D03*
X023404Y019581D03*
X023404Y019547D03*
X023504Y019347D03*
X023804Y018681D03*
X023904Y018447D03*
X024004Y018247D03*
X024204Y017781D03*
X024304Y017581D03*
X024404Y017347D03*
X024504Y017147D03*
X024704Y016681D03*
X024804Y016481D03*
X024804Y016447D03*
X024904Y016247D03*
X025704Y016547D03*
X026304Y018047D03*
X026104Y018547D03*
X025404Y019447D03*
X026004Y021481D03*
X027004Y021981D03*
X027104Y021781D03*
X027204Y021547D03*
X027504Y020881D03*
X027604Y020681D03*
X027604Y020647D03*
X027704Y020447D03*
X027904Y019981D03*
X028004Y019781D03*
X028104Y019547D03*
X028204Y019347D03*
X028404Y018881D03*
X028504Y018681D03*
X028504Y018647D03*
X028604Y018447D03*
X028904Y017781D03*
X029004Y017547D03*
X029004Y017181D03*
X029004Y017147D03*
X026804Y022447D03*
X026704Y022647D03*
X026604Y022881D03*
X026704Y011181D03*
X026704Y011147D03*
X026704Y011081D03*
X026704Y011047D03*
X026704Y010981D03*
X026704Y010947D03*
X026704Y010881D03*
X026704Y010847D03*
X026804Y009681D03*
X026804Y009647D03*
X026804Y009581D03*
X026804Y009547D03*
X025304Y011247D03*
X023104Y011181D03*
X017404Y002447D03*
X017404Y002381D03*
X017404Y002347D03*
X017404Y002281D03*
X017404Y002247D03*
X017404Y002181D03*
X017404Y002147D03*
X017404Y002081D03*
X017404Y002047D03*
X017404Y001981D03*
X005104Y008247D03*
X004604Y008081D03*
X003904Y007481D03*
X003904Y007447D03*
X003604Y007747D03*
X003504Y007981D03*
X003204Y017381D03*
X003104Y017447D03*
X003604Y019081D03*
X003504Y019381D03*
X003504Y019447D03*
X003504Y019481D03*
X003504Y019547D03*
X003504Y019581D03*
X005304Y019081D03*
X005404Y019347D03*
X005404Y019381D03*
X005404Y019447D03*
X005404Y019481D03*
X005404Y019547D03*
X005404Y019581D03*
X005404Y019647D03*
X005604Y021681D03*
X003304Y021681D03*
X006004Y017581D03*
X005704Y017381D03*
X009004Y024381D03*
X008604Y024947D03*
X008504Y025081D03*
X008604Y025347D03*
X008504Y025581D03*
X008404Y025781D03*
X008004Y025681D03*
X008104Y025481D03*
X007804Y025481D03*
X007904Y025247D03*
X007604Y025947D03*
X007804Y026147D03*
X007704Y026347D03*
X007704Y026381D03*
X007204Y026581D03*
X007104Y026747D03*
X006904Y026781D03*
X007004Y026547D03*
X007204Y026047D03*
D35*
X007188Y026081D03*
X007154Y026181D03*
X007121Y026247D03*
X007121Y026281D03*
X007088Y026347D03*
X007054Y026447D03*
X006988Y026581D03*
X006954Y026681D03*
X006921Y026747D03*
X006888Y026847D03*
X007654Y026481D03*
X007754Y026247D03*
X007788Y026181D03*
X007888Y025947D03*
X007921Y025881D03*
X008021Y025647D03*
X008088Y025447D03*
X007854Y025347D03*
X007888Y025281D03*
X007921Y025181D03*
X008021Y024947D03*
X007821Y025447D03*
X007754Y025581D03*
X007721Y025681D03*
X007688Y025747D03*
X007654Y025847D03*
X007588Y025981D03*
X008521Y025547D03*
X008554Y025447D03*
X008588Y025381D03*
X008688Y025147D03*
X008721Y025081D03*
X005788Y021581D03*
X005921Y021481D03*
X006054Y021381D03*
X006088Y021347D03*
X006154Y021281D03*
X006254Y021181D03*
X006288Y021147D03*
X006354Y021081D03*
X006454Y020947D03*
X006521Y020847D03*
X006588Y020747D03*
X006621Y020681D03*
X006688Y020547D03*
X006654Y018381D03*
X006521Y018147D03*
X006321Y017881D03*
X006288Y017847D03*
X006221Y017781D03*
X006188Y017747D03*
X006121Y017681D03*
X006088Y017647D03*
X005954Y017547D03*
X005821Y017447D03*
X003054Y017481D03*
X002954Y017547D03*
X002921Y017581D03*
X002821Y017647D03*
X002788Y017681D03*
X002721Y017747D03*
X002688Y017781D03*
X002521Y017981D03*
X002454Y018081D03*
X002321Y018281D03*
X002288Y018347D03*
X002221Y019481D03*
X001788Y019881D03*
X002354Y020781D03*
X002388Y020847D03*
X002421Y020881D03*
X002488Y020981D03*
X002621Y021147D03*
X002654Y021181D03*
X002721Y021247D03*
X002754Y021281D03*
X002821Y021347D03*
X002854Y021381D03*
X002954Y021447D03*
X002988Y021481D03*
X003088Y021547D03*
X005454Y008781D03*
X005521Y008547D03*
X005021Y008381D03*
X004554Y008181D03*
X004488Y008347D03*
X003988Y008181D03*
X003988Y008147D03*
X004054Y007981D03*
X004388Y007647D03*
X004888Y007847D03*
X003554Y007847D03*
X003488Y008081D03*
X005954Y008847D03*
X006354Y008381D03*
X017554Y002047D03*
X017554Y001981D03*
X017688Y002047D03*
X025321Y006581D03*
X027088Y006381D03*
X025221Y009247D03*
X025221Y009281D03*
X024988Y010481D03*
X024554Y011747D03*
X023921Y012181D03*
X022921Y012847D03*
X025588Y015947D03*
X026788Y017047D03*
X026688Y017781D03*
X027721Y018247D03*
X027488Y018781D03*
X027054Y019747D03*
X026688Y019981D03*
X026588Y020747D03*
X025888Y019047D03*
X024854Y018581D03*
X024621Y019047D03*
X025054Y018081D03*
X025421Y017847D03*
X026121Y022781D03*
X023388Y025447D03*
X023354Y025347D03*
X023321Y025281D03*
X023288Y025181D03*
X023188Y024947D03*
X023121Y025447D03*
X023188Y025647D03*
X023288Y025881D03*
X023321Y025947D03*
X023554Y025847D03*
X023521Y025747D03*
X023488Y025681D03*
X023454Y025581D03*
X023621Y025981D03*
X023421Y026181D03*
X023454Y026247D03*
X023554Y026481D03*
X024088Y026281D03*
X024088Y026247D03*
X024054Y026181D03*
X024021Y026081D03*
X024121Y026347D03*
X024221Y026581D03*
X024254Y026681D03*
X024288Y026747D03*
X024321Y026847D03*
X022754Y025681D03*
X022688Y025547D03*
X022654Y025481D03*
X022654Y025447D03*
X022621Y025381D03*
X022554Y025247D03*
X022521Y025147D03*
X022488Y025081D03*
D36*
X022504Y025114D03*
X022704Y025114D03*
X023304Y025214D03*
X023504Y025714D03*
X023304Y025914D03*
X024104Y026314D03*
X024004Y026614D03*
X022204Y024414D03*
X022704Y021514D03*
X022704Y021114D03*
X022804Y020914D03*
X023104Y020214D03*
X023204Y020014D03*
X023604Y019114D03*
X023704Y018914D03*
X024104Y018014D03*
X024204Y017814D03*
X024504Y017114D03*
X024604Y016914D03*
X025004Y016014D03*
X025104Y015814D03*
X028304Y019114D03*
X028204Y019314D03*
X027904Y020014D03*
X027804Y020214D03*
X027404Y021114D03*
X027304Y021314D03*
X026904Y022214D03*
X025404Y021314D03*
X025204Y020514D03*
X024104Y020814D03*
X028704Y018214D03*
X028804Y018014D03*
X026704Y011214D03*
X026704Y011114D03*
X026704Y011014D03*
X026704Y010914D03*
X025804Y010914D03*
X026804Y009614D03*
X025304Y006614D03*
X017404Y002414D03*
X017404Y002314D03*
X017404Y002214D03*
X017404Y002114D03*
X017404Y002014D03*
X004104Y007914D03*
X003004Y017514D03*
X003504Y019414D03*
X003504Y019514D03*
X003504Y019614D03*
X003604Y019914D03*
X002904Y021414D03*
X005304Y019914D03*
X005404Y019614D03*
X005404Y019514D03*
X005404Y019414D03*
X009004Y024414D03*
X008704Y025114D03*
X008504Y025114D03*
X007904Y025214D03*
X007704Y025714D03*
X007904Y025914D03*
X007104Y026314D03*
X007204Y026614D03*
D37*
X007021Y026514D03*
X007054Y026414D03*
X007321Y026414D03*
X007188Y026114D03*
X007221Y026014D03*
X007554Y026114D03*
X007621Y025914D03*
X007854Y026014D03*
X007821Y026114D03*
X007721Y026314D03*
X007688Y026414D03*
X007954Y025814D03*
X007988Y025714D03*
X007788Y025514D03*
X007821Y025414D03*
X007954Y025114D03*
X008354Y025314D03*
X008621Y025314D03*
X008654Y025214D03*
X008754Y025014D03*
X008788Y024914D03*
X008488Y025614D03*
X008421Y025814D03*
X006721Y027314D03*
X005888Y021514D03*
X006021Y021414D03*
X006121Y021314D03*
X006221Y021214D03*
X006321Y021114D03*
X006654Y020614D03*
X006421Y018014D03*
X006254Y017814D03*
X006154Y017714D03*
X006054Y017614D03*
X005921Y017514D03*
X003154Y017414D03*
X002888Y017614D03*
X002754Y017714D03*
X002421Y018114D03*
X001754Y019614D03*
X002254Y020614D03*
X002588Y021114D03*
X002688Y021214D03*
X002788Y021314D03*
X003188Y021614D03*
X006021Y008714D03*
X006354Y008314D03*
X005854Y008214D03*
X005854Y008114D03*
X004888Y007814D03*
X004554Y008214D03*
X004388Y007614D03*
X003888Y007514D03*
X003888Y007414D03*
X003488Y008014D03*
X017554Y002014D03*
X025521Y009914D03*
X026288Y009514D03*
X026488Y010314D03*
X026654Y011714D03*
X025654Y017314D03*
X026454Y018314D03*
X026921Y019514D03*
X027821Y017514D03*
X024521Y019814D03*
X023254Y025114D03*
X023388Y025414D03*
X023421Y025514D03*
X023221Y025714D03*
X023254Y025814D03*
X023354Y026014D03*
X023388Y026114D03*
X023488Y026314D03*
X023521Y026414D03*
X023654Y026114D03*
X023588Y025914D03*
X023988Y026014D03*
X024021Y026114D03*
X023888Y026414D03*
X024154Y026414D03*
X024188Y026514D03*
X024488Y027314D03*
X022788Y025814D03*
X022721Y025614D03*
X022588Y025314D03*
X022554Y025214D03*
X022454Y025014D03*
X022421Y024914D03*
X022854Y025314D03*
D38*
X025504Y021814D03*
X025804Y021814D03*
X027104Y019814D03*
X025004Y018014D03*
X025504Y016914D03*
X024004Y019614D03*
X028804Y016914D03*
X026204Y009714D03*
X026204Y009614D03*
X019004Y002314D03*
X019004Y002214D03*
X018804Y002014D03*
D39*
X014838Y002047D03*
X014838Y002081D03*
X014838Y002181D03*
X014838Y002247D03*
X006171Y008181D03*
X004571Y017647D03*
X004571Y017681D03*
X004071Y018647D03*
X003238Y019081D03*
X002371Y018747D03*
X004371Y021081D03*
X004338Y021347D03*
X005238Y021081D03*
X004871Y020347D03*
X005738Y019281D03*
X006638Y019281D03*
X006638Y019247D03*
X006638Y019181D03*
X006538Y020247D03*
X006538Y020281D03*
X023071Y021847D03*
X023138Y021881D03*
X023271Y021947D03*
X023571Y022081D03*
X023938Y022247D03*
X024171Y022347D03*
X024238Y022381D03*
X024471Y022481D03*
X024671Y022581D03*
X024838Y022647D03*
X025138Y022781D03*
X025271Y022847D03*
X025338Y022881D03*
X025571Y022981D03*
X024971Y021847D03*
X026971Y020681D03*
X027271Y018447D03*
X026238Y017981D03*
X025371Y016647D03*
X026271Y015747D03*
X026338Y015781D03*
X026571Y015881D03*
X026771Y015981D03*
X026938Y016047D03*
X027138Y016147D03*
X027238Y016181D03*
X027371Y016247D03*
X027438Y016281D03*
X027671Y016381D03*
X028038Y016547D03*
X028271Y016647D03*
X028338Y016681D03*
X028471Y016747D03*
X026038Y015647D03*
X024471Y018647D03*
X024838Y019381D03*
X024038Y019647D03*
X024671Y011581D03*
X024038Y010747D03*
X025938Y010747D03*
X026038Y010681D03*
X025738Y008381D03*
X025871Y008181D03*
X025971Y008047D03*
X026171Y007781D03*
X026238Y007681D03*
X026271Y007647D03*
X026338Y007547D03*
X026471Y007381D03*
X026538Y007281D03*
X026571Y007247D03*
X026638Y007147D03*
X026671Y007081D03*
X026938Y006747D03*
D40*
X026888Y006847D03*
X026888Y006881D03*
X024621Y010481D03*
X024688Y011047D03*
X025988Y016947D03*
X026221Y017947D03*
X027488Y017881D03*
X028288Y017647D03*
X027588Y019147D03*
X027388Y019647D03*
X025721Y019681D03*
X025088Y018947D03*
X024521Y018681D03*
X023388Y021147D03*
X025021Y021881D03*
X006588Y019881D03*
X006588Y019381D03*
X006121Y018047D03*
X003121Y019481D03*
X002321Y019181D03*
X002321Y019147D03*
X002788Y018081D03*
X002888Y017947D03*
X005121Y020947D03*
X006121Y020947D03*
X013788Y002681D03*
X012288Y002181D03*
X015421Y002081D03*
X015421Y002747D03*
X016021Y002681D03*
X016621Y002181D03*
X018288Y002681D03*
D41*
X014838Y002214D03*
X014838Y002114D03*
X005671Y008014D03*
X005171Y007814D03*
X004571Y017914D03*
X005738Y019314D03*
X006638Y019214D03*
X004338Y021314D03*
X003971Y021914D03*
X004938Y021914D03*
X003171Y019514D03*
X007371Y026514D03*
X023438Y022014D03*
X023638Y022114D03*
X023871Y022214D03*
X024538Y022514D03*
X024771Y022614D03*
X024971Y022714D03*
X025638Y023014D03*
X023371Y021114D03*
X025271Y018414D03*
X025971Y016914D03*
X026638Y015914D03*
X027071Y016114D03*
X027738Y016414D03*
X027971Y016514D03*
X028171Y016614D03*
X025971Y015614D03*
X026838Y019414D03*
X023838Y026514D03*
X026138Y010614D03*
X024671Y010414D03*
X025638Y008514D03*
X026071Y007914D03*
X026138Y007814D03*
X026371Y007514D03*
X026438Y007414D03*
X026571Y007214D03*
X026671Y007114D03*
X026938Y006714D03*
D42*
X026288Y007614D03*
X026221Y007714D03*
X025921Y008114D03*
X025788Y008314D03*
X025188Y006914D03*
X025388Y010114D03*
X025388Y010214D03*
X024688Y011414D03*
X024021Y012014D03*
X027721Y017414D03*
X026388Y020414D03*
X025121Y020414D03*
X024621Y019914D03*
X024688Y021414D03*
X026121Y023214D03*
X006588Y019914D03*
X006621Y019314D03*
X005688Y019114D03*
X005688Y019914D03*
X005621Y020014D03*
X005188Y021014D03*
X003221Y019114D03*
X003721Y018014D03*
X018321Y002114D03*
D43*
X014854Y002147D03*
X005654Y007981D03*
X004688Y007647D03*
X003688Y007281D03*
X004554Y017847D03*
X004554Y017881D03*
X004921Y018681D03*
X006621Y019047D03*
X006621Y019081D03*
X006654Y019147D03*
X006588Y020081D03*
X006588Y020147D03*
X006588Y020181D03*
X004354Y021147D03*
X004054Y020347D03*
X003188Y019547D03*
X002821Y019681D03*
X002321Y018947D03*
X002321Y018881D03*
X002321Y018847D03*
X002354Y018781D03*
X008054Y025081D03*
X007321Y025981D03*
X018921Y014547D03*
X023054Y011247D03*
X026188Y009881D03*
X026188Y009847D03*
X026188Y009781D03*
X025254Y007881D03*
X025254Y007847D03*
X025254Y007781D03*
X025254Y007747D03*
X025254Y007681D03*
X025254Y007647D03*
X025254Y007581D03*
X025254Y007547D03*
X025254Y007481D03*
X025254Y007447D03*
X026954Y006681D03*
X025588Y015447D03*
X026488Y015847D03*
X026721Y016981D03*
X027754Y017447D03*
X028554Y016781D03*
X028688Y016847D03*
X027888Y016481D03*
X028088Y018181D03*
X027554Y018847D03*
X026521Y018381D03*
X026054Y018481D03*
X026321Y018881D03*
X025888Y019847D03*
X025154Y020447D03*
X025421Y020847D03*
X024921Y020947D03*
X024388Y020381D03*
X024121Y019981D03*
X024588Y019881D03*
X023888Y020481D03*
X024154Y020881D03*
X023354Y021981D03*
X023721Y022147D03*
X024021Y022281D03*
X024388Y022447D03*
X025054Y022747D03*
X026521Y021681D03*
X024554Y018981D03*
X024688Y018147D03*
X023154Y025081D03*
X023888Y025981D03*
D44*
X026004Y022647D03*
X024204Y020947D03*
X024304Y019181D03*
X026804Y019381D03*
X027004Y018881D03*
X027804Y018647D03*
X027704Y017381D03*
X025704Y016081D03*
X024004Y011281D03*
X024004Y011247D03*
X015404Y002681D03*
X015404Y002181D03*
X015404Y002147D03*
X018904Y002147D03*
X018904Y002181D03*
X003804Y018081D03*
X003304Y018847D03*
X003304Y018881D03*
X005604Y020147D03*
X006404Y020381D03*
X006504Y018847D03*
X006304Y018381D03*
X006304Y018347D03*
D45*
X004538Y018014D03*
X006138Y020914D03*
X023071Y012614D03*
X024071Y011914D03*
X024071Y011814D03*
X023971Y010814D03*
X025371Y008814D03*
X025138Y007014D03*
X018271Y002714D03*
X012871Y002714D03*
X026671Y016914D03*
X025971Y018414D03*
X025771Y018914D03*
X025938Y019914D03*
X026471Y021614D03*
D46*
X026304Y022147D03*
X025804Y023081D03*
X025704Y023047D03*
X025504Y022947D03*
X024904Y022681D03*
X024604Y022547D03*
X023804Y022181D03*
X023504Y022047D03*
X026104Y019381D03*
X025804Y018947D03*
X027004Y017381D03*
X027604Y016347D03*
X027804Y016447D03*
X028104Y016581D03*
X028304Y017681D03*
X027004Y016081D03*
X026704Y015947D03*
X026104Y015681D03*
X024004Y012047D03*
X025404Y010581D03*
X025404Y010547D03*
X025404Y010481D03*
X025404Y010447D03*
X025404Y010381D03*
X025404Y010347D03*
X025404Y010281D03*
X025404Y010247D03*
X025404Y010047D03*
X026104Y010647D03*
X026204Y010581D03*
X025904Y010781D03*
X025304Y008981D03*
X025804Y008281D03*
X025904Y008147D03*
X026104Y007881D03*
X026204Y007747D03*
X026404Y007447D03*
X026604Y007181D03*
X026704Y007047D03*
X025204Y006881D03*
X025204Y006847D03*
X016004Y002747D03*
X013804Y002747D03*
X004204Y007481D03*
X002304Y018981D03*
X002304Y019047D03*
X002304Y019081D03*
X002204Y019447D03*
X005204Y021047D03*
X006604Y020047D03*
X006604Y019981D03*
X005704Y019247D03*
X005704Y019181D03*
X006604Y018981D03*
X027404Y019681D03*
D47*
X026221Y018781D03*
X026121Y018581D03*
X025088Y011181D03*
X025188Y009347D03*
X026321Y009481D03*
X027121Y006281D03*
X022788Y025847D03*
X023888Y026381D03*
X008421Y025847D03*
X007321Y026381D03*
X006921Y019481D03*
X006921Y019447D03*
X002021Y019181D03*
X003988Y008281D03*
X003588Y007881D03*
D48*
X002504Y018014D03*
X002304Y018314D03*
X002204Y018514D03*
X002104Y018814D03*
X002004Y019214D03*
X002004Y019314D03*
X001804Y019914D03*
X001804Y020014D03*
X002104Y020214D03*
X002204Y020514D03*
X002304Y020714D03*
X002504Y021014D03*
X006404Y021014D03*
X006604Y020714D03*
X006704Y020514D03*
X006804Y020214D03*
X006904Y019814D03*
X006904Y019714D03*
X006904Y019314D03*
X006904Y019214D03*
X006904Y019114D03*
X006804Y018714D03*
X006704Y018514D03*
X006604Y018314D03*
X006504Y018114D03*
X008004Y024914D03*
X023204Y024914D03*
X027604Y018014D03*
X025304Y017614D03*
X025204Y009314D03*
X027104Y006314D03*
D49*
X027104Y006347D03*
X024804Y010281D03*
X025004Y010447D03*
X025104Y011147D03*
X022904Y012881D03*
X026904Y017281D03*
X026004Y019281D03*
X024404Y019581D03*
X024304Y020281D03*
X024904Y021747D03*
X022204Y024347D03*
X023604Y026647D03*
X009004Y024347D03*
X007604Y026647D03*
X006204Y021247D03*
X006504Y020881D03*
X006704Y020481D03*
X006804Y020281D03*
X006804Y020247D03*
X006904Y019881D03*
X006904Y019847D03*
X006904Y019781D03*
X006904Y019747D03*
X006904Y019681D03*
X006904Y019647D03*
X006904Y019381D03*
X006904Y019347D03*
X006904Y019281D03*
X006904Y019247D03*
X006904Y019181D03*
X006904Y019147D03*
X006804Y018781D03*
X006804Y018747D03*
X006704Y018481D03*
X006604Y018281D03*
X006404Y017981D03*
X002604Y017881D03*
X002404Y018147D03*
X002204Y018481D03*
X002204Y018547D03*
X002104Y018747D03*
X002104Y018781D03*
X002104Y018847D03*
X002004Y019247D03*
X002004Y019281D03*
X001804Y019947D03*
X001804Y019981D03*
X002104Y020181D03*
X002104Y020247D03*
X002204Y020481D03*
X002304Y020681D03*
D50*
X007254Y025847D03*
X007554Y026147D03*
X008354Y025347D03*
X022854Y025347D03*
X023654Y026147D03*
X023954Y025847D03*
X024054Y020781D03*
X023954Y020581D03*
X025254Y020547D03*
X024654Y019081D03*
X027154Y019047D03*
X027254Y019247D03*
X025754Y010981D03*
X025554Y009881D03*
X025354Y006481D03*
X005954Y008981D03*
X005554Y008581D03*
D51*
X004154Y007414D03*
X024154Y010614D03*
X025354Y006514D03*
X025554Y015914D03*
X026154Y022814D03*
D52*
X025338Y020747D03*
X025571Y020281D03*
X025438Y020047D03*
X024738Y019281D03*
X026338Y018081D03*
X026571Y017547D03*
X025738Y016581D03*
X027371Y018547D03*
X027938Y017747D03*
X024538Y011781D03*
X025271Y011281D03*
X025771Y010947D03*
X026538Y010281D03*
X023138Y011147D03*
X025338Y006547D03*
X006771Y018647D03*
X006771Y018681D03*
X006738Y018581D03*
X006738Y018547D03*
X006671Y018447D03*
X006638Y018347D03*
X006571Y018247D03*
X006538Y018181D03*
X006471Y018081D03*
X006438Y018047D03*
X006371Y017947D03*
X006838Y018847D03*
X006838Y018881D03*
X006871Y018947D03*
X006871Y018981D03*
X006871Y019047D03*
X006871Y019081D03*
X006938Y019547D03*
X006938Y019581D03*
X006871Y019947D03*
X006871Y019981D03*
X006871Y020047D03*
X006838Y020081D03*
X006838Y020147D03*
X006838Y020181D03*
X006771Y020347D03*
X006771Y020381D03*
X006738Y020447D03*
X006671Y020581D03*
X006638Y020647D03*
X006571Y020781D03*
X006438Y020981D03*
X006371Y021047D03*
X002571Y021081D03*
X002538Y021047D03*
X002471Y020947D03*
X002338Y020747D03*
X002271Y020647D03*
X002238Y020581D03*
X002238Y020547D03*
X002171Y020447D03*
X002171Y020381D03*
X002138Y020347D03*
X002138Y020281D03*
X001771Y019847D03*
X001771Y019781D03*
X001771Y019747D03*
X001771Y019681D03*
X001771Y019647D03*
X001738Y019581D03*
X001738Y019547D03*
X001738Y019481D03*
X002038Y019147D03*
X002038Y019081D03*
X002038Y019047D03*
X002038Y018981D03*
X002071Y018947D03*
X002071Y018881D03*
X002138Y018681D03*
X002138Y018647D03*
X002171Y018581D03*
X002238Y018447D03*
X002271Y018381D03*
X002338Y018247D03*
X002371Y018181D03*
X002471Y018047D03*
X002538Y017947D03*
X002638Y017847D03*
X005438Y008647D03*
X004971Y008481D03*
X004471Y008447D03*
X004071Y008047D03*
X003471Y007947D03*
X006038Y008747D03*
D53*
X004554Y017714D03*
X004554Y017814D03*
X006621Y019014D03*
X006654Y019114D03*
X006588Y020114D03*
X006554Y020214D03*
X004354Y021114D03*
X003988Y020314D03*
X002321Y018914D03*
X002354Y018814D03*
X007488Y026014D03*
X022988Y021814D03*
X023554Y020614D03*
X023788Y020114D03*
X024254Y019114D03*
X025488Y017914D03*
X026621Y019914D03*
X026188Y020914D03*
X026388Y021414D03*
X025954Y021414D03*
X026054Y022714D03*
X025421Y022914D03*
X023721Y026014D03*
X027854Y018714D03*
X028621Y016814D03*
X027521Y016314D03*
X026854Y016014D03*
X024654Y011614D03*
X025421Y010014D03*
X026188Y009914D03*
X026188Y009814D03*
X025288Y009014D03*
X025254Y007814D03*
X025254Y007714D03*
X025254Y007614D03*
X025254Y007514D03*
X025221Y006814D03*
D54*
X026854Y006914D03*
X026454Y017414D03*
X027254Y018414D03*
X027154Y020114D03*
X024954Y017714D03*
X005754Y019814D03*
X002754Y018114D03*
D55*
X002721Y018214D03*
X002354Y019214D03*
X004454Y018514D03*
X005254Y018514D03*
X005388Y018614D03*
X006321Y018414D03*
X006588Y019414D03*
X006554Y019814D03*
X005588Y020214D03*
X006188Y020814D03*
X023954Y010914D03*
X023988Y011014D03*
X023988Y011114D03*
X023988Y011214D03*
X024021Y011314D03*
X024021Y011414D03*
X026288Y010414D03*
X024688Y007614D03*
X026821Y007014D03*
X026221Y016314D03*
X025421Y016714D03*
X026188Y017914D03*
X024754Y018214D03*
X024088Y019714D03*
X025121Y021114D03*
X025488Y020914D03*
X025054Y021914D03*
X025488Y022414D03*
X024388Y021914D03*
X026888Y020614D03*
X027354Y019614D03*
X028021Y018114D03*
D56*
X027454Y017847D03*
X027221Y018381D03*
X027054Y017447D03*
X027288Y016781D03*
X026421Y017381D03*
X026021Y016981D03*
X026288Y016347D03*
X025588Y015481D03*
X028354Y017247D03*
X025321Y018481D03*
X024888Y019447D03*
X025088Y020381D03*
X024854Y020881D03*
X024454Y020447D03*
X023854Y020181D03*
X023354Y021447D03*
X023421Y021481D03*
X024454Y021947D03*
X025421Y022381D03*
X025888Y021347D03*
X026121Y020847D03*
X026321Y020347D03*
X024054Y011781D03*
X024054Y011747D03*
X024021Y011381D03*
X024021Y011347D03*
X023988Y011181D03*
X023988Y011147D03*
X023988Y011081D03*
X023988Y011047D03*
X023988Y010981D03*
X023954Y010947D03*
X023954Y010881D03*
X023954Y010847D03*
X025321Y011047D03*
X025321Y011081D03*
X026288Y010447D03*
X025388Y008747D03*
X024554Y007781D03*
X024821Y007447D03*
X025121Y007081D03*
X006188Y020781D03*
X005588Y020181D03*
X005788Y019781D03*
X005821Y019447D03*
X005688Y018947D03*
X005288Y018547D03*
X004588Y017547D03*
X004454Y017147D03*
X002488Y018647D03*
X004188Y020381D03*
X004321Y021447D03*
X005354Y021147D03*
D57*
X005688Y018914D03*
X022588Y010214D03*
X022921Y009814D03*
X022988Y009714D03*
X023088Y009614D03*
X023321Y009314D03*
X023388Y009214D03*
X023488Y009114D03*
X023721Y008814D03*
X023888Y008614D03*
X025121Y007114D03*
X025721Y016114D03*
X025088Y017514D03*
X024921Y017914D03*
X024688Y018414D03*
X024321Y019214D03*
X024288Y019314D03*
X023821Y020314D03*
X023788Y020414D03*
X023388Y021314D03*
X026088Y020814D03*
X027021Y020314D03*
X027788Y018614D03*
X026121Y022314D03*
D58*
X025071Y021947D03*
X024371Y021881D03*
X024038Y021481D03*
X024238Y020981D03*
X024471Y020481D03*
X024838Y020847D03*
X025738Y020481D03*
X025271Y019847D03*
X026404Y018981D03*
X027204Y018347D03*
X026871Y017981D03*
X026171Y017881D03*
X026338Y016381D03*
X023104Y012547D03*
X023104Y012481D03*
X023071Y012381D03*
X023071Y012347D03*
X023038Y012247D03*
X023038Y012181D03*
X023038Y012147D03*
X021904Y011081D03*
X021938Y011047D03*
X021971Y010981D03*
X022004Y010947D03*
X022071Y010881D03*
X022071Y010847D03*
X022138Y010781D03*
X022171Y010747D03*
X022204Y010681D03*
X022238Y010647D03*
X022304Y010581D03*
X022338Y010547D03*
X022371Y010481D03*
X022404Y010447D03*
X022538Y010281D03*
X022571Y010247D03*
X022704Y010081D03*
X022804Y009947D03*
X022971Y009747D03*
X023104Y009581D03*
X024738Y010547D03*
X024738Y010581D03*
X021838Y011147D03*
X021804Y011181D03*
X021771Y011247D03*
X021738Y011281D03*
X021671Y011347D03*
X021604Y011447D03*
X021571Y011481D03*
X021438Y011647D03*
X021338Y011781D03*
X021171Y011981D03*
X021038Y012147D03*
X019104Y014481D03*
X025104Y007147D03*
X006304Y018547D03*
X005704Y018881D03*
X005471Y018647D03*
X005538Y017581D03*
X003771Y018447D03*
X002704Y018347D03*
X005171Y020547D03*
X006204Y020681D03*
D59*
X005588Y020281D03*
X004288Y021481D03*
X003488Y021481D03*
X003421Y021447D03*
X003321Y018747D03*
X005488Y017547D03*
X020121Y013281D03*
X020288Y013081D03*
X020388Y012947D03*
X020521Y012781D03*
X020688Y012581D03*
X020721Y012547D03*
X020788Y012447D03*
X020888Y012347D03*
X020921Y012281D03*
X021021Y012181D03*
X021088Y012081D03*
X021121Y012047D03*
X021188Y011947D03*
X021288Y011847D03*
X021421Y011681D03*
X021488Y011581D03*
X021521Y011547D03*
X022921Y011547D03*
X022921Y011581D03*
X022921Y011647D03*
X023021Y012047D03*
X023021Y012081D03*
X027388Y016847D03*
X026388Y017347D03*
X025588Y018047D03*
X025921Y018347D03*
X025721Y018847D03*
X026188Y019481D03*
X025988Y019981D03*
X026688Y020981D03*
X026188Y022081D03*
X025621Y021781D03*
X023488Y021181D03*
X025088Y007181D03*
D60*
X025071Y007214D03*
X025138Y013114D03*
X027638Y017314D03*
X026438Y019014D03*
X025471Y019314D03*
X025038Y020314D03*
X024271Y021014D03*
X025371Y022314D03*
X019771Y013714D03*
X019871Y013614D03*
X019938Y013514D03*
X020171Y013214D03*
X020338Y013014D03*
X005571Y020314D03*
X003838Y018414D03*
X003271Y021314D03*
D61*
X003338Y021381D03*
X005638Y017681D03*
X019738Y013781D03*
X019738Y013747D03*
X019838Y013647D03*
X019871Y013581D03*
X019971Y013481D03*
X020038Y013381D03*
X020071Y013347D03*
X020238Y013147D03*
X020371Y012981D03*
X020471Y012847D03*
X020638Y012647D03*
X020771Y012481D03*
X023038Y011981D03*
X025771Y016147D03*
X026071Y017047D03*
X026071Y020781D03*
X025538Y020981D03*
X026171Y022047D03*
X025938Y022581D03*
X024338Y021847D03*
X025071Y007247D03*
D62*
X025054Y007281D03*
X023921Y011547D03*
X027421Y016881D03*
X027388Y017781D03*
X026121Y017847D03*
X025854Y017547D03*
X025388Y018547D03*
X025188Y019047D03*
X026254Y020281D03*
X026721Y019281D03*
X025588Y021747D03*
X006288Y018581D03*
X005721Y018847D03*
X005688Y017747D03*
X004454Y018547D03*
X003254Y021281D03*
D63*
X002304Y019014D03*
X002404Y018714D03*
X005704Y019214D03*
X006604Y020014D03*
X006504Y020314D03*
X003704Y007314D03*
X023004Y012714D03*
X025404Y011114D03*
X025404Y010514D03*
X025404Y010414D03*
X025404Y010314D03*
X026004Y010714D03*
X025704Y008414D03*
X026004Y008014D03*
X026504Y007314D03*
X026204Y015714D03*
X026404Y015814D03*
X027304Y016214D03*
X028404Y016714D03*
X027504Y017914D03*
X024104Y022314D03*
X024304Y022414D03*
X025204Y022814D03*
X023204Y021914D03*
D64*
X025338Y021514D03*
X026171Y022014D03*
X025771Y020514D03*
X025238Y019814D03*
X026571Y016814D03*
X025038Y007314D03*
X006271Y018614D03*
D65*
X005588Y020347D03*
X006188Y020581D03*
X005421Y021447D03*
X002721Y018447D03*
X003621Y017481D03*
X023888Y011581D03*
X025021Y007347D03*
X025788Y016181D03*
X026388Y016447D03*
X025321Y017247D03*
X025321Y017281D03*
X025421Y018581D03*
X026488Y019747D03*
X027121Y018281D03*
X024521Y020547D03*
X025321Y022281D03*
D66*
X025371Y021547D03*
X025771Y021247D03*
X025804Y020547D03*
X026238Y020247D03*
X026571Y021047D03*
X024971Y019681D03*
X024771Y020081D03*
X025204Y019081D03*
X026671Y019247D03*
X026704Y018581D03*
X026938Y018047D03*
X027371Y017747D03*
X027571Y017247D03*
X026338Y017281D03*
X026104Y017081D03*
X025004Y007381D03*
X005738Y017847D03*
X003504Y017547D03*
X003471Y017581D03*
X003304Y018681D03*
X003171Y021181D03*
X005238Y021547D03*
X005371Y021481D03*
D67*
X005438Y021414D03*
X005004Y020614D03*
X003438Y017614D03*
X023071Y011914D03*
X023871Y011614D03*
X025004Y007414D03*
X027438Y016914D03*
X026104Y017814D03*
X025338Y017214D03*
X026004Y020714D03*
X025571Y021714D03*
X026104Y023114D03*
D68*
X026104Y023181D03*
X026104Y022347D03*
X026304Y021881D03*
X026504Y021481D03*
X026504Y021447D03*
X026904Y020581D03*
X026904Y020547D03*
X027004Y020347D03*
X027204Y019881D03*
X027404Y019481D03*
X027404Y019447D03*
X027804Y018581D03*
X027804Y018547D03*
X027904Y018381D03*
X027904Y018347D03*
X028104Y017881D03*
X028304Y017481D03*
X028304Y017447D03*
X026604Y018481D03*
X025804Y017481D03*
X025104Y017481D03*
X024904Y017947D03*
X024704Y018381D03*
X024304Y019247D03*
X024204Y019481D03*
X023804Y020381D03*
X025304Y019881D03*
X025704Y020447D03*
X025604Y016381D03*
X025604Y016347D03*
X024004Y011447D03*
X025304Y010981D03*
X023504Y009081D03*
X023904Y008581D03*
X024004Y008447D03*
X024104Y008347D03*
X024304Y008081D03*
X024404Y007981D03*
X024404Y007947D03*
X024504Y007847D03*
X024704Y007581D03*
X024804Y007481D03*
X006304Y018447D03*
X005904Y021147D03*
X002704Y018281D03*
X002704Y018247D03*
D69*
X002371Y018214D03*
X002238Y018414D03*
X002171Y018614D03*
X002138Y018714D03*
X002071Y018914D03*
X002038Y019014D03*
X002038Y019114D03*
X001738Y019514D03*
X001771Y019714D03*
X001771Y019814D03*
X002138Y020314D03*
X002171Y020414D03*
X002371Y020814D03*
X002438Y020914D03*
X002571Y017914D03*
X002671Y017814D03*
X006338Y017914D03*
X006571Y018214D03*
X006671Y018414D03*
X006771Y018614D03*
X006838Y018814D03*
X006838Y018914D03*
X006871Y019014D03*
X006871Y019914D03*
X006871Y020014D03*
X006838Y020114D03*
X006771Y020314D03*
X006738Y020414D03*
X006538Y020814D03*
X006471Y020914D03*
X004971Y008614D03*
X004471Y008314D03*
X004038Y007514D03*
X006038Y008214D03*
X024771Y021514D03*
X026038Y021514D03*
X026471Y020514D03*
X024971Y018814D03*
X025871Y016814D03*
D70*
X025571Y016414D03*
X025638Y016314D03*
X025138Y017414D03*
X025571Y018014D03*
X024738Y018314D03*
X024538Y018714D03*
X024238Y019414D03*
X023871Y020214D03*
X023638Y020714D03*
X023338Y021414D03*
X025971Y022614D03*
X026071Y022414D03*
X026338Y021814D03*
X026471Y021514D03*
X026738Y020914D03*
X026938Y020514D03*
X026971Y020414D03*
X027371Y019514D03*
X027438Y019414D03*
X027571Y019114D03*
X027638Y018914D03*
X027838Y018514D03*
X027871Y018414D03*
X028238Y017614D03*
X028271Y017514D03*
X028338Y017414D03*
X028371Y017314D03*
X027338Y016814D03*
X023238Y009414D03*
X023638Y008914D03*
X023971Y008514D03*
X024038Y008414D03*
X024138Y008314D03*
X024271Y008114D03*
X024371Y008014D03*
X024438Y007914D03*
X024538Y007814D03*
X024771Y007514D03*
D71*
X024738Y007547D03*
X024671Y007647D03*
X024638Y007681D03*
X024571Y007747D03*
X024471Y007881D03*
X024338Y008047D03*
X024271Y008147D03*
X024238Y008181D03*
X024171Y008247D03*
X024138Y008281D03*
X024071Y008381D03*
X023938Y008547D03*
X023838Y008681D03*
X023771Y008747D03*
X023671Y008881D03*
X023538Y009047D03*
X023371Y009247D03*
X024738Y010981D03*
X022938Y011381D03*
X025571Y016447D03*
X025538Y016481D03*
X025438Y016747D03*
X025171Y017347D03*
X024971Y017747D03*
X024971Y017781D03*
X024938Y017847D03*
X024671Y018447D03*
X024538Y018747D03*
X024471Y018881D03*
X024271Y019347D03*
X024071Y019781D03*
X024038Y019847D03*
X024671Y019981D03*
X023771Y020447D03*
X023638Y020747D03*
X023571Y020881D03*
X023538Y020947D03*
X025138Y018981D03*
X025738Y018881D03*
X026171Y019447D03*
X026771Y019347D03*
X027338Y019581D03*
X027371Y019547D03*
X027438Y019381D03*
X027571Y019081D03*
X027638Y018947D03*
X027671Y018881D03*
X027838Y018481D03*
X027871Y018447D03*
X028038Y018081D03*
X028038Y018047D03*
X028071Y017981D03*
X028138Y017847D03*
X028238Y017581D03*
X028271Y017547D03*
X028338Y017381D03*
X028371Y017347D03*
X028371Y017281D03*
X027671Y017347D03*
X026838Y017947D03*
X026638Y016881D03*
X027238Y019847D03*
X027171Y019947D03*
X027171Y019981D03*
X027138Y020047D03*
X027138Y020081D03*
X026971Y020447D03*
X026938Y020481D03*
X026771Y020847D03*
X026771Y020881D03*
X026738Y020947D03*
X026471Y021547D03*
X026438Y021581D03*
X026338Y021847D03*
X026271Y021947D03*
X026271Y021981D03*
X004538Y018047D03*
X003071Y019447D03*
X002371Y019247D03*
D72*
X003304Y018814D03*
X023604Y020814D03*
X024004Y019914D03*
X024504Y018814D03*
X025404Y016814D03*
X027604Y019014D03*
X027204Y019914D03*
X028104Y017914D03*
X026304Y021914D03*
X025304Y011014D03*
X025404Y008714D03*
X024604Y007714D03*
X024204Y008214D03*
X023804Y008714D03*
D73*
X025654Y008481D03*
X025754Y008347D03*
X025954Y008081D03*
X026054Y007947D03*
X025354Y019947D03*
X025654Y020381D03*
X025454Y020881D03*
X026154Y020881D03*
X005754Y019347D03*
X005654Y019947D03*
X005654Y019981D03*
X005154Y020981D03*
X004354Y021047D03*
X003254Y019047D03*
X003754Y018047D03*
X003654Y017947D03*
X004554Y017947D03*
D74*
X003254Y019014D03*
X006554Y018914D03*
X025054Y018914D03*
X026554Y018414D03*
X027054Y018914D03*
X025754Y017414D03*
X025854Y008214D03*
D75*
X025421Y008647D03*
X025421Y008681D03*
X023988Y008481D03*
X023688Y008847D03*
X023621Y008947D03*
X023588Y008981D03*
X023421Y009181D03*
X023288Y009347D03*
X023221Y009447D03*
X023188Y009481D03*
X023121Y009547D03*
X023021Y009681D03*
X022888Y009847D03*
X022788Y009981D03*
X022721Y010047D03*
X022621Y010181D03*
X022488Y010347D03*
X023988Y011481D03*
X023088Y012447D03*
X023088Y012581D03*
X025421Y016781D03*
X025388Y016847D03*
X025388Y016881D03*
X025121Y017447D03*
X024921Y017881D03*
X024888Y017981D03*
X024721Y018347D03*
X024521Y018781D03*
X024488Y018847D03*
X024288Y019281D03*
X024221Y019447D03*
X024088Y019747D03*
X024021Y019881D03*
X023988Y019947D03*
X023821Y020347D03*
X023621Y020781D03*
X023588Y020847D03*
X023388Y021281D03*
X024621Y021347D03*
X025288Y021447D03*
X025521Y020947D03*
X025388Y022347D03*
X026088Y022381D03*
X026988Y020381D03*
X027588Y019047D03*
X027621Y018981D03*
X026988Y018847D03*
X028088Y017947D03*
X027088Y017481D03*
X025521Y019347D03*
X024921Y019481D03*
X006521Y019781D03*
X006188Y020747D03*
X005588Y020247D03*
X004388Y020947D03*
X003321Y018781D03*
X003721Y018481D03*
X005188Y018481D03*
X006321Y018481D03*
D76*
X005154Y018447D03*
X004454Y021847D03*
X004454Y021981D03*
X020154Y013247D03*
X020454Y012881D03*
X020554Y012747D03*
X020854Y012381D03*
X020954Y012247D03*
X021254Y011881D03*
X021354Y011747D03*
X021654Y011381D03*
X022954Y011681D03*
X023054Y012281D03*
X024754Y010647D03*
X025454Y008581D03*
D77*
X025438Y008614D03*
X024738Y010614D03*
X022904Y011414D03*
X023038Y012214D03*
X023071Y012314D03*
X023071Y012414D03*
X023104Y012514D03*
X021871Y011114D03*
X021938Y011014D03*
X022038Y010914D03*
X022104Y010814D03*
X022204Y010714D03*
X022271Y010614D03*
X022438Y010414D03*
X022504Y010314D03*
X022671Y010114D03*
X022838Y009914D03*
X021704Y011314D03*
X021638Y011414D03*
X021471Y011614D03*
X021304Y011814D03*
X026038Y017014D03*
X025371Y018514D03*
X026738Y019314D03*
X026304Y020314D03*
X024704Y020014D03*
X006304Y018514D03*
X005571Y017614D03*
X003638Y018514D03*
X002704Y018314D03*
X006204Y020714D03*
D78*
X006554Y019447D03*
X004454Y020481D03*
X022454Y010381D03*
X022654Y010147D03*
X022854Y009881D03*
X022954Y009781D03*
X023054Y009647D03*
X023254Y009381D03*
X023354Y009281D03*
X023454Y009147D03*
X023754Y008781D03*
X023854Y008647D03*
X025154Y017381D03*
X024754Y018247D03*
X024754Y018281D03*
X024654Y018481D03*
X024454Y018947D03*
X024254Y019381D03*
X023854Y020247D03*
X023854Y020281D03*
X023354Y021347D03*
X023354Y021381D03*
X025054Y020347D03*
X025954Y019947D03*
X025954Y018381D03*
X027454Y019347D03*
D79*
X027154Y020014D03*
X026554Y019814D03*
X025854Y021314D03*
X024054Y019814D03*
X024454Y018914D03*
X024954Y017814D03*
X028054Y018014D03*
X023554Y020914D03*
X022354Y010514D03*
X022754Y010014D03*
X023154Y009514D03*
X023554Y009014D03*
D80*
X025004Y010681D03*
X025004Y010747D03*
X025004Y010781D03*
X025004Y010847D03*
X025004Y010881D03*
X025004Y010947D03*
X019504Y014347D03*
X026304Y019647D03*
X026504Y016581D03*
D81*
X025004Y010914D03*
X025004Y010814D03*
X025004Y010714D03*
D82*
X022921Y011514D03*
X022921Y011614D03*
X023021Y012014D03*
X023021Y012114D03*
X021788Y011214D03*
X021388Y011714D03*
X021221Y011914D03*
X020988Y012214D03*
X020888Y012314D03*
X020821Y012414D03*
X020588Y012714D03*
X020421Y012914D03*
X020021Y013414D03*
X025221Y017314D03*
X025821Y017514D03*
X027421Y017814D03*
X025588Y015514D03*
X024588Y021314D03*
X005421Y017514D03*
X003388Y021414D03*
D83*
X003304Y021347D03*
X005104Y020581D03*
X006204Y020647D03*
X004504Y018081D03*
X005604Y017647D03*
X002704Y018381D03*
X019804Y013681D03*
X019904Y013547D03*
X020004Y013447D03*
X020204Y013181D03*
X020304Y013047D03*
X020604Y012681D03*
X022904Y011481D03*
X022904Y011447D03*
X026604Y016847D03*
X026504Y019781D03*
X025304Y021481D03*
X026104Y023147D03*
D84*
X026154Y022114D03*
X025154Y019014D03*
X026654Y018514D03*
X026954Y018814D03*
X020654Y012614D03*
X020754Y012514D03*
X021054Y012114D03*
X021154Y012014D03*
X021554Y011514D03*
X020254Y013114D03*
X023954Y011514D03*
D85*
X023854Y011647D03*
X023121Y011847D03*
X025854Y016247D03*
X026954Y018081D03*
X025688Y018147D03*
X025621Y018747D03*
X026421Y019681D03*
X024621Y021147D03*
X024621Y021181D03*
X025854Y022481D03*
X005554Y021281D03*
X005621Y020381D03*
X003154Y021081D03*
X004454Y017047D03*
D86*
X003321Y017781D03*
X023821Y011681D03*
X027321Y017681D03*
X026821Y018681D03*
X026621Y019181D03*
X026188Y020181D03*
X025921Y020647D03*
X025888Y021147D03*
X025888Y021181D03*
X024621Y021247D03*
X024888Y020181D03*
X024821Y020147D03*
X025288Y019147D03*
X025721Y018181D03*
D87*
X023471Y011714D03*
X005771Y020514D03*
X003138Y020514D03*
D88*
X003121Y020947D03*
X002854Y019881D03*
X023188Y011747D03*
X024921Y013181D03*
X026088Y017147D03*
X024188Y021681D03*
X024988Y022047D03*
D89*
X026138Y020147D03*
X025338Y019781D03*
X025971Y017681D03*
X026471Y016547D03*
X023171Y011781D03*
X003271Y017881D03*
X002871Y019847D03*
D90*
X023154Y011814D03*
X026454Y016514D03*
X025854Y020614D03*
D91*
X027104Y018247D03*
X026304Y017247D03*
X026404Y016481D03*
X023104Y011881D03*
D92*
X025604Y011881D03*
X025604Y015547D03*
X027604Y017281D03*
X025004Y020281D03*
X023504Y021247D03*
X025904Y022547D03*
X019204Y014447D03*
X005704Y017781D03*
D93*
X005971Y018714D03*
X025971Y012114D03*
X025971Y012014D03*
X025971Y011914D03*
D94*
X023054Y011947D03*
X027154Y017547D03*
X026454Y019047D03*
X026254Y019547D03*
X025454Y019281D03*
X026554Y021081D03*
X004454Y020447D03*
D95*
X002971Y020347D03*
X005938Y018681D03*
X004938Y017481D03*
X025971Y012081D03*
X025971Y012047D03*
X025971Y011981D03*
X025971Y011947D03*
D96*
X025954Y012147D03*
X027654Y017147D03*
X004454Y017247D03*
D97*
X006921Y019414D03*
X006921Y019514D03*
X006921Y019614D03*
X008088Y025414D03*
X023121Y025414D03*
X026121Y021714D03*
X026821Y020214D03*
X026721Y020014D03*
X025188Y018314D03*
X023888Y012214D03*
D98*
X020504Y012814D03*
X020104Y013314D03*
X019704Y013814D03*
X024504Y020514D03*
X024804Y020814D03*
X027104Y017514D03*
X004604Y017514D03*
D99*
X003371Y017681D03*
X002938Y019747D03*
X006238Y018647D03*
X024271Y021781D03*
X024738Y020747D03*
X025538Y021681D03*
X025838Y020581D03*
X026071Y017781D03*
X027171Y017581D03*
X027471Y016947D03*
X025038Y013147D03*
D100*
X024804Y013214D03*
D101*
X024688Y013247D03*
X019788Y014247D03*
X003088Y018547D03*
D102*
X024554Y013281D03*
D103*
X024388Y013314D03*
D104*
X024188Y013347D03*
X004554Y018147D03*
D105*
X023988Y013381D03*
D106*
X023771Y013414D03*
D107*
X023588Y013447D03*
D108*
X023388Y013481D03*
X004454Y017381D03*
D109*
X020188Y014114D03*
X023188Y013514D03*
D110*
X022988Y013547D03*
D111*
X022804Y013581D03*
D112*
X022604Y013614D03*
D113*
X022404Y013647D03*
D114*
X022204Y013681D03*
D115*
X022021Y013714D03*
D116*
X021821Y013747D03*
D117*
X021621Y013781D03*
D118*
X021421Y013814D03*
D119*
X020971Y013847D03*
D120*
X020871Y013881D03*
D121*
X020771Y013914D03*
D122*
X020671Y013947D03*
X003871Y020747D03*
D123*
X020588Y013981D03*
D124*
X020488Y014014D03*
D125*
X020388Y014047D03*
D126*
X020288Y014081D03*
D127*
X020104Y014147D03*
D128*
X019988Y014181D03*
X004521Y018247D03*
X004521Y018281D03*
D129*
X004454Y021714D03*
X019888Y014214D03*
D130*
X019688Y014281D03*
X005988Y018747D03*
X002621Y019347D03*
D131*
X002788Y020014D03*
X019588Y014314D03*
D132*
X019404Y014381D03*
X025338Y019181D03*
X025538Y018681D03*
X026204Y019581D03*
X026571Y019147D03*
X027238Y017647D03*
X027504Y016981D03*
X024171Y021047D03*
X025504Y021647D03*
X025838Y022447D03*
X005771Y017981D03*
D133*
X019304Y014414D03*
X026204Y020214D03*
D134*
X025788Y021214D03*
X025888Y022514D03*
X024988Y019614D03*
X025021Y019514D03*
X025821Y016214D03*
D135*
X025888Y016281D03*
X027021Y018147D03*
X024688Y020681D03*
X024621Y020647D03*
X025021Y022081D03*
X005621Y021181D03*
X003121Y020981D03*
X003288Y017847D03*
D136*
X002721Y018414D03*
X003321Y018714D03*
X005654Y017714D03*
X006188Y020614D03*
X023488Y021214D03*
X025688Y018814D03*
X026221Y019514D03*
X027154Y018314D03*
X026354Y017314D03*
X026354Y016414D03*
D137*
X026538Y016614D03*
D138*
X026571Y016647D03*
D139*
X026604Y016681D03*
X026771Y016747D03*
X027738Y017181D03*
X006004Y018781D03*
X002938Y020281D03*
X002904Y020247D03*
X002771Y020047D03*
D140*
X026671Y016714D03*
D141*
X026554Y016781D03*
X025854Y018281D03*
X025654Y018781D03*
X026054Y020047D03*
X025754Y021281D03*
X024554Y020581D03*
X006154Y020547D03*
X004454Y018581D03*
X003954Y018381D03*
X005754Y017881D03*
X003154Y021147D03*
D142*
X027538Y017014D03*
D143*
X027554Y017047D03*
X025454Y022247D03*
D144*
X027604Y017081D03*
X006204Y019481D03*
X006204Y019547D03*
X006204Y019581D03*
D145*
X005538Y021314D03*
X025238Y019114D03*
X027338Y017714D03*
X026138Y017114D03*
D146*
X027638Y017114D03*
X004238Y018114D03*
D147*
X003338Y017747D03*
X004471Y017181D03*
X005771Y017947D03*
X003138Y021047D03*
X005571Y021247D03*
X024238Y021747D03*
X025971Y020681D03*
X026071Y020081D03*
X025471Y018647D03*
X025838Y018247D03*
X026038Y017747D03*
D148*
X026104Y017181D03*
X002838Y019947D03*
D149*
X004454Y017214D03*
D150*
X002788Y018514D03*
X002888Y019814D03*
X024588Y020614D03*
X024621Y021214D03*
X026521Y019114D03*
X025588Y018714D03*
X026988Y018114D03*
X026288Y017214D03*
D151*
X027821Y017214D03*
X003921Y021514D03*
D152*
X004454Y017281D03*
D153*
X004454Y017314D03*
D154*
X004454Y017347D03*
D155*
X004454Y017414D03*
D156*
X004454Y017447D03*
D157*
X003554Y017514D03*
D158*
X003421Y017647D03*
X002721Y018481D03*
X005521Y021347D03*
X005488Y021381D03*
X024521Y021281D03*
X024988Y020247D03*
X024988Y019647D03*
X024988Y019581D03*
X025021Y019547D03*
X025421Y019247D03*
X026488Y019081D03*
X026888Y018747D03*
X025888Y017581D03*
D159*
X025921Y017614D03*
X026721Y018614D03*
X026654Y019214D03*
X024788Y020114D03*
X005754Y017914D03*
X003354Y017714D03*
X004454Y020414D03*
X003154Y021114D03*
D160*
X024704Y020714D03*
X025404Y019214D03*
X027204Y017614D03*
D161*
X026754Y018647D03*
X025954Y017647D03*
X004954Y018381D03*
X003254Y018647D03*
D162*
X005788Y018014D03*
X024221Y021714D03*
X025421Y021014D03*
X026021Y017714D03*
D163*
X025804Y018214D03*
X026104Y020114D03*
X025904Y021114D03*
X025438Y021614D03*
X005604Y021214D03*
X003138Y021014D03*
X004471Y018614D03*
X003304Y017814D03*
D164*
X005721Y017814D03*
X005321Y021514D03*
X024288Y021814D03*
X026021Y020014D03*
X026588Y021014D03*
D165*
X025904Y018314D03*
X026904Y018014D03*
X005104Y018414D03*
X003204Y021214D03*
D166*
X003238Y021247D03*
X024738Y020047D03*
X024771Y020781D03*
X026038Y020747D03*
X026938Y018781D03*
X026671Y018547D03*
X025638Y018081D03*
D167*
X025654Y018114D03*
X025454Y018614D03*
X026454Y019714D03*
D168*
X004538Y018181D03*
D169*
X004454Y021947D03*
X027054Y018181D03*
D170*
X004538Y018214D03*
D171*
X024938Y020214D03*
X026871Y018714D03*
X027071Y018214D03*
X025038Y022114D03*
D172*
X004504Y018314D03*
D173*
X004504Y018347D03*
D174*
X003038Y018581D03*
X003071Y020447D03*
D175*
X003021Y018614D03*
D176*
X002888Y020214D03*
X006021Y018814D03*
D177*
X006171Y019747D03*
X003171Y020881D03*
X002738Y019281D03*
X024938Y021981D03*
D178*
X025288Y019714D03*
X006188Y019714D03*
X004688Y020914D03*
X002721Y019314D03*
D179*
X002588Y019381D03*
X002754Y020081D03*
X003021Y020381D03*
X004021Y021547D03*
X004454Y021747D03*
D180*
X002538Y019414D03*
D181*
X006204Y019514D03*
X006204Y019614D03*
D182*
X026254Y019614D03*
D183*
X025488Y021081D03*
X006188Y019681D03*
X006188Y019647D03*
X002821Y019981D03*
D184*
X023921Y021547D03*
X023988Y021581D03*
X024121Y021647D03*
X025321Y019747D03*
D185*
X025404Y021581D03*
X002904Y019781D03*
D186*
X002838Y019914D03*
X023838Y021514D03*
D187*
X002688Y020114D03*
D188*
X002854Y020147D03*
X025354Y022147D03*
D189*
X002888Y020181D03*
D190*
X002954Y020314D03*
D191*
X003038Y020414D03*
X005871Y020414D03*
D192*
X005854Y020447D03*
D193*
X005804Y020481D03*
X003104Y020481D03*
D194*
X003188Y020547D03*
D195*
X003238Y020581D03*
D196*
X003338Y020614D03*
D197*
X003871Y020647D03*
D198*
X003871Y020681D03*
D199*
X003888Y020714D03*
D200*
X003888Y020781D03*
D201*
X003888Y020814D03*
D202*
X003904Y020847D03*
D203*
X004654Y020881D03*
X004454Y021781D03*
X025388Y022181D03*
D204*
X024054Y021614D03*
X003154Y020914D03*
D205*
X025471Y021047D03*
D206*
X024204Y021081D03*
D207*
X024238Y021114D03*
X024971Y022014D03*
X025404Y022214D03*
D208*
X004438Y021581D03*
D209*
X004454Y021614D03*
D210*
X004454Y021647D03*
D211*
X004454Y021681D03*
D212*
X004454Y021814D03*
D213*
X009680Y012713D02*
X013696Y012713D01*
X013696Y010665D01*
X009680Y010665D01*
X009680Y012713D01*
D214*
X010441Y011902D02*
X010441Y011441D01*
X010134Y011441D01*
X010595Y011441D02*
X010748Y011595D01*
X010671Y011595D02*
X010901Y011595D01*
X010901Y011441D02*
X010901Y011902D01*
X010671Y011902D01*
X010595Y011825D01*
X010595Y011671D01*
X010671Y011595D01*
X011055Y011748D02*
X011055Y011825D01*
X011132Y011902D01*
X011285Y011902D01*
X011362Y011825D01*
X011515Y011825D02*
X011515Y011748D01*
X011592Y011671D01*
X011515Y011595D01*
X011515Y011518D01*
X011592Y011441D01*
X011745Y011441D01*
X011822Y011518D01*
X011976Y011441D02*
X012282Y011441D01*
X011976Y011748D01*
X011976Y011825D01*
X012052Y011902D01*
X012206Y011902D01*
X012282Y011825D01*
X012436Y011902D02*
X012743Y011902D01*
X012896Y011902D02*
X013203Y011902D01*
X013203Y011441D01*
X013203Y011671D02*
X013050Y011671D01*
X012589Y011441D02*
X012589Y011902D01*
X011822Y011825D02*
X011745Y011902D01*
X011592Y011902D01*
X011515Y011825D01*
X011592Y011671D02*
X011669Y011671D01*
X011362Y011441D02*
X011055Y011748D01*
X011055Y011441D02*
X011362Y011441D01*
X013864Y011364D02*
X013864Y011211D01*
X013940Y011134D01*
X013940Y010981D02*
X014324Y010981D01*
X014247Y011134D02*
X014324Y011211D01*
X014324Y011364D01*
X014247Y011441D01*
X014171Y011441D01*
X014094Y011364D01*
X014017Y011441D01*
X013940Y011441D01*
X013864Y011364D01*
X014094Y011364D02*
X014094Y011287D01*
X013940Y010981D02*
X013864Y010904D01*
X013864Y010750D01*
X013940Y010674D01*
X014324Y010674D01*
X005644Y009282D02*
X005517Y009630D01*
X005519Y009625D02*
X005349Y010091D01*
X005348Y010091D02*
X005339Y010111D01*
X005327Y010130D01*
X005312Y010147D01*
X005294Y010161D01*
X005274Y010172D01*
X005253Y010179D01*
X005231Y010184D01*
X005209Y010185D01*
X005187Y010182D01*
X005165Y010176D01*
X005165Y010177D02*
X004968Y010105D01*
X005519Y009625D02*
X002226Y008426D01*
X001201Y011242D01*
X002539Y011729D01*
X002412Y012077D01*
X002411Y012076D02*
X002406Y012088D01*
X002397Y012099D01*
X002386Y012107D01*
X002374Y012113D01*
X002361Y012116D01*
X002347Y012116D01*
X002334Y012112D01*
X002334Y012113D02*
X002334Y012113D01*
X002321Y012106D01*
X002310Y012097D01*
X002301Y012085D01*
X002294Y012072D01*
X002291Y012058D01*
X002292Y012043D01*
X002295Y012028D01*
X002316Y011971D01*
X002320Y011954D01*
X002321Y011937D01*
X002318Y011920D01*
X002313Y011904D01*
X002304Y011889D01*
X002292Y011876D01*
X002279Y011866D01*
X002263Y011858D01*
X002252Y011854D01*
X002235Y011850D01*
X002218Y011849D01*
X002201Y011852D01*
X002185Y011857D01*
X002170Y011866D01*
X002157Y011878D01*
X002147Y011891D01*
X002139Y011907D01*
X002117Y011969D01*
X002111Y011981D01*
X002103Y011992D01*
X002092Y012000D01*
X002079Y012006D01*
X002066Y012009D01*
X002052Y012009D01*
X002039Y012005D01*
X002038Y012005D02*
X002025Y011998D01*
X002014Y011989D01*
X002005Y011977D01*
X001998Y011964D01*
X001995Y011950D01*
X001996Y011935D01*
X001999Y011920D01*
X002116Y011599D01*
X001649Y011382D02*
X001857Y010811D01*
X001856Y010812D02*
X001865Y010792D01*
X001877Y010774D01*
X001892Y010758D01*
X001909Y010745D01*
X001928Y010734D01*
X001948Y010726D01*
X001969Y010722D01*
X001991Y010721D01*
X002012Y010724D01*
X002033Y010729D01*
X002034Y010729D02*
X002049Y010734D01*
X003431Y011167D01*
X003430Y011167D02*
X003443Y011172D01*
X003454Y011181D01*
X003463Y011192D01*
X003468Y011205D01*
X003471Y011218D01*
X003470Y011232D01*
X003466Y011246D01*
X003459Y011258D01*
X003449Y011268D01*
X003437Y011275D01*
X003424Y011279D01*
X003410Y011280D01*
X003396Y011277D01*
X003396Y011278D02*
X002111Y010904D01*
X002093Y010900D01*
X002074Y010900D01*
X002056Y010904D01*
X002039Y010911D01*
X002023Y010921D01*
X002010Y010934D01*
X001999Y010949D01*
X001992Y010966D01*
X001988Y010985D01*
X001987Y011003D01*
X001990Y011021D01*
X001996Y011039D01*
X002006Y011055D01*
X002018Y011069D01*
X002033Y011080D01*
X002050Y011088D01*
X002050Y011087D02*
X003280Y011629D01*
X003290Y011635D01*
X003299Y011644D01*
X003305Y011655D01*
X003308Y011666D01*
X003308Y011679D01*
X003304Y011690D01*
X003305Y011691D02*
X003210Y011950D01*
X002539Y011729D02*
X004494Y012441D01*
X004368Y012788D01*
X004368Y012789D02*
X004362Y012801D01*
X004354Y012812D01*
X004343Y012820D01*
X004330Y012826D01*
X004317Y012829D01*
X004303Y012829D01*
X004290Y012825D01*
X004290Y012825D01*
X004289Y012824D02*
X004276Y012817D01*
X004265Y012808D01*
X004256Y012796D01*
X004249Y012783D01*
X004246Y012769D01*
X004247Y012754D01*
X004250Y012739D01*
X004250Y012740D02*
X004271Y012683D01*
X004271Y012682D02*
X004275Y012666D01*
X004276Y012648D01*
X004273Y012631D01*
X004268Y012615D01*
X004259Y012600D01*
X004247Y012587D01*
X004234Y012577D01*
X004218Y012569D01*
X004208Y012566D01*
X004191Y012562D01*
X004174Y012561D01*
X004157Y012564D01*
X004141Y012569D01*
X004126Y012578D01*
X004113Y012590D01*
X004103Y012603D01*
X004095Y012619D01*
X004095Y012618D02*
X004072Y012681D01*
X004066Y012693D01*
X004058Y012704D01*
X004047Y012712D01*
X004034Y012718D01*
X004021Y012721D01*
X004007Y012721D01*
X003994Y012717D01*
X003981Y012710D01*
X003970Y012701D01*
X003961Y012689D01*
X003954Y012676D01*
X003951Y012662D01*
X003952Y012647D01*
X003955Y012632D01*
X004072Y012311D01*
X004494Y012441D02*
X004666Y011969D01*
X004671Y011948D01*
X004674Y011927D01*
X004673Y011905D01*
X004669Y011884D01*
X004661Y011864D01*
X004650Y011845D01*
X004637Y011828D01*
X004621Y011813D01*
X004603Y011801D01*
X004583Y011792D01*
X004366Y011713D01*
X005201Y012007D02*
X005528Y012453D01*
X005404Y012571D02*
X005450Y012669D01*
X005397Y012813D01*
X005299Y012859D01*
X005227Y012833D01*
X005043Y012439D01*
X004938Y012728D01*
X005096Y012295D02*
X005633Y012164D01*
X003727Y010869D02*
X003925Y010325D01*
X003931Y010305D01*
X003933Y010285D01*
X003932Y010264D01*
X003928Y010243D01*
X003921Y010224D01*
X003910Y010206D01*
X003897Y010189D01*
X003882Y010175D01*
X003865Y010164D01*
X003846Y010155D01*
X002386Y009535D01*
X002372Y009532D01*
X002359Y009531D01*
X002345Y009535D01*
X002333Y009542D01*
X002323Y009551D01*
X002316Y009563D01*
X002313Y009577D01*
X002312Y009590D01*
X002316Y009604D01*
X002323Y009616D01*
X002332Y009626D01*
X002344Y009633D01*
X002345Y009632D02*
X003473Y010113D01*
X003496Y010123D01*
X003516Y010136D01*
X003535Y010152D01*
X003551Y010170D01*
X003564Y010191D01*
X003575Y010213D01*
X003582Y010236D01*
X003585Y010260D01*
X003586Y010285D01*
X003582Y010309D01*
X003576Y010333D01*
X003457Y010659D01*
X003457Y010660D02*
X003447Y010681D01*
X003435Y010701D01*
X003419Y010719D01*
X003402Y010735D01*
X003382Y010748D01*
X003360Y010758D01*
X003338Y010765D01*
X003314Y010768D01*
X003290Y010769D01*
X003267Y010765D01*
X003244Y010759D01*
X003244Y010758D02*
X003219Y010749D01*
X002074Y010391D01*
X002074Y010392D02*
X002061Y010389D01*
X002047Y010390D01*
X002034Y010395D01*
X002022Y010402D01*
X002013Y010413D01*
X002006Y010425D01*
X002003Y010439D01*
X002004Y010453D01*
X002008Y010466D01*
X002015Y010478D01*
X002025Y010488D01*
X002037Y010495D01*
X002036Y010495D02*
X003543Y010955D01*
X003565Y010961D01*
X003587Y010964D01*
X003610Y010963D01*
X003632Y010958D01*
X003653Y010951D01*
X003673Y010939D01*
X003690Y010925D01*
X003705Y010909D01*
X003718Y010890D01*
X003727Y010869D01*
X003886Y009917D02*
X002549Y009360D01*
X002534Y009354D01*
X002534Y009355D02*
X002514Y009346D01*
X002496Y009334D01*
X002480Y009319D01*
X002467Y009302D01*
X002456Y009283D01*
X002448Y009263D01*
X002444Y009242D01*
X002443Y009220D01*
X002446Y009199D01*
X002451Y009178D01*
X002659Y008607D01*
X002777Y009090D02*
X004067Y009466D01*
X004079Y009468D01*
X004091Y009467D01*
X004102Y009462D01*
X004112Y009455D01*
X004120Y009446D01*
X004125Y009435D01*
X004126Y009435D02*
X004220Y009175D01*
X003930Y009810D02*
X002705Y009270D01*
X002705Y009271D02*
X002689Y009262D01*
X002675Y009250D01*
X002663Y009235D01*
X002654Y009219D01*
X002649Y009201D01*
X002647Y009183D01*
X002649Y009164D01*
X002654Y009146D01*
X002662Y009130D01*
X002674Y009115D01*
X002688Y009103D01*
X002704Y009094D01*
X002721Y009088D01*
X002740Y009085D01*
X002758Y009086D01*
X002776Y009091D01*
X003149Y008762D02*
X003275Y008414D01*
X003276Y008415D02*
X003281Y008403D01*
X003290Y008392D01*
X003301Y008384D01*
X003313Y008378D01*
X003326Y008375D01*
X003340Y008375D01*
X003353Y008379D01*
X003353Y008378D02*
X003353Y008378D01*
X003354Y008378D02*
X003367Y008385D01*
X003378Y008394D01*
X003387Y008406D01*
X003394Y008419D01*
X003397Y008433D01*
X003396Y008448D01*
X003393Y008463D01*
X003372Y008520D01*
X003368Y008537D01*
X003367Y008554D01*
X003370Y008571D01*
X003375Y008587D01*
X003384Y008602D01*
X003396Y008615D01*
X003409Y008625D01*
X003425Y008633D01*
X003435Y008637D01*
X003452Y008641D01*
X003469Y008642D01*
X003486Y008639D01*
X003502Y008634D01*
X003517Y008625D01*
X003530Y008613D01*
X003540Y008600D01*
X003548Y008584D01*
X003571Y008522D01*
X003577Y008510D01*
X003585Y008499D01*
X003596Y008491D01*
X003609Y008485D01*
X003622Y008482D01*
X003636Y008482D01*
X003649Y008486D01*
X003662Y008493D01*
X003673Y008502D01*
X003682Y008514D01*
X003689Y008527D01*
X003692Y008541D01*
X003691Y008556D01*
X003688Y008571D01*
X003571Y008892D01*
X003931Y009810D02*
X003943Y009816D01*
X003953Y009826D01*
X003960Y009838D01*
X003965Y009851D01*
X003966Y009865D01*
X003964Y009879D01*
X003958Y009892D01*
X003950Y009903D01*
X003939Y009912D01*
X003927Y009918D01*
X003913Y009921D01*
X003899Y009920D01*
X003886Y009917D01*
X005104Y009474D02*
X005231Y009126D01*
X005237Y009114D01*
X005245Y009103D01*
X005256Y009095D01*
X005269Y009089D01*
X005282Y009086D01*
X005296Y009086D01*
X005309Y009090D01*
X005309Y009090D01*
X005322Y009097D01*
X005333Y009106D01*
X005342Y009118D01*
X005349Y009131D01*
X005352Y009145D01*
X005351Y009160D01*
X005348Y009175D01*
X005327Y009232D01*
X005323Y009249D01*
X005322Y009266D01*
X005325Y009283D01*
X005330Y009299D01*
X005339Y009314D01*
X005351Y009327D01*
X005364Y009337D01*
X005380Y009345D01*
X005390Y009349D01*
X005391Y009349D02*
X005408Y009353D01*
X005425Y009354D01*
X005442Y009351D01*
X005458Y009346D01*
X005473Y009337D01*
X005486Y009325D01*
X005496Y009312D01*
X005504Y009296D01*
X005526Y009234D01*
X005526Y009233D02*
X005532Y009221D01*
X005540Y009210D01*
X005551Y009202D01*
X005564Y009196D01*
X005577Y009193D01*
X005591Y009193D01*
X005604Y009197D01*
X005604Y009198D02*
X005617Y009205D01*
X005628Y009214D01*
X005637Y009226D01*
X005644Y009239D01*
X005647Y009253D01*
X005646Y009268D01*
X005643Y009283D01*
D215*
X013341Y011049D03*
D216*
X009688Y023064D02*
X009688Y024064D01*
X010188Y023564D02*
X009188Y023564D01*
X015188Y024064D02*
X016188Y024064D01*
X021188Y023564D02*
X022188Y023564D01*
X021688Y023064D02*
X021688Y024064D01*
M02*
