G75*
G70*
%OFA0B0*%
%FSLAX24Y24*%
%IPPOS*%
%LPD*%
%AMOC8*
5,1,8,0,0,1.08239X$1,22.5*
%
%ADD10C,0.0070*%
%ADD11C,0.0100*%
%ADD12C,0.0000*%
%ADD13R,0.0233X0.0033*%
%ADD14R,0.0467X0.0033*%
%ADD15R,0.0167X0.0033*%
%ADD16R,0.0467X0.0033*%
%ADD17R,0.0167X0.0033*%
%ADD18R,0.0333X0.0033*%
%ADD19R,0.0367X0.0033*%
%ADD20R,0.0333X0.0033*%
%ADD21R,0.0400X0.0033*%
%ADD22R,0.0467X0.0033*%
%ADD23R,0.0167X0.0033*%
%ADD24R,0.0467X0.0033*%
%ADD25R,0.0167X0.0033*%
%ADD26R,0.0433X0.0033*%
%ADD27R,0.0133X0.0033*%
%ADD28R,0.0133X0.0033*%
%ADD29R,0.0233X0.0033*%
%ADD30R,0.0433X0.0033*%
%ADD31R,0.0367X0.0033*%
%ADD32R,0.0433X0.0033*%
%ADD33R,0.0133X0.0033*%
%ADD34R,0.0133X0.0033*%
%ADD35R,0.0267X0.0033*%
%ADD36R,0.0433X0.0033*%
%ADD37R,0.0267X0.0033*%
%ADD38R,0.0400X0.0033*%
%ADD39R,0.0233X0.0033*%
%ADD40R,0.0600X0.0033*%
%ADD41R,0.0700X0.0033*%
%ADD42R,0.0800X0.0033*%
%ADD43R,0.0867X0.0033*%
%ADD44R,0.0933X0.0033*%
%ADD45R,0.1000X0.0033*%
%ADD46R,0.1033X0.0033*%
%ADD47R,0.1100X0.0033*%
%ADD48R,0.0367X0.0033*%
%ADD49R,0.0333X0.0033*%
%ADD50R,0.0367X0.0033*%
%ADD51R,0.0533X0.0033*%
%ADD52R,0.0500X0.0033*%
%ADD53R,0.1133X0.0033*%
%ADD54R,0.1167X0.0033*%
%ADD55R,0.1133X0.0033*%
%ADD56R,0.1133X0.0033*%
%ADD57R,0.0200X0.0033*%
%ADD58R,0.0900X0.0033*%
%ADD59R,0.0867X0.0033*%
%ADD60R,0.0767X0.0033*%
%ADD61R,0.1567X0.0033*%
%ADD62R,0.2200X0.0033*%
%ADD63R,0.2400X0.0033*%
%ADD64R,0.2633X0.0033*%
%ADD65R,0.2833X0.0033*%
%ADD66R,0.2967X0.0033*%
%ADD67R,0.0300X0.0033*%
%ADD68R,0.3200X0.0033*%
%ADD69R,0.3333X0.0033*%
%ADD70R,0.0200X0.0033*%
%ADD71R,0.3667X0.0033*%
%ADD72R,0.3733X0.0033*%
%ADD73R,0.1333X0.0033*%
%ADD74R,0.0267X0.0033*%
%ADD75R,0.0100X0.0033*%
%ADD76R,0.0333X0.0033*%
%ADD77R,0.0833X0.0033*%
%ADD78R,0.0767X0.0033*%
%ADD79R,0.0100X0.0033*%
%ADD80R,0.0767X0.0033*%
%ADD81R,0.0800X0.0033*%
%ADD82R,0.0733X0.0033*%
%ADD83R,0.0700X0.0033*%
%ADD84R,0.0300X0.0033*%
%ADD85R,0.0267X0.0033*%
%ADD86R,0.0533X0.0033*%
%ADD87R,0.0733X0.0033*%
%ADD88R,0.0567X0.0033*%
%ADD89R,0.0667X0.0033*%
%ADD90R,0.0933X0.0033*%
%ADD91R,0.0967X0.0033*%
%ADD92R,0.1233X0.0033*%
%ADD93R,0.1100X0.0033*%
%ADD94R,0.1200X0.0033*%
%ADD95R,0.1033X0.0033*%
%ADD96R,0.1067X0.0033*%
%ADD97R,0.1067X0.0033*%
%ADD98R,0.3633X0.0033*%
%ADD99R,0.0533X0.0033*%
%ADD100R,0.3567X0.0033*%
%ADD101R,0.3267X0.0033*%
%ADD102R,0.2933X0.0033*%
%ADD103R,0.0600X0.0033*%
%ADD104R,0.2567X0.0033*%
%ADD105R,0.2333X0.0033*%
%ADD106R,0.2000X0.0033*%
%ADD107R,0.0633X0.0033*%
%ADD108R,0.0967X0.0033*%
%ADD109R,0.0833X0.0033*%
%ADD110R,0.0900X0.0033*%
%ADD111R,0.1167X0.0033*%
%ADD112R,0.1433X0.0033*%
%ADD113R,0.1233X0.0033*%
%ADD114R,0.1733X0.0033*%
%ADD115R,0.1267X0.0033*%
%ADD116R,0.2000X0.0033*%
%ADD117R,0.1300X0.0033*%
%ADD118R,0.1633X0.0033*%
%ADD119R,0.1367X0.0033*%
%ADD120R,0.1300X0.0033*%
%ADD121R,0.0567X0.0033*%
%ADD122R,0.0500X0.0033*%
%ADD123R,0.1333X0.0033*%
%ADD124R,0.1333X0.0033*%
%ADD125R,0.0567X0.0033*%
%ADD126R,0.2133X0.0033*%
%ADD127R,0.1900X0.0033*%
%ADD128R,0.1667X0.0033*%
%ADD129R,0.0567X0.0033*%
%ADD130R,0.1467X0.0033*%
%ADD131R,0.0633X0.0033*%
%ADD132R,0.0233X0.0033*%
%ADD133R,0.1033X0.0033*%
%ADD134R,0.0533X0.0033*%
%ADD135R,0.1233X0.0033*%
%ADD136R,0.1200X0.0033*%
%ADD137R,0.0633X0.0033*%
%ADD138R,0.1167X0.0033*%
%ADD139R,0.1033X0.0033*%
%ADD140R,0.1467X0.0033*%
%ADD141R,0.1367X0.0033*%
%ADD142R,0.1767X0.0033*%
%ADD143R,0.1967X0.0033*%
%ADD144R,0.1900X0.0033*%
%ADD145R,0.0867X0.0033*%
%ADD146R,0.0667X0.0033*%
%ADD147R,0.1000X0.0033*%
%ADD148R,0.0733X0.0033*%
%ADD149R,0.0067X0.0033*%
%ADD150R,0.0033X0.0033*%
%ADD151R,0.0067X0.0033*%
%ADD152R,0.0967X0.0033*%
%ADD153R,0.0067X0.0033*%
%ADD154R,0.1067X0.0033*%
%ADD155R,0.0033X0.0033*%
%ADD156R,0.1167X0.0033*%
%ADD157R,0.0067X0.0033*%
%ADD158R,0.0033X0.0033*%
%ADD159R,0.0033X0.0033*%
%ADD160R,0.1867X0.0033*%
%ADD161R,0.3033X0.0033*%
%ADD162R,0.2933X0.0033*%
%ADD163R,0.1233X0.0033*%
%ADD164R,0.2833X0.0033*%
%ADD165R,0.2767X0.0033*%
%ADD166R,0.1067X0.0033*%
%ADD167R,0.0633X0.0033*%
%ADD168R,0.1367X0.0033*%
%ADD169R,0.1400X0.0033*%
%ADD170R,0.1433X0.0033*%
%ADD171R,0.1767X0.0033*%
%ADD172R,0.0833X0.0033*%
%ADD173R,0.1700X0.0033*%
%ADD174R,0.1667X0.0033*%
%ADD175R,0.0933X0.0033*%
%ADD176R,0.1567X0.0033*%
%ADD177R,0.1533X0.0033*%
%ADD178R,0.1500X0.0033*%
%ADD179R,0.1467X0.0033*%
%ADD180R,0.1433X0.0033*%
%ADD181R,0.0933X0.0033*%
%ADD182R,0.0967X0.0033*%
%ADD183R,0.1267X0.0033*%
%ADD184R,0.0867X0.0033*%
%ADD185R,0.0733X0.0033*%
%ADD186R,0.1267X0.0033*%
%ADD187R,0.0833X0.0033*%
%ADD188R,0.3033X0.0033*%
%ADD189R,0.3033X0.0033*%
%ADD190R,0.2767X0.0033*%
%ADD191R,0.1500X0.0033*%
%ADD192R,0.0767X0.0033*%
%ADD193R,0.0667X0.0033*%
%ADD194R,0.1400X0.0033*%
%ADD195R,0.1467X0.0033*%
%ADD196R,0.1533X0.0033*%
%ADD197R,0.1600X0.0033*%
%ADD198R,0.1733X0.0033*%
%ADD199R,0.1767X0.0033*%
%ADD200R,0.1367X0.0033*%
%ADD201R,0.2200X0.0033*%
%ADD202R,0.1633X0.0033*%
%ADD203R,0.1800X0.0033*%
%ADD204R,0.2067X0.0033*%
%ADD205R,0.2267X0.0033*%
%ADD206R,0.2267X0.0033*%
%ADD207R,0.2400X0.0033*%
%ADD208R,0.2467X0.0033*%
%ADD209R,0.2533X0.0033*%
%ADD210R,0.2533X0.0033*%
%ADD211R,0.2600X0.0033*%
%ADD212R,0.2600X0.0033*%
%ADD213R,0.2667X0.0033*%
%ADD214R,0.1933X0.0033*%
%ADD215R,0.2067X0.0033*%
%ADD216R,0.2267X0.0033*%
%ADD217R,0.2300X0.0033*%
%ADD218R,0.2367X0.0033*%
%ADD219R,0.2433X0.0033*%
%ADD220R,0.2433X0.0033*%
%ADD221R,0.2467X0.0033*%
%ADD222R,0.2667X0.0033*%
%ADD223R,0.2500X0.0033*%
%ADD224R,0.2100X0.0033*%
%ADD225R,0.2500X0.0033*%
%ADD226R,0.2100X0.0033*%
%ADD227R,0.2167X0.0033*%
%ADD228R,0.2167X0.0033*%
%ADD229R,0.2633X0.0033*%
%ADD230R,0.2567X0.0033*%
%ADD231R,0.2367X0.0033*%
%ADD232R,0.2300X0.0033*%
%ADD233R,0.2233X0.0033*%
%ADD234R,0.2167X0.0033*%
%ADD235R,0.1967X0.0033*%
%ADD236R,0.2133X0.0033*%
%ADD237C,0.0020*%
%ADD238C,0.0010*%
%ADD239C,0.0060*%
%ADD240C,0.0050*%
%ADD241C,0.0080*%
%ADD242R,0.0098X0.0098*%
%ADD243R,0.0110X0.0382*%
%ADD244R,0.0382X0.0110*%
D10*
X025848Y013266D02*
X025848Y013896D01*
X026268Y013266D01*
X026268Y013896D01*
X026492Y013896D02*
X026492Y013266D01*
X026492Y013581D02*
X026913Y013581D01*
X027137Y013581D02*
X027452Y013581D01*
X027557Y013476D01*
X027557Y013371D01*
X027452Y013266D01*
X027137Y013266D01*
X027137Y013896D01*
X027452Y013896D01*
X027557Y013791D01*
X027557Y013686D01*
X027452Y013581D01*
X027781Y013686D02*
X027991Y013896D01*
X027991Y013266D01*
X027781Y013266D02*
X028202Y013266D01*
X028426Y013266D02*
X028846Y013686D01*
X028846Y013791D01*
X028741Y013896D01*
X028531Y013896D01*
X028426Y013791D01*
X028426Y013266D02*
X028846Y013266D01*
X029070Y013266D02*
X029386Y013266D01*
X029491Y013371D01*
X029491Y013476D01*
X029386Y013581D01*
X029070Y013581D01*
X029070Y013266D02*
X029070Y013896D01*
X029386Y013896D01*
X029491Y013791D01*
X029491Y013686D01*
X029386Y013581D01*
X028259Y012558D02*
X028127Y012690D01*
X027863Y012690D01*
X027731Y012558D01*
X027731Y012031D01*
X027863Y011899D01*
X028127Y011899D01*
X028259Y012031D01*
X028259Y012294D01*
X027995Y012294D01*
X027467Y011899D02*
X027467Y012690D01*
X027203Y012426D01*
X026940Y012690D01*
X026940Y011899D01*
X026411Y011899D02*
X026411Y012690D01*
X026148Y012690D02*
X026675Y012690D01*
X026913Y013266D02*
X026913Y013896D01*
D11*
X000563Y015439D02*
X000581Y016175D01*
X000635Y016909D01*
X000725Y017640D01*
X000851Y018365D01*
X001013Y019084D01*
X001209Y019793D01*
X001440Y020492D01*
X001705Y021179D01*
X002003Y021852D01*
X002334Y022510D01*
X002697Y023151D01*
X003091Y023773D01*
X003515Y024374D01*
X003968Y024955D01*
X004449Y025512D01*
X004956Y026046D01*
X005490Y026553D01*
X006047Y027034D01*
X006628Y027487D01*
X007229Y027911D01*
X007851Y028305D01*
X008492Y028668D01*
X009150Y028999D01*
X009823Y029297D01*
X010510Y029562D01*
X011209Y029793D01*
X011918Y029989D01*
X012637Y030151D01*
X013362Y030277D01*
X014093Y030367D01*
X014827Y030421D01*
X015563Y030439D01*
X016299Y030421D01*
X017033Y030367D01*
X017764Y030277D01*
X018489Y030151D01*
X019208Y029989D01*
X019917Y029793D01*
X020616Y029562D01*
X021303Y029297D01*
X021976Y028999D01*
X022634Y028668D01*
X023275Y028305D01*
X023897Y027911D01*
X024498Y027487D01*
X025079Y027034D01*
X025636Y026553D01*
X026170Y026046D01*
X026677Y025512D01*
X027158Y024955D01*
X027611Y024374D01*
X028035Y023773D01*
X028429Y023151D01*
X028792Y022510D01*
X029123Y021852D01*
X029421Y021179D01*
X029686Y020492D01*
X029917Y019793D01*
X030113Y019084D01*
X030275Y018365D01*
X030401Y017640D01*
X030491Y016909D01*
X030545Y016175D01*
X030563Y015439D01*
X030545Y014703D01*
X030491Y013969D01*
X030401Y013238D01*
X030275Y012513D01*
X030113Y011794D01*
X029917Y011085D01*
X029686Y010386D01*
X029421Y009699D01*
X029123Y009026D01*
X028792Y008368D01*
X028429Y007727D01*
X028035Y007105D01*
X027611Y006504D01*
X027158Y005923D01*
X026677Y005366D01*
X026170Y004832D01*
X025636Y004325D01*
X025079Y003844D01*
X024498Y003391D01*
X023897Y002967D01*
X023275Y002573D01*
X022634Y002210D01*
X021976Y001879D01*
X021303Y001581D01*
X020616Y001316D01*
X019917Y001085D01*
X019208Y000889D01*
X018489Y000727D01*
X017764Y000601D01*
X017033Y000511D01*
X016299Y000457D01*
X015563Y000439D01*
X014827Y000457D01*
X014093Y000511D01*
X013362Y000601D01*
X012637Y000727D01*
X011918Y000889D01*
X011209Y001085D01*
X010510Y001316D01*
X009823Y001581D01*
X009150Y001879D01*
X008492Y002210D01*
X007851Y002573D01*
X007229Y002967D01*
X006628Y003391D01*
X006047Y003844D01*
X005490Y004325D01*
X004956Y004832D01*
X004449Y005366D01*
X003968Y005923D01*
X003515Y006504D01*
X003091Y007105D01*
X002697Y007727D01*
X002334Y008368D01*
X002003Y009026D01*
X001705Y009699D01*
X001440Y010386D01*
X001209Y011085D01*
X001013Y011794D01*
X000851Y012513D01*
X000725Y013238D01*
X000635Y013969D01*
X000581Y014703D01*
X000563Y015439D01*
D12*
X007169Y011564D02*
X007707Y011564D01*
X007438Y011295D02*
X007438Y011833D01*
X007938Y012420D02*
X007938Y012958D01*
X007669Y012689D02*
X008207Y012689D01*
X007938Y014420D02*
X007938Y014958D01*
X007669Y014689D02*
X008207Y014689D01*
X011663Y014814D02*
X012463Y014814D01*
X012063Y014414D02*
X012063Y015214D01*
X016413Y010814D02*
X017213Y010814D01*
X016813Y010414D02*
X016813Y011214D01*
X018419Y010814D02*
X018957Y010814D01*
X018688Y010545D02*
X018688Y011083D01*
X019669Y011314D02*
X020207Y011314D01*
X019938Y011045D02*
X019938Y011583D01*
X019938Y010708D02*
X019938Y010170D01*
X019669Y010439D02*
X020207Y010439D01*
X020669Y010189D02*
X021207Y010189D01*
X020938Y009920D02*
X020938Y010458D01*
X021938Y009829D02*
X021938Y009049D01*
X021938Y008829D02*
X021938Y008049D01*
X022327Y008439D02*
X021548Y008439D01*
X021327Y008939D02*
X020548Y008939D01*
X020938Y008549D02*
X020938Y009329D01*
X021548Y009439D02*
X022327Y009439D01*
X022919Y009439D02*
X023457Y009439D01*
X023188Y009170D02*
X023188Y009708D01*
X024169Y009064D02*
X024707Y009064D01*
X024438Y008795D02*
X024438Y009333D01*
X024563Y010237D02*
X024563Y010641D01*
X024764Y010439D02*
X024361Y010439D01*
X022938Y008458D02*
X022938Y007920D01*
X022938Y007583D02*
X022938Y007045D01*
X022669Y007314D02*
X023207Y007314D01*
X023207Y008189D02*
X022669Y008189D01*
X019838Y008939D02*
X019038Y008939D01*
X019438Y008539D02*
X019438Y009339D01*
X019438Y007458D02*
X019438Y006920D01*
X019169Y007189D02*
X019707Y007189D01*
X019438Y006089D02*
X019438Y005289D01*
X019038Y005689D02*
X019838Y005689D01*
X020938Y004458D02*
X020938Y003920D01*
X020669Y004189D02*
X021207Y004189D01*
X018207Y004189D02*
X017669Y004189D01*
X017938Y003920D02*
X017938Y004458D01*
X012463Y004064D02*
X011663Y004064D01*
X012063Y003664D02*
X012063Y004464D01*
X007572Y008564D02*
X007303Y008564D01*
X007438Y008430D02*
X007438Y008698D01*
X007438Y009430D02*
X007438Y009698D01*
X007572Y009564D02*
X007303Y009564D01*
X007438Y010430D02*
X007438Y010698D01*
X007572Y010564D02*
X007303Y010564D01*
X011288Y009939D02*
X012088Y009939D01*
X011688Y009539D02*
X011688Y010339D01*
X019288Y015189D02*
X020088Y015189D01*
X019688Y014789D02*
X019688Y015589D01*
X014563Y028939D02*
X014565Y029002D01*
X014571Y029064D01*
X014581Y029126D01*
X014594Y029188D01*
X014612Y029248D01*
X014633Y029307D01*
X014658Y029365D01*
X014687Y029421D01*
X014719Y029475D01*
X014754Y029527D01*
X014792Y029576D01*
X014834Y029624D01*
X014878Y029668D01*
X014926Y029710D01*
X014975Y029748D01*
X015027Y029783D01*
X015081Y029815D01*
X015137Y029844D01*
X015195Y029869D01*
X015254Y029890D01*
X015314Y029908D01*
X015376Y029921D01*
X015438Y029931D01*
X015500Y029937D01*
X015563Y029939D01*
X015626Y029937D01*
X015688Y029931D01*
X015750Y029921D01*
X015812Y029908D01*
X015872Y029890D01*
X015931Y029869D01*
X015989Y029844D01*
X016045Y029815D01*
X016099Y029783D01*
X016151Y029748D01*
X016200Y029710D01*
X016248Y029668D01*
X016292Y029624D01*
X016334Y029576D01*
X016372Y029527D01*
X016407Y029475D01*
X016439Y029421D01*
X016468Y029365D01*
X016493Y029307D01*
X016514Y029248D01*
X016532Y029188D01*
X016545Y029126D01*
X016555Y029064D01*
X016561Y029002D01*
X016563Y028939D01*
X016561Y028876D01*
X016555Y028814D01*
X016545Y028752D01*
X016532Y028690D01*
X016514Y028630D01*
X016493Y028571D01*
X016468Y028513D01*
X016439Y028457D01*
X016407Y028403D01*
X016372Y028351D01*
X016334Y028302D01*
X016292Y028254D01*
X016248Y028210D01*
X016200Y028168D01*
X016151Y028130D01*
X016099Y028095D01*
X016045Y028063D01*
X015989Y028034D01*
X015931Y028009D01*
X015872Y027988D01*
X015812Y027970D01*
X015750Y027957D01*
X015688Y027947D01*
X015626Y027941D01*
X015563Y027939D01*
X015500Y027941D01*
X015438Y027947D01*
X015376Y027957D01*
X015314Y027970D01*
X015254Y027988D01*
X015195Y028009D01*
X015137Y028034D01*
X015081Y028063D01*
X015027Y028095D01*
X014975Y028130D01*
X014926Y028168D01*
X014878Y028210D01*
X014834Y028254D01*
X014792Y028302D01*
X014754Y028351D01*
X014719Y028403D01*
X014687Y028457D01*
X014658Y028513D01*
X014633Y028571D01*
X014612Y028630D01*
X014594Y028690D01*
X014581Y028752D01*
X014571Y028814D01*
X014565Y028876D01*
X014563Y028939D01*
D13*
X008421Y022481D03*
X008521Y022381D03*
X008621Y022281D03*
X008721Y022181D03*
X008821Y022047D03*
X007988Y021747D03*
X007788Y021581D03*
X007488Y022781D03*
X007321Y022847D03*
X005788Y021747D03*
X005821Y021647D03*
X005821Y021581D03*
X006421Y020281D03*
X005588Y019447D03*
X005321Y019781D03*
X004588Y019581D03*
X004221Y019481D03*
X004088Y019447D03*
X004721Y018481D03*
X003888Y017747D03*
X003988Y017647D03*
X003721Y017947D03*
X003188Y017581D03*
X003021Y017347D03*
X006721Y018247D03*
X006688Y018381D03*
X008388Y017547D03*
X008521Y017681D03*
X008588Y017747D03*
X008621Y017781D03*
X008688Y017847D03*
X008721Y017881D03*
X008888Y018081D03*
X011321Y017481D03*
X013921Y018481D03*
X014888Y018847D03*
X017221Y020147D03*
X017321Y020081D03*
X020621Y019281D03*
X020721Y019181D03*
X020888Y018981D03*
X020921Y018947D03*
X020988Y018881D03*
X021021Y018847D03*
X021188Y018647D03*
X021288Y018547D03*
X021421Y018381D03*
X021521Y018281D03*
X021621Y018181D03*
X021721Y018047D03*
X021788Y017981D03*
X021821Y017947D03*
X021888Y017881D03*
X021921Y017847D03*
X022088Y017647D03*
X022188Y017547D03*
X022321Y017381D03*
X022421Y017281D03*
X022588Y017081D03*
X022621Y017047D03*
X022688Y016981D03*
X022721Y016947D03*
X022788Y016881D03*
X022888Y016747D03*
X022988Y016647D03*
X023088Y016547D03*
X023221Y016381D03*
X023321Y016281D03*
X023488Y016081D03*
X023521Y016047D03*
X023588Y015981D03*
X022688Y017647D03*
X022588Y017747D03*
X022421Y017947D03*
X022388Y017981D03*
X024488Y018347D03*
X024521Y018447D03*
X024521Y018481D03*
X025921Y017181D03*
X027188Y017647D03*
X027221Y017681D03*
X027288Y017747D03*
X027321Y017781D03*
X027388Y017847D03*
X027488Y017981D03*
X027688Y018247D03*
X027821Y018447D03*
X027988Y018247D03*
X028121Y018081D03*
X028221Y017947D03*
X028588Y017481D03*
X028621Y017447D03*
X027221Y019247D03*
X027121Y019347D03*
X027021Y019481D03*
X026821Y019747D03*
X026321Y018647D03*
X026388Y018581D03*
X026421Y018547D03*
X026488Y018481D03*
X026521Y018447D03*
X026588Y018381D03*
X024021Y020281D03*
X023288Y020481D03*
X023021Y020547D03*
X022921Y020581D03*
X023421Y021547D03*
X023388Y021581D03*
X024088Y022381D03*
X023921Y022881D03*
X023821Y022847D03*
X022721Y022447D03*
X022621Y022347D03*
X022521Y022247D03*
X027121Y022481D03*
X027221Y022381D03*
X027321Y022281D03*
X027421Y022181D03*
X027521Y022047D03*
X029221Y014747D03*
X029821Y013981D03*
X017688Y001247D03*
X016688Y001247D03*
X014088Y001247D03*
X013488Y001247D03*
X003621Y021981D03*
X003788Y022181D03*
X003921Y022347D03*
D14*
X007404Y023081D03*
X011704Y018347D03*
X006704Y017581D03*
X005804Y017581D03*
X005604Y015247D03*
X016004Y025881D03*
X015904Y026147D03*
X015904Y026181D03*
X015804Y026447D03*
X018704Y025581D03*
X018804Y025747D03*
X018804Y025781D03*
X019404Y025881D03*
X019504Y025681D03*
X018804Y026547D03*
X025404Y022481D03*
X026104Y016981D03*
X024004Y015481D03*
X028504Y016181D03*
X028504Y016447D03*
X028504Y016481D03*
X019204Y019547D03*
X014704Y001347D03*
X014704Y001281D03*
X014704Y001247D03*
D15*
X014554Y001381D03*
X014554Y001447D03*
X014554Y001481D03*
X014554Y001547D03*
X014554Y001581D03*
X014554Y001647D03*
X014554Y001681D03*
X014554Y001747D03*
X014554Y001781D03*
X014554Y001847D03*
X014554Y001881D03*
X014554Y001947D03*
X014554Y001981D03*
X014554Y002047D03*
X014554Y002081D03*
X014554Y002147D03*
X014554Y002181D03*
X014554Y002247D03*
X014554Y002281D03*
X014554Y002347D03*
X014554Y002381D03*
X014554Y002447D03*
X014554Y002481D03*
X014254Y002481D03*
X014254Y002447D03*
X014254Y002381D03*
X014254Y002347D03*
X014254Y002281D03*
X014254Y002247D03*
X014254Y002181D03*
X014254Y002147D03*
X014254Y002081D03*
X014254Y002047D03*
X014254Y001981D03*
X014254Y001947D03*
X014254Y001881D03*
X014254Y001847D03*
X014254Y001781D03*
X014254Y001747D03*
X014254Y001681D03*
X014254Y001647D03*
X014254Y001581D03*
X014254Y001547D03*
X014254Y001481D03*
X014254Y001447D03*
X014854Y001447D03*
X014854Y001481D03*
X014854Y001547D03*
X014854Y001581D03*
X014854Y001381D03*
X015154Y001381D03*
X015154Y001347D03*
X015154Y001281D03*
X015154Y001247D03*
X015154Y001447D03*
X015154Y001481D03*
X015154Y001547D03*
X015154Y001581D03*
X015154Y001647D03*
X015154Y001681D03*
X015154Y001747D03*
X015154Y001781D03*
X016854Y001781D03*
X016854Y001747D03*
X016854Y001681D03*
X016854Y001647D03*
X016854Y001581D03*
X016854Y001547D03*
X016854Y001481D03*
X016854Y001447D03*
X016854Y001381D03*
X016854Y001847D03*
X016854Y001881D03*
X016854Y001947D03*
X016854Y001981D03*
X016854Y002047D03*
X016854Y002081D03*
X016854Y002147D03*
X016854Y002181D03*
X016854Y002247D03*
X016854Y002281D03*
X016854Y002347D03*
X017854Y002347D03*
X017854Y002281D03*
X017854Y002247D03*
X017854Y002181D03*
X017854Y002147D03*
X017854Y002081D03*
X017854Y002047D03*
X017854Y001981D03*
X017854Y001947D03*
X017854Y001881D03*
X017854Y001847D03*
X017854Y001781D03*
X017854Y001747D03*
X017854Y001681D03*
X017854Y001647D03*
X017854Y001581D03*
X017854Y001547D03*
X017854Y001481D03*
X017854Y001447D03*
X017854Y001381D03*
X029654Y011747D03*
X029554Y014481D03*
X029454Y014581D03*
X026554Y017481D03*
X026654Y017547D03*
X027954Y018747D03*
X028054Y019047D03*
X028154Y019347D03*
X028154Y019381D03*
X028154Y019447D03*
X027254Y019147D03*
X028154Y020647D03*
X028154Y020681D03*
X028154Y020747D03*
X028054Y021047D03*
X028054Y021081D03*
X027954Y021347D03*
X026454Y022647D03*
X025554Y022347D03*
X025454Y021981D03*
X025454Y021947D03*
X023854Y022281D03*
X023654Y022181D03*
X023454Y022047D03*
X023254Y022547D03*
X021954Y021381D03*
X021854Y021147D03*
X021754Y020847D03*
X021754Y020781D03*
X021754Y020747D03*
X021654Y020247D03*
X021654Y020181D03*
X021654Y020147D03*
X021654Y020081D03*
X021654Y020047D03*
X021654Y019981D03*
X021654Y019947D03*
X021654Y019881D03*
X021654Y019847D03*
X021754Y019281D03*
X021754Y019247D03*
X021854Y018947D03*
X021954Y018681D03*
X022054Y018481D03*
X023554Y017347D03*
X024354Y017847D03*
X024354Y017881D03*
X025654Y014381D03*
X016554Y018881D03*
X016454Y018747D03*
X015854Y018647D03*
X015154Y018381D03*
X014154Y019381D03*
X015254Y020081D03*
X009454Y020647D03*
X009454Y020681D03*
X009454Y020747D03*
X009354Y021047D03*
X009354Y021081D03*
X009154Y021547D03*
X007854Y022581D03*
X007754Y022647D03*
X007554Y022747D03*
X005654Y022281D03*
X005654Y022247D03*
X004754Y022647D03*
X003254Y021381D03*
X003254Y021347D03*
X003154Y021081D03*
X003054Y020781D03*
X003054Y020747D03*
X002954Y020147D03*
X002954Y020081D03*
X002954Y020047D03*
X003054Y019347D03*
X003054Y019281D03*
X003054Y019247D03*
X003154Y018981D03*
X003154Y018947D03*
X003254Y018681D03*
X003354Y018481D03*
X004854Y017347D03*
X005154Y017781D03*
X006854Y017781D03*
X006854Y017747D03*
X007654Y017347D03*
X009354Y018947D03*
X009354Y018981D03*
X009454Y019281D03*
X009454Y019347D03*
X009454Y019381D03*
X006254Y020581D03*
X006054Y019781D03*
X005354Y020147D03*
X002454Y015081D03*
X002254Y014981D03*
X002254Y014947D03*
X002354Y014681D03*
X002354Y014647D03*
X002454Y014381D03*
X002454Y014347D03*
X002554Y014081D03*
X002554Y014047D03*
X002654Y013781D03*
X002654Y013747D03*
X002754Y013481D03*
X002754Y013447D03*
X002854Y013181D03*
X002854Y013147D03*
X002954Y012881D03*
X002954Y012847D03*
X003054Y012581D03*
X003154Y012281D03*
X003254Y011981D03*
X003354Y011681D03*
X003454Y011381D03*
X003554Y011081D03*
X003654Y010781D03*
X003754Y010481D03*
X003854Y010247D03*
X003854Y010181D03*
X003954Y009947D03*
X004054Y009647D03*
X004154Y009347D03*
X004254Y009047D03*
X004354Y008747D03*
X004454Y008447D03*
X004554Y008147D03*
D16*
X004771Y007881D03*
X004838Y007347D03*
X005138Y007047D03*
X005471Y007347D03*
X006271Y015247D03*
X007438Y016981D03*
X007271Y020981D03*
X006238Y023081D03*
X005071Y023081D03*
X002938Y015947D03*
X002938Y015681D03*
X002938Y015647D03*
X001971Y015647D03*
X001971Y015681D03*
X001971Y015947D03*
X012571Y025347D03*
X012571Y025381D03*
X012571Y025447D03*
X012571Y025481D03*
X012571Y025547D03*
X012571Y025581D03*
X012571Y025647D03*
X012571Y025681D03*
X012571Y025747D03*
X012571Y025781D03*
X012571Y025847D03*
X012571Y025881D03*
X012571Y026347D03*
X012571Y026381D03*
X012571Y026447D03*
X012571Y026481D03*
X012571Y026547D03*
X012571Y026581D03*
X012571Y026647D03*
X012571Y026681D03*
X012571Y026747D03*
X012571Y026781D03*
X012571Y026847D03*
X012571Y026881D03*
X015771Y026547D03*
X015838Y026381D03*
X015838Y026347D03*
X015871Y026281D03*
X015871Y026247D03*
X015938Y026081D03*
X015938Y026047D03*
X015971Y025981D03*
X016038Y025781D03*
X018738Y025647D03*
X018838Y025847D03*
X018871Y025881D03*
X018871Y026381D03*
X018838Y026447D03*
X018838Y026481D03*
X018771Y026581D03*
X018738Y026647D03*
X019438Y026481D03*
X019438Y026447D03*
X019471Y026547D03*
X019471Y025781D03*
X019471Y025747D03*
X019538Y025647D03*
X019571Y025581D03*
X019638Y025447D03*
X019671Y025381D03*
X023738Y023081D03*
X024471Y022481D03*
X026138Y023081D03*
X024938Y020547D03*
X024938Y019747D03*
X025971Y019081D03*
X024938Y016981D03*
X023771Y016981D03*
X023838Y015847D03*
X020171Y019781D03*
X019171Y019681D03*
X019171Y019647D03*
X029471Y016447D03*
X029471Y016247D03*
X029471Y016181D03*
X016071Y001347D03*
X016071Y001281D03*
X016071Y001247D03*
D17*
X015921Y001381D03*
X015921Y001447D03*
X015921Y001481D03*
X015921Y001547D03*
X015921Y001581D03*
X015921Y001647D03*
X015921Y001681D03*
X015921Y001747D03*
X015921Y001781D03*
X016221Y001947D03*
X015921Y002247D03*
X015921Y002281D03*
X015921Y002347D03*
X015921Y002381D03*
X015321Y002381D03*
X015321Y002347D03*
X015321Y002281D03*
X015321Y002247D03*
X015321Y002181D03*
X015321Y002147D03*
X015321Y002081D03*
X015321Y002047D03*
X015021Y001947D03*
X015321Y002447D03*
X015321Y002481D03*
X013621Y002381D03*
X013621Y002347D03*
X013621Y002281D03*
X013621Y002247D03*
X013621Y002181D03*
X013621Y002147D03*
X013621Y002081D03*
X013621Y002047D03*
X013621Y001981D03*
X013621Y001947D03*
X013621Y001881D03*
X013621Y001847D03*
X013621Y001781D03*
X013621Y001747D03*
X013621Y001681D03*
X013621Y001647D03*
X013621Y001581D03*
X013621Y001547D03*
X013621Y001481D03*
X013621Y001447D03*
X013621Y001381D03*
X013321Y001381D03*
X013321Y001447D03*
X013321Y001481D03*
X013321Y001547D03*
X017221Y001547D03*
X017221Y001581D03*
X017221Y001647D03*
X017221Y001681D03*
X017221Y001747D03*
X017221Y001781D03*
X017221Y001847D03*
X017221Y001881D03*
X017221Y001947D03*
X017221Y001981D03*
X017221Y002047D03*
X017221Y002081D03*
X017221Y002147D03*
X017221Y002181D03*
X017221Y002247D03*
X017221Y002281D03*
X017221Y002347D03*
X017221Y002381D03*
X017221Y001481D03*
X017221Y001447D03*
X017221Y001381D03*
X017221Y001347D03*
X017221Y001281D03*
X017221Y001247D03*
X025821Y011547D03*
X025788Y011581D03*
X025721Y014481D03*
X025821Y014581D03*
X026321Y017347D03*
X026388Y017381D03*
X026688Y018281D03*
X027921Y018681D03*
X027988Y018847D03*
X028021Y018947D03*
X028088Y019147D03*
X028121Y019247D03*
X028121Y019281D03*
X028188Y019547D03*
X028188Y019581D03*
X028188Y019647D03*
X028188Y019681D03*
X028188Y019747D03*
X028221Y019781D03*
X028221Y019847D03*
X028221Y019881D03*
X028221Y019947D03*
X028221Y019981D03*
X028221Y020047D03*
X028221Y020081D03*
X028221Y020147D03*
X028221Y020181D03*
X028221Y020247D03*
X028221Y020281D03*
X028188Y020347D03*
X028188Y020381D03*
X028188Y020447D03*
X028188Y020481D03*
X028188Y020547D03*
X028121Y020781D03*
X028121Y020847D03*
X028088Y020947D03*
X028088Y020981D03*
X028021Y021147D03*
X028021Y021181D03*
X027988Y021247D03*
X027921Y021381D03*
X027888Y021481D03*
X026721Y022481D03*
X026621Y022547D03*
X025521Y022247D03*
X025521Y022181D03*
X025488Y022081D03*
X023788Y022247D03*
X023488Y022681D03*
X023421Y022647D03*
X022088Y021647D03*
X021988Y021447D03*
X021888Y021247D03*
X021821Y021047D03*
X021788Y020947D03*
X021721Y020681D03*
X021721Y020647D03*
X021721Y020581D03*
X021688Y020547D03*
X021688Y020481D03*
X021688Y020447D03*
X021688Y020381D03*
X021688Y020347D03*
X021688Y019781D03*
X021688Y019747D03*
X021688Y019681D03*
X021688Y019647D03*
X021688Y019581D03*
X021688Y019547D03*
X021721Y019481D03*
X021721Y019447D03*
X021721Y019381D03*
X021721Y019347D03*
X021788Y019181D03*
X021788Y019147D03*
X021821Y019047D03*
X021888Y018847D03*
X021921Y018781D03*
X021921Y018747D03*
X022021Y018547D03*
X023088Y017647D03*
X023221Y017547D03*
X023321Y017481D03*
X023388Y017447D03*
X023488Y017381D03*
X023688Y017881D03*
X023521Y017981D03*
X024321Y017747D03*
X024388Y017947D03*
X024388Y017981D03*
X024421Y018081D03*
X025121Y019547D03*
X024688Y019847D03*
X029588Y014447D03*
X029688Y011781D03*
X017121Y019647D03*
X016921Y019381D03*
X016121Y018747D03*
X015688Y018581D03*
X015588Y018547D03*
X015421Y018481D03*
X015088Y018347D03*
X014821Y018247D03*
X014821Y018781D03*
X013788Y018881D03*
X013688Y018747D03*
X014988Y019981D03*
X015421Y020147D03*
X015521Y020181D03*
X015688Y020247D03*
X016021Y020381D03*
X009521Y020347D03*
X009521Y020281D03*
X009521Y020247D03*
X009521Y020181D03*
X009521Y020147D03*
X009521Y020081D03*
X009521Y020047D03*
X009521Y019981D03*
X009521Y019947D03*
X009521Y019881D03*
X009521Y019847D03*
X009521Y019781D03*
X009521Y019747D03*
X009521Y019681D03*
X009488Y019647D03*
X009488Y019581D03*
X009488Y019547D03*
X009488Y019481D03*
X009488Y019447D03*
X009421Y019247D03*
X009421Y019181D03*
X009388Y019081D03*
X009388Y019047D03*
X009321Y018881D03*
X009288Y018781D03*
X009221Y018647D03*
X009188Y018581D03*
X009121Y018447D03*
X009021Y018281D03*
X008021Y017581D03*
X007821Y017447D03*
X007721Y017381D03*
X006888Y017647D03*
X006821Y017847D03*
X006821Y017881D03*
X006788Y017981D03*
X005588Y019481D03*
X006021Y020247D03*
X006488Y020247D03*
X005721Y021981D03*
X005688Y022081D03*
X005688Y022147D03*
X005621Y022347D03*
X004988Y022181D03*
X004788Y022047D03*
X004488Y022481D03*
X004621Y022581D03*
X003221Y021281D03*
X003188Y021181D03*
X003121Y021047D03*
X003121Y020981D03*
X003088Y020881D03*
X003021Y020681D03*
X003021Y020647D03*
X003021Y020581D03*
X003021Y020547D03*
X002988Y020481D03*
X002988Y020447D03*
X002988Y020381D03*
X002988Y020347D03*
X002988Y020281D03*
X002988Y020247D03*
X002988Y020181D03*
X002988Y019981D03*
X002988Y019947D03*
X002988Y019881D03*
X002988Y019847D03*
X002988Y019781D03*
X002988Y019747D03*
X002988Y019681D03*
X002988Y019647D03*
X002988Y019581D03*
X003021Y019481D03*
X003021Y019447D03*
X003021Y019381D03*
X003088Y019181D03*
X003088Y019147D03*
X003121Y019081D03*
X003121Y019047D03*
X003188Y018847D03*
X003221Y018781D03*
X003321Y018547D03*
X004521Y017547D03*
X004621Y017481D03*
X004788Y017381D03*
X005021Y017847D03*
X004821Y017981D03*
X002221Y015081D03*
X002221Y015047D03*
X002288Y014881D03*
X002288Y014847D03*
X002321Y014781D03*
X002321Y014747D03*
X002388Y014581D03*
X002388Y014547D03*
X002421Y014481D03*
X002421Y014447D03*
X002488Y014281D03*
X002488Y014247D03*
X002521Y014181D03*
X002521Y014147D03*
X002588Y013981D03*
X002588Y013947D03*
X002621Y013881D03*
X002621Y013847D03*
X002688Y013681D03*
X002688Y013647D03*
X002721Y013581D03*
X002721Y013547D03*
X002788Y013381D03*
X002788Y013347D03*
X002821Y013281D03*
X002821Y013247D03*
X002888Y013081D03*
X002888Y013047D03*
X002921Y012981D03*
X002921Y012947D03*
X002988Y012781D03*
X002988Y012747D03*
X003021Y012681D03*
X003021Y012647D03*
X003088Y012481D03*
X003121Y012381D03*
X003188Y012181D03*
X003221Y012081D03*
X003288Y011881D03*
X003321Y011781D03*
X003388Y011581D03*
X003421Y011481D03*
X003488Y011281D03*
X003521Y011181D03*
X003588Y010981D03*
X003621Y010881D03*
X003688Y010681D03*
X003721Y010581D03*
X003788Y010381D03*
X003821Y010281D03*
X003888Y010147D03*
X003888Y010081D03*
X003921Y010047D03*
X003921Y009981D03*
X003988Y009847D03*
X004021Y009747D03*
X004088Y009547D03*
X004121Y009447D03*
X004188Y009247D03*
X004221Y009147D03*
X004288Y008947D03*
X004321Y008847D03*
X004388Y008647D03*
X004421Y008547D03*
X004488Y008347D03*
X004521Y008247D03*
X005521Y008247D03*
X005521Y008281D03*
X005521Y008347D03*
X005521Y008381D03*
X005521Y008447D03*
X005521Y008481D03*
X005521Y008547D03*
X005521Y008581D03*
X005521Y008647D03*
X005521Y008681D03*
X005521Y008747D03*
X005521Y008781D03*
X005521Y008847D03*
X005521Y008881D03*
X005521Y008947D03*
X005521Y008981D03*
X005521Y009047D03*
X005521Y009081D03*
X005521Y009147D03*
X005521Y009181D03*
X005521Y009247D03*
X005521Y009281D03*
X005521Y009347D03*
X005521Y009381D03*
X005521Y009447D03*
X005521Y009481D03*
X005521Y009547D03*
X005521Y009581D03*
X005521Y009647D03*
X005521Y009681D03*
X005521Y009747D03*
X005521Y009781D03*
X005521Y009847D03*
X005521Y009881D03*
X005521Y009947D03*
X005521Y009981D03*
X005521Y010047D03*
X005521Y010081D03*
X005521Y010147D03*
X005521Y010181D03*
X005521Y010247D03*
X005521Y010281D03*
X005521Y010347D03*
X005521Y010381D03*
X005521Y010447D03*
X005521Y010481D03*
X005521Y010547D03*
X005521Y010581D03*
X005521Y010647D03*
X005521Y010681D03*
X005521Y010747D03*
X005521Y010781D03*
X005521Y010847D03*
X005521Y010881D03*
X005521Y010947D03*
X005521Y010981D03*
X005521Y011047D03*
X005521Y011081D03*
X005521Y011147D03*
X005521Y011181D03*
X005521Y011247D03*
X005521Y011281D03*
X005521Y011347D03*
X005521Y011381D03*
X005521Y011447D03*
X005521Y011481D03*
X005521Y011547D03*
X005521Y011581D03*
X005521Y011647D03*
X005521Y011681D03*
X005521Y011747D03*
X005521Y011781D03*
X005521Y011847D03*
X005521Y011881D03*
X005521Y011947D03*
X005521Y011981D03*
X005521Y012047D03*
X005521Y012081D03*
X005521Y012147D03*
X005521Y012181D03*
X005521Y012247D03*
X005521Y012281D03*
X005521Y012347D03*
X005521Y012381D03*
X005521Y012447D03*
X005521Y012481D03*
X005521Y012547D03*
X005521Y012581D03*
X005521Y012647D03*
X005521Y012681D03*
X005521Y012747D03*
X005521Y012781D03*
X005521Y012847D03*
X005521Y012881D03*
X005488Y012981D03*
X005488Y013047D03*
X005488Y013081D03*
X005488Y013147D03*
X005488Y013181D03*
X005488Y013247D03*
X005488Y013281D03*
X005488Y013347D03*
X005488Y013381D03*
X005488Y013447D03*
X005488Y013481D03*
X005488Y013547D03*
X005488Y013581D03*
X005488Y013647D03*
X005488Y013681D03*
X005488Y013747D03*
X005488Y013781D03*
X005488Y013847D03*
X005488Y013881D03*
X005488Y013947D03*
X005488Y013981D03*
X005488Y014047D03*
X005488Y014081D03*
X005488Y014147D03*
X005488Y014181D03*
X005488Y014247D03*
X005488Y014281D03*
X005488Y014347D03*
X005488Y014381D03*
X005488Y014447D03*
X009488Y020447D03*
X009488Y020481D03*
X009488Y020547D03*
X009488Y020581D03*
X009421Y020781D03*
X009421Y020847D03*
X009421Y020881D03*
X009388Y020947D03*
X009388Y020981D03*
X009321Y021147D03*
X009321Y021181D03*
X009288Y021247D03*
X009188Y021481D03*
X007921Y022547D03*
X007688Y022681D03*
D18*
X007838Y022881D03*
X008071Y022747D03*
X007271Y021047D03*
X004638Y022881D03*
X004571Y022847D03*
X009471Y017581D03*
X009571Y017647D03*
X009638Y017681D03*
X009738Y017747D03*
X009971Y017881D03*
X010138Y017981D03*
X010271Y018047D03*
X010438Y018147D03*
X009238Y017447D03*
X009138Y017381D03*
X009071Y017347D03*
X008938Y017281D03*
X008771Y017181D03*
X008738Y017147D03*
X008538Y017047D03*
X008438Y016981D03*
X008371Y016947D03*
X008271Y016881D03*
X008038Y016747D03*
X007938Y016681D03*
X007871Y016647D03*
X007571Y016481D03*
X007538Y016447D03*
X007238Y016281D03*
X007171Y016247D03*
X007071Y016181D03*
X006838Y016047D03*
X006738Y015981D03*
X006671Y015947D03*
X006571Y015881D03*
X006371Y015781D03*
X006338Y015747D03*
X006171Y015647D03*
X005471Y014981D03*
X005471Y014947D03*
X004638Y017181D03*
X007871Y017181D03*
X007971Y017247D03*
X014971Y018147D03*
X015271Y018881D03*
X015838Y018481D03*
X015771Y020447D03*
X022638Y019381D03*
X023171Y017281D03*
X023338Y017181D03*
X024338Y015147D03*
X026538Y017181D03*
X027838Y018381D03*
X026571Y022881D03*
X025738Y022947D03*
X024138Y022947D03*
X023271Y022847D03*
X016071Y002481D03*
X013471Y001281D03*
D19*
X014088Y001281D03*
X005588Y007481D03*
X005588Y007747D03*
X005588Y007781D03*
X004721Y007781D03*
X004688Y007647D03*
X004721Y007481D03*
X004721Y007447D03*
X005521Y014781D03*
X005488Y015047D03*
X005521Y015147D03*
X006388Y015081D03*
X006388Y014881D03*
X006388Y014847D03*
X005588Y017081D03*
X004821Y017081D03*
X004688Y017147D03*
X005588Y019381D03*
X008521Y019381D03*
X007721Y022947D03*
X004788Y022947D03*
X019688Y020381D03*
X023321Y022881D03*
X024288Y022981D03*
X026421Y022947D03*
X027221Y020681D03*
X027821Y018347D03*
X026488Y017147D03*
X024788Y015881D03*
X024788Y015847D03*
X024788Y015647D03*
X023921Y015581D03*
X023888Y015681D03*
X024188Y017681D03*
X024288Y020681D03*
X025421Y013547D03*
X025421Y013181D03*
X025421Y013147D03*
X025788Y011681D03*
D20*
X025804Y011647D03*
X025404Y013347D03*
X025404Y013381D03*
X025604Y014181D03*
X024804Y015681D03*
X024804Y015747D03*
X024804Y015781D03*
X023904Y015647D03*
X023404Y017147D03*
X024504Y018581D03*
X024304Y022447D03*
X029004Y014847D03*
X017704Y002481D03*
X016704Y002481D03*
X016704Y001281D03*
X017704Y001281D03*
X005604Y007547D03*
X005604Y007581D03*
X005604Y007647D03*
X005604Y007681D03*
X004704Y007681D03*
X004704Y007747D03*
X004704Y007581D03*
X004704Y007547D03*
X005504Y014847D03*
X005504Y014881D03*
X005504Y015081D03*
X006404Y015047D03*
X006404Y014981D03*
X006404Y014947D03*
X006204Y015681D03*
X006504Y015847D03*
X006904Y016081D03*
X007004Y016147D03*
X007404Y016381D03*
X007704Y016547D03*
X008104Y016781D03*
X008204Y016847D03*
X008604Y017081D03*
X008904Y017247D03*
X009304Y017481D03*
X009404Y017547D03*
X009804Y017781D03*
X010104Y017947D03*
X007804Y017147D03*
X005804Y021481D03*
X005504Y022947D03*
X007004Y022947D03*
X007904Y022847D03*
X015004Y020147D03*
X015604Y020381D03*
X016004Y018547D03*
D21*
X011771Y018214D03*
X011771Y018114D03*
X011771Y018014D03*
X010871Y018014D03*
X007271Y021014D03*
X007571Y023014D03*
X004904Y023014D03*
X005271Y020214D03*
X004971Y017014D03*
X005571Y015214D03*
X006304Y015214D03*
X005538Y007414D03*
X013471Y001314D03*
X014104Y001314D03*
X016104Y001914D03*
X016704Y001314D03*
X017704Y001314D03*
X023971Y015514D03*
X023471Y017114D03*
X024471Y018614D03*
X024938Y019514D03*
X024938Y019714D03*
X027838Y018314D03*
X026304Y023014D03*
X023571Y023014D03*
X016538Y025714D03*
X015304Y026514D03*
D22*
X015804Y026414D03*
X016004Y025914D03*
X018704Y026714D03*
X018804Y026514D03*
X019404Y026414D03*
X019504Y026614D03*
X019504Y025714D03*
X019604Y025514D03*
X019204Y019814D03*
X019204Y019514D03*
X020204Y019614D03*
X022704Y019414D03*
X028504Y016214D03*
X014704Y001314D03*
X011704Y017914D03*
D23*
X009254Y018714D03*
X009154Y018514D03*
X009354Y019014D03*
X009454Y019314D03*
X009454Y019414D03*
X009454Y020714D03*
X009254Y021314D03*
X009054Y021714D03*
X006454Y020514D03*
X006054Y020514D03*
X005654Y022214D03*
X003154Y021114D03*
X003054Y020814D03*
X003054Y020714D03*
X002954Y020114D03*
X002954Y020014D03*
X003054Y019314D03*
X003154Y018914D03*
X003254Y018714D03*
X003454Y018314D03*
X006854Y017814D03*
X007754Y017414D03*
X002954Y012914D03*
X003054Y012614D03*
X003154Y012314D03*
X003254Y012014D03*
X003354Y011714D03*
X003454Y011414D03*
X003554Y011114D03*
X003654Y010814D03*
X003754Y010514D03*
X003854Y010214D03*
X003954Y009914D03*
X004054Y009614D03*
X004154Y009314D03*
X004254Y009014D03*
X004354Y008714D03*
X004454Y008414D03*
X004554Y008114D03*
X014254Y002514D03*
X014254Y002414D03*
X014254Y002314D03*
X014254Y002214D03*
X014254Y002114D03*
X014254Y002014D03*
X014254Y001914D03*
X014254Y001814D03*
X014254Y001714D03*
X014254Y001614D03*
X014254Y001514D03*
X014554Y001514D03*
X014554Y001414D03*
X014554Y001614D03*
X014554Y001714D03*
X014554Y001814D03*
X014554Y001914D03*
X014554Y002014D03*
X014554Y002114D03*
X014554Y002214D03*
X014554Y002314D03*
X014554Y002414D03*
X014554Y002514D03*
X015154Y001814D03*
X015154Y001714D03*
X015154Y001614D03*
X015154Y001514D03*
X015154Y001414D03*
X015154Y001314D03*
X014854Y001414D03*
X014854Y001514D03*
X014854Y001614D03*
X016854Y001614D03*
X016854Y001714D03*
X016854Y001814D03*
X016854Y001914D03*
X016854Y002014D03*
X016854Y002114D03*
X016854Y002214D03*
X016854Y002314D03*
X016854Y001514D03*
X016854Y001414D03*
X017854Y001414D03*
X017854Y001514D03*
X017854Y001614D03*
X017854Y001714D03*
X017854Y001814D03*
X017854Y001914D03*
X017854Y002014D03*
X017854Y002114D03*
X017854Y002214D03*
X017854Y002314D03*
X025754Y011614D03*
X025654Y011714D03*
X026254Y017314D03*
X026454Y017414D03*
X028054Y019014D03*
X028154Y019414D03*
X028154Y020614D03*
X028154Y020714D03*
X028054Y021014D03*
X027954Y021314D03*
X027754Y021714D03*
X026354Y022714D03*
X025554Y022314D03*
X023554Y022114D03*
X023354Y022614D03*
X021854Y021114D03*
X021754Y020814D03*
X021654Y020214D03*
X021654Y020114D03*
X021654Y020014D03*
X021654Y019914D03*
X021654Y019814D03*
X021754Y019314D03*
X021754Y019214D03*
X021854Y018914D03*
X024054Y019914D03*
X025154Y019814D03*
X024354Y017814D03*
X016654Y019014D03*
X015254Y018414D03*
X015154Y018714D03*
X014254Y019514D03*
X015854Y020314D03*
D24*
X019171Y019714D03*
X020171Y019814D03*
X019538Y025614D03*
X019438Y025814D03*
X018871Y025914D03*
X018838Y025814D03*
X018771Y025714D03*
X018871Y026414D03*
X019471Y026514D03*
X016071Y025714D03*
X016038Y025814D03*
X015971Y026014D03*
X015838Y026314D03*
X015771Y026514D03*
X012571Y026514D03*
X012571Y026614D03*
X012571Y026714D03*
X012571Y026814D03*
X012571Y026914D03*
X012571Y026414D03*
X012571Y025914D03*
X012571Y025814D03*
X012571Y025714D03*
X012571Y025614D03*
X012571Y025514D03*
X012571Y025414D03*
X006238Y020314D03*
X010938Y017914D03*
X002938Y015914D03*
X002938Y015714D03*
X001971Y015914D03*
X005138Y008214D03*
X016071Y001314D03*
X029471Y016214D03*
X029471Y016414D03*
X029438Y016514D03*
X026038Y023114D03*
D25*
X026521Y022614D03*
X025521Y022214D03*
X025488Y022114D03*
X023921Y022314D03*
X023721Y022214D03*
X022121Y021714D03*
X021921Y021314D03*
X021888Y021214D03*
X021821Y021014D03*
X021788Y020914D03*
X021721Y020714D03*
X021721Y020614D03*
X021688Y020514D03*
X021688Y020414D03*
X021688Y020314D03*
X021688Y019714D03*
X021688Y019614D03*
X021721Y019414D03*
X021788Y019114D03*
X021821Y019014D03*
X021988Y018614D03*
X022088Y018414D03*
X023621Y017914D03*
X024321Y017714D03*
X024421Y018114D03*
X024721Y019814D03*
X027888Y018614D03*
X027988Y018814D03*
X028021Y018914D03*
X028088Y019114D03*
X028121Y019214D03*
X028121Y019314D03*
X028188Y019514D03*
X028188Y019614D03*
X028188Y019714D03*
X028221Y019814D03*
X028221Y019914D03*
X028221Y020014D03*
X028221Y020114D03*
X028221Y020214D03*
X028221Y020314D03*
X028188Y020414D03*
X028188Y020514D03*
X028121Y020814D03*
X028088Y020914D03*
X027988Y021214D03*
X027921Y021414D03*
X029421Y014614D03*
X029621Y014414D03*
X029621Y011714D03*
X025588Y014314D03*
X017321Y019914D03*
X017021Y019514D03*
X016121Y020414D03*
X015588Y020214D03*
X015088Y020014D03*
X014821Y019914D03*
X016021Y018714D03*
X014988Y018314D03*
X009488Y019514D03*
X009488Y019614D03*
X009521Y019714D03*
X009521Y019814D03*
X009521Y019914D03*
X009521Y020014D03*
X009521Y020114D03*
X009521Y020214D03*
X009521Y020314D03*
X009488Y020414D03*
X009488Y020514D03*
X009421Y020814D03*
X009221Y021414D03*
X007621Y022714D03*
X005688Y022114D03*
X005721Y022014D03*
X004688Y022614D03*
X003188Y021214D03*
X003121Y021014D03*
X003088Y020914D03*
X003021Y020614D03*
X002988Y020414D03*
X002988Y020314D03*
X002988Y020214D03*
X002988Y019914D03*
X002988Y019814D03*
X002988Y019714D03*
X002988Y019614D03*
X003021Y019514D03*
X003021Y019414D03*
X003088Y019114D03*
X003121Y019014D03*
X003288Y018614D03*
X004721Y017414D03*
X004921Y017314D03*
X005088Y017814D03*
X004921Y017914D03*
X006788Y018014D03*
X006821Y017914D03*
X006488Y019814D03*
X006021Y019814D03*
X005988Y020214D03*
X003888Y020714D03*
X009321Y018914D03*
X009288Y018814D03*
X009388Y019114D03*
X009421Y019214D03*
X005488Y014414D03*
X005488Y014314D03*
X005488Y014214D03*
X005488Y014114D03*
X005488Y014014D03*
X005488Y013914D03*
X005488Y013814D03*
X005488Y013714D03*
X005488Y013614D03*
X005488Y013514D03*
X005488Y013414D03*
X005488Y013314D03*
X005488Y013214D03*
X005488Y013114D03*
X005488Y013014D03*
X005521Y012814D03*
X005521Y012714D03*
X005521Y012614D03*
X005521Y012514D03*
X005521Y012414D03*
X005521Y012314D03*
X005521Y012214D03*
X005521Y012114D03*
X005521Y012014D03*
X005521Y011914D03*
X005521Y011814D03*
X005521Y011714D03*
X005521Y011614D03*
X005521Y011514D03*
X005521Y011414D03*
X005521Y011314D03*
X005521Y011214D03*
X005521Y011114D03*
X005521Y011014D03*
X005521Y010914D03*
X005521Y010814D03*
X005521Y010714D03*
X005521Y010614D03*
X005521Y010514D03*
X005521Y010414D03*
X005521Y010314D03*
X005521Y010214D03*
X005521Y010114D03*
X005521Y010014D03*
X005521Y009914D03*
X005521Y009814D03*
X005521Y009714D03*
X005521Y009614D03*
X005521Y009514D03*
X005521Y009414D03*
X005521Y009314D03*
X005521Y009214D03*
X005521Y009114D03*
X005521Y009014D03*
X005521Y008914D03*
X005521Y008814D03*
X005521Y008714D03*
X005521Y008614D03*
X005521Y008514D03*
X005521Y008414D03*
X005521Y008314D03*
X005521Y008214D03*
X004521Y008214D03*
X004488Y008314D03*
X004421Y008514D03*
X004388Y008614D03*
X004321Y008814D03*
X004288Y008914D03*
X004221Y009114D03*
X004188Y009214D03*
X004121Y009414D03*
X004088Y009514D03*
X004021Y009714D03*
X003988Y009814D03*
X003921Y010014D03*
X003888Y010114D03*
X003821Y010314D03*
X003788Y010414D03*
X003721Y010614D03*
X003688Y010714D03*
X003621Y010914D03*
X003588Y011014D03*
X003521Y011214D03*
X003488Y011314D03*
X003421Y011514D03*
X003388Y011614D03*
X003321Y011814D03*
X003288Y011914D03*
X003221Y012114D03*
X003188Y012214D03*
X003121Y012414D03*
X003088Y012514D03*
X003021Y012714D03*
X002988Y012814D03*
X002921Y013014D03*
X013621Y002314D03*
X013621Y002214D03*
X013621Y002114D03*
X013621Y002014D03*
X013621Y001914D03*
X013621Y001814D03*
X013621Y001714D03*
X013621Y001614D03*
X013621Y001514D03*
X013621Y001414D03*
X013321Y001414D03*
X013321Y001514D03*
X015321Y002014D03*
X015321Y002114D03*
X015321Y002214D03*
X015321Y002314D03*
X015321Y002414D03*
X015321Y002514D03*
X015921Y002314D03*
X015921Y002214D03*
X015921Y001814D03*
X015921Y001714D03*
X015921Y001614D03*
X015921Y001514D03*
X015921Y001414D03*
X017221Y001414D03*
X017221Y001514D03*
X017221Y001614D03*
X017221Y001714D03*
X017221Y001814D03*
X017221Y001914D03*
X017221Y002014D03*
X017221Y002114D03*
X017221Y002214D03*
X017221Y002314D03*
X017221Y001314D03*
D26*
X017688Y001347D03*
X016688Y001347D03*
X016088Y001881D03*
X014088Y001347D03*
X013488Y001347D03*
X005521Y007381D03*
X005521Y007881D03*
X004788Y007381D03*
X003588Y017981D03*
X005588Y019347D03*
X004988Y023047D03*
X006221Y023381D03*
X010521Y025347D03*
X010521Y025381D03*
X010521Y025447D03*
X010521Y025481D03*
X010521Y025547D03*
X010521Y025581D03*
X010521Y025647D03*
X010521Y025681D03*
X010521Y025747D03*
X010521Y025781D03*
X010521Y025847D03*
X010521Y025881D03*
X010521Y025947D03*
X010521Y025981D03*
X010521Y026047D03*
X010521Y026081D03*
X010521Y026147D03*
X010521Y026181D03*
X010521Y026247D03*
X010521Y026281D03*
X010521Y026347D03*
X010521Y026381D03*
X010521Y026447D03*
X010521Y026481D03*
X010521Y026547D03*
X013288Y026547D03*
X013288Y026481D03*
X013288Y026447D03*
X013288Y026381D03*
X013288Y026347D03*
X013288Y025947D03*
X013288Y025881D03*
X013288Y025847D03*
X013288Y025781D03*
X013288Y025747D03*
X013288Y025681D03*
X015321Y025681D03*
X015321Y025647D03*
X015321Y025581D03*
X015321Y025547D03*
X015321Y025481D03*
X015321Y025447D03*
X015321Y025381D03*
X015321Y025347D03*
X015321Y025747D03*
X015321Y025781D03*
X015321Y025847D03*
X015321Y025881D03*
X015321Y025947D03*
X015321Y025981D03*
X015321Y026047D03*
X015321Y026081D03*
X015321Y026147D03*
X015321Y026181D03*
X015321Y026247D03*
X015321Y026281D03*
X015321Y026347D03*
X015321Y026381D03*
X015788Y026481D03*
X015988Y025947D03*
X016021Y025847D03*
X016521Y025847D03*
X016521Y025881D03*
X016521Y025947D03*
X016521Y025981D03*
X016521Y026047D03*
X016521Y026081D03*
X016521Y026147D03*
X016521Y026181D03*
X016521Y026247D03*
X016521Y026281D03*
X016521Y026347D03*
X016521Y026381D03*
X016521Y026447D03*
X016521Y026481D03*
X016521Y026547D03*
X016521Y026581D03*
X016521Y026647D03*
X016521Y026681D03*
X016521Y026747D03*
X016521Y026781D03*
X016521Y026847D03*
X016521Y026881D03*
X017221Y026547D03*
X017221Y026481D03*
X017221Y026447D03*
X017221Y026381D03*
X017221Y026347D03*
X017221Y025947D03*
X017221Y025881D03*
X017221Y025847D03*
X017221Y025781D03*
X017221Y025747D03*
X017221Y025681D03*
X016521Y025781D03*
X019421Y025847D03*
X019388Y026381D03*
X020621Y026381D03*
X020621Y026347D03*
X020621Y026281D03*
X020621Y026247D03*
X020621Y026181D03*
X020621Y026147D03*
X020621Y026081D03*
X020621Y026047D03*
X020621Y025981D03*
X020621Y025947D03*
X020621Y025881D03*
X020621Y025847D03*
X020621Y025781D03*
X020621Y025747D03*
X020621Y025681D03*
X020621Y025647D03*
X020621Y025581D03*
X020621Y025547D03*
X020621Y025481D03*
X020621Y025447D03*
X020621Y025381D03*
X020621Y025347D03*
X020621Y026447D03*
X020621Y026481D03*
X020621Y026547D03*
X026221Y023047D03*
X020188Y019747D03*
X020188Y019681D03*
X020188Y019647D03*
X019688Y018981D03*
X019188Y019581D03*
X019188Y019747D03*
X019188Y019781D03*
X024921Y016681D03*
X028488Y016381D03*
X028488Y016347D03*
X028488Y016281D03*
X028488Y016247D03*
X029488Y016281D03*
X029488Y016347D03*
X029488Y016381D03*
X011721Y017947D03*
X010921Y017947D03*
X010888Y017981D03*
X011321Y018747D03*
D27*
X013771Y018847D03*
X013838Y018947D03*
X013871Y018981D03*
X013938Y019081D03*
X013971Y019147D03*
X014071Y019247D03*
X014071Y019281D03*
X014138Y019347D03*
X014238Y019481D03*
X014271Y019547D03*
X014338Y019647D03*
X014371Y019681D03*
X014438Y019747D03*
X014438Y019781D03*
X014538Y019881D03*
X014571Y019947D03*
X014738Y019881D03*
X015171Y020047D03*
X015771Y020281D03*
X015938Y020347D03*
X016871Y020181D03*
X017138Y019681D03*
X017071Y019581D03*
X017038Y019547D03*
X016971Y019447D03*
X016838Y019281D03*
X016838Y019247D03*
X016771Y019181D03*
X016738Y019147D03*
X016671Y019047D03*
X016638Y018981D03*
X016538Y018847D03*
X016471Y018781D03*
X015938Y018681D03*
X015338Y018447D03*
X015138Y018681D03*
X014638Y017981D03*
X017271Y019847D03*
X022571Y019347D03*
X023071Y018381D03*
X023171Y018281D03*
X023271Y018181D03*
X023371Y018081D03*
X023438Y018047D03*
X023571Y017947D03*
X023171Y017581D03*
X023038Y017681D03*
X022971Y017747D03*
X022938Y017781D03*
X024338Y017781D03*
X024938Y019481D03*
X024738Y019547D03*
X024671Y019581D03*
X024671Y019881D03*
X024638Y019947D03*
X024638Y020147D03*
X025171Y020247D03*
X025238Y020147D03*
X024271Y020581D03*
X024071Y020247D03*
X022571Y020681D03*
X022471Y021781D03*
X022771Y022147D03*
X022871Y022247D03*
X023038Y022381D03*
X023171Y022481D03*
X023371Y021981D03*
X023338Y021947D03*
X025538Y022281D03*
X025571Y022381D03*
X026571Y022581D03*
X026771Y022447D03*
X026838Y022381D03*
X026971Y022281D03*
X027071Y022181D03*
X027171Y022081D03*
X026838Y017681D03*
X025571Y014281D03*
X025538Y014247D03*
X025438Y014081D03*
X025438Y014047D03*
X025371Y013881D03*
X025371Y013847D03*
X025338Y013781D03*
X025338Y013747D03*
X025338Y012381D03*
X025338Y012347D03*
X025438Y012081D03*
X025471Y011981D03*
X025638Y011747D03*
X029571Y011647D03*
X029871Y012081D03*
X029971Y012447D03*
X029971Y012481D03*
X029971Y013647D03*
X029938Y013781D03*
X029838Y014081D03*
X029738Y014247D03*
X029738Y014281D03*
X017838Y002381D03*
X017538Y002381D03*
X017538Y002347D03*
X017538Y002281D03*
X017538Y002247D03*
X017538Y002181D03*
X017538Y002147D03*
X017538Y002081D03*
X017538Y002047D03*
X017538Y001981D03*
X017538Y001947D03*
X017538Y001881D03*
X017538Y001847D03*
X017538Y001781D03*
X017538Y001747D03*
X017538Y001681D03*
X017538Y001647D03*
X017538Y001581D03*
X017538Y001547D03*
X017538Y001481D03*
X017538Y001447D03*
X017538Y001381D03*
X016838Y002381D03*
X016538Y002381D03*
X016538Y002347D03*
X016538Y002281D03*
X016538Y002247D03*
X016538Y002181D03*
X016538Y002147D03*
X016538Y002081D03*
X016538Y002047D03*
X016538Y001981D03*
X016538Y001947D03*
X016538Y001881D03*
X016538Y001847D03*
X016538Y001781D03*
X016538Y001747D03*
X016538Y001681D03*
X016538Y001647D03*
X016538Y001581D03*
X016538Y001547D03*
X016538Y001481D03*
X016538Y001447D03*
X016538Y001381D03*
X016238Y001381D03*
X016238Y001447D03*
X016238Y001481D03*
X016238Y001547D03*
X016238Y001981D03*
X016238Y002047D03*
X016238Y002081D03*
X016238Y002147D03*
X016238Y002181D03*
X016238Y002247D03*
X016238Y002281D03*
X016238Y002347D03*
X016238Y002381D03*
X014238Y001381D03*
X013938Y001381D03*
X013938Y001447D03*
X013938Y001481D03*
X013938Y001547D03*
X013938Y001581D03*
X013938Y001647D03*
X013938Y001681D03*
X013938Y001747D03*
X013938Y001781D03*
X013938Y001847D03*
X013938Y001881D03*
X013938Y001947D03*
X013938Y001981D03*
X013938Y002047D03*
X013938Y002081D03*
X013938Y002147D03*
X013938Y002181D03*
X013938Y002247D03*
X013938Y002281D03*
X013938Y002347D03*
X013938Y002381D03*
X013938Y002447D03*
X013938Y002481D03*
X007871Y017481D03*
X007971Y017547D03*
X008238Y017747D03*
X008271Y017781D03*
X008338Y017847D03*
X008371Y017881D03*
X008438Y017947D03*
X008471Y017981D03*
X008538Y018047D03*
X006871Y017681D03*
X006538Y019247D03*
X006471Y019547D03*
X006538Y019881D03*
X006571Y019981D03*
X006538Y020147D03*
X006538Y020181D03*
X005971Y020181D03*
X005938Y020081D03*
X005938Y019947D03*
X005971Y019881D03*
X005971Y019847D03*
X006038Y019547D03*
X004971Y017881D03*
X004871Y017947D03*
X004738Y018047D03*
X004671Y018081D03*
X004571Y018181D03*
X004271Y017747D03*
X004338Y017681D03*
X004371Y017647D03*
X004471Y017581D03*
X004671Y017447D03*
X003938Y018081D03*
X003871Y019381D03*
X004438Y021747D03*
X004471Y021781D03*
X004538Y021847D03*
X004571Y021881D03*
X004838Y022081D03*
X004938Y022147D03*
X004571Y022547D03*
X004438Y022447D03*
X004338Y022381D03*
X004238Y022281D03*
X004038Y022081D03*
X003938Y021981D03*
X003838Y021847D03*
X008071Y022447D03*
X008138Y022381D03*
X008171Y022347D03*
X008271Y022281D03*
X008371Y022181D03*
X008471Y022081D03*
X008638Y021881D03*
D28*
X008438Y022114D03*
X008338Y022214D03*
X007971Y022514D03*
X008171Y021614D03*
X006571Y020014D03*
X006538Y019914D03*
X005938Y019914D03*
X005938Y020114D03*
X005371Y019814D03*
X004538Y018214D03*
X004638Y018114D03*
X004771Y018014D03*
X004438Y017614D03*
X004571Y017514D03*
X006871Y017714D03*
X007938Y017514D03*
X008071Y017614D03*
X004738Y022014D03*
X004871Y022114D03*
X004538Y022514D03*
X004271Y022314D03*
X003971Y022014D03*
X005638Y022314D03*
X013738Y018814D03*
X013871Y019014D03*
X013971Y019114D03*
X014038Y019214D03*
X014171Y019414D03*
X014338Y019614D03*
X014471Y019814D03*
X014538Y019914D03*
X015338Y020114D03*
X016371Y020714D03*
X017238Y019814D03*
X017171Y019714D03*
X016938Y019414D03*
X016871Y019314D03*
X016738Y019114D03*
X016571Y018914D03*
X016271Y018814D03*
X015771Y018614D03*
X022571Y021914D03*
X022738Y022114D03*
X022838Y022214D03*
X023071Y022414D03*
X025238Y020814D03*
X025171Y020514D03*
X024671Y020214D03*
X024638Y019914D03*
X025238Y019914D03*
X026838Y018414D03*
X027271Y018114D03*
X026871Y017714D03*
X026738Y017614D03*
X027271Y019114D03*
X027138Y022114D03*
X027038Y022214D03*
X026938Y022314D03*
X026671Y022514D03*
X025571Y022414D03*
X023238Y018214D03*
X023338Y018114D03*
X023471Y018014D03*
X023138Y017614D03*
X023271Y017514D03*
X025671Y014414D03*
X025538Y014214D03*
X025471Y014114D03*
X025571Y011814D03*
X029538Y011614D03*
X029771Y011914D03*
X029871Y012114D03*
X029938Y012314D03*
X029971Y013714D03*
X017538Y002314D03*
X017538Y002214D03*
X017538Y002114D03*
X017538Y002014D03*
X017538Y001914D03*
X017538Y001814D03*
X017538Y001714D03*
X017538Y001614D03*
X017538Y001514D03*
X017538Y001414D03*
X016538Y001414D03*
X016538Y001514D03*
X016538Y001614D03*
X016538Y001714D03*
X016538Y001814D03*
X016538Y001914D03*
X016538Y002014D03*
X016538Y002114D03*
X016538Y002214D03*
X016538Y002314D03*
X016238Y002314D03*
X016238Y002214D03*
X016238Y002114D03*
X016238Y002014D03*
X016238Y001514D03*
X016238Y001414D03*
X014238Y001414D03*
X013938Y001414D03*
X013938Y001514D03*
X013938Y001614D03*
X013938Y001714D03*
X013938Y001814D03*
X013938Y001914D03*
X013938Y002014D03*
X013938Y002114D03*
X013938Y002214D03*
X013938Y002314D03*
X013938Y002414D03*
X013938Y002514D03*
D29*
X015154Y001847D03*
X005154Y008247D03*
X002654Y016847D03*
X002754Y016981D03*
X003454Y017947D03*
X003854Y017781D03*
X003954Y017681D03*
X005054Y017247D03*
X007254Y017181D03*
X008854Y018047D03*
X006254Y019481D03*
X006254Y020381D03*
X005854Y021547D03*
X007754Y021547D03*
X008554Y022347D03*
X008654Y022247D03*
X008754Y022147D03*
X008454Y022447D03*
X004454Y019547D03*
X003754Y022147D03*
X003954Y022381D03*
X004154Y022547D03*
X016754Y020447D03*
X016854Y020381D03*
X020554Y019347D03*
X020654Y019247D03*
X020754Y019147D03*
X021154Y018681D03*
X021254Y018581D03*
X021454Y018347D03*
X021554Y018247D03*
X022054Y017681D03*
X022154Y017581D03*
X022354Y017347D03*
X022454Y017247D03*
X022654Y017681D03*
X022554Y017781D03*
X022954Y016681D03*
X023054Y016581D03*
X023254Y016347D03*
X023354Y016247D03*
X023954Y017747D03*
X022654Y020647D03*
X022354Y022047D03*
X022454Y022181D03*
X022554Y022281D03*
X022654Y022381D03*
X022754Y022481D03*
X025954Y022881D03*
X026054Y022847D03*
X027154Y022447D03*
X027254Y022347D03*
X027354Y022247D03*
X028354Y017781D03*
X028754Y017281D03*
X028854Y017147D03*
X029254Y011381D03*
D30*
X025454Y012581D03*
X025454Y012947D03*
X024354Y017081D03*
X023654Y023047D03*
X016054Y025747D03*
X011554Y025747D03*
X011554Y025781D03*
X011554Y025847D03*
X011554Y025881D03*
X011554Y025681D03*
X011554Y025647D03*
X011554Y025581D03*
X011554Y025547D03*
X011554Y025481D03*
X011554Y025447D03*
X011554Y025381D03*
X011554Y025347D03*
X011554Y026347D03*
X011554Y026381D03*
X011554Y026447D03*
X011554Y026481D03*
X011554Y026547D03*
X011554Y026581D03*
X011554Y026647D03*
X011554Y026681D03*
X011554Y026747D03*
X011554Y026781D03*
X011554Y026847D03*
X011554Y026881D03*
X005654Y022981D03*
X005054Y016981D03*
X002954Y015881D03*
X002954Y015847D03*
X002954Y015781D03*
X002954Y015747D03*
X001954Y015747D03*
X001954Y015781D03*
X001954Y015847D03*
X001954Y015881D03*
X011754Y017981D03*
X011754Y018281D03*
X016054Y001847D03*
D31*
X015154Y001881D03*
X005554Y007447D03*
X004754Y007847D03*
X005554Y014747D03*
X006354Y014781D03*
X006354Y015147D03*
X006254Y020347D03*
X007654Y022981D03*
X023454Y022947D03*
X024754Y015947D03*
X024754Y015581D03*
X023854Y015747D03*
X025454Y013681D03*
X025554Y012047D03*
X029654Y014181D03*
D32*
X025454Y012614D03*
X023854Y015814D03*
X011554Y025314D03*
X011554Y025414D03*
X011554Y025514D03*
X011554Y025614D03*
X011554Y025714D03*
X011554Y025814D03*
X011554Y025914D03*
X011554Y026414D03*
X011554Y026514D03*
X011554Y026614D03*
X011554Y026714D03*
X011554Y026814D03*
X011554Y026914D03*
X006254Y019714D03*
X006254Y019514D03*
X002954Y015814D03*
X001954Y015814D03*
X001954Y015714D03*
X015154Y001914D03*
D33*
X015304Y001947D03*
X015304Y001981D03*
X015004Y001981D03*
X015004Y002047D03*
X015004Y002081D03*
X015004Y002147D03*
X015004Y002181D03*
X015004Y002247D03*
X015004Y002281D03*
X015004Y002347D03*
X015004Y002381D03*
X015004Y002447D03*
X015004Y002481D03*
X005504Y012947D03*
X008104Y017647D03*
X006504Y019847D03*
X008204Y021581D03*
X008404Y022147D03*
X008304Y022247D03*
X008004Y022481D03*
X004704Y021981D03*
X004304Y022347D03*
X004204Y022247D03*
X004004Y022047D03*
X004504Y018247D03*
X004604Y018147D03*
X013704Y018781D03*
X013904Y019047D03*
X014004Y019181D03*
X014204Y019447D03*
X014304Y019581D03*
X014504Y019847D03*
X014904Y019947D03*
X014804Y018747D03*
X014904Y018281D03*
X014104Y018547D03*
X016204Y018781D03*
X016604Y018947D03*
X016704Y019081D03*
X016904Y019347D03*
X017004Y019481D03*
X017204Y019747D03*
X017204Y019781D03*
X017304Y019881D03*
X016204Y020447D03*
X022504Y018247D03*
X023104Y018347D03*
X023204Y018247D03*
X023304Y018147D03*
X025204Y019581D03*
X025204Y019847D03*
X024704Y020247D03*
X023504Y022081D03*
X023604Y022147D03*
X023304Y022581D03*
X023104Y022447D03*
X023004Y022347D03*
X022904Y022281D03*
X022804Y022181D03*
X027004Y022247D03*
X027104Y022147D03*
X027204Y022047D03*
X026804Y018381D03*
X027304Y018147D03*
X026904Y017747D03*
X026804Y017647D03*
X026704Y017581D03*
X026504Y017447D03*
X025704Y014447D03*
X025504Y014147D03*
X025304Y013581D03*
X025304Y012981D03*
X025304Y012547D03*
X025404Y012147D03*
X025504Y011947D03*
X025604Y011781D03*
X029804Y011981D03*
X029904Y012181D03*
X030004Y012847D03*
X030004Y012881D03*
X030004Y013047D03*
X030004Y013081D03*
X030004Y013247D03*
X030004Y013281D03*
X029904Y013847D03*
X029804Y014147D03*
D34*
X029704Y014314D03*
X029904Y013914D03*
X030004Y013314D03*
X030004Y013214D03*
X030004Y013114D03*
X030004Y013014D03*
X030004Y012914D03*
X030004Y012814D03*
X030004Y012714D03*
X029704Y011814D03*
X025504Y011914D03*
X025404Y012114D03*
X025304Y012514D03*
X026604Y017514D03*
X025204Y020214D03*
X024704Y020514D03*
X023304Y021914D03*
X023204Y021814D03*
X023404Y022014D03*
X023204Y022514D03*
X026804Y022414D03*
X022604Y018114D03*
X023004Y017714D03*
X017104Y019614D03*
X016804Y019214D03*
X016504Y018814D03*
X015504Y018514D03*
X014404Y019714D03*
X014104Y019314D03*
X013804Y018914D03*
X008504Y018014D03*
X008404Y017914D03*
X008304Y017814D03*
X008204Y017714D03*
X006504Y020214D03*
X004604Y021914D03*
X004504Y021814D03*
X004404Y021714D03*
X004404Y022414D03*
X007804Y022614D03*
X008104Y022414D03*
X003904Y018114D03*
X004304Y017714D03*
X005504Y012914D03*
X015004Y002514D03*
X015004Y002414D03*
X015004Y002314D03*
X015004Y002214D03*
X015004Y002114D03*
X015004Y002014D03*
D35*
X005138Y007014D03*
X013571Y002514D03*
X013571Y002414D03*
X017171Y002414D03*
X017171Y002514D03*
X022971Y017414D03*
X022838Y017514D03*
X022738Y017614D03*
X023538Y020414D03*
X023671Y021314D03*
X023571Y021414D03*
X023471Y021514D03*
X025871Y022914D03*
X026971Y022614D03*
X026271Y018714D03*
X027038Y017514D03*
X027838Y018414D03*
X015238Y018814D03*
X014671Y020014D03*
X008471Y017614D03*
X006838Y017614D03*
X005038Y018814D03*
X004938Y018714D03*
X004838Y018614D03*
X004738Y018514D03*
X004338Y019514D03*
X005071Y019714D03*
X005838Y021514D03*
X005538Y022414D03*
X005371Y022914D03*
X004371Y022714D03*
X004238Y022614D03*
X007138Y022914D03*
X008271Y022614D03*
X008371Y022514D03*
X007638Y021414D03*
X007538Y021314D03*
X004138Y017514D03*
X004271Y017414D03*
D36*
X005588Y014714D03*
X006288Y014714D03*
X007521Y017014D03*
X011321Y017514D03*
X011721Y018314D03*
X012588Y025314D03*
X013288Y025714D03*
X013288Y025814D03*
X013288Y025914D03*
X013288Y026314D03*
X013288Y026414D03*
X013288Y026514D03*
X015321Y026414D03*
X015321Y026314D03*
X015321Y026214D03*
X015321Y026114D03*
X015321Y026014D03*
X015321Y025914D03*
X015321Y025814D03*
X015321Y025714D03*
X015321Y025614D03*
X015321Y025514D03*
X015321Y025414D03*
X015321Y025314D03*
X015921Y026114D03*
X015888Y026214D03*
X016521Y026214D03*
X016521Y026314D03*
X016521Y026414D03*
X016521Y026514D03*
X016521Y026614D03*
X016521Y026714D03*
X016521Y026814D03*
X016521Y026914D03*
X016521Y026114D03*
X016521Y026014D03*
X016521Y025914D03*
X016521Y025814D03*
X017221Y025814D03*
X017221Y025914D03*
X017221Y025714D03*
X017221Y026314D03*
X017221Y026414D03*
X017221Y026514D03*
X019388Y025914D03*
X020621Y025914D03*
X020621Y026014D03*
X020621Y026114D03*
X020621Y026214D03*
X020621Y026314D03*
X020621Y026414D03*
X020621Y026514D03*
X020621Y025814D03*
X020621Y025714D03*
X020621Y025614D03*
X020621Y025514D03*
X020621Y025414D03*
X020621Y025314D03*
X024288Y020714D03*
X023688Y017014D03*
X023988Y016014D03*
X024688Y016014D03*
X024721Y015514D03*
X026188Y017014D03*
X028488Y016414D03*
X028488Y016314D03*
X028988Y017014D03*
X029488Y016314D03*
X020188Y019714D03*
X019188Y019614D03*
X010521Y025314D03*
X010521Y025414D03*
X010521Y025514D03*
X010521Y025614D03*
X010521Y025714D03*
X010521Y025814D03*
X010521Y025914D03*
X010521Y026014D03*
X010521Y026114D03*
X010521Y026214D03*
X010521Y026314D03*
X010521Y026414D03*
X010521Y026514D03*
X016088Y002414D03*
X016688Y002414D03*
X017688Y002414D03*
D37*
X017171Y002447D03*
X017171Y002481D03*
X013571Y002481D03*
X013571Y002447D03*
X025638Y011847D03*
X026071Y014747D03*
X023971Y017181D03*
X024238Y017647D03*
X024538Y018547D03*
X024938Y019681D03*
X024938Y020381D03*
X024938Y020581D03*
X024271Y020647D03*
X023771Y020347D03*
X023671Y020381D03*
X023738Y021247D03*
X023638Y021347D03*
X023538Y021447D03*
X022838Y022547D03*
X022871Y022581D03*
X022971Y022647D03*
X025538Y022447D03*
X026871Y022681D03*
X027038Y022547D03*
X027071Y017547D03*
X026938Y017447D03*
X023071Y017347D03*
X022938Y017447D03*
X022771Y017581D03*
X016338Y018681D03*
X016338Y020481D03*
X008338Y022547D03*
X008171Y022681D03*
X007238Y022881D03*
X007671Y021447D03*
X007571Y021347D03*
X005338Y022347D03*
X005171Y022847D03*
X005271Y022881D03*
X004071Y022481D03*
X004038Y022447D03*
X004838Y019647D03*
X004971Y019681D03*
X004971Y018747D03*
X004871Y018647D03*
X004771Y018547D03*
X004071Y017581D03*
X004171Y017481D03*
X004238Y017447D03*
X003571Y018081D03*
X005238Y017181D03*
X005338Y017147D03*
X007171Y017147D03*
X008138Y017347D03*
X008271Y017447D03*
X008438Y017581D03*
X029038Y011281D03*
X029938Y013147D03*
X029938Y013181D03*
X029938Y013347D03*
X029938Y013381D03*
D38*
X026338Y017081D03*
X026271Y017047D03*
X025538Y017081D03*
X024738Y015981D03*
X024338Y016347D03*
X023971Y015981D03*
X023838Y015781D03*
X023938Y015547D03*
X024738Y015547D03*
X023604Y017047D03*
X023538Y017081D03*
X025971Y019047D03*
X024938Y020347D03*
X023971Y019847D03*
X023504Y022981D03*
X025604Y022981D03*
X026371Y022981D03*
X016538Y025747D03*
X015304Y026447D03*
X015304Y026481D03*
X015304Y026547D03*
X016338Y020647D03*
X014671Y018047D03*
X011771Y018047D03*
X011771Y018081D03*
X011771Y018147D03*
X011771Y018181D03*
X011771Y018247D03*
X010871Y018147D03*
X010871Y018081D03*
X010871Y018047D03*
X007671Y017081D03*
X007604Y017047D03*
X006904Y017081D03*
X006004Y015581D03*
X006338Y015181D03*
X006338Y014747D03*
X005938Y014381D03*
X005538Y015181D03*
X004904Y017047D03*
X006238Y020547D03*
X005771Y021447D03*
X005504Y022381D03*
X004838Y022981D03*
X006871Y022981D03*
X007504Y023047D03*
X005538Y007847D03*
X016071Y002447D03*
X016704Y002447D03*
X017704Y002447D03*
X025504Y012247D03*
D39*
X023388Y016214D03*
X023288Y016314D03*
X023188Y016414D03*
X023021Y016614D03*
X022921Y016714D03*
X022488Y017214D03*
X022388Y017314D03*
X022221Y017514D03*
X022121Y017614D03*
X022021Y017714D03*
X022288Y018114D03*
X022521Y017814D03*
X022621Y017714D03*
X021588Y018214D03*
X021488Y018314D03*
X021321Y018514D03*
X021221Y018614D03*
X021121Y018714D03*
X020688Y019214D03*
X020588Y019314D03*
X022788Y020614D03*
X022488Y022214D03*
X022588Y022314D03*
X022688Y022414D03*
X025388Y021714D03*
X027088Y022514D03*
X027188Y022414D03*
X027288Y022314D03*
X027388Y022214D03*
X027288Y020714D03*
X026688Y019914D03*
X026921Y019614D03*
X027221Y019214D03*
X026688Y018314D03*
X027521Y018014D03*
X028088Y018114D03*
X028488Y017614D03*
X028721Y017314D03*
X026021Y017214D03*
X024521Y018514D03*
X024021Y017714D03*
X029921Y013514D03*
X017688Y002514D03*
X016688Y002514D03*
X016088Y002514D03*
X002488Y016614D03*
X002921Y017214D03*
X003288Y017714D03*
X003588Y018114D03*
X003821Y017814D03*
X003921Y017714D03*
X004021Y017614D03*
X005321Y017714D03*
X005821Y021614D03*
X007421Y022814D03*
X008488Y022414D03*
X008588Y022314D03*
X008688Y022214D03*
X007821Y021614D03*
X007721Y021514D03*
X003888Y022314D03*
X003821Y022214D03*
X003721Y022114D03*
X014021Y018414D03*
X014688Y018214D03*
X016388Y018714D03*
D40*
X019304Y019947D03*
X024071Y023181D03*
X025938Y019147D03*
X028604Y016047D03*
X029371Y016047D03*
X025538Y012781D03*
X025538Y012747D03*
X010804Y018281D03*
X005804Y017047D03*
X005638Y019281D03*
X005704Y021347D03*
X005138Y007081D03*
D41*
X005154Y007114D03*
X010721Y018214D03*
X005688Y021314D03*
X019688Y020314D03*
X023054Y019514D03*
X024354Y020814D03*
X025921Y019214D03*
D42*
X026104Y019747D03*
X026104Y019781D03*
X026104Y020281D03*
X026104Y020347D03*
X026538Y020481D03*
X019671Y020281D03*
X019471Y022647D03*
X019471Y022681D03*
X019471Y022747D03*
X019471Y022781D03*
X019471Y022847D03*
X019471Y022881D03*
X019471Y022947D03*
X019471Y022981D03*
X019471Y023047D03*
X019471Y023081D03*
X019471Y023147D03*
X019471Y023181D03*
X019471Y023781D03*
X019471Y023847D03*
X019471Y023881D03*
X019471Y023947D03*
X019471Y023981D03*
X019471Y024047D03*
X019471Y024081D03*
X019471Y024147D03*
X019471Y024181D03*
X019471Y024247D03*
X019471Y024281D03*
X018304Y023981D03*
X018304Y023681D03*
X016571Y023681D03*
X016571Y023647D03*
X016571Y023581D03*
X016571Y023547D03*
X016571Y023481D03*
X016571Y023447D03*
X016571Y023747D03*
X016571Y023781D03*
X016571Y023847D03*
X016571Y023881D03*
X016571Y023947D03*
X016571Y023981D03*
X016571Y024047D03*
X016571Y024081D03*
X016571Y024147D03*
X016571Y024181D03*
X016571Y024247D03*
X016571Y024281D03*
X016338Y025447D03*
X016338Y025481D03*
X015504Y026747D03*
X015504Y026781D03*
X012171Y024947D03*
X012171Y024881D03*
X012171Y024847D03*
X012171Y024781D03*
X012171Y024747D03*
X012171Y024681D03*
X012171Y024647D03*
X012171Y024581D03*
X012171Y024547D03*
X012171Y024481D03*
X012171Y024447D03*
X012171Y024381D03*
X012171Y024347D03*
X012171Y024281D03*
X012171Y024247D03*
X012171Y024181D03*
X012171Y024147D03*
X012171Y024081D03*
X012171Y024047D03*
X012171Y023981D03*
X012171Y023947D03*
X012171Y023881D03*
X012171Y023847D03*
X012171Y023081D03*
X012171Y023047D03*
X012171Y022981D03*
X012171Y022947D03*
X012171Y022881D03*
X012171Y022847D03*
X012171Y022781D03*
X012171Y022747D03*
X012171Y022681D03*
X012171Y022647D03*
X012171Y022581D03*
X012171Y022547D03*
X012171Y022481D03*
X012171Y022447D03*
X012171Y022381D03*
X012171Y022347D03*
X012171Y022281D03*
X012171Y022247D03*
X012171Y022181D03*
X012171Y022147D03*
X012171Y022081D03*
X012171Y022047D03*
X012171Y021981D03*
X012171Y021947D03*
X010304Y021947D03*
X010304Y021981D03*
X010304Y022047D03*
X010304Y022081D03*
X010304Y022147D03*
X010304Y022181D03*
X010304Y022247D03*
X010304Y022281D03*
X010304Y022347D03*
X010304Y022381D03*
X010304Y022447D03*
X010304Y022481D03*
X010304Y022547D03*
X010304Y022581D03*
X010304Y022647D03*
X010304Y022681D03*
X010304Y022747D03*
X010304Y022781D03*
X010304Y022847D03*
X010304Y022881D03*
X010304Y022947D03*
X010304Y022981D03*
X010304Y023047D03*
X010304Y023081D03*
X010304Y023847D03*
X010304Y023881D03*
X010304Y023947D03*
X010304Y023981D03*
X010304Y024047D03*
X010304Y024081D03*
X010304Y024147D03*
X010304Y024181D03*
X010304Y024247D03*
X010304Y024281D03*
X010304Y024347D03*
X010304Y024381D03*
X010304Y024447D03*
X010304Y024481D03*
X010304Y024547D03*
X010304Y024581D03*
X010304Y024647D03*
X010304Y024681D03*
X010304Y024747D03*
X010304Y024781D03*
X010304Y024847D03*
X010304Y024881D03*
X010304Y024947D03*
X007404Y020281D03*
X007438Y020181D03*
X007438Y020147D03*
X007438Y020081D03*
X007438Y020047D03*
X007438Y019981D03*
X007438Y019947D03*
X007404Y019781D03*
X007404Y019747D03*
X007838Y019581D03*
X005638Y021247D03*
X005538Y016847D03*
X006938Y016847D03*
X005938Y015447D03*
X005204Y008147D03*
X005138Y007147D03*
X016571Y021947D03*
X016571Y021981D03*
X016571Y022047D03*
X016571Y022081D03*
X016571Y022147D03*
X016571Y022181D03*
X016571Y022247D03*
X016571Y022281D03*
X016571Y022347D03*
X016571Y022381D03*
X016571Y022447D03*
X016571Y022481D03*
X016571Y022547D03*
X016571Y022581D03*
X016571Y022647D03*
X016571Y022681D03*
X019138Y026047D03*
X019138Y026247D03*
X029571Y012247D03*
D43*
X029471Y012047D03*
X025571Y016847D03*
X026038Y019581D03*
X026171Y020147D03*
X026171Y020181D03*
X023938Y019447D03*
X018271Y024181D03*
X019138Y025981D03*
X019138Y026281D03*
X015538Y026581D03*
X015338Y024081D03*
X015338Y024047D03*
X015338Y022947D03*
X015338Y022881D03*
X015338Y022847D03*
X013438Y022781D03*
X013438Y022747D03*
X013438Y024081D03*
X007338Y020481D03*
X005238Y020581D03*
X005071Y020347D03*
X005138Y007181D03*
D44*
X005138Y007214D03*
X007271Y020614D03*
X015271Y024214D03*
X019671Y019114D03*
X023971Y019414D03*
X025938Y019414D03*
X029571Y012414D03*
D45*
X028971Y015781D03*
X026238Y019981D03*
X019671Y019147D03*
X015371Y019247D03*
X013504Y022647D03*
X013538Y024247D03*
X015238Y024247D03*
X005938Y015347D03*
X005904Y014547D03*
X005038Y020381D03*
X005371Y020747D03*
X005138Y007247D03*
D46*
X005154Y007281D03*
X002454Y015281D03*
X006254Y018547D03*
X006254Y023047D03*
X006254Y023347D03*
X029554Y012781D03*
X029554Y012747D03*
D47*
X024954Y022514D03*
X005588Y021014D03*
X004988Y020414D03*
X002454Y015314D03*
X005154Y007314D03*
D48*
X004754Y007414D03*
X005554Y007814D03*
X004754Y017114D03*
X007754Y017114D03*
X010854Y018114D03*
X024754Y015914D03*
X025454Y012414D03*
D49*
X025504Y012214D03*
X025404Y013514D03*
X023904Y015614D03*
X024804Y015714D03*
X024804Y015814D03*
X024204Y017114D03*
X025704Y017114D03*
X026604Y017214D03*
X026504Y022914D03*
X023204Y022814D03*
X016204Y020614D03*
X015404Y018314D03*
X010204Y018014D03*
X009704Y017714D03*
X009004Y017314D03*
X008504Y017014D03*
X007804Y016614D03*
X007304Y016314D03*
X006604Y015914D03*
X006104Y015614D03*
X006404Y015014D03*
X006404Y014914D03*
X005504Y015114D03*
X005604Y007714D03*
X005604Y007614D03*
X004704Y007514D03*
X004704Y007714D03*
X004704Y022914D03*
D50*
X007788Y022914D03*
X003588Y018014D03*
X005521Y014814D03*
X004721Y007814D03*
X004688Y007614D03*
X005588Y007514D03*
X015288Y018914D03*
X024788Y015614D03*
X026421Y017114D03*
X028988Y015614D03*
D51*
X023904Y019814D03*
X025404Y023014D03*
X020104Y019914D03*
X004804Y007914D03*
D52*
X005454Y007914D03*
X002921Y015614D03*
X002888Y016014D03*
X002021Y016014D03*
X001988Y015614D03*
X005621Y019314D03*
X005754Y021414D03*
X005188Y023114D03*
X007321Y023114D03*
X008454Y019414D03*
X018554Y025314D03*
X018621Y025414D03*
X018654Y025514D03*
X018721Y025614D03*
X019654Y025414D03*
X019721Y025314D03*
X018754Y026614D03*
X018654Y026814D03*
X018588Y026914D03*
X019554Y026714D03*
X019621Y026814D03*
X023854Y023114D03*
X024954Y020314D03*
X028521Y016514D03*
X029421Y016114D03*
D53*
X015804Y019681D03*
X005104Y007947D03*
D54*
X005088Y007981D03*
X011321Y017847D03*
X011321Y018447D03*
X015521Y019447D03*
X019688Y019247D03*
X017588Y026581D03*
X028988Y016747D03*
D55*
X026238Y014514D03*
X019671Y019214D03*
X015471Y019414D03*
X013638Y026014D03*
X013638Y026114D03*
X013638Y026214D03*
X017571Y026214D03*
X017571Y026114D03*
X017571Y026014D03*
X006238Y017014D03*
X005471Y020814D03*
X005071Y008014D03*
D56*
X005071Y008047D03*
X002438Y015347D03*
X005571Y020981D03*
X013638Y026047D03*
X013638Y026081D03*
X013638Y026147D03*
X013638Y026181D03*
X013638Y026247D03*
X013638Y026281D03*
X017571Y026281D03*
X017571Y026247D03*
X017571Y026181D03*
X017571Y026147D03*
X017571Y026081D03*
X017571Y026047D03*
X017571Y025981D03*
X023671Y019647D03*
X024171Y019247D03*
X024271Y019081D03*
X024438Y015347D03*
X024938Y023047D03*
D57*
X025504Y022147D03*
X025471Y022047D03*
X025438Y021881D03*
X025438Y021847D03*
X025404Y021781D03*
X025404Y021747D03*
X025371Y021681D03*
X025371Y021647D03*
X026404Y022681D03*
X026271Y022747D03*
X026204Y022781D03*
X027438Y022147D03*
X027504Y022081D03*
X027571Y021981D03*
X027604Y021947D03*
X027638Y021881D03*
X027671Y021847D03*
X027704Y021781D03*
X027738Y021747D03*
X027771Y021681D03*
X027804Y021647D03*
X027838Y021581D03*
X027838Y021547D03*
X027904Y021447D03*
X027971Y021281D03*
X028104Y020881D03*
X028171Y020581D03*
X028171Y019481D03*
X028104Y019181D03*
X028071Y019081D03*
X028038Y018981D03*
X028004Y018881D03*
X027971Y018781D03*
X027904Y018647D03*
X027871Y018581D03*
X027871Y018547D03*
X027838Y018481D03*
X027971Y018281D03*
X028038Y018181D03*
X028071Y018147D03*
X028138Y018047D03*
X028204Y017981D03*
X028271Y017881D03*
X028304Y017847D03*
X028371Y017747D03*
X028438Y017681D03*
X028471Y017647D03*
X028504Y017581D03*
X028538Y017547D03*
X028671Y017381D03*
X028704Y017347D03*
X028771Y017247D03*
X028838Y017181D03*
X028904Y017081D03*
X028938Y017047D03*
X027704Y018281D03*
X027638Y018181D03*
X027604Y018147D03*
X027571Y018081D03*
X027538Y018047D03*
X027471Y017947D03*
X027404Y017881D03*
X027238Y019181D03*
X027104Y019381D03*
X027038Y019447D03*
X026971Y019547D03*
X026938Y019581D03*
X026904Y019647D03*
X026871Y019681D03*
X026804Y019781D03*
X026738Y019847D03*
X026704Y019881D03*
X026671Y019947D03*
X025138Y020281D03*
X024738Y020281D03*
X024771Y019781D03*
X025104Y019781D03*
X024504Y018381D03*
X024471Y018281D03*
X024471Y018247D03*
X024438Y018181D03*
X024438Y018147D03*
X024404Y018047D03*
X023871Y017781D03*
X023738Y017847D03*
X023704Y017281D03*
X023771Y017247D03*
X023138Y016481D03*
X023171Y016447D03*
X023404Y016181D03*
X023438Y016147D03*
X022871Y016781D03*
X022804Y016847D03*
X022538Y017147D03*
X022504Y017181D03*
X022271Y017447D03*
X022238Y017481D03*
X022004Y017747D03*
X021971Y017781D03*
X021704Y018081D03*
X021638Y018147D03*
X021371Y018447D03*
X021338Y018481D03*
X021104Y018747D03*
X021071Y018781D03*
X020838Y019047D03*
X020804Y019081D03*
X020538Y019381D03*
X021804Y019081D03*
X021838Y018981D03*
X021871Y018881D03*
X021971Y018647D03*
X022004Y018581D03*
X022071Y018447D03*
X022104Y018381D03*
X022138Y018347D03*
X022171Y018281D03*
X022204Y018247D03*
X022238Y018181D03*
X022271Y018147D03*
X022304Y018081D03*
X022338Y018047D03*
X022471Y017881D03*
X022504Y017847D03*
X021671Y020281D03*
X021771Y020881D03*
X021804Y020981D03*
X021838Y021081D03*
X021871Y021181D03*
X021904Y021281D03*
X021938Y021347D03*
X022004Y021481D03*
X022038Y021547D03*
X022038Y021581D03*
X022104Y021681D03*
X022138Y021747D03*
X022171Y021781D03*
X022204Y021847D03*
X022238Y021881D03*
X022271Y021947D03*
X022304Y021981D03*
X022371Y022081D03*
X022438Y022147D03*
X023204Y021781D03*
X023238Y021747D03*
X023304Y021681D03*
X023338Y021647D03*
X024004Y022347D03*
X023671Y022781D03*
X023604Y022747D03*
X026171Y017281D03*
X026104Y017247D03*
X025938Y011447D03*
X026038Y011381D03*
X029338Y011447D03*
X029471Y011547D03*
X029504Y011581D03*
X017171Y020181D03*
X017071Y020247D03*
X017004Y020281D03*
X016904Y020347D03*
X016704Y020481D03*
X016604Y020547D03*
X016538Y020581D03*
X015071Y019681D03*
X014638Y019981D03*
X015204Y018781D03*
X015171Y018747D03*
X014438Y018147D03*
X014371Y018181D03*
X014271Y018247D03*
X014238Y018281D03*
X014138Y018347D03*
X014071Y018381D03*
X013971Y018447D03*
X013804Y018547D03*
X009404Y019147D03*
X009304Y018847D03*
X009271Y018747D03*
X009238Y018681D03*
X009171Y018547D03*
X009138Y018481D03*
X009071Y018381D03*
X009071Y018347D03*
X009004Y018247D03*
X008971Y018181D03*
X008938Y018147D03*
X008804Y017981D03*
X008771Y017947D03*
X007504Y017281D03*
X007438Y017247D03*
X006804Y017947D03*
X006771Y018047D03*
X006771Y018081D03*
X006738Y018147D03*
X006738Y018181D03*
X006704Y018281D03*
X006704Y018347D03*
X006671Y018447D03*
X006438Y019781D03*
X006071Y020281D03*
X005804Y021681D03*
X005771Y021781D03*
X005771Y021847D03*
X005738Y021881D03*
X005738Y021947D03*
X005704Y022047D03*
X005671Y022181D03*
X005571Y022447D03*
X005171Y022281D03*
X005104Y022247D03*
X004804Y022681D03*
X004938Y022747D03*
X005004Y022781D03*
X003871Y022281D03*
X003838Y022247D03*
X003704Y022081D03*
X003671Y022047D03*
X003604Y021947D03*
X003538Y021881D03*
X003538Y021847D03*
X003471Y021781D03*
X003471Y021747D03*
X003404Y021681D03*
X003404Y021647D03*
X003371Y021581D03*
X003338Y021547D03*
X003304Y021481D03*
X003304Y021447D03*
X003204Y021247D03*
X003171Y021147D03*
X003104Y020947D03*
X003071Y020847D03*
X003004Y019547D03*
X003171Y018881D03*
X003238Y018747D03*
X003271Y018647D03*
X003304Y018581D03*
X003371Y018447D03*
X003404Y018381D03*
X003438Y018347D03*
X003471Y018281D03*
X003504Y018247D03*
X003538Y018181D03*
X003571Y018147D03*
X003404Y017881D03*
X003371Y017847D03*
X003338Y017781D03*
X003304Y017747D03*
X003271Y017681D03*
X003238Y017647D03*
X003171Y017547D03*
X003104Y017481D03*
X003104Y017447D03*
X003038Y017381D03*
X002971Y017281D03*
X002938Y017247D03*
X002904Y017181D03*
X002871Y017147D03*
X002838Y017081D03*
X002804Y017047D03*
X002738Y016947D03*
X002671Y016881D03*
X002604Y016781D03*
X002571Y016747D03*
X002538Y016681D03*
X002504Y016647D03*
X002471Y016581D03*
X002438Y016547D03*
X003771Y017881D03*
X003804Y017847D03*
X004504Y018281D03*
X004571Y018347D03*
X004604Y018381D03*
X004671Y018447D03*
X005238Y017747D03*
X004971Y017281D03*
X008604Y019347D03*
X009504Y020381D03*
X009271Y021281D03*
X009238Y021347D03*
X009238Y021381D03*
X009204Y021447D03*
X009138Y021581D03*
X009104Y021647D03*
X009071Y021681D03*
X009038Y021747D03*
X009004Y021781D03*
X008971Y021847D03*
X008938Y021881D03*
X008904Y021947D03*
X008871Y021981D03*
X008804Y022081D03*
X008004Y021781D03*
X007904Y021681D03*
X007871Y021647D03*
X003071Y012547D03*
X003104Y012447D03*
X003138Y012347D03*
X003171Y012247D03*
X003204Y012147D03*
X003238Y012047D03*
X003271Y011947D03*
X003304Y011847D03*
X003338Y011747D03*
X003371Y011647D03*
X003404Y011547D03*
X003438Y011447D03*
X003471Y011347D03*
X003504Y011247D03*
X003538Y011147D03*
X003571Y011047D03*
X003604Y010947D03*
X003638Y010847D03*
X003671Y010747D03*
X003704Y010647D03*
X003738Y010547D03*
X003771Y010447D03*
X003804Y010347D03*
X003971Y009881D03*
X004004Y009781D03*
X004038Y009681D03*
X004071Y009581D03*
X004104Y009481D03*
X004138Y009381D03*
X004171Y009281D03*
X004204Y009181D03*
X004238Y009081D03*
X004271Y008981D03*
X004304Y008881D03*
X004338Y008781D03*
X004371Y008681D03*
X004404Y008581D03*
X004438Y008481D03*
X004471Y008381D03*
X004504Y008281D03*
X004538Y008181D03*
X004571Y008081D03*
D58*
X005154Y008081D03*
X002454Y016381D03*
X005621Y021181D03*
X007221Y020747D03*
X007288Y020581D03*
X007588Y019647D03*
X011321Y017647D03*
X015288Y019147D03*
X015288Y022747D03*
X015321Y022781D03*
X015288Y024181D03*
X016288Y025681D03*
X018254Y023481D03*
X019688Y020247D03*
X024321Y018881D03*
X026154Y020381D03*
X028988Y016881D03*
X028988Y015747D03*
X029354Y011881D03*
X029354Y011847D03*
X013454Y024147D03*
X013454Y024181D03*
D59*
X013438Y024114D03*
X015338Y024014D03*
X015338Y022914D03*
X018271Y023514D03*
X019138Y026014D03*
X019138Y026314D03*
X015538Y026614D03*
X015271Y019114D03*
X006871Y023214D03*
X005638Y021214D03*
X005938Y015414D03*
X002438Y015214D03*
X005171Y008114D03*
X023771Y019714D03*
X024338Y016214D03*
D60*
X025921Y019247D03*
X026121Y019847D03*
X026121Y019881D03*
X026121Y019947D03*
X023821Y019747D03*
X024921Y022547D03*
X019121Y026081D03*
X015488Y026847D03*
X015488Y026881D03*
X007988Y019547D03*
X007421Y019847D03*
X007421Y019881D03*
X007421Y020247D03*
X005221Y008181D03*
D61*
X024554Y021047D03*
X027654Y011081D03*
D62*
X027638Y011114D03*
X020171Y022014D03*
X020171Y022114D03*
X020171Y022214D03*
X020171Y022314D03*
X020171Y022414D03*
X020171Y022514D03*
X017271Y024814D03*
D63*
X017371Y024581D03*
X017371Y023047D03*
X014371Y024581D03*
X027638Y011147D03*
D64*
X027654Y011181D03*
D65*
X027654Y011214D03*
D66*
X027654Y011247D03*
D67*
X026254Y011281D03*
X025488Y013981D03*
X026288Y014847D03*
X025821Y017147D03*
X026654Y017247D03*
X026721Y017281D03*
X026821Y017347D03*
X026854Y017381D03*
X026688Y018347D03*
X026221Y018747D03*
X026188Y018781D03*
X026121Y018847D03*
X026088Y018881D03*
X026021Y018947D03*
X025988Y018981D03*
X027221Y019281D03*
X024054Y017147D03*
X023221Y017247D03*
X023021Y017381D03*
X026921Y022647D03*
X026788Y022747D03*
X026721Y022781D03*
X026621Y022847D03*
X023154Y022781D03*
X023088Y022747D03*
X016354Y020681D03*
X016121Y020581D03*
X016021Y020547D03*
X015854Y020481D03*
X015521Y020347D03*
X015354Y020281D03*
X015254Y020247D03*
X015088Y020181D03*
X014821Y020081D03*
X014754Y020047D03*
X015254Y018847D03*
X015488Y018347D03*
X015588Y018381D03*
X015754Y018447D03*
X016088Y018581D03*
X016254Y018647D03*
X015321Y018281D03*
X015221Y018247D03*
X015054Y018181D03*
X010321Y018081D03*
X009921Y017847D03*
X008188Y017381D03*
X008021Y017281D03*
X007754Y016581D03*
X007354Y016347D03*
X004521Y017247D03*
X004454Y017281D03*
X004354Y017347D03*
X004321Y017381D03*
X003588Y018047D03*
X005321Y020181D03*
X006254Y019681D03*
X007288Y021081D03*
X007354Y021147D03*
X007388Y021181D03*
X007454Y021247D03*
X008021Y022781D03*
X004488Y022781D03*
X004421Y022747D03*
X004321Y022681D03*
X004288Y022647D03*
X003954Y020681D03*
D68*
X027638Y011314D03*
D69*
X027638Y011347D03*
D70*
X026004Y011414D03*
X025871Y014614D03*
X026004Y014714D03*
X023471Y016114D03*
X023104Y016514D03*
X022838Y016814D03*
X022571Y017114D03*
X022304Y017414D03*
X022438Y017914D03*
X022371Y018014D03*
X022204Y018214D03*
X022138Y018314D03*
X022038Y018514D03*
X021938Y018714D03*
X021904Y018814D03*
X021404Y018414D03*
X021671Y018114D03*
X021938Y017814D03*
X021038Y018814D03*
X020771Y019114D03*
X020504Y019414D03*
X021704Y019514D03*
X021971Y021414D03*
X022004Y021514D03*
X022071Y021614D03*
X022171Y021814D03*
X022338Y022014D03*
X022404Y022114D03*
X023271Y021714D03*
X023538Y022714D03*
X025471Y022014D03*
X025438Y021914D03*
X025404Y021814D03*
X026138Y022814D03*
X027471Y022114D03*
X027638Y021914D03*
X027704Y021814D03*
X027804Y021614D03*
X027871Y021514D03*
X028038Y021114D03*
X026771Y019814D03*
X026838Y019714D03*
X027004Y019514D03*
X027071Y019414D03*
X027138Y019314D03*
X027938Y018714D03*
X027838Y018514D03*
X028004Y018214D03*
X028171Y018014D03*
X028338Y017814D03*
X028404Y017714D03*
X028571Y017514D03*
X028638Y017414D03*
X028804Y017214D03*
X028871Y017114D03*
X027604Y018114D03*
X027671Y018214D03*
X027438Y017914D03*
X024504Y018414D03*
X024471Y018314D03*
X024438Y018214D03*
X024404Y018014D03*
X024371Y017914D03*
X024271Y017614D03*
X023804Y017814D03*
X023638Y017314D03*
X023438Y017414D03*
X024271Y020614D03*
X029271Y014714D03*
X029304Y011414D03*
X017271Y020114D03*
X017104Y020214D03*
X016971Y020314D03*
X016804Y020414D03*
X016638Y020514D03*
X016504Y020614D03*
X014871Y018814D03*
X014338Y018214D03*
X014471Y018114D03*
X014171Y018314D03*
X013871Y018514D03*
X009471Y020614D03*
X009404Y020914D03*
X009371Y021014D03*
X009338Y021114D03*
X009304Y021214D03*
X009171Y021514D03*
X009104Y021614D03*
X009004Y021814D03*
X008938Y021914D03*
X008771Y022114D03*
X005804Y021714D03*
X005771Y021814D03*
X005738Y021914D03*
X005038Y022214D03*
X004871Y022714D03*
X005071Y022814D03*
X003638Y022014D03*
X003571Y021914D03*
X003504Y021814D03*
X003438Y021714D03*
X003371Y021614D03*
X003338Y021514D03*
X003271Y021414D03*
X003238Y021314D03*
X003004Y020514D03*
X003971Y019414D03*
X003204Y018814D03*
X003338Y018514D03*
X003404Y018414D03*
X003504Y018214D03*
X003438Y017914D03*
X003371Y017814D03*
X003204Y017614D03*
X003138Y017514D03*
X003071Y017414D03*
X003004Y017314D03*
X002838Y017114D03*
X002771Y017014D03*
X002704Y016914D03*
X002638Y016814D03*
X002571Y016714D03*
X003738Y017914D03*
X004538Y018314D03*
X004638Y018414D03*
X005138Y017214D03*
X006738Y018214D03*
X006771Y018114D03*
X006704Y018314D03*
X006671Y018414D03*
X007571Y017314D03*
X008571Y017714D03*
X008838Y018014D03*
X008904Y018114D03*
X008971Y018214D03*
X009038Y018314D03*
X009104Y018414D03*
X009204Y018614D03*
X003071Y019214D03*
X002238Y015014D03*
X002271Y014914D03*
X002304Y014814D03*
X002338Y014714D03*
X002371Y014614D03*
X002404Y014514D03*
X002438Y014414D03*
X002471Y014314D03*
X002504Y014214D03*
X002538Y014114D03*
X002571Y014014D03*
X002604Y013914D03*
X002638Y013814D03*
X002671Y013714D03*
X002704Y013614D03*
X002738Y013514D03*
X002771Y013414D03*
X002804Y013314D03*
X002838Y013214D03*
X002871Y013114D03*
D71*
X027638Y011481D03*
D72*
X027638Y011514D03*
D73*
X029004Y011681D03*
X026704Y015647D03*
X025904Y015547D03*
X027504Y015747D03*
D74*
X027004Y017481D03*
X027104Y017581D03*
X026304Y018681D03*
X024004Y019881D03*
X023404Y020447D03*
X023704Y021281D03*
X023604Y021381D03*
X023504Y021481D03*
X023004Y022681D03*
X027004Y022581D03*
X022804Y017547D03*
X022904Y017481D03*
X025604Y011881D03*
X029904Y013547D03*
X029904Y013681D03*
X014904Y018881D03*
X008504Y017647D03*
X008304Y017481D03*
X005504Y017647D03*
X005404Y017681D03*
X004804Y018581D03*
X004904Y018681D03*
X005004Y018781D03*
X005204Y019747D03*
X004104Y017547D03*
X007504Y021281D03*
X007604Y021381D03*
X007704Y021481D03*
X008304Y022581D03*
X008204Y022647D03*
X004204Y022581D03*
D75*
X004121Y022181D03*
X004088Y022147D03*
X003921Y021947D03*
X003854Y021881D03*
X003788Y021781D03*
X003754Y021747D03*
X003721Y021681D03*
X003688Y021647D03*
X003654Y021581D03*
X003621Y021547D03*
X003588Y021481D03*
X003588Y021447D03*
X003554Y021381D03*
X003521Y021347D03*
X003488Y021281D03*
X003488Y021247D03*
X003454Y021181D03*
X003421Y021081D03*
X003354Y020881D03*
X003321Y020781D03*
X003288Y020681D03*
X003288Y020647D03*
X003254Y020481D03*
X003254Y020447D03*
X003221Y020181D03*
X003221Y020147D03*
X003221Y020081D03*
X003221Y020047D03*
X003221Y019981D03*
X003221Y019947D03*
X003221Y019881D03*
X003221Y019847D03*
X003254Y019647D03*
X003254Y019581D03*
X003254Y019547D03*
X003288Y019447D03*
X003288Y019381D03*
X003321Y019281D03*
X003321Y019247D03*
X003354Y019181D03*
X003354Y019147D03*
X003388Y019081D03*
X003388Y019047D03*
X003421Y018947D03*
X003454Y018881D03*
X003454Y018847D03*
X003488Y018781D03*
X003554Y018647D03*
X003588Y018581D03*
X003621Y018547D03*
X003654Y018481D03*
X003654Y018447D03*
X003721Y018381D03*
X003721Y018347D03*
X003788Y018281D03*
X003788Y018247D03*
X003854Y018181D03*
X003888Y018147D03*
X003954Y018047D03*
X004021Y017981D03*
X004054Y017947D03*
X004121Y017881D03*
X004154Y017847D03*
X004221Y017781D03*
X005954Y019581D03*
X005921Y019981D03*
X005921Y020047D03*
X005954Y020147D03*
X005854Y020381D03*
X005921Y020447D03*
X005988Y020481D03*
X006521Y020481D03*
X006554Y020081D03*
X006554Y020047D03*
X006554Y019947D03*
X006621Y019647D03*
X006521Y019581D03*
X006888Y019381D03*
X006921Y019347D03*
X006988Y019281D03*
X007021Y019247D03*
X007088Y019181D03*
X007121Y019147D03*
X007188Y019081D03*
X007221Y019047D03*
X007288Y018981D03*
X007321Y018947D03*
X007388Y018881D03*
X007421Y018847D03*
X007488Y018781D03*
X007521Y018747D03*
X007588Y018681D03*
X007621Y018647D03*
X007688Y018581D03*
X007721Y018547D03*
X007788Y018481D03*
X007821Y018447D03*
X007888Y018381D03*
X007921Y018347D03*
X007988Y018281D03*
X008554Y018081D03*
X008621Y018147D03*
X008654Y018181D03*
X008688Y018247D03*
X008721Y018281D03*
X008754Y018347D03*
X008788Y018381D03*
X008821Y018447D03*
X008854Y018481D03*
X008888Y018547D03*
X008954Y018681D03*
X008988Y018747D03*
X009021Y018847D03*
X009054Y018881D03*
X009088Y018981D03*
X009121Y019081D03*
X009154Y019181D03*
X009188Y019347D03*
X009221Y019447D03*
X009221Y019481D03*
X009254Y019647D03*
X009254Y019681D03*
X009254Y019747D03*
X009254Y019781D03*
X009254Y020281D03*
X009254Y020347D03*
X009254Y020381D03*
X009221Y020547D03*
X009221Y020581D03*
X009188Y020681D03*
X009188Y020747D03*
X009154Y020847D03*
X009154Y020881D03*
X009121Y020947D03*
X009121Y020981D03*
X009088Y021047D03*
X009088Y021081D03*
X009054Y021147D03*
X009021Y021247D03*
X008988Y021281D03*
X008954Y021381D03*
X008921Y021447D03*
X008888Y021481D03*
X008854Y021547D03*
X008854Y021581D03*
X008788Y021647D03*
X008788Y021681D03*
X008721Y021747D03*
X008721Y021781D03*
X008654Y021847D03*
X008588Y021947D03*
X008554Y021981D03*
X008488Y022047D03*
X008121Y021681D03*
X008154Y021647D03*
X008221Y021547D03*
X008288Y021481D03*
X008288Y021447D03*
X008354Y021381D03*
X008354Y021347D03*
X008421Y021281D03*
X008421Y021247D03*
X008454Y021181D03*
X008488Y021147D03*
X008521Y021081D03*
X008521Y021047D03*
X008554Y020981D03*
X008588Y020881D03*
X008621Y020781D03*
X008654Y020681D03*
X008688Y020581D03*
X008688Y020547D03*
X008721Y020381D03*
X008721Y020347D03*
X008754Y020047D03*
X008721Y019681D03*
X008721Y019647D03*
X008688Y019481D03*
X008154Y017681D03*
X006521Y021047D03*
X005621Y022481D03*
X004654Y021947D03*
X004388Y021681D03*
X004354Y021647D03*
X004288Y021581D03*
X004254Y021547D03*
X004221Y021481D03*
X004188Y021447D03*
X004154Y021381D03*
X004121Y021347D03*
X004088Y021281D03*
X004021Y021147D03*
X003988Y021081D03*
X003921Y020947D03*
X003888Y020847D03*
X003854Y020747D03*
X005954Y014347D03*
X013888Y018681D03*
X013954Y018647D03*
X014054Y018581D03*
X014221Y018481D03*
X014254Y018447D03*
X014354Y018381D03*
X014421Y018347D03*
X014521Y018281D03*
X014554Y018247D03*
X014688Y018181D03*
X015121Y018647D03*
X014421Y019481D03*
X016554Y019147D03*
X017154Y019981D03*
X017088Y020047D03*
X017021Y020081D03*
X016921Y020147D03*
X016754Y020247D03*
X016721Y020281D03*
X016621Y020347D03*
X016554Y020381D03*
X016454Y020447D03*
X019688Y018947D03*
X021988Y019347D03*
X021988Y019381D03*
X022021Y019281D03*
X022021Y019247D03*
X022054Y019147D03*
X022088Y019047D03*
X022121Y018947D03*
X022154Y018881D03*
X022154Y018847D03*
X022188Y018781D03*
X022254Y018647D03*
X022288Y018581D03*
X022321Y018547D03*
X022354Y018481D03*
X022354Y018447D03*
X022421Y018381D03*
X022421Y018347D03*
X022488Y018281D03*
X022554Y018181D03*
X022588Y018147D03*
X022621Y018081D03*
X022654Y018047D03*
X022721Y017981D03*
X022754Y017947D03*
X022821Y017881D03*
X022854Y017847D03*
X023021Y018447D03*
X022988Y018481D03*
X022921Y018547D03*
X022921Y018581D03*
X022854Y018647D03*
X022854Y018681D03*
X022788Y018747D03*
X022788Y018781D03*
X022754Y018847D03*
X022721Y018881D03*
X022688Y018947D03*
X022688Y018981D03*
X022654Y019047D03*
X022621Y019081D03*
X022588Y019181D03*
X022554Y019281D03*
X021954Y019547D03*
X021954Y019581D03*
X021921Y019781D03*
X021921Y019847D03*
X021921Y019881D03*
X021921Y019947D03*
X021921Y019981D03*
X021921Y020047D03*
X021921Y020081D03*
X021921Y020147D03*
X021921Y020181D03*
X021921Y020247D03*
X021921Y020281D03*
X021954Y020481D03*
X021954Y020547D03*
X021988Y020647D03*
X021988Y020681D03*
X022021Y020847D03*
X022054Y020947D03*
X022088Y021047D03*
X022121Y021147D03*
X022188Y021281D03*
X022221Y021347D03*
X022221Y021381D03*
X022254Y021447D03*
X022288Y021481D03*
X022321Y021547D03*
X022354Y021581D03*
X022388Y021647D03*
X022388Y021681D03*
X022454Y021747D03*
X022521Y021847D03*
X022554Y021881D03*
X022588Y021947D03*
X022621Y021981D03*
X022688Y022047D03*
X022721Y022081D03*
X023221Y021847D03*
X023254Y021881D03*
X024654Y020481D03*
X024654Y020181D03*
X024621Y020081D03*
X024621Y020047D03*
X024621Y019981D03*
X025221Y019881D03*
X025254Y019947D03*
X025254Y019981D03*
X025254Y020047D03*
X025254Y020081D03*
X025221Y020181D03*
X025221Y020481D03*
X025554Y020647D03*
X025588Y020681D03*
X025654Y020747D03*
X025688Y020781D03*
X025754Y020847D03*
X025788Y020881D03*
X025854Y020947D03*
X025888Y020981D03*
X025954Y021047D03*
X025988Y021081D03*
X026054Y021147D03*
X026088Y021181D03*
X026154Y021247D03*
X026188Y021281D03*
X026254Y021347D03*
X026288Y021381D03*
X026354Y021447D03*
X026388Y021481D03*
X026454Y021547D03*
X026488Y021581D03*
X026554Y021647D03*
X026588Y021681D03*
X026654Y021747D03*
X026888Y022347D03*
X027254Y021981D03*
X027288Y021947D03*
X027321Y021881D03*
X027354Y021847D03*
X027421Y021781D03*
X027421Y021747D03*
X027488Y021681D03*
X027488Y021647D03*
X027554Y021581D03*
X027554Y021547D03*
X027588Y021481D03*
X027621Y021447D03*
X027654Y021381D03*
X027654Y021347D03*
X027688Y021281D03*
X027721Y021247D03*
X027754Y021147D03*
X027788Y021081D03*
X027788Y021047D03*
X027821Y020981D03*
X027821Y020947D03*
X027854Y020847D03*
X027888Y020747D03*
X027888Y020681D03*
X027921Y020581D03*
X027921Y020547D03*
X027954Y020347D03*
X027954Y020281D03*
X027954Y020247D03*
X027954Y020181D03*
X027954Y020047D03*
X027954Y019981D03*
X027954Y019947D03*
X027954Y019881D03*
X027954Y019847D03*
X027954Y019781D03*
X027954Y019747D03*
X027921Y019581D03*
X027921Y019547D03*
X027888Y019381D03*
X027888Y019347D03*
X027854Y019247D03*
X027821Y019147D03*
X027788Y019047D03*
X027754Y018947D03*
X027721Y018881D03*
X027721Y018847D03*
X027688Y018781D03*
X027654Y018681D03*
X027621Y018647D03*
X027588Y018581D03*
X027521Y018481D03*
X027521Y018447D03*
X027454Y018381D03*
X027454Y018347D03*
X027388Y018281D03*
X027388Y018247D03*
X027321Y018181D03*
X027254Y018081D03*
X027221Y018047D03*
X027154Y017981D03*
X027121Y017947D03*
X027054Y017881D03*
X027021Y017847D03*
X026954Y017781D03*
X026688Y018247D03*
X026854Y018447D03*
X026888Y018481D03*
X026954Y018547D03*
X026954Y018581D03*
X027021Y018647D03*
X027021Y018681D03*
X027088Y018747D03*
X027088Y018781D03*
X027154Y018881D03*
X027188Y018947D03*
X027254Y019081D03*
X027354Y019381D03*
X027388Y019547D03*
X027388Y019581D03*
X027421Y019681D03*
X027421Y019747D03*
X027421Y019781D03*
X027421Y019847D03*
X027421Y020247D03*
X027421Y020281D03*
X027421Y020347D03*
X027421Y020381D03*
X027388Y020481D03*
X027388Y020547D03*
X025388Y013947D03*
X025321Y013647D03*
X025288Y013481D03*
X025288Y013447D03*
X025288Y013281D03*
X025288Y013247D03*
X025288Y013081D03*
X025288Y013047D03*
X025288Y012881D03*
X025288Y012847D03*
X025288Y012681D03*
X025288Y012647D03*
X025321Y012481D03*
X025321Y012447D03*
X025354Y012281D03*
X025388Y012181D03*
X029788Y011947D03*
X029888Y012147D03*
X029921Y012281D03*
X029954Y012347D03*
X029954Y012381D03*
X029988Y012547D03*
X029988Y012647D03*
X029988Y012681D03*
X029988Y013447D03*
X029988Y013481D03*
X029988Y013581D03*
X029954Y013747D03*
X029921Y013881D03*
X029888Y013947D03*
X029854Y014047D03*
D76*
X029671Y014214D03*
X025571Y012014D03*
X025471Y013814D03*
X023871Y015714D03*
X023271Y017214D03*
X025971Y019014D03*
X026671Y022814D03*
X023371Y022914D03*
X015171Y020214D03*
X010371Y018114D03*
X010038Y017914D03*
X009871Y017814D03*
X009338Y017514D03*
X009171Y017414D03*
X008838Y017214D03*
X008671Y017114D03*
X008338Y016914D03*
X007971Y016714D03*
X007638Y016514D03*
X007471Y016414D03*
X007138Y016214D03*
X006971Y016114D03*
X006771Y016014D03*
X006438Y015814D03*
X006271Y015714D03*
X006371Y015114D03*
X006371Y014814D03*
X005471Y014914D03*
X005471Y015014D03*
X007038Y017114D03*
X007938Y017214D03*
X005638Y017614D03*
X004571Y017214D03*
X004538Y022814D03*
X007971Y022814D03*
D77*
X005621Y023214D03*
X007388Y020414D03*
X007421Y019714D03*
X007721Y019614D03*
X011321Y017614D03*
X013421Y022814D03*
X013388Y023014D03*
X013388Y023114D03*
X013388Y023214D03*
X013388Y023314D03*
X013388Y023414D03*
X013388Y023514D03*
X013388Y023614D03*
X013388Y023714D03*
X013388Y023814D03*
X013421Y023914D03*
X013421Y024014D03*
X015321Y024114D03*
X016588Y023414D03*
X018288Y023614D03*
X018321Y023714D03*
X018321Y023814D03*
X018321Y023914D03*
X018288Y024114D03*
X016321Y025514D03*
X015521Y026714D03*
X026088Y019714D03*
X028988Y016914D03*
X028988Y015714D03*
X029488Y012014D03*
D78*
X029588Y012214D03*
X026121Y019914D03*
X024221Y023214D03*
X019121Y026214D03*
X007421Y019914D03*
X007421Y019814D03*
X007221Y020814D03*
X005121Y020314D03*
D79*
X005888Y020414D03*
X005921Y020014D03*
X005921Y019614D03*
X005588Y019514D03*
X006588Y019614D03*
X006954Y019314D03*
X007054Y019214D03*
X007154Y019114D03*
X007254Y019014D03*
X007354Y018914D03*
X007454Y018814D03*
X007554Y018714D03*
X007654Y018614D03*
X007754Y018514D03*
X007854Y018414D03*
X007954Y018314D03*
X008588Y018114D03*
X008654Y018214D03*
X008754Y018314D03*
X008788Y018414D03*
X008854Y018514D03*
X008921Y018614D03*
X009021Y018814D03*
X009054Y018914D03*
X009088Y019014D03*
X009121Y019114D03*
X009154Y019214D03*
X009188Y019314D03*
X009221Y019514D03*
X009254Y019714D03*
X008721Y019714D03*
X008688Y019514D03*
X008754Y020014D03*
X008721Y020314D03*
X008721Y020414D03*
X008688Y020514D03*
X008654Y020714D03*
X008621Y020814D03*
X008588Y020914D03*
X008554Y021014D03*
X008488Y021114D03*
X008454Y021214D03*
X008388Y021314D03*
X008321Y021414D03*
X008254Y021514D03*
X007988Y021814D03*
X008221Y022314D03*
X008521Y022014D03*
X008621Y021914D03*
X008688Y021814D03*
X008754Y021714D03*
X008821Y021614D03*
X008888Y021514D03*
X008921Y021414D03*
X008988Y021314D03*
X009021Y021214D03*
X009188Y020714D03*
X009254Y020314D03*
X006554Y020114D03*
X006488Y020914D03*
X004321Y021614D03*
X004254Y021514D03*
X004188Y021414D03*
X004121Y021314D03*
X004054Y021214D03*
X003954Y021014D03*
X003921Y020914D03*
X003888Y020814D03*
X003388Y021014D03*
X003421Y021114D03*
X003354Y020914D03*
X003321Y020814D03*
X003288Y020614D03*
X003254Y020414D03*
X003221Y020114D03*
X003221Y020014D03*
X003221Y019914D03*
X003254Y019614D03*
X003288Y019414D03*
X003488Y018814D03*
X003521Y018714D03*
X003588Y018614D03*
X003621Y018514D03*
X003688Y018414D03*
X003754Y018314D03*
X003821Y018214D03*
X003988Y018014D03*
X004088Y017914D03*
X004188Y017814D03*
X003521Y021314D03*
X003554Y021414D03*
X003621Y021514D03*
X003688Y021614D03*
X003754Y021714D03*
X003821Y021814D03*
X003888Y021914D03*
X004054Y022114D03*
X004154Y022214D03*
X013988Y018614D03*
X014154Y018514D03*
X014321Y018414D03*
X014454Y018314D03*
X014788Y018714D03*
X014154Y019114D03*
X016354Y020514D03*
X016521Y020414D03*
X016654Y020314D03*
X016821Y020214D03*
X016988Y020114D03*
X017121Y020014D03*
X016821Y019514D03*
X014321Y021914D03*
X021988Y020714D03*
X022021Y020814D03*
X022054Y020914D03*
X022088Y021014D03*
X022121Y021114D03*
X022154Y021214D03*
X022254Y021414D03*
X022354Y021614D03*
X022421Y021714D03*
X022488Y021814D03*
X022654Y022014D03*
X022954Y022314D03*
X021954Y020514D03*
X021921Y020214D03*
X021921Y020114D03*
X021921Y020014D03*
X021921Y019914D03*
X021921Y019814D03*
X021954Y019514D03*
X021988Y019414D03*
X022054Y019114D03*
X022088Y019014D03*
X022221Y018714D03*
X022321Y018514D03*
X022388Y018414D03*
X022454Y018314D03*
X022521Y018214D03*
X022688Y018014D03*
X022788Y017914D03*
X022888Y017814D03*
X023121Y018314D03*
X023054Y018414D03*
X022954Y018514D03*
X022888Y018614D03*
X022821Y018714D03*
X022754Y018814D03*
X022721Y018914D03*
X022654Y019014D03*
X022621Y019114D03*
X022588Y019214D03*
X022554Y019314D03*
X024621Y019614D03*
X025188Y019114D03*
X025254Y019614D03*
X025254Y020014D03*
X025254Y020114D03*
X024621Y020114D03*
X024621Y020014D03*
X025621Y020714D03*
X025721Y020814D03*
X025821Y020914D03*
X025921Y021014D03*
X026021Y021114D03*
X026121Y021214D03*
X026221Y021314D03*
X026321Y021414D03*
X026421Y021514D03*
X026521Y021614D03*
X026621Y021714D03*
X027221Y022014D03*
X027321Y021914D03*
X027388Y021814D03*
X027454Y021714D03*
X027521Y021614D03*
X027588Y021514D03*
X027621Y021414D03*
X027688Y021314D03*
X027721Y021214D03*
X027754Y021114D03*
X027854Y020814D03*
X027888Y020714D03*
X027921Y020514D03*
X027954Y020314D03*
X027954Y020214D03*
X027954Y020014D03*
X027954Y019914D03*
X027954Y019814D03*
X027921Y019514D03*
X027888Y019414D03*
X027854Y019214D03*
X027821Y019114D03*
X027788Y019014D03*
X027754Y018914D03*
X027654Y018714D03*
X027621Y018614D03*
X027554Y018514D03*
X027488Y018414D03*
X027421Y018314D03*
X027354Y018214D03*
X027188Y018014D03*
X027088Y017914D03*
X026988Y017814D03*
X026921Y018514D03*
X026988Y018614D03*
X027054Y018714D03*
X027121Y018814D03*
X027221Y019014D03*
X027321Y019314D03*
X027354Y019414D03*
X027388Y019514D03*
X027421Y019714D03*
X027421Y019814D03*
X027421Y020214D03*
X027421Y020314D03*
X027388Y020514D03*
X029821Y014114D03*
X029988Y013614D03*
X029988Y013414D03*
X029988Y012514D03*
X025354Y012314D03*
X025288Y012714D03*
X025288Y012814D03*
X025288Y012914D03*
X025288Y013014D03*
X025288Y013114D03*
X025288Y013214D03*
X025288Y013314D03*
X025288Y013414D03*
X025321Y013614D03*
X025321Y013714D03*
X025388Y013914D03*
D80*
X024354Y016247D03*
X029354Y014347D03*
X029654Y012581D03*
X016354Y025347D03*
X016354Y025381D03*
X002454Y015181D03*
D81*
X002438Y016414D03*
X007438Y020014D03*
X007438Y020114D03*
X007438Y020214D03*
X007404Y020314D03*
X010304Y022014D03*
X010304Y022114D03*
X010304Y022214D03*
X010304Y022314D03*
X010304Y022414D03*
X010304Y022514D03*
X010304Y022614D03*
X010304Y022714D03*
X010304Y022814D03*
X010304Y022914D03*
X010304Y023014D03*
X010304Y023114D03*
X010304Y023914D03*
X010304Y024014D03*
X010304Y024114D03*
X010304Y024214D03*
X010304Y024314D03*
X010304Y024414D03*
X010304Y024514D03*
X010304Y024614D03*
X010304Y024714D03*
X010304Y024814D03*
X010304Y024914D03*
X012171Y024914D03*
X012171Y024814D03*
X012171Y024714D03*
X012171Y024614D03*
X012171Y024514D03*
X012171Y024414D03*
X012171Y024314D03*
X012171Y024214D03*
X012171Y024114D03*
X012171Y024014D03*
X012171Y023914D03*
X012171Y023114D03*
X012171Y023014D03*
X012171Y022914D03*
X012171Y022814D03*
X012171Y022714D03*
X012171Y022614D03*
X012171Y022514D03*
X012171Y022414D03*
X012171Y022314D03*
X012171Y022214D03*
X012171Y022114D03*
X012171Y022014D03*
X015204Y019014D03*
X016571Y022014D03*
X016571Y022114D03*
X016571Y022214D03*
X016571Y022314D03*
X016571Y022414D03*
X016571Y022514D03*
X016571Y022614D03*
X016571Y023514D03*
X016571Y023614D03*
X016571Y023714D03*
X016571Y023814D03*
X016571Y023914D03*
X016571Y024014D03*
X016571Y024114D03*
X016571Y024214D03*
X016338Y025414D03*
X015504Y026814D03*
X018304Y024014D03*
X019471Y024014D03*
X019471Y024114D03*
X019471Y024214D03*
X019471Y023914D03*
X019471Y023814D03*
X019471Y023114D03*
X019471Y023014D03*
X019471Y022914D03*
X019471Y022814D03*
X019471Y022714D03*
X019471Y022614D03*
X024338Y018814D03*
X026104Y019814D03*
X026104Y020314D03*
X029638Y012614D03*
D82*
X029704Y012947D03*
X020204Y019447D03*
X010704Y018181D03*
D83*
X011321Y017581D03*
X008388Y019447D03*
X004354Y020547D03*
X015154Y018947D03*
X020221Y019481D03*
X024921Y023081D03*
X026921Y020581D03*
X026788Y020547D03*
X028988Y015681D03*
X029721Y012981D03*
X019121Y026147D03*
D84*
X023054Y022714D03*
X024021Y022914D03*
X024188Y022414D03*
X026821Y022714D03*
X026054Y018914D03*
X026154Y018814D03*
X026754Y017314D03*
X029854Y013814D03*
X023121Y017314D03*
X016188Y018614D03*
X015921Y018514D03*
X015654Y018414D03*
X015154Y018214D03*
X014888Y018114D03*
X014921Y018914D03*
X014921Y020114D03*
X015421Y020314D03*
X015688Y020414D03*
X015954Y020514D03*
X009521Y017614D03*
X008221Y017414D03*
X008088Y017314D03*
X008154Y016814D03*
X005454Y017114D03*
X004421Y017314D03*
X002454Y016514D03*
X005588Y019414D03*
X007321Y021114D03*
X007421Y021214D03*
X007988Y021714D03*
X008121Y022714D03*
D85*
X004704Y019614D03*
X004004Y022414D03*
X004104Y022514D03*
X022804Y022514D03*
X022904Y022614D03*
X023904Y020314D03*
X026904Y017414D03*
X026204Y014814D03*
X025504Y014014D03*
X029104Y014814D03*
X029804Y014014D03*
D86*
X029404Y016081D03*
X029404Y016547D03*
X026004Y016947D03*
X025804Y014347D03*
X020204Y019581D03*
X024304Y020747D03*
X014704Y018081D03*
D87*
X015171Y018981D03*
X019671Y019047D03*
X024371Y018781D03*
X024338Y015247D03*
X028971Y016947D03*
X029338Y014381D03*
X019138Y026181D03*
X007238Y020847D03*
X005671Y021281D03*
X005671Y019247D03*
X005938Y015481D03*
D88*
X005954Y014414D03*
X007254Y020914D03*
X028754Y014914D03*
D89*
X025771Y016881D03*
X024338Y016281D03*
X024371Y018747D03*
X025938Y019181D03*
X024938Y023381D03*
X008238Y019481D03*
X007238Y020881D03*
X007071Y023181D03*
X004238Y020581D03*
X006238Y016981D03*
X005938Y014447D03*
X002438Y015147D03*
X002438Y016447D03*
D90*
X005938Y015381D03*
X005871Y014481D03*
X007471Y019681D03*
X007238Y020647D03*
X005271Y020647D03*
X013471Y022681D03*
X018238Y023447D03*
X018238Y024247D03*
X019138Y025947D03*
X019138Y026347D03*
X025971Y019481D03*
X025938Y019447D03*
X024338Y016181D03*
D91*
X026221Y020014D03*
X019688Y020214D03*
X006288Y018514D03*
X005888Y014514D03*
D92*
X015888Y019814D03*
X023621Y019614D03*
X024821Y021414D03*
X028988Y016714D03*
X028988Y014514D03*
D93*
X028988Y016781D03*
X026254Y014547D03*
X024354Y016047D03*
X024121Y019281D03*
X024888Y021481D03*
X015454Y019381D03*
X014354Y021947D03*
X014421Y024947D03*
X013621Y025981D03*
X011321Y018481D03*
X011321Y017781D03*
X006254Y017547D03*
X006188Y018581D03*
X005421Y020781D03*
X002454Y016281D03*
D94*
X013671Y025347D03*
X013671Y025381D03*
X013671Y025447D03*
X013671Y025481D03*
X013671Y025547D03*
X013671Y025581D03*
X013671Y025647D03*
X017604Y025647D03*
X017604Y025581D03*
X017604Y025547D03*
X017604Y025481D03*
X017604Y025447D03*
X017604Y025381D03*
X017604Y025347D03*
X017604Y026647D03*
X017604Y026681D03*
X017604Y026747D03*
X017604Y026781D03*
X017604Y026847D03*
X017604Y026881D03*
X015838Y019747D03*
X015538Y019481D03*
X024238Y019147D03*
X028971Y014547D03*
D95*
X028988Y016847D03*
X024288Y018981D03*
X019688Y020181D03*
X017788Y019947D03*
X015388Y019281D03*
X015221Y022647D03*
X018188Y024281D03*
X005921Y014581D03*
X005588Y021047D03*
X005588Y021081D03*
D96*
X005938Y015314D03*
X005938Y014614D03*
X024271Y019014D03*
X028971Y016814D03*
D97*
X024338Y016081D03*
X024271Y019047D03*
X019671Y019181D03*
X015438Y019347D03*
X005938Y015281D03*
X005938Y014647D03*
D98*
X027654Y014647D03*
D99*
X028571Y016081D03*
X024338Y015181D03*
X023871Y016947D03*
X027138Y020647D03*
X025938Y023147D03*
X023938Y023147D03*
X019638Y026847D03*
X011671Y018381D03*
X011671Y017881D03*
X007271Y020947D03*
X002438Y016481D03*
X002038Y016047D03*
X002871Y016047D03*
X005638Y014681D03*
X006238Y014681D03*
D100*
X027654Y014681D03*
D101*
X027638Y014781D03*
D102*
X027638Y014881D03*
D103*
X026538Y014914D03*
X010838Y018314D03*
X004104Y020614D03*
X002404Y015114D03*
D104*
X027654Y014947D03*
D105*
X027638Y014981D03*
X017338Y022947D03*
X017338Y024681D03*
X014371Y022281D03*
D106*
X014371Y022114D03*
X019271Y020114D03*
X027638Y015014D03*
D107*
X024354Y015214D03*
X005954Y015514D03*
D108*
X002454Y015247D03*
X002454Y016347D03*
X015254Y022681D03*
X024354Y016147D03*
D109*
X024354Y015281D03*
X026054Y019647D03*
X025054Y021581D03*
X015354Y022981D03*
X015354Y023047D03*
X015354Y023081D03*
X015354Y023147D03*
X015354Y023181D03*
X015354Y023247D03*
X015354Y023281D03*
X015354Y023347D03*
X015354Y023381D03*
X015354Y023447D03*
X015354Y023481D03*
X015354Y023547D03*
X015354Y023581D03*
X015354Y023647D03*
X015354Y023681D03*
X015354Y023747D03*
X015354Y023781D03*
X015354Y023847D03*
X015354Y023881D03*
X015354Y023947D03*
X015354Y023981D03*
X015254Y019081D03*
X007354Y020447D03*
X006354Y018481D03*
D110*
X007321Y020514D03*
X005254Y020614D03*
X013454Y022714D03*
X015288Y022714D03*
X015321Y022814D03*
X018254Y024214D03*
X025988Y019514D03*
X026188Y020114D03*
X026288Y020414D03*
X024354Y015314D03*
D111*
X019654Y020147D03*
X024854Y021447D03*
X024954Y023347D03*
X013654Y026581D03*
X013654Y026647D03*
X013654Y026681D03*
X013654Y026747D03*
X013654Y026781D03*
X013654Y026847D03*
X013654Y026881D03*
X005554Y020947D03*
X002454Y016247D03*
X002454Y015381D03*
D112*
X014354Y021981D03*
X024554Y015381D03*
D113*
X015554Y019514D03*
X013654Y022614D03*
X002454Y015414D03*
D114*
X024671Y015414D03*
D115*
X028971Y015947D03*
X028971Y016681D03*
X024771Y021381D03*
X015571Y019547D03*
X013671Y024281D03*
X005538Y020847D03*
X002438Y015447D03*
D116*
X024804Y015447D03*
X024938Y023247D03*
D117*
X024754Y021347D03*
X028988Y016647D03*
X028988Y015981D03*
X019688Y019347D03*
X015921Y019847D03*
X020621Y026581D03*
X020621Y026647D03*
X020621Y026681D03*
X020621Y026747D03*
X020621Y026781D03*
X020621Y026847D03*
X020621Y026881D03*
X010554Y026881D03*
X010554Y026847D03*
X010554Y026781D03*
X010554Y026747D03*
X010554Y026681D03*
X010554Y026647D03*
X010554Y026581D03*
X006088Y018681D03*
X002454Y016147D03*
X002454Y015481D03*
D118*
X005854Y018981D03*
X025254Y015481D03*
D119*
X006254Y023014D03*
X006254Y023314D03*
X002454Y015514D03*
D120*
X002454Y016114D03*
X006054Y018714D03*
X010554Y026614D03*
X010554Y026714D03*
X010554Y026814D03*
X010554Y026914D03*
X015621Y019614D03*
X020621Y026614D03*
X020621Y026714D03*
X020621Y026814D03*
X020621Y026914D03*
X028988Y016014D03*
X025654Y015514D03*
D121*
X010954Y018381D03*
X002854Y015547D03*
X002054Y015547D03*
D122*
X002021Y015581D03*
X001988Y015981D03*
X002921Y015981D03*
X002888Y015581D03*
X005154Y016947D03*
X005954Y015547D03*
X007354Y016947D03*
X006254Y019747D03*
X005221Y020247D03*
X004021Y020647D03*
X010954Y017881D03*
X018588Y025347D03*
X018588Y025381D03*
X018621Y025447D03*
X018654Y025481D03*
X018688Y025547D03*
X018754Y025681D03*
X019588Y025547D03*
X019621Y025481D03*
X019688Y025347D03*
X019488Y026581D03*
X019521Y026647D03*
X019554Y026681D03*
X019588Y026747D03*
X019588Y026781D03*
X019654Y026881D03*
X018721Y026681D03*
X018688Y026747D03*
X018654Y026781D03*
X018621Y026847D03*
X018621Y026881D03*
X019221Y019881D03*
X019221Y019847D03*
X019221Y019481D03*
X019254Y019447D03*
X020121Y019881D03*
X020154Y019847D03*
X023821Y015881D03*
X024454Y018647D03*
X028554Y016547D03*
X028521Y016147D03*
X029454Y016147D03*
X029454Y016481D03*
D123*
X027771Y015781D03*
X026971Y015681D03*
X026171Y015581D03*
X024638Y020847D03*
X019671Y019381D03*
X015938Y019881D03*
D124*
X016838Y022714D03*
X026438Y015614D03*
X027238Y015714D03*
X028971Y016614D03*
X005938Y019214D03*
D125*
X005721Y021381D03*
X005288Y023147D03*
X007221Y023147D03*
X010888Y018347D03*
X006688Y017047D03*
X019688Y020347D03*
X020221Y019547D03*
X024421Y018681D03*
X028588Y016581D03*
X029388Y016581D03*
X028988Y015647D03*
D126*
X028438Y015814D03*
X017238Y022814D03*
D127*
X014354Y022081D03*
X006254Y023247D03*
X028588Y015847D03*
D128*
X028738Y015881D03*
X024938Y016781D03*
X005838Y018947D03*
D129*
X011321Y018714D03*
X019288Y019414D03*
X020088Y019414D03*
X023821Y015914D03*
X023988Y016914D03*
X025888Y016914D03*
X024488Y023014D03*
D130*
X024938Y023314D03*
X028871Y015914D03*
X012071Y026014D03*
X012071Y026114D03*
X012071Y026214D03*
X012071Y026314D03*
D131*
X011321Y017547D03*
X007121Y016881D03*
X005388Y016881D03*
X002821Y016081D03*
X002088Y016081D03*
X022788Y019447D03*
X024321Y020781D03*
X025821Y023181D03*
X028988Y016981D03*
X023821Y015947D03*
D132*
X023554Y016014D03*
X022754Y016914D03*
X022654Y017014D03*
X021854Y017914D03*
X021754Y018014D03*
X020954Y018914D03*
X020854Y019014D03*
X023154Y020514D03*
X023354Y021614D03*
X022254Y021914D03*
X023754Y022814D03*
X025354Y021614D03*
X027554Y022014D03*
X026354Y018614D03*
X026454Y018514D03*
X026554Y018414D03*
X027254Y017714D03*
X027154Y017614D03*
X027354Y017814D03*
X028254Y017914D03*
X023854Y017214D03*
X014654Y018014D03*
X008754Y017914D03*
X008654Y017814D03*
X008354Y017514D03*
X007354Y017214D03*
X008854Y022014D03*
X005254Y022314D03*
D133*
X002454Y016314D03*
X024354Y016114D03*
D134*
X024338Y016314D03*
X025938Y019114D03*
X028538Y016114D03*
X019271Y019914D03*
X019671Y026914D03*
X007238Y016914D03*
X005238Y016914D03*
D135*
X002454Y016181D03*
X004954Y020447D03*
X005554Y020881D03*
X015854Y019781D03*
X024254Y019181D03*
D136*
X017604Y025314D03*
X017604Y025414D03*
X017604Y025514D03*
X017604Y025614D03*
X017604Y026614D03*
X017604Y026714D03*
X017604Y026814D03*
X017604Y026914D03*
X013671Y025614D03*
X013671Y025514D03*
X013671Y025414D03*
X013671Y025314D03*
X015104Y022614D03*
X011304Y018414D03*
X002438Y016214D03*
D137*
X006254Y016681D03*
X005154Y020281D03*
X010754Y018247D03*
X020054Y019947D03*
X023854Y019781D03*
D138*
X024254Y019114D03*
X013654Y026614D03*
X013654Y026714D03*
X013654Y026814D03*
X013654Y026914D03*
X005554Y020914D03*
X006154Y018614D03*
X006254Y016714D03*
D139*
X011321Y017714D03*
X011321Y018514D03*
X015421Y019314D03*
X024921Y021514D03*
X024921Y016714D03*
D140*
X024671Y021247D03*
X012071Y025947D03*
X012071Y025981D03*
X012071Y026047D03*
X012071Y026081D03*
X012071Y026147D03*
X012071Y026181D03*
X012071Y026247D03*
X012071Y026281D03*
X006238Y016747D03*
D141*
X015654Y019647D03*
X024954Y017047D03*
X024954Y016747D03*
D142*
X024954Y023281D03*
X017054Y024947D03*
X006254Y016781D03*
D143*
X006254Y016814D03*
X017154Y024914D03*
D144*
X014388Y024814D03*
X024954Y016814D03*
D145*
X024304Y016847D03*
X023904Y019481D03*
X026004Y019547D03*
X026404Y020447D03*
X016304Y025647D03*
X015304Y024147D03*
X013404Y022981D03*
X013404Y022947D03*
X013404Y022881D03*
X013404Y022847D03*
X007304Y020547D03*
X005204Y020547D03*
D146*
X005404Y023181D03*
X022904Y019481D03*
X024104Y016881D03*
D147*
X024938Y017014D03*
X024071Y019314D03*
X005604Y021114D03*
X005338Y020714D03*
D148*
X006238Y017514D03*
X015471Y026914D03*
X016371Y025314D03*
X019138Y026114D03*
D149*
X022104Y021081D03*
X022004Y020781D03*
X022004Y020747D03*
X022604Y019147D03*
X022204Y018747D03*
X022104Y018981D03*
X024104Y019947D03*
X024404Y019947D03*
X024404Y019981D03*
X024404Y020047D03*
X024404Y020081D03*
X024504Y020347D03*
X024604Y020447D03*
X024504Y019747D03*
X025204Y019081D03*
X025204Y019047D03*
X025304Y018681D03*
X025304Y018647D03*
X025404Y018347D03*
X025404Y018281D03*
X025504Y017981D03*
X025504Y017947D03*
X025504Y017881D03*
X024304Y017581D03*
X025304Y019647D03*
X025404Y019781D03*
X025404Y020281D03*
X027204Y018981D03*
X027804Y019081D03*
X027904Y019447D03*
X027904Y019481D03*
X027404Y019647D03*
X027404Y020447D03*
X027904Y020647D03*
X017104Y019881D03*
X017004Y019781D03*
X017004Y019747D03*
X016904Y019647D03*
X016804Y019481D03*
X016704Y019347D03*
X016504Y019081D03*
X016404Y018947D03*
X014704Y019847D03*
X014604Y019747D03*
X014504Y019581D03*
X014404Y019447D03*
X014204Y019181D03*
X014104Y019047D03*
X013904Y018781D03*
X009204Y019381D03*
X009104Y019047D03*
X009004Y018781D03*
X008904Y018581D03*
X008704Y019547D03*
X008704Y019581D03*
X008704Y020447D03*
X008704Y020481D03*
X008604Y020847D03*
X009204Y020647D03*
X006804Y022081D03*
X006804Y022147D03*
X006704Y021781D03*
X006704Y021747D03*
X006704Y021681D03*
X006604Y021381D03*
X006604Y021347D03*
X006504Y020981D03*
X006504Y020947D03*
X006704Y020281D03*
X006704Y019781D03*
X006704Y019747D03*
X005804Y019747D03*
X003904Y020881D03*
X003404Y021047D03*
X003304Y020747D03*
X003304Y019347D03*
X003404Y018981D03*
X003504Y018747D03*
D150*
X005721Y020014D03*
X005721Y020114D03*
X006888Y022414D03*
X014721Y018614D03*
X024421Y019914D03*
X024488Y020314D03*
X025421Y019814D03*
X026688Y018214D03*
X025588Y017614D03*
X024921Y021614D03*
X026688Y021814D03*
D151*
X026671Y021781D03*
X027371Y020581D03*
X027871Y020781D03*
X027838Y020881D03*
X027738Y021181D03*
X027938Y020481D03*
X027938Y020447D03*
X027938Y020381D03*
X027971Y020147D03*
X027971Y020081D03*
X027938Y019681D03*
X027938Y019647D03*
X027438Y019881D03*
X027438Y019947D03*
X027438Y019981D03*
X027438Y020047D03*
X027438Y020081D03*
X027438Y020147D03*
X027438Y020181D03*
X027371Y019481D03*
X027371Y019447D03*
X027338Y019347D03*
X027238Y019047D03*
X027138Y018847D03*
X027571Y018547D03*
X027671Y018747D03*
X027771Y018981D03*
X027838Y019181D03*
X027871Y019281D03*
X025538Y017847D03*
X025538Y017781D03*
X025571Y017681D03*
X025571Y017647D03*
X025471Y018047D03*
X025471Y018081D03*
X025438Y018147D03*
X025438Y018181D03*
X025371Y018381D03*
X025371Y018447D03*
X025371Y018481D03*
X025338Y018547D03*
X025338Y018581D03*
X025271Y018747D03*
X025271Y018781D03*
X025271Y018847D03*
X025238Y018881D03*
X025238Y018947D03*
X025238Y018981D03*
X025171Y019147D03*
X025171Y019181D03*
X025338Y019681D03*
X025371Y019747D03*
X025438Y019847D03*
X025438Y019881D03*
X025471Y019947D03*
X025471Y019981D03*
X025471Y020047D03*
X025471Y020081D03*
X025438Y020247D03*
X025371Y020347D03*
X025338Y020381D03*
X025271Y020447D03*
X024538Y020381D03*
X024471Y020281D03*
X024438Y020181D03*
X024438Y019881D03*
X024438Y019847D03*
X024471Y019781D03*
X024538Y019681D03*
X024571Y019647D03*
X024271Y020547D03*
X022571Y019247D03*
X022071Y019081D03*
X022038Y019181D03*
X021971Y019447D03*
X021971Y019481D03*
X021938Y019647D03*
X021938Y019681D03*
X021938Y019747D03*
X021938Y020347D03*
X021938Y020381D03*
X021938Y020447D03*
X021971Y020581D03*
X022038Y020881D03*
X022071Y020981D03*
X022138Y021181D03*
X022171Y021247D03*
X022238Y018681D03*
X017138Y019947D03*
X017071Y019847D03*
X016938Y019681D03*
X016871Y019581D03*
X016838Y019547D03*
X016771Y019447D03*
X016738Y019381D03*
X016638Y019281D03*
X016638Y019247D03*
X016571Y019181D03*
X016471Y019047D03*
X016438Y018981D03*
X016371Y018881D03*
X016338Y018847D03*
X014771Y018681D03*
X014738Y018647D03*
X014138Y019081D03*
X014171Y019147D03*
X014238Y019247D03*
X014271Y019281D03*
X014338Y019347D03*
X014338Y019381D03*
X014471Y019547D03*
X014538Y019647D03*
X014571Y019681D03*
X014638Y019781D03*
X014071Y018981D03*
X014038Y018947D03*
X013971Y018881D03*
X013971Y018847D03*
X013871Y018747D03*
X009238Y019547D03*
X009238Y019581D03*
X009271Y019847D03*
X009271Y019881D03*
X009271Y019947D03*
X009271Y019981D03*
X009271Y020047D03*
X009271Y020081D03*
X009271Y020147D03*
X009271Y020181D03*
X009271Y020247D03*
X009238Y020447D03*
X009238Y020481D03*
X009171Y020781D03*
X009038Y021181D03*
X008971Y021347D03*
X008571Y020947D03*
X008638Y020747D03*
X008671Y020647D03*
X008738Y020281D03*
X008738Y020247D03*
X008738Y020181D03*
X008738Y020147D03*
X008738Y020081D03*
X008738Y019981D03*
X008738Y019947D03*
X008738Y019881D03*
X008738Y019847D03*
X008738Y019781D03*
X008738Y019747D03*
X009171Y019281D03*
X009171Y019247D03*
X009138Y019147D03*
X009071Y018947D03*
X008938Y018647D03*
X006771Y019947D03*
X006771Y019981D03*
X006771Y020047D03*
X006771Y020081D03*
X006771Y020147D03*
X006738Y020247D03*
X006671Y020347D03*
X006638Y020381D03*
X006571Y020447D03*
X006471Y020847D03*
X006471Y020881D03*
X006538Y021081D03*
X006538Y021147D03*
X006571Y021181D03*
X006571Y021247D03*
X006571Y021281D03*
X006638Y021447D03*
X006638Y021481D03*
X006671Y021547D03*
X006671Y021581D03*
X006671Y021647D03*
X006738Y021847D03*
X006738Y021881D03*
X006771Y021947D03*
X006771Y021981D03*
X006838Y022181D03*
X006838Y022247D03*
X006871Y022347D03*
X006871Y022381D03*
X005838Y020347D03*
X005771Y020281D03*
X005771Y020247D03*
X005738Y020181D03*
X005738Y020147D03*
X005738Y019881D03*
X005738Y019847D03*
X005771Y019781D03*
X005838Y019681D03*
X005871Y019647D03*
X006638Y019681D03*
X006738Y019847D03*
X004038Y021181D03*
X004071Y021247D03*
X003971Y021047D03*
X003938Y020981D03*
X003871Y020781D03*
X003438Y021147D03*
X003371Y020981D03*
X003371Y020947D03*
X003338Y020847D03*
X003271Y020581D03*
X003271Y020547D03*
X003238Y020381D03*
X003238Y020347D03*
X003238Y020281D03*
X003238Y020247D03*
X003238Y019781D03*
X003238Y019747D03*
X003238Y019681D03*
X003271Y019481D03*
X003538Y018681D03*
D152*
X007221Y020681D03*
X011321Y017681D03*
X023721Y019681D03*
X023988Y019381D03*
X024021Y019347D03*
X024288Y018947D03*
X026221Y020047D03*
X024988Y021547D03*
D153*
X024571Y020414D03*
X024438Y020214D03*
X024471Y019814D03*
X025171Y019214D03*
X025238Y018914D03*
X025271Y018814D03*
X025338Y018614D03*
X025338Y018514D03*
X025371Y018414D03*
X025438Y018214D03*
X025471Y018014D03*
X025538Y017814D03*
X025571Y017714D03*
X027171Y018914D03*
X027871Y019314D03*
X027938Y019614D03*
X027938Y019714D03*
X027971Y020114D03*
X027938Y020414D03*
X027438Y020114D03*
X027438Y020014D03*
X027438Y019914D03*
X027838Y020914D03*
X025471Y020114D03*
X025471Y020014D03*
X025438Y020214D03*
X025371Y019714D03*
X022271Y018614D03*
X022171Y018814D03*
X022138Y018914D03*
X022038Y019214D03*
X021938Y019614D03*
X021938Y019714D03*
X021938Y020314D03*
X021938Y020414D03*
X021971Y020614D03*
X017471Y019914D03*
X017038Y019814D03*
X016971Y019714D03*
X016738Y019414D03*
X016671Y019314D03*
X016538Y019114D03*
X016471Y019014D03*
X016371Y018914D03*
X014671Y019814D03*
X014438Y019514D03*
X014371Y019414D03*
X014238Y019214D03*
X014071Y019014D03*
X013938Y018814D03*
X013871Y018714D03*
X009238Y019614D03*
X009271Y019814D03*
X009271Y019914D03*
X009271Y020014D03*
X009271Y020114D03*
X009271Y020214D03*
X009238Y020414D03*
X009238Y020514D03*
X009171Y020814D03*
X009138Y020914D03*
X009071Y021114D03*
X008671Y020614D03*
X008738Y020214D03*
X008738Y020114D03*
X008738Y019914D03*
X008738Y019814D03*
X008971Y018714D03*
X006871Y019414D03*
X006671Y019714D03*
X006738Y019814D03*
X006771Y019914D03*
X006771Y020014D03*
X006771Y020114D03*
X006738Y020214D03*
X006538Y021114D03*
X006571Y021214D03*
X006638Y021514D03*
X006671Y021614D03*
X006738Y021814D03*
X006771Y022014D03*
X006838Y022214D03*
X006871Y022314D03*
X005738Y020214D03*
X005738Y019914D03*
X005771Y019814D03*
X003438Y018914D03*
X003371Y019114D03*
X003338Y019214D03*
X003271Y019514D03*
X003238Y019714D03*
X003238Y019814D03*
X003238Y020214D03*
X003238Y020314D03*
X003271Y020514D03*
X003471Y021214D03*
D154*
X011304Y017747D03*
D155*
X006854Y019447D03*
X006754Y019881D03*
X006754Y020181D03*
X006854Y022281D03*
X024454Y020247D03*
X025454Y020181D03*
X025454Y020147D03*
X027354Y020747D03*
X025554Y017747D03*
D156*
X018121Y023414D03*
X015821Y019714D03*
X011321Y017814D03*
D157*
X009204Y019414D03*
X008704Y019614D03*
X009204Y020614D03*
X009104Y021014D03*
X006804Y022114D03*
X006704Y021714D03*
X006604Y021414D03*
X006604Y021314D03*
X006504Y021014D03*
X006604Y020414D03*
X006704Y020314D03*
X005804Y020314D03*
X005404Y020114D03*
X005804Y019714D03*
X004004Y021114D03*
X003304Y020714D03*
X003304Y019314D03*
X003404Y019014D03*
X014004Y018914D03*
X014304Y019314D03*
X014504Y019614D03*
X014604Y019714D03*
X015104Y018614D03*
X016604Y019214D03*
X016904Y019614D03*
X017104Y019914D03*
X022004Y019314D03*
X022204Y021314D03*
X022304Y021514D03*
X024404Y020114D03*
X024404Y020014D03*
X024504Y019714D03*
X025204Y019014D03*
X025304Y018714D03*
X025404Y018314D03*
X025504Y017914D03*
X027404Y019614D03*
X027704Y018814D03*
X027404Y020414D03*
X027904Y020614D03*
X027804Y021014D03*
X025404Y020314D03*
X025304Y020414D03*
D158*
X025454Y019914D03*
X025454Y018114D03*
X008654Y019314D03*
X006754Y021914D03*
D159*
X006788Y022047D03*
X006888Y022447D03*
X007988Y021847D03*
X005721Y020081D03*
X005721Y020047D03*
X005721Y019981D03*
X005721Y019947D03*
X005588Y019547D03*
X008021Y018247D03*
X011321Y018781D03*
X015088Y018581D03*
X024421Y020147D03*
X025421Y018247D03*
D160*
X011738Y018547D03*
D161*
X012354Y018581D03*
D162*
X012338Y018614D03*
D163*
X006121Y018647D03*
X019688Y019281D03*
D164*
X012354Y018647D03*
D165*
X012354Y018681D03*
D166*
X013204Y018714D03*
D167*
X019688Y019014D03*
X020221Y019514D03*
X024388Y018714D03*
D168*
X023588Y019581D03*
X024621Y020881D03*
X006021Y018747D03*
X005921Y019181D03*
X004888Y020481D03*
D169*
X006004Y018781D03*
X024704Y021281D03*
D170*
X005988Y018814D03*
D171*
X005821Y018847D03*
D172*
X007388Y020347D03*
X007388Y020381D03*
X007221Y020781D03*
X013388Y023047D03*
X013388Y023081D03*
X013388Y023147D03*
X013388Y023181D03*
X013388Y023247D03*
X013388Y023281D03*
X013388Y023347D03*
X013388Y023381D03*
X013388Y023447D03*
X013388Y023481D03*
X013388Y023547D03*
X013388Y023581D03*
X013388Y023647D03*
X013388Y023681D03*
X013388Y023747D03*
X013388Y023781D03*
X013388Y023847D03*
X013388Y023881D03*
X013421Y023947D03*
X013421Y023981D03*
X013421Y024047D03*
X015521Y026647D03*
X015521Y026681D03*
X016321Y025581D03*
X016321Y025547D03*
X018288Y024147D03*
X018288Y024081D03*
X018288Y024047D03*
X018321Y023947D03*
X018321Y023881D03*
X018321Y023847D03*
X018321Y023781D03*
X018321Y023747D03*
X018288Y023647D03*
X018288Y023581D03*
X018288Y023547D03*
X019688Y019081D03*
X015221Y019047D03*
X024321Y018847D03*
X025921Y019281D03*
X026088Y019681D03*
X026121Y020247D03*
D173*
X024521Y021147D03*
X006254Y023281D03*
X005821Y018881D03*
D174*
X005838Y018914D03*
X024538Y021114D03*
D175*
X024304Y018914D03*
X013504Y024214D03*
X007204Y020714D03*
D176*
X005854Y019014D03*
D177*
X005871Y019047D03*
D178*
X005888Y019081D03*
X023554Y019547D03*
X024588Y020981D03*
D179*
X005904Y019114D03*
D180*
X005921Y019147D03*
D181*
X005304Y020681D03*
X005604Y021147D03*
X015304Y019181D03*
X025904Y019347D03*
X025904Y019381D03*
X026204Y020081D03*
D182*
X015354Y019214D03*
D183*
X019671Y019314D03*
X024238Y019214D03*
D184*
X023904Y019514D03*
X025904Y019314D03*
X016304Y025614D03*
X013404Y022914D03*
D185*
X008104Y019514D03*
D186*
X015104Y024281D03*
X015604Y019581D03*
D187*
X015354Y023014D03*
X015354Y023114D03*
X015354Y023214D03*
X015354Y023314D03*
X015354Y023414D03*
X015354Y023514D03*
X015354Y023614D03*
X015354Y023714D03*
X015354Y023814D03*
X015354Y023914D03*
X026054Y019614D03*
X026154Y020214D03*
D188*
X018821Y019981D03*
X018788Y020047D03*
D189*
X018821Y020014D03*
D190*
X018888Y020081D03*
D191*
X004854Y020514D03*
D192*
X025654Y023214D03*
X026654Y020514D03*
D193*
X027071Y020614D03*
D194*
X024604Y020914D03*
X014404Y024914D03*
D195*
X024604Y020947D03*
D196*
X024571Y021014D03*
D197*
X024538Y021081D03*
X014404Y024881D03*
D198*
X014404Y024847D03*
X024504Y021181D03*
D199*
X024488Y021214D03*
D200*
X024721Y021314D03*
D201*
X020171Y021947D03*
X020171Y021981D03*
X020171Y022047D03*
X020171Y022081D03*
X020171Y022147D03*
X020171Y022181D03*
X020171Y022247D03*
X020171Y022281D03*
X020171Y022347D03*
X020171Y022381D03*
X020171Y022447D03*
X020171Y022481D03*
X020171Y022547D03*
X020171Y022581D03*
X017271Y022847D03*
X014371Y022181D03*
D202*
X014354Y022014D03*
D203*
X014371Y022047D03*
D204*
X014371Y022147D03*
D205*
X014371Y022214D03*
D206*
X014371Y022247D03*
D207*
X014371Y022314D03*
X017371Y023014D03*
X017371Y024614D03*
D208*
X014371Y024547D03*
X014371Y022381D03*
X014371Y022347D03*
D209*
X014371Y022414D03*
D210*
X014371Y022447D03*
X014371Y024481D03*
X017438Y023381D03*
D211*
X014371Y022481D03*
D212*
X014371Y022514D03*
X014371Y024414D03*
D213*
X014371Y024347D03*
X014371Y022581D03*
X014371Y022547D03*
X011238Y023147D03*
X011238Y023181D03*
X011238Y023247D03*
X011238Y023281D03*
X011238Y023347D03*
X011238Y023381D03*
X011238Y023447D03*
X011238Y023481D03*
X011238Y023547D03*
X011238Y023581D03*
X011238Y023647D03*
X011238Y023681D03*
X011238Y023747D03*
X011238Y023781D03*
D214*
X017138Y022747D03*
D215*
X017204Y022781D03*
X017204Y024881D03*
X020104Y023747D03*
D216*
X017304Y022881D03*
X017304Y024747D03*
D217*
X017321Y024714D03*
X017321Y022914D03*
D218*
X017354Y022981D03*
X017354Y024647D03*
D219*
X017388Y024547D03*
X017388Y023081D03*
D220*
X017388Y023114D03*
X017388Y024514D03*
D221*
X017404Y024481D03*
X017404Y024447D03*
X017404Y023181D03*
X017404Y023147D03*
D222*
X014371Y024314D03*
X011238Y023814D03*
X011238Y023714D03*
X011238Y023614D03*
X011238Y023514D03*
X011238Y023414D03*
X011238Y023314D03*
X011238Y023214D03*
D223*
X014388Y024514D03*
X017421Y024414D03*
X017421Y024314D03*
X017421Y023314D03*
X017421Y023214D03*
D224*
X020121Y023214D03*
X020121Y023314D03*
X020121Y023414D03*
X020121Y023514D03*
X020121Y023614D03*
X020121Y023714D03*
D225*
X017421Y023347D03*
X017421Y023281D03*
X017421Y023247D03*
X017421Y024347D03*
X017421Y024381D03*
D226*
X020121Y023681D03*
X020121Y023647D03*
X020121Y023581D03*
X020121Y023547D03*
X020121Y023481D03*
X020121Y023447D03*
X020121Y023381D03*
X020121Y023347D03*
X020121Y023281D03*
X020121Y023247D03*
X014388Y024747D03*
D227*
X020154Y024714D03*
X020154Y024814D03*
X020154Y024914D03*
X020154Y024614D03*
X020154Y024514D03*
X020154Y024414D03*
X020154Y024314D03*
D228*
X020154Y024347D03*
X020154Y024381D03*
X020154Y024447D03*
X020154Y024481D03*
X020154Y024547D03*
X020154Y024581D03*
X020154Y024647D03*
X020154Y024681D03*
X020154Y024747D03*
X020154Y024781D03*
X020154Y024847D03*
X020154Y024881D03*
X020154Y024947D03*
D229*
X014388Y024381D03*
D230*
X014388Y024447D03*
D231*
X014388Y024614D03*
D232*
X014388Y024647D03*
D233*
X014388Y024681D03*
X017288Y024781D03*
D234*
X014388Y024714D03*
D235*
X014388Y024781D03*
D236*
X017238Y024847D03*
D237*
X007384Y015089D02*
X007264Y015089D01*
X007354Y015179D01*
X007354Y014999D01*
X007384Y014929D02*
X007264Y014809D01*
X007294Y014839D02*
X007384Y014749D01*
X007264Y014749D02*
X007264Y014929D01*
X007200Y014929D02*
X007200Y014899D01*
X007079Y014779D01*
X007079Y014749D01*
X006985Y014749D02*
X006985Y014929D01*
X006895Y014839D01*
X007015Y014839D01*
X007079Y014929D02*
X007200Y014929D01*
X007200Y014999D02*
X007140Y015059D01*
X007170Y015059D02*
X007079Y015059D01*
X007079Y014999D02*
X007079Y015179D01*
X007170Y015179D01*
X007200Y015149D01*
X007200Y015089D01*
X007170Y015059D01*
X007169Y013054D02*
X007229Y013054D01*
X007259Y013024D01*
X007139Y012904D01*
X007169Y012874D01*
X007229Y012874D01*
X007259Y012904D01*
X007259Y013024D01*
X007169Y013054D02*
X007139Y013024D01*
X007139Y012904D01*
X007075Y012874D02*
X006954Y012874D01*
X007015Y012874D02*
X007015Y013054D01*
X006954Y012994D01*
X006890Y013024D02*
X006860Y013054D01*
X006800Y013054D01*
X006770Y013024D01*
X006770Y012904D01*
X006800Y012874D01*
X006860Y012874D01*
X006890Y012904D01*
X006830Y012679D02*
X006830Y012499D01*
X006770Y012499D02*
X006890Y012499D01*
X006954Y012439D02*
X006984Y012469D01*
X006984Y012529D01*
X007014Y012499D01*
X007044Y012499D01*
X007074Y012529D01*
X007074Y012589D01*
X007139Y012589D02*
X007199Y012589D01*
X007139Y012679D02*
X007259Y012679D01*
X007139Y012679D02*
X007139Y012499D01*
X006984Y012529D02*
X006984Y012589D01*
X006830Y012679D02*
X006770Y012619D01*
X006708Y012529D02*
X006708Y012499D01*
X006678Y012499D01*
X006678Y012529D01*
X006708Y012529D01*
X006614Y012529D02*
X006584Y012499D01*
X006524Y012499D01*
X006494Y012529D01*
X006614Y012649D01*
X006614Y012529D01*
X006494Y012529D02*
X006494Y012649D01*
X006524Y012679D01*
X006584Y012679D01*
X006614Y012649D01*
X007948Y012004D02*
X007948Y011824D01*
X007948Y011884D02*
X008038Y011884D01*
X008068Y011914D01*
X008068Y011974D01*
X008038Y012004D01*
X007948Y012004D01*
X008008Y011884D02*
X008068Y011824D01*
X008132Y011854D02*
X008162Y011824D01*
X008222Y011824D01*
X008252Y011854D01*
X008252Y011884D01*
X008222Y011914D01*
X008192Y011914D01*
X008222Y011914D02*
X008252Y011944D01*
X008252Y011974D01*
X008222Y012004D01*
X008162Y012004D01*
X008132Y011974D01*
X008162Y011754D02*
X008222Y011754D01*
X008252Y011724D01*
X008132Y011604D01*
X008162Y011574D01*
X008222Y011574D01*
X008252Y011604D01*
X008252Y011724D01*
X008316Y011724D02*
X008316Y011604D01*
X008436Y011724D01*
X008436Y011604D01*
X008406Y011574D01*
X008346Y011574D01*
X008316Y011604D01*
X008316Y011724D02*
X008346Y011754D01*
X008406Y011754D01*
X008436Y011724D01*
X008162Y011754D02*
X008132Y011724D01*
X008132Y011604D01*
X008068Y011604D02*
X008038Y011574D01*
X007978Y011574D01*
X007948Y011604D01*
X008008Y011664D02*
X008038Y011664D01*
X008068Y011634D01*
X008068Y011604D01*
X008038Y011664D02*
X008068Y011694D01*
X008068Y011724D01*
X008038Y011754D01*
X007978Y011754D01*
X007948Y011724D01*
X007948Y010629D02*
X007948Y010449D01*
X008068Y010449D01*
X008132Y010449D02*
X008252Y010449D01*
X008316Y010449D02*
X008406Y010449D01*
X008436Y010479D01*
X008436Y010599D01*
X008406Y010629D01*
X008316Y010629D01*
X008316Y010449D01*
X008192Y010539D02*
X008132Y010539D01*
X008132Y010629D02*
X008132Y010449D01*
X008132Y010629D02*
X008252Y010629D01*
X008500Y010569D02*
X008560Y010629D01*
X008560Y010449D01*
X008500Y010449D02*
X008620Y010449D01*
X008590Y009629D02*
X008530Y009629D01*
X008500Y009599D01*
X008436Y009599D02*
X008406Y009629D01*
X008316Y009629D01*
X008316Y009449D01*
X008406Y009449D01*
X008436Y009479D01*
X008436Y009599D01*
X008590Y009629D02*
X008620Y009599D01*
X008620Y009569D01*
X008500Y009449D01*
X008620Y009449D01*
X008252Y009449D02*
X008132Y009449D01*
X008132Y009629D01*
X008252Y009629D01*
X008192Y009539D02*
X008132Y009539D01*
X008068Y009449D02*
X007948Y009449D01*
X007948Y009629D01*
X007948Y008629D02*
X007948Y008449D01*
X008068Y008449D01*
X008132Y008449D02*
X008252Y008449D01*
X008316Y008449D02*
X008316Y008629D01*
X008406Y008629D01*
X008436Y008599D01*
X008436Y008479D01*
X008406Y008449D01*
X008316Y008449D01*
X008192Y008539D02*
X008132Y008539D01*
X008132Y008629D02*
X008132Y008449D01*
X008132Y008629D02*
X008252Y008629D01*
X008500Y008599D02*
X008530Y008629D01*
X008590Y008629D01*
X008620Y008599D01*
X008620Y008569D01*
X008590Y008539D01*
X008620Y008509D01*
X008620Y008479D01*
X008590Y008449D01*
X008530Y008449D01*
X008500Y008479D01*
X008560Y008539D02*
X008590Y008539D01*
X017698Y004683D02*
X017698Y004496D01*
X017744Y004449D01*
X017838Y004449D01*
X017885Y004496D01*
X017974Y004449D02*
X018161Y004449D01*
X018067Y004449D02*
X018067Y004729D01*
X017974Y004636D01*
X017885Y004683D02*
X017838Y004729D01*
X017744Y004729D01*
X017698Y004683D01*
X018088Y004889D02*
X020788Y004889D01*
X020788Y005189D02*
X018088Y005189D01*
X017427Y006139D02*
X017459Y006184D01*
X017495Y006226D01*
X017534Y006266D01*
X017575Y006303D01*
X017619Y006337D01*
X017666Y006368D01*
X017714Y006396D01*
X017764Y006420D01*
X017815Y006441D01*
X017868Y006458D01*
X017922Y006472D01*
X017977Y006481D01*
X018032Y006487D01*
X018088Y006489D01*
X020788Y006489D01*
X020788Y006189D02*
X018088Y006189D01*
X017870Y005239D02*
X017904Y005224D01*
X017940Y005211D01*
X017976Y005202D01*
X018013Y005195D01*
X018050Y005190D01*
X018088Y005189D01*
X017870Y006139D02*
X017904Y006154D01*
X017940Y006167D01*
X017976Y006176D01*
X018013Y006183D01*
X018050Y006188D01*
X018088Y006189D01*
X017427Y005239D02*
X017459Y005194D01*
X017495Y005152D01*
X017534Y005112D01*
X017576Y005075D01*
X017619Y005041D01*
X017666Y005010D01*
X017714Y004982D01*
X017764Y004958D01*
X017815Y004937D01*
X017868Y004920D01*
X017922Y004906D01*
X017977Y004897D01*
X018032Y004891D01*
X018088Y004889D01*
X018988Y005689D02*
X019188Y005689D01*
X019688Y005689D02*
X019888Y005689D01*
X019750Y006449D02*
X019750Y006729D01*
X019890Y006729D01*
X019937Y006683D01*
X019937Y006589D01*
X019890Y006542D01*
X019750Y006542D01*
X019661Y006449D02*
X019661Y006729D01*
X019474Y006729D02*
X019661Y006449D01*
X019474Y006449D02*
X019474Y006729D01*
X019385Y006683D02*
X019338Y006729D01*
X019198Y006729D01*
X019198Y006449D01*
X019338Y006449D01*
X019385Y006496D01*
X019385Y006683D01*
X019385Y007449D02*
X019291Y007542D01*
X019338Y007542D02*
X019198Y007542D01*
X019198Y007449D02*
X019198Y007729D01*
X019338Y007729D01*
X019385Y007683D01*
X019385Y007589D01*
X019338Y007542D01*
X019474Y007449D02*
X019661Y007449D01*
X019567Y007449D02*
X019567Y007729D01*
X019474Y007636D01*
X020788Y005189D02*
X020826Y005190D01*
X020863Y005195D01*
X020900Y005202D01*
X020936Y005211D01*
X020972Y005224D01*
X021006Y005239D01*
X021006Y006139D02*
X020972Y006154D01*
X020936Y006167D01*
X020900Y006176D01*
X020863Y006183D01*
X020826Y006188D01*
X020788Y006189D01*
X020788Y006489D02*
X020844Y006487D01*
X020899Y006481D01*
X020954Y006472D01*
X021008Y006458D01*
X021061Y006441D01*
X021112Y006420D01*
X021162Y006396D01*
X021210Y006368D01*
X021257Y006337D01*
X021300Y006303D01*
X021342Y006266D01*
X021381Y006226D01*
X021417Y006184D01*
X021449Y006139D01*
X021449Y005239D02*
X021417Y005194D01*
X021381Y005152D01*
X021342Y005112D01*
X021301Y005075D01*
X021257Y005041D01*
X021210Y005010D01*
X021162Y004982D01*
X021112Y004958D01*
X021061Y004937D01*
X021008Y004920D01*
X020954Y004906D01*
X020899Y004897D01*
X020844Y004891D01*
X020788Y004889D01*
X020785Y003929D02*
X020692Y003929D01*
X020645Y003883D01*
X020645Y003696D01*
X020692Y003649D01*
X020785Y003649D01*
X020832Y003696D01*
X020922Y003649D02*
X021108Y003836D01*
X021108Y003883D01*
X021062Y003929D01*
X020968Y003929D01*
X020922Y003883D01*
X020832Y003883D02*
X020785Y003929D01*
X020922Y003649D02*
X021108Y003649D01*
X022744Y007574D02*
X022838Y007574D01*
X022885Y007621D01*
X022974Y007714D02*
X023161Y007714D01*
X023114Y007574D02*
X023114Y007854D01*
X022974Y007714D01*
X022885Y007808D02*
X022838Y007854D01*
X022744Y007854D01*
X022698Y007808D01*
X022698Y007621D01*
X022744Y007574D01*
X022744Y008449D02*
X022838Y008449D01*
X022885Y008496D01*
X022974Y008496D02*
X023021Y008449D01*
X023114Y008449D01*
X023161Y008496D01*
X023161Y008542D01*
X023114Y008589D01*
X023067Y008589D01*
X023114Y008589D02*
X023161Y008636D01*
X023161Y008683D01*
X023114Y008729D01*
X023021Y008729D01*
X022974Y008683D01*
X022885Y008683D02*
X022838Y008729D01*
X022744Y008729D01*
X022698Y008683D01*
X022698Y008496D01*
X022744Y008449D01*
X022994Y009699D02*
X023088Y009699D01*
X023135Y009746D01*
X023224Y009746D02*
X023271Y009699D01*
X023364Y009699D01*
X023411Y009746D01*
X023411Y009839D01*
X023364Y009886D01*
X023317Y009886D01*
X023224Y009839D01*
X023224Y009979D01*
X023411Y009979D01*
X023135Y009933D02*
X023088Y009979D01*
X022994Y009979D01*
X022948Y009933D01*
X022948Y009746D01*
X022994Y009699D01*
X021478Y009897D02*
X021198Y009897D01*
X021198Y010037D01*
X021244Y010083D01*
X021338Y010083D01*
X021384Y010037D01*
X021384Y009897D01*
X021384Y009990D02*
X021478Y010083D01*
X021478Y010173D02*
X021291Y010360D01*
X021244Y010360D01*
X021198Y010313D01*
X021198Y010220D01*
X021244Y010173D01*
X021478Y010173D02*
X021478Y010360D01*
X020161Y010746D02*
X020114Y010699D01*
X020021Y010699D01*
X019974Y010746D01*
X019974Y010792D01*
X020021Y010839D01*
X020114Y010839D01*
X020161Y010792D01*
X020161Y010746D01*
X020114Y010839D02*
X020161Y010886D01*
X020161Y010933D01*
X020114Y010979D01*
X020021Y010979D01*
X019974Y010933D01*
X019974Y010886D01*
X020021Y010839D01*
X019885Y010746D02*
X019838Y010699D01*
X019744Y010699D01*
X019698Y010746D01*
X019698Y010933D01*
X019744Y010979D01*
X019838Y010979D01*
X019885Y010933D01*
X019838Y011574D02*
X019885Y011621D01*
X019838Y011574D02*
X019744Y011574D01*
X019698Y011621D01*
X019698Y011808D01*
X019744Y011854D01*
X019838Y011854D01*
X019885Y011808D01*
X019974Y011808D02*
X019974Y011761D01*
X020021Y011714D01*
X020161Y011714D01*
X020161Y011621D02*
X020161Y011808D01*
X020114Y011854D01*
X020021Y011854D01*
X019974Y011808D01*
X019974Y011621D02*
X020021Y011574D01*
X020114Y011574D01*
X020161Y011621D01*
X018858Y010554D02*
X018858Y010508D01*
X018672Y010321D01*
X018672Y010274D01*
X018582Y010321D02*
X018535Y010274D01*
X018442Y010274D01*
X018395Y010321D01*
X018395Y010508D01*
X018442Y010554D01*
X018535Y010554D01*
X018582Y010508D01*
X018672Y010554D02*
X018858Y010554D01*
X024698Y009235D02*
X024744Y009141D01*
X024838Y009048D01*
X024838Y009188D01*
X024884Y009235D01*
X024931Y009235D01*
X024978Y009188D01*
X024978Y009095D01*
X024931Y009048D01*
X024838Y009048D01*
X024931Y008958D02*
X024978Y008912D01*
X024978Y008818D01*
X024931Y008772D01*
X024744Y008772D01*
X024698Y008818D01*
X024698Y008912D01*
X024744Y008958D01*
D238*
X022393Y008747D02*
X022393Y008647D01*
X022293Y008747D01*
X022268Y008747D01*
X022243Y008722D01*
X022243Y008672D01*
X022268Y008647D01*
X022393Y008599D02*
X022393Y008499D01*
X022243Y008499D01*
X022159Y008994D02*
X022159Y009144D01*
X022159Y009069D02*
X022058Y009069D01*
X022011Y009069D02*
X022011Y008994D01*
X022058Y008994D02*
X022058Y009144D01*
X021986Y009094D02*
X022011Y009069D01*
X021986Y009094D02*
X021911Y009094D01*
X021911Y008994D01*
X021864Y009019D02*
X021864Y009119D01*
X021839Y009144D01*
X021789Y009144D01*
X021764Y009119D01*
X021764Y009094D01*
X021789Y009069D01*
X021864Y009069D01*
X021864Y009019D02*
X021839Y008994D01*
X021789Y008994D01*
X021764Y009019D01*
X021715Y009019D02*
X021715Y008994D01*
X021690Y008994D01*
X021690Y009019D01*
X021715Y009019D01*
X021643Y009019D02*
X021618Y008994D01*
X021568Y008994D01*
X021543Y009019D01*
X021593Y009069D02*
X021618Y009069D01*
X021643Y009044D01*
X021643Y009019D01*
X021618Y009069D02*
X021643Y009094D01*
X021643Y009119D01*
X021618Y009144D01*
X021568Y009144D01*
X021543Y009119D01*
X021393Y009099D02*
X021393Y008999D01*
X021243Y008999D01*
X021293Y009147D02*
X021243Y009197D01*
X021393Y009197D01*
X021393Y009147D02*
X021393Y009247D01*
X021593Y009744D02*
X021693Y009744D01*
X021740Y009769D02*
X021765Y009744D01*
X021815Y009744D01*
X021840Y009769D01*
X021840Y009794D01*
X021815Y009819D01*
X021790Y009819D01*
X021815Y009819D02*
X021840Y009844D01*
X021840Y009869D01*
X021815Y009894D01*
X021765Y009894D01*
X021740Y009869D01*
X021593Y009894D02*
X021593Y009744D01*
X021568Y008797D02*
X021568Y008697D01*
X021568Y008649D02*
X021643Y008649D01*
X021643Y008697D02*
X021493Y008697D01*
X021543Y008624D02*
X021543Y008549D01*
X021643Y008549D01*
X021543Y008624D02*
X021568Y008649D01*
X021518Y008502D02*
X021618Y008402D01*
X021643Y008402D01*
X021643Y008353D02*
X021643Y008328D01*
X021618Y008328D01*
X021618Y008353D01*
X021643Y008353D01*
X021643Y008281D02*
X021643Y008181D01*
X021543Y008281D01*
X021518Y008281D01*
X021493Y008256D01*
X021493Y008206D01*
X021518Y008181D01*
X021493Y008402D02*
X021493Y008502D01*
X021518Y008502D01*
X021493Y008797D02*
X021643Y008797D01*
X020643Y008828D02*
X020643Y008853D01*
X020618Y008853D01*
X020618Y008828D01*
X020643Y008828D01*
X020618Y008781D02*
X020643Y008756D01*
X020643Y008706D01*
X020618Y008681D01*
X020593Y008681D01*
X020568Y008706D01*
X020568Y008756D01*
X020593Y008781D01*
X020618Y008781D01*
X020568Y008756D02*
X020543Y008781D01*
X020518Y008781D01*
X020493Y008756D01*
X020493Y008706D01*
X020518Y008681D01*
X020543Y008681D01*
X020568Y008706D01*
X020518Y008902D02*
X020493Y008927D01*
X020493Y008977D01*
X020518Y009002D01*
X020543Y009002D01*
X020643Y008902D01*
X020643Y009002D01*
X020643Y009049D02*
X020543Y009049D01*
X020543Y009124D01*
X020568Y009149D01*
X020643Y009149D01*
X020643Y009197D02*
X020493Y009197D01*
X020568Y009197D02*
X020568Y009297D01*
X020493Y009297D02*
X020643Y009297D01*
X018583Y009594D02*
X018583Y009644D01*
X018558Y009669D01*
X018433Y009669D01*
X018483Y009716D02*
X018433Y009766D01*
X018583Y009766D01*
X018583Y009716D02*
X018583Y009816D01*
X018583Y009594D02*
X018558Y009569D01*
X018433Y009569D01*
X018433Y009267D02*
X018408Y009242D01*
X018408Y009167D01*
X018558Y009167D01*
X018558Y009242D01*
X018533Y009267D01*
X018433Y009267D01*
X018408Y009120D02*
X018558Y009120D01*
X018558Y009020D02*
X018408Y009020D01*
X018458Y009070D01*
X018408Y009120D01*
X018433Y008973D02*
X018408Y008948D01*
X018408Y008898D01*
X018433Y008873D01*
X018458Y008873D01*
X018483Y008898D01*
X018483Y008948D01*
X018508Y008973D01*
X018533Y008973D01*
X018558Y008948D01*
X018558Y008898D01*
X018533Y008873D01*
X018558Y008825D02*
X018558Y008725D01*
X018558Y008775D02*
X018408Y008775D01*
X018458Y008725D01*
X018433Y008678D02*
X018533Y008678D01*
X018558Y008653D01*
X018558Y008603D01*
X018533Y008578D01*
X018433Y008678D01*
X018408Y008653D01*
X018408Y008603D01*
X018433Y008578D01*
X018533Y008578D01*
X018558Y008531D02*
X018558Y008431D01*
X018408Y008431D01*
X018408Y008358D02*
X018483Y008283D01*
X018483Y008383D01*
X018558Y008358D02*
X018408Y008358D01*
X018433Y008236D02*
X018408Y008211D01*
X018408Y008161D01*
X018433Y008136D01*
X018408Y008089D02*
X018408Y007989D01*
X018558Y007989D01*
X018558Y007941D02*
X018508Y007891D01*
X018508Y007916D02*
X018508Y007841D01*
X018558Y007841D02*
X018408Y007841D01*
X018408Y007916D01*
X018433Y007941D01*
X018483Y007941D01*
X018508Y007916D01*
X018483Y007989D02*
X018483Y008039D01*
X018558Y008136D02*
X018458Y008236D01*
X018433Y008236D01*
X018558Y008236D02*
X018558Y008136D01*
X018558Y007794D02*
X018408Y007794D01*
X018408Y007694D02*
X018558Y007794D01*
X018558Y007694D02*
X018408Y007694D01*
D239*
X017313Y007564D02*
X017063Y007314D01*
X016563Y007314D01*
X016313Y007564D01*
X016313Y008064D01*
X016563Y008314D01*
X016313Y008564D01*
X016313Y009064D01*
X016563Y009314D01*
X016313Y009564D01*
X016313Y010064D01*
X016563Y010314D01*
X016313Y010564D01*
X016313Y011064D01*
X016563Y011314D01*
X016313Y011564D01*
X016313Y012064D01*
X016563Y012314D01*
X016313Y012564D01*
X016313Y013064D01*
X016563Y013314D01*
X016313Y013564D01*
X016313Y014064D01*
X016563Y014314D01*
X017063Y014314D01*
X017313Y014064D01*
X017313Y013564D01*
X017063Y013314D01*
X017313Y013064D01*
X017313Y012564D01*
X017063Y012314D01*
X017313Y012064D01*
X017313Y011564D01*
X017063Y011314D01*
X017313Y011064D01*
X017313Y010564D01*
X017063Y010314D01*
X017313Y010064D01*
X017313Y009564D01*
X017063Y009314D01*
X017313Y009064D01*
X017313Y008564D01*
X017063Y008314D01*
X017313Y008064D01*
X017313Y007564D01*
X017288Y006639D02*
X021588Y006639D01*
X021605Y006637D01*
X021622Y006633D01*
X021638Y006626D01*
X021652Y006616D01*
X021665Y006603D01*
X021675Y006589D01*
X021682Y006573D01*
X021686Y006556D01*
X021688Y006539D01*
X021688Y006139D01*
X021688Y005239D02*
X021688Y004839D01*
X021686Y004822D01*
X021682Y004805D01*
X021675Y004789D01*
X021665Y004775D01*
X021652Y004762D01*
X021638Y004752D01*
X021622Y004745D01*
X021605Y004741D01*
X021588Y004739D01*
X017288Y004739D01*
X017271Y004741D01*
X017254Y004745D01*
X017238Y004752D01*
X017224Y004762D01*
X017211Y004775D01*
X017201Y004789D01*
X017194Y004805D01*
X017190Y004822D01*
X017188Y004839D01*
X017188Y005239D01*
X017188Y006139D02*
X017188Y006539D01*
X017190Y006556D01*
X017194Y006573D01*
X017201Y006589D01*
X017211Y006603D01*
X017224Y006616D01*
X017238Y006626D01*
X017254Y006633D01*
X017271Y006637D01*
X017288Y006639D01*
X019188Y005939D02*
X019188Y005689D01*
X019188Y005439D01*
X019338Y005439D02*
X019538Y005439D01*
X019538Y005939D01*
X019338Y005939D01*
X019338Y005439D01*
X019688Y005439D02*
X019688Y005689D01*
X019688Y005939D01*
X016063Y004314D02*
X016063Y003814D01*
X015813Y003564D01*
X015313Y003564D01*
X015063Y003814D01*
X014813Y003564D01*
X014313Y003564D01*
X014063Y003814D01*
X013813Y003564D01*
X013313Y003564D01*
X013063Y003814D01*
X012813Y003564D01*
X012313Y003564D01*
X012063Y003814D01*
X011813Y003564D01*
X011313Y003564D01*
X011063Y003814D01*
X010813Y003564D01*
X010313Y003564D01*
X010063Y003814D01*
X009813Y003564D01*
X009313Y003564D01*
X009063Y003814D01*
X008813Y003564D01*
X008313Y003564D01*
X008063Y003814D01*
X008063Y004314D01*
X008313Y004564D01*
X008813Y004564D01*
X009063Y004314D01*
X009313Y004564D01*
X009813Y004564D01*
X010063Y004314D01*
X010313Y004564D01*
X010813Y004564D01*
X011063Y004314D01*
X011313Y004564D01*
X011813Y004564D01*
X012063Y004314D01*
X012313Y004564D01*
X012813Y004564D01*
X013063Y004314D01*
X013313Y004564D01*
X013813Y004564D01*
X014063Y004314D01*
X014313Y004564D01*
X014813Y004564D01*
X015063Y004314D01*
X015313Y004564D01*
X015813Y004564D01*
X016063Y004314D01*
X015313Y013814D02*
X014813Y013814D01*
X014563Y014064D01*
X014313Y013814D01*
X013813Y013814D01*
X013563Y014064D01*
X013313Y013814D01*
X012813Y013814D01*
X012563Y014064D01*
X012313Y013814D01*
X011813Y013814D01*
X011563Y014064D01*
X011313Y013814D01*
X010813Y013814D01*
X010563Y014064D01*
X010313Y013814D01*
X009813Y013814D01*
X009563Y014064D01*
X009313Y013814D01*
X008813Y013814D01*
X008563Y014064D01*
X008563Y015564D01*
X008813Y015814D01*
X009313Y015814D01*
X009563Y015564D01*
X009813Y015814D01*
X010313Y015814D01*
X010563Y015564D01*
X010813Y015814D01*
X011313Y015814D01*
X011563Y015564D01*
X011813Y015814D01*
X012313Y015814D01*
X012563Y015564D01*
X012813Y015814D01*
X013313Y015814D01*
X013563Y015564D01*
X013813Y015814D01*
X014313Y015814D01*
X014563Y015564D01*
X014813Y015814D01*
X015313Y015814D01*
X015563Y015564D01*
X015563Y014064D01*
X015313Y013814D01*
X016688Y014939D02*
X016688Y015439D01*
X016938Y015689D01*
X017438Y015689D01*
X017688Y015439D01*
X017938Y015689D01*
X018438Y015689D01*
X018688Y015439D01*
X018938Y015689D01*
X019438Y015689D01*
X019688Y015439D01*
X019938Y015689D01*
X020438Y015689D01*
X020688Y015439D01*
X020938Y015689D01*
X021438Y015689D01*
X021688Y015439D01*
X021938Y015689D01*
X022438Y015689D01*
X022688Y015439D01*
X022688Y014939D01*
X022438Y014689D01*
X021938Y014689D01*
X021688Y014939D01*
X021438Y014689D01*
X020938Y014689D01*
X020688Y014939D01*
X020438Y014689D01*
X019938Y014689D01*
X019688Y014939D01*
X019438Y014689D01*
X018938Y014689D01*
X018688Y014939D01*
X018438Y014689D01*
X017938Y014689D01*
X017688Y014939D01*
X017438Y014689D01*
X016938Y014689D01*
X016688Y014939D01*
D240*
X017153Y014439D02*
X017002Y014289D01*
X017228Y014289D01*
X017303Y014214D01*
X017303Y014139D01*
X017228Y014064D01*
X017077Y014064D01*
X017002Y014139D01*
X017002Y014289D01*
X017153Y014439D02*
X017303Y014514D01*
X017487Y014029D02*
X017938Y014029D01*
X017938Y013879D02*
X017938Y014179D01*
X017638Y013879D02*
X017487Y014029D01*
X017487Y013719D02*
X017788Y013719D01*
X017938Y013568D01*
X017788Y013418D01*
X017487Y013418D01*
X017562Y013258D02*
X017487Y013183D01*
X017487Y013033D01*
X017562Y012958D01*
X017638Y012958D01*
X017713Y013033D01*
X017713Y013183D01*
X017788Y013258D01*
X017863Y013258D01*
X017938Y013183D01*
X017938Y013033D01*
X017863Y012958D01*
X016138Y013629D02*
X016138Y013929D01*
X016138Y013779D02*
X015687Y013779D01*
X015838Y013629D01*
X015428Y013564D02*
X015428Y013489D01*
X015127Y013189D01*
X015428Y013189D01*
X015428Y013564D02*
X015353Y013639D01*
X015202Y013639D01*
X015127Y013564D01*
X014967Y013639D02*
X014967Y013339D01*
X014817Y013189D01*
X014667Y013339D01*
X014667Y013639D01*
X014507Y013564D02*
X014432Y013639D01*
X014282Y013639D01*
X014207Y013564D01*
X014207Y013489D01*
X014282Y013414D01*
X014432Y013414D01*
X014507Y013339D01*
X014507Y013264D01*
X014432Y013189D01*
X014282Y013189D01*
X014207Y013264D01*
X013656Y011908D02*
X009719Y011908D01*
X009719Y007971D01*
X013656Y007971D01*
X013656Y011908D01*
X015687Y011679D02*
X015687Y011379D01*
X016138Y011379D01*
X016138Y011679D01*
X015913Y011529D02*
X015913Y011379D01*
X016063Y011219D02*
X016138Y011143D01*
X016138Y010993D01*
X016063Y010918D01*
X015762Y010918D01*
X015687Y010993D01*
X015687Y011143D01*
X015762Y011219D01*
X015687Y010761D02*
X015687Y010611D01*
X015687Y010686D02*
X016138Y010686D01*
X016138Y010611D02*
X016138Y010761D01*
X017487Y007829D02*
X017562Y007829D01*
X017863Y007529D01*
X017938Y007529D01*
X017823Y007214D02*
X017823Y006764D01*
X017673Y006764D02*
X017973Y006764D01*
X017673Y007064D02*
X017823Y007214D01*
X017513Y007139D02*
X017513Y006839D01*
X017438Y006764D01*
X017288Y006764D01*
X017213Y006839D01*
X017213Y007139D01*
X017288Y007214D01*
X017438Y007214D01*
X017513Y007139D01*
X017363Y006914D02*
X017513Y006764D01*
X017487Y007529D02*
X017487Y007829D01*
X015563Y005189D02*
X015638Y005114D01*
X015638Y005039D01*
X015563Y004964D01*
X015413Y004964D01*
X015338Y005039D01*
X015338Y005114D01*
X015413Y005189D01*
X015563Y005189D01*
X015563Y004964D02*
X015638Y004889D01*
X015638Y004814D01*
X015563Y004739D01*
X015413Y004739D01*
X015338Y004814D01*
X015338Y004889D01*
X015413Y004964D01*
X013116Y003314D02*
X013116Y003014D01*
X013041Y002939D01*
X012890Y002939D01*
X012815Y003014D01*
X012815Y003314D01*
X012890Y003389D01*
X013041Y003389D01*
X013116Y003314D01*
X012659Y003389D02*
X012509Y003389D01*
X012584Y003389D02*
X012584Y002939D01*
X012509Y002939D02*
X012659Y002939D01*
X012348Y003164D02*
X012273Y003089D01*
X012048Y003089D01*
X012048Y002939D02*
X012048Y003389D01*
X012273Y003389D01*
X012348Y003314D01*
X012348Y003164D01*
X011888Y003164D02*
X011888Y003014D01*
X011813Y002939D01*
X011663Y002939D01*
X011588Y003014D01*
X011588Y003314D01*
X011663Y003389D01*
X011813Y003389D01*
X011888Y003314D01*
X011888Y003164D02*
X011738Y003164D01*
X009309Y004814D02*
X009234Y004739D01*
X009084Y004739D01*
X009009Y004814D01*
X008848Y004889D02*
X008848Y005189D01*
X009009Y005114D02*
X009084Y005189D01*
X009234Y005189D01*
X009309Y005114D01*
X009309Y005039D01*
X009234Y004964D01*
X009309Y004889D01*
X009309Y004814D01*
X009234Y004964D02*
X009159Y004964D01*
X008848Y004889D02*
X008698Y004739D01*
X008548Y004889D01*
X008548Y005189D01*
X008388Y005114D02*
X008313Y005189D01*
X008163Y005189D01*
X008088Y005114D01*
X008088Y005039D01*
X008163Y004964D01*
X008313Y004964D01*
X008388Y004889D01*
X008388Y004814D01*
X008313Y004739D01*
X008163Y004739D01*
X008088Y004814D01*
X008538Y003389D02*
X008538Y002939D01*
X008388Y002939D02*
X008688Y002939D01*
X008388Y003239D02*
X008538Y003389D01*
X010546Y010564D02*
X010696Y010564D01*
X010771Y010639D01*
X010771Y011015D01*
X010931Y010940D02*
X011006Y011015D01*
X011156Y011015D01*
X011231Y010940D01*
X011231Y010865D01*
X010931Y010564D01*
X011231Y010564D01*
X010546Y010564D02*
X010471Y010639D01*
X010471Y011015D01*
X009857Y011671D02*
X009859Y011692D01*
X009865Y011711D01*
X009874Y011730D01*
X009886Y011746D01*
X009902Y011760D01*
X009919Y011771D01*
X009938Y011779D01*
X009959Y011783D01*
X009979Y011783D01*
X010000Y011779D01*
X010019Y011771D01*
X010036Y011760D01*
X010052Y011746D01*
X010064Y011730D01*
X010073Y011711D01*
X010079Y011692D01*
X010081Y011671D01*
X010079Y011650D01*
X010073Y011631D01*
X010064Y011612D01*
X010052Y011596D01*
X010036Y011582D01*
X010019Y011571D01*
X010000Y011563D01*
X009979Y011559D01*
X009959Y011559D01*
X009938Y011563D01*
X009919Y011571D01*
X009902Y011582D01*
X009886Y011596D01*
X009874Y011612D01*
X009865Y011631D01*
X009859Y011650D01*
X009857Y011671D01*
X009303Y013189D02*
X009303Y013639D01*
X009077Y013414D01*
X009378Y013414D01*
X008917Y013189D02*
X008617Y013189D01*
X008767Y013189D02*
X008767Y013639D01*
X008617Y013489D01*
X011246Y016064D02*
X011321Y015989D01*
X011396Y015989D01*
X011471Y016064D01*
X011471Y016439D01*
X011396Y016439D02*
X011546Y016439D01*
X011707Y016439D02*
X012007Y016439D01*
X011857Y016439D02*
X011857Y015989D01*
X012167Y015989D02*
X012167Y016289D01*
X012317Y016439D01*
X012467Y016289D01*
X012467Y015989D01*
X012627Y016064D02*
X012627Y016364D01*
X012702Y016439D01*
X012852Y016439D01*
X012928Y016364D01*
X012928Y016214D02*
X012777Y016214D01*
X012928Y016214D02*
X012928Y016064D01*
X012852Y015989D01*
X012702Y015989D01*
X012627Y016064D01*
X012467Y016214D02*
X012167Y016214D01*
X014827Y016289D02*
X014978Y016439D01*
X014978Y015989D01*
X015128Y015989D02*
X014827Y015989D01*
X019332Y016089D02*
X019557Y016089D01*
X019632Y016014D01*
X019632Y015939D01*
X019557Y015864D01*
X019332Y015864D01*
X019332Y016314D01*
X019557Y016314D01*
X019632Y016239D01*
X019632Y016164D01*
X019557Y016089D01*
X019792Y016164D02*
X019867Y016089D01*
X020017Y016089D01*
X020092Y016014D01*
X020092Y015939D01*
X020017Y015864D01*
X019867Y015864D01*
X019792Y015939D01*
X019792Y016164D02*
X019792Y016239D01*
X019867Y016314D01*
X020017Y016314D01*
X020092Y016239D01*
X020252Y016314D02*
X020252Y015864D01*
X020553Y015864D01*
X021407Y014514D02*
X021332Y014439D01*
X021332Y014364D01*
X021407Y014289D01*
X021557Y014289D01*
X021632Y014214D01*
X021632Y014139D01*
X021557Y014064D01*
X021407Y014064D01*
X021332Y014139D01*
X021407Y014514D02*
X021557Y014514D01*
X021632Y014439D01*
X021792Y014514D02*
X021792Y014214D01*
X021942Y014064D01*
X022092Y014214D01*
X022092Y014514D01*
X022252Y014289D02*
X022553Y014289D01*
X022478Y014064D02*
X022478Y014514D01*
X022252Y014289D01*
X022303Y015864D02*
X022002Y015864D01*
X022153Y015864D02*
X022153Y016314D01*
X022002Y016164D01*
X020144Y003689D02*
X020144Y003239D01*
X020304Y003239D02*
X020604Y003239D01*
X020604Y003539D02*
X020304Y003239D01*
X020144Y003464D02*
X019844Y003464D01*
X019844Y003239D02*
X019844Y003689D01*
X019684Y003689D02*
X019684Y003239D01*
X019384Y003239D02*
X019384Y003689D01*
X019534Y003539D01*
X019684Y003689D01*
X019223Y003689D02*
X019073Y003614D01*
X018923Y003464D01*
X019148Y003464D01*
X019223Y003389D01*
X019223Y003314D01*
X019148Y003239D01*
X018998Y003239D01*
X018923Y003314D01*
X018923Y003464D01*
X018763Y003239D02*
X018463Y003239D01*
X018613Y003239D02*
X018613Y003689D01*
X018463Y003539D01*
X020304Y003539D02*
X020604Y003539D01*
D241*
X018650Y009530D02*
X018847Y009726D01*
D242*
X007487Y009564D03*
X007487Y010564D03*
X007487Y008564D03*
D243*
X010211Y007756D03*
X010408Y007756D03*
X010605Y007756D03*
X010802Y007756D03*
X010999Y007756D03*
X011196Y007756D03*
X011393Y007756D03*
X011589Y007756D03*
X011786Y007756D03*
X011983Y007756D03*
X012180Y007756D03*
X012377Y007756D03*
X012574Y007756D03*
X012770Y007756D03*
X012967Y007756D03*
X013164Y007756D03*
X013164Y012122D03*
X012967Y012122D03*
X012770Y012122D03*
X012574Y012122D03*
X012377Y012122D03*
X012180Y012122D03*
X011983Y012122D03*
X011786Y012122D03*
X011589Y012122D03*
X011393Y012122D03*
X011196Y012122D03*
X010999Y012122D03*
X010802Y012122D03*
X010605Y012122D03*
X010408Y012122D03*
X010211Y012122D03*
D244*
X009505Y011415D03*
X009505Y011219D03*
X009505Y011022D03*
X009505Y010825D03*
X009505Y010628D03*
X009505Y010431D03*
X009505Y010234D03*
X009505Y010037D03*
X009505Y009841D03*
X009505Y009644D03*
X009505Y009447D03*
X009505Y009250D03*
X009505Y009053D03*
X009505Y008856D03*
X009505Y008660D03*
X009505Y008463D03*
X013871Y008463D03*
X013871Y008660D03*
X013871Y008856D03*
X013871Y009053D03*
X013871Y009250D03*
X013871Y009447D03*
X013871Y009644D03*
X013871Y009841D03*
X013871Y010037D03*
X013871Y010234D03*
X013871Y010431D03*
X013871Y010628D03*
X013871Y010825D03*
X013871Y011022D03*
X013871Y011219D03*
X013871Y011415D03*
M02*
