%
M48
M72
T01C0.0236
T02C0.0360
T03C0.0394
T04C0.0910
%
T01
X2905Y4455
X3580Y4455
X3805Y2555
X5630Y2280
X7605Y5880
X6830Y7580
X7605Y8230
X7605Y8955
X6155Y9305
X5680Y9043
X5293Y7818
X4780Y7468
X4205Y8455
X3843Y8868
X4055Y9405
X3230Y9280
X2780Y8805
X3382Y7018
X2655Y6780
X2030Y12630
T02
X8580Y12730
X8580Y11730
X8580Y10730
X8580Y9730
X8580Y8730
X8580Y7730
X8580Y6730
X8580Y5730
X8580Y4730
X8580Y3730
X8580Y2730
X8580Y1730
X8580Y730
X9580Y730
X9580Y1730
X9580Y2730
X9580Y3730
X9580Y4730
X9580Y5730
X9580Y6730
X9580Y7730
X9580Y8730
X9580Y9730
X9580Y10730
X9580Y11730
X9580Y12730
X6855Y2280
X6855Y1280
T03
X2714Y2349
X4446Y2349
T04
X6165Y4230
X995Y4230
M30
