G75*
G70*
%OFA0B0*%
%FSLAX24Y24*%
%IPPOS*%
%LPD*%
%AMOC8*
5,1,8,0,0,1.08239X$1,22.5*
%
%ADD10C,0.0030*%
%ADD11C,0.0560*%
%ADD12OC8,0.0560*%
%ADD13C,0.0560*%
%ADD14R,0.0740X0.0740*%
%ADD15C,0.0740*%
%ADD16C,0.0500*%
%ADD17C,0.0160*%
%ADD18C,0.0140*%
%ADD19C,0.0240*%
%ADD20C,0.0450*%
D10*
X002212Y003145D02*
X002459Y003392D01*
X002580Y003330D02*
X002642Y003392D01*
X002765Y003392D01*
X002827Y003330D01*
X002827Y003207D01*
X002765Y003145D01*
X002642Y003145D01*
X002580Y003207D01*
X002580Y003330D01*
X002459Y003145D02*
X002212Y003392D01*
X002152Y003745D02*
X002090Y003745D01*
X002090Y003807D01*
X002152Y003807D01*
X002152Y003745D01*
X002273Y003745D02*
X002520Y003745D01*
X002397Y003745D02*
X002397Y004115D01*
X002520Y003992D01*
X002641Y004115D02*
X002641Y003868D01*
X002765Y003745D01*
X002888Y003868D01*
X002888Y004115D01*
X003378Y003745D02*
X003625Y003745D01*
X003746Y003745D02*
X003993Y003745D01*
X003870Y003745D02*
X003870Y004115D01*
X003993Y003992D01*
X004115Y003992D02*
X004177Y003992D01*
X004300Y003868D01*
X004300Y003745D02*
X004300Y003992D01*
X004422Y003930D02*
X004422Y003868D01*
X004668Y003868D01*
X004668Y003807D02*
X004668Y003930D01*
X004607Y003992D01*
X004483Y003992D01*
X004422Y003930D01*
X004483Y003745D02*
X004607Y003745D01*
X004668Y003807D01*
X004790Y003745D02*
X004975Y003745D01*
X005037Y003807D01*
X005037Y003930D01*
X004975Y003992D01*
X004790Y003992D01*
X004975Y003515D02*
X005037Y003454D01*
X005037Y003392D01*
X004790Y003145D01*
X004790Y003268D02*
X004913Y003145D01*
X004975Y003145D01*
X005037Y003207D01*
X005037Y003268D01*
X004913Y003392D01*
X004913Y003454D01*
X004975Y003515D01*
X005158Y003745D02*
X005158Y003930D01*
X005220Y003992D01*
X005405Y003992D01*
X005405Y003745D01*
X005527Y003745D02*
X005712Y003745D01*
X005773Y003807D01*
X005712Y003868D01*
X005527Y003868D01*
X005527Y003930D02*
X005527Y003745D01*
X005527Y003515D02*
X005527Y003145D01*
X005773Y003515D01*
X005773Y003145D01*
X005895Y003207D02*
X005957Y003145D01*
X006080Y003145D01*
X006142Y003207D01*
X006142Y003454D01*
X006080Y003515D01*
X005957Y003515D01*
X005895Y003454D01*
X005895Y003745D02*
X006080Y003745D01*
X006142Y003807D01*
X006142Y003930D01*
X006080Y003992D01*
X005895Y003992D01*
X005895Y004115D02*
X005895Y003745D01*
X005712Y003992D02*
X005588Y003992D01*
X005527Y003930D01*
X006263Y003930D02*
X006263Y003807D01*
X006325Y003745D01*
X006510Y003745D01*
X006510Y003622D02*
X006510Y003992D01*
X006325Y003992D01*
X006263Y003930D01*
X006263Y003515D02*
X006387Y003515D01*
X006325Y003515D02*
X006325Y003207D01*
X006387Y003145D01*
X006448Y003145D01*
X006510Y003207D01*
X006693Y003745D02*
X006631Y003807D01*
X006693Y003868D01*
X006817Y003868D01*
X006878Y003930D01*
X006817Y003992D01*
X006631Y003992D01*
X006693Y003745D02*
X006878Y003745D01*
X007000Y003745D02*
X007185Y003745D01*
X007247Y003807D01*
X007185Y003868D01*
X007000Y003868D01*
X007000Y003930D02*
X007000Y003745D01*
X007000Y003930D02*
X007062Y003992D01*
X007185Y003992D01*
X007368Y004054D02*
X007368Y003930D01*
X007430Y003868D01*
X007615Y003868D01*
X007615Y003745D02*
X007615Y004115D01*
X007430Y004115D01*
X007368Y004054D01*
X007492Y003868D02*
X007368Y003745D01*
X007615Y003515D02*
X007615Y003145D01*
X007430Y003145D01*
X007368Y003207D01*
X007368Y003330D01*
X007430Y003392D01*
X007615Y003392D01*
X007247Y003392D02*
X007247Y003207D01*
X007185Y003145D01*
X007000Y003145D01*
X007000Y003083D02*
X007062Y003022D01*
X007123Y003022D01*
X007000Y003083D02*
X007000Y003392D01*
X004300Y003330D02*
X004300Y003207D01*
X004238Y003145D01*
X004053Y003145D01*
X004053Y003515D01*
X004053Y003392D02*
X004238Y003392D01*
X004300Y003330D01*
X003932Y003330D02*
X003932Y003207D01*
X003870Y003145D01*
X003747Y003145D01*
X003685Y003207D01*
X003685Y003330D01*
X003747Y003392D01*
X003870Y003392D01*
X003932Y003330D01*
X003564Y003330D02*
X003564Y003207D01*
X003502Y003145D01*
X003378Y003145D01*
X003317Y003268D02*
X003564Y003268D01*
X003564Y003330D02*
X003502Y003392D01*
X003378Y003392D01*
X003317Y003330D01*
X003317Y003268D01*
X003195Y003207D02*
X003134Y003145D01*
X002948Y003145D01*
X002948Y003083D02*
X002948Y003392D01*
X003134Y003392D01*
X003195Y003330D01*
X003195Y003207D01*
X003072Y003022D02*
X003010Y003022D01*
X002948Y003083D01*
X003501Y003745D02*
X003501Y004115D01*
X003625Y003992D01*
X001968Y004054D02*
X001968Y003807D01*
X001721Y004054D01*
X001721Y003807D01*
X001782Y003745D01*
X001906Y003745D01*
X001968Y003807D01*
X001968Y004054D02*
X001906Y004115D01*
X001782Y004115D01*
X001721Y004054D01*
D11*
X008580Y000730D03*
D12*
X008580Y001730D03*
X008580Y002730D03*
X008580Y003730D03*
X008580Y004730D03*
X008580Y005730D03*
X008580Y006730D03*
X008580Y007730D03*
X008580Y008730D03*
X008580Y009730D03*
X008580Y010730D03*
X008580Y011730D03*
X008580Y012730D03*
X009580Y012730D03*
X009580Y011730D03*
X009580Y010730D03*
X009580Y009730D03*
X009580Y008730D03*
X009580Y007730D03*
X009580Y006730D03*
X009580Y005730D03*
X009580Y004730D03*
X009580Y003730D03*
X009580Y002730D03*
X009580Y001730D03*
X009580Y000730D03*
D13*
X007085Y000730D02*
X006525Y000730D01*
X006525Y001730D02*
X007085Y001730D01*
D14*
X004930Y004930D03*
D15*
X003930Y004930D03*
X002930Y004930D03*
X001930Y004930D03*
D16*
X002343Y006668D03*
X002955Y006668D03*
X004280Y007943D03*
X004868Y007380D03*
X006105Y006730D03*
X006105Y006105D03*
X007555Y005705D03*
X007555Y007805D03*
X006805Y007955D03*
X007530Y008730D03*
X004980Y010630D03*
X003130Y012230D03*
X000830Y010605D03*
D17*
X000460Y013020D02*
X000460Y000460D01*
X006117Y000460D01*
X006045Y000635D01*
X006045Y000825D01*
X006118Y001002D01*
X006253Y001137D01*
X006430Y001210D01*
X007180Y001210D01*
X007357Y001137D01*
X007444Y001050D01*
X007447Y001050D01*
X007809Y001411D01*
X007899Y001501D01*
X008016Y001550D01*
X008100Y001550D01*
X008100Y001929D01*
X008381Y002210D01*
X008779Y002210D01*
X009060Y001929D01*
X009060Y001550D01*
X009100Y001550D01*
X009100Y001929D01*
X009381Y002210D01*
X009779Y002210D01*
X010042Y001947D01*
X010042Y003513D01*
X009779Y003250D01*
X009381Y003250D01*
X009100Y003531D01*
X009100Y003929D01*
X009381Y004210D01*
X009779Y004210D01*
X010042Y003947D01*
X010042Y004513D01*
X009779Y004250D01*
X009381Y004250D01*
X009100Y004531D01*
X009100Y004929D01*
X009381Y005210D01*
X009779Y005210D01*
X010042Y004947D01*
X010042Y005513D01*
X009779Y005250D01*
X009381Y005250D01*
X009100Y005531D01*
X009100Y005929D01*
X009381Y006210D01*
X009779Y006210D01*
X010042Y005947D01*
X010042Y007513D01*
X009868Y007339D01*
X009851Y007299D01*
X009761Y007209D01*
X009743Y007190D01*
X009771Y007190D01*
X010040Y006921D01*
X010040Y006740D01*
X009590Y006740D01*
X009590Y006720D01*
X010040Y006720D01*
X010040Y006539D01*
X009771Y006270D01*
X009590Y006270D01*
X009590Y006720D01*
X009570Y006720D01*
X009570Y006270D01*
X009389Y006270D01*
X009331Y006328D01*
X009261Y006259D01*
X009051Y006049D01*
X008996Y005993D01*
X009060Y005929D01*
X009060Y005531D01*
X008779Y005250D01*
X008381Y005250D01*
X008100Y005531D01*
X008100Y005797D01*
X008005Y005702D01*
X008005Y005615D01*
X007936Y005450D01*
X007810Y005324D01*
X007645Y005255D01*
X007465Y005255D01*
X007300Y005324D01*
X007174Y005450D01*
X007105Y005615D01*
X007105Y005795D01*
X007118Y005825D01*
X006694Y005403D01*
X006649Y005359D01*
X006648Y005359D01*
X006648Y005358D01*
X006590Y005334D01*
X006531Y005310D01*
X006531Y005310D01*
X006530Y005310D01*
X006467Y005310D01*
X005804Y005310D01*
X005686Y005359D01*
X005235Y005810D01*
X002504Y005810D01*
X002386Y005859D01*
X002161Y006084D01*
X002071Y006174D01*
X002023Y006291D01*
X002023Y006351D01*
X001961Y006413D01*
X001893Y006578D01*
X001893Y006757D01*
X001961Y006922D01*
X002088Y007049D01*
X002253Y007117D01*
X002432Y007117D01*
X002597Y007049D01*
X002649Y006998D01*
X002700Y007049D01*
X002865Y007117D01*
X003045Y007117D01*
X003210Y007049D01*
X003271Y006987D01*
X004639Y006987D01*
X004613Y006999D01*
X004486Y007125D01*
X004418Y007290D01*
X004418Y007470D01*
X004486Y007635D01*
X004613Y007761D01*
X004778Y007830D01*
X004957Y007830D01*
X005122Y007761D01*
X005184Y007700D01*
X005519Y007700D01*
X005636Y007651D01*
X005726Y007561D01*
X006108Y007180D01*
X006195Y007180D01*
X006360Y007111D01*
X006486Y006985D01*
X006555Y006820D01*
X006555Y006640D01*
X006486Y006475D01*
X006429Y006418D01*
X006486Y006360D01*
X006555Y006195D01*
X006555Y006168D01*
X008100Y007704D01*
X008100Y007897D01*
X008005Y007802D01*
X008005Y007715D01*
X007936Y007550D01*
X007810Y007424D01*
X007645Y007355D01*
X007465Y007355D01*
X007300Y007424D01*
X007174Y007550D01*
X007105Y007715D01*
X007105Y007895D01*
X007174Y008060D01*
X007300Y008186D01*
X007465Y008255D01*
X007552Y008255D01*
X007577Y008280D01*
X007440Y008280D01*
X007275Y008349D01*
X007149Y008475D01*
X007080Y008640D01*
X007080Y008820D01*
X007149Y008985D01*
X007275Y009111D01*
X007440Y009180D01*
X007620Y009180D01*
X007785Y009111D01*
X007846Y009050D01*
X008221Y009050D01*
X008381Y009210D01*
X008779Y009210D01*
X009060Y008929D01*
X009060Y008550D01*
X009100Y008550D01*
X009100Y008929D01*
X009381Y009210D01*
X009779Y009210D01*
X010042Y008947D01*
X010042Y010513D01*
X009779Y010250D01*
X009381Y010250D01*
X009100Y010531D01*
X009100Y010910D01*
X009060Y010910D01*
X009060Y010531D01*
X008779Y010250D01*
X008381Y010250D01*
X008221Y010410D01*
X007463Y010410D01*
X007103Y010050D01*
X008221Y010050D01*
X008381Y010210D01*
X008779Y010210D01*
X009060Y009929D01*
X009060Y009531D01*
X008779Y009250D01*
X008381Y009250D01*
X008221Y009410D01*
X007138Y009410D01*
X005861Y008134D01*
X005744Y008085D01*
X004161Y008085D01*
X004121Y008045D01*
X003965Y007980D01*
X003795Y007980D01*
X003639Y008045D01*
X003520Y008164D01*
X003455Y008320D01*
X003455Y008490D01*
X003520Y008646D01*
X003639Y008765D01*
X003795Y008830D01*
X003855Y008830D01*
X003855Y008915D01*
X003884Y008985D01*
X003811Y008985D01*
X003721Y008895D01*
X003565Y008830D01*
X003395Y008830D01*
X003239Y008895D01*
X003120Y009014D01*
X003055Y009170D01*
X003055Y009329D01*
X003046Y009320D01*
X002890Y009255D01*
X002720Y009255D01*
X002564Y009320D01*
X002445Y009439D01*
X002380Y009595D01*
X002380Y009765D01*
X002445Y009921D01*
X002564Y010040D01*
X002720Y010105D01*
X002890Y010105D01*
X003046Y010040D01*
X003061Y010025D01*
X005022Y010025D01*
X006999Y012001D01*
X007116Y012050D01*
X008221Y012050D01*
X008381Y012210D01*
X008779Y012210D01*
X009060Y011929D01*
X009060Y011663D01*
X009100Y011703D01*
X009100Y011929D01*
X009381Y012210D01*
X009779Y012210D01*
X010042Y011947D01*
X010042Y012513D01*
X009779Y012250D01*
X009381Y012250D01*
X009100Y012531D01*
X009100Y012929D01*
X009191Y013020D01*
X008940Y013020D01*
X009040Y012921D01*
X009040Y012740D01*
X008590Y012740D01*
X008590Y012720D01*
X009040Y012720D01*
X009040Y012539D01*
X008771Y012270D01*
X008590Y012270D01*
X008590Y012720D01*
X008570Y012720D01*
X008570Y012270D01*
X008389Y012270D01*
X008120Y012539D01*
X008120Y012720D01*
X008570Y012720D01*
X008570Y012740D01*
X008120Y012740D01*
X008120Y012921D01*
X008220Y013020D01*
X000460Y013020D01*
X000460Y013019D02*
X008218Y013019D01*
X008120Y012860D02*
X000460Y012860D01*
X000460Y012702D02*
X008120Y012702D01*
X008120Y012543D02*
X000460Y012543D01*
X000460Y012385D02*
X008275Y012385D01*
X008570Y012385D02*
X008590Y012385D01*
X008590Y012543D02*
X008570Y012543D01*
X008570Y012702D02*
X008590Y012702D01*
X008885Y012385D02*
X009247Y012385D01*
X009100Y012543D02*
X009040Y012543D01*
X009040Y012702D02*
X009100Y012702D01*
X009100Y012860D02*
X009040Y012860D01*
X008942Y013019D02*
X009190Y013019D01*
X009239Y012068D02*
X008921Y012068D01*
X009060Y011909D02*
X009100Y011909D01*
X009100Y011751D02*
X009060Y011751D01*
X009060Y010800D02*
X009100Y010800D01*
X009100Y010641D02*
X009060Y010641D01*
X009011Y010483D02*
X009149Y010483D01*
X009307Y010324D02*
X008853Y010324D01*
X008823Y010166D02*
X009365Y010166D01*
X009389Y010190D02*
X009120Y009921D01*
X009120Y009740D01*
X009570Y009740D01*
X009570Y010190D01*
X009389Y010190D01*
X009570Y010166D02*
X009590Y010166D01*
X009590Y010190D02*
X009590Y009740D01*
X009570Y009740D01*
X009570Y009720D01*
X009120Y009720D01*
X009120Y009539D01*
X009389Y009270D01*
X009570Y009270D01*
X009570Y009720D01*
X009590Y009720D01*
X009590Y009740D01*
X010040Y009740D01*
X010040Y009921D01*
X009771Y010190D01*
X009590Y010190D01*
X009590Y010007D02*
X009570Y010007D01*
X009570Y009849D02*
X009590Y009849D01*
X009590Y009720D02*
X010040Y009720D01*
X010040Y009539D01*
X009771Y009270D01*
X009590Y009270D01*
X009590Y009720D01*
X009590Y009690D02*
X009570Y009690D01*
X009570Y009532D02*
X009590Y009532D01*
X009590Y009373D02*
X009570Y009373D01*
X009874Y009373D02*
X010042Y009373D01*
X010042Y009215D02*
X006942Y009215D01*
X007101Y009373D02*
X008258Y009373D01*
X008227Y009056D02*
X007840Y009056D01*
X007220Y009056D02*
X006784Y009056D01*
X006625Y008898D02*
X007112Y008898D01*
X007080Y008739D02*
X006467Y008739D01*
X006308Y008581D02*
X007105Y008581D01*
X007202Y008422D02*
X006150Y008422D01*
X005991Y008264D02*
X007561Y008264D01*
X007219Y008105D02*
X005792Y008105D01*
X005658Y007630D02*
X007141Y007630D01*
X007105Y007788D02*
X005058Y007788D01*
X004677Y007788D02*
X001500Y007788D01*
X001500Y007630D02*
X004484Y007630D01*
X004418Y007471D02*
X001500Y007471D01*
X001500Y007313D02*
X004418Y007313D01*
X004474Y007154D02*
X001500Y007154D01*
X001500Y006996D02*
X002034Y006996D01*
X001926Y006837D02*
X001500Y006837D01*
X001500Y006679D02*
X001893Y006679D01*
X001917Y006520D02*
X001500Y006520D01*
X001500Y006362D02*
X002012Y006362D01*
X002059Y006203D02*
X001500Y006203D01*
X001500Y006045D02*
X002200Y006045D01*
X002359Y005886D02*
X001500Y005886D01*
X001500Y005728D02*
X005317Y005728D01*
X005476Y005569D02*
X001500Y005569D01*
X001500Y005411D02*
X001604Y005411D01*
X001607Y005413D02*
X001500Y005306D01*
X001500Y009447D01*
X002363Y010310D01*
X004664Y010310D01*
X004725Y010249D01*
X004890Y010180D01*
X005070Y010180D01*
X005235Y010249D01*
X005361Y010375D01*
X005430Y010540D01*
X005430Y010720D01*
X005361Y010885D01*
X005235Y011011D01*
X005070Y011080D01*
X004890Y011080D01*
X004725Y011011D01*
X004664Y010950D01*
X002166Y010950D01*
X002049Y010901D01*
X000999Y009851D01*
X000909Y009761D01*
X000860Y009644D01*
X000860Y002366D01*
X000909Y002249D01*
X001699Y001459D01*
X001816Y001410D01*
X006166Y001410D01*
X006253Y001323D01*
X006430Y001250D01*
X007180Y001250D01*
X007357Y001323D01*
X007492Y001458D01*
X007565Y001635D01*
X007565Y001825D01*
X007492Y002002D01*
X007357Y002137D01*
X007180Y002210D01*
X006430Y002210D01*
X006253Y002137D01*
X006166Y002050D01*
X004822Y002050D01*
X004850Y002079D01*
X004923Y002254D01*
X004923Y002444D01*
X004850Y002619D01*
X004716Y002753D01*
X004541Y002826D01*
X004351Y002826D01*
X004176Y002753D01*
X004042Y002619D01*
X003969Y002444D01*
X003969Y002254D01*
X004042Y002079D01*
X004070Y002050D01*
X003090Y002050D01*
X003118Y002079D01*
X003191Y002254D01*
X003191Y002444D01*
X003118Y002619D01*
X002984Y002753D01*
X002809Y002826D01*
X002619Y002826D01*
X002444Y002753D01*
X002310Y002619D01*
X002237Y002444D01*
X002237Y002254D01*
X002310Y002079D01*
X002338Y002050D01*
X002013Y002050D01*
X001500Y002563D01*
X001500Y004554D01*
X001607Y004447D01*
X001817Y004360D01*
X002043Y004360D01*
X002253Y004447D01*
X002413Y004607D01*
X002430Y004648D01*
X002447Y004607D01*
X002607Y004447D01*
X002817Y004360D01*
X003043Y004360D01*
X003253Y004447D01*
X003413Y004607D01*
X003430Y004648D01*
X003447Y004607D01*
X003607Y004447D01*
X003817Y004360D01*
X004043Y004360D01*
X004253Y004447D01*
X004380Y004574D01*
X004380Y004536D01*
X004392Y004491D01*
X004416Y004449D01*
X004449Y004416D01*
X004491Y004392D01*
X004536Y004380D01*
X004910Y004380D01*
X004910Y004910D01*
X004950Y004910D01*
X004950Y004950D01*
X004910Y004950D01*
X004910Y005480D01*
X004536Y005480D01*
X004491Y005468D01*
X004449Y005444D01*
X004416Y005411D01*
X004392Y005369D01*
X004380Y005324D01*
X004380Y005286D01*
X004253Y005413D01*
X004043Y005500D01*
X003817Y005500D01*
X003607Y005413D01*
X003447Y005253D01*
X003430Y005212D01*
X003413Y005253D01*
X003253Y005413D01*
X003043Y005500D01*
X002817Y005500D01*
X002607Y005413D01*
X002447Y005253D01*
X002430Y005212D01*
X002413Y005253D01*
X002253Y005413D01*
X002043Y005500D01*
X001817Y005500D01*
X001607Y005413D01*
X002256Y005411D02*
X002604Y005411D01*
X002446Y005252D02*
X002414Y005252D01*
X002418Y004618D02*
X002442Y004618D01*
X002594Y004460D02*
X002266Y004460D01*
X002307Y004330D02*
X002182Y004204D01*
X002182Y004144D01*
X002121Y004204D01*
X002121Y004204D01*
X002121Y004204D01*
X002056Y004269D01*
X001995Y004330D01*
X001995Y004330D01*
X001995Y004330D01*
X001905Y004330D01*
X001817Y004330D01*
X001693Y004330D01*
X001632Y004269D01*
X001632Y004269D01*
X001506Y004143D01*
X001506Y003896D01*
X001506Y003896D01*
X001506Y003806D01*
X001506Y003718D01*
X001569Y003654D01*
X001632Y003592D01*
X001693Y003530D01*
X001693Y003530D01*
X001693Y003530D01*
X001781Y003530D01*
X001995Y003530D01*
X001998Y003533D01*
X002001Y003530D01*
X002046Y003530D01*
X001997Y003481D01*
X001997Y003303D01*
X002031Y003268D01*
X001997Y003234D01*
X001997Y003056D01*
X002123Y002930D01*
X002301Y002930D01*
X002335Y002964D01*
X002370Y002930D01*
X002548Y002930D01*
X002550Y002933D01*
X002553Y002930D01*
X002643Y002930D01*
X002798Y002930D01*
X002859Y002868D01*
X002921Y002807D01*
X003161Y002807D01*
X003287Y002933D01*
X003289Y002930D01*
X003591Y002930D01*
X003624Y002963D01*
X003658Y002930D01*
X003748Y002930D01*
X003959Y002930D01*
X003962Y002933D01*
X003964Y002930D01*
X004328Y002930D01*
X004389Y002992D01*
X004515Y003118D01*
X004515Y003329D01*
X004515Y003419D01*
X004515Y003419D01*
X004515Y003419D01*
X004454Y003481D01*
X004453Y003481D01*
X004404Y003530D01*
X004696Y003530D01*
X004698Y003533D01*
X004698Y003533D01*
X004698Y003481D01*
X004575Y003357D01*
X004575Y003056D01*
X004701Y002930D01*
X005064Y002930D01*
X005126Y002992D01*
X005252Y003118D01*
X005252Y003455D01*
X005252Y003535D01*
X005282Y003564D01*
X005312Y003535D01*
X005312Y003210D01*
X005298Y003190D01*
X005312Y003124D01*
X005312Y003056D01*
X005328Y003039D01*
X005333Y003016D01*
X005390Y002978D01*
X005437Y002930D01*
X005461Y002930D01*
X005481Y002917D01*
X005548Y002930D01*
X005616Y002930D01*
X005633Y002947D01*
X005656Y002952D01*
X005659Y002956D01*
X005684Y002930D01*
X005862Y002930D01*
X005865Y002933D01*
X005868Y002930D01*
X005958Y002930D01*
X006169Y002930D01*
X006233Y002994D01*
X006236Y002992D01*
X006298Y002930D01*
X006537Y002930D01*
X006663Y003056D01*
X006725Y003118D01*
X006725Y003296D01*
X006607Y003414D01*
X006723Y003530D01*
X006834Y003530D01*
X006785Y003481D01*
X006785Y002994D01*
X006847Y002933D01*
X006972Y002807D01*
X007212Y002807D01*
X007338Y002933D01*
X007341Y002930D01*
X007431Y002930D01*
X007704Y002930D01*
X007830Y003056D01*
X007830Y003604D01*
X007804Y003630D01*
X007830Y003656D01*
X007830Y004204D01*
X007704Y004330D01*
X007341Y004330D01*
X007279Y004269D01*
X007217Y004207D01*
X006972Y004207D01*
X006939Y004173D01*
X006906Y004207D01*
X006906Y004207D01*
X006816Y004207D01*
X006728Y004207D01*
X006728Y004207D01*
X006236Y004207D01*
X006202Y004173D01*
X006169Y004207D01*
X006107Y004207D01*
X005984Y004330D01*
X005806Y004330D01*
X005682Y004207D01*
X005499Y004207D01*
X005497Y004204D01*
X005494Y004207D01*
X005131Y004207D01*
X005098Y004173D01*
X005064Y004207D01*
X004976Y004207D01*
X004886Y004207D01*
X004701Y004207D01*
X004698Y004204D01*
X004696Y004207D01*
X004696Y004207D01*
X004606Y004207D01*
X004518Y004207D01*
X004518Y004207D01*
X004394Y004207D01*
X004392Y004204D01*
X004389Y004207D01*
X004082Y004207D01*
X003959Y004330D01*
X003781Y004330D01*
X003686Y004235D01*
X003591Y004330D01*
X003412Y004330D01*
X003286Y004204D01*
X003286Y003957D01*
X003163Y003834D01*
X003163Y003656D01*
X003212Y003607D01*
X003134Y003607D01*
X003044Y003607D01*
X002931Y003607D01*
X002980Y003656D01*
X003103Y003779D01*
X003103Y004204D01*
X002977Y004330D01*
X002799Y004330D01*
X002765Y004296D01*
X002730Y004330D01*
X002552Y004330D01*
X002519Y004297D01*
X002486Y004330D01*
X002307Y004330D01*
X002278Y004301D02*
X002024Y004301D01*
X001817Y004330D02*
X001817Y004330D01*
X001664Y004301D02*
X001500Y004301D01*
X001500Y004143D02*
X001506Y004143D01*
X001500Y003984D02*
X001506Y003984D01*
X001500Y003826D02*
X001506Y003826D01*
X001506Y003718D02*
X001506Y003718D01*
X001506Y003718D01*
X001500Y003667D02*
X001556Y003667D01*
X001632Y003592D02*
X001632Y003592D01*
X001500Y003509D02*
X002024Y003509D01*
X001997Y003350D02*
X001500Y003350D01*
X001500Y003192D02*
X001997Y003192D01*
X002020Y003033D02*
X001500Y003033D01*
X001500Y002875D02*
X002853Y002875D01*
X003021Y002716D02*
X004139Y002716D01*
X004016Y002558D02*
X003144Y002558D01*
X003191Y002399D02*
X003969Y002399D01*
X003975Y002241D02*
X003185Y002241D01*
X003120Y002082D02*
X004040Y002082D01*
X003658Y002930D02*
X003658Y002930D01*
X003658Y002930D01*
X003287Y002933D02*
X003287Y002933D01*
X003229Y002875D02*
X006905Y002875D01*
X006785Y003033D02*
X006640Y003033D01*
X006725Y003192D02*
X006785Y003192D01*
X006785Y003350D02*
X006671Y003350D01*
X006701Y003509D02*
X006812Y003509D01*
X006906Y004207D02*
X006906Y004207D01*
X007311Y004301D02*
X006013Y004301D01*
X006169Y004207D02*
X006169Y004207D01*
X006169Y004207D01*
X005776Y004301D02*
X003988Y004301D01*
X003751Y004301D02*
X003620Y004301D01*
X003594Y004460D02*
X003266Y004460D01*
X003418Y004618D02*
X003442Y004618D01*
X003383Y004301D02*
X003007Y004301D01*
X003103Y004143D02*
X003286Y004143D01*
X003286Y003984D02*
X003103Y003984D01*
X003103Y003826D02*
X003163Y003826D01*
X003163Y003667D02*
X002991Y003667D01*
X003044Y003607D02*
X003044Y003607D01*
X002770Y004301D02*
X002760Y004301D01*
X002523Y004301D02*
X002515Y004301D01*
X001594Y004460D02*
X001500Y004460D01*
X000860Y004460D02*
X000460Y004460D01*
X000460Y004618D02*
X000860Y004618D01*
X000860Y004777D02*
X000460Y004777D01*
X000460Y004935D02*
X000860Y004935D01*
X000860Y005094D02*
X000460Y005094D01*
X000460Y005252D02*
X000860Y005252D01*
X000860Y005411D02*
X000460Y005411D01*
X000460Y005569D02*
X000860Y005569D01*
X000860Y005728D02*
X000460Y005728D01*
X000460Y005886D02*
X000860Y005886D01*
X000860Y006045D02*
X000460Y006045D01*
X000460Y006203D02*
X000860Y006203D01*
X000860Y006362D02*
X000460Y006362D01*
X000460Y006520D02*
X000860Y006520D01*
X000860Y006679D02*
X000460Y006679D01*
X000460Y006837D02*
X000860Y006837D01*
X000860Y006996D02*
X000460Y006996D01*
X000460Y007154D02*
X000860Y007154D01*
X000860Y007313D02*
X000460Y007313D01*
X000460Y007471D02*
X000860Y007471D01*
X000860Y007630D02*
X000460Y007630D01*
X000460Y007788D02*
X000860Y007788D01*
X000860Y007947D02*
X000460Y007947D01*
X000460Y008105D02*
X000860Y008105D01*
X000860Y008264D02*
X000460Y008264D01*
X000460Y008422D02*
X000860Y008422D01*
X000860Y008581D02*
X000460Y008581D01*
X000460Y008739D02*
X000860Y008739D01*
X000860Y008898D02*
X000460Y008898D01*
X000460Y009056D02*
X000860Y009056D01*
X000860Y009215D02*
X000460Y009215D01*
X000460Y009373D02*
X000860Y009373D01*
X000860Y009532D02*
X000460Y009532D01*
X000460Y009690D02*
X000879Y009690D01*
X000996Y009849D02*
X000460Y009849D01*
X000460Y010007D02*
X001154Y010007D01*
X001313Y010166D02*
X000460Y010166D01*
X000460Y010324D02*
X001471Y010324D01*
X001630Y010483D02*
X000460Y010483D01*
X000460Y010641D02*
X001788Y010641D01*
X001947Y010800D02*
X000460Y010800D01*
X000460Y010958D02*
X004672Y010958D01*
X005288Y010958D02*
X005955Y010958D01*
X005797Y010800D02*
X005397Y010800D01*
X005430Y010641D02*
X005638Y010641D01*
X005480Y010483D02*
X005406Y010483D01*
X005321Y010324D02*
X005310Y010324D01*
X005163Y010166D02*
X002218Y010166D01*
X002060Y010007D02*
X002531Y010007D01*
X002415Y009849D02*
X001901Y009849D01*
X001743Y009690D02*
X002380Y009690D01*
X002406Y009532D02*
X001584Y009532D01*
X001500Y009373D02*
X002511Y009373D01*
X003055Y009215D02*
X001500Y009215D01*
X001500Y009056D02*
X003102Y009056D01*
X003236Y008898D02*
X001500Y008898D01*
X001500Y008739D02*
X003613Y008739D01*
X003493Y008581D02*
X001500Y008581D01*
X001500Y008422D02*
X003455Y008422D01*
X003479Y008264D02*
X001500Y008264D01*
X001500Y008105D02*
X003579Y008105D01*
X003724Y008898D02*
X003855Y008898D01*
X003263Y006996D02*
X004620Y006996D01*
X004950Y005480D02*
X004950Y004950D01*
X005480Y004950D01*
X005480Y005324D01*
X005468Y005369D01*
X005444Y005411D01*
X005411Y005444D01*
X005369Y005468D01*
X005324Y005480D01*
X004950Y005480D01*
X004950Y005411D02*
X004910Y005411D01*
X004910Y005252D02*
X004950Y005252D01*
X004950Y005094D02*
X004910Y005094D01*
X004950Y004935D02*
X008134Y004935D01*
X008120Y004921D02*
X008120Y004740D01*
X008570Y004740D01*
X008570Y005190D01*
X008389Y005190D01*
X008120Y004921D01*
X008120Y004777D02*
X005480Y004777D01*
X005480Y004910D02*
X005480Y004536D01*
X005468Y004491D01*
X005444Y004449D01*
X005411Y004416D01*
X005369Y004392D01*
X005324Y004380D01*
X004950Y004380D01*
X004950Y004910D01*
X005480Y004910D01*
X005480Y005094D02*
X008293Y005094D01*
X008379Y005252D02*
X005480Y005252D01*
X005444Y005411D02*
X005634Y005411D01*
X005480Y004618D02*
X008120Y004618D01*
X008120Y004539D02*
X008389Y004270D01*
X008570Y004270D01*
X008570Y004720D01*
X008120Y004720D01*
X008120Y004539D01*
X008200Y004460D02*
X005450Y004460D01*
X005064Y004207D02*
X005064Y004207D01*
X005064Y004207D01*
X004886Y004207D02*
X004886Y004207D01*
X004696Y004207D02*
X004696Y004207D01*
X004910Y004460D02*
X004950Y004460D01*
X004950Y004618D02*
X004910Y004618D01*
X004910Y004777D02*
X004950Y004777D01*
X004416Y005411D02*
X004256Y005411D01*
X003604Y005411D02*
X003256Y005411D01*
X003414Y005252D02*
X003446Y005252D01*
X004266Y004460D02*
X004410Y004460D01*
X004426Y003509D02*
X004698Y003509D01*
X004575Y003350D02*
X004515Y003350D01*
X004453Y003481D02*
X004453Y003481D01*
X004515Y003192D02*
X004575Y003192D01*
X004598Y003033D02*
X004431Y003033D01*
X004753Y002716D02*
X008100Y002716D01*
X008100Y002558D02*
X004876Y002558D01*
X004923Y002399D02*
X008232Y002399D01*
X008100Y002531D02*
X008381Y002250D01*
X008779Y002250D01*
X009060Y002531D01*
X009060Y002929D01*
X008779Y003210D01*
X008381Y003210D01*
X008100Y002929D01*
X008100Y002531D01*
X008100Y002875D02*
X007280Y002875D01*
X007338Y002933D02*
X007338Y002933D01*
X007341Y002930D02*
X007341Y002930D01*
X007341Y002930D01*
X007807Y003033D02*
X008204Y003033D01*
X008363Y003192D02*
X007830Y003192D01*
X007830Y003350D02*
X008281Y003350D01*
X008381Y003250D02*
X008779Y003250D01*
X009060Y003531D01*
X009060Y003929D01*
X008779Y004210D01*
X008381Y004210D01*
X008100Y003929D01*
X008100Y003531D01*
X008381Y003250D01*
X008123Y003509D02*
X007830Y003509D01*
X007830Y003667D02*
X008100Y003667D01*
X008100Y003826D02*
X007830Y003826D01*
X007830Y003984D02*
X008155Y003984D01*
X008314Y004143D02*
X007830Y004143D01*
X007733Y004301D02*
X008358Y004301D01*
X008570Y004301D02*
X008590Y004301D01*
X008590Y004270D02*
X008771Y004270D01*
X009040Y004539D01*
X009040Y004720D01*
X008590Y004720D01*
X008590Y004740D01*
X008570Y004740D01*
X008570Y004720D01*
X008590Y004720D01*
X008590Y004270D01*
X008590Y004460D02*
X008570Y004460D01*
X008570Y004618D02*
X008590Y004618D01*
X008590Y004740D02*
X009040Y004740D01*
X009040Y004921D01*
X008771Y005190D01*
X008590Y005190D01*
X008590Y004740D01*
X008590Y004777D02*
X008570Y004777D01*
X008570Y004935D02*
X008590Y004935D01*
X008590Y005094D02*
X008570Y005094D01*
X008781Y005252D02*
X009379Y005252D01*
X009265Y005094D02*
X008867Y005094D01*
X009026Y004935D02*
X009106Y004935D01*
X009100Y004777D02*
X009040Y004777D01*
X009040Y004618D02*
X009100Y004618D01*
X009172Y004460D02*
X008960Y004460D01*
X008802Y004301D02*
X009330Y004301D01*
X009314Y004143D02*
X008846Y004143D01*
X009005Y003984D02*
X009155Y003984D01*
X009100Y003826D02*
X009060Y003826D01*
X009060Y003667D02*
X009100Y003667D01*
X009123Y003509D02*
X009037Y003509D01*
X008879Y003350D02*
X009281Y003350D01*
X009389Y003190D02*
X009120Y002921D01*
X009120Y002740D01*
X009570Y002740D01*
X009570Y003190D01*
X009389Y003190D01*
X009590Y003190D02*
X009590Y002740D01*
X009570Y002740D01*
X009570Y002720D01*
X009120Y002720D01*
X009120Y002539D01*
X009389Y002270D01*
X009570Y002270D01*
X009570Y002720D01*
X009590Y002720D01*
X009590Y002740D01*
X010040Y002740D01*
X010040Y002921D01*
X009771Y003190D01*
X009590Y003190D01*
X009590Y003033D02*
X009570Y003033D01*
X009570Y002875D02*
X009590Y002875D01*
X009590Y002720D02*
X010040Y002720D01*
X010040Y002539D01*
X009771Y002270D01*
X009590Y002270D01*
X009590Y002720D01*
X009590Y002716D02*
X009570Y002716D01*
X009570Y002558D02*
X009590Y002558D01*
X009590Y002399D02*
X009570Y002399D01*
X009260Y002399D02*
X008928Y002399D01*
X009060Y002558D02*
X009120Y002558D01*
X009120Y002716D02*
X009060Y002716D01*
X009060Y002875D02*
X009120Y002875D01*
X009232Y003033D02*
X008956Y003033D01*
X008797Y003192D02*
X010042Y003192D01*
X010042Y003350D02*
X009879Y003350D01*
X010037Y003509D02*
X010042Y003509D01*
X010042Y003984D02*
X010005Y003984D01*
X010042Y004143D02*
X009846Y004143D01*
X009830Y004301D02*
X010042Y004301D01*
X010042Y004460D02*
X009988Y004460D01*
X010042Y005094D02*
X009895Y005094D01*
X009781Y005252D02*
X010042Y005252D01*
X010042Y005411D02*
X009939Y005411D01*
X009944Y006045D02*
X010042Y006045D01*
X010042Y006203D02*
X009786Y006203D01*
X009862Y006362D02*
X010042Y006362D01*
X010042Y006520D02*
X010021Y006520D01*
X010040Y006679D02*
X010042Y006679D01*
X010040Y006837D02*
X010042Y006837D01*
X010042Y006996D02*
X009965Y006996D01*
X010042Y007154D02*
X009807Y007154D01*
X009857Y007313D02*
X010042Y007313D01*
X010042Y007471D02*
X010000Y007471D01*
X009590Y006679D02*
X009570Y006679D01*
X009570Y006520D02*
X009590Y006520D01*
X009590Y006362D02*
X009570Y006362D01*
X009374Y006203D02*
X009206Y006203D01*
X009216Y006045D02*
X009047Y006045D01*
X009060Y005886D02*
X009100Y005886D01*
X009100Y005728D02*
X009060Y005728D01*
X009060Y005569D02*
X009100Y005569D01*
X009221Y005411D02*
X008939Y005411D01*
X008221Y005411D02*
X007897Y005411D01*
X007986Y005569D02*
X008100Y005569D01*
X008100Y005728D02*
X008030Y005728D01*
X007213Y005411D02*
X006701Y005411D01*
X006860Y005569D02*
X007124Y005569D01*
X007105Y005728D02*
X007019Y005728D01*
X006590Y006203D02*
X006551Y006203D01*
X006485Y006362D02*
X006749Y006362D01*
X006909Y006520D02*
X006505Y006520D01*
X006555Y006679D02*
X007068Y006679D01*
X007228Y006837D02*
X006548Y006837D01*
X006476Y006996D02*
X007387Y006996D01*
X007547Y007154D02*
X006257Y007154D01*
X005975Y007313D02*
X007706Y007313D01*
X007857Y007471D02*
X007866Y007471D01*
X007969Y007630D02*
X008025Y007630D01*
X008005Y007788D02*
X008100Y007788D01*
X007253Y007471D02*
X005817Y007471D01*
X007127Y007947D02*
X001500Y007947D01*
X000460Y011117D02*
X006114Y011117D01*
X006272Y011275D02*
X000460Y011275D01*
X000460Y011434D02*
X006431Y011434D01*
X006589Y011592D02*
X000460Y011592D01*
X000460Y011751D02*
X006748Y011751D01*
X006906Y011909D02*
X000460Y011909D01*
X000460Y012068D02*
X008239Y012068D01*
X008307Y010324D02*
X007377Y010324D01*
X007218Y010166D02*
X008337Y010166D01*
X008982Y010007D02*
X009206Y010007D01*
X009120Y009849D02*
X009060Y009849D01*
X009060Y009690D02*
X009120Y009690D01*
X009128Y009532D02*
X009060Y009532D01*
X008902Y009373D02*
X009286Y009373D01*
X009227Y009056D02*
X008933Y009056D01*
X009060Y008898D02*
X009100Y008898D01*
X009100Y008739D02*
X009060Y008739D01*
X009060Y008581D02*
X009100Y008581D01*
X009933Y009056D02*
X010042Y009056D01*
X010032Y009532D02*
X010042Y009532D01*
X010040Y009690D02*
X010042Y009690D01*
X010040Y009849D02*
X010042Y009849D01*
X010042Y010007D02*
X009954Y010007D01*
X010042Y010166D02*
X009795Y010166D01*
X009853Y010324D02*
X010042Y010324D01*
X010042Y010483D02*
X010011Y010483D01*
X010042Y012068D02*
X009921Y012068D01*
X010042Y012226D02*
X000460Y012226D01*
X000460Y004301D02*
X000860Y004301D01*
X000860Y004143D02*
X000460Y004143D01*
X000460Y003984D02*
X000860Y003984D01*
X000860Y003826D02*
X000460Y003826D01*
X000460Y003667D02*
X000860Y003667D01*
X000860Y003509D02*
X000460Y003509D01*
X000460Y003350D02*
X000860Y003350D01*
X000860Y003192D02*
X000460Y003192D01*
X000460Y003033D02*
X000860Y003033D01*
X000860Y002875D02*
X000460Y002875D01*
X000460Y002716D02*
X000860Y002716D01*
X000860Y002558D02*
X000460Y002558D01*
X000460Y002399D02*
X000860Y002399D01*
X000917Y002241D02*
X000460Y002241D01*
X000460Y002082D02*
X001075Y002082D01*
X001234Y001924D02*
X000460Y001924D01*
X000460Y001765D02*
X001392Y001765D01*
X001551Y001607D02*
X000460Y001607D01*
X000460Y001448D02*
X001725Y001448D01*
X001981Y002082D02*
X002308Y002082D01*
X002243Y002241D02*
X001822Y002241D01*
X001664Y002399D02*
X002237Y002399D01*
X002284Y002558D02*
X001505Y002558D01*
X001500Y002716D02*
X002407Y002716D01*
X002553Y002930D02*
X002553Y002930D01*
X002553Y002930D01*
X000460Y001290D02*
X006334Y001290D01*
X006247Y001131D02*
X000460Y001131D01*
X000460Y000973D02*
X006106Y000973D01*
X006045Y000814D02*
X000460Y000814D01*
X000460Y000656D02*
X006045Y000656D01*
X006102Y000497D02*
X000460Y000497D01*
X004852Y002082D02*
X006198Y002082D01*
X005868Y002930D02*
X005868Y002930D01*
X005868Y002930D01*
X005330Y003033D02*
X005167Y003033D01*
X005252Y003192D02*
X005299Y003192D01*
X005312Y003350D02*
X005252Y003350D01*
X005252Y003509D02*
X005312Y003509D01*
X004917Y002241D02*
X010042Y002241D01*
X010042Y002399D02*
X009900Y002399D01*
X010040Y002558D02*
X010042Y002558D01*
X010040Y002716D02*
X010042Y002716D01*
X010040Y002875D02*
X010042Y002875D01*
X010042Y003033D02*
X009928Y003033D01*
X009907Y002082D02*
X010042Y002082D01*
X009253Y002082D02*
X008907Y002082D01*
X009060Y001924D02*
X009100Y001924D01*
X009100Y001765D02*
X009060Y001765D01*
X009060Y001607D02*
X009100Y001607D01*
X008253Y002082D02*
X007412Y002082D01*
X007524Y001924D02*
X008100Y001924D01*
X008100Y001765D02*
X007565Y001765D01*
X007553Y001607D02*
X008100Y001607D01*
X007845Y001448D02*
X007482Y001448D01*
X007687Y001290D02*
X007276Y001290D01*
X007363Y001131D02*
X007528Y001131D01*
X009913Y012385D02*
X010042Y012385D01*
D18*
X010052Y012155D02*
X010052Y009730D01*
X010052Y002730D01*
X009580Y002730D01*
X009580Y009730D02*
X010052Y009730D01*
D19*
X009580Y008730D02*
X009580Y008480D01*
X009330Y008230D01*
X007980Y008230D01*
X007555Y007805D01*
X006805Y007955D02*
X006805Y007980D01*
X007530Y008730D02*
X008580Y008730D01*
X008580Y007730D02*
X006468Y005630D01*
X005868Y005630D01*
X005368Y006130D01*
X002568Y006130D01*
X002343Y006355D01*
X002343Y006668D01*
X002955Y006668D02*
X005380Y006668D01*
X005943Y006105D01*
X006105Y006105D01*
X006105Y006730D02*
X005455Y007380D01*
X004868Y007380D01*
X005680Y008405D02*
X007005Y009730D01*
X008580Y009730D01*
X008580Y010730D02*
X007330Y010730D01*
X005505Y008905D01*
X004355Y008905D01*
X004280Y008830D01*
X003880Y008405D02*
X005680Y008405D01*
X005355Y009305D02*
X003530Y009305D01*
X003480Y009255D01*
X002830Y009705D02*
X002805Y009680D01*
X002830Y009705D02*
X005155Y009705D01*
X007180Y011730D01*
X008580Y011730D01*
X009080Y011230D02*
X007280Y011230D01*
X005355Y009305D01*
X004980Y010630D02*
X002230Y010630D01*
X001180Y009580D01*
X001180Y004905D01*
X001205Y004930D01*
X001930Y004930D01*
X001180Y004905D02*
X001180Y002430D01*
X001880Y001730D01*
X006805Y001730D01*
X006805Y000730D02*
X007580Y000730D01*
X008080Y001230D01*
X009580Y001230D01*
X009580Y000730D01*
X009580Y001230D02*
X009580Y001730D01*
X007555Y005705D02*
X008080Y006230D01*
X008780Y006230D01*
X009080Y006530D01*
X009080Y006980D01*
X009580Y007480D01*
X009580Y007730D01*
X009080Y011230D02*
X009580Y011730D01*
D20*
X004280Y008830D03*
X003880Y008405D03*
X003480Y009255D03*
X002805Y009680D03*
M02*
