G75*
G70*
%OFA0B0*%
%FSLAX24Y24*%
%IPPOS*%
%LPD*%
%AMOC8*
5,1,8,0,0,1.08239X$1,22.5*
%
%ADD10C,0.0030*%
%ADD11C,0.0560*%
%ADD12OC8,0.0560*%
%ADD13C,0.0560*%
%ADD14R,0.0354X0.1181*%
%ADD15C,0.1310*%
%ADD16C,0.0160*%
%ADD17C,0.0500*%
%ADD18C,0.0200*%
%ADD19C,0.0100*%
%ADD20C,0.0140*%
%ADD21C,0.0120*%
%ADD22C,0.0240*%
%ADD23C,0.0450*%
D10*
X001020Y007170D02*
X001020Y007315D01*
X001068Y007363D01*
X001165Y007363D01*
X001213Y007315D01*
X001213Y007170D01*
X001310Y007170D02*
X001020Y007170D01*
X001068Y007465D02*
X001020Y007513D01*
X001020Y007658D01*
X000972Y007658D02*
X000923Y007610D01*
X000923Y007561D01*
X000972Y007658D02*
X001213Y007658D01*
X001213Y007465D02*
X001068Y007465D01*
X001500Y007513D02*
X001548Y007465D01*
X001597Y007513D01*
X001597Y007658D01*
X001645Y007658D02*
X001500Y007658D01*
X001500Y007513D01*
X001500Y007363D02*
X001597Y007267D01*
X001597Y007315D02*
X001597Y007170D01*
X001500Y007170D02*
X001790Y007170D01*
X001790Y007315D01*
X001742Y007363D01*
X001645Y007363D01*
X001597Y007315D01*
X001693Y007513D02*
X001693Y007610D01*
X001645Y007658D01*
X001645Y007759D02*
X001693Y007808D01*
X001693Y007953D01*
X001693Y008054D02*
X001693Y008199D01*
X001645Y008247D01*
X001548Y008247D01*
X001500Y008199D01*
X001500Y008054D01*
X001403Y008054D02*
X001693Y008054D01*
X001548Y007953D02*
X001597Y007904D01*
X001597Y007808D01*
X001645Y007759D01*
X001500Y007759D02*
X001500Y007904D01*
X001548Y007953D01*
X001310Y008151D02*
X001310Y008247D01*
X001310Y008199D02*
X001068Y008199D01*
X001020Y008151D01*
X001020Y008102D01*
X001068Y008054D01*
X001068Y008349D02*
X001020Y008397D01*
X001020Y008494D01*
X001068Y008542D01*
X001020Y008643D02*
X001310Y008643D01*
X001020Y008837D01*
X001310Y008837D01*
X001500Y008837D02*
X001500Y008692D01*
X001548Y008643D01*
X001597Y008692D01*
X001597Y008837D01*
X001645Y008837D02*
X001500Y008837D01*
X001500Y008938D02*
X001693Y008938D01*
X001693Y009083D01*
X001645Y009131D01*
X001500Y009131D01*
X001548Y009233D02*
X001500Y009281D01*
X001500Y009426D01*
X001548Y009527D02*
X001645Y009527D01*
X001693Y009576D01*
X001693Y009672D01*
X001645Y009721D01*
X001597Y009721D01*
X001597Y009527D01*
X001548Y009527D02*
X001500Y009576D01*
X001500Y009672D01*
X001500Y009822D02*
X001693Y009822D01*
X001597Y009822D02*
X001693Y009919D01*
X001693Y009967D01*
X001742Y010067D02*
X001790Y010116D01*
X001790Y010213D01*
X001742Y010261D01*
X001693Y010261D01*
X001500Y010067D01*
X001500Y010261D01*
X001500Y010362D02*
X001500Y010556D01*
X001500Y010459D02*
X001790Y010459D01*
X001693Y010362D01*
X001310Y010015D02*
X001020Y010015D01*
X001020Y009870D01*
X001068Y009822D01*
X001165Y009822D01*
X001213Y009870D01*
X001213Y010015D01*
X001165Y010117D02*
X001068Y010117D01*
X001020Y010165D01*
X001020Y010262D01*
X001068Y010310D01*
X001165Y010310D01*
X001213Y010262D01*
X001213Y010165D01*
X001165Y010117D01*
X001165Y010411D02*
X001068Y010411D01*
X001020Y010460D01*
X001020Y010556D01*
X001117Y010605D02*
X001117Y010411D01*
X001165Y010411D02*
X001213Y010460D01*
X001213Y010556D01*
X001165Y010605D01*
X001117Y010605D01*
X001165Y010706D02*
X001068Y010706D01*
X001020Y010754D01*
X001020Y010899D01*
X000972Y010899D02*
X001213Y010899D01*
X001213Y010754D01*
X001165Y010706D01*
X000972Y010899D02*
X000923Y010851D01*
X000923Y010803D01*
X001068Y011000D02*
X001020Y011049D01*
X001020Y011146D01*
X001068Y011194D01*
X001165Y011194D01*
X001213Y011146D01*
X001213Y011049D01*
X001165Y011000D01*
X001068Y011000D01*
X001020Y011295D02*
X001213Y011489D01*
X001020Y011489D02*
X001213Y011295D01*
X001500Y011343D02*
X001790Y011343D01*
X001693Y011246D01*
X001597Y011145D02*
X001790Y011145D01*
X001790Y010951D02*
X001597Y010951D01*
X001500Y011048D01*
X001597Y011145D01*
X001500Y011246D02*
X001500Y011440D01*
X001500Y011541D02*
X001500Y011589D01*
X001548Y011589D01*
X001548Y011541D01*
X001500Y011541D01*
X001548Y011688D02*
X001742Y011881D01*
X001548Y011881D01*
X001500Y011833D01*
X001500Y011736D01*
X001548Y011688D01*
X001742Y011688D01*
X001790Y011736D01*
X001790Y011833D01*
X001742Y011881D01*
X001693Y009426D02*
X001693Y009281D01*
X001645Y009233D01*
X001548Y009233D01*
X001310Y009281D02*
X001262Y009233D01*
X001213Y009233D01*
X001020Y009426D01*
X001020Y009329D02*
X001020Y009281D01*
X001068Y009233D01*
X001117Y009233D01*
X001213Y009329D01*
X001262Y009329D01*
X001310Y009281D01*
X001117Y009426D02*
X001020Y009329D01*
X001645Y008837D02*
X001693Y008788D01*
X001693Y008692D01*
X001693Y008542D02*
X001693Y008397D01*
X001645Y008349D01*
X001548Y008349D01*
X001500Y008397D01*
X001500Y008542D01*
X001790Y008542D01*
X001310Y008494D02*
X001310Y008397D01*
X001262Y008349D01*
X001068Y008349D01*
X001262Y008542D02*
X001310Y008494D01*
D11*
X008580Y000730D03*
D12*
X008580Y001730D03*
X008580Y002730D03*
X008580Y003730D03*
X008580Y004730D03*
X008580Y005730D03*
X008580Y006730D03*
X008580Y007730D03*
X008580Y008730D03*
X008580Y009730D03*
X008580Y010730D03*
X008580Y011730D03*
X008580Y012730D03*
X009580Y012730D03*
X009580Y011730D03*
X009580Y010730D03*
X009580Y009730D03*
X009580Y008730D03*
X009580Y007730D03*
X009580Y006730D03*
X009580Y005730D03*
X009580Y004730D03*
X009580Y003730D03*
X009580Y002730D03*
X009580Y001730D03*
X009580Y000730D03*
D13*
X007135Y001280D02*
X006575Y001280D01*
X006575Y002280D02*
X007135Y002280D01*
D14*
X004761Y005588D03*
X003974Y005588D03*
X003186Y005588D03*
X002399Y005588D03*
D15*
X000995Y004230D03*
X006165Y004230D03*
D16*
X000460Y003556D02*
X000460Y000460D01*
X008172Y000460D01*
X008100Y000635D01*
X008100Y000825D01*
X008135Y000910D01*
X007444Y000910D01*
X007407Y000873D01*
X007230Y000800D01*
X006480Y000800D01*
X006303Y000873D01*
X006168Y001008D01*
X006095Y001185D01*
X006095Y001375D01*
X006168Y001552D01*
X006303Y001687D01*
X006480Y001760D01*
X007230Y001760D01*
X007407Y001687D01*
X007542Y001552D01*
X007543Y001550D01*
X008100Y001550D01*
X008100Y001929D01*
X008381Y002210D01*
X008779Y002210D01*
X009060Y001929D01*
X009060Y001550D01*
X009100Y001550D01*
X009100Y001929D01*
X009381Y002210D01*
X009779Y002210D01*
X010042Y001947D01*
X010042Y003513D01*
X009779Y003250D01*
X009381Y003250D01*
X009100Y003531D01*
X009100Y003929D01*
X009381Y004210D01*
X009779Y004210D01*
X010042Y003947D01*
X010042Y004513D01*
X009779Y004250D01*
X009381Y004250D01*
X009100Y004531D01*
X009100Y004929D01*
X009381Y005210D01*
X009779Y005210D01*
X010042Y004947D01*
X010042Y005513D01*
X009779Y005250D01*
X009381Y005250D01*
X009100Y005531D01*
X009100Y005929D01*
X009381Y006210D01*
X009779Y006210D01*
X010042Y005947D01*
X010042Y007513D01*
X009779Y007250D01*
X009553Y007250D01*
X009493Y007190D01*
X009570Y007190D01*
X009570Y006740D01*
X009590Y006740D01*
X009590Y007190D01*
X009771Y007190D01*
X010040Y006921D01*
X010040Y006740D01*
X009590Y006740D01*
X009590Y006720D01*
X010040Y006720D01*
X010040Y006539D01*
X009771Y006270D01*
X009590Y006270D01*
X009590Y006720D01*
X009570Y006720D01*
X009570Y006270D01*
X009389Y006270D01*
X009369Y006291D01*
X009351Y006249D01*
X009061Y005959D01*
X009039Y005950D01*
X009060Y005929D01*
X009060Y005531D01*
X008779Y005250D01*
X008381Y005250D01*
X008100Y005531D01*
X008100Y005910D01*
X008088Y005910D01*
X008055Y005877D01*
X008055Y005790D01*
X007986Y005625D01*
X007860Y005499D01*
X007695Y005430D01*
X007515Y005430D01*
X007350Y005499D01*
X007224Y005625D01*
X007155Y005790D01*
X007155Y005970D01*
X007224Y006135D01*
X007350Y006261D01*
X007515Y006330D01*
X007602Y006330D01*
X007774Y006501D01*
X007891Y006550D01*
X008100Y006550D01*
X008100Y006929D01*
X008381Y007210D01*
X008760Y007210D01*
X008760Y007250D01*
X008381Y007250D01*
X008221Y007410D01*
X007316Y007410D01*
X007199Y007459D01*
X006747Y007910D01*
X006725Y007910D01*
X005651Y006836D01*
X005561Y006746D01*
X005444Y006698D01*
X004840Y006698D01*
X004936Y006601D01*
X005026Y006511D01*
X005075Y006394D01*
X005075Y006325D01*
X005138Y006262D01*
X005138Y004915D01*
X005081Y004858D01*
X005081Y004081D01*
X005811Y003351D01*
X005901Y003261D01*
X005950Y003144D01*
X005950Y002596D01*
X006011Y002535D01*
X006080Y002370D01*
X006080Y002190D01*
X006011Y002025D01*
X005885Y001899D01*
X005720Y001830D01*
X005540Y001830D01*
X005375Y001899D01*
X005249Y002025D01*
X005180Y002190D01*
X005180Y002370D01*
X005249Y002535D01*
X005310Y002596D01*
X005310Y002947D01*
X004490Y003768D01*
X004441Y003885D01*
X004441Y004858D01*
X004384Y004915D01*
X004384Y006160D01*
X004351Y006160D01*
X004351Y004915D01*
X004349Y004913D01*
X004376Y004886D01*
X004425Y004769D01*
X004425Y004191D01*
X004376Y004074D01*
X004286Y003984D01*
X003961Y003659D01*
X003844Y003610D01*
X003366Y003610D01*
X003249Y003659D01*
X003159Y003749D01*
X003159Y003749D01*
X002902Y004005D01*
X002815Y004005D01*
X002650Y004074D01*
X002524Y004200D01*
X002455Y004365D01*
X002455Y004545D01*
X002524Y004710D01*
X002643Y004829D01*
X002600Y004818D01*
X002407Y004818D01*
X002407Y005580D01*
X002390Y005580D01*
X002042Y005580D01*
X002042Y004974D01*
X002054Y004928D01*
X002078Y004887D01*
X002111Y004854D01*
X002152Y004830D01*
X002198Y004818D01*
X002390Y004818D01*
X002390Y005580D01*
X002390Y005597D01*
X002042Y005597D01*
X002042Y006203D01*
X000460Y006203D01*
X000460Y006362D02*
X002489Y006362D01*
X002496Y006359D02*
X002407Y006359D01*
X002407Y005597D01*
X002390Y005597D01*
X002390Y006359D01*
X002198Y006359D01*
X002152Y006347D01*
X002111Y006323D01*
X002078Y006289D01*
X002054Y006248D01*
X002042Y006203D01*
X002042Y006045D02*
X000460Y006045D01*
X000460Y005886D02*
X002042Y005886D01*
X002042Y005728D02*
X000460Y005728D01*
X000460Y005569D02*
X002042Y005569D01*
X002042Y005411D02*
X000460Y005411D01*
X000460Y005252D02*
X002042Y005252D01*
X002042Y005094D02*
X000460Y005094D01*
X000511Y004955D02*
X000460Y004904D01*
X000460Y013020D01*
X008220Y013020D01*
X008120Y012921D01*
X008120Y012740D01*
X008570Y012740D01*
X008570Y012720D01*
X008590Y012720D01*
X008590Y012740D01*
X009040Y012740D01*
X009040Y012921D01*
X008940Y013020D01*
X009191Y013020D01*
X009100Y012929D01*
X009100Y012531D01*
X009381Y012250D01*
X009779Y012250D01*
X010042Y012513D01*
X010042Y011947D01*
X009779Y012210D01*
X009381Y012210D01*
X009100Y011929D01*
X009100Y011703D01*
X009060Y011663D01*
X009060Y011929D01*
X008779Y012210D01*
X008381Y012210D01*
X008221Y012050D01*
X004816Y012050D01*
X004699Y012001D01*
X002509Y009811D01*
X002460Y009694D01*
X002460Y009086D01*
X002420Y009046D01*
X002355Y008890D01*
X002355Y008720D01*
X002420Y008564D01*
X002539Y008445D01*
X002695Y008380D01*
X002865Y008380D01*
X002929Y008407D01*
X002474Y007951D01*
X002384Y007861D01*
X002335Y007744D01*
X002335Y007096D01*
X002274Y007035D01*
X002205Y006870D01*
X002205Y006690D01*
X002274Y006525D01*
X002400Y006399D01*
X002496Y006359D01*
X002407Y006203D02*
X002390Y006203D01*
X002390Y006045D02*
X002407Y006045D01*
X002390Y005886D02*
X002407Y005886D01*
X002390Y005728D02*
X002407Y005728D01*
X002407Y005597D02*
X002756Y005597D01*
X002756Y006203D01*
X002788Y006203D01*
X002774Y006209D02*
X002809Y006194D01*
X002809Y004915D01*
X002819Y004905D01*
X002815Y004905D01*
X002674Y004846D01*
X002687Y004854D01*
X002720Y004887D01*
X002744Y004928D01*
X002756Y004974D01*
X002756Y005580D01*
X002407Y005580D01*
X002407Y005597D01*
X002407Y005569D02*
X002390Y005569D01*
X002390Y005411D02*
X002407Y005411D01*
X002390Y005252D02*
X002407Y005252D01*
X002390Y005094D02*
X002407Y005094D01*
X002390Y004935D02*
X002407Y004935D01*
X002590Y004777D02*
X001658Y004777D01*
X001720Y004714D02*
X001479Y004955D01*
X001165Y005085D01*
X000825Y005085D01*
X000511Y004955D01*
X000491Y004935D02*
X000460Y004935D01*
X001499Y004935D02*
X002052Y004935D01*
X001720Y004714D02*
X001850Y004400D01*
X001850Y004060D01*
X001720Y003746D01*
X001479Y003505D01*
X001165Y003375D01*
X000825Y003375D01*
X000511Y003505D01*
X000460Y003556D01*
X000460Y003509D02*
X000507Y003509D01*
X000460Y003350D02*
X004907Y003350D01*
X004749Y003509D02*
X001483Y003509D01*
X001641Y003667D02*
X003240Y003667D01*
X003082Y003826D02*
X001753Y003826D01*
X001819Y003984D02*
X002923Y003984D01*
X002581Y004143D02*
X001850Y004143D01*
X001850Y004301D02*
X002482Y004301D01*
X002455Y004460D02*
X001825Y004460D01*
X001760Y004618D02*
X002485Y004618D01*
X002746Y004935D02*
X002809Y004935D01*
X002809Y005094D02*
X002756Y005094D01*
X002756Y005252D02*
X002809Y005252D01*
X002809Y005411D02*
X002756Y005411D01*
X002756Y005569D02*
X002809Y005569D01*
X002809Y005728D02*
X002756Y005728D01*
X002756Y005886D02*
X002809Y005886D01*
X002809Y006045D02*
X002756Y006045D01*
X002756Y006203D02*
X002747Y006235D01*
X002774Y006209D01*
X002279Y006520D02*
X000460Y006520D01*
X000460Y006679D02*
X002210Y006679D01*
X002205Y006837D02*
X000460Y006837D01*
X000460Y006996D02*
X000890Y006996D01*
X000931Y006955D02*
X001399Y006955D01*
X001405Y006961D01*
X001411Y006955D01*
X001879Y006955D01*
X002005Y007081D01*
X002005Y007404D01*
X001957Y007453D01*
X001908Y007501D01*
X001908Y007699D01*
X001899Y007709D01*
X001908Y007719D01*
X001908Y007719D01*
X001908Y007719D01*
X001908Y007809D01*
X001908Y007897D01*
X001908Y008288D01*
X001899Y008298D01*
X001908Y008308D01*
X001908Y008308D01*
X001908Y008308D01*
X001908Y008356D01*
X002005Y008453D01*
X002005Y008631D01*
X001908Y008728D01*
X001908Y009172D01*
X001899Y009182D01*
X001908Y009192D01*
X001908Y009192D01*
X001908Y009192D01*
X001908Y009280D01*
X001908Y009370D01*
X001908Y009576D01*
X001908Y009665D01*
X001908Y009930D01*
X001946Y009968D01*
X002005Y010027D01*
X002005Y010115D01*
X002005Y010205D01*
X002005Y010302D01*
X001971Y010336D01*
X002005Y010370D01*
X002005Y010548D01*
X001941Y010612D01*
X001879Y010674D01*
X001686Y010674D01*
X001623Y010736D01*
X001879Y010736D01*
X002005Y010862D01*
X002005Y011040D01*
X001998Y011048D01*
X002005Y011056D01*
X002005Y011234D01*
X001995Y011244D01*
X002005Y011254D01*
X002005Y011432D01*
X001941Y011496D01*
X001898Y011540D01*
X001948Y011590D01*
X002005Y011647D01*
X002005Y011647D01*
X002005Y011647D01*
X002005Y011737D01*
X002005Y011825D01*
X002005Y011825D01*
X002005Y011922D01*
X001957Y011971D01*
X001831Y012096D01*
X001637Y012096D01*
X001547Y012096D01*
X001459Y012096D01*
X001400Y012038D01*
X001333Y011971D01*
X001285Y011922D01*
X001285Y011834D01*
X001285Y011704D01*
X001124Y011704D01*
X001117Y011696D01*
X001109Y011704D01*
X000931Y011704D01*
X000805Y011578D01*
X000805Y011400D01*
X000813Y011392D01*
X000805Y011384D01*
X000805Y011235D01*
X000805Y011145D01*
X000805Y011037D01*
X000757Y010988D01*
X000708Y010940D01*
X000708Y010714D01*
X000805Y010617D01*
X000805Y010370D01*
X000815Y010361D01*
X000805Y010351D01*
X000805Y010351D01*
X000805Y010351D01*
X000805Y010261D01*
X000805Y009781D01*
X000853Y009733D01*
X000945Y009641D01*
X000931Y009641D01*
X000805Y009515D01*
X000805Y009192D01*
X000853Y009144D01*
X000945Y009052D01*
X000931Y009052D01*
X000914Y009035D01*
X000891Y009030D01*
X000853Y008974D01*
X000805Y008926D01*
X000805Y008902D01*
X000792Y008882D01*
X000805Y008815D01*
X000805Y008748D01*
X000813Y008740D01*
X000805Y008732D01*
X000805Y008583D01*
X000805Y008583D01*
X000805Y008493D01*
X000805Y008308D01*
X000839Y008274D01*
X000805Y008240D01*
X000805Y008240D01*
X000805Y008240D01*
X000805Y008150D01*
X000805Y008013D01*
X000931Y007887D01*
X000945Y007873D01*
X000883Y007873D01*
X000834Y007825D01*
X000708Y007699D01*
X000708Y007472D01*
X000805Y007376D01*
X000805Y007081D01*
X000931Y006955D01*
X000805Y007154D02*
X000460Y007154D01*
X000460Y007313D02*
X000805Y007313D01*
X000710Y007471D02*
X000460Y007471D01*
X000460Y007630D02*
X000708Y007630D01*
X000797Y007788D02*
X000460Y007788D01*
X000460Y007947D02*
X000872Y007947D01*
X000805Y008105D02*
X000460Y008105D01*
X000460Y008264D02*
X000829Y008264D01*
X000805Y008422D02*
X000460Y008422D01*
X000460Y008581D02*
X000805Y008581D01*
X000812Y008739D02*
X000460Y008739D01*
X000460Y008898D02*
X000802Y008898D01*
X000941Y009056D02*
X000460Y009056D01*
X000460Y009215D02*
X000805Y009215D01*
X000805Y009373D02*
X000460Y009373D01*
X000460Y009532D02*
X000821Y009532D01*
X000896Y009690D02*
X000460Y009690D01*
X000460Y009849D02*
X000805Y009849D01*
X000805Y010007D02*
X000460Y010007D01*
X000460Y010166D02*
X000805Y010166D01*
X000805Y010324D02*
X000460Y010324D01*
X000460Y010483D02*
X000805Y010483D01*
X000781Y010641D02*
X000460Y010641D01*
X000460Y010800D02*
X000708Y010800D01*
X000726Y010958D02*
X000460Y010958D01*
X000460Y011117D02*
X000805Y011117D01*
X000805Y011235D02*
X000805Y011235D01*
X000805Y011275D02*
X000460Y011275D01*
X000460Y011434D02*
X000805Y011434D01*
X000819Y011592D02*
X000460Y011592D01*
X000460Y011751D02*
X001285Y011751D01*
X001285Y011909D02*
X000460Y011909D01*
X000460Y012068D02*
X001430Y012068D01*
X001459Y012096D02*
X001459Y012096D01*
X001459Y012096D01*
X001333Y011971D02*
X001333Y011971D01*
X001285Y011922D02*
X001285Y011922D01*
X001285Y011922D01*
X001637Y012096D02*
X001637Y012096D01*
X001860Y012068D02*
X008239Y012068D01*
X008389Y012270D02*
X008570Y012270D01*
X008570Y012720D01*
X008120Y012720D01*
X008120Y012539D01*
X008389Y012270D01*
X008275Y012385D02*
X000460Y012385D01*
X000460Y012543D02*
X008120Y012543D01*
X008120Y012702D02*
X000460Y012702D01*
X000460Y012860D02*
X008120Y012860D01*
X008218Y013019D02*
X000460Y013019D01*
X000460Y012226D02*
X010042Y012226D01*
X010042Y012068D02*
X009921Y012068D01*
X009913Y012385D02*
X010042Y012385D01*
X009247Y012385D02*
X008885Y012385D01*
X008771Y012270D02*
X009040Y012539D01*
X009040Y012720D01*
X008590Y012720D01*
X008590Y012270D01*
X008771Y012270D01*
X008590Y012385D02*
X008570Y012385D01*
X008570Y012543D02*
X008590Y012543D01*
X008590Y012702D02*
X008570Y012702D01*
X008942Y013019D02*
X009190Y013019D01*
X009100Y012860D02*
X009040Y012860D01*
X009040Y012702D02*
X009100Y012702D01*
X009100Y012543D02*
X009040Y012543D01*
X008921Y012068D02*
X009239Y012068D01*
X009100Y011909D02*
X009060Y011909D01*
X009060Y011751D02*
X009100Y011751D01*
X009100Y010910D02*
X009100Y010531D01*
X009381Y010250D01*
X009779Y010250D01*
X010042Y010513D01*
X010042Y008947D01*
X009779Y009210D01*
X009381Y009210D01*
X009100Y008929D01*
X009100Y008703D01*
X009060Y008663D01*
X009060Y008929D01*
X008779Y009210D01*
X008553Y009210D01*
X008536Y009226D01*
X008479Y009250D01*
X008779Y009250D01*
X009060Y009531D01*
X009060Y009929D01*
X008779Y010210D01*
X008381Y010210D01*
X008221Y010050D01*
X005416Y010050D01*
X005299Y010001D01*
X005209Y009911D01*
X004262Y008965D01*
X004239Y009021D01*
X004296Y009045D01*
X004415Y009164D01*
X004480Y009320D01*
X004480Y009377D01*
X005513Y010410D01*
X008221Y010410D01*
X008381Y010250D01*
X008779Y010250D01*
X009060Y010531D01*
X009060Y010910D01*
X009100Y010910D01*
X009100Y010800D02*
X009060Y010800D01*
X009060Y010641D02*
X009100Y010641D01*
X009149Y010483D02*
X009011Y010483D01*
X008853Y010324D02*
X009307Y010324D01*
X009389Y010190D02*
X009120Y009921D01*
X009120Y009740D01*
X009570Y009740D01*
X009570Y010190D01*
X009389Y010190D01*
X009365Y010166D02*
X008823Y010166D01*
X008982Y010007D02*
X009206Y010007D01*
X009120Y009849D02*
X009060Y009849D01*
X009120Y009720D02*
X009120Y009539D01*
X009389Y009270D01*
X009570Y009270D01*
X009570Y009720D01*
X009120Y009720D01*
X009120Y009690D02*
X009060Y009690D01*
X009060Y009532D02*
X009128Y009532D01*
X009286Y009373D02*
X008902Y009373D01*
X008933Y009056D02*
X009227Y009056D01*
X009100Y008898D02*
X009060Y008898D01*
X009060Y008739D02*
X009100Y008739D01*
X009590Y009270D02*
X009771Y009270D01*
X010040Y009539D01*
X010040Y009720D01*
X009590Y009720D01*
X009590Y009740D01*
X009570Y009740D01*
X009570Y009720D01*
X009590Y009720D01*
X009590Y009270D01*
X009590Y009373D02*
X009570Y009373D01*
X009570Y009532D02*
X009590Y009532D01*
X009590Y009690D02*
X009570Y009690D01*
X009580Y009730D02*
X010030Y009730D01*
X010040Y009740D02*
X010040Y009921D01*
X009771Y010190D01*
X009590Y010190D01*
X009590Y009740D01*
X010040Y009740D01*
X010040Y009690D02*
X010042Y009690D01*
X010032Y009532D02*
X010042Y009532D01*
X010042Y009373D02*
X009874Y009373D01*
X010042Y009215D02*
X008548Y009215D01*
X008337Y010166D02*
X005268Y010166D01*
X005313Y010007D02*
X005110Y010007D01*
X005146Y009849D02*
X004951Y009849D01*
X004987Y009690D02*
X004793Y009690D01*
X004829Y009532D02*
X004634Y009532D01*
X004670Y009373D02*
X004480Y009373D01*
X004512Y009215D02*
X004436Y009215D01*
X004353Y009056D02*
X004307Y009056D01*
X003180Y010483D02*
X002005Y010483D01*
X001983Y010324D02*
X003021Y010324D01*
X002863Y010166D02*
X002005Y010166D01*
X002005Y010205D02*
X002005Y010205D01*
X002005Y010027D02*
X002005Y010027D01*
X002005Y010027D01*
X001986Y010007D02*
X002704Y010007D01*
X002546Y009849D02*
X001908Y009849D01*
X001908Y009690D02*
X002460Y009690D01*
X002460Y009532D02*
X001908Y009532D01*
X001908Y009665D02*
X001908Y009665D01*
X001908Y009373D02*
X002460Y009373D01*
X002460Y009215D02*
X001908Y009215D01*
X001908Y009370D02*
X001908Y009370D01*
X001908Y009056D02*
X002430Y009056D01*
X002358Y008898D02*
X001908Y008898D01*
X001908Y008739D02*
X002355Y008739D01*
X002413Y008581D02*
X002005Y008581D01*
X001974Y008422D02*
X002594Y008422D01*
X002786Y008264D02*
X001908Y008264D01*
X001908Y008105D02*
X002627Y008105D01*
X002469Y007947D02*
X001908Y007947D01*
X001908Y007897D02*
X001908Y007897D01*
X001908Y007788D02*
X002353Y007788D01*
X002335Y007630D02*
X001908Y007630D01*
X001938Y007471D02*
X002335Y007471D01*
X002335Y007313D02*
X002005Y007313D01*
X002005Y007154D02*
X002335Y007154D01*
X002257Y006996D02*
X001920Y006996D01*
X003974Y005588D02*
X003980Y005582D01*
X004351Y005569D02*
X004384Y005569D01*
X004384Y005411D02*
X004351Y005411D01*
X004351Y005252D02*
X004384Y005252D01*
X004384Y005094D02*
X004351Y005094D01*
X004351Y004935D02*
X004384Y004935D01*
X004422Y004777D02*
X004441Y004777D01*
X004425Y004618D02*
X004441Y004618D01*
X004425Y004460D02*
X004441Y004460D01*
X004425Y004301D02*
X004441Y004301D01*
X004441Y004143D02*
X004405Y004143D01*
X004441Y003984D02*
X004287Y003984D01*
X004128Y003826D02*
X004466Y003826D01*
X004590Y003667D02*
X003970Y003667D01*
X004351Y002826D02*
X004176Y002753D01*
X004042Y002619D01*
X003969Y002444D01*
X003969Y002254D01*
X004042Y002079D01*
X004176Y001944D01*
X004351Y001872D01*
X004541Y001872D01*
X004716Y001944D01*
X004850Y002079D01*
X004923Y002254D01*
X004923Y002444D01*
X004850Y002619D01*
X004716Y002753D01*
X004541Y002826D01*
X004351Y002826D01*
X004139Y002716D02*
X003021Y002716D01*
X002984Y002753D02*
X002809Y002826D01*
X002619Y002826D01*
X002444Y002753D01*
X002310Y002619D01*
X002237Y002444D01*
X002237Y002254D01*
X002310Y002079D01*
X002444Y001944D01*
X002619Y001872D01*
X002809Y001872D01*
X002984Y001944D01*
X003118Y002079D01*
X003191Y002254D01*
X003191Y002444D01*
X003118Y002619D01*
X002984Y002753D01*
X003144Y002558D02*
X004016Y002558D01*
X003969Y002399D02*
X003191Y002399D01*
X003185Y002241D02*
X003975Y002241D01*
X004040Y002082D02*
X003120Y002082D01*
X002933Y001924D02*
X004227Y001924D01*
X004666Y001924D02*
X005350Y001924D01*
X005225Y002082D02*
X004852Y002082D01*
X004917Y002241D02*
X005180Y002241D01*
X005192Y002399D02*
X004923Y002399D01*
X004876Y002558D02*
X005271Y002558D01*
X005310Y002716D02*
X004753Y002716D01*
X005066Y003192D02*
X000460Y003192D01*
X000460Y003033D02*
X005224Y003033D01*
X005310Y002875D02*
X000460Y002875D01*
X000460Y002716D02*
X002407Y002716D01*
X002284Y002558D02*
X000460Y002558D01*
X000460Y002399D02*
X002237Y002399D01*
X002243Y002241D02*
X000460Y002241D01*
X000460Y002082D02*
X002308Y002082D01*
X002494Y001924D02*
X000460Y001924D01*
X000460Y001765D02*
X008100Y001765D01*
X008100Y001924D02*
X007457Y001924D01*
X007407Y001873D02*
X007542Y002008D01*
X007615Y002185D01*
X007615Y002375D01*
X007542Y002552D01*
X007407Y002687D01*
X007230Y002760D01*
X006480Y002760D01*
X006303Y002687D01*
X006168Y002552D01*
X006095Y002375D01*
X006095Y002185D01*
X006168Y002008D01*
X006303Y001873D01*
X006480Y001800D01*
X007230Y001800D01*
X007407Y001873D01*
X007573Y002082D02*
X008253Y002082D01*
X008381Y002250D02*
X008779Y002250D01*
X009060Y002531D01*
X009060Y002929D01*
X008779Y003210D01*
X008381Y003210D01*
X008100Y002929D01*
X008100Y002531D01*
X008381Y002250D01*
X008232Y002399D02*
X007605Y002399D01*
X007615Y002241D02*
X010042Y002241D01*
X010042Y002399D02*
X009900Y002399D01*
X009771Y002270D02*
X010040Y002539D01*
X010040Y002720D01*
X009590Y002720D01*
X009590Y002740D01*
X009570Y002740D01*
X009570Y003190D01*
X009389Y003190D01*
X009120Y002921D01*
X009120Y002740D01*
X009570Y002740D01*
X009570Y002720D01*
X009120Y002720D01*
X009120Y002539D01*
X009389Y002270D01*
X009570Y002270D01*
X009570Y002720D01*
X009590Y002720D01*
X009590Y002270D01*
X009771Y002270D01*
X009590Y002399D02*
X009570Y002399D01*
X009570Y002558D02*
X009590Y002558D01*
X009590Y002716D02*
X009570Y002716D01*
X009590Y002740D02*
X010040Y002740D01*
X010040Y002921D01*
X009771Y003190D01*
X009590Y003190D01*
X009590Y002740D01*
X009590Y002875D02*
X009570Y002875D01*
X009570Y003033D02*
X009590Y003033D01*
X009879Y003350D02*
X010042Y003350D01*
X010042Y003192D02*
X008797Y003192D01*
X008779Y003250D02*
X009060Y003531D01*
X009060Y003929D01*
X008779Y004210D01*
X008381Y004210D01*
X008100Y003929D01*
X008100Y003531D01*
X008381Y003250D01*
X008779Y003250D01*
X008879Y003350D02*
X009281Y003350D01*
X009123Y003509D02*
X009037Y003509D01*
X009060Y003667D02*
X009100Y003667D01*
X009100Y003826D02*
X009060Y003826D01*
X009005Y003984D02*
X009155Y003984D01*
X009314Y004143D02*
X008846Y004143D01*
X008771Y004270D02*
X009040Y004539D01*
X009040Y004720D01*
X008590Y004720D01*
X008590Y004740D01*
X008570Y004740D01*
X008570Y005190D01*
X008389Y005190D01*
X008120Y004921D01*
X008120Y004740D01*
X008570Y004740D01*
X008570Y004720D01*
X008120Y004720D01*
X008120Y004539D01*
X008389Y004270D01*
X008570Y004270D01*
X008570Y004720D01*
X008590Y004720D01*
X008590Y004270D01*
X008771Y004270D01*
X008802Y004301D02*
X009330Y004301D01*
X009172Y004460D02*
X008960Y004460D01*
X009040Y004618D02*
X009100Y004618D01*
X009040Y004740D02*
X009040Y004921D01*
X008771Y005190D01*
X008590Y005190D01*
X008590Y004740D01*
X009040Y004740D01*
X009040Y004777D02*
X009100Y004777D01*
X009106Y004935D02*
X009026Y004935D01*
X008867Y005094D02*
X009265Y005094D01*
X009379Y005252D02*
X008781Y005252D01*
X008939Y005411D02*
X009221Y005411D01*
X009100Y005569D02*
X009060Y005569D01*
X009060Y005728D02*
X009100Y005728D01*
X009100Y005886D02*
X009060Y005886D01*
X009147Y006045D02*
X009216Y006045D01*
X009306Y006203D02*
X009374Y006203D01*
X009570Y006362D02*
X009590Y006362D01*
X009590Y006520D02*
X009570Y006520D01*
X009570Y006679D02*
X009590Y006679D01*
X009590Y006837D02*
X009570Y006837D01*
X009570Y006996D02*
X009590Y006996D01*
X009590Y007154D02*
X009570Y007154D01*
X009807Y007154D02*
X010042Y007154D01*
X010042Y007313D02*
X009841Y007313D01*
X010000Y007471D02*
X010042Y007471D01*
X010042Y006996D02*
X009965Y006996D01*
X010040Y006837D02*
X010042Y006837D01*
X010040Y006679D02*
X010042Y006679D01*
X010042Y006520D02*
X010021Y006520D01*
X010042Y006362D02*
X009862Y006362D01*
X009786Y006203D02*
X010042Y006203D01*
X010042Y006045D02*
X009944Y006045D01*
X009939Y005411D02*
X010042Y005411D01*
X010042Y005252D02*
X009781Y005252D01*
X009895Y005094D02*
X010042Y005094D01*
X010042Y004460D02*
X009988Y004460D01*
X010042Y004301D02*
X009830Y004301D01*
X009846Y004143D02*
X010042Y004143D01*
X010042Y003984D02*
X010005Y003984D01*
X010037Y003509D02*
X010042Y003509D01*
X010042Y003033D02*
X009928Y003033D01*
X010040Y002875D02*
X010042Y002875D01*
X010040Y002716D02*
X010042Y002716D01*
X010040Y002558D02*
X010042Y002558D01*
X010042Y002082D02*
X009907Y002082D01*
X009253Y002082D02*
X008907Y002082D01*
X009060Y001924D02*
X009100Y001924D01*
X009100Y001765D02*
X009060Y001765D01*
X009060Y001607D02*
X009100Y001607D01*
X009260Y002399D02*
X008928Y002399D01*
X009060Y002558D02*
X009120Y002558D01*
X009120Y002716D02*
X009060Y002716D01*
X009060Y002875D02*
X009120Y002875D01*
X009232Y003033D02*
X008956Y003033D01*
X008363Y003192D02*
X005930Y003192D01*
X005950Y003033D02*
X008204Y003033D01*
X008100Y002875D02*
X005950Y002875D01*
X005950Y002716D02*
X006373Y002716D01*
X006174Y002558D02*
X005989Y002558D01*
X006068Y002399D02*
X006105Y002399D01*
X006095Y002241D02*
X006080Y002241D01*
X006035Y002082D02*
X006137Y002082D01*
X006253Y001924D02*
X005910Y001924D01*
X006223Y001607D02*
X000460Y001607D01*
X000460Y001448D02*
X006125Y001448D01*
X006095Y001290D02*
X000460Y001290D01*
X000460Y001131D02*
X006117Y001131D01*
X006204Y000973D02*
X000460Y000973D01*
X000460Y000814D02*
X006446Y000814D01*
X007264Y000814D02*
X008100Y000814D01*
X008100Y000656D02*
X000460Y000656D01*
X000460Y000497D02*
X008157Y000497D01*
X008100Y001607D02*
X007487Y001607D01*
X007536Y002558D02*
X008100Y002558D01*
X008100Y002716D02*
X007337Y002716D01*
X006649Y003505D02*
X006890Y003746D01*
X007020Y004060D01*
X007020Y004400D01*
X006890Y004714D01*
X006649Y004955D01*
X006335Y005085D01*
X005995Y005085D01*
X005681Y004955D01*
X005440Y004714D01*
X005310Y004400D01*
X005310Y004060D01*
X005440Y003746D01*
X005681Y003505D01*
X005995Y003375D01*
X006335Y003375D01*
X006649Y003505D01*
X006653Y003509D02*
X008123Y003509D01*
X008100Y003667D02*
X006811Y003667D01*
X006923Y003826D02*
X008100Y003826D01*
X008155Y003984D02*
X006989Y003984D01*
X007020Y004143D02*
X008314Y004143D01*
X008358Y004301D02*
X007020Y004301D01*
X006995Y004460D02*
X008200Y004460D01*
X008120Y004618D02*
X006930Y004618D01*
X006828Y004777D02*
X008120Y004777D01*
X008134Y004935D02*
X006669Y004935D01*
X007280Y005569D02*
X005138Y005569D01*
X005138Y005411D02*
X008221Y005411D01*
X008100Y005569D02*
X007930Y005569D01*
X008029Y005728D02*
X008100Y005728D01*
X008100Y005886D02*
X008064Y005886D01*
X007634Y006362D02*
X005075Y006362D01*
X005018Y006520D02*
X007819Y006520D01*
X008100Y006679D02*
X004859Y006679D01*
X005138Y006203D02*
X007292Y006203D01*
X007186Y006045D02*
X005138Y006045D01*
X005138Y005886D02*
X007155Y005886D01*
X007181Y005728D02*
X005138Y005728D01*
X004780Y005607D02*
X004780Y006080D01*
X004755Y006105D01*
X004384Y006045D02*
X004351Y006045D01*
X004351Y005886D02*
X004384Y005886D01*
X004384Y005728D02*
X004351Y005728D01*
X004761Y005588D02*
X004780Y005607D01*
X005138Y005252D02*
X008379Y005252D01*
X008293Y005094D02*
X005138Y005094D01*
X005138Y004935D02*
X005661Y004935D01*
X005502Y004777D02*
X005081Y004777D01*
X005081Y004618D02*
X005400Y004618D01*
X005335Y004460D02*
X005081Y004460D01*
X005081Y004301D02*
X005310Y004301D01*
X005310Y004143D02*
X005081Y004143D01*
X005179Y003984D02*
X005341Y003984D01*
X005337Y003826D02*
X005407Y003826D01*
X005496Y003667D02*
X005519Y003667D01*
X005654Y003509D02*
X005677Y003509D01*
X005813Y003350D02*
X008281Y003350D01*
X008570Y004301D02*
X008590Y004301D01*
X008590Y004460D02*
X008570Y004460D01*
X008570Y004618D02*
X008590Y004618D01*
X008590Y004777D02*
X008570Y004777D01*
X008570Y004935D02*
X008590Y004935D01*
X008590Y005094D02*
X008570Y005094D01*
X008100Y006837D02*
X005652Y006837D01*
X005811Y006996D02*
X008167Y006996D01*
X008325Y007154D02*
X005969Y007154D01*
X006128Y007313D02*
X008319Y007313D01*
X007186Y007471D02*
X006286Y007471D01*
X006445Y007630D02*
X007028Y007630D01*
X006869Y007788D02*
X006603Y007788D01*
X005427Y010324D02*
X008307Y010324D01*
X009570Y010166D02*
X009590Y010166D01*
X009590Y010007D02*
X009570Y010007D01*
X009570Y009849D02*
X009590Y009849D01*
X009795Y010166D02*
X010042Y010166D01*
X010042Y010324D02*
X009853Y010324D01*
X010011Y010483D02*
X010042Y010483D01*
X010042Y010007D02*
X009954Y010007D01*
X010040Y009849D02*
X010042Y009849D01*
X010042Y009056D02*
X009933Y009056D01*
X004606Y011909D02*
X002005Y011909D01*
X002005Y011751D02*
X004448Y011751D01*
X004289Y011592D02*
X001950Y011592D01*
X002004Y011434D02*
X004131Y011434D01*
X003972Y011275D02*
X002005Y011275D01*
X002005Y011117D02*
X003814Y011117D01*
X003655Y010958D02*
X002005Y010958D01*
X001942Y010800D02*
X003497Y010800D01*
X003338Y010641D02*
X001912Y010641D01*
D17*
X002030Y012630D03*
X005293Y007818D03*
X004780Y007468D03*
X003382Y007018D03*
X002655Y006780D03*
X002905Y004455D03*
X003580Y004455D03*
X003805Y002555D03*
X005630Y002280D03*
X007605Y005880D03*
X006830Y007580D03*
X007605Y008230D03*
X007605Y008955D03*
D18*
X003186Y005588D02*
X003186Y005136D01*
X003180Y005130D01*
X002399Y005588D02*
X002380Y005569D01*
D19*
X010030Y009730D02*
X010055Y009755D01*
D20*
X010052Y011930D02*
X010052Y002730D01*
X009580Y002730D01*
D21*
X010055Y009755D02*
X010055Y011930D01*
X010052Y011930D01*
D22*
X009580Y011730D02*
X009080Y011230D01*
X005180Y011230D01*
X003230Y009280D01*
X002780Y009630D02*
X002780Y008805D01*
X002780Y009630D02*
X004880Y011730D01*
X008580Y011730D01*
X008580Y010730D02*
X005380Y010730D01*
X004055Y009405D01*
X003843Y008868D02*
X002655Y007680D01*
X002655Y006780D01*
X002955Y006480D01*
X004605Y006480D01*
X004755Y006330D01*
X004755Y006105D01*
X004761Y005588D02*
X004761Y003949D01*
X005630Y003080D01*
X005630Y002280D01*
X006855Y001280D02*
X006857Y001267D01*
X006862Y001255D01*
X006870Y001245D01*
X006880Y001237D01*
X006892Y001232D01*
X006905Y001230D01*
X009580Y001230D01*
X009580Y000730D01*
X009580Y001230D02*
X009580Y001730D01*
X007605Y005880D02*
X007955Y006230D01*
X008880Y006230D01*
X009080Y006430D01*
X009080Y007230D01*
X009580Y007730D01*
X009080Y008230D02*
X009580Y008730D01*
X009080Y008230D02*
X007605Y008230D01*
X007380Y007730D02*
X006880Y008230D01*
X006593Y008230D01*
X005380Y007018D01*
X003382Y007018D01*
X004205Y008455D02*
X005480Y009730D01*
X008580Y009730D01*
X008355Y008955D02*
X008580Y008730D01*
X008355Y008955D02*
X007605Y008955D01*
X007380Y007730D02*
X008580Y007730D01*
X006155Y008680D02*
X006155Y009305D01*
X005680Y009043D02*
X004780Y008143D01*
X004780Y007468D01*
X005293Y007818D02*
X006155Y008680D01*
X003974Y005588D02*
X003974Y004836D01*
X004105Y004705D01*
X004105Y004255D01*
X003780Y003930D01*
X003430Y003930D01*
X002905Y004455D01*
X003180Y004855D02*
X003180Y005130D01*
X003180Y004855D02*
X003580Y004455D01*
D23*
X004205Y008455D03*
X003843Y008868D03*
X004055Y009405D03*
X003230Y009280D03*
X002780Y008805D03*
X005680Y009043D03*
X006155Y009305D03*
M02*
