%
M48
M72
T01C0.0236
T02C0.0360
T03C0.0394
T04C0.0400
%
T01
X2343Y6668
X2955Y6668
X4280Y7943
X3880Y8405
X4280Y8830
X3480Y9255
X2805Y9680
X830Y10605
X3130Y12230
X4980Y10630
X6805Y7955
X7555Y7805
X7530Y8730
X6105Y6730
X6105Y6105
X4868Y7380
X7555Y5705
T02
X8580Y5730
X8580Y4730
X8580Y3730
X8580Y2730
X8580Y1730
X8580Y730
X9580Y730
X9580Y1730
X9580Y2730
X9580Y3730
X9580Y4730
X9580Y5730
X9580Y6730
X9580Y7730
X9580Y8730
X9580Y9730
X9580Y10730
X9580Y11730
X9580Y12730
X8580Y12730
X8580Y11730
X8580Y10730
X8580Y9730
X8580Y8730
X8580Y7730
X8580Y6730
X6805Y1730
X6805Y730
T03
X2714Y2349
X4446Y2349
T04
X4930Y4930
X3930Y4930
X2930Y4930
X1930Y4930
M30
