G75*
G70*
%OFA0B0*%
%FSLAX24Y24*%
%IPPOS*%
%LPD*%
%AMOC8*
5,1,8,0,0,1.08239X$1,22.5*
%
%ADD10R,0.0551X0.0748*%
%ADD11R,0.0709X0.0630*%
%ADD12R,0.0630X0.0709*%
%ADD13R,0.0630X0.0710*%
%ADD14R,0.0787X0.0945*%
%ADD15R,0.0197X0.0909*%
%ADD16R,0.0450X0.0100*%
%ADD17R,0.0100X0.0450*%
D10*
X005820Y010589D03*
X006765Y010589D03*
X006765Y012321D03*
X005820Y012321D03*
D11*
X006830Y009556D03*
X006830Y008454D03*
X001625Y007550D03*
X001625Y006448D03*
D12*
X001229Y011805D03*
X002331Y011805D03*
X003354Y012180D03*
X004456Y012180D03*
D13*
X004070Y005180D03*
X003090Y005180D03*
X001970Y005180D03*
X005190Y005180D03*
D14*
X001848Y001168D03*
X001848Y003333D03*
X005312Y003333D03*
X005312Y001168D03*
D15*
X004210Y003555D03*
X003895Y003555D03*
X003580Y003555D03*
X003265Y003555D03*
X002950Y003555D03*
D16*
X002102Y008316D03*
X002102Y008513D03*
X002102Y008710D03*
X002102Y008907D03*
X002102Y009103D03*
X002102Y009300D03*
X002102Y009497D03*
X002102Y009694D03*
X004858Y009694D03*
X004858Y009497D03*
X004858Y009300D03*
X004858Y009103D03*
X004858Y008907D03*
X004858Y008710D03*
X004858Y008513D03*
X004858Y008316D03*
D17*
X004169Y007627D03*
X003972Y007627D03*
X003775Y007627D03*
X003578Y007627D03*
X003382Y007627D03*
X003185Y007627D03*
X002988Y007627D03*
X002791Y007627D03*
X002791Y010383D03*
X002988Y010383D03*
X003185Y010383D03*
X003382Y010383D03*
X003578Y010383D03*
X003775Y010383D03*
X003972Y010383D03*
X004169Y010383D03*
M02*
