G75*
G70*
%OFA0B0*%
%FSLAX24Y24*%
%IPPOS*%
%LPD*%
%AMOC8*
5,1,8,0,0,1.08239X$1,22.5*
%
%ADD10R,0.0500X0.0220*%
%ADD11R,0.0220X0.0500*%
%ADD12R,0.0551X0.0748*%
%ADD13R,0.0709X0.0630*%
%ADD14R,0.0630X0.0709*%
%ADD15R,0.0630X0.0710*%
%ADD16R,0.0787X0.0945*%
%ADD17R,0.0197X0.0909*%
D10*
X001590Y007878D03*
X001590Y008193D03*
X001590Y008508D03*
X001590Y008823D03*
X001590Y009137D03*
X001590Y009452D03*
X001590Y009767D03*
X001590Y010082D03*
X004970Y010082D03*
X004970Y009767D03*
X004970Y009452D03*
X004970Y009137D03*
X004970Y008823D03*
X004970Y008508D03*
X004970Y008193D03*
X004970Y007878D03*
D11*
X004382Y007290D03*
X004067Y007290D03*
X003752Y007290D03*
X003437Y007290D03*
X003123Y007290D03*
X002808Y007290D03*
X002493Y007290D03*
X002178Y007290D03*
X002178Y010670D03*
X002493Y010670D03*
X002808Y010670D03*
X003123Y010670D03*
X003437Y010670D03*
X003752Y010670D03*
X004067Y010670D03*
X004382Y010670D03*
D12*
X006183Y010939D03*
X007127Y010939D03*
X007127Y012671D03*
X006183Y012671D03*
D13*
X006805Y009756D03*
X006805Y008654D03*
X006805Y004131D03*
X006805Y003029D03*
D14*
X005056Y012230D03*
X003954Y012230D03*
X002306Y012230D03*
X001204Y012230D03*
D15*
X001820Y005930D03*
X002940Y005930D03*
X003920Y005930D03*
X005040Y005930D03*
D16*
X001848Y001168D03*
X001848Y003333D03*
X005312Y003333D03*
X005312Y001168D03*
D17*
X004210Y003555D03*
X003895Y003555D03*
X003580Y003555D03*
X003265Y003555D03*
X002950Y003555D03*
M02*
