G75*
G70*
%OFA0B0*%
%FSLAX24Y24*%
%IPPOS*%
%LPD*%
%AMOC8*
5,1,8,0,0,1.08239X$1,22.5*
%
%ADD10C,0.0000*%
%ADD11R,0.0551X0.0748*%
%ADD12R,0.0709X0.0630*%
%ADD13R,0.0630X0.0709*%
%ADD14R,0.0630X0.0710*%
%ADD15C,0.0560*%
%ADD16OC8,0.0560*%
%ADD17C,0.0560*%
%ADD18R,0.0250X0.0500*%
%ADD19R,0.0787X0.0945*%
%ADD20R,0.0197X0.0909*%
%ADD21R,0.0450X0.0100*%
%ADD22R,0.0100X0.0450*%
%ADD23C,0.1310*%
%ADD24C,0.0100*%
%ADD25C,0.0500*%
%ADD26C,0.0160*%
%ADD27C,0.0240*%
%ADD28C,0.0200*%
%ADD29C,0.0450*%
D10*
X000180Y000180D02*
X000180Y013300D01*
X010322Y013300D01*
X010322Y000180D01*
X000180Y000180D01*
X002517Y002349D02*
X002519Y002376D01*
X002525Y002403D01*
X002534Y002429D01*
X002547Y002453D01*
X002563Y002476D01*
X002582Y002495D01*
X002604Y002512D01*
X002628Y002526D01*
X002653Y002536D01*
X002680Y002543D01*
X002707Y002546D01*
X002735Y002545D01*
X002762Y002540D01*
X002788Y002532D01*
X002812Y002520D01*
X002835Y002504D01*
X002856Y002486D01*
X002873Y002465D01*
X002888Y002441D01*
X002899Y002416D01*
X002907Y002390D01*
X002911Y002363D01*
X002911Y002335D01*
X002907Y002308D01*
X002899Y002282D01*
X002888Y002257D01*
X002873Y002233D01*
X002856Y002212D01*
X002835Y002194D01*
X002813Y002178D01*
X002788Y002166D01*
X002762Y002158D01*
X002735Y002153D01*
X002707Y002152D01*
X002680Y002155D01*
X002653Y002162D01*
X002628Y002172D01*
X002604Y002186D01*
X002582Y002203D01*
X002563Y002222D01*
X002547Y002245D01*
X002534Y002269D01*
X002525Y002295D01*
X002519Y002322D01*
X002517Y002349D01*
X004249Y002349D02*
X004251Y002376D01*
X004257Y002403D01*
X004266Y002429D01*
X004279Y002453D01*
X004295Y002476D01*
X004314Y002495D01*
X004336Y002512D01*
X004360Y002526D01*
X004385Y002536D01*
X004412Y002543D01*
X004439Y002546D01*
X004467Y002545D01*
X004494Y002540D01*
X004520Y002532D01*
X004544Y002520D01*
X004567Y002504D01*
X004588Y002486D01*
X004605Y002465D01*
X004620Y002441D01*
X004631Y002416D01*
X004639Y002390D01*
X004643Y002363D01*
X004643Y002335D01*
X004639Y002308D01*
X004631Y002282D01*
X004620Y002257D01*
X004605Y002233D01*
X004588Y002212D01*
X004567Y002194D01*
X004545Y002178D01*
X004520Y002166D01*
X004494Y002158D01*
X004467Y002153D01*
X004439Y002152D01*
X004412Y002155D01*
X004385Y002162D01*
X004360Y002172D01*
X004336Y002186D01*
X004314Y002203D01*
X004295Y002222D01*
X004279Y002245D01*
X004266Y002269D01*
X004257Y002295D01*
X004251Y002322D01*
X004249Y002349D01*
D11*
X005820Y010589D03*
X006765Y010589D03*
X006765Y012321D03*
X005820Y012321D03*
D12*
X006830Y009556D03*
X006830Y008454D03*
X001625Y007550D03*
X001625Y006448D03*
D13*
X001229Y011805D03*
X002331Y011805D03*
X003354Y012180D03*
X004456Y012180D03*
D14*
X004070Y005180D03*
X003090Y005180D03*
X001970Y005180D03*
X005190Y005180D03*
D15*
X008580Y000730D03*
D16*
X008580Y001730D03*
X008580Y002730D03*
X008580Y003730D03*
X008580Y004730D03*
X008580Y005730D03*
X008580Y006730D03*
X008580Y007730D03*
X008580Y008730D03*
X008580Y009730D03*
X008580Y010730D03*
X008580Y011730D03*
X008580Y012730D03*
X009580Y012730D03*
X009580Y011730D03*
X009580Y010730D03*
X009580Y009730D03*
X009580Y008730D03*
X009580Y007730D03*
X009580Y006730D03*
X009580Y005730D03*
X009580Y004730D03*
X009580Y003730D03*
X009580Y002730D03*
X009580Y001730D03*
X009580Y000730D03*
D17*
X007135Y001280D02*
X006575Y001280D01*
X006575Y002280D02*
X007135Y002280D01*
D18*
X007045Y005268D03*
X006690Y005268D03*
X006690Y006755D03*
X007045Y006755D03*
D19*
X005312Y003333D03*
X005312Y001168D03*
X001848Y001168D03*
X001848Y003333D03*
D20*
X002950Y003555D03*
X003265Y003555D03*
X003580Y003555D03*
X003895Y003555D03*
X004210Y003555D03*
D21*
X004858Y008316D03*
X004858Y008513D03*
X004858Y008710D03*
X004858Y008907D03*
X004858Y009103D03*
X004858Y009300D03*
X004858Y009497D03*
X004858Y009694D03*
X002102Y009694D03*
X002102Y009497D03*
X002102Y009300D03*
X002102Y009103D03*
X002102Y008907D03*
X002102Y008710D03*
X002102Y008513D03*
X002102Y008316D03*
D22*
X002791Y007627D03*
X002988Y007627D03*
X003185Y007627D03*
X003382Y007627D03*
X003578Y007627D03*
X003775Y007627D03*
X003972Y007627D03*
X004169Y007627D03*
X004169Y010383D03*
X003972Y010383D03*
X003775Y010383D03*
X003578Y010383D03*
X003382Y010383D03*
X003185Y010383D03*
X002988Y010383D03*
X002791Y010383D03*
D23*
X000995Y004230D03*
X006165Y004230D03*
D24*
X004169Y007627D02*
X004169Y008419D01*
X004205Y008455D01*
X003972Y008163D02*
X003468Y008668D01*
X003468Y009005D01*
X003868Y009405D01*
X004055Y009405D01*
X004475Y009300D02*
X004043Y008868D01*
X003843Y008868D01*
X003230Y008630D02*
X003775Y008085D01*
X003775Y007627D01*
X003578Y007627D02*
X003578Y008007D01*
X002780Y008805D01*
X003230Y008630D02*
X003230Y009280D01*
X002630Y009630D02*
X002630Y009780D01*
X002755Y009905D01*
X004143Y009905D01*
X004550Y009497D01*
X004858Y009497D01*
X005172Y009497D01*
X005406Y009731D01*
X005555Y009455D02*
X006005Y009455D01*
X006155Y009305D01*
X005680Y009043D02*
X005544Y008907D01*
X004858Y008907D01*
X004858Y009103D02*
X005203Y009103D01*
X005555Y009455D01*
X005143Y010018D02*
X004858Y009733D01*
X004858Y009694D01*
X004858Y009300D02*
X004475Y009300D01*
X004858Y008710D02*
X005513Y008710D01*
X005593Y008630D01*
X006680Y008630D01*
X006693Y008643D01*
X006686Y008710D01*
X006830Y008454D01*
X006218Y008130D02*
X006218Y008030D01*
X006218Y008130D02*
X005918Y008430D01*
X005530Y008430D01*
X005447Y008513D01*
X004858Y008513D01*
X004858Y008316D02*
X005331Y008316D01*
X005443Y008205D01*
X005655Y008205D01*
X005805Y008055D01*
X005805Y008005D01*
X003972Y008163D02*
X003972Y007627D01*
X003382Y007619D02*
X003382Y007627D01*
X003382Y007619D02*
X003382Y007619D01*
X003382Y007018D01*
X002102Y009300D02*
X001235Y009300D01*
X002102Y009497D02*
X002497Y009497D01*
X002630Y009630D01*
X004169Y010383D02*
X004169Y010744D01*
X004180Y010755D01*
D25*
X002030Y012630D03*
X005293Y007818D03*
X004780Y007468D03*
X003382Y007018D03*
X002655Y006780D03*
X002905Y004455D03*
X003580Y004455D03*
X003805Y002555D03*
X005630Y002280D03*
X007605Y005880D03*
X006830Y007580D03*
X007605Y008230D03*
X007605Y008955D03*
D26*
X007004Y009730D02*
X006830Y009556D01*
X006731Y009730D01*
X005407Y009730D01*
X005406Y009731D01*
X005143Y010018D02*
X006268Y010018D01*
X006765Y010515D01*
X006765Y010589D01*
X006914Y010589D01*
X005820Y012321D02*
X005746Y012321D01*
X001230Y011806D02*
X001229Y011805D01*
X001030Y011829D01*
X001030Y012080D01*
X001229Y009306D02*
X001235Y009300D01*
X004068Y005340D02*
X004070Y005180D01*
X004070Y004945D01*
X003268Y003980D02*
X003255Y003565D01*
X003265Y003555D01*
X001970Y004890D02*
X001970Y005180D01*
X005190Y005180D02*
X005380Y005180D01*
D27*
X005293Y005283D02*
X005190Y005180D01*
X005293Y005283D02*
X005293Y007818D01*
X005805Y008005D02*
X005805Y005468D01*
X006005Y005268D01*
X006690Y005268D01*
X007045Y005268D02*
X007393Y005268D01*
X007605Y005480D01*
X007605Y005880D01*
X007418Y006755D02*
X007045Y006755D01*
X007418Y006755D02*
X007605Y006943D01*
X007605Y008230D01*
X007605Y008955D02*
X007605Y009505D01*
X007380Y009730D01*
X007004Y009730D01*
X006914Y010589D02*
X007368Y011043D01*
X007368Y012768D01*
X007193Y012943D01*
X005219Y012943D01*
X004456Y012180D01*
X003580Y011355D02*
X002781Y011355D01*
X002331Y011805D01*
X002030Y012630D02*
X001405Y012630D01*
X001230Y012455D01*
X001230Y011806D01*
X001229Y011805D02*
X001229Y009306D01*
X001229Y007946D01*
X001625Y007550D01*
X001625Y006448D02*
X002323Y006448D01*
X002655Y006780D01*
X003330Y006305D02*
X003090Y006065D01*
X003090Y005180D01*
X002905Y004455D02*
X002405Y004455D01*
X001970Y004890D01*
X003330Y006305D02*
X004480Y006305D01*
X004780Y006605D01*
X004780Y007468D01*
X006218Y006918D02*
X006380Y006755D01*
X006690Y006755D01*
X006218Y006918D02*
X006218Y008030D01*
X006830Y008454D02*
X006830Y007580D01*
X004180Y010755D02*
X005746Y012321D01*
X004180Y010755D02*
X003580Y011355D01*
X003354Y012180D02*
X002904Y012630D01*
X002030Y012630D01*
X004070Y004945D02*
X003580Y004455D01*
X005630Y002280D02*
X006855Y002280D01*
D28*
X005630Y002280D02*
X005180Y002280D01*
X004705Y001805D01*
X003705Y001805D01*
X003330Y002180D01*
X003330Y002630D01*
X002950Y003010D01*
X002950Y003555D01*
X003268Y003980D02*
X003268Y004093D01*
X002905Y004455D01*
X002893Y004468D01*
X003580Y004455D02*
X003580Y003555D01*
X004210Y003555D02*
X004210Y002960D01*
X003805Y002555D01*
D29*
X004205Y008455D03*
X003843Y008868D03*
X004055Y009405D03*
X003230Y009280D03*
X002780Y008805D03*
X005680Y009043D03*
X006155Y009305D03*
M02*
