G75*
G70*
%OFA0B0*%
%FSLAX24Y24*%
%IPPOS*%
%LPD*%
%AMOC8*
5,1,8,0,0,1.08239X$1,22.5*
%
%ADD10C,0.0000*%
%ADD11R,0.2953X0.0591*%
%ADD12R,0.2559X0.0394*%
%ADD13R,0.0315X0.0315*%
%ADD14R,0.0394X0.0433*%
%ADD15R,0.0433X0.0394*%
%ADD16R,0.0591X0.0157*%
%ADD17R,0.0500X0.0250*%
%ADD18C,0.0100*%
%ADD19C,0.0357*%
%ADD20C,0.0160*%
D10*
X000101Y000573D02*
X000101Y005323D01*
X004351Y005323D01*
X004351Y005698D01*
X010101Y005698D01*
X010101Y000198D01*
X004351Y000198D01*
X004351Y000573D01*
X000101Y000573D01*
D11*
X002022Y001570D03*
X002022Y004326D03*
D12*
X002219Y003341D03*
X002219Y002554D03*
D13*
X004216Y002288D03*
X004806Y002288D03*
X004806Y001868D03*
X004216Y001868D03*
X004076Y004808D03*
X004666Y004808D03*
D14*
X005296Y005018D03*
X005965Y005018D03*
X004705Y001303D03*
X004036Y001303D03*
D15*
X006486Y005018D03*
X007155Y005018D03*
X007676Y005018D03*
X008345Y005018D03*
D16*
X008308Y004011D03*
X008308Y003755D03*
X008308Y003499D03*
X008308Y003243D03*
X008308Y002987D03*
X008308Y002731D03*
X008308Y002476D03*
X008308Y002220D03*
X008308Y001964D03*
X008308Y001708D03*
X008308Y001452D03*
X008308Y001196D03*
X008308Y000940D03*
X008308Y000684D03*
X005454Y000684D03*
X005454Y000940D03*
X005454Y001196D03*
X005454Y001452D03*
X005454Y001708D03*
X005454Y001964D03*
X005454Y002220D03*
X005454Y002476D03*
X005454Y002731D03*
X005454Y002987D03*
X005454Y003243D03*
X005454Y003499D03*
X005454Y003755D03*
X005454Y004011D03*
D17*
X009601Y004448D03*
X009601Y005448D03*
X009601Y003448D03*
X009601Y002448D03*
X009601Y001448D03*
X009601Y000448D03*
D18*
X009081Y000448D01*
X008921Y000608D01*
X009391Y000448D02*
X009601Y000448D01*
X009691Y000938D02*
X009691Y000958D01*
X009601Y001048D01*
X009601Y001448D01*
X009591Y001448D01*
X009601Y001458D01*
X009601Y001708D01*
X009691Y001798D01*
X009691Y001938D01*
X009691Y002008D01*
X009551Y002148D01*
X008781Y002148D01*
X008709Y002220D01*
X008239Y002220D01*
X008241Y002218D01*
X008239Y002220D02*
X008308Y002220D01*
X008239Y002220D02*
X008231Y002228D01*
X007591Y002359D02*
X007591Y001868D01*
X007346Y001623D01*
X007521Y001448D01*
X008361Y001448D01*
X008781Y001448D01*
X009201Y001798D01*
X008361Y001448D02*
X008356Y001452D01*
X008308Y001452D01*
X008225Y001452D01*
X008221Y001448D01*
X008231Y001448D02*
X008221Y001458D01*
X008231Y001448D02*
X008235Y001452D01*
X008308Y001452D01*
X008308Y001220D02*
X008308Y001196D01*
X009102Y001196D01*
X009231Y001068D01*
X008308Y000940D02*
X007293Y000940D01*
X007171Y000778D01*
X006871Y000468D02*
X006781Y000558D01*
X006871Y000468D02*
X007941Y000468D01*
X008151Y000678D01*
X008291Y000678D01*
X008297Y000684D01*
X008308Y000684D01*
X007346Y001623D02*
X006161Y000438D01*
X004981Y000438D01*
X004881Y000538D01*
X004881Y000768D01*
X004721Y000928D01*
X004721Y001308D01*
X004716Y001303D01*
X004705Y001303D01*
X004705Y001253D01*
X004721Y001238D01*
X004076Y001222D02*
X004036Y001183D01*
X004036Y001303D01*
X004036Y001312D01*
X004011Y001338D01*
X004041Y001368D01*
X004041Y001618D01*
X004216Y001792D01*
X004216Y001868D01*
X004231Y001938D01*
X004216Y001953D01*
X004216Y002288D01*
X003881Y002498D02*
X003881Y001868D01*
X003583Y001570D01*
X002022Y001570D01*
X002219Y002554D02*
X002257Y002554D01*
X002271Y002568D01*
X003601Y002568D01*
X004021Y002988D01*
X004200Y002988D01*
X004970Y003758D01*
X005491Y003758D01*
X005488Y003755D01*
X005454Y003755D01*
X005454Y003499D02*
X005959Y003499D01*
X006084Y003493D01*
X006486Y003895D01*
X006486Y004638D01*
X006491Y004638D01*
X006521Y004668D01*
X008151Y004668D01*
X008345Y004862D01*
X008345Y005018D01*
X008641Y005018D01*
X008851Y005228D01*
X009271Y004878D02*
X009601Y005138D01*
X009601Y005448D01*
X009621Y004458D02*
X009621Y004178D01*
X009481Y004038D01*
X009411Y004038D01*
X009601Y004448D02*
X009611Y004448D01*
X009621Y004458D01*
X009601Y003448D02*
X009591Y003378D01*
X009591Y003168D01*
X009481Y003058D01*
X009621Y002498D02*
X008861Y002498D01*
X009601Y002448D02*
X009621Y002498D01*
X009601Y002448D02*
X009621Y002428D01*
X008308Y001708D02*
X008291Y001708D01*
X008291Y001708D01*
X007971Y001708D01*
X007871Y001808D01*
X007871Y003708D01*
X007641Y003938D01*
X007591Y003938D01*
X006650Y003508D02*
X007301Y002858D01*
X007531Y002858D01*
X007422Y002528D02*
X007084Y002528D01*
X006414Y003198D01*
X006379Y003198D01*
X006084Y003493D01*
X006550Y003508D02*
X006650Y003508D01*
X005911Y003158D02*
X005831Y003238D01*
X005491Y003238D01*
X005471Y003258D01*
X005456Y003243D01*
X005454Y003243D01*
X005445Y003243D01*
X005421Y003268D01*
X005454Y003243D02*
X005466Y003243D01*
X005530Y003228D01*
X004852Y003228D01*
X004782Y003119D01*
X004274Y003341D02*
X004970Y004038D01*
X005421Y004038D01*
X005447Y004011D01*
X005454Y004011D01*
X006051Y003988D02*
X006080Y003978D01*
X006051Y003988D02*
X006051Y004388D01*
X005965Y004473D01*
X005965Y005018D01*
X006476Y005023D02*
X006486Y005018D01*
X006486Y004638D01*
X007101Y005018D02*
X007155Y005018D01*
X007171Y005018D01*
X007171Y005088D01*
X006891Y005368D01*
X004721Y005368D01*
X004441Y005088D01*
X004301Y005088D01*
X004021Y004808D01*
X004076Y004808D01*
X004006Y004693D01*
X004011Y004688D01*
X003663Y004340D01*
X003663Y004326D01*
X004161Y003828D01*
X004279Y003797D01*
X004274Y003341D02*
X002219Y003341D01*
X003881Y002498D02*
X004021Y002638D01*
X004891Y002638D01*
X004991Y002738D01*
X005441Y002738D01*
X005451Y002728D01*
X005454Y002730D01*
X005454Y002731D01*
X005457Y002731D01*
X005471Y002718D01*
X005454Y002476D02*
X005889Y002476D01*
X005911Y002498D01*
X005911Y001518D01*
X006331Y001518D01*
X006821Y002008D01*
X007241Y001938D02*
X007241Y002218D01*
X007422Y002528D02*
X007591Y002359D01*
X007241Y001938D02*
X006081Y000778D01*
X006021Y000778D01*
X005454Y001196D02*
X005454Y001410D01*
X005491Y001448D01*
X005841Y001448D01*
X005911Y001518D01*
X005491Y001448D02*
X005486Y001452D01*
X005454Y001452D01*
X005001Y001868D02*
X004806Y001868D01*
X005001Y001868D02*
X005097Y001964D01*
X005454Y001964D01*
X005454Y002220D02*
X005069Y002220D01*
X005001Y002288D01*
X004806Y002288D01*
X005911Y002498D02*
X005911Y003158D01*
X005471Y003238D02*
X005461Y003248D01*
X005456Y003243D01*
X003663Y004326D02*
X002022Y004326D01*
X004651Y004808D02*
X004666Y004808D01*
X005071Y004808D01*
X005281Y005018D01*
X005296Y005018D01*
X005281Y005018D02*
X005211Y005018D01*
X007155Y005018D02*
X007166Y005023D01*
X007171Y005018D01*
X007676Y005018D01*
X004036Y001183D02*
X004021Y001168D01*
D19*
X004881Y000768D03*
X006021Y000778D03*
X006781Y000558D03*
X007171Y000778D03*
X008921Y000608D03*
X009231Y001068D03*
X009691Y000938D03*
X009201Y001798D03*
X009691Y001938D03*
X008861Y002498D03*
X009481Y003058D03*
X009411Y004038D03*
X009271Y004878D03*
X008851Y005228D03*
X007591Y003938D03*
X006931Y003778D03*
X006550Y003508D03*
X006080Y003978D03*
X004782Y003119D03*
X004279Y003797D03*
X007241Y002218D03*
X006821Y002008D03*
X007531Y002858D03*
D20*
X007325Y003116D02*
X006878Y003563D01*
X006878Y003574D01*
X006828Y003694D01*
X006736Y003787D01*
X006683Y003809D01*
X006686Y003812D01*
X006686Y003978D01*
X006686Y004468D01*
X008234Y004468D01*
X008351Y004585D01*
X008437Y004671D01*
X008624Y004671D01*
X008712Y004759D01*
X008712Y004818D01*
X008724Y004818D01*
X008805Y004899D01*
X008916Y004899D01*
X008942Y004910D01*
X008942Y004812D01*
X008992Y004692D01*
X009085Y004599D01*
X009201Y004551D01*
X009201Y004292D01*
X009132Y004224D01*
X009082Y004103D01*
X009082Y003972D01*
X009132Y003852D01*
X009225Y003759D01*
X009313Y003723D01*
X009289Y003723D01*
X009201Y003635D01*
X009201Y003260D01*
X009210Y003251D01*
X009202Y003244D01*
X009152Y003123D01*
X009152Y002992D01*
X009202Y002872D01*
X009295Y002779D01*
X009415Y002729D01*
X009546Y002729D01*
X009667Y002779D01*
X009759Y002872D01*
X009809Y002992D01*
X009809Y003123D01*
X009791Y003167D01*
X009791Y003173D01*
X009851Y003173D01*
X009851Y002723D01*
X009289Y002723D01*
X009264Y002698D01*
X009125Y002698D01*
X009047Y002776D01*
X008926Y002826D01*
X008795Y002826D01*
X008753Y002809D01*
X008753Y002846D01*
X008753Y003102D01*
X008753Y003358D01*
X008753Y003614D01*
X008753Y003870D01*
X008753Y004152D01*
X008665Y004240D01*
X007951Y004240D01*
X007863Y004152D01*
X007863Y004130D01*
X007777Y004216D01*
X007656Y004266D01*
X007525Y004266D01*
X007405Y004216D01*
X007312Y004124D01*
X007262Y004003D01*
X007262Y003872D01*
X007312Y003752D01*
X007405Y003659D01*
X007525Y003609D01*
X007656Y003609D01*
X007671Y003615D01*
X007671Y003155D01*
X007596Y003186D01*
X007465Y003186D01*
X007345Y003136D01*
X007325Y003116D01*
X007256Y003186D02*
X007464Y003186D01*
X007597Y003186D02*
X007671Y003186D01*
X007671Y003344D02*
X007097Y003344D01*
X006939Y003503D02*
X007671Y003503D01*
X007403Y003661D02*
X006842Y003661D01*
X006686Y003820D02*
X007284Y003820D01*
X007262Y003978D02*
X006686Y003978D01*
X006686Y004137D02*
X007326Y004137D01*
X007856Y004137D02*
X007863Y004137D01*
X008753Y004137D02*
X009096Y004137D01*
X009082Y003978D02*
X008753Y003978D01*
X008753Y003820D02*
X009164Y003820D01*
X009227Y003661D02*
X008753Y003661D01*
X008753Y003503D02*
X009201Y003503D01*
X009201Y003344D02*
X008753Y003344D01*
X008753Y003186D02*
X009178Y003186D01*
X009152Y003027D02*
X008753Y003027D01*
X008753Y002869D02*
X009205Y002869D01*
X009276Y002710D02*
X009113Y002710D01*
X009756Y002869D02*
X009851Y002869D01*
X009851Y003027D02*
X009809Y003027D01*
X009201Y002298D02*
X009125Y002298D01*
X009047Y002219D01*
X008926Y002169D01*
X008795Y002169D01*
X008783Y002174D01*
X008783Y002066D01*
X008753Y002036D01*
X008753Y001823D01*
X008753Y001685D01*
X008872Y001784D01*
X008872Y001863D01*
X008922Y001984D01*
X009015Y002076D01*
X009135Y002126D01*
X009266Y002126D01*
X009387Y002076D01*
X009851Y002076D01*
X009851Y002173D02*
X009851Y001753D01*
X009601Y001753D01*
X009601Y001448D01*
X009601Y001448D01*
X009601Y001753D01*
X009529Y001753D01*
X009529Y001863D01*
X009479Y001984D01*
X009387Y002076D01*
X009289Y002173D02*
X009851Y002173D01*
X009851Y001917D02*
X009507Y001917D01*
X009529Y001759D02*
X009851Y001759D01*
X009601Y001600D02*
X009601Y001600D01*
X009600Y001448D02*
X009600Y001447D01*
X009171Y001447D01*
X009171Y001396D01*
X009165Y001396D01*
X009031Y001396D01*
X009124Y001474D01*
X009135Y001469D01*
X009171Y001469D01*
X009171Y001448D01*
X009600Y001448D01*
X009601Y001447D02*
X009601Y001447D01*
X009601Y001143D01*
X009851Y001143D01*
X009851Y000723D01*
X009289Y000723D01*
X009246Y000680D01*
X009222Y000739D01*
X009296Y000739D01*
X009417Y000789D01*
X009509Y000882D01*
X009559Y001002D01*
X009559Y001133D01*
X009555Y001143D01*
X009601Y001143D01*
X009601Y001447D01*
X009601Y001442D02*
X009601Y001442D01*
X009601Y001283D02*
X009601Y001283D01*
X009559Y001125D02*
X009851Y001125D01*
X009851Y000966D02*
X009544Y000966D01*
X009435Y000807D02*
X009851Y000807D01*
X009171Y001442D02*
X009086Y001442D01*
X008842Y001759D02*
X008753Y001759D01*
X008753Y001917D02*
X008895Y001917D01*
X008783Y002076D02*
X009014Y002076D01*
X009062Y002234D02*
X009227Y002234D01*
X009201Y002260D02*
X009289Y002173D01*
X009201Y002260D02*
X009201Y002298D01*
X008308Y002220D02*
X008071Y002220D01*
X008071Y002219D01*
X008308Y002219D01*
X008308Y002220D01*
X007007Y001987D02*
X006115Y001094D01*
X006086Y001106D01*
X005955Y001106D01*
X005929Y001095D01*
X005929Y001196D01*
X005826Y001196D01*
X005826Y001196D01*
X005929Y001196D01*
X005929Y001349D01*
X005929Y001452D01*
X005929Y001605D01*
X005899Y001635D01*
X005899Y001849D01*
X005899Y002105D01*
X005899Y002292D01*
X005929Y002322D01*
X005929Y002475D01*
X005454Y002475D01*
X005454Y002476D01*
X005929Y002476D01*
X005929Y002629D01*
X005899Y002659D01*
X005899Y002872D01*
X005899Y003060D01*
X005929Y003090D01*
X005929Y003243D01*
X005454Y003243D01*
X005454Y003243D01*
X005929Y003243D01*
X005929Y003299D01*
X005954Y003299D01*
X005997Y003297D01*
X006001Y003293D01*
X006296Y002998D01*
X006331Y002998D01*
X006951Y002377D01*
X006912Y002283D01*
X006912Y002152D01*
X006962Y002032D01*
X007007Y001987D01*
X006938Y001917D02*
X005899Y001917D01*
X005899Y001759D02*
X006779Y001759D01*
X006621Y001600D02*
X005929Y001600D01*
X005929Y001452D02*
X005826Y001452D01*
X005826Y001452D01*
X005929Y001452D01*
X005929Y001442D02*
X006462Y001442D01*
X006303Y001283D02*
X005929Y001283D01*
X005929Y001125D02*
X006145Y001125D01*
X005454Y001196D02*
X005453Y001196D01*
X005453Y001452D01*
X005454Y001452D01*
X005454Y001196D01*
X005453Y001283D02*
X005454Y001283D01*
X005453Y001442D02*
X005454Y001442D01*
X005899Y002076D02*
X006944Y002076D01*
X006912Y002234D02*
X005899Y002234D01*
X005929Y002393D02*
X006936Y002393D01*
X006777Y002551D02*
X005929Y002551D01*
X005899Y002710D02*
X006619Y002710D01*
X006460Y002869D02*
X005899Y002869D01*
X005899Y003027D02*
X006267Y003027D01*
X006108Y003186D02*
X005929Y003186D01*
X006001Y003293D02*
X006001Y003293D01*
X005453Y003243D02*
X005453Y003243D01*
X004978Y003243D01*
X004978Y003090D01*
X005008Y003060D01*
X005008Y002938D01*
X004908Y002938D01*
X004808Y002838D01*
X004333Y002838D01*
X004400Y002905D01*
X005008Y003513D01*
X005008Y003427D01*
X004978Y003397D01*
X004978Y003243D01*
X005453Y003243D01*
X004978Y003186D02*
X004681Y003186D01*
X004522Y003027D02*
X005008Y003027D01*
X004839Y002869D02*
X004364Y002869D01*
X004839Y003344D02*
X004978Y003344D01*
X004998Y003503D02*
X005008Y003503D01*
X004469Y003820D02*
X003741Y003820D01*
X003741Y003978D02*
X004628Y003978D01*
X004770Y004120D02*
X004191Y003541D01*
X003741Y003541D01*
X003741Y004573D01*
X003843Y004470D01*
X004075Y004470D01*
X004075Y004807D01*
X004076Y004807D01*
X004076Y004470D01*
X004308Y004470D01*
X004392Y004555D01*
X004446Y004500D01*
X004886Y004500D01*
X004974Y004588D01*
X004974Y004608D01*
X004988Y004608D01*
X005154Y004608D01*
X005197Y004651D01*
X005555Y004651D01*
X005631Y004727D01*
X005706Y004651D01*
X005765Y004651D01*
X005765Y004556D01*
X005765Y004390D01*
X005851Y004305D01*
X005851Y004213D01*
X005844Y004207D01*
X005811Y004240D01*
X005096Y004240D01*
X005094Y004238D01*
X004887Y004238D01*
X004770Y004120D01*
X004770Y004120D01*
X004787Y004137D02*
X003741Y004137D01*
X003741Y004295D02*
X005851Y004295D01*
X005765Y004454D02*
X003741Y004454D01*
X004075Y004612D02*
X004076Y004612D01*
X004075Y004771D02*
X004076Y004771D01*
X004075Y004807D02*
X003741Y004807D01*
X003741Y004808D01*
X004075Y004808D01*
X004075Y004807D01*
X004497Y005115D02*
X004563Y005181D01*
X004601Y005273D01*
X004601Y005372D01*
X004601Y005448D01*
X008606Y005448D01*
X008572Y005414D01*
X008552Y005364D01*
X008067Y005364D01*
X008032Y005330D01*
X007967Y005394D01*
X007695Y005394D01*
X007695Y005036D01*
X007658Y005036D01*
X007658Y005394D01*
X007446Y005394D01*
X007174Y005394D01*
X007174Y005036D01*
X007552Y005036D01*
X007657Y005036D01*
X007657Y004999D01*
X007280Y004999D01*
X007174Y004999D01*
X007174Y005036D01*
X007137Y005036D01*
X006853Y005036D01*
X006853Y004999D01*
X007137Y004999D01*
X007137Y005036D01*
X007137Y005394D01*
X006864Y005394D01*
X006800Y005330D01*
X006765Y005364D01*
X006244Y005364D01*
X006224Y005384D01*
X005706Y005384D01*
X005631Y005308D01*
X005555Y005384D01*
X005037Y005384D01*
X004949Y005296D01*
X004949Y005051D01*
X004886Y005115D01*
X004497Y005115D01*
X004590Y005247D02*
X004949Y005247D01*
X004949Y005088D02*
X004913Y005088D01*
X004601Y005405D02*
X008569Y005405D01*
X007695Y005247D02*
X007658Y005247D01*
X007658Y005088D02*
X007695Y005088D01*
X007174Y005088D02*
X007137Y005088D01*
X007137Y005247D02*
X007174Y005247D01*
X008378Y004612D02*
X009071Y004612D01*
X009201Y004454D02*
X006686Y004454D01*
X006686Y004295D02*
X009201Y004295D01*
X008959Y004771D02*
X008712Y004771D01*
X005765Y004612D02*
X005158Y004612D01*
X004311Y003661D02*
X003741Y003661D01*
M02*
