G75*
G70*
%OFA0B0*%
%FSLAX24Y24*%
%IPPOS*%
%LPD*%
%AMOC8*
5,1,8,0,0,1.08239X$1,22.5*
%
%ADD10R,0.0580X0.0330*%
%ADD11R,0.0218X0.0751*%
%ADD12C,0.0437*%
D10*
X009601Y000448D03*
X009601Y001448D03*
X009601Y002448D03*
X009601Y003448D03*
X009601Y004448D03*
X009601Y005448D03*
D11*
X004238Y001366D03*
X004494Y001366D03*
X004749Y001366D03*
X005005Y001366D03*
X005261Y001366D03*
X005517Y001366D03*
X005773Y001366D03*
X006029Y001366D03*
X006285Y001366D03*
X006541Y001366D03*
X006797Y001366D03*
X007053Y001366D03*
X007309Y001366D03*
X007564Y001366D03*
X007820Y001366D03*
X008076Y001366D03*
X008332Y001366D03*
X008588Y001366D03*
X008844Y001366D03*
X008844Y004610D03*
X008588Y004610D03*
X008332Y004610D03*
X008076Y004610D03*
X007820Y004610D03*
X007564Y004610D03*
X007309Y004610D03*
X007053Y004610D03*
X006797Y004610D03*
X006541Y004610D03*
X006285Y004610D03*
X006029Y004610D03*
X005773Y004610D03*
X005517Y004610D03*
X005261Y004610D03*
X005005Y004610D03*
X004749Y004610D03*
X004494Y004610D03*
X004238Y004610D03*
D12*
X004279Y003797D03*
X004782Y003119D03*
X006080Y003978D03*
X006550Y003508D03*
X006931Y003778D03*
X007591Y003938D03*
X009271Y004878D03*
X008851Y005228D03*
X009411Y004038D03*
X009481Y003058D03*
X008861Y002498D03*
X009691Y001938D03*
X009201Y001798D03*
X009231Y001068D03*
X009691Y000938D03*
X008921Y000608D03*
X007171Y000778D03*
X006781Y000558D03*
X006021Y000778D03*
X004881Y000768D03*
X006821Y002008D03*
X007241Y002218D03*
X007531Y002858D03*
M02*
