G75*
G70*
%OFA0B0*%
%FSLAX24Y24*%
%IPPOS*%
%LPD*%
%AMOC8*
5,1,8,0,0,1.08239X$1,22.5*
%
%ADD10R,0.2953X0.0591*%
%ADD11R,0.2559X0.0394*%
%ADD12R,0.0315X0.0315*%
%ADD13R,0.0394X0.0433*%
%ADD14R,0.0433X0.0394*%
%ADD15R,0.0591X0.0157*%
%ADD16R,0.0500X0.0250*%
D10*
X002022Y001570D03*
X002022Y004326D03*
D11*
X002219Y003341D03*
X002219Y002554D03*
D12*
X004216Y002288D03*
X004806Y002288D03*
X004806Y001868D03*
X004216Y001868D03*
X004076Y004808D03*
X004666Y004808D03*
D13*
X005296Y005018D03*
X005965Y005018D03*
X004705Y001303D03*
X004036Y001303D03*
D14*
X006486Y005018D03*
X007155Y005018D03*
X007676Y005018D03*
X008345Y005018D03*
D15*
X008308Y004011D03*
X008308Y003755D03*
X008308Y003499D03*
X008308Y003243D03*
X008308Y002987D03*
X008308Y002731D03*
X008308Y002476D03*
X008308Y002220D03*
X008308Y001964D03*
X008308Y001708D03*
X008308Y001452D03*
X008308Y001196D03*
X008308Y000940D03*
X008308Y000684D03*
X005454Y000684D03*
X005454Y000940D03*
X005454Y001196D03*
X005454Y001452D03*
X005454Y001708D03*
X005454Y001964D03*
X005454Y002220D03*
X005454Y002476D03*
X005454Y002731D03*
X005454Y002987D03*
X005454Y003243D03*
X005454Y003499D03*
X005454Y003755D03*
X005454Y004011D03*
D16*
X009601Y004448D03*
X009601Y005448D03*
X009601Y003448D03*
X009601Y002448D03*
X009601Y001448D03*
X009601Y000448D03*
M02*
