G75*
G70*
%OFA0B0*%
%FSLAX24Y24*%
%IPPOS*%
%LPD*%
%AMOC8*
5,1,8,0,0,1.08239X$1,22.5*
%
%ADD10C,0.0030*%
%ADD11C,0.0050*%
D10*
X008296Y000393D02*
X008296Y000490D01*
X008344Y000538D01*
X008392Y000345D02*
X008586Y000538D01*
X008586Y000345D01*
X008392Y000345D02*
X008344Y000345D01*
X008296Y000393D01*
X008586Y000639D02*
X008586Y000833D01*
X008586Y000736D02*
X008296Y000736D01*
X008392Y000833D01*
D11*
X008992Y001793D02*
X004070Y001793D01*
X004070Y004190D01*
X008992Y004190D01*
X008992Y001793D01*
X009101Y001948D02*
X009601Y001948D01*
X009101Y001948D02*
X009101Y000948D01*
X009601Y000948D01*
X009101Y000948D02*
X009101Y000198D01*
X009601Y000198D01*
X009101Y001948D02*
X009101Y002948D01*
X009601Y002948D01*
X009101Y002948D02*
X009101Y003948D01*
X009601Y003948D01*
X009101Y003948D02*
X009101Y004948D01*
X009601Y004948D01*
X009101Y004948D02*
X009101Y005698D01*
X009601Y005698D01*
X008675Y002045D02*
X008701Y002107D01*
X008763Y002133D01*
X008825Y002107D01*
X008851Y002045D01*
X008825Y001983D01*
X008763Y001957D01*
X008701Y001983D01*
X008675Y002045D01*
M02*
