G75*
G70*
%OFA0B0*%
%FSLAX24Y24*%
%IPPOS*%
%LPD*%
%AMOC8*
5,1,8,0,0,1.08239X$1,22.5*
%
%ADD10R,0.0500X0.0250*%
%ADD11R,0.0138X0.0671*%
%ADD12C,0.0357*%
%ADD13C,0.0100*%
D10*
X009601Y000448D03*
X009601Y001448D03*
X009601Y002448D03*
X009601Y003448D03*
X009601Y004448D03*
X009601Y005448D03*
D11*
X008844Y004610D03*
X008588Y004610D03*
X008332Y004610D03*
X008076Y004610D03*
X007820Y004610D03*
X007564Y004610D03*
X007309Y004610D03*
X007053Y004610D03*
X006797Y004610D03*
X006541Y004610D03*
X006285Y004610D03*
X006029Y004610D03*
X005773Y004610D03*
X005517Y004610D03*
X005261Y004610D03*
X005005Y004610D03*
X004749Y004610D03*
X004494Y004610D03*
X004238Y004610D03*
X004238Y001366D03*
X004494Y001366D03*
X004749Y001366D03*
X005005Y001366D03*
X005261Y001366D03*
X005517Y001366D03*
X005773Y001366D03*
X006029Y001366D03*
X006285Y001366D03*
X006541Y001366D03*
X006797Y001366D03*
X007053Y001366D03*
X007309Y001366D03*
X007564Y001366D03*
X007820Y001366D03*
X008076Y001366D03*
X008332Y001366D03*
X008588Y001366D03*
X008844Y001366D03*
D12*
X009231Y001068D03*
X009691Y000938D03*
X008921Y000608D03*
X007171Y000778D03*
X006781Y000558D03*
X006021Y000778D03*
X004881Y000768D03*
X006821Y002008D03*
X007241Y002218D03*
X007531Y002858D03*
X006550Y003508D03*
X006931Y003778D03*
X007591Y003938D03*
X006080Y003978D03*
X004782Y003119D03*
X004279Y003797D03*
X008851Y005228D03*
X009271Y004878D03*
X009411Y004038D03*
X009481Y003058D03*
X008861Y002498D03*
X009691Y001938D03*
X009201Y001798D03*
D13*
X003671Y000958D02*
X003671Y003968D01*
X003811Y004108D01*
X005631Y004108D01*
X005773Y004250D01*
X005773Y004610D01*
X005517Y004610D02*
X005517Y005044D01*
X005561Y005088D01*
X007241Y005088D01*
X007311Y005018D01*
X007311Y004598D01*
X007309Y004600D01*
X007309Y004610D01*
X007309Y004140D01*
X007511Y003938D01*
X007591Y003938D01*
X007310Y003836D02*
X006344Y003836D01*
X006333Y003809D02*
X006379Y003919D01*
X006379Y003938D01*
X006961Y003938D01*
X007061Y004037D01*
X007139Y004115D01*
X007139Y004069D01*
X007292Y003916D01*
X007292Y003878D01*
X007338Y003769D01*
X007339Y003768D01*
X007291Y003768D01*
X007150Y003768D01*
X006848Y003465D01*
X006848Y003568D01*
X006802Y003677D01*
X006719Y003761D01*
X006609Y003807D01*
X006490Y003807D01*
X006380Y003761D01*
X006297Y003677D01*
X006255Y003578D01*
X005770Y003578D01*
X005671Y003478D01*
X004650Y002458D01*
X004551Y002358D01*
X004551Y002217D01*
X004579Y002189D01*
X004579Y001821D01*
X004375Y001821D01*
X004366Y001812D01*
X004356Y001821D01*
X004119Y001821D01*
X004049Y001751D01*
X004049Y000988D01*
X003846Y000988D01*
X003841Y000998D01*
X003841Y003897D01*
X003881Y003938D01*
X005560Y003938D01*
X005701Y003938D01*
X005782Y004018D01*
X005782Y003919D01*
X005827Y003809D01*
X005911Y003725D01*
X006021Y003680D01*
X006140Y003680D01*
X006249Y003725D01*
X006333Y003809D01*
X006357Y003738D02*
X006262Y003738D01*
X006281Y003639D02*
X003841Y003639D01*
X003841Y003541D02*
X005734Y003541D01*
X005635Y003442D02*
X003841Y003442D01*
X003841Y003344D02*
X005537Y003344D01*
X005438Y003245D02*
X003841Y003245D01*
X003841Y003147D02*
X005339Y003147D01*
X005241Y003048D02*
X003841Y003048D01*
X003841Y002950D02*
X005142Y002950D01*
X005044Y002851D02*
X003841Y002851D01*
X003841Y002752D02*
X004945Y002752D01*
X004847Y002654D02*
X003841Y002654D01*
X003841Y002555D02*
X004748Y002555D01*
X004721Y002638D02*
X004721Y003058D01*
X004782Y003119D01*
X005426Y002752D02*
X006135Y002752D01*
X006037Y002654D02*
X005327Y002654D01*
X005229Y002555D02*
X005938Y002555D01*
X005840Y002457D02*
X005130Y002457D01*
X005032Y002358D02*
X005741Y002358D01*
X005643Y002260D02*
X004933Y002260D01*
X004919Y002246D02*
X005911Y003238D01*
X006378Y003238D01*
X006423Y003238D01*
X006490Y003210D01*
X006593Y003210D01*
X005601Y002218D01*
X005601Y002077D01*
X005603Y002075D01*
X005603Y001821D01*
X005422Y001821D01*
X005392Y001851D01*
X005261Y001851D01*
X005130Y001851D01*
X005100Y001821D01*
X004919Y001821D01*
X004919Y002189D01*
X004919Y002246D01*
X004919Y002161D02*
X005601Y002161D01*
X005603Y002063D02*
X004919Y002063D01*
X004919Y001964D02*
X005603Y001964D01*
X005603Y001866D02*
X004919Y001866D01*
X004579Y001866D02*
X003841Y001866D01*
X003881Y001798D02*
X004721Y002638D01*
X004650Y002458D02*
X004650Y002458D01*
X004650Y002457D02*
X003841Y002457D01*
X003841Y002358D02*
X004551Y002358D01*
X004551Y002260D02*
X003841Y002260D01*
X003841Y002161D02*
X004579Y002161D01*
X004579Y002063D02*
X003841Y002063D01*
X003841Y001964D02*
X004579Y001964D01*
X004749Y002259D02*
X004721Y002288D01*
X005841Y003408D01*
X006449Y003408D01*
X006550Y003508D01*
X006818Y003639D02*
X007022Y003639D01*
X006924Y003541D02*
X006848Y003541D01*
X006742Y003738D02*
X007121Y003738D01*
X007221Y003598D02*
X008481Y003598D01*
X009131Y004248D01*
X009131Y004738D01*
X009271Y004878D01*
X008991Y005228D02*
X008851Y005228D01*
X008991Y005228D02*
X009201Y005438D01*
X009551Y005438D01*
X009561Y005448D01*
X009601Y005448D01*
X009611Y005448D01*
X009621Y005438D01*
X009601Y005448D02*
X009601Y004478D01*
X009621Y004458D01*
X009611Y004448D01*
X009601Y004448D01*
X009411Y004038D02*
X009411Y003968D01*
X008821Y003388D01*
X007281Y003388D01*
X006029Y002126D01*
X006029Y001366D01*
X005773Y001366D02*
X005773Y002145D01*
X005771Y002148D01*
X007221Y003598D01*
X007273Y003935D02*
X006379Y003935D01*
X006080Y003978D02*
X006041Y004028D01*
X006121Y004108D01*
X006891Y004108D01*
X007053Y004269D01*
X007053Y004610D01*
X007057Y004034D02*
X007174Y004034D01*
X005898Y003738D02*
X003841Y003738D01*
X003841Y003836D02*
X005816Y003836D01*
X005782Y003935D02*
X003879Y003935D01*
X005623Y002950D02*
X006332Y002950D01*
X006234Y002851D02*
X005525Y002851D01*
X005722Y003048D02*
X006431Y003048D01*
X006529Y003147D02*
X005820Y003147D01*
X006979Y002555D02*
X007828Y002555D01*
X007841Y002568D02*
X007660Y002388D01*
X007493Y002388D01*
X007410Y002471D01*
X007300Y002516D01*
X007181Y002516D01*
X007072Y002471D01*
X006988Y002387D01*
X006942Y002277D01*
X006942Y002158D01*
X006988Y002049D01*
X007072Y001965D01*
X007181Y001919D01*
X007300Y001919D01*
X007410Y001965D01*
X007493Y002048D01*
X007660Y002048D01*
X007801Y002048D01*
X008081Y002328D01*
X008609Y002328D01*
X008692Y002245D01*
X008801Y002199D01*
X008920Y002199D01*
X009030Y002245D01*
X009114Y002329D01*
X009159Y002438D01*
X009159Y002557D01*
X009144Y002594D01*
X009231Y002507D01*
X009231Y002273D01*
X009301Y002203D01*
X009881Y002203D01*
X009881Y001693D01*
X009480Y001693D01*
X009499Y001738D01*
X009499Y001857D01*
X009454Y001967D01*
X009370Y002051D01*
X009260Y002096D01*
X009141Y002096D01*
X009032Y002051D01*
X009019Y002038D01*
X008640Y002038D01*
X008541Y001938D01*
X008424Y001821D01*
X008237Y001821D01*
X008207Y001851D01*
X008076Y001851D01*
X007945Y001851D01*
X007915Y001821D01*
X007702Y001821D01*
X007692Y001812D01*
X007683Y001821D01*
X007446Y001821D01*
X007436Y001812D01*
X007427Y001821D01*
X007190Y001821D01*
X007181Y001812D01*
X007171Y001821D01*
X006934Y001821D01*
X006925Y001812D01*
X006915Y001821D01*
X006678Y001821D01*
X006669Y001812D01*
X006659Y001821D01*
X006455Y001821D01*
X006455Y002031D01*
X007232Y002809D01*
X007232Y002798D01*
X007278Y002689D01*
X007362Y002605D01*
X007471Y002559D01*
X007590Y002559D01*
X007700Y002605D01*
X007783Y002688D01*
X008629Y002688D01*
X008609Y002668D01*
X007940Y002668D01*
X007841Y002568D01*
X007927Y002654D02*
X007749Y002654D01*
X008011Y002498D02*
X008861Y002498D01*
X009159Y002457D02*
X009231Y002457D01*
X009231Y002358D02*
X009126Y002358D01*
X009045Y002260D02*
X009244Y002260D01*
X009431Y002448D02*
X009601Y002448D01*
X009571Y002448D01*
X009551Y002428D01*
X009121Y002858D01*
X007531Y002858D01*
X007251Y002752D02*
X007176Y002752D01*
X007077Y002654D02*
X007312Y002654D01*
X007424Y002457D02*
X007730Y002457D01*
X007731Y002218D02*
X008011Y002498D01*
X008013Y002260D02*
X008677Y002260D01*
X009061Y002063D02*
X007816Y002063D01*
X007915Y002161D02*
X009881Y002161D01*
X009881Y002063D02*
X009341Y002063D01*
X009455Y001964D02*
X009881Y001964D01*
X009881Y001866D02*
X009496Y001866D01*
X009499Y001767D02*
X009881Y001767D01*
X009201Y001798D02*
X009131Y001868D01*
X008711Y001868D01*
X008588Y001745D01*
X008588Y001366D01*
X008844Y001366D02*
X008863Y001296D01*
X009003Y001296D01*
X009231Y001068D01*
X009509Y001176D02*
X009881Y001176D01*
X009881Y001203D02*
X009498Y001203D01*
X009529Y001127D01*
X009529Y001008D01*
X009484Y000899D01*
X009400Y000815D01*
X009290Y000769D01*
X009177Y000769D01*
X009219Y000667D01*
X009219Y000548D01*
X009174Y000439D01*
X009153Y000418D01*
X009231Y000418D01*
X009231Y000622D01*
X009301Y000693D01*
X009881Y000693D01*
X009881Y001203D01*
X009881Y001077D02*
X009529Y001077D01*
X009517Y000979D02*
X009881Y000979D01*
X009881Y000880D02*
X009465Y000880D01*
X009320Y000782D02*
X009881Y000782D01*
X009292Y000683D02*
X009213Y000683D01*
X009219Y000585D02*
X009231Y000585D01*
X009231Y000486D02*
X009193Y000486D01*
X008921Y000608D02*
X008851Y000678D01*
X007801Y000678D01*
X007564Y000914D01*
X007564Y001366D01*
X007309Y001366D02*
X007309Y000915D01*
X007171Y000778D01*
X006781Y000558D02*
X006691Y000468D01*
X006471Y000468D01*
X006541Y000538D01*
X006541Y001366D01*
X006285Y001366D02*
X006285Y002102D01*
X007351Y003168D01*
X007721Y003168D01*
X007831Y003058D01*
X009481Y003058D01*
X009183Y002555D02*
X009159Y002555D01*
X009601Y002448D02*
X009621Y002428D01*
X009611Y002448D02*
X009601Y002448D01*
X008567Y001964D02*
X007409Y001964D01*
X007073Y001964D02*
X006455Y001964D01*
X006486Y002063D02*
X006982Y002063D01*
X006891Y001938D02*
X006821Y002008D01*
X006891Y001938D02*
X006891Y002218D01*
X006942Y002260D02*
X006683Y002260D01*
X006782Y002358D02*
X006976Y002358D01*
X007058Y002457D02*
X006880Y002457D01*
X007241Y002218D02*
X007731Y002218D01*
X008076Y001851D02*
X008076Y001366D01*
X008076Y001366D01*
X008076Y001851D01*
X008076Y001767D02*
X008076Y001767D01*
X008076Y001669D02*
X008076Y001669D01*
X008076Y001570D02*
X008076Y001570D01*
X008076Y001471D02*
X008076Y001471D01*
X008076Y001373D02*
X008076Y001373D01*
X008076Y001365D02*
X008076Y000880D01*
X008076Y001365D01*
X008076Y001365D01*
X008076Y001274D02*
X008076Y001274D01*
X008076Y001176D02*
X008076Y001176D01*
X008076Y001077D02*
X008076Y001077D01*
X008076Y000979D02*
X008076Y000979D01*
X008207Y000880D02*
X008237Y000910D01*
X008451Y000910D01*
X008460Y000919D01*
X008469Y000910D01*
X008707Y000910D01*
X008716Y000919D01*
X008725Y000910D01*
X008963Y000910D01*
X008970Y000917D01*
X008975Y000906D01*
X008861Y000906D01*
X008752Y000861D01*
X008739Y000848D01*
X007871Y000848D01*
X007809Y000910D01*
X007915Y000910D01*
X007945Y000880D01*
X007839Y000880D01*
X007945Y000880D02*
X008076Y000880D01*
X008076Y000880D01*
X008207Y000880D01*
X008799Y000880D01*
X008468Y001866D02*
X006455Y001866D01*
X006585Y002161D02*
X006942Y002161D01*
X005517Y001366D02*
X005517Y000941D01*
X005681Y000778D01*
X006021Y000778D01*
X005580Y000638D02*
X005150Y000638D01*
X005179Y000708D01*
X005179Y000827D01*
X005175Y000836D01*
X005175Y000880D01*
X005261Y000880D01*
X005261Y001365D01*
X005261Y001365D01*
X005261Y000880D01*
X005261Y000880D01*
X005347Y000880D01*
X005347Y000871D01*
X005511Y000707D01*
X005580Y000638D01*
X005535Y000683D02*
X005169Y000683D01*
X005179Y000782D02*
X005436Y000782D01*
X005261Y000979D02*
X005261Y000979D01*
X005261Y001077D02*
X005261Y001077D01*
X005261Y001176D02*
X005261Y001176D01*
X005261Y001274D02*
X005261Y001274D01*
X005261Y001366D02*
X005261Y001851D01*
X005261Y001366D01*
X005261Y001366D01*
X005261Y001373D02*
X005261Y001373D01*
X005261Y001471D02*
X005261Y001471D01*
X005261Y001570D02*
X005261Y001570D01*
X005261Y001669D02*
X005261Y001669D01*
X005261Y001767D02*
X005261Y001767D01*
X005005Y001366D02*
X005005Y000892D01*
X004881Y000768D01*
X004861Y000748D01*
X004581Y000678D02*
X004441Y000818D01*
X003741Y000818D01*
X003671Y000958D01*
X003841Y001077D02*
X004049Y001077D01*
X004049Y001176D02*
X003841Y001176D01*
X003841Y001274D02*
X004049Y001274D01*
X004049Y001373D02*
X003841Y001373D01*
X003841Y001471D02*
X004049Y001471D01*
X004049Y001570D02*
X003841Y001570D01*
X003841Y001669D02*
X004049Y001669D01*
X004065Y001767D02*
X003841Y001767D01*
X004749Y001366D02*
X004749Y002259D01*
X004581Y000678D02*
X004581Y000528D01*
X004641Y000468D01*
X006471Y000468D01*
M02*
