G75*
G70*
%OFA0B0*%
%FSLAX24Y24*%
%IPPOS*%
%LPD*%
%AMOC8*
5,1,8,0,0,1.08239X$1,22.5*
%
%ADD10C,0.0000*%
%ADD11R,0.0433X0.0394*%
%ADD12R,0.0315X0.0315*%
%ADD13R,0.0137X0.0550*%
%ADD14R,0.0394X0.0433*%
%ADD15R,0.0118X0.0551*%
%ADD16R,0.0551X0.0118*%
%ADD17R,0.0945X0.0787*%
%ADD18R,0.0909X0.0197*%
%ADD19R,0.2100X0.0760*%
%ADD20R,0.0100X0.0450*%
%ADD21R,0.0450X0.0100*%
%ADD22C,0.1310*%
%ADD23C,0.0100*%
%ADD24R,0.0396X0.0396*%
%ADD25C,0.0160*%
%ADD26C,0.0396*%
%ADD27C,0.0120*%
D10*
X000128Y000229D02*
X000128Y021481D01*
X033828Y021481D01*
X033828Y000229D01*
X000128Y000229D01*
X002199Y003238D02*
X002201Y003265D01*
X002207Y003292D01*
X002216Y003318D01*
X002229Y003342D01*
X002245Y003365D01*
X002264Y003384D01*
X002286Y003401D01*
X002310Y003415D01*
X002335Y003425D01*
X002362Y003432D01*
X002389Y003435D01*
X002417Y003434D01*
X002444Y003429D01*
X002470Y003421D01*
X002494Y003409D01*
X002517Y003393D01*
X002538Y003375D01*
X002555Y003354D01*
X002570Y003330D01*
X002581Y003305D01*
X002589Y003279D01*
X002593Y003252D01*
X002593Y003224D01*
X002589Y003197D01*
X002581Y003171D01*
X002570Y003146D01*
X002555Y003122D01*
X002538Y003101D01*
X002517Y003083D01*
X002495Y003067D01*
X002470Y003055D01*
X002444Y003047D01*
X002417Y003042D01*
X002389Y003041D01*
X002362Y003044D01*
X002335Y003051D01*
X002310Y003061D01*
X002286Y003075D01*
X002264Y003092D01*
X002245Y003111D01*
X002229Y003134D01*
X002216Y003158D01*
X002207Y003184D01*
X002201Y003211D01*
X002199Y003238D01*
X002199Y004970D02*
X002201Y004997D01*
X002207Y005024D01*
X002216Y005050D01*
X002229Y005074D01*
X002245Y005097D01*
X002264Y005116D01*
X002286Y005133D01*
X002310Y005147D01*
X002335Y005157D01*
X002362Y005164D01*
X002389Y005167D01*
X002417Y005166D01*
X002444Y005161D01*
X002470Y005153D01*
X002494Y005141D01*
X002517Y005125D01*
X002538Y005107D01*
X002555Y005086D01*
X002570Y005062D01*
X002581Y005037D01*
X002589Y005011D01*
X002593Y004984D01*
X002593Y004956D01*
X002589Y004929D01*
X002581Y004903D01*
X002570Y004878D01*
X002555Y004854D01*
X002538Y004833D01*
X002517Y004815D01*
X002495Y004799D01*
X002470Y004787D01*
X002444Y004779D01*
X002417Y004774D01*
X002389Y004773D01*
X002362Y004776D01*
X002335Y004783D01*
X002310Y004793D01*
X002286Y004807D01*
X002264Y004824D01*
X002245Y004843D01*
X002229Y004866D01*
X002216Y004890D01*
X002207Y004916D01*
X002201Y004943D01*
X002199Y004970D01*
X031410Y004970D02*
X031412Y004997D01*
X031418Y005024D01*
X031427Y005050D01*
X031440Y005074D01*
X031456Y005097D01*
X031475Y005116D01*
X031497Y005133D01*
X031521Y005147D01*
X031546Y005157D01*
X031573Y005164D01*
X031600Y005167D01*
X031628Y005166D01*
X031655Y005161D01*
X031681Y005153D01*
X031705Y005141D01*
X031728Y005125D01*
X031749Y005107D01*
X031766Y005086D01*
X031781Y005062D01*
X031792Y005037D01*
X031800Y005011D01*
X031804Y004984D01*
X031804Y004956D01*
X031800Y004929D01*
X031792Y004903D01*
X031781Y004878D01*
X031766Y004854D01*
X031749Y004833D01*
X031728Y004815D01*
X031706Y004799D01*
X031681Y004787D01*
X031655Y004779D01*
X031628Y004774D01*
X031600Y004773D01*
X031573Y004776D01*
X031546Y004783D01*
X031521Y004793D01*
X031497Y004807D01*
X031475Y004824D01*
X031456Y004843D01*
X031440Y004866D01*
X031427Y004890D01*
X031418Y004916D01*
X031412Y004943D01*
X031410Y004970D01*
X031410Y003238D02*
X031412Y003265D01*
X031418Y003292D01*
X031427Y003318D01*
X031440Y003342D01*
X031456Y003365D01*
X031475Y003384D01*
X031497Y003401D01*
X031521Y003415D01*
X031546Y003425D01*
X031573Y003432D01*
X031600Y003435D01*
X031628Y003434D01*
X031655Y003429D01*
X031681Y003421D01*
X031705Y003409D01*
X031728Y003393D01*
X031749Y003375D01*
X031766Y003354D01*
X031781Y003330D01*
X031792Y003305D01*
X031800Y003279D01*
X031804Y003252D01*
X031804Y003224D01*
X031800Y003197D01*
X031792Y003171D01*
X031781Y003146D01*
X031766Y003122D01*
X031749Y003101D01*
X031728Y003083D01*
X031706Y003067D01*
X031681Y003055D01*
X031655Y003047D01*
X031628Y003042D01*
X031600Y003041D01*
X031573Y003044D01*
X031546Y003051D01*
X031521Y003061D01*
X031497Y003075D01*
X031475Y003092D01*
X031456Y003111D01*
X031440Y003134D01*
X031427Y003158D01*
X031418Y003184D01*
X031412Y003211D01*
X031410Y003238D01*
D11*
X020698Y003300D03*
X020029Y003300D03*
X017864Y003221D03*
X017194Y003221D03*
X011837Y006729D03*
X011168Y006729D03*
X009128Y001545D03*
X009128Y000876D03*
X005470Y000876D03*
X005470Y001545D03*
D12*
X006424Y001506D03*
X006424Y000915D03*
X007128Y000915D03*
X007753Y000915D03*
X007753Y001506D03*
X007128Y001506D03*
D13*
X007011Y002665D03*
X006756Y002665D03*
X006500Y002665D03*
X006244Y002665D03*
X005988Y002665D03*
X005732Y002665D03*
X005476Y002665D03*
X005220Y002665D03*
X004964Y002665D03*
X007267Y002665D03*
X007523Y002665D03*
X007779Y002665D03*
X008035Y002665D03*
X008291Y002665D03*
X008291Y005544D03*
X008035Y005544D03*
X007779Y005544D03*
X007523Y005544D03*
X007267Y005544D03*
X007011Y005544D03*
X006756Y005544D03*
X006500Y005544D03*
X006244Y005544D03*
X005988Y005544D03*
X005732Y005544D03*
X005476Y005544D03*
X005220Y005544D03*
X004964Y005544D03*
D14*
X009253Y004314D03*
X009253Y003644D03*
X017135Y007847D03*
X017135Y008517D03*
X022344Y005035D03*
X023013Y005035D03*
X023013Y004238D03*
X022344Y004238D03*
X026087Y001706D03*
X026087Y001037D03*
D15*
X014229Y001321D03*
X014032Y001321D03*
X013835Y001321D03*
X013638Y001321D03*
X013442Y001321D03*
X013245Y001321D03*
X013048Y001321D03*
X012851Y001321D03*
X012654Y001321D03*
X012457Y001321D03*
X012260Y001321D03*
X012064Y001321D03*
X011867Y001321D03*
X011670Y001321D03*
X011473Y001321D03*
X011276Y001321D03*
X011276Y005888D03*
X011473Y005888D03*
X011670Y005888D03*
X011867Y005888D03*
X012064Y005888D03*
X012260Y005888D03*
X012457Y005888D03*
X012654Y005888D03*
X012851Y005888D03*
X013048Y005888D03*
X013245Y005888D03*
X013442Y005888D03*
X013638Y005888D03*
X013835Y005888D03*
X014032Y005888D03*
X014229Y005888D03*
D16*
X015036Y005081D03*
X015036Y004884D03*
X015036Y004687D03*
X015036Y004490D03*
X015036Y004293D03*
X015036Y004096D03*
X015036Y003899D03*
X015036Y003703D03*
X015036Y003506D03*
X015036Y003309D03*
X015036Y003112D03*
X015036Y002915D03*
X015036Y002718D03*
X015036Y002521D03*
X015036Y002325D03*
X015036Y002128D03*
X010469Y002128D03*
X010469Y002325D03*
X010469Y002521D03*
X010469Y002718D03*
X010469Y002915D03*
X010469Y003112D03*
X010469Y003309D03*
X010469Y003506D03*
X010469Y003703D03*
X010469Y003899D03*
X010469Y004096D03*
X010469Y004293D03*
X010469Y004490D03*
X010469Y004687D03*
X010469Y004884D03*
X010469Y005081D03*
D17*
X003381Y005836D03*
X001215Y005836D03*
X001215Y002372D03*
X003381Y002372D03*
X030623Y002372D03*
X032788Y002372D03*
X032788Y005836D03*
X030623Y005836D03*
D18*
X030401Y004734D03*
X030401Y004419D03*
X030401Y004104D03*
X030401Y003789D03*
X030401Y003474D03*
X003603Y003474D03*
X003603Y003789D03*
X003603Y004104D03*
X003603Y004419D03*
X003603Y004734D03*
D19*
X017478Y001539D03*
X021278Y001539D03*
D20*
X019478Y004599D03*
X019281Y004599D03*
X019084Y004599D03*
X018887Y004599D03*
X018691Y004599D03*
X018494Y004599D03*
X018297Y004599D03*
X018100Y004599D03*
X018100Y007355D03*
X018297Y007355D03*
X018494Y007355D03*
X018691Y007355D03*
X018887Y007355D03*
X019084Y007355D03*
X019281Y007355D03*
X019478Y007355D03*
D21*
X020167Y006666D03*
X020167Y006469D03*
X020167Y006272D03*
X020167Y006076D03*
X020167Y005879D03*
X020167Y005682D03*
X020167Y005485D03*
X020167Y005288D03*
X017411Y005288D03*
X017411Y005485D03*
X017411Y005682D03*
X017411Y005879D03*
X017411Y006076D03*
X017411Y006272D03*
X017411Y006469D03*
X017411Y006666D03*
D22*
X029734Y006830D03*
X029734Y001660D03*
D23*
X030401Y003474D02*
X025482Y003474D01*
X025482Y002434D01*
X026087Y001829D01*
X026087Y001706D01*
X026087Y001037D02*
X025673Y000623D01*
X025167Y000623D01*
X021278Y001539D02*
X020029Y002788D01*
X020029Y003300D01*
X020167Y003438D01*
X019734Y003438D01*
X019734Y005288D01*
X020167Y005288D01*
X020915Y005035D02*
X020915Y005741D01*
X020927Y005741D01*
X020915Y005035D02*
X022344Y005035D01*
X023013Y005035D02*
X023671Y005035D01*
X024537Y004639D01*
X024537Y003789D01*
X030401Y003789D01*
X030401Y003474D02*
X021686Y003474D01*
X021387Y003772D01*
X022344Y004166D02*
X022344Y004238D01*
X022344Y004166D02*
X020206Y004166D01*
X019478Y004599D02*
X019478Y003517D01*
X019183Y003221D01*
X017864Y003221D01*
X017864Y001925D01*
X017478Y001539D01*
X015876Y000623D02*
X013048Y000623D01*
X013048Y001321D01*
X012260Y001321D02*
X012260Y001862D01*
X012526Y002128D01*
X011753Y002901D01*
X011753Y003479D01*
X011128Y002718D02*
X011128Y002229D01*
X011128Y002718D02*
X010469Y002718D01*
X010469Y002915D02*
X009128Y002915D01*
X009128Y001545D01*
X009128Y000876D02*
X007831Y000876D01*
X007753Y000915D01*
X007128Y000915D02*
X006424Y000915D01*
X006227Y000876D01*
X005470Y000876D01*
X006424Y001506D02*
X006756Y001837D01*
X006756Y002665D01*
X007011Y002665D02*
X007011Y001622D01*
X007128Y001506D01*
X007753Y001506D02*
X007779Y001532D01*
X007779Y002665D01*
X007779Y003379D01*
X007523Y003123D01*
X007523Y002665D01*
X007779Y003379D02*
X007779Y003506D01*
X007878Y003604D01*
X009293Y003604D01*
X009253Y003644D01*
X009253Y004314D02*
X010019Y005081D01*
X010469Y005081D01*
X011276Y005888D01*
X011276Y006621D01*
X011168Y006729D01*
X011473Y006365D02*
X011837Y006729D01*
X011670Y006562D01*
X011670Y005888D01*
X011473Y005888D02*
X011473Y006365D01*
X011473Y005888D02*
X011473Y004884D01*
X011503Y004854D01*
X012457Y005888D02*
X012457Y006899D01*
X012128Y007229D01*
X008378Y007229D01*
X008035Y006887D01*
X008035Y005544D01*
X007779Y005544D02*
X007779Y007006D01*
X008253Y007479D01*
X012378Y007479D01*
X012654Y007203D01*
X012654Y005888D01*
X015036Y004884D02*
X016514Y004884D01*
X016663Y005032D01*
X016663Y005879D01*
X017411Y005879D01*
X017411Y006076D02*
X016210Y006076D01*
X015876Y005741D01*
X016899Y005485D02*
X017411Y005485D01*
X017411Y005288D02*
X017372Y005249D01*
X017372Y004717D01*
X017144Y004490D01*
X015036Y004490D01*
X015036Y004687D02*
X016790Y004687D01*
X016899Y004796D01*
X016899Y005485D01*
X017411Y005682D02*
X017844Y005682D01*
X017844Y004293D01*
X015036Y004293D01*
X015036Y004096D02*
X018100Y004096D01*
X018100Y004599D01*
X018297Y004599D02*
X018297Y003772D01*
X015876Y003772D01*
X015876Y002718D01*
X015036Y002718D01*
X015036Y002128D02*
X012526Y002128D01*
X014229Y001321D02*
X014719Y001321D01*
X014878Y001479D01*
X016506Y003143D02*
X016584Y003221D01*
X017194Y003221D01*
X018887Y003753D02*
X018946Y003694D01*
X018887Y003753D02*
X018887Y004599D01*
X018691Y004599D02*
X018691Y005426D01*
X018474Y005662D01*
X018474Y006292D01*
X018710Y006292D01*
X019084Y006686D02*
X018238Y006686D01*
X018238Y005505D01*
X018494Y005249D01*
X018494Y004599D01*
X019084Y004599D02*
X019084Y005603D01*
X018946Y005741D01*
X019084Y006686D02*
X019084Y007355D01*
X019281Y007355D02*
X019281Y007788D01*
X017214Y007788D01*
X017214Y007847D01*
X017135Y007847D01*
X017214Y007788D02*
X007529Y007788D01*
X007529Y005544D01*
X007523Y005544D01*
X007523Y004708D01*
X007878Y004354D01*
X009212Y004354D01*
X009253Y004314D01*
X009253Y005104D02*
X008813Y005544D01*
X008291Y005544D01*
X007267Y005544D02*
X007267Y003744D01*
X007003Y003479D01*
X006500Y002665D02*
X006500Y004601D01*
X006753Y004854D01*
X006753Y005479D01*
X006756Y005482D01*
X006756Y005544D01*
X005998Y004734D02*
X006244Y004488D01*
X006244Y002665D01*
X005732Y002665D02*
X005732Y003458D01*
X005878Y003479D01*
X005476Y003828D02*
X005753Y004104D01*
X005476Y003828D02*
X005476Y002665D01*
X005476Y002090D01*
X005470Y001545D01*
X005220Y002665D02*
X005220Y004012D01*
X004813Y004419D01*
X004628Y004104D02*
X004964Y003768D01*
X004964Y002665D01*
X017135Y008517D02*
X017765Y008517D01*
X017765Y008733D01*
X019281Y007355D02*
X019281Y004599D01*
X020698Y003300D02*
X020777Y003221D01*
X021309Y003221D01*
D24*
X021387Y003772D03*
X020206Y004166D03*
X018946Y003694D03*
X020915Y005741D03*
X023671Y003851D03*
X024537Y004639D03*
X025797Y004245D03*
X028317Y007473D03*
X017765Y008733D03*
X015876Y005741D03*
X011753Y003479D03*
X011128Y002229D03*
X007878Y003604D03*
X007878Y004354D03*
X006753Y004854D03*
X005753Y004104D03*
X005878Y003479D03*
X007003Y003479D03*
X009253Y005104D03*
X011503Y004854D03*
X014878Y001479D03*
X015876Y000623D03*
X004253Y002979D03*
X004380Y006607D03*
D25*
X004301Y004734D02*
X003603Y004734D01*
X003603Y004419D02*
X004813Y004419D01*
X004628Y004104D02*
X003603Y004104D01*
X003603Y003474D02*
X003882Y003474D01*
X004253Y002979D01*
X004301Y004734D02*
X005998Y004734D01*
X028317Y004734D02*
X028317Y007473D01*
X028317Y004734D02*
X030401Y004734D01*
D26*
X025167Y000623D03*
X021309Y003221D03*
X018946Y005741D03*
X018710Y006292D03*
X018238Y006686D03*
X016506Y003143D03*
D27*
X023006Y003851D02*
X023671Y003851D01*
X023006Y003851D02*
X023013Y004238D01*
X025780Y004104D02*
X025797Y004245D01*
X025780Y004104D02*
X030401Y004104D01*
X004380Y004813D02*
X004301Y004734D01*
X004380Y004813D02*
X004380Y006607D01*
M02*
