G75*
G70*
%OFA0B0*%
%FSLAX24Y24*%
%IPPOS*%
%LPD*%
%AMOC8*
5,1,8,0,0,1.08239X$1,22.5*
%
%ADD10C,0.1310*%
%ADD11R,0.1181X0.0354*%
%ADD12C,0.0100*%
%ADD13R,0.0396X0.0396*%
%ADD14C,0.0160*%
%ADD15C,0.0396*%
%ADD16C,0.0240*%
%ADD17C,0.0120*%
D10*
X029734Y001660D03*
X029734Y006830D03*
D11*
X028376Y005426D03*
X028376Y004639D03*
X028376Y003851D03*
X028376Y003064D03*
D12*
X028376Y003851D02*
X023671Y003772D01*
X023671Y003851D01*
X024537Y004639D02*
X028376Y004639D01*
X021387Y004796D02*
X021387Y003772D01*
X021387Y004796D02*
X020206Y004796D01*
X020206Y005741D01*
X018946Y005741D01*
X018710Y006292D02*
X020915Y006292D01*
X020915Y005741D01*
X020206Y004166D02*
X019813Y003694D01*
X018946Y003694D01*
X015876Y005741D02*
X015876Y000623D01*
X014878Y001479D02*
X014128Y002229D01*
X011128Y002229D01*
X010753Y002604D01*
X007128Y002604D01*
X007003Y002729D01*
X007003Y003479D01*
X007628Y004104D02*
X007878Y004354D01*
X007628Y004104D02*
X005753Y004104D01*
X009253Y005104D02*
X010128Y005104D01*
X011753Y003479D01*
X017765Y008733D02*
X017844Y008733D01*
X017844Y008654D01*
D13*
X017765Y008733D03*
X015876Y005741D03*
X018946Y003694D03*
X020206Y004166D03*
X021387Y003772D03*
X023671Y003851D03*
X024537Y004639D03*
X025797Y004245D03*
X028317Y007473D03*
X020915Y005741D03*
X014878Y001479D03*
X015876Y000623D03*
X011753Y003479D03*
X011128Y002229D03*
X007878Y003604D03*
X007878Y004354D03*
X006753Y004854D03*
X005753Y004104D03*
X005878Y003479D03*
X007003Y003479D03*
X009253Y005104D03*
X011503Y004854D03*
X004380Y006607D03*
X004253Y002979D03*
D14*
X000308Y000409D02*
X000308Y021095D01*
X033592Y021095D01*
X033592Y000409D01*
X016214Y000409D01*
X016214Y000879D01*
X016132Y000961D01*
X016066Y000961D01*
X016066Y005403D01*
X016132Y005403D01*
X016214Y005485D01*
X016214Y005997D01*
X016132Y006079D01*
X015619Y006079D01*
X015537Y005997D01*
X015537Y005485D01*
X015619Y005403D01*
X015686Y005403D01*
X015686Y000961D01*
X015619Y000961D01*
X015537Y000879D01*
X015537Y000409D01*
X000308Y000409D01*
X000308Y000537D02*
X015537Y000537D01*
X015537Y000695D02*
X000308Y000695D01*
X000308Y000854D02*
X015537Y000854D01*
X015686Y001012D02*
X000308Y001012D01*
X000308Y001171D02*
X014592Y001171D01*
X014621Y001141D02*
X014539Y001223D01*
X014539Y001549D01*
X014049Y002039D01*
X011466Y002039D01*
X011466Y001973D01*
X011384Y001891D01*
X010871Y001891D01*
X010789Y001973D01*
X010789Y002299D01*
X010674Y002414D01*
X007049Y002414D01*
X006938Y002525D01*
X006813Y002650D01*
X006813Y003141D01*
X006746Y003141D01*
X006664Y003223D01*
X006664Y003735D01*
X006746Y003817D01*
X007259Y003817D01*
X007341Y003735D01*
X007341Y003223D01*
X007259Y003141D01*
X007193Y003141D01*
X007193Y002808D01*
X007206Y002794D01*
X010831Y002794D01*
X011058Y002567D01*
X011384Y002567D01*
X011466Y002485D01*
X011466Y002419D01*
X014206Y002419D01*
X014318Y002308D01*
X014808Y001817D01*
X015134Y001817D01*
X015216Y001735D01*
X015216Y001223D01*
X015134Y001141D01*
X014621Y001141D01*
X014539Y001329D02*
X000308Y001329D01*
X000308Y001488D02*
X014539Y001488D01*
X014442Y001646D02*
X000308Y001646D01*
X000308Y001805D02*
X014283Y001805D01*
X014125Y001963D02*
X011456Y001963D01*
X010799Y001963D02*
X000308Y001963D01*
X000308Y002122D02*
X010789Y002122D01*
X010789Y002280D02*
X000308Y002280D01*
X000308Y002439D02*
X007024Y002439D01*
X006866Y002597D02*
X000308Y002597D01*
X000308Y002756D02*
X006813Y002756D01*
X006813Y002914D02*
X002599Y002914D01*
X002610Y002919D02*
X002716Y003025D01*
X002773Y003163D01*
X002773Y003313D01*
X002716Y003451D01*
X002610Y003557D01*
X002471Y003615D01*
X002321Y003615D01*
X002183Y003557D01*
X002077Y003451D01*
X002019Y003313D01*
X002019Y003163D01*
X002077Y003025D01*
X002183Y002919D01*
X002321Y002861D01*
X002471Y002861D01*
X002610Y002919D01*
X002736Y003073D02*
X006813Y003073D01*
X006664Y003231D02*
X002773Y003231D01*
X002741Y003390D02*
X006664Y003390D01*
X006664Y003548D02*
X002619Y003548D01*
X002173Y003548D02*
X000308Y003548D01*
X000308Y003390D02*
X002051Y003390D01*
X002019Y003231D02*
X000308Y003231D01*
X000308Y003073D02*
X002057Y003073D01*
X002194Y002914D02*
X000308Y002914D01*
X000308Y003707D02*
X006664Y003707D01*
X006091Y003848D02*
X006091Y003914D01*
X007549Y003914D01*
X007706Y003914D01*
X007808Y004016D01*
X008134Y004016D01*
X008216Y004098D01*
X008216Y004610D01*
X008134Y004692D01*
X007621Y004692D01*
X007539Y004610D01*
X007539Y004294D01*
X006091Y004294D01*
X006091Y004360D01*
X006009Y004442D01*
X005496Y004442D01*
X005414Y004360D01*
X005414Y003848D01*
X005496Y003766D01*
X006009Y003766D01*
X006091Y003848D01*
X006091Y003865D02*
X011098Y003865D01*
X011256Y003707D02*
X007341Y003707D01*
X007341Y003548D02*
X011414Y003548D01*
X011414Y003549D02*
X011414Y003223D01*
X011496Y003141D01*
X012009Y003141D01*
X012091Y003223D01*
X012091Y003735D01*
X012009Y003817D01*
X011683Y003817D01*
X010206Y005294D01*
X009591Y005294D01*
X009591Y005360D01*
X009509Y005442D01*
X008996Y005442D01*
X008914Y005360D01*
X008914Y004848D01*
X008996Y004766D01*
X009509Y004766D01*
X009591Y004848D01*
X009591Y004914D01*
X010049Y004914D01*
X011414Y003549D01*
X011414Y003390D02*
X007341Y003390D01*
X007341Y003231D02*
X011414Y003231D01*
X012091Y003231D02*
X015686Y003231D01*
X015686Y003073D02*
X007193Y003073D01*
X007193Y002914D02*
X015686Y002914D01*
X015686Y002756D02*
X010870Y002756D01*
X011028Y002597D02*
X015686Y002597D01*
X015686Y002439D02*
X011466Y002439D01*
X012091Y003390D02*
X015686Y003390D01*
X015686Y003548D02*
X012091Y003548D01*
X012091Y003707D02*
X015686Y003707D01*
X015686Y003865D02*
X011635Y003865D01*
X011477Y004024D02*
X015686Y004024D01*
X015686Y004182D02*
X011318Y004182D01*
X011160Y004341D02*
X015686Y004341D01*
X015686Y004499D02*
X011001Y004499D01*
X010843Y004658D02*
X015686Y004658D01*
X015686Y004816D02*
X010684Y004816D01*
X010526Y004975D02*
X015686Y004975D01*
X015686Y005133D02*
X010367Y005133D01*
X010209Y005292D02*
X015686Y005292D01*
X015572Y005450D02*
X000308Y005450D01*
X000308Y005292D02*
X002187Y005292D01*
X002183Y005290D02*
X002077Y005184D01*
X002019Y005045D01*
X002019Y004895D01*
X002077Y004757D01*
X002183Y004651D01*
X002321Y004593D01*
X002471Y004593D01*
X002610Y004651D01*
X002716Y004757D01*
X002773Y004895D01*
X002773Y005045D01*
X002716Y005184D01*
X002610Y005290D01*
X002471Y005347D01*
X002321Y005347D01*
X002183Y005290D01*
X002056Y005133D02*
X000308Y005133D01*
X000308Y004975D02*
X002019Y004975D01*
X002052Y004816D02*
X000308Y004816D01*
X000308Y004658D02*
X002176Y004658D01*
X002616Y004658D02*
X007587Y004658D01*
X007539Y004499D02*
X000308Y004499D01*
X000308Y004341D02*
X005414Y004341D01*
X005414Y004182D02*
X000308Y004182D01*
X000308Y004024D02*
X005414Y004024D01*
X005414Y003865D02*
X000308Y003865D01*
X002605Y005292D02*
X008914Y005292D01*
X008914Y005133D02*
X002737Y005133D01*
X002773Y004975D02*
X008914Y004975D01*
X008946Y004816D02*
X002740Y004816D01*
X004123Y006269D02*
X004636Y006269D01*
X004718Y006351D01*
X004718Y006578D01*
X005747Y007607D01*
X021280Y007607D01*
X022504Y006382D01*
X022519Y006360D01*
X022541Y006346D01*
X022559Y006328D01*
X022583Y006318D01*
X022605Y006303D01*
X022631Y006298D01*
X022655Y006288D01*
X022681Y006288D01*
X027645Y005306D01*
X027645Y005191D01*
X027727Y005109D01*
X029024Y005109D01*
X029106Y005191D01*
X029106Y005661D01*
X029024Y005743D01*
X028112Y005743D01*
X022834Y006788D01*
X021608Y008014D01*
X021535Y008087D01*
X021439Y008127D01*
X005588Y008127D01*
X005492Y008087D01*
X004350Y006945D01*
X004123Y006945D01*
X004041Y006863D01*
X004041Y006351D01*
X004123Y006269D01*
X004041Y006401D02*
X000308Y006401D01*
X000308Y006243D02*
X018372Y006243D01*
X018372Y006225D02*
X018424Y006101D01*
X018519Y006005D01*
X018643Y005954D01*
X018681Y005954D01*
X018660Y005932D01*
X018608Y005808D01*
X018608Y005674D01*
X018660Y005549D01*
X018755Y005454D01*
X018879Y005403D01*
X019014Y005403D01*
X019138Y005454D01*
X019233Y005549D01*
X019234Y005551D01*
X020016Y005551D01*
X020016Y004717D01*
X020128Y004606D01*
X021197Y004606D01*
X021197Y004111D01*
X021131Y004111D01*
X021049Y004029D01*
X021049Y003516D01*
X021131Y003434D01*
X021644Y003434D01*
X021726Y003516D01*
X021726Y004029D01*
X021644Y004111D01*
X021577Y004111D01*
X021577Y004875D01*
X021466Y004986D01*
X020396Y004986D01*
X020396Y005820D01*
X020285Y005931D01*
X019234Y005931D01*
X019233Y005932D01*
X019138Y006028D01*
X019014Y006079D01*
X018975Y006079D01*
X018997Y006101D01*
X018998Y006102D01*
X020725Y006102D01*
X020725Y006079D01*
X020659Y006079D01*
X020577Y005997D01*
X020577Y005485D01*
X020659Y005403D01*
X021171Y005403D01*
X021253Y005485D01*
X021253Y005997D01*
X021171Y006079D01*
X021105Y006079D01*
X021105Y006371D01*
X020994Y006482D01*
X018998Y006482D01*
X018997Y006484D01*
X018902Y006579D01*
X018777Y006630D01*
X018643Y006630D01*
X018519Y006579D01*
X018424Y006484D01*
X018372Y006359D01*
X018372Y006225D01*
X018440Y006084D02*
X000308Y006084D01*
X000308Y005926D02*
X015537Y005926D01*
X015537Y005767D02*
X000308Y005767D01*
X000308Y005609D02*
X015537Y005609D01*
X016066Y005292D02*
X020016Y005292D01*
X020016Y005450D02*
X019128Y005450D01*
X018765Y005450D02*
X016179Y005450D01*
X016214Y005609D02*
X018635Y005609D01*
X018608Y005767D02*
X016214Y005767D01*
X016214Y005926D02*
X018657Y005926D01*
X018980Y006084D02*
X020725Y006084D01*
X020577Y005926D02*
X020290Y005926D01*
X020396Y005767D02*
X020577Y005767D01*
X020577Y005609D02*
X020396Y005609D01*
X020396Y005450D02*
X020612Y005450D01*
X020396Y005292D02*
X027645Y005292D01*
X027703Y005133D02*
X020396Y005133D01*
X020016Y005133D02*
X016066Y005133D01*
X016066Y004975D02*
X020016Y004975D01*
X020016Y004816D02*
X016066Y004816D01*
X016066Y004658D02*
X020076Y004658D01*
X019950Y004504D02*
X019868Y004422D01*
X019868Y004057D01*
X019724Y003884D01*
X019285Y003884D01*
X019285Y003950D01*
X019203Y004032D01*
X018690Y004032D01*
X018608Y003950D01*
X018608Y003438D01*
X018690Y003356D01*
X019203Y003356D01*
X019285Y003438D01*
X019285Y003504D01*
X019744Y003504D01*
X019751Y003497D01*
X019821Y003504D01*
X019891Y003504D01*
X019898Y003511D01*
X019908Y003512D01*
X019953Y003565D01*
X020003Y003615D01*
X020003Y003625D01*
X020172Y003828D01*
X020462Y003828D01*
X020544Y003910D01*
X020544Y004422D01*
X020462Y004504D01*
X019950Y004504D01*
X019945Y004499D02*
X016066Y004499D01*
X016066Y004341D02*
X019868Y004341D01*
X019868Y004182D02*
X016066Y004182D01*
X016066Y004024D02*
X018682Y004024D01*
X018608Y003865D02*
X016066Y003865D01*
X016066Y003707D02*
X018608Y003707D01*
X018608Y003548D02*
X016066Y003548D01*
X016066Y003390D02*
X018656Y003390D01*
X019237Y003390D02*
X027682Y003390D01*
X027675Y003385D02*
X027641Y003351D01*
X027617Y003310D01*
X027605Y003265D01*
X027605Y003072D01*
X028367Y003072D01*
X028367Y003055D01*
X028384Y003055D01*
X028384Y002707D01*
X028990Y002707D01*
X029036Y002719D01*
X029077Y002743D01*
X029110Y002776D01*
X029134Y002817D01*
X029146Y002863D01*
X029146Y003055D01*
X028384Y003055D01*
X028384Y003072D01*
X029146Y003072D01*
X029146Y003265D01*
X029134Y003310D01*
X029110Y003351D01*
X029077Y003385D01*
X029036Y003409D01*
X028990Y003421D01*
X028384Y003421D01*
X028384Y003072D01*
X028367Y003072D01*
X028367Y003421D01*
X027761Y003421D01*
X027716Y003409D01*
X027675Y003385D01*
X027727Y003534D02*
X029024Y003534D01*
X029106Y003616D01*
X029106Y004086D01*
X029024Y004168D01*
X027727Y004168D01*
X027645Y004086D01*
X027645Y004029D01*
X026135Y004004D01*
X026135Y004449D01*
X027645Y004449D01*
X027645Y004403D01*
X027727Y004321D01*
X029024Y004321D01*
X029106Y004403D01*
X029106Y004874D01*
X029024Y004956D01*
X027727Y004956D01*
X027645Y004874D01*
X027645Y004829D01*
X024875Y004829D01*
X024875Y004895D01*
X024793Y004977D01*
X024281Y004977D01*
X024199Y004895D01*
X024199Y004382D01*
X024281Y004300D01*
X024793Y004300D01*
X024875Y004382D01*
X024875Y004449D01*
X025459Y004449D01*
X025459Y004142D01*
X025386Y004051D01*
X024009Y004051D01*
X024009Y004107D01*
X023927Y004189D01*
X023415Y004189D01*
X023333Y004107D01*
X023333Y003595D01*
X023415Y003513D01*
X023927Y003513D01*
X024002Y003588D01*
X027645Y003649D01*
X027645Y003616D01*
X027727Y003534D01*
X027713Y003548D02*
X023962Y003548D01*
X023380Y003548D02*
X021726Y003548D01*
X021726Y003707D02*
X023333Y003707D01*
X023333Y003865D02*
X021726Y003865D01*
X021726Y004024D02*
X023333Y004024D01*
X023408Y004182D02*
X021577Y004182D01*
X021577Y004341D02*
X024241Y004341D01*
X024199Y004499D02*
X021577Y004499D01*
X021577Y004658D02*
X024199Y004658D01*
X024199Y004816D02*
X021577Y004816D01*
X021478Y004975D02*
X024279Y004975D01*
X024795Y004975D02*
X031230Y004975D01*
X031230Y005045D02*
X031230Y004895D01*
X031287Y004757D01*
X031393Y004651D01*
X031532Y004593D01*
X031682Y004593D01*
X031820Y004651D01*
X031926Y004757D01*
X031984Y004895D01*
X031984Y005045D01*
X031926Y005184D01*
X031820Y005290D01*
X031682Y005347D01*
X031532Y005347D01*
X031393Y005290D01*
X031287Y005184D01*
X031230Y005045D01*
X031266Y005133D02*
X029048Y005133D01*
X029106Y005292D02*
X031398Y005292D01*
X031816Y005292D02*
X033592Y005292D01*
X033592Y005450D02*
X029106Y005450D01*
X029106Y005609D02*
X033592Y005609D01*
X033592Y005767D02*
X027991Y005767D01*
X027191Y005926D02*
X033592Y005926D01*
X033592Y006084D02*
X030011Y006084D01*
X029892Y006035D02*
X030184Y006156D01*
X030408Y006380D01*
X030529Y006672D01*
X030529Y006988D01*
X030408Y007280D01*
X030184Y007504D01*
X029892Y007625D01*
X029576Y007625D01*
X029284Y007504D01*
X029060Y007280D01*
X028939Y006988D01*
X028939Y006672D01*
X029060Y006380D01*
X029284Y006156D01*
X029576Y006035D01*
X029892Y006035D01*
X030271Y006243D02*
X033592Y006243D01*
X033592Y006401D02*
X030417Y006401D01*
X030482Y006560D02*
X033592Y006560D01*
X033592Y006718D02*
X030529Y006718D01*
X030529Y006877D02*
X033592Y006877D01*
X033592Y007035D02*
X030509Y007035D01*
X030444Y007194D02*
X033592Y007194D01*
X033592Y007352D02*
X030336Y007352D01*
X030168Y007511D02*
X033592Y007511D01*
X033592Y007669D02*
X021953Y007669D01*
X022111Y007511D02*
X029300Y007511D01*
X029132Y007352D02*
X022270Y007352D01*
X022428Y007194D02*
X029024Y007194D01*
X028958Y007035D02*
X022587Y007035D01*
X022745Y006877D02*
X028939Y006877D01*
X028939Y006718D02*
X023186Y006718D01*
X022911Y006243D02*
X021105Y006243D01*
X021105Y006084D02*
X023711Y006084D01*
X023987Y006560D02*
X028985Y006560D01*
X029051Y006401D02*
X024788Y006401D01*
X024512Y005926D02*
X021253Y005926D01*
X021253Y005767D02*
X025313Y005767D01*
X025589Y006243D02*
X029197Y006243D01*
X029457Y006084D02*
X026390Y006084D01*
X026114Y005609D02*
X021253Y005609D01*
X021218Y005450D02*
X026915Y005450D01*
X026135Y004341D02*
X027708Y004341D01*
X027322Y004024D02*
X026135Y004024D01*
X026135Y004182D02*
X033592Y004182D01*
X033592Y004024D02*
X029106Y004024D01*
X029106Y003865D02*
X033592Y003865D01*
X033592Y003707D02*
X029106Y003707D01*
X029038Y003548D02*
X031384Y003548D01*
X031393Y003557D02*
X031287Y003451D01*
X031230Y003313D01*
X031230Y003163D01*
X031287Y003025D01*
X031393Y002919D01*
X031532Y002861D01*
X031682Y002861D01*
X031820Y002919D01*
X031926Y003025D01*
X031984Y003163D01*
X031984Y003313D01*
X031926Y003451D01*
X031820Y003557D01*
X031682Y003615D01*
X031532Y003615D01*
X031393Y003557D01*
X031262Y003390D02*
X029069Y003390D01*
X029146Y003231D02*
X031230Y003231D01*
X031268Y003073D02*
X029146Y003073D01*
X029146Y002914D02*
X031404Y002914D01*
X031810Y002914D02*
X033592Y002914D01*
X033592Y002756D02*
X029090Y002756D01*
X029284Y002334D02*
X029060Y002110D01*
X028939Y001818D01*
X028939Y001502D01*
X029060Y001210D01*
X029284Y000986D01*
X029576Y000865D01*
X029892Y000865D01*
X030184Y000986D01*
X030408Y001210D01*
X030529Y001502D01*
X030529Y001818D01*
X030408Y002110D01*
X030184Y002334D01*
X029892Y002455D01*
X029576Y002455D01*
X029284Y002334D01*
X029230Y002280D02*
X016066Y002280D01*
X016066Y002122D02*
X029071Y002122D01*
X028999Y001963D02*
X016066Y001963D01*
X016066Y001805D02*
X028939Y001805D01*
X028939Y001646D02*
X016066Y001646D01*
X016066Y001488D02*
X028945Y001488D01*
X029010Y001329D02*
X016066Y001329D01*
X016066Y001171D02*
X029099Y001171D01*
X029257Y001012D02*
X016066Y001012D01*
X016214Y000854D02*
X033592Y000854D01*
X033592Y001012D02*
X030210Y001012D01*
X030369Y001171D02*
X033592Y001171D01*
X033592Y001329D02*
X030457Y001329D01*
X030523Y001488D02*
X033592Y001488D01*
X033592Y001646D02*
X030529Y001646D01*
X030529Y001805D02*
X033592Y001805D01*
X033592Y001963D02*
X030469Y001963D01*
X030396Y002122D02*
X033592Y002122D01*
X033592Y002280D02*
X030238Y002280D01*
X029931Y002439D02*
X033592Y002439D01*
X033592Y002597D02*
X016066Y002597D01*
X016066Y002439D02*
X029536Y002439D01*
X028384Y002756D02*
X028367Y002756D01*
X028367Y002707D02*
X027761Y002707D01*
X027716Y002719D01*
X027675Y002743D01*
X027641Y002776D01*
X027617Y002817D01*
X027605Y002863D01*
X027605Y003055D01*
X028367Y003055D01*
X028367Y002707D01*
X028367Y002914D02*
X028384Y002914D01*
X028367Y003073D02*
X028384Y003073D01*
X028367Y003231D02*
X028384Y003231D01*
X028367Y003390D02*
X028384Y003390D01*
X027605Y003231D02*
X016066Y003231D01*
X016066Y003073D02*
X027605Y003073D01*
X027605Y002914D02*
X016066Y002914D01*
X016066Y002756D02*
X027662Y002756D01*
X029043Y004341D02*
X033592Y004341D01*
X033592Y004499D02*
X029106Y004499D01*
X029106Y004658D02*
X031387Y004658D01*
X031263Y004816D02*
X029106Y004816D01*
X031827Y004658D02*
X033592Y004658D01*
X033592Y004816D02*
X031951Y004816D01*
X031984Y004975D02*
X033592Y004975D01*
X033592Y005133D02*
X031947Y005133D01*
X031830Y003548D02*
X033592Y003548D01*
X033592Y003390D02*
X031952Y003390D01*
X031984Y003231D02*
X033592Y003231D01*
X033592Y003073D02*
X031946Y003073D01*
X033592Y000695D02*
X016214Y000695D01*
X016214Y000537D02*
X033592Y000537D01*
X025459Y004182D02*
X023934Y004182D01*
X024833Y004341D02*
X025459Y004341D01*
X022486Y006401D02*
X021075Y006401D01*
X022010Y006877D02*
X005017Y006877D01*
X005175Y007035D02*
X021852Y007035D01*
X021693Y007194D02*
X005334Y007194D01*
X005492Y007352D02*
X021535Y007352D01*
X021376Y007511D02*
X005651Y007511D01*
X005232Y007828D02*
X000308Y007828D01*
X000308Y007986D02*
X005391Y007986D01*
X005074Y007669D02*
X000308Y007669D01*
X000308Y007511D02*
X004915Y007511D01*
X004757Y007352D02*
X000308Y007352D01*
X000308Y007194D02*
X004598Y007194D01*
X004440Y007035D02*
X000308Y007035D01*
X000308Y006877D02*
X004055Y006877D01*
X004041Y006718D02*
X000308Y006718D01*
X000308Y006560D02*
X004041Y006560D01*
X004718Y006560D02*
X018500Y006560D01*
X018389Y006401D02*
X004718Y006401D01*
X004858Y006718D02*
X022169Y006718D01*
X022327Y006560D02*
X018921Y006560D01*
X021608Y008014D02*
X021608Y008014D01*
X021636Y007986D02*
X033592Y007986D01*
X033592Y007828D02*
X021794Y007828D01*
X021197Y004499D02*
X020468Y004499D01*
X020544Y004341D02*
X021197Y004341D01*
X021197Y004182D02*
X020544Y004182D01*
X020544Y004024D02*
X021049Y004024D01*
X021049Y003865D02*
X020499Y003865D01*
X020071Y003707D02*
X021049Y003707D01*
X021049Y003548D02*
X019939Y003548D01*
X019840Y004024D02*
X019211Y004024D01*
X015686Y002280D02*
X014345Y002280D01*
X014504Y002122D02*
X015686Y002122D01*
X015686Y001963D02*
X014662Y001963D01*
X015146Y001805D02*
X015686Y001805D01*
X015686Y001646D02*
X015216Y001646D01*
X015216Y001488D02*
X015686Y001488D01*
X015686Y001329D02*
X015216Y001329D01*
X015163Y001171D02*
X015686Y001171D01*
X010939Y004024D02*
X008141Y004024D01*
X008216Y004182D02*
X010781Y004182D01*
X010622Y004341D02*
X008216Y004341D01*
X008216Y004499D02*
X010464Y004499D01*
X010305Y004658D02*
X008168Y004658D01*
X007539Y004341D02*
X006091Y004341D01*
X009559Y004816D02*
X010147Y004816D01*
X000308Y008145D02*
X033592Y008145D01*
X033592Y008303D02*
X000308Y008303D01*
X000308Y008462D02*
X033592Y008462D01*
X033592Y008620D02*
X000308Y008620D01*
X000308Y008779D02*
X033592Y008779D01*
X033592Y008937D02*
X000308Y008937D01*
X000308Y009096D02*
X033592Y009096D01*
X033592Y009254D02*
X000308Y009254D01*
X000308Y009413D02*
X033592Y009413D01*
X033592Y009571D02*
X000308Y009571D01*
X000308Y009730D02*
X033592Y009730D01*
X033592Y009888D02*
X000308Y009888D01*
X000308Y010047D02*
X033592Y010047D01*
X033592Y010205D02*
X000308Y010205D01*
X000308Y010364D02*
X033592Y010364D01*
X033592Y010522D02*
X000308Y010522D01*
X000308Y010681D02*
X033592Y010681D01*
X033592Y010839D02*
X000308Y010839D01*
X000308Y010998D02*
X033592Y010998D01*
X033592Y011156D02*
X000308Y011156D01*
X000308Y011315D02*
X033592Y011315D01*
X033592Y011473D02*
X000308Y011473D01*
X000308Y011632D02*
X033592Y011632D01*
X033592Y011790D02*
X000308Y011790D01*
X000308Y011949D02*
X033592Y011949D01*
X033592Y012107D02*
X000308Y012107D01*
X000308Y012266D02*
X033592Y012266D01*
X033592Y012424D02*
X000308Y012424D01*
X000308Y012583D02*
X033592Y012583D01*
X033592Y012741D02*
X000308Y012741D01*
X000308Y012900D02*
X033592Y012900D01*
X033592Y013058D02*
X000308Y013058D01*
X000308Y013217D02*
X033592Y013217D01*
X033592Y013375D02*
X000308Y013375D01*
X000308Y013534D02*
X033592Y013534D01*
X033592Y013692D02*
X000308Y013692D01*
X000308Y013851D02*
X033592Y013851D01*
X033592Y014009D02*
X000308Y014009D01*
X000308Y014168D02*
X033592Y014168D01*
X033592Y014326D02*
X000308Y014326D01*
X000308Y014485D02*
X033592Y014485D01*
X033592Y014643D02*
X000308Y014643D01*
X000308Y014802D02*
X033592Y014802D01*
X033592Y014960D02*
X000308Y014960D01*
X000308Y015119D02*
X033592Y015119D01*
X033592Y015277D02*
X000308Y015277D01*
X000308Y015436D02*
X033592Y015436D01*
X033592Y015594D02*
X000308Y015594D01*
X000308Y015753D02*
X033592Y015753D01*
X033592Y015911D02*
X000308Y015911D01*
X000308Y016070D02*
X033592Y016070D01*
X033592Y016228D02*
X000308Y016228D01*
X000308Y016387D02*
X033592Y016387D01*
X033592Y016545D02*
X000308Y016545D01*
X000308Y016704D02*
X033592Y016704D01*
X033592Y016862D02*
X000308Y016862D01*
X000308Y017021D02*
X033592Y017021D01*
X033592Y017179D02*
X000308Y017179D01*
X000308Y017338D02*
X033592Y017338D01*
X033592Y017496D02*
X000308Y017496D01*
X000308Y017655D02*
X033592Y017655D01*
X033592Y017813D02*
X000308Y017813D01*
X000308Y017972D02*
X033592Y017972D01*
X033592Y018130D02*
X000308Y018130D01*
X000308Y018289D02*
X033592Y018289D01*
X033592Y018447D02*
X000308Y018447D01*
X000308Y018606D02*
X033592Y018606D01*
X033592Y018764D02*
X000308Y018764D01*
X000308Y018923D02*
X033592Y018923D01*
X033592Y019081D02*
X000308Y019081D01*
X000308Y019240D02*
X033592Y019240D01*
X033592Y019398D02*
X000308Y019398D01*
X000308Y019557D02*
X033592Y019557D01*
X033592Y019715D02*
X000308Y019715D01*
X000308Y019874D02*
X033592Y019874D01*
X033592Y020032D02*
X000308Y020032D01*
X000308Y020191D02*
X033592Y020191D01*
X033592Y020349D02*
X000308Y020349D01*
X000308Y020508D02*
X033592Y020508D01*
X033592Y020666D02*
X000308Y020666D01*
X000308Y020825D02*
X033592Y020825D01*
X033592Y020983D02*
X000308Y020983D01*
D15*
X018238Y006686D03*
X018710Y006292D03*
X018946Y005741D03*
X021309Y003221D03*
X025167Y000623D03*
X016506Y003143D03*
D16*
X021387Y007867D02*
X022706Y006548D01*
X028376Y005426D01*
X021387Y007867D02*
X005639Y007867D01*
X004380Y006607D01*
D17*
X023671Y003851D02*
X025482Y003851D01*
X025797Y004245D01*
M02*
